<?xml version="1.0" encoding="UTF-8" standalone="no"?>
<!-- Created with Inkscape (http://www.inkscape.org/) -->
<svg
   xmlns:dc="http://purl.org/dc/elements/1.1/"
   xmlns:cc="http://creativecommons.org/ns#"
   xmlns:rdf="http://www.w3.org/1999/02/22-rdf-syntax-ns#"
   xmlns:svg="http://www.w3.org/2000/svg"
   xmlns="http://www.w3.org/2000/svg"
   xmlns:sodipodi="http://sodipodi.sourceforge.net/DTD/sodipodi-0.dtd"
   xmlns:inkscape="http://www.inkscape.org/namespaces/inkscape"
   width="16px"
   height="16px"
   id="svg2385"
   sodipodi:version="0.32"
   inkscape:version="0.46"
   sodipodi:docname="edit_monospace.svg"
   inkscape:output_extension="org.inkscape.output.svg.inkscape">
  <defs
     id="defs2387">
    <inkscape:perspective
       sodipodi:type="inkscape:persp3d"
       inkscape:vp_x="0 : 8 : 1"
       inkscape:vp_y="0 : 1000 : 0"
       inkscape:vp_z="16 : 8 : 1"
       inkscape:persp3d-origin="8 : 5.3333333 : 1"
       id="perspective2393" />
  </defs>
  <sodipodi:namedview
     id="base"
     pagecolor="#ffffff"
     bordercolor="#666666"
     borderopacity="1.0"
     inkscape:pageopacity="0.0"
     inkscape:pageshadow="2"
     inkscape:zoom="29.256478"
     inkscape:cx="6.0420104"
     inkscape:cy="8.3260504"
     inkscape:current-layer="layer1"
     showgrid="true"
     inkscape:grid-bbox="true"
     inkscape:document-units="px"
     gridtolerance="7"
     guidetolerance="3"
     inkscape:window-width="1024"
     inkscape:window-height="718"
     inkscape:window-x="0"
     inkscape:window-y="0"
     inkscape:snap-bbox="true"
     inkscape:object-paths="true"
     inkscape:object-nodes="true">
    <inkscape:grid
       type="xygrid"
       id="grid3169"
       visible="true"
       enabled="true" />
  </sodipodi:namedview>
  <metadata
     id="metadata2390">
    <rdf:RDF>
      <cc:Work
         rdf:about="">
        <dc:format>image/svg+xml</dc:format>
        <dc:type
           rdf:resource="http://purl.org/dc/dcmitype/StillImage" />
      </cc:Work>
    </rdf:RDF>
  </metadata>
  <g
     id="layer1"
     inkscape:label="Layer 1"
     inkscape:groupmode="layer">
    <rect
       style="opacity:0;fill:#ffffff;fill-opacity:1;fill-rule:evenodd;stroke:none;stroke-width:1;stroke-miterlimit:4;stroke-dasharray:none;stroke-opacity:1"
       id="rect3254"
       width="16"
       height="16"
       x="0"
       y="0"
       ry="0" />
    <path
       transform="scale(1.021087,0.9793485)"
       style="font-size:3.08434534px;font-style:normal;font-variant:normal;font-weight:normal;font-stretch:normal;fill:#000000;fill-opacity:1;stroke:none;stroke-width:1px;stroke-linecap:butt;stroke-linejoin:miter;stroke-opacity:1;font-family:Times New Roman;-inkscape-font-specification:Times New Roman"
       d="M 6.7650778,4.0843483 L 6.8554394,6.0000159 L 6.6265232,6.0000159 C 6.5823394,5.6626722 6.5220983,5.421708 6.4457998,5.2771224 C 6.3212948,5.0441973 6.1546279,4.8735143 5.9457985,4.7650729 C 5.7409726,4.6526304 5.4698878,4.5964054 5.1325434,4.5963978 L 3.981938,4.5963978 L 3.981938,10.837378 C 3.9819337,11.339388 4.0361506,11.652642 4.144589,11.777139 C 4.2971952,11.945815 4.5321353,12.030152 4.8494101,12.030152 L 5.1325434,12.030152 L 5.1325434,12.253044 L 1.668679,12.253044 L 1.668679,12.030152 L 1.9578364,12.030152 C 2.3032161,12.030152 2.5481964,11.925734 2.6927781,11.716898 C 2.7811285,11.588384 2.8253053,11.295211 2.8253085,10.837378 L 2.8253085,4.5963978 L 1.8433783,4.5963978 C 1.4618493,4.5964054 1.1907646,4.6245179 1.0301231,4.6807354 C 0.82128606,4.7570483 0.64257092,4.9036348 0.49397717,5.1204955 C 0.34538169,5.3373705 0.25702814,5.6305436 0.22891625,6.0000159 L -9.3132257e-09,6.0000159 L 0.096385783,4.0843483 L 6.7650778,4.0843483"
       id="text2386" />
    <path
       transform="scale(1.0208931,0.9795344)"
       style="font-size:3.08375978px;font-style:normal;font-variant:normal;font-weight:normal;font-stretch:normal;fill:#000000;fill-opacity:1;stroke:none;stroke-width:1px;stroke-linecap:butt;stroke-linejoin:miter;stroke-opacity:1;font-family:Times New Roman;-inkscape-font-specification:Times New Roman"
       d="M 15.579603,4.0835721 L 15.669948,5.998876 L 15.441075,5.998876 C 15.396899,5.6615964 15.33667,5.4206779 15.260386,5.2761198 C 15.135904,5.0432389 14.969269,4.8725883 14.760479,4.7641675 C 14.555692,4.6517464 14.284659,4.5955321 13.947379,4.5955244 L 12.796992,4.5955244 L 12.796992,10.83532 C 12.796987,11.337235 12.851194,11.650429 12.959612,11.774903 C 13.112189,11.943546 13.347085,12.027868 13.664299,12.027867 L 13.947379,12.027867 L 13.947379,12.250717 L 10.484172,12.250717 L 10.484172,12.027867 L 10.773274,12.027867 C 11.118589,12.027868 11.363522,11.92347 11.508077,11.714673 C 11.59641,11.586184 11.640579,11.293066 11.640582,10.83532 L 11.640582,4.5955244 L 10.658838,4.5955244 C 10.277382,4.5955321 10.006348,4.6236392 9.8457373,4.679846 C 9.6369399,4.7561444 9.4582586,4.9027031 9.3096931,5.1195227 C 9.1611258,5.3363564 9.0727891,5.6294739 9.0446825,5.998876 L 8.8158097,5.998876 L 8.9121772,4.0835721 L 15.579603,4.0835721"
       id="text2390" />
  </g>
</svg>
