<?xml version="1.0" encoding="iso-8859-1"?>
<!-- Generator: Adobe Illustrator 18.1.1, SVG Export Plug-In . SVG Version: 6.00 Build 0)  -->
<svg xmlns="http://www.w3.org/2000/svg" xmlns:xlink="http://www.w3.org/1999/xlink" version="1.1" id="Layer_1" x="0px" y="0px" viewBox="0 0 32 32" style="enable-background:new 0 0 32 32;" xml:space="preserve">
  <line style="fill:none;stroke:#000000;stroke-width:2;stroke-miterlimit:10;" x1="4" y1="22.583" x2="9.417" y2="28"/>
  <polyline style="fill:none;stroke:#000000;stroke-width:2;stroke-miterlimit:10;" points="22,4 28,4 28,10 "/>
  <line style="fill:none;stroke:#000000;stroke-width:2;stroke-miterlimit:10;" x1="28" y1="4" x2="22.232" y2="9.768"/>
  <line style="fill:none;stroke:#000000;stroke-width:2;stroke-miterlimit:10;" x1="4" y1="28" x2="9.454" y2="22.546"/>
  <path d="M15.86,11.255c-0.114,0.087-0.232,0.167-0.334,0.27c-0.433,0.433-0.723,0.964-0.883,1.538  c1.09,0.14,2.102,0.612,2.892,1.402C18.479,15.409,19,16.665,19,18s-0.521,2.591-1.465,3.536S15.335,23,14,23  s-2.591-0.52-3.535-1.464S9,19.335,9,18c0-0.865,0.239-1.686,0.65-2.421C9.553,15.063,9.5,14.536,9.5,14  c0-0.498,0.05-0.987,0.133-1.467c-0.201,0.162-0.397,0.332-0.582,0.517C7.729,14.373,7,16.13,7,18s0.729,3.627,2.051,4.95  S12.13,25,14,25s3.627-0.728,4.949-2.05S21,19.87,21,18s-0.729-3.627-2.051-4.95C18.078,12.179,17.016,11.572,15.86,11.255z"/>
  <path d="M22.949,9.05C21.627,7.728,19.87,7,18,7s-3.627,0.728-4.949,2.05S11,12.13,11,14s0.729,3.627,2.051,4.95  c0.871,0.871,1.933,1.478,3.089,1.795c0.114-0.087,0.232-0.167,0.334-0.27c0.433-0.433,0.723-0.964,0.883-1.538  c-1.09-0.14-2.102-0.612-2.892-1.402C13.521,16.591,13,15.335,13,14s0.521-2.591,1.465-3.536S16.665,9,18,9s2.591,0.52,3.535,1.464  S23,12.665,23,14c0,0.865-0.239,1.686-0.65,2.421c0.096,0.516,0.15,1.043,0.15,1.579c0,0.498-0.05,0.987-0.133,1.467  c0.201-0.162,0.397-0.332,0.582-0.517C24.271,17.627,25,15.87,25,14S24.271,10.373,22.949,9.05z"/>
</svg>
