<?xml version="1.0" encoding="utf-8"?>
<!-- Generator: Adobe Illustrator 18.1.1, SVG Export Plug-In . SVG Version: 6.00 Build 0)  -->
<svg xmlns="http://www.w3.org/2000/svg" xmlns:xlink="http://www.w3.org/1999/xlink" version="1.1" id="Layer_1" x="0px" y="0px" viewBox="0 0 32 32" enable-background="new 0 0 32 32" xml:space="preserve">
  <polyline fill="none" stroke="#000000" stroke-width="2" stroke-miterlimit="10" points="13,11 9,11 9,25 27,25 27,11 23,11 "/>
  <rect x="13" y="6" fill="none" stroke="#000000" stroke-width="2" stroke-miterlimit="10" width="10" height="7"/>
  <rect x="5" y="9" fill="none" stroke="#000000" stroke-width="2" stroke-miterlimit="10" width="4" height="16"/>
  <rect x="13" y="16" width="2" height="2"/>
  <rect x="17" y="16" width="2" height="2"/>
  <rect x="21" y="16" width="2" height="2"/>
  <rect x="13" y="20" width="2" height="2"/>
  <rect x="17" y="20" width="2" height="2"/>
  <rect x="21" y="20" width="2" height="2"/>
  <path fill="none" stroke="#000000" stroke-width="2" stroke-miterlimit="10" d="M11,25v2c0,1.1-0.9,2-2,2h0c-1.1,0-2-0.9-2-2v-2"/>
</svg>
