<?xml version="1.0" encoding="utf-8"?>
<!-- Generator: Adobe Illustrator 18.1.1, SVG Export Plug-In . SVG Version: 6.00 Build 0)  -->
<svg xmlns="http://www.w3.org/2000/svg" xmlns:xlink="http://www.w3.org/1999/xlink" version="1.1" id="Layer_1" x="0px" y="0px" viewBox="0 0 32 32" enable-background="new 0 0 32 32" xml:space="preserve">
  <path fill="none" stroke="#000000" stroke-width="2" stroke-miterlimit="10" d="M13.6,8.5L9.5,4.3C9,3.9,8.3,3.9,7.8,4.3L4.7,7.5  C4,8.1,3.8,9.1,4.1,9.9c0.8,2.3,2.9,6.9,7,11s8.7,6.1,11,7c0.9,0.3,1.8,0.1,2.5-0.5l3.1-3.1c0.5-0.5,0.5-1.2,0-1.7l-4.1-4.1  c-0.5-0.5-1.2-0.5-1.7,0l-2.5,2.5c0,0-2.8-1.2-5-3.3s-3.3-5-3.3-5l2.5-2.5C14.1,9.7,14.1,8.9,13.6,8.5z"/>
</svg>
