<?xml version="1.0" encoding="utf-8"?>
<!-- Generator: Adobe Illustrator 18.1.1, SVG Export Plug-In . SVG Version: 6.00 Build 0)  -->
<svg xmlns="http://www.w3.org/2000/svg" xmlns:xlink="http://www.w3.org/1999/xlink" version="1.1" id="Layer_1" x="0px" y="0px" viewBox="0 0 32 32" enable-background="new 0 0 32 32" xml:space="preserve">
  <path fill="none" stroke="#000000" stroke-width="2" stroke-miterlimit="10" d="M28,16V9c0-1.1-0.9-2-2-2H6C4.9,7,4,7.9,4,9v7"/>
  <path fill="none" stroke="#000000" stroke-width="2" stroke-miterlimit="10" d="M8,16v-2c0-1.1,0.9-2,2-2h4c1.1,0,2,0.9,2,2v2"/>
  <path fill="none" stroke="#000000" stroke-width="2" stroke-miterlimit="10" d="M16,16v-2c0-1.1,0.9-2,2-2h4c1.1,0,2,0.9,2,2v2"/>
  <path fill="none" stroke="#000000" stroke-width="2" stroke-miterlimit="10" d="M3,18v8h3v-2h20v2h3v-8c0-1.1-0.9-2-2-2H5  C3.9,16,3,16.9,3,18z"/>
</svg>
