<?xml version="1.0" encoding="iso-8859-1"?>
<!-- Generator: Adobe Illustrator 19.0.1, SVG Export Plug-In . SVG Version: 6.00 Build 0)  -->
<svg xmlns="http://www.w3.org/2000/svg" xmlns:xlink="http://www.w3.org/1999/xlink" version="1.1" id="Layer_1" x="0px" y="0px" viewBox="0 0 32 32" style="enable-background:new 0 0 32 32;" xml:space="preserve">
  <circle cx="22" cy="13" r="1"/>
  <circle cx="22" cy="17" r="1"/>
  <circle cx="24" cy="15" r="1"/>
  <circle cx="20" cy="15" r="1"/>
  <line style="fill:none;stroke:#000000;stroke-width:2;stroke-miterlimit:10;" x1="10" y1="18" x2="10" y2="12"/>
  <line style="fill:none;stroke:#000000;stroke-width:2;stroke-miterlimit:10;" x1="7" y1="15" x2="13" y2="15"/>
  <path style="fill:none;stroke:#000000;stroke-width:2;stroke-miterlimit:10;" d="M27.635,10c0,0-5.469-2-11.636-2S4.365,10,4.365,10  l-1.33,10.268c-0.296,2.299,1.328,4.402,3.627,4.698c2.299,0.296,4.402-1.328,4.697-3.627L11.403,21h9.195l0.044,0.338  c0.296,2.299,2.399,3.923,4.697,3.627c2.299-0.296,3.923-2.399,3.627-4.698L27.635,10z"/>
</svg>
