<?xml version="1.0" encoding="iso-8859-1"?>
<!-- Generator: Adobe Illustrator 19.0.1, SVG Export Plug-In . SVG Version: 6.00 Build 0)  -->
<svg xmlns="http://www.w3.org/2000/svg" xmlns:xlink="http://www.w3.org/1999/xlink" version="1.1" id="Layer_1" x="0px" y="0px" viewBox="0 0 32 32" style="enable-background:new 0 0 32 32;" xml:space="preserve">
  <ellipse style="fill:none;stroke:#000000;stroke-width:2;stroke-miterlimit:10;" cx="12.5" cy="9.5" rx="2.5" ry="3.5"/>
  <ellipse style="fill:none;stroke:#000000;stroke-width:2;stroke-miterlimit:10;" cx="19.5" cy="9.5" rx="2.5" ry="3.5"/>
  <ellipse style="fill:none;stroke:#000000;stroke-width:2;stroke-miterlimit:10;" cx="7.5" cy="16.5" rx="2.5" ry="3.5"/>
  <ellipse style="fill:none;stroke:#000000;stroke-width:2;stroke-miterlimit:10;" cx="24.5" cy="16.5" rx="2.5" ry="3.5"/>
  <path style="fill:none;stroke:#000000;stroke-width:2;stroke-miterlimit:10;" d="M19,20c-0.966-0.966-1-3-3-3s-2,2-3,3  s-4,1.069-4,3.5c0,1.381,1.119,2.5,2.5,2.5c1.157,0,3.684-1,4.5-1s3.343,1,4.5,1c1.381,0,2.5-1.119,2.5-2.5  C23,21.207,19.966,20.966,19,20z"/>
</svg>
