<?xml version="1.0" encoding="utf-8"?>
<!-- Generator: Adobe Illustrator 18.1.1, SVG Export Plug-In . SVG Version: 6.00 Build 0)  -->
<svg xmlns="http://www.w3.org/2000/svg" xmlns:xlink="http://www.w3.org/1999/xlink" version="1.1" id="Layer_1" x="0px" y="0px" viewBox="0 0 32 32" enable-background="new 0 0 32 32" xml:space="preserve">
  <g>
	<path fill="none" stroke="#000000" stroke-width="2" stroke-miterlimit="10" d="M13.8,19.9c-0.8,0.6-1.1,1.8-0.5,2.6   c0.6,0.8,1.8,1.1,2.6,0.5"/>
	<path fill="none" stroke="#000000" stroke-width="2" stroke-miterlimit="10" d="M9.1,16.7C8.4,17,8,17.8,8.3,18.4   c0.3,0.7,1.1,1.1,1.8,0.8"/>
	<path fill="none" stroke="#000000" stroke-width="2" stroke-miterlimit="10" d="M14.1,9.4c-1-0.2-2,0.4-2.3,1.4s0.4,2,1.4,2.3"/>
</g>
  <path fill="none" stroke="#000000" stroke-width="2" stroke-miterlimit="10" d="M15.4,4c0,0,2.2,1.3,4,4.2c0.1,0,0.1,0,0.2,0  c1,0,1.8,0.8,1.8,1.8c0,0.6-0.3,1-0.7,1.4c0.1,0.3,0.2,0.7,0.3,1c0.6,0.1,1,0.6,1,1.2c0,0.5-0.3,0.9-0.7,1.1c0,0.4,0.1,0.9,0.1,1.3  c0,3.3-0.9,5.9-2,7.7c0.1,0.2,0.2,0.4,0.2,0.7c0,0.7-0.5,1.2-1.2,1.2c-0.1,0-0.2,0-0.3,0c-1.4,1.7-2.7,2.4-2.7,2.4"/>
  <path fill="none" stroke="#000000" stroke-width="2" stroke-miterlimit="10" d="M27,16c0-0.6,0.4-1.2,0.9-1.4C27.2,8.6,22.2,4,16,4  c-2.7,0-5.1,0.9-7.1,2.4C9,6.6,9,6.8,9,7c0,1.1-0.9,2-2,2C6.8,9,6.6,9,6.4,8.9C4.9,10.9,4,13.3,4,16c0,4.6,2.6,8.7,6.5,10.7  c0.4-0.4,0.9-0.7,1.5-0.7c1,0,1.9,0.8,2,1.8c0.7,0.1,1.3,0.2,2,0.2c6.2,0,11.2-4.6,11.9-10.6C27.4,17.2,27,16.6,27,16z"/>
</svg>
