<?xml version="1.0" encoding="utf-8"?>
<!-- Generator: Adobe Illustrator 18.0.0, SVG Export Plug-In . SVG Version: 6.00 Build 0)  -->
<svg xmlns="http://www.w3.org/2000/svg" xmlns:xlink="http://www.w3.org/1999/xlink" version="1.1" id="Layer_1" x="0px" y="0px" viewBox="0 0 32 32" enable-background="new 0 0 32 32" xml:space="preserve">
  <path fill="none" stroke="#000000" stroke-width="2" stroke-miterlimit="10" d="M24,14.4L24,14.4c0-0.7-0.5-1.4-1.5-1.4  c-0.8,0-1.5,0.7-1.5,1.5v0c0,0.8,0.7,1.5,1.5,1.5h0c0.8,0,1.5,0.7,1.5,1.5v0c0,0.8-0.6,1.5-1.5,1.5c-1.1,0-1.5-0.6-1.5-1.4l0,0"/>
  <polyline fill="none" stroke="#000000" stroke-width="2" stroke-miterlimit="10" points="25,22 25,28 7,28 7,22 "/>
  <polyline fill="none" stroke="#000000" stroke-width="2" stroke-miterlimit="10" points="7,10 7,4 25,4 25,10 "/>
  <polygon points="14,12 12,12 8,20 10,20 "/>
  <polygon points="8,12 10,12 14,20 12,20 "/>
  <polyline fill="none" stroke="#000000" stroke-width="2" stroke-miterlimit="10" points="16,12 16,19 19,19 "/>
</svg>
