<?xml version="1.0" encoding="utf-8"?>
<!-- Generator: Adobe Illustrator 18.1.1, SVG Export Plug-In . SVG Version: 6.00 Build 0)  -->
<svg xmlns="http://www.w3.org/2000/svg" xmlns:xlink="http://www.w3.org/1999/xlink" version="1.1" id="Layer_1" x="0px" y="0px" viewBox="0 0 32 32" enable-background="new 0 0 32 32" xml:space="preserve">
  <path fill="none" stroke="#000000" stroke-width="2" stroke-miterlimit="10" d="M25,19c-1.7,0-3-1.3-3-3s1.3-3,3-3h1V8h-6V7  c0-1.7-1.3-3-3-3s-3,1.3-3,3v1H8v5H7c-1.7,0-3,1.3-3,3s1.3,3,3,3h1v5h6v1c0,1.7,1.3,3,3,3s3-1.3,3-3v-1h6v-5H25z"/>
</svg>
