<?xml version="1.0" encoding="iso-8859-1"?>
<!-- Generator: Adobe Illustrator 18.1.1, SVG Export Plug-In . SVG Version: 6.00 Build 0)  -->
<svg xmlns="http://www.w3.org/2000/svg" xmlns:xlink="http://www.w3.org/1999/xlink" version="1.1" id="Layer_1" x="0px" y="0px" viewBox="0 0 32 32" style="enable-background:new 0 0 32 32;" xml:space="preserve">
  <path style="fill:none;stroke:#000000;stroke-width:2;stroke-miterlimit:10;" d="M8.007,15.273C7.408,15.619,7,16.259,7,17  c0,1.049,0.811,1.9,1.838,1.984c0.759,2.469,1.872,5.226,2.636,6.034c2.499,2.644,6.552,2.644,9.051,0  c0.764-0.808,1.877-3.565,2.636-6.034C24.189,18.9,25,18.049,25,17c0-0.741-0.401-1.381-1-1.727V14c0-5.342-2.453-7-5-7l-1-2  C10.978,5,8,8.261,8,14L8.007,15.273z"/>
  <circle cx="13" cy="17" r="1"/>
  <circle cx="19" cy="17" r="1"/>
  <path style="fill:none;stroke:#000000;stroke-width:2;stroke-miterlimit:10;" d="M19,7c2.966,5.924-6.958,0.783-7,6"/>
</svg>
