<?xml version="1.0" encoding="iso-8859-1"?>
<!-- Generator: Adobe Illustrator 19.0.1, SVG Export Plug-In . SVG Version: 6.00 Build 0)  -->
<svg xmlns="http://www.w3.org/2000/svg" xmlns:xlink="http://www.w3.org/1999/xlink" version="1.1" id="Layer_1" x="0px" y="0px" viewBox="0 0 32 32" style="enable-background:new 0 0 32 32;" xml:space="preserve">
  <path style="fill:none;stroke:#000000;stroke-width:2;stroke-miterlimit:10;" d="M12,24v1c0,1.105,0.895,2,2,2h0  c1.105,0,2-0.895,2-2v-8"/>
  <path style="fill:none;stroke:#000000;stroke-width:2;stroke-miterlimit:10;" d="M5,17C5,12.091,9.925,7,16,7s11,5.091,11,10"/>
  <line style="fill:none;stroke:#000000;stroke-width:2;stroke-miterlimit:10;" x1="16" y1="7" x2="16" y2="4"/>
  <path style="fill:none;stroke:#000000;stroke-width:2;stroke-miterlimit:10;" d="M12,17c0-1.105,1.791-2,4-2s4,0.895,4,2"/>
  <path style="fill:none;stroke:#000000;stroke-width:2;stroke-miterlimit:10;" d="M20,17c0-1.105,1.567-2,3.5-2s3.5,0.895,3.5,2"/>
  <path style="fill:none;stroke:#000000;stroke-width:2;stroke-miterlimit:10;" d="M5,17c0-1.105,1.567-2,3.5-2s3.5,0.895,3.5,2"/>
</svg>
