<?xml version="1.0" encoding="iso-8859-1"?>
<!-- Generator: Adobe Illustrator 19.0.1, SVG Export Plug-In . SVG Version: 6.00 Build 0)  -->
<svg xmlns="http://www.w3.org/2000/svg" xmlns:xlink="http://www.w3.org/1999/xlink" version="1.1" id="Layer_1" x="0px" y="0px" viewBox="0 0 32 32" style="enable-background:new 0 0 32 32;" xml:space="preserve">
  <g>
	<path d="M22.003,5.501c0.53,0,1.041,0.281,1.313,0.777c0.089,0.163,2.185,4.051,2.185,9.808c0,5.694-2.044,10.331-2.131,10.525   c-0.249,0.557-0.797,0.888-1.37,0.888c-0.204,0-0.412-0.042-0.611-0.131c-0.756-0.338-1.095-1.224-0.758-1.98   c0.03-0.068,1.87-4.287,1.87-9.302c0-4.949-1.799-8.336-1.817-8.37C20.29,6.99,20.558,6.08,21.284,5.685   C21.513,5.56,21.76,5.501,22.003,5.501 M22.003,3.501c-0.58,0-1.158,0.147-1.671,0.424c-1.693,0.92-2.324,3.047-1.409,4.741   c0.01,0.02,1.577,3.058,1.577,7.42c0,4.548-1.684,8.458-1.701,8.497c-0.781,1.752,0.013,3.824,1.772,4.611   c0.451,0.202,0.932,0.305,1.428,0.305c1.379,0,2.633-0.813,3.196-2.072c0.236-0.53,2.305-5.34,2.305-11.342   c0-6.145-2.181-10.312-2.43-10.767C24.456,4.198,23.281,3.501,22.003,3.501L22.003,3.501z"/>
</g>
  <g>
	<path d="M13.002,7.502c0.473,0,0.939,0.223,1.23,0.642c0.092,0.134,2.268,3.32,2.268,8.03c0,4.636-2.105,8.407-2.194,8.565   c-0.276,0.487-0.784,0.761-1.307,0.761c-0.251,0-0.505-0.063-0.738-0.195c-0.72-0.408-0.974-1.321-0.567-2.042   c0.026-0.048,1.807-3.276,1.807-7.089c0-3.732-1.719-6.298-1.735-6.324c-0.465-0.683-0.293-1.615,0.388-2.083   C12.412,7.588,12.709,7.502,13.002,7.502 M13.002,5.502c-0.711,0-1.397,0.213-1.983,0.617c-1.583,1.088-1.99,3.267-0.907,4.857   c0,0,1.388,2.151,1.388,5.198c0,3.247-1.543,6.096-1.558,6.124c-0.936,1.661-0.343,3.798,1.333,4.748   c0.525,0.298,1.121,0.455,1.724,0.455c1.258,0,2.426-0.68,3.046-1.775c0.255-0.454,2.455-4.515,2.455-9.552   c0-5.195-2.35-8.771-2.618-9.161C15.221,6.063,14.147,5.502,13.002,5.502L13.002,5.502z"/>
</g>
  <path style="fill:none;stroke:#000000;stroke-width:2;stroke-miterlimit:10;" d="M11.5,21.625C9.75,15.812,4,15.5,4,13  c0-1.105,0.895-2,2-2s4.875,1.5,6.562,4.875"/>
  <path style="fill:none;stroke:#000000;stroke-width:2;stroke-linecap:round;stroke-miterlimit:10;" d="M14.691,7.185  c0,0,4.809,3.284,6.778,9.44"/>
  <path style="fill:none;stroke:#000000;stroke-width:2;stroke-linecap:round;stroke-miterlimit:10;" d="M17.469,18  c0,0,2.25,3.312,2.016,7.977"/>
</svg>
