<?xml version="1.0" encoding="utf-8"?><!-- Generator: Adobe Illustrator 18.1.1, SVG Export Plug-In . SVG Version: 6.00 Build 0)  --><svg xmlns="http://www.w3.org/2000/svg" xmlns:xlink="http://www.w3.org/1999/xlink" version="1.1" id="Layer_1" x="0px" y="0px" viewBox="0 0 48 48" enable-background="new 0 0 48 48" xml:space="preserve">
<path fill="#FF5722" d="M32.6,21.8L44,3.8L28,14.4l3.8-7c0,0-18.8,10.2-24.2,15.8c-4.8,4.8-4.8,12.4,0,17.2s12.4,4.8,17.2,0  c5.6-5.6,14-20.8,14-20.8L32.6,21.8z"/>
<path fill="#FF9800" d="M26.7,26.2L33,15.1l-11.4,7.1l1.8-5.6c0,0-9,5.7-13,9.6C8.9,27.7,8,29.7,8,32c0,4.5,3.5,8,8,8  c2.3,0,4.3-1,5.8-2.4c3-3,10.9-13.1,10.9-13.1L26.7,26.2z"/>
<path fill="#FFC107" d="M16,27c-2.8,0-5,2.2-5,5s2.2,5,5,5s5-2.2,5-5S18.8,27,16,27z"/>
<path fill="#FFF9C4" d="M16,29.5c-1.4,0-2.5,1.1-2.5,2.5s1.1,2.5,2.5,2.5s2.5-1.1,2.5-2.5S17.4,29.5,16,29.5z"/>
</svg>