<?xml version="1.0" encoding="utf-8"?><!-- Generator: Adobe Illustrator 18.1.1, SVG Export Plug-In . SVG Version: 6.00 Build 0)  --><svg xmlns="http://www.w3.org/2000/svg" xmlns:xlink="http://www.w3.org/1999/xlink" version="1.0" id="Layer_1" x="0px" y="0px" viewBox="0 0 48 48" enable-background="new 0 0 48 48" xml:space="preserve">
<g>
	<path fill="#5E35B1" d="M33.9,12.1H14.2L17.6,7c0.4-0.6,1-0.9,1.7-0.9h9.6c0.7,0,1.3,0.3,1.7,0.9L33.9,12.1z"/>
	<path fill="#5E35B1" d="M14,11H8V9.2C8,8.5,8.5,8,9.2,8h3.6C13.5,8,14,8.5,14,9.2V11z"/>
	<path fill="#5E35B1" d="M40,42H8c-2.2,0-4-1.8-4-4V14c0-2.2,1.8-4,4-4h32c2.2,0,4,1.8,4,4v24C44,40.2,42.2,42,40,42z"/>
</g>
<path fill="#E8EAF6" d="M34,25c0-5.5-4.5-10-10-10s-10,4.5-10,10s4.5,10,10,10v-2c-4.4,0-8-3.6-8-8s3.6-8,8-8s8,3.6,8,8h-3.5  l4.5,5.6l4.5-5.6H34z"/>
</svg>