<?xml version="1.0" encoding="utf-8"?><!-- Generator: Adobe Illustrator 18.1.1, SVG Export Plug-In . SVG Version: 6.00 Build 0)  --><svg xmlns="http://www.w3.org/2000/svg" xmlns:xlink="http://www.w3.org/1999/xlink" version="1.1" id="Layer_1" x="0px" y="0px" viewBox="0 0 48 48" enable-background="new 0 0 48 48" xml:space="preserve">
<g>
	<path fill="#2E7D32" d="M26,43C26,31.2,11.7,12.4,4.4,9C18.8,9,26,21,26,43z"/>
	<path fill="#2E7D32" d="M28,18.8c-0.1,0.3-1.1,5.2-1.7,15c-1.1-11.9-3.4-20-3.4-20.1L21,14.3c0,0.1,2.3,8.2,3.4,20.1   c-2.6-9.4-7.5-13-7.8-13.1l-1.1,1.6C15.5,22.9,24,26.1,24,44h4c0-18.4,2-24.7,2-24.8L28,18.8z"/>
</g>
<g>
	<path fill="#D84315" d="M17,5.3c1.4-0.8,3.3-0.3,4.1,1.1c0.8,1.4,0.4,6.7,0.4,6.7s-4.8-2.3-5.6-3.7C15.1,8,15.6,6.2,17,5.3z"/>
	<path fill="#D84315" d="M27,22.7c-1.4,0.8-3.3,0.3-4.1-1.1c-0.8-1.4-0.4-6.7-0.4-6.7s4.8,2.3,5.6,3.7C28.9,20,28.4,21.8,27,22.7z"/>
	<path fill="#D84315" d="M12,14c0-1.7,1.3-3,3-3s6,3,6,3s-4.3,3-6,3S12,15.7,12,14z"/>
	<path fill="#D84315" d="M32,14c0,1.7-1.3,3-3,3s-6-3-6-3s4.3-3,6-3S32,12.3,32,14z"/>
	<path fill="#D84315" d="M17,22.7c-1.4-0.8-1.9-2.7-1.1-4.1c0.8-1.4,5.6-3.7,5.6-3.7s0.4,5.3-0.4,6.7C20.3,23,18.4,23.5,17,22.7z"/>
	<path fill="#D84315" d="M27,5.3c1.4,0.8,1.9,2.7,1.1,4.1c-0.8,1.4-5.6,3.7-5.6,3.7s-0.4-5.3,0.4-6.7C23.7,5,25.6,4.5,27,5.3z"/>
</g>
<g>
	<path fill="#FF5722" d="M22,4c1.7,0,3,1.3,3,3s-3,6-3,6s-3-4.3-3-6S20.3,4,22,4z"/>
	<path fill="#FF5722" d="M22,24c-1.7,0-3-1.3-3-3s3-6,3-6s3,4.3,3,6S23.7,24,22,24z"/>
	<path fill="#FF5722" d="M13.3,9c0.8-1.4,2.7-1.9,4.1-1.1s3.7,5.6,3.7,5.6s-5.3,0.4-6.7-0.4C13,12.3,12.5,10.4,13.3,9z"/>
	<path fill="#FF5722" d="M30.7,19c-0.8,1.4-2.7,1.9-4.1,1.1c-1.4-0.8-3.7-5.6-3.7-5.6s5.3-0.4,6.7,0.4C31,15.7,31.5,17.6,30.7,19z"/>
	<path fill="#FF5722" d="M13.3,19c-0.8-1.4-0.3-3.3,1.1-4.1c1.4-0.8,6.7-0.4,6.7-0.4s-2.3,4.8-3.7,5.6C16,20.9,14.2,20.4,13.3,19z"/>
	<path fill="#FF5722" d="M30.7,9c0.8,1.4,0.3,3.3-1.1,4.1c-1.4,0.8-6.7,0.4-6.7,0.4s2.3-4.8,3.7-5.6S29.8,7.6,30.7,9z"/>
</g>
<circle fill="#FFC107" cx="22" cy="14" r="4"/>
<circle fill="#FFEB3B" cx="22" cy="14" r="2.5"/>
<g>
	<path fill="#43A047" d="M44.6,16C37.3,19.4,28,30.5,28,41C28,23.5,30.2,16,44.6,16z"/>
	<path fill="#4CAF50" d="M35.6,16C28.3,19.4,26,39.3,26,42C26,38.6,21.2,16,35.6,16z"/>
	<path fill="#43A047" d="M24,42c0-10.5-8.3-11.6-15.6-15C22.8,27,25.7,30.5,24,42z"/>
</g>
<g>
	<path fill="#C62828" d="M11,13.3c1.4-0.8,3.3-0.3,4.1,1.1c0.8,1.4,0.4,6.7,0.4,6.7s-4.8-2.3-5.6-3.7C9.1,16,9.6,14.2,11,13.3z"/>
	<path fill="#C62828" d="M21,30.7c-1.4,0.8-3.3,0.3-4.1-1.1c-0.8-1.4-0.4-6.7-0.4-6.7s4.8,2.3,5.6,3.7C22.9,28,22.4,29.8,21,30.7z"/>
	<path fill="#C62828" d="M6,22c0-1.7,1.3-3,3-3s6,3,6,3s-4.3,3-6,3S6,23.7,6,22z"/>
	<path fill="#C62828" d="M26,22c0,1.7-1.3,3-3,3s-6-3-6-3s4.3-3,6-3S26,20.3,26,22z"/>
	<path fill="#C62828" d="M11,30.7c-1.4-0.8-1.9-2.7-1.1-4.1c0.8-1.4,5.6-3.7,5.6-3.7s0.4,5.3-0.4,6.7C14.3,31,12.4,31.5,11,30.7z"/>
	<path fill="#C62828" d="M21,13.3c1.4,0.8,1.9,2.7,1.1,4.1c-0.8,1.4-5.6,3.7-5.6,3.7s-0.4-5.3,0.4-6.7C17.7,13,19.6,12.5,21,13.3z"/>
</g>
<g>
	<path fill="#F44336" d="M16,12c1.7,0,3,1.3,3,3s-3,6-3,6s-3-4.3-3-6S14.3,12,16,12z"/>
	<path fill="#F44336" d="M16,32c-1.7,0-3-1.3-3-3s3-6,3-6s3,4.3,3,6S17.7,32,16,32z"/>
	<path fill="#F44336" d="M7.3,17c0.8-1.4,2.7-1.9,4.1-1.1c1.4,0.8,3.7,5.6,3.7,5.6s-5.3,0.4-6.7-0.4C7,20.3,6.5,18.4,7.3,17z"/>
	<path fill="#F44336" d="M24.7,27c-0.8,1.4-2.7,1.9-4.1,1.1c-1.4-0.8-3.7-5.6-3.7-5.6s5.3-0.4,6.7,0.4C25,23.7,25.5,25.6,24.7,27z"/>
	<path fill="#F44336" d="M7.3,27c-0.8-1.4-0.3-3.3,1.1-4.1c1.4-0.8,6.7-0.4,6.7-0.4s-2.3,4.8-3.7,5.6C10,28.9,8.2,28.4,7.3,27z"/>
	<path fill="#F44336" d="M24.7,17c0.8,1.4,0.3,3.3-1.1,4.1c-1.4,0.8-6.7,0.4-6.7,0.4s2.3-4.8,3.7-5.6C22,15.1,23.8,15.6,24.7,17z"/>
</g>
<circle fill="#FF9800" cx="16" cy="22" r="4"/>
<circle fill="#FFEB3B" cx="16" cy="22" r="2.5"/>
<g>
	<path fill="#B300D1" d="M24,10.3c1.4-0.8,3.3-0.3,4.1,1.1c0.8,1.4,0.4,6.7,0.4,6.7s-4.8-2.3-5.6-3.7C22.1,13,22.6,11.2,24,10.3z"/>
	<path fill="#B300D1" d="M34,27.7c-1.4,0.8-3.3,0.3-4.1-1.1c-0.8-1.4-0.4-6.7-0.4-6.7s4.8,2.3,5.6,3.7S35.4,26.8,34,27.7z"/>
	<path fill="#B300D1" d="M19,19c0-1.7,1.3-3,3-3s6,3,6,3s-4.3,3-6,3S19,20.7,19,19z"/>
	<path fill="#B300D1" d="M39,19c0,1.7-1.3,3-3,3s-6-3-6-3s4.3-3,6-3S39,17.3,39,19z"/>
	<path fill="#B300D1" d="M24,27.7c-1.4-0.8-1.9-2.7-1.1-4.1c0.8-1.4,5.6-3.7,5.6-3.7s0.4,5.3-0.4,6.7C27.3,28,25.4,28.5,24,27.7z"/>
	<path fill="#B300D1" d="M34,10.3c1.4,0.8,1.9,2.7,1.1,4.1s-5.6,3.7-5.6,3.7s-0.4-5.3,0.4-6.7C30.7,10,32.6,9.5,34,10.3z"/>
</g>
<g>
	<path fill="#E040FB" d="M29,9c1.7,0,3,1.3,3,3s-3,6-3,6s-3-4.3-3-6S27.3,9,29,9z"/>
	<path fill="#E040FB" d="M29,29c-1.7,0-3-1.3-3-3s3-6,3-6s3,4.3,3,6S30.7,29,29,29z"/>
	<path fill="#E040FB" d="M20.3,14c0.8-1.4,2.7-1.9,4.1-1.1c1.4,0.8,3.7,5.6,3.7,5.6s-5.3,0.4-6.7-0.4C20,17.3,19.5,15.4,20.3,14z"/>
	<path fill="#E040FB" d="M37.7,24c-0.8,1.4-2.7,1.9-4.1,1.1c-1.4-0.8-3.7-5.6-3.7-5.6s5.3-0.4,6.7,0.4C38,20.7,38.5,22.6,37.7,24z"/>
	<path fill="#E040FB" d="M20.3,24c-0.8-1.4-0.3-3.3,1.1-4.1c1.4-0.8,6.7-0.4,6.7-0.4s-2.3,4.8-3.7,5.6C23,25.9,21.2,25.4,20.3,24z"/>
	<path fill="#E040FB" d="M37.7,14c0.8,1.4,0.3,3.3-1.1,4.1c-1.4,0.8-6.7,0.4-6.7,0.4s2.3-4.8,3.7-5.6C35,12.1,36.8,12.6,37.7,14z"/>
</g>
<circle fill="#FF9800" cx="29" cy="19" r="4"/>
<circle fill="#FFEB3B" cx="29" cy="19" r="2.5"/>
<g>
	<polygon fill="#F44336" points="28.2,39 23.8,39.9 23.5,37.9 28.5,37.1  "/>
	<polygon fill="#F44336" points="28,42 24,43 23.9,41 28.1,40  "/>
</g>
</svg>