<?xml version="1.0" encoding="utf-8"?><!-- Generator: Adobe Illustrator 18.1.1, SVG Export Plug-In . SVG Version: 6.00 Build 0)  --><svg xmlns="http://www.w3.org/2000/svg" xmlns:xlink="http://www.w3.org/1999/xlink" version="1.1" id="Layer_1" x="0px" y="0px" viewBox="0 0 48 48" enable-background="new 0 0 48 48" xml:space="preserve">
<g>
	<path fill="#E64A19" d="M19,27c-0.4,0-0.8,0.1-1.1,0.3c-0.1-0.2-0.1-0.3-0.2-0.5c0.8-0.3,1.3-1,1.3-1.9c0-1.1-0.9-2-2-2   c0-0.2,0-0.3-0.1-0.5c0-0.2,0.1-0.3,0.1-0.5c0-1.1-0.9-2-2-2c-0.7,0-1.4,0.4-1.7,1c-0.1,0-0.2,0-0.3,0c-1.1,0-2,0.9-2,2   c0,0.9,0.6,1.6,1.3,1.9C12.1,25.2,12,25.6,12,26c0,1.1,0.9,2,2,2c0,1.1,0.9,2,2,2c0.4,0,0.8-0.1,1.1-0.3c0.3,0.8,1,1.3,1.9,1.3   c1.1,0,2-0.9,2-2C21,27.9,20.1,27,19,27z"/>
	<path fill="#E64A19" d="M37,23c0-1.1-0.9-2-2-2c-0.1,0-0.2,0-0.3,0c-0.3-0.6-1-1-1.7-1c-1.1,0-2,0.9-2,2c0,0.2,0,0.3,0.1,0.5   c0,0.2-0.1,0.3-0.1,0.5c-1.1,0-2,0.9-2,2c0,0.9,0.6,1.6,1.3,1.9c-0.1,0.1-0.2,0.3-0.2,0.5C29.8,27.1,29.4,27,29,27   c-1.1,0-2,0.9-2,2c0,1.1,0.9,2,2,2c0.9,0,1.6-0.6,1.9-1.3c0.3,0.2,0.7,0.3,1.1,0.3c1.1,0,2-0.9,2-2c1.1,0,2-0.9,2-2   c0-0.4-0.1-0.8-0.3-1.1C36.4,24.6,37,23.9,37,23z"/>
</g>
<polygon fill="#FF9800" points="24,37 19,33 19,25 29,25 29,33 "/>
<g>
	<path fill="#F44336" d="M29,31L29,31c0,0-1.5,3-5,3v10h16C40,33,29,31,29,31z"/>
</g>
<g>
	<path fill="#03A9F4" d="M24,34c-3.5,0-5-3-5-3S8,33,8,44h16V34z"/>
</g>
<g>
	<circle fill="#FFA726" cx="33" cy="21" r="2"/>
	<circle fill="#FFA726" cx="15" cy="21" r="2"/>
</g>
<path fill="#FFB74D" d="M33,15c0-7.6-18-5-18,0c0,1.1,0,5.9,0,7c0,5,4,9,9,9s9-4,9-9C33,20.9,33,16.1,33,15z"/>
<g>
	<circle fill="#784719" cx="28" cy="21" r="1"/>
	<circle fill="#784719" cx="20" cy="21" r="1"/>
</g>
<path fill="#FFFFFF" d="M28,24.5c-1.7,0-2.5,1.5-4,1.5s-2.5-1.5-4-1.5c-0.8,0-1.5,0.7-1.5,1.5c0,1.1,2.7,4,5.5,4s5.5-2.9,5.5-4  C29.5,25.2,28.8,24.5,28,24.5z"/>
<path fill="#FF5722" d="M37.7,14c0.2-0.3,0.3-0.6,0.3-1c0-1.1-0.9-2-2-2c0-0.8-0.5-1.5-1.2-1.8C34.5,8.5,33.8,8,33,8  c0-1.1-0.9-2-2-2c-0.1,0-0.2,0-0.3,0c-0.3-0.6-1-1-1.7-1c-0.4,0-0.8,0.1-1.1,0.3C27.6,4.6,26.9,4,26,4c-0.6,0-1.1,0.3-1.5,0.7  C24.1,4.3,23.6,4,23,4c-0.4,0-0.7,0.1-1,0.3C21.7,4.1,21.4,4,21,4c-0.7,0-1.4,0.4-1.7,1c-0.1,0-0.2,0-0.3,0c-0.9,0-1.6,0.6-1.9,1.3  C16.8,6.1,16.4,6,16,6c-1.1,0-2,0.9-2,2c0,0.4,0.1,0.7,0.3,1c-0.1,0-0.2,0-0.3,0c-1.1,0-2,0.9-2,2c0,0.4,0.1,0.7,0.3,1  c-0.1,0-0.2,0-0.3,0c-1.1,0-2,0.9-2,2c0,0.6,0.3,1.1,0.7,1.5C10.3,15.9,10,16.4,10,17c0,0.6,0.3,1.1,0.7,1.5  C10.3,18.9,10,19.4,10,20c0,1.1,0.9,2,2,2s2-0.9,2-2c0-0.1,0-0.2,0-0.3c0.3,0.2,0.7,0.3,1,0.3c1.1,0,2-0.9,2-2  c0-0.4-0.1-0.8-0.3-1.1c0.1,0,0.2-0.1,0.3-0.2c0.3,0.2,0.6,0.3,1,0.3c0.9,0,1.6-0.6,1.9-1.3c0.3,0.2,0.7,0.3,1.1,0.3  c0.9,0,1.6-0.6,1.9-1.3c0.3,0.2,0.7,0.3,1.1,0.3c0.9,0,1.6-0.6,1.9-1.3c0.3,0.2,0.7,0.3,1.1,0.3c0,1.1,0.9,2,2,2  c0.4,0,0.7-0.1,1-0.3c0,0.1,0,0.2,0,0.3c0,0.7,0.4,1.4,1,1.7c0,0.1,0,0.2,0,0.3c0,1.1,0.9,2,2,2c0.4,0,0.7-0.1,1-0.3  c0,0.1,0,0.2,0,0.3c0,1.1,0.9,2,2,2s2-0.9,2-2c0-0.6-0.3-1.1-0.7-1.5c0.4-0.4,0.7-0.9,0.7-1.5c0-0.4-0.1-0.7-0.3-1  c0.2-0.3,0.3-0.6,0.3-1S37.9,14.3,37.7,14z"/>
<g>
	<circle fill="#F44336" cx="24" cy="23" r="2"/>
	<path fill="#F44336" d="M27.3,26.2c-0.2-0.2-0.5-0.2-0.7,0c0,0-1.2,1.3-2.6,1.3c-1.4,0-2.6-1.3-2.6-1.3c-0.2-0.2-0.5-0.2-0.7,0   c-0.2,0.2-0.2,0.5,0,0.7c0.1,0.1,1.5,1.6,3.4,1.6s3.3-1.5,3.4-1.6C27.6,26.7,27.5,26.4,27.3,26.2z"/>
</g>
</svg>