<?xml version="1.0" encoding="utf-8"?><!-- Generator: Adobe Illustrator 15.0.0, SVG Export Plug-In . SVG Version: 6.00 Build 0)  --><!DOCTYPE svg PUBLIC "-//W3C//DTD SVG 1.1//EN" "http://www.w3.org/Graphics/SVG/1.1/DTD/svg11.dtd"><svg xmlns="http://www.w3.org/2000/svg" xmlns:xlink="http://www.w3.org/1999/xlink" version="1.1" id="Слой_1" x="0px" y="0px" width="48px" height="48px" viewBox="0 0 48 48" enable-background="new 0 0 48 48" xml:space="preserve">
<path fill="#E1BEE7" d="M20,34H8c-0.553,0-1-0.447-1-1v-3c0-0.553,0.447-1,1-1h12c0.553,0,1,0.447,1,1v3C21,33.553,20.553,34,20,34z  "/>
<path fill="#FF9800" d="M9,41H4V17h5v15h30l0,0h5v9h-5v-4H9V41z"/>
<path fill="#BA68C8" d="M19,23c0.542,1.876,1.163,6,1.163,6h-5c-1.657,0-2.329-1.111-3-3l-1.858-6.502  C9.742,17.749,11.219,16,12.828,16H14c1.656,0,3.408,1.211,4,3L19,23z"/>
<path fill="#9C27B0" d="M44,25.696C44,24.134,42.872,23,41.317,23H19v9h25V25.696z"/>
<g>
	<path fill="#FFB74D" d="M12.5,6c2.485,0,4.5,2.016,4.5,4.5c0,2.485-2.015,4.5-4.5,4.5S8,12.985,8,10.5C8,8.016,10.015,6,12.5,6"/>
	<path fill="#FFB74D" d="M22.172,24h-5.594l-1.27-5.55c-0.375-1.047-1.206-1.82-2.484-1.386C11.547,17.498,11.553,19.036,12,20   l1.769,5.9c0.103,0.258,0.263,0.48,0.46,0.657c0.3,0.268,0.687,0.428,1.104,0.442h6.84c0,0,1.375,0.063,1.375-1.469   S22.172,24,22.172,24z"/>
</g>
</svg>