<?xml version="1.0" encoding="utf-8"?><!-- Generator: Adobe Illustrator 18.1.1, SVG Export Plug-In . SVG Version: 6.00 Build 0)  --><svg xmlns="http://www.w3.org/2000/svg" xmlns:xlink="http://www.w3.org/1999/xlink" version="1.1" id="Layer_1" x="0px" y="0px" viewBox="0 0 48 48" enable-background="new 0 0 48 48" xml:space="preserve">
<path fill="#459E48" d="M12,31c-2.3,0-3.7-3.2-4-5c0.7-1.3,3.3-2,4-2c5.7-2.4,17.8-2.9,24,0c0.7,0,3.3,0.7,4,2c-0.3,1.8-1.7,5-4,5  C33.6,32.8,14.7,34.2,12,31z"/>
<g>
	<path fill="#388E3C" d="M40,8c-0.6,0-1,0.4-1,1c0,2.7-3.3,5-6,5c-0.6,0-1,0.4-1,1s0.4,1,1,1c3.7,0,8-3.1,8-7C41,8.4,40.6,8,40,8z"/>
	<path fill="#388E3C" d="M8,8c0.6,0,1,0.4,1,1c0,2.7,3.3,5,6,5c0.6,0,1,0.4,1,1s-0.4,1-1,1c-3.7,0-8-3.1-8-7C7,8.4,7.4,8,8,8z"/>
</g>
<path fill="#4CAF50" d="M12,31v-7c0-9.2,5.3-16,12-16s12,6.8,12,16v7c-1.2,5.6-7,12-12,12S13.2,36.6,12,31z"/>
<g>
	<circle fill="#8BC34A" cx="8" cy="9" r="3"/>
	<circle fill="#8BC34A" cx="40" cy="9" r="3"/>
</g>
<g>
	<ellipse fill="#FFF9C4" cx="29" cy="26" rx="2" ry="4"/>
	<ellipse fill="#FFF9C4" cx="19" cy="26" rx="2" ry="4"/>
</g>
<g>
	<circle fill="#263238" cx="29" cy="27" r="1"/>
	<circle fill="#263238" cx="19" cy="27" r="1"/>
</g>
<path fill="#173027" d="M24,33c-4,0-5.8,3-5.8,3s2.6,0,5.8,0s5.8,0,5.8,0S28,33,24,33z"/>
</svg>