<?xml version="1.0" standalone="no"?>
<!DOCTYPE svg PUBLIC "-//W3C//DTD SVG 20010904//EN"
"http://www.w3.org/TR/2001/REC-SVG-20010904/DTD/svg10.dtd"
[
 <!ATTLIST svg
  xmlns:xlink CDATA #FIXED "http://www.w3.org/1999/xlink">
]>
<!-- Created with Sodipodi ("http://www.sodipodi.com/") -->
<svg
   xml:space="preserve"
   width="128pt"
   height="128pt"
   viewBox="0 0 507.946 507.946"
   id="svg49"
   sodipodi:version="0.27"
   sodipodi:docname="/mnt/windows/Themes/Work/Blue-Sphere/clock.svg"
   sodipodi:docbase="/mnt/windows/Themes/Work/Blue-Sphere/"
   xmlns="http://www.w3.org/2000/svg"
   xmlns:sodipodi="http://sodipodi.sourceforge.net/DTD/sodipodi-0.dtd"
   xmlns:xlink="http://www.w3.org/1999/xlink">
  <defs
     id="defs62">
    <radialGradient
       id="radialGradient93"
       cx="218.9404"
       cy="219.7715"
       r="150.7063"
       fx="218.9404"
       fy="219.7715"
       gradientUnits="userSpaceOnUse"
       style="stroke:#000000;stroke-opacity:0.986014;stroke-width:0.981612;">
      <stop
         offset="0.000000"
         style="stop-color:#25a6ca;stop-opacity:1;"
         id="stop94" />
      <stop
         offset="1.000000"
         style="stop-color:#2ea6b9;stop-opacity:0.843137;"
         id="stop95" />
    </radialGradient>
    <radialGradient
       id="aigrd1"
       cx="218.9404"
       cy="219.7715"
       r="150.7063"
       fx="218.9404"
       fy="219.7715"
       gradientUnits="userSpaceOnUse"
       style="stroke:#000000;stroke-opacity:0.986014;stroke-width:0.981612;">
      <stop
         offset="0"
         style="stop-color:#73ffff;stroke:#000000;stroke-opacity:0.986014;stroke-width:0.981612;"
         id="stop53" />
      <stop
         offset="0.2809"
         style="stop-color:#2EA6B9;stroke:#000000;stroke-opacity:0.986014;stroke-width:0.981612;"
         id="stop54" />
      <stop
         offset="1"
         style="stop-color:#006b8b;stroke:#000000;stroke-opacity:0.986014;stroke-width:0.981612;"
         id="stop55" />
    </radialGradient>
    <linearGradient
       xlink:href="#aigrd1"
       id="linearGradient91"
       x1="-0.295723"
       y1="-0.264591"
       x2="0.622574"
       y2="0.365762"
       gradientUnits="objectBoundingBox"
       gradientTransform="matrix(0.996114,0,0,1.0039,0.496124,0.492186)"
       spreadMethod="pad" />
    <radialGradient
       xlink:href="#aigrd1"
       id="radialGradient92"
       cx="-8.09344e-05"
       cy="-7.68867e-05"
       fx="-8.09344e-05"
       fy="-7.68867e-05"
       r="0.789127"
       gradientUnits="objectBoundingBox"
       gradientTransform="matrix(1.06784,0,0,0.936469,0.342219,0.344712)"
       spreadMethod="pad" />
  </defs>
  <sodipodi:namedview
     id="base" />
  <path
     style="font-size:12;stroke:none;stroke-width:0.979268;stroke-opacity:0.986014;fill:#a4c9ee;fill-opacity:0.7;"
     d="M134.757,263.776c0,66.739,54.298,121.04,121.039,121.04c66.739,0,121.039-54.301,121.039-121.04c0-66.741-54.3-121.039-121.039-121.039c-66.741,0-121.039,54.298-121.039,121.039z"
     id="path51"
     transform="matrix(1.89511,0,0,1.91236,-231.458,-247.971)" />
  <path
     style="font-size:12;fill:url(#radialGradient92);fill-rule:evenodd;stroke:#1c6671;stroke-width:7.72505;stroke-opacity:0.988235;"
     d="M356.643,263.366c0,57.027-46.23,103.257-103.256,103.257c-57.027,0-103.256-46.229-103.256-103.257c0-57.027,46.229-103.256,103.256-103.256     c57.025,0,103.256,46.229,103.256,103.256z"
     id="path56"
     transform="matrix(2.04451,0,0,2.04451,-264.353,-281.723)" />
  <path
     style="font-size:12;stroke:#1c6671;stroke-width:4.3604;stroke-opacity:0.988235;fill:#a4c9ee;fill-opacity:0.7;"
     d="M134.757,263.776c0,66.739,54.298,121.04,121.039,121.04c66.739,0,121.039-54.301,121.039-121.04c0-66.741-54.3-121.039-121.039-121.039c-66.741,0-121.039,54.298-121.039,121.039z"
     id="path89"
     transform="matrix(1.35234,0,0,1.36465,-87.8126,-102.493)" />
  <path
     style="font-size:12;fill:url(#aigrd1);fill-rule:evenodd;stroke:#bbffff;stroke-width:15.473;stroke-opacity:0.988235;"
     d="M356.643,263.366c0,57.027-46.23,103.257-103.256,103.257c-57.027,0-103.256-46.229-103.256-103.257c0-57.027,46.229-103.256,103.256-103.256     c57.025,0,103.256,46.229,103.256,103.256z"
     id="path90"
     transform="matrix(1.4332,0,0,1.4332,-105.558,-118.964)" />
  <path
     style="font-size:12;opacity:0.7;fill:#ffffff;stroke:#1c6772;stroke-width:3.86972;stroke-opacity:0.988235;"
     d="M 296.974 234.395 C 299.406 231.976 298.797 223.275 294.343 218.052 C 290.395 213.348 279.4 212.777 276.846 216.384 L 202.982 289.07 C 197.83 295.098 202.899 303.263 206.738 306.734 C 211.083 310.725 218.291 313.11 222.188 309.238 C 222.188 309.238 293.34 237.935 296.974 234.395 z "
     id="path44"
     transform="matrix(0.868688,-0.667103,0.891722,0.649868,-193.915,190.77)"
     sodipodi:nodetypes="czcczcc" />
  <path
     style="font-size:12;opacity:0.7;fill:#ffffff;stroke:#1c6772;stroke-width:3.8697;stroke-opacity:0.988235;"
     d="M 296.974 234.395 C 299.406 231.976 298.797 223.275 294.343 218.052 C 290.395 213.348 279.4 212.777 276.846 216.384 L 202.982 289.07 C 197.83 295.098 202.899 303.263 206.738 306.734 C 211.083 310.725 218.291 313.11 222.188 309.238 C 222.188 309.238 293.34 237.935 296.974 234.395 z "
     id="path98"
     transform="matrix(0.0690061,-1.09311,1.07606,-0.244116,8.37925,641.138)"
     sodipodi:nodetypes="czcczcc" />
  <path
     style="font-size:12;opacity:0.7;fill:#ffffff;stroke:#1c6772;stroke-width:9.49845;stroke-opacity:0.988235;"
     d="M 296.974 234.395 C 299.406 231.976 298.797 223.275 294.343 218.052 C 290.395 213.348 279.4 212.777 276.846 216.384 L 202.982 289.07 C 197.83 295.098 202.899 303.263 206.738 306.734 C 211.083 310.725 218.291 313.11 222.188 309.238 C 222.188 309.238 293.34 237.935 296.974 234.395 z "
     id="path99"
     transform="matrix(0.711046,-0.176684,0.7299,0.172119,-213.001,259.553)"
     sodipodi:nodetypes="czcczcc" />
  <path
     style="font-size:12;opacity:0.7;fill:#ffffff;stroke:#1c6772;stroke-width:9.49845;stroke-opacity:0.988235;"
     d="M 296.974 234.395 C 299.406 231.976 298.797 223.275 294.343 218.052 C 290.395 213.348 279.4 212.777 276.846 216.384 L 202.982 289.07 C 197.83 295.098 202.899 303.263 206.738 306.734 C 211.083 310.725 218.291 313.11 222.188 309.238 C 222.188 309.238 293.34 237.935 296.974 234.395 z "
     id="path100"
     transform="matrix(0.711046,-0.176684,0.7299,0.172119,-113.655,365.308)"
     sodipodi:nodetypes="czcczcc" />
  <path
     style="font-size:12;opacity:0.7;fill:#ffffff;stroke:#1c6772;stroke-width:9.49845;stroke-opacity:0.988235;"
     d="M 296.974 234.395 C 299.406 231.976 298.797 223.275 294.343 218.052 C 290.395 213.348 279.4 212.777 276.846 216.384 L 202.982 289.07 C 197.83 295.098 202.899 303.263 206.738 306.734 C 211.083 310.725 218.291 313.11 222.188 309.238 C 222.188 309.238 293.34 237.935 296.974 234.395 z "
     id="path101"
     transform="matrix(0.711046,-0.176684,0.7299,0.172119,-4.69506,257.951)"
     sodipodi:nodetypes="czcczcc" />
</svg>
