<?xml version="1.0" encoding="utf-8"?><!-- Generator: Adobe Illustrator 15.0.0, SVG Export Plug-In . SVG Version: 6.00 Build 0)  --><!DOCTYPE svg PUBLIC "-//W3C//DTD SVG 1.1//EN" "http://www.w3.org/Graphics/SVG/1.1/DTD/svg11.dtd"><svg xmlns="http://www.w3.org/2000/svg" xmlns:xlink="http://www.w3.org/1999/xlink" version="1.1" id="Слой_1" x="0px" y="0px" width="48px" height="48px" viewBox="0 0 48 48" enable-background="new 0 0 48 48" xml:space="preserve">
<g>
	<path fill="#EF840F" d="M37,20c0,1.105-0.895,2-2,2s-2-0.895-2-2s0.895-2,2-2S37,18.895,37,20"/>
	<path fill="#EF840F" d="M35,14c0-7.635-18-4.971-18,0v7c0,4.971,4.029,9,9,9s9-4.029,9-9V14z"/>
</g>
<g>
	<path fill="#D17315" d="M26,30c-1.851,0-3.57-0.56-5-1.518V30c0,0,0,6,5,6s5-6,5-6v-1.518C29.569,29.44,27.851,30,26,30z"/>
	<path fill="#D17315" d="M31.996,23.221c-0.147-0.176-0.316-0.32-0.499-0.434c0.249-0.27,0.57-0.722,0.631-1.296   c0.052-0.487-0.094-0.956-0.419-1.353c-0.204-0.25-0.452-0.436-0.727-0.551c0.056-0.15,0.096-0.312,0.113-0.484   c0.049-0.488-0.098-0.956-0.423-1.353c-0.439-0.534-1.124-0.762-1.735-0.649c-0.063-0.262-0.188-0.512-0.373-0.737   c-0.401-0.49-0.939-0.446-1.527-0.446c-0.831,0-1.226,0.836-1.311,0.914l-5.641,4.688l-0.572-2.137   c-0.01-0.277-0.087-0.92-0.575-1.437c-0.26-0.274-0.73-0.606-1.548-0.624c-0.141,0-0.266,0.02-0.391,0.04V21c0,4.971,4.029,9,9,9   c0.341,0,0.677-0.023,1.008-0.06l4.599-3.771c0.129-0.105,0.776-0.679,0.854-1.541C32.507,24.123,32.347,23.637,31.996,23.221"/>
</g>
<path fill="#424242" d="M26,5c-6.075,0-10,4.925-10,11v2.284L17,21v-2l13-5l4,4v2l2-1.741V16c0-4.025-1.038-8.016-6-9l-1-2H26z"/>
<path fill="#4FC3F7" d="M31,30L31,30c0,0-1,4-5,4s-5-4-5-4s-11,1.986-11,13h32C42,32.025,31,30,31,30"/>
<path fill="#01579B" d="M26,36c5,0,6.745-3.93,6.951-5.428C31.794,30.148,31,30,31,30s-1,4-5,4s-5-4-5-4s-0.794,0.146-1.952,0.566  C19.252,32.061,21,36,26,36"/>
<g>
	<path fill="#FFBC6C" d="M30.971,24.398c0,0,0.918-0.756,0.262-1.531c-0.675-0.801-1.576,0-1.576,0s-2.529,2.05-2.9,2.371   c-0.352,0.303-0.773-0.148-0.404-0.47c0.468-0.403,4.241-3.497,4.241-3.497s0.949-0.759,0.343-1.498   c-0.632-0.771-1.561,0.088-1.561,0.088s-2.811,2.273-3.299,2.695c-0.35,0.301-0.764-0.162-0.404-0.47   c0.468-0.404,3.896-3.19,3.896-3.19s0.941-0.769,0.332-1.511c-0.627-0.765-1.543,0.106-1.543,0.106s-3.917,3.205-4.366,3.592   c-0.359,0.313-0.717-0.198-0.404-0.467c0.47-0.404,3.84-3.154,3.84-3.154s0.957-0.744,0.364-1.465   c-0.716-0.874-1.668-0.02-1.668-0.02l-7.109,5.859l-0.498-3.375c0,0,0.038-1.116-1.092-1.141c-1.132-0.021-1.151,1.1-1.151,1.1   l-0.334,8.097c0,0,3.576,3.548,4.935,4.351c1.359,0.804,4.155-1.598,4.155-1.598L30.971,24.398z"/>
	<path fill="#FFBC6C" d="M10,43h1l10.079-12.322l-4.081-4.976c0,0-8.873,6.485-9.998,7.298s-2,2.438-2,5C5,40.182,10,43,10,43"/>
</g>
</svg>