<?xml version="1.0" encoding="UTF-8" standalone="no"?>
<!-- Created with Sodipodi ("http://www.sodipodi.com/") -->

<svg
   xmlns:dc="http://purl.org/dc/elements/1.1/"
   xmlns:cc="http://creativecommons.org/ns#"
   xmlns:rdf="http://www.w3.org/1999/02/22-rdf-syntax-ns#"
   xmlns:svg="http://www.w3.org/2000/svg"
   xmlns="http://www.w3.org/2000/svg"
   xmlns:xlink="http://www.w3.org/1999/xlink"
   xmlns:sodipodi="http://sodipodi.sourceforge.net/DTD/sodipodi-0.dtd"
   xmlns:inkscape="http://www.inkscape.org/namespaces/inkscape"
   xml:space="preserve"
   width="128pt"
   height="128pt"
   viewBox="0 0 507.946 507.946"
   id="svg49"
   sodipodi:version="0.27"
   sodipodi:docname="color_bluesphere_gear-2.0.svg"
   version="1.1"
   inkscape:version="0.91 r13725"><metadata
     id="metadata73"><rdf:RDF><cc:Work
         rdf:about=""><dc:format>image/svg+xml</dc:format><dc:type
           rdf:resource="http://purl.org/dc/dcmitype/StillImage" /></cc:Work></rdf:RDF></metadata><defs
     id="defs62"><linearGradient
       id="linearGradient290"><stop
         offset="0.000000"
         style="stop-color:#d09220;stop-opacity:0.992157;"
         id="stop291" /><stop
         offset="1.000000"
         style="stop-color:#efa81a;stop-opacity:0.952941;"
         id="stop292" /></linearGradient><linearGradient
       id="linearGradient108"><stop
         offset="0.000000"
         style="stop-color:#fbddb2;stop-opacity:0.992157;"
         id="stop110" /><stop
         offset="1.000000"
         style="stop-color:#efa81a;stop-opacity:0.952941;"
         id="stop109" /></linearGradient><linearGradient
       xlink:href="#linearGradient290"
       id="linearGradient88"
       x1="0.361855"
       y1="-0.01326"
       x2="0.651354"
       y2="0.703205"
       gradientUnits="objectBoundingBox"
       gradientTransform="matrix(1,-7.64634e-09,2.78419e-09,1,-3.0049e-07,9.23379e-07)"
       spreadMethod="pad" /><radialGradient
       xlink:href="#linearGradient108"
       id="radialGradient215" /></defs><defs
     id="defs22" /><sodipodi:namedview
     id="base"
     showgrid="false"
     inkscape:zoom="1.475"
     inkscape:cx="-39.322034"
     inkscape:cy="80"
     inkscape:window-width="1920"
     inkscape:window-height="1024"
     inkscape:window-x="-3"
     inkscape:window-y="-5"
     inkscape:window-maximized="1"
     inkscape:current-layer="svg49" /><g
     id="g293"><path
       d=" M 142.384 60.3379 C 145.692 54.1689 142.622 50.6606 136.245 53.3211 L 123.49 58.6423 C 117.029 61.3374 108.572 57.417 106.575 50.8016 L 102.581 37.5707 C 100.558 30.8693 95.9072 30.5589 93.2789 36.9499 L 88.0223 49.7317 C 85.3598 56.2056 76.6075 59.4137 70.5176 56.1479 L 58.3379 49.6164 C 52.1689 46.3082 48.6606 49.3776 51.3211 55.7551 L 56.6423 68.5103 C 59.3374 74.9706 55.417 83.4279 48.8016 85.4249 L 35.5707 89.4187 C 28.8693 91.4416 28.5589 96.0928 34.9499 98.7211 L 47.7317 103.978 C 54.2056 106.64 57.4137 115.392 54.1479 121.482 L 47.6164 133.662 C 44.3082 139.831 47.3776 143.339 53.7551 140.679 L 66.5103 135.358 C 72.9706 132.663 81.4279 136.583 83.4249 143.198 L 87.4187 156.429 C 89.4416 163.131 94.0928 163.441 96.7211 157.05 L 101.978 144.268 C 104.64 137.794 113.392 134.586 119.482 137.852 L 131.662 144.384 C 137.831 147.692 141.339 144.622 138.679 138.245 L 133.358 125.49 C 130.663 119.029 134.583 110.572 141.198 108.575 L 154.429 104.581 C 161.131 102.558 161.441 97.9072 155.05 95.2789 L 142.268 90.0223 C 135.794 87.3598 132.586 78.6075 135.852 72.5176 L 142.384 60.3379"
       fill="none"
       fill-opacity="1"
       fill-rule="nonzero"
       stroke="#000000"
       stroke-opacity="1"
       stroke-width="1"
       stroke-linecap="butt"
       stroke-linejoin="miter"
       stroke-miterlimit="10"
       id="path288"
       style="font-size:12;fill:#d09220;stroke:#580400;stroke-width:3.41213;stroke-opacity:0.992157;fill-opacity:0.992157;"
       transform="matrix(3.63048,-1.28882,1.1045,3.11131,-194.044,87.5304)" /><path
       d=" M 142.384 60.3379 C 145.692 54.1689 142.622 50.6606 136.245 53.3211 L 123.49 58.6423 C 117.029 61.3374 108.572 57.417 106.575 50.8016 L 102.581 37.5707 C 100.558 30.8693 95.9072 30.5589 93.2789 36.9499 L 88.0223 49.7317 C 85.3598 56.2056 76.6075 59.4137 70.5176 56.1479 L 58.3379 49.6164 C 52.1689 46.3082 48.6606 49.3776 51.3211 55.7551 L 56.6423 68.5103 C 59.3374 74.9706 55.417 83.4279 48.8016 85.4249 L 35.5707 89.4187 C 28.8693 91.4416 28.5589 96.0928 34.9499 98.7211 L 47.7317 103.978 C 54.2056 106.64 57.4137 115.392 54.1479 121.482 L 47.6164 133.662 C 44.3082 139.831 47.3776 143.339 53.7551 140.679 L 66.5103 135.358 C 72.9706 132.663 81.4279 136.583 83.4249 143.198 L 87.4187 156.429 C 89.4416 163.131 94.0928 163.441 96.7211 157.05 L 101.978 144.268 C 104.64 137.794 113.392 134.586 119.482 137.852 L 131.662 144.384 C 137.831 147.692 141.339 144.622 138.679 138.245 L 133.358 125.49 C 130.663 119.029 134.583 110.572 141.198 108.575 L 154.429 104.581 C 161.131 102.558 161.441 97.9072 155.05 95.2789 L 142.268 90.0223 C 135.794 87.3598 132.586 78.6075 135.852 72.5176 L 142.384 60.3379"
       fill="none"
       fill-opacity="1"
       fill-rule="nonzero"
       stroke="#000000"
       stroke-opacity="1"
       stroke-width="1"
       stroke-linecap="butt"
       stroke-linejoin="miter"
       stroke-miterlimit="10"
       id="path5"
       style="font-size:12;fill:url(#radialGradient215);stroke:#580400;stroke-width:3.41213;stroke-opacity:0.992157;"
       transform="matrix(3.63048,-1.28882,1.1045,3.11131,-207.296,61.0252)" /><path
       d=" M 42 66 C 42 48.3269 57.2223 34 76 34 C 94.7777 34 110 48.3269 110 66 C 110 83.6731 94.7777 98 76 98 C 57.2223 98 42 83.6731 42 66Z"
       fill="none"
       fill-opacity="1"
       fill-rule="nonzero"
       stroke="#000000"
       stroke-opacity="1"
       stroke-width="1"
       stroke-linecap="butt"
       stroke-linejoin="miter"
       stroke-miterlimit="10"
       id="path204"
       style="font-size:12;fill:url(#linearGradient88);fill-opacity:0.99;stroke:#580400;stroke-width:3.89659;stroke-opacity:0.992157;"
       transform="matrix(3.1791,-1.12857,0.967186,2.72448,-61.954,148.364)" /><path
       d="M 42 66 C 42 48.3269 57.2223 34 76 34 C 94.7777 34 108.045 44.4769 101.969 63.2812 C 93.9676 76.4239 86.8529 79.5165 77.659 82.2704 C 59.314 84.2737 47.6434 80.5385 42 66 z "
       fill="none"
       fill-opacity="1"
       fill-rule="nonzero"
       stroke="#000000"
       stroke-opacity="1"
       stroke-width="1"
       stroke-linecap="butt"
       stroke-linejoin="miter"
       stroke-miterlimit="10"
       id="path289"
       style="font-size:12;fill:#ffffff;fill-opacity:0.99;stroke:#580400;stroke-width:3.89659;stroke-opacity:0.992157;"
       transform="matrix(3.1791,-1.12857,0.967186,2.72448,-25.5096,179.838)"
       sodipodi:nodetypes="ccccc" /></g></svg>