<?xml version="1.0" encoding="utf-8"?><!-- Generator: Adobe Illustrator 18.1.1, SVG Export Plug-In . SVG Version: 6.00 Build 0)  --><svg xmlns="http://www.w3.org/2000/svg" xmlns:xlink="http://www.w3.org/1999/xlink" version="1.1" id="Layer_1" x="0px" y="0px" viewBox="0 0 48 48" enable-background="new 0 0 48 48" xml:space="preserve">
<path fill="#CFD8DC" d="M35,15v-3H13v3c0,4.9,10,9,10,9h0c0,0-10,4.1-10,9s0,3,0,3h22c0,0,0,1.9,0-3s-10-9-10-9h0  C25,24,35,19.9,35,15z"/>
<rect x="9" y="40" fill="#8D6E63" width="30" height="4"/>
<rect x="9" y="4" fill="#8D6E63" width="30" height="4"/>
<rect x="13" y="8" fill="#6D4C41" width="22" height="4"/>
<rect x="13" y="36" fill="#6D4C41" width="22" height="4"/>
<path fill="#F57C00" d="M23.4,22h1.1c2.7-1.3,8.4-4.4,8.4-7c0,0-4.5,2-9,2s-9-2-9-2C15,17.6,20.8,20.7,23.4,22z"/>
<path fill="#F57C00" d="M24,26.8c0,0-8,3.4-8,9.2h16C32,30.4,24,26.8,24,26.8z"/>
</svg>