<?xml version="1.0" encoding="utf-8"?><!-- Generator: Adobe Illustrator 18.1.1, SVG Export Plug-In . SVG Version: 6.00 Build 0)  --><svg xmlns="http://www.w3.org/2000/svg" xmlns:xlink="http://www.w3.org/1999/xlink" version="1.1" id="Layer_1" x="0px" y="0px" viewBox="0 0 48 48" enable-background="new 0 0 48 48" xml:space="preserve">
<path fill="#7E57C2" d="M24.2,29c-0.2-1.3-1.6-3.8-1.6-3.8l-3.1-1.5l-2.1,0.8L14.9,24l-4.7,3.6c0,0-2,2.9-2.1,4.6l2.1,5.7  c0.4-0.2,1.1-0.2,1.1-0.2s2.2,0.9,2.4,2.2l3.7,0.1l4.4-1.6l2.1-4.5L23,31.3L24.2,29z"/>
<g>
	<g>
		<path fill="#FF9800" d="M22.8,40c-2,2-4.6,3-7.4,3S9.9,41.9,8,40c-4-4-4-10.8,0-14.8L22.1,11l-1.4-1.4L6.6,23.8    c-4.8,4.8-4.8,12.9,0,17.6C8.9,43.7,12,45,15.4,45s6.5-1.3,8.8-3.6l9.5-9.5l-1.4-1.4L22.8,40z"/>
		<polygon fill="#FF9800" points="27.3,27.3 26.7,30.7 39.1,18.2 37.7,16.8   "/>
		<polygon fill="#FF9800" points="20.7,20.7 30.1,11.2 28.7,9.8 17.3,21.3   "/>
		
			<rect x="22.1" y="15.1" transform="matrix(-0.7071 0.7071 -0.7071 -0.7071 65.8279 4.8668)" fill="#FF9800" width="19.6" height="2"/>
	</g>
	<circle fill="#FF9800" cx="24" cy="8" r="1"/>
	<circle fill="#FF9800" cx="27" cy="5" r="1"/>
	<circle fill="#FF9800" cx="35" cy="29" r="1"/>
	<circle fill="#FF9800" cx="38" cy="26" r="1"/>
	<circle fill="#FF9800" cx="41" cy="23" r="1"/>
	<circle fill="#FF9800" cx="41" cy="15" r="1"/>
	<circle fill="#FF9800" cx="32" cy="8" r="1"/>
	<circle fill="#FF9800" cx="35" cy="5" r="1"/>
	<circle fill="#FF9800" cx="41" cy="7" r="1"/>
	<circle fill="#FF9800" cx="44" cy="4" r="1"/>
</g>
<path fill="#B39DDB" d="M15.4,32c0-0.2,0-0.4-0.2-0.7c-0.5-1.3-2-2-3.3-1.4c-0.2,0-0.4,0.2-0.5,0.4c0-1.1,0.5-2.2,1.6-2.5  c0,0,2.4-0.5,3.3,1.4C16.6,30.3,16.1,31.4,15.4,32z"/>
<path fill="#B39DDB" d="M19,34.9c0.1-0.1,0.2-0.1,0.3-0.3c0.4-0.6,0.3-1.4-0.3-1.8c-0.1-0.1-0.2-0.1-0.3-0.1c0.5-0.3,1.1-0.4,1.6,0  c0,0,0.9,0.9,0.3,1.8C20,34.9,19.4,35,19,34.9z"/>
</svg>