<?xml version="1.0" encoding="utf-8"?><!-- Generator: Adobe Illustrator 18.1.1, SVG Export Plug-In . SVG Version: 6.00 Build 0)  --><svg xmlns="http://www.w3.org/2000/svg" xmlns:xlink="http://www.w3.org/1999/xlink" version="1.1" id="Layer_1" x="0px" y="0px" viewBox="0 0 48 48" enable-background="new 0 0 48 48" xml:space="preserve">
<g>
	
		<rect x="34.6" y="28.1" transform="matrix(0.7071 -0.7071 0.7071 0.7071 -15.1544 36.5859)" fill="#616161" width="4" height="17"/>
	<circle fill="#616161" cx="20" cy="20" r="16"/>
</g>
<rect x="36.2" y="32.1" transform="matrix(0.7071 -0.7071 0.7071 0.7071 -15.8392 38.2393)" fill="#37474F" width="4" height="12.3"/>
<circle fill="#FFB74D" cx="20" cy="20" r="13"/>
<path fill="#FAFAFA" d="M7.5,20c0,0,4.6-4.5,12.5-4.5S32.5,20,32.5,20s-6,6.5-12.5,6.5S7.5,20,7.5,20z"/>
<g>
	<path fill="#FFA726" d="M7.5,20c0,0,4.6,9.5,12.5,9.5S32.5,20,32.5,20s-6,6.5-12.5,6.5S7.5,20,7.5,20z"/>
	<path fill="#FFA726" d="M7.5,20c0,0,4.6-4.5,12.5-4.5S32.5,20,32.5,20s-3.8-8.5-12.5-8.5S7.5,20,7.5,20z"/>
</g>
<path fill="#009688" d="M15.5,16c-0.9,1.1-1.5,2.5-1.5,4c0,3.3,2.7,6,6,6s6-2.7,6-6c0-1.5-0.6-2.9-1.5-4c-1.3-0.3-2.8-0.5-4.5-0.5  S16.9,15.7,15.5,16z"/>
<circle fill="#263238" cx="20" cy="20" r="2.5"/>
<circle fill="#FFFFFF" cx="22" cy="18" r="1"/>
</svg>