<?xml version="1.0" standalone="no"?>
<!DOCTYPE svg PUBLIC "-//W3C//DTD SVG 20010904//EN"
"http://www.w3.org/TR/2001/REC-SVG-20010904/DTD/svg10.dtd"
[
 <!ATTLIST svg
  xmlns:xlink CDATA #FIXED "http://www.w3.org/1999/xlink">
]>
<!-- Created with Sodipodi ("http://www.sodipodi.com/") -->
<svg
   xml:space="preserve"
   width="128pt"
   height="128pt"
   viewBox="0 0 507.946 507.946"
   id="svg49"
   sodipodi:version="0.27"
   sodipodi:docname="/mnt/windows/Themes/Work/Blue-Sphere/desktop-2.0.svg"
   sodipodi:docbase="/mnt/windows/Themes/Work/Blue-Sphere/"
   xmlns="http://www.w3.org/2000/svg"
   xmlns:sodipodi="http://sodipodi.sourceforge.net/DTD/sodipodi-0.dtd"
   xmlns:xlink="http://www.w3.org/1999/xlink">
  <defs
     id="defs62">
    <linearGradient
       id="linearGradient108">
      <stop
         offset="0.000000"
         style="stop-color:#fbddb2;stop-opacity:0.992157;"
         id="stop110" />
      <stop
         offset="1.000000"
         style="stop-color:#efa81a;stop-opacity:0.952941;"
         id="stop109" />
    </linearGradient>
    <linearGradient
       id="linearGradient3679">
      <stop
         offset="0.000000"
         style="stop-color:#cdffff;stop-opacity:1;"
         id="stop3681" />
      <stop
         offset="1.000000"
         style="stop-color:#006b97;stop-opacity:0.905882;"
         id="stop3680" />
    </linearGradient>
    <linearGradient
       id="linearGradient3676">
      <stop
         offset="0.000000"
         style="stop-color:#cdffff;stop-opacity:1;"
         id="stop3678" />
      <stop
         offset="1.000000"
         style="stop-color:#0c5d7d;stop-opacity:0.905882;"
         id="stop3677" />
    </linearGradient>
    <linearGradient
       id="linearGradient3671">
      <stop
         offset="0.000000"
         style="stop-color:#d7ffff;stop-opacity:0.898039;"
         id="stop3673" />
      <stop
         offset="1.000000"
         style="stop-color:#2ea6b9;stop-opacity:0.952941;"
         id="stop3672" />
    </linearGradient>
    <linearGradient
       id="linearGradient3668">
      <stop
         offset="0.000000"
         style="stop-color:#fbddc7;stop-opacity:0.992157;"
         id="stop3670" />
      <stop
         offset="1.000000"
         style="stop-color:#efa81a;stop-opacity:0.952941;"
         id="stop3669" />
    </linearGradient>
    <linearGradient
       id="linearGradient178">
      <stop
         offset="0.000000"
         style="stop-color:#ffffff;stop-opacity:1;"
         id="stop180" />
      <stop
         offset="1.000000"
         style="stop-color:#000000;stop-opacity:1;"
         id="stop179" />
    </linearGradient>
    <linearGradient
       id="linearGradient174">
      <stop
         offset="0.000000"
         style="stop-color:#ffffff;stop-opacity:1;"
         id="stop176" />
      <stop
         offset="1.000000"
         style="stop-color:#797979;stop-opacity:1;"
         id="stop175" />
    </linearGradient>
    <radialGradient
       id="aigrd1"
       cx="218.9404"
       cy="219.7715"
       r="150.7063"
       fx="218.9404"
       fy="219.7715"
       gradientUnits="userSpaceOnUse"
       style="stroke:#000000;stroke-opacity:0.986014;stroke-width:0.981612;">
      <stop
         offset="0"
         style="stop-color:#73ffff;stroke:#000000;stroke-opacity:0.986014;stroke-width:0.981612;"
         id="stop53" />
      <stop
         offset="0.2809"
         style="stop-color:#2EA6B9;stroke:#000000;stroke-opacity:0.986014;stroke-width:0.981612;"
         id="stop54" />
      <stop
         offset="1"
         style="stop-color:#006b8b;stroke:#000000;stroke-opacity:0.986014;stroke-width:0.981612;"
         id="stop55" />
    </radialGradient>
    <linearGradient
       xlink:href="#linearGradient108"
       id="linearGradient88"
       x1="0.978662"
       y1="-0.136165"
       x2="0.995459"
       y2="0.170722"
       gradientUnits="objectBoundingBox"
       gradientTransform="matrix(0.290047,0.304671,-1.68407,1.67874,0.630124,0.25343)"
       spreadMethod="pad" />
    <radialGradient
       xlink:href="#linearGradient3679"
       id="radialGradient89"
       cx="1.21696e-11"
       cy="5.56994e-12"
       fx="1.21696e-11"
       fy="5.56994e-12"
       r="0.407754"
       gradientUnits="objectBoundingBox"
       gradientTransform="matrix(0.323703,0.339303,-1.51217,1.5042,0.609048,0.300472)"
       spreadMethod="pad" />
    <linearGradient
       xlink:href="#linearGradient174"
       id="linearGradient177"
       x1="0.0309151"
       y1="-0.0503721"
       x2="0.153421"
       y2="0.357058"
       gradientUnits="objectBoundingBox"
       gradientTransform="matrix(0.290047,0.304671,-1.68407,1.67874,0.630124,0.25343)"
       spreadMethod="pad" />
    <linearGradient
       x1="2.74398"
       y1="1.04649"
       x2="3.25673"
       y2="0.58662"
       xlink:href="#linearGradient3668"
       id="linearGradient3674"
       gradientUnits="objectBoundingBox"
       gradientTransform="translate(-2.65767,-0.201241)"
       spreadMethod="pad" />
    <radialGradient
       xlink:href="#linearGradient178"
       id="radialGradient3682"
       cx="3.36239e-14"
       cy="4.6019e-14"
       fx="3.36239e-14"
       fy="4.6019e-14"
       r="0.414968"
       gradientUnits="objectBoundingBox"
       gradientTransform="matrix(0.302095,0.316531,-1.62097,1.61178,0.610925,0.353977)"
       spreadMethod="pad" />
    <linearGradient
       xlink:href="#linearGradient108"
       id="linearGradient113"
       x1="0.882774"
       y1="0.405781"
       x2="0.200159"
       y2="0.386892"
       gradientUnits="objectBoundingBox"
       gradientTransform="translate(9.33903e-07,-4.51255e-06)"
       spreadMethod="pad" />
    <linearGradient
       x1="0.978662"
       y1="-0.136165"
       x2="0.995459"
       y2="0.170722"
       xlink:href="#linearGradient108"
       id="linearGradient114"
       gradientUnits="objectBoundingBox"
       gradientTransform="matrix(0.290047,0.304671,-1.68407,1.67874,0.630124,0.25343)"
       spreadMethod="pad" />
  </defs>
  <defs
     id="defs22">
    <linearGradient
       id="linearGradient124">
      <stop
         offset="0.000000"
         style="stop-color:#6ace34;stop-opacity:0.992157;"
         id="stop125" />
      <stop
         offset="1.000000"
         style="stop-color:#3d7a35;stop-opacity:0.952941;"
         id="stop126" />
    </linearGradient>
    <linearGradient
       id="linearGradient120">
      <stop
         offset="0.000000"
         style="stop-color:#f52755;stop-opacity:0.992157;"
         id="stop121" />
      <stop
         offset="1.000000"
         style="stop-color:#a81837;stop-opacity:0.952941;"
         id="stop122" />
    </linearGradient>
    <linearGradient
       id="linearGradient96"
       x1="0.000000"
       y1="0.000000"
       x2="1.000000"
       y2="0.000000"
       xlink:href="#linearGradient108" />
    <linearGradient
       id="linearGradient1857"
       x1="0.000000"
       y1="0.000000"
       x2="1.000000"
       y2="0.000000"
       xlink:href="#linearGradient3668" />
    <linearGradient
       id="linearGradient168"
       x1="0.000000"
       y1="0.000000"
       x2="1.000000"
       y2="0.000000"
       xlink:href="#linearGradient3676" />
    <linearGradient
       id="linearGradient90"
       x1="0.000000"
       y1="0.000000"
       x2="1.000000"
       y2="0.000000"
       xlink:href="#linearGradient3679" />
    <linearGradient
       id="linearGradient67"
       x1="0.000000"
       y1="0.000000"
       x2="1.000000"
       y2="0.000000"
       xlink:href="#linearGradient3671" />
    <linearGradient
       id="linearGradient57"
       x1="0.000000"
       y1="0.000000"
       x2="1.000000"
       y2="0.000000"
       xlink:href="#linearGradient174" />
    <defs
       id="defs4">
      <radialGradient
         id="1"
         cx="869.603027"
         cy="1973.579956"
         r="2106.649902"
         fx="869.603027"
         fy="1973.579956"
         gradientUnits="userSpaceOnUse"
         xlink:href="#linearGradient67" />
    </defs>
    <defs
       id="defs11">
      <linearGradient
         id="2"
         x1="255.848007"
         y1="119.147003"
         x2="375.686005"
         y2="34.100899"
         gradientUnits="userSpaceOnUse"
         xlink:href="#linearGradient178" />
    </defs>
    <defs
       id="defs16">
      <linearGradient
         id="3"
         x1="275.053009"
         y1="109.384003"
         x2="356.480988"
         y2="30.864300"
         gradientUnits="userSpaceOnUse"
         xlink:href="#linearGradient57" />
    </defs>
    <radialGradient
       cx="3.03981e-14"
       cy="1.05578e-10"
       r="0.773346"
       fx="3.03981e-14"
       fy="1.05578e-10"
       xlink:href="#linearGradient168"
       id="radialGradient88"
       gradientUnits="objectBoundingBox"
       gradientTransform="matrix(0.945877,0,0,1.05722,0.264368,0.249996)"
       spreadMethod="pad" />
    <linearGradient
       x1="2.69643"
       y1="1.14655"
       x2="3.85147"
       y2="0.623116"
       xlink:href="#linearGradient67"
       id="linearGradient89"
       gradientUnits="objectBoundingBox"
       gradientTransform="translate(-2.65767,-0.201241)"
       spreadMethod="pad" />
    <linearGradient
       xlink:href="#linearGradient96"
       id="linearGradient1856"
       x1="-0.01654"
       y1="-0.546712"
       x2="0.0148676"
       y2="0.138341"
       gradientUnits="objectBoundingBox"
       gradientTransform="matrix(1.27999,-1.2809,0.380134,0.400852,0.419179,0.455777)"
       spreadMethod="pad" />
    <radialGradient
       xlink:href="#linearGradient1857"
       id="radialGradient1860"
       cx="-5.51513e-06"
       cy="-1.48419e-06"
       fx="-5.51513e-06"
       fy="-1.48419e-06"
       r="0.694199"
       gradientUnits="objectBoundingBox"
       gradientTransform="matrix(1.6481,-1.64928,0.295229,0.311319,0.00343702,0.809113)"
       spreadMethod="pad" />
    <radialGradient
       xlink:href="#linearGradient96"
       id="radialGradient95"
       cx="6.46047e-09"
       cy="5.68149e-08"
       fx="6.46047e-09"
       fy="5.68149e-08"
       r="0.242318"
       gradientUnits="objectBoundingBox"
       gradientTransform="matrix(0.8189,0,0,1.22115,0.417826,0.462637)"
       spreadMethod="pad" />
    <linearGradient
       x1="-0.01654"
       y1="-0.546712"
       x2="0.0148676"
       y2="0.138341"
       xlink:href="#linearGradient120"
       id="linearGradient123"
       gradientUnits="objectBoundingBox"
       gradientTransform="matrix(1.27999,-1.2809,0.380134,0.400852,0.419179,0.455777)"
       spreadMethod="pad" />
    <linearGradient
       x1="-0.01654"
       y1="-0.546712"
       x2="0.0148676"
       y2="0.138341"
       xlink:href="#linearGradient124"
       id="linearGradient127"
       gradientUnits="objectBoundingBox"
       gradientTransform="matrix(1.27999,-1.2809,0.380134,0.400852,0.419179,0.455777)"
       spreadMethod="pad" />
  </defs>
  <sodipodi:namedview
     id="base">
    <sodipodi:guide
       orientation="horizontal"
       position="36.946373"
       id="sodipodi:guide74" />
    <sodipodi:guide
       orientation="horizontal"
       position="92.803368"
       id="sodipodi:guide3683" />
  </sodipodi:namedview>
  <path
     style="font-size:12;opacity:1.0;fill:url(#radialGradient89);stroke:#000027;stroke-width:1.52491;stroke-opacity:0.992157;stroke-linejoin:round;stroke-linecap:round;fill-opacity:0.7;"
     d="M 296.008 235.336 C 297.224 234.126 300.683 229.606 299.748 228.823 C 298.093 226.544 293.673 223.485 291.446 220.874 C 289.472 218.522 285.597 214.452 283.126 213.07 C 282.018 212.411 277.157 215.521 275.88 217.325 L 201.514 289.495 C 198.938 292.509 196.329 294.849 197.466 296.663 C 199.555 298.396 203.227 303.365 205.147 305.1 C 207.319 307.096 211.534 311.764 213.936 313.119 C 215.801 313.69 214.555 314.031 219.336 310.173 C 219.336 310.173 292.374 238.876 296.008 235.336 z "
     id="path97"
     transform="matrix(11.3254,-2.10499,11.6258,2.05061,-5616.95,227.887)"
     sodipodi:nodetypes="cszsccszscc" />
  <path
     style="font-size:12;opacity:1.0;fill:url(#linearGradient177);stroke:url(#radialGradient3682);stroke-width:2.11326;stroke-opacity:0.99;stroke-linejoin:round;stroke-linecap:round;fill-opacity:0.7;"
     d="M 296.008 235.336 C 297.224 234.126 300.683 229.606 299.748 228.823 C 298.093 226.544 293.673 223.485 291.446 220.874 C 289.472 218.522 285.559 214.412 283.088 213.03 C 281.98 212.371 277.157 215.521 275.88 217.325 L 201.514 289.495 C 198.938 292.509 196.329 294.849 197.466 296.663 C 199.555 298.396 203.227 303.365 205.147 305.1 C 207.319 307.096 211.534 311.764 213.936 313.119 C 215.801 313.69 214.555 314.031 219.336 310.173 C 219.336 310.173 292.374 238.876 296.008 235.336 z "
     id="path44"
     transform="matrix(8.76378,-1.60225,8.99625,1.56084,-4288.94,230.554)"
     sodipodi:nodetypes="cszsccszscc" />
  <path
     style="font-size:12;fill:url(#linearGradient3674);stroke:#580400;stroke-width:13.4528;stroke-linejoin:round;stroke-opacity:0.992157;"
     d="M 297.636 121.267 C 310.047 128.279 305.97 132.644 329.741 131.586 L 392.148 131.21 L 292.148 31.2105 L 288.422 91.7754 C 289.105 103.139 288.688 109.76 297.636 121.267 z "
     id="path20"
     transform="matrix(-0.720821,0.0124881,-0.0124881,-0.720821,682.466,154.98)"
     sodipodi:nodetypes="cccccc" />
  <path
     style="font-size:12;fill:url(#linearGradient3674);stroke:#580400;stroke-width:13.4528;stroke-linejoin:round;stroke-opacity:0.992157;"
     d="M 297.636 121.267 C 310.047 128.279 305.97 132.644 329.741 131.586 L 392.148 131.21 L 292.148 31.2105 L 288.422 91.7754 C 289.105 103.139 288.688 109.76 297.636 121.267 z "
     id="path3675"
     transform="matrix(0.0265474,0.673639,-0.673639,0.0265474,113.313,-127.506)"
     sodipodi:nodetypes="cccccc" />
  <path
     style="font-size:12;fill:url(#linearGradient3674);stroke:#580400;stroke-width:13.4528;stroke-linejoin:round;stroke-opacity:0.992157;"
     d="M 297.636 121.267 C 310.047 128.279 305.97 132.644 329.741 131.586 L 392.148 131.21 L 292.148 31.2105 L 288.422 91.7754 C 289.105 103.139 288.688 109.76 297.636 121.267 z "
     id="path3684"
     transform="matrix(-0.0310572,-0.720261,0.720261,-0.0310572,390.088,632.735)"
     sodipodi:nodetypes="cccccc" />
  <path
     style="font-size:12;fill:url(#linearGradient3674);stroke:#580400;stroke-width:13.4528;stroke-linejoin:round;stroke-opacity:0.992157;"
     d="M 297.636 121.267 C 310.047 128.279 305.97 132.644 329.741 131.586 L 392.148 131.21 L 292.148 31.2105 L 288.422 91.7754 C 289.105 103.139 288.688 109.76 297.636 121.267 z "
     id="path3685"
     transform="matrix(0.720566,-0.022879,0.022879,0.720566,-178.71,334.562)"
     sodipodi:nodetypes="cccccc" />
  <path
     style="font-size:12;fill:url(#linearGradient88);fill-rule:evenodd;stroke:#580400;stroke-width:13.3239;stroke-linejoin:round;stroke-opacity:0.992157;"
     d="M 387.834 258.217 L 387.834 465.72 C 387.942 473.804 391.61 479.266 398.84 480.141 C 416.396 480.141 433.952 480.141 451.508 480.141 C 457.956 478.49 462.266 473.561 462.304 467.322 L 463.906 258.217 L 387.834 258.217 z "
     id="path354"
     sodipodi:nodetypes="ccccccc"
     transform="matrix(-0.00597052,-1.00595,1.08742,-0.0110899,-22.0716,718.581)" />
  <path
     style="font-size:12;fill:url(#linearGradient3674);stroke:#cf5d07;stroke-width:13.4528;stroke-linejoin:round;stroke-opacity:0.992157;"
     d="M 268.395 139.153 C 292.007 132.197 303.583 128.318 327.246 122.03 C 347.814 114.575 356.637 112.057 380.086 102.441 L 297.095 26.2175 C 293.862 45.7524 287.819 60.4718 285.566 77.0201 C 278.619 96.6724 274.63 114.985 268.395 139.153 z "
     id="path111"
     transform="matrix(0.492693,0.526301,-0.526301,0.492693,112.75,77.2278)"
     sodipodi:nodetypes="cccccc" />
  <path
     style="font-size:12;fill:#efa81a;fill-rule:evenodd;stroke:none;stroke-width:13.3239;stroke-linejoin:round;stroke-opacity:0.992157;fill-opacity:0.952941;"
     d="M 387.834 258.217 L 387.834 465.72 C 387.942 473.804 391.61 479.266 398.84 480.141 C 416.396 480.141 433.952 480.141 451.508 480.141 C 457.956 478.49 462.266 473.561 462.304 467.322 L 463.906 258.217 L 387.834 258.217 z "
     id="path112"
     sodipodi:nodetypes="ccccccc"
     transform="matrix(-0.0198959,-0.445431,1.03274,-0.00608355,3.83027,490.983)" />
  <path
     style="font-size:12;fill:url(#linearGradient113);fill-rule:evenodd;stroke:none;stroke-width:13.3239;stroke-linejoin:round;stroke-opacity:0.992157;fill-opacity:0.952941;"
     d="M 387.834 258.217 L 387.834 465.72 C 387.942 473.804 391.61 479.266 398.84 480.141 C 416.396 480.141 433.952 480.141 451.508 480.141 C 457.956 478.49 462.266 473.561 462.304 467.322 L 463.906 258.217 L 387.834 258.217 z "
     id="path187"
     sodipodi:nodetypes="ccccccc"
     transform="matrix(-0.0169463,-0.424614,1.03275,0.000900708,2.68943,452.28)" />
</svg>
