<?xml version="1.0" encoding="utf-8"?><!-- Generator: Adobe Illustrator 18.1.1, SVG Export Plug-In . SVG Version: 6.00 Build 0)  --><svg xmlns="http://www.w3.org/2000/svg" xmlns:xlink="http://www.w3.org/1999/xlink" version="1.0" id="Layer_1" x="0px" y="0px" viewBox="0 0 48 48" enable-background="new 0 0 48 48" xml:space="preserve">
<g>
	<path fill="#FF5722" d="M32,15v28H10c-2.2,0-4-1.8-4-4V15H32z"/>
</g>
<g>
	<path fill="#FFCCBC" d="M14,5v34c0,2.2-1.8,4-4,4h29c2.2,0,4-1.8,4-4V5H14z"/>
</g>
<g>
	<rect x="20" y="10" fill="#FF5722" width="18" height="4"/>
	<rect x="20" y="17" fill="#FF5722" width="8" height="2"/>
	<rect x="30" y="17" fill="#FF5722" width="8" height="2"/>
	<rect x="20" y="21" fill="#FF5722" width="8" height="2"/>
	<rect x="30" y="21" fill="#FF5722" width="8" height="2"/>
	<rect x="20" y="25" fill="#FF5722" width="8" height="2"/>
	<rect x="30" y="25" fill="#FF5722" width="8" height="2"/>
	<rect x="20" y="29" fill="#FF5722" width="8" height="2"/>
	<rect x="30" y="29" fill="#FF5722" width="8" height="2"/>
	<rect x="20" y="33" fill="#FF5722" width="8" height="2"/>
	<rect x="30" y="33" fill="#FF5722" width="8" height="2"/>
	<rect x="20" y="37" fill="#FF5722" width="8" height="2"/>
	<rect x="30" y="37" fill="#FF5722" width="8" height="2"/>
</g>
</svg>