<?xml version="1.0" standalone="no"?>
<!DOCTYPE svg PUBLIC "-//W3C//DTD SVG 20010904//EN"
"http://www.w3.org/TR/2001/REC-SVG-20010904/DTD/svg10.dtd"
[
 <!ATTLIST svg
  xmlns:xlink CDATA #FIXED "http://www.w3.org/1999/xlink">
]>
<!-- Created with Sodipodi ("http://www.sodipodi.com/") -->
<svg
   width="128pt"
   height="128pt"
   id="svg1"
   sodipodi:version="0.27"
   sodipodi:docname="/mnt/windows/Themes/Work/Blue-Sphere/kmail-b-2.0.svg"
   sodipodi:docbase="/mnt/windows/Themes/Work/Blue-Sphere/"
   xmlns="http://www.w3.org/2000/svg"
   xmlns:sodipodi="http://sodipodi.sourceforge.net/DTD/sodipodi-0.dtd"
   xmlns:xlink="http://www.w3.org/1999/xlink">
  <defs
     id="defs22">
    <linearGradient
       id="linearGradient180">
      <stop
         offset="0.000000"
         style="stop-color:#fe7e04;stop-opacity:0.992157;"
         id="stop181" />
      <stop
         offset="1.000000"
         style="stop-color:#cf5d07;stop-opacity:0.952941;"
         id="stop182" />
    </linearGradient>
    <linearGradient
       id="linearGradient174">
      <stop
         offset="0.000000"
         style="stop-color:#800000;stop-opacity:0.992157;"
         id="stop175" />
      <stop
         offset="1.000000"
         style="stop-color:#580400;stop-opacity:0.952941;"
         id="stop176" />
    </linearGradient>
    <linearGradient
       id="linearGradient166">
      <stop
         offset="0.000000"
         style="stop-color:#fe7e04;stop-opacity:0.992157;"
         id="stop167" />
      <stop
         offset="1.000000"
         style="stop-color:#efa81a;stop-opacity:0.952941;"
         id="stop168" />
    </linearGradient>
    <linearGradient
       id="linearGradient161">
      <stop
         offset="0.000000"
         style="stop-color:#fbddb2;stop-opacity:0.992157;"
         id="stop162" />
      <stop
         offset="1.000000"
         style="stop-color:#efa81a;stop-opacity:0.952941;"
         id="stop163" />
    </linearGradient>
    <linearGradient
       id="linearGradient124">
      <stop
         offset="0.000000"
         style="stop-color:#6ace34;stop-opacity:0.992157;"
         id="stop125" />
      <stop
         offset="1.000000"
         style="stop-color:#3d7a35;stop-opacity:0.952941;"
         id="stop126" />
    </linearGradient>
    <linearGradient
       id="linearGradient120">
      <stop
         offset="0.000000"
         style="stop-color:#f52755;stop-opacity:0.992157;"
         id="stop121" />
      <stop
         offset="1.000000"
         style="stop-color:#a81837;stop-opacity:0.952941;"
         id="stop122" />
    </linearGradient>
    <linearGradient
       id="linearGradient96">
      <stop
         offset="0.000000"
         style="stop-color:#fbddb2;stop-opacity:0.992157;"
         id="stop97" />
      <stop
         offset="1.000000"
         style="stop-color:#efa81a;stop-opacity:0.952941;"
         id="stop98" />
    </linearGradient>
    <linearGradient
       id="linearGradient1857">
      <stop
         offset="0.000000"
         style="stop-color:#fbddc7;stop-opacity:0.992157;"
         id="stop1858" />
      <stop
         offset="1.000000"
         style="stop-color:#efa81a;stop-opacity:0.952941;"
         id="stop1859" />
    </linearGradient>
    <linearGradient
       id="linearGradient168">
      <stop
         offset="0.000000"
         style="stop-color:#cdffff;stop-opacity:1;"
         id="stop169" />
      <stop
         offset="1.000000"
         style="stop-color:#0c5d7d;stop-opacity:0.905882;"
         id="stop170" />
    </linearGradient>
    <linearGradient
       id="linearGradient90">
      <stop
         offset="0.000000"
         style="stop-color:#cdffff;stop-opacity:1;"
         id="stop91" />
      <stop
         offset="1.000000"
         style="stop-color:#006b97;stop-opacity:0.905882;"
         id="stop92" />
    </linearGradient>
    <linearGradient
       id="linearGradient67">
      <stop
         offset="0.000000"
         style="stop-color:#d7ffff;stop-opacity:0.898039;"
         id="stop70" />
      <stop
         offset="1.000000"
         style="stop-color:#2ea6b9;stop-opacity:0.952941;"
         id="stop69" />
    </linearGradient>
    <linearGradient
       id="linearGradient57">
      <stop
         offset="0.000000"
         style="stop-color:#ffffff;stop-opacity:1;"
         id="stop59" />
      <stop
         offset="1.000000"
         style="stop-color:#797979;stop-opacity:1;"
         id="stop58" />
    </linearGradient>
    <defs
       id="defs4">
      <radialGradient
         id="1"
         cx="869.603027"
         cy="1973.579956"
         r="2106.649902"
         fx="869.603027"
         fy="1973.579956"
         gradientUnits="userSpaceOnUse"
         xlink:href="#linearGradient67" />
    </defs>
    <defs
       id="defs11">
      <linearGradient
         id="2"
         x1="255.848"
         y1="119.147"
         x2="375.686"
         y2="34.1009"
         gradientUnits="userSpaceOnUse">
        <stop
           offset="0"
           style="stop-color:#ffffff"
           id="stop13" />
        <stop
           offset="1"
           style="stop-color:#000000"
           id="stop14" />
      </linearGradient>
    </defs>
    <defs
       id="defs16">
      <linearGradient
         id="3"
         x1="275.053009"
         y1="109.384003"
         x2="356.480988"
         y2="30.864300"
         gradientUnits="userSpaceOnUse"
         xlink:href="#linearGradient57" />
    </defs>
    <radialGradient
       cx="3.03981e-14"
       cy="1.05578e-10"
       r="0.773346"
       fx="3.03981e-14"
       fy="1.05578e-10"
       xlink:href="#linearGradient168"
       id="radialGradient88"
       gradientUnits="objectBoundingBox"
       gradientTransform="matrix(0.945877,0,0,1.05722,0.264368,0.249996)"
       spreadMethod="pad" />
    <linearGradient
       x1="2.69643"
       y1="1.14655"
       x2="3.85147"
       y2="0.623116"
       xlink:href="#linearGradient67"
       id="linearGradient89"
       gradientUnits="objectBoundingBox"
       gradientTransform="translate(-2.65767,-0.201241)"
       spreadMethod="pad" />
    <linearGradient
       xlink:href="#linearGradient96"
       id="linearGradient1856"
       x1="-0.00254383"
       y1="1.31056"
       x2="0.0527348"
       y2="-0.247389"
       gradientUnits="objectBoundingBox"
       gradientTransform="matrix(1.27999,-1.2809,0.380134,0.400852,0.419179,0.455777)"
       spreadMethod="pad" />
    <radialGradient
       xlink:href="#linearGradient1857"
       id="radialGradient1860"
       cx="-5.51513e-06"
       cy="-1.48419e-06"
       fx="-5.51513e-06"
       fy="-1.48419e-06"
       r="0.694199"
       gradientUnits="objectBoundingBox"
       gradientTransform="matrix(1.6481,-1.64928,0.295229,0.311319,0.00343702,0.809113)"
       spreadMethod="pad" />
    <radialGradient
       xlink:href="#linearGradient96"
       id="radialGradient95"
       cx="6.46047e-09"
       cy="5.68149e-08"
       fx="6.46047e-09"
       fy="5.68149e-08"
       r="0.242318"
       gradientUnits="objectBoundingBox"
       gradientTransform="matrix(0.8189,0,0,1.22115,0.417826,0.462637)"
       spreadMethod="pad" />
    <linearGradient
       xlink:href="#linearGradient174"
       id="linearGradient123"
       x1="-0.322236"
       y1="1.13846"
       x2="0.407944"
       y2="-0.762034"
       gradientUnits="objectBoundingBox"
       gradientTransform="matrix(1.27999,-1.2809,0.380134,0.400853,0.419179,0.455782)"
       spreadMethod="pad" />
    <linearGradient
       xlink:href="#linearGradient174"
       id="linearGradient127"
       x1="-0.0666814"
       y1="-0.237794"
       x2="0.0166369"
       y2="0.626524"
       gradientUnits="objectBoundingBox"
       gradientTransform="matrix(1.27999,-1.2809,0.380134,0.400852,0.419181,0.455776)"
       spreadMethod="pad" />
    <linearGradient
       xlink:href="#linearGradient96"
       id="linearGradient544"
       x1="0.896907"
       y1="0.101562"
       x2="0.340206"
       y2="0.726562"
       gradientUnits="objectBoundingBox"
       gradientTransform="translate(-5.25095e-08,7.20831e-09)"
       spreadMethod="pad" />
    <linearGradient
       x1="0.166444"
       y1="0.0822308"
       x2="0.873033"
       y2="0.926285"
       xlink:href="#linearGradient166"
       id="linearGradient164"
       gradientUnits="objectBoundingBox"
       gradientTransform="matrix(1,3.40311e-10,-4.38656e-11,1,2.82128e-08,1.79944e-06)"
       spreadMethod="pad" />
    <linearGradient
       x1="-0.202486"
       y1="-0.0636127"
       x2="0.246654"
       y2="0.11429"
       xlink:href="#linearGradient166"
       id="linearGradient169"
       gradientUnits="objectBoundingBox"
       gradientTransform="matrix(1.27999,-1.2809,0.380134,0.400852,0.419179,0.455777)"
       spreadMethod="pad" />
    <linearGradient
       xlink:href="#linearGradient174"
       id="linearGradient177"
       x1="0.10805"
       y1="0.531418"
       x2="0.856811"
       y2="0.559125"
       gradientUnits="objectBoundingBox"
       gradientTransform="matrix(1,-1.2365e-09,7.58043e-10,1,2.43576e-06,-1.84171e-05)"
       spreadMethod="pad" />
    <linearGradient
       xlink:href="#linearGradient174"
       id="linearGradient178"
       x1="0.0705546"
       y1="0.527287"
       x2="0.887296"
       y2="0.525937"
       gradientUnits="objectBoundingBox"
       gradientTransform="matrix(1,-1.2365e-09,7.58043e-10,1,1.58815e-07,-2.75515e-07)"
       spreadMethod="pad" />
    <linearGradient
       x1="-0.202486"
       y1="-0.0636127"
       x2="0.246654"
       y2="0.11429"
       xlink:href="#linearGradient180"
       id="linearGradient183"
       gradientUnits="objectBoundingBox"
       gradientTransform="matrix(1.27999,-1.2809,0.380134,0.400852,0.419179,0.455777)"
       spreadMethod="pad" />
  </defs>
  <sodipodi:namedview
     id="base">
    <sodipodi:guide
       orientation="vertical"
       position="42.599369"
       id="sodipodi:guide880" />
    <sodipodi:guide
       orientation="vertical"
       position="59.962147"
       id="sodipodi:guide881" />
    <sodipodi:guide
       orientation="vertical"
       position="118.914825"
       id="sodipodi:guide882" />
    <sodipodi:guide
       orientation="vertical"
       position="105.993690"
       id="sodipodi:guide883" />
  </sodipodi:namedview>
  <path
     d="M 56.0174 8.34277 L 56.0762 10.6928 L 63.1402 10.6597 L 63.202 13.344 L 53.389 13.344 L 53.389 0.219 L 62.858 0.219 L 62.8588 2.87024 L 56.017 2.8945 L 56.0164 5.5769 L 62.3584 5.60996 L 62.3591 8.20387 L 56.0174 8.34277 z "
     id="path105"
     style="font-size:12;fill:url(#linearGradient164);stroke:#580400;stroke-width:0.474822;stroke-linejoin:round;stroke-opacity:0.992157;"
     transform="matrix(8.10672,3.32444,-0.0169711,8.3427,-363.466,-176.835)"
     sodipodi:nodetypes="ccccccccccccc" />
  <path
     transform="matrix(0.899798,0.467229,-0.486895,0.863455,-19.8413,-55.9788)"
     style="font-size:12;fill:url(#linearGradient1856);fill-rule:evenodd;stroke:url(#linearGradient123);stroke-width:2.5;stroke-opacity:0.99;"
     d="M 104.281 9.86474 L 97.7126 30.4914 L 179.106 23.9262 L 186.079 1.95255 L 104.281 9.86474 z "
     id="path160"
     sodipodi:nodetypes="ccccc" />
  <path
     transform="matrix(0.652716,0.363253,-0.353196,0.671303,22.8215,56.1046)"
     style="font-size:12;fill:url(#linearGradient169);fill-rule:evenodd;stroke-width:1pt;"
     d="M 103.672 16.4981 L 97.098 30.4626 L 181.087 20.2617 L 186.719 5.9549 L 103.672 16.4981 z "
     id="path171"
     sodipodi:nodetypes="ccccc" />
  <path
     transform="matrix(0.17713,-0.617934,1.28876,0.0592221,93.524,246.925)"
     style="font-size:12;fill:url(#linearGradient169);fill-rule:evenodd;stroke:url(#linearGradient178);stroke-width:2.76126;stroke-linejoin:round;stroke-opacity:0.992157;"
     d="M 142.614 10.3544 L 166.124 20.2844 L 202.63 15.0766 L 176.604 5.78683 L 142.614 10.3544 z "
     id="path170"
     sodipodi:nodetypes="ccccc" />
  <path
     transform="matrix(0.652716,0.363253,-0.353196,0.671303,22.8215,56.1046)"
     style="font-size:12;fill:url(#linearGradient169);fill-rule:evenodd;stroke-width:1pt;"
     d="M 109.589 8.85574 L 97.098 30.4626 L 178.363 19.5153 L 187.21 -1.71164 L 109.589 8.85574 z "
     id="path165"
     sodipodi:nodetypes="ccccc" />
  <path
     transform="matrix(0.17713,-0.609996,1.28876,0.0584613,87.5964,199.874)"
     style="font-size:12;fill:url(#linearGradient169);fill-rule:evenodd;stroke:url(#linearGradient177);stroke-width:2.76126;stroke-linejoin:round;stroke-opacity:0.992157;"
     d="M 138.729 11.28 L 166.88 19.7889 L 201.006 14.9081 L 175.811 5.89589 L 138.729 11.28 z "
     id="path172"
     sodipodi:nodetypes="ccccc" />
  <path
     transform="matrix(0.17713,-0.617934,1.28876,0.0592221,92.0421,157.889)"
     style="font-size:12;fill:url(#linearGradient169);fill-rule:evenodd;stroke:url(#linearGradient127);stroke-width:2.76126;stroke-linejoin:round;stroke-opacity:0.992157;"
     d="M 141.746 9.69032 L 165.256 19.6205 L 203.386 14.5809 L 175.737 5.12279 L 141.746 9.69032 z "
     id="path173"
     sodipodi:nodetypes="ccccc" />
  <path
     transform="matrix(0.17713,-0.617934,1.28876,0.0592221,37.1228,204.44)"
     style="font-size:12;fill:url(#linearGradient183);fill-rule:evenodd;stroke:url(#linearGradient177);stroke-width:2.76126;stroke-linejoin:round;stroke-opacity:0.992157;"
     d="M 149.718 8.9863 L 167.489 17.747 L 173.729 15.5239 L 177.324 4.90466 L 149.718 8.9863 z "
     id="path179"
     sodipodi:nodetypes="ccccc" />
  <path
     transform="matrix(0.17713,-0.617934,1.28876,0.0592221,35.6093,158.732)"
     style="font-size:12;fill:url(#linearGradient183);fill-rule:evenodd;stroke:url(#linearGradient177);stroke-width:2.76126;stroke-linejoin:round;stroke-opacity:0.992157;"
     d="M 143.444 10.6319 L 162.082 20.0566 L 170.629 16.7333 L 177.361 5.29121 L 143.444 10.6319 z "
     id="path184"
     sodipodi:nodetypes="ccccc" />
  <path
     d="M 56.1419 8.35269 L 56.2006 10.6432 L 63.1403 10.7201 L 63.202 13.344 L 53.4512 13.3192 L 53.3886 0.0376517 L 62.858 0.219 L 62.8593 3.10824 L 56.1422 3.20193 L 56.1409 5.58682 L 62.4826 5.49993 L 62.4837 8.27044 L 56.1419 8.35269 z "
     id="path60"
     style="font-size:12;fill:url(#linearGradient544);stroke:#800000;stroke-width:0.301474;stroke-linejoin:round;stroke-opacity:0.99;"
     transform="matrix(8.10672,3.32444,-0.0169711,8.3427,-379.852,-161.816)"
     sodipodi:nodetypes="ccccccccccccc" />
  <g
     id="g202"
     transform="matrix(0.33246,0.397009,-0.397009,0.33246,-10.7081,11.6406)"
     style="stroke:#1c5574;stroke-opacity:0.992157;">
    <path
       style="font-size:12;fill:#ffffff;fill-opacity:0.699301;stroke:#1c5574;stroke-width:16.2714;stroke-opacity:0.992157;"
       d="M 46.837 5.95817 L 336.735 -95.4288 L 399.742 354.326 L 23.9471 535.103 L 46.837 5.95817 z "
       id="path1762"
       transform="matrix(0.225507,-0.228574,0.114973,0.0938511,166.955,100.252)"
       sodipodi:nodetypes="ccccc" />
    <path
       style="font-size:12;fill:url(#linearGradient89);stroke:#1c5574;stroke-width:7.27265;stroke-linecap:round;stroke-linejoin:round;stroke-opacity:0.992157;"
       d="M 264.051 127.954 L 365.132 136.676 L 239.424 -2.83595 L 264.051 127.954 z "
       id="path1764"
       transform="matrix(-0.549013,0.142909,0.100928,-0.512921,365.045,107.897)"
       sodipodi:nodetypes="cccc" />
    <path
       style="font-size:12;fill:url(#linearGradient89);stroke:#1c5574;stroke-width:7.27265;stroke-linecap:round;stroke-linejoin:round;stroke-opacity:0.992157;"
       d="M 232.266 127.09 L 325.833 112.934 L 190.717 22.1282 L 232.266 127.09 z "
       id="path1033"
       transform="matrix(0.549013,-0.142909,-0.100928,0.512921,129.234,30.3525)"
       sodipodi:nodetypes="cccc" />
    <path
       style="font-size:12;fill:url(#linearGradient89);stroke:#1c5574;stroke-width:7.19028;stroke-linecap:round;stroke-linejoin:round;stroke-opacity:0.992157;"
       d="M 233.237 103.983 C 236.318 113.178 239.45 116.62 245.253 122.457 C 251.864 128.454 266.591 134.096 271.475 134.525 L 385.969 128.156 L 390.432 120.119 L 208.874 14.6943 L 206.33 22.9847 L 233.237 103.983 z "
       id="path1035"
       transform="matrix(-0.0243273,0.502974,-0.546947,0.0726354,310.859,-63.0376)"
       sodipodi:nodetypes="cccccccc" />
    <path
       style="font-size:12;fill:url(#linearGradient89);stroke:#1c5574;stroke-width:6.42469;stroke-linecap:round;stroke-linejoin:round;stroke-opacity:0.992157;"
       d="M 256.914 75.1599 C 258.121 88.1451 262.028 94.0251 267.831 99.8621 C 274.442 105.859 280.726 107.453 293.467 107.373 L 367.436 91.7898 L 377.764 89.2383 L 251.01 -1.19107 L 252.634 9.03765 L 256.914 75.1599 z "
       id="path1032"
       transform="matrix(-0.01509,-0.558351,0.612007,-0.0425659,183.012,229.929)"
       sodipodi:nodetypes="cccccccc" />
  </g>
  <g
     id="g884"
     transform="matrix(0.328683,0.196907,-0.196907,0.328683,-35.8109,7.60154)"
     style="stroke:#1c5574;stroke-opacity:0.992157;">
    <path
       style="font-size:12;fill:#ffffff;fill-opacity:0.699301;stroke:#1c5574;stroke-width:16.2714;stroke-opacity:0.992157;"
       d="M 46.837 5.95817 L 336.735 -95.4288 L 399.742 354.326 L 23.9471 535.103 L 46.837 5.95817 z "
       id="path885"
       transform="matrix(0.225507,-0.228574,0.114973,0.0938511,166.955,100.252)"
       sodipodi:nodetypes="ccccc" />
    <path
       style="font-size:12;fill:url(#linearGradient89);stroke:#1c5574;stroke-width:7.27265;stroke-linecap:round;stroke-linejoin:round;stroke-opacity:0.992157;"
       d="M 264.051 127.954 L 365.132 136.676 L 239.424 -2.83595 L 264.051 127.954 z "
       id="path886"
       transform="matrix(-0.549013,0.142909,0.100928,-0.512921,365.045,107.897)"
       sodipodi:nodetypes="cccc" />
    <path
       style="font-size:12;fill:url(#linearGradient89);stroke:#1c5574;stroke-width:7.27265;stroke-linecap:round;stroke-linejoin:round;stroke-opacity:0.992157;"
       d="M 232.266 127.09 L 325.833 112.934 L 190.717 22.1282 L 232.266 127.09 z "
       id="path887"
       transform="matrix(0.549013,-0.142909,-0.100928,0.512921,129.234,30.3525)"
       sodipodi:nodetypes="cccc" />
    <path
       style="font-size:12;fill:url(#linearGradient89);stroke:#1c5574;stroke-width:7.19028;stroke-linecap:round;stroke-linejoin:round;stroke-opacity:0.992157;"
       d="M 233.237 103.983 C 236.318 113.178 239.45 116.62 245.253 122.457 C 251.864 128.454 266.591 134.096 271.475 134.525 L 385.969 128.156 L 390.432 120.119 L 208.874 14.6943 L 206.33 22.9847 L 233.237 103.983 z "
       id="path888"
       transform="matrix(-0.0243273,0.502974,-0.546947,0.0726354,310.859,-63.0376)"
       sodipodi:nodetypes="cccccccc" />
    <path
       style="font-size:12;fill:url(#linearGradient89);stroke:#1c5574;stroke-width:6.42469;stroke-linecap:round;stroke-linejoin:round;stroke-opacity:0.992157;"
       d="M 256.914 75.1599 C 258.121 88.1451 262.028 94.0251 267.831 99.8621 C 274.442 105.859 280.726 107.453 293.467 107.373 L 367.436 91.7898 L 377.764 89.2383 L 251.01 -1.19107 L 252.634 9.03765 L 256.914 75.1599 z "
       id="path889"
       transform="matrix(-0.01509,-0.558351,0.612007,-0.0425659,183.012,229.929)"
       sodipodi:nodetypes="cccccccc" />
  </g>
  <g
     id="g890"
     transform="matrix(0.375506,-0.0761591,0.0761591,0.375506,-69.1343,17.2288)"
     style="stroke:#1c5574;stroke-opacity:0.992157;">
    <path
       style="font-size:12;fill:#ffffff;fill-opacity:0.699301;stroke:#1c5574;stroke-width:16.2714;stroke-opacity:0.992157;"
       d="M 46.837 5.95817 L 336.735 -95.4288 L 399.742 354.326 L 23.9471 535.103 L 46.837 5.95817 z "
       id="path891"
       transform="matrix(0.225507,-0.228574,0.114973,0.0938511,166.955,100.252)"
       sodipodi:nodetypes="ccccc" />
    <path
       style="font-size:12;fill:url(#linearGradient89);stroke:#1c5574;stroke-width:7.27265;stroke-linecap:round;stroke-linejoin:round;stroke-opacity:0.992157;"
       d="M 264.051 127.954 L 365.132 136.676 L 239.424 -2.83595 L 264.051 127.954 z "
       id="path892"
       transform="matrix(-0.549013,0.142909,0.100928,-0.512921,365.045,107.897)"
       sodipodi:nodetypes="cccc" />
    <path
       style="font-size:12;fill:url(#linearGradient89);stroke:#1c5574;stroke-width:7.27265;stroke-linecap:round;stroke-linejoin:round;stroke-opacity:0.992157;"
       d="M 232.266 127.09 L 325.833 112.934 L 190.717 22.1282 L 232.266 127.09 z "
       id="path893"
       transform="matrix(0.549013,-0.142909,-0.100928,0.512921,129.234,30.3525)"
       sodipodi:nodetypes="cccc" />
    <path
       style="font-size:12;fill:url(#linearGradient89);stroke:#1c5574;stroke-width:7.19028;stroke-linecap:round;stroke-linejoin:round;stroke-opacity:0.992157;"
       d="M 233.237 103.983 C 236.318 113.178 239.45 116.62 245.253 122.457 C 251.864 128.454 266.591 134.096 271.475 134.525 L 385.969 128.156 L 390.432 120.119 L 208.874 14.6943 L 206.33 22.9847 L 233.237 103.983 z "
       id="path894"
       transform="matrix(-0.0243273,0.502974,-0.546947,0.0726354,310.859,-63.0376)"
       sodipodi:nodetypes="cccccccc" />
    <path
       style="font-size:12;fill:url(#linearGradient89);stroke:#1c5574;stroke-width:6.42469;stroke-linecap:round;stroke-linejoin:round;stroke-opacity:0.992157;"
       d="M 256.914 75.1599 C 258.121 88.1451 262.028 94.0251 267.831 99.8621 C 274.442 105.859 280.726 107.453 293.467 107.373 L 367.436 91.7898 L 377.764 89.2383 L 251.01 -1.19107 L 252.634 9.03765 L 256.914 75.1599 z "
       id="path895"
       transform="matrix(-0.01509,-0.558351,0.612007,-0.0425659,183.012,229.929)"
       sodipodi:nodetypes="cccccccc" />
  </g>
</svg>
