<?xml version="1.0" encoding="UTF-8" standalone="no"?>
<!-- Created with Inkscape (http://www.inkscape.org/) -->
<svg xmlns:dc="http://purl.org/dc/elements/1.1/" xmlns:cc="http://creativecommons.org/ns#" xmlns:rdf="http://www.w3.org/1999/02/22-rdf-syntax-ns#" xmlns:svg="http://www.w3.org/2000/svg" xmlns="http://www.w3.org/2000/svg" xmlns:sodipodi="http://sodipodi.sourceforge.net/DTD/sodipodi-0.dtd" xmlns:inkscape="http://www.inkscape.org/namespaces/inkscape" width="16px" height="16px" id="svg2385" sodipodi:version="0.32" inkscape:version="0.91 r13725" sodipodi:docname="question_white.svg" inkscape:output_extension="org.inkscape.output.svg.inkscape" version="1.1">
  <defs id="defs2387">
    <inkscape:perspective sodipodi:type="inkscape:persp3d" inkscape:vp_x="0 : 8 : 1" inkscape:vp_y="0 : 1000 : 0" inkscape:vp_z="16 : 8 : 1" inkscape:persp3d-origin="8 : 5.3333333 : 1" id="perspective2393"/>
  </defs>
  <g id="layer1" inkscape:label="Layer 1" inkscape:groupmode="layer">
    <g transform="scale(1.0580531,0.94513218)" style="font-style:normal;font-variant:normal;font-weight:normal;font-stretch:normal;font-size:17.81984138px;line-height:125%;font-family:Webdings;-inkscape-font-specification:Webdings;letter-spacing:0px;word-spacing:0px;fill:#101010;fill-opacity:1;stroke:#000000;stroke-width:0.49999991;stroke-linecap:butt;stroke-linejoin:miter;stroke-miterlimit:4;stroke-dasharray:none;stroke-opacity:1" id="text5489">
      <path d="m 9.5124233,11.220932 -3.1410951,0 0,-0.426354 q 0,-0.71349 0.2871361,-1.2616587 Q 6.9456004,8.9760492 7.8679164,8.123342 L 8.4247865,7.6186785 Q 8.9207488,7.1662216 9.1469773,6.7659713 9.3819068,6.3657209 9.3819068,5.9654706 q 0,-0.6090766 -0.4176525,-0.9484193 -0.4176525,-0.3480438 -1.1659466,-0.3480438 -0.7047887,0 -1.5226916,0.2958372 -0.8179028,0.2871361 -1.7054145,0.8614084 l 0,-2.7321437 Q 5.6230341,2.7286634 6.4931435,2.5546415 7.3632529,2.3806197 8.1724547,2.3806197 q 2.1230673,0 3.2368073,0.8701094 1.11374,0.8614084 1.11374,2.5233174 0,0.8527072 -0.339343,1.5313926 -0.339342,0.6699843 -1.157245,1.4443817 l -0.55687,0.4959624 Q 9.8778692,9.785251 9.6951462,10.115893 9.5124233,10.437833 9.5124233,10.829382 l 0,0.39155 z m -3.1410951,1.287762 3.1410951,0 0,3.097589 -3.1410951,0 0,-3.097589 z" style="stroke-width:0.49999991" id="path5555"/>
    </g>
    <g style="font-style:normal;font-variant:normal;font-weight:normal;font-stretch:normal;font-size:14px;line-height:125%;font-family:Webdings;-inkscape-font-specification:Webdings;letter-spacing:0px;word-spacing:0px;fill:#000000;fill-opacity:1;stroke:none;stroke-width:1px;stroke-linecap:butt;stroke-linejoin:miter;stroke-opacity:1" id="text5531"/>
  </g>
</svg>
