<?xml version="1.0" encoding="utf-8"?>
<!-- Generator: Adobe Illustrator 18.1.1, SVG Export Plug-In . SVG Version: 6.00 Build 0)  -->
<svg xmlns="http://www.w3.org/2000/svg" xmlns:xlink="http://www.w3.org/1999/xlink" version="1.1" id="Layer_1" x="0px" y="0px" viewBox="0 0 650 650" enable-background="new 0 0 650 650" xml:space="preserve">
  <path id="chart" fill="#4A4A4A" d="M574.6,126.3c-16.5,0-29.8,13.4-29.8,29.8c0,9.9,4.8,18.6,12.2,24l-101.3,138  c-4.9-3.6-11-5.7-17.6-5.7c-13.6,0-25.1,9.1-28.7,21.6l-70.9-23.2c0.9-2.9,1.4-5.9,1.4-9.1c0-16.5-13.4-29.8-29.8-29.8  c-16.5,0-29.8,13.4-29.8,29.8c0,10.7,5.6,20.1,14.1,25.3l-49.2,81c-4.3-2.4-9.2-3.7-14.5-3.7c-11,0-20.5,5.9-25.7,14.7l-49.2-32.5  c5.8-5.4,9.4-13.2,9.4-21.7c0-16.5-13.4-29.8-29.8-29.8s-29.8,13.4-29.8,29.8c0,12.5,7.7,23.2,18.6,27.6L45.6,523.7h529V185.9  c16.5,0,29.8-13.4,29.8-29.8S591.1,126.3,574.6,126.3z M438.1,324.4c9.8,0,17.8,8,17.8,17.8c0,9.8-8,17.8-17.8,17.8  s-17.8-8-17.8-17.8C420.3,332.4,428.3,324.4,438.1,324.4z M310.1,283.8c9.8,0,17.8,8,17.8,17.8c0,9.8-8,17.8-17.8,17.8  s-17.8-8-17.8-17.8C292.3,291.8,300.3,283.8,310.1,283.8z M230.7,416.1c9.8,0,17.8,8,17.8,17.8s-8,17.8-17.8,17.8s-17.8-8-17.8-17.8  S220.8,416.1,230.7,416.1z M117.5,364.6c0-9.8,8-17.8,17.8-17.8s17.8,8,17.8,17.8c0,9.8-8,17.8-17.8,17.8S117.5,374.5,117.5,364.6z   M574.6,173.9c-9.8,0-17.8-8-17.8-17.8s8-17.8,17.8-17.8s17.8,8,17.8,17.8S584.4,173.9,574.6,173.9z"/>
</svg>
