<?xml version="1.0" encoding="utf-8"?>
<!-- Generator: Adobe Illustrator 18.1.1, SVG Export Plug-In . SVG Version: 6.00 Build 0)  -->
<svg xmlns="http://www.w3.org/2000/svg" xmlns:xlink="http://www.w3.org/1999/xlink" version="1.1" id="Layer_1" x="0px" y="0px" viewBox="0 0 650 650" enable-background="new 0 0 650 650" xml:space="preserve">
  <polygon fill="#4A4A4A" points="415.3,233.6 415.3,99.2 363.6,99.2 130,99.2 78.3,99.2 78.2,99.2 78.2,150.9 78.3,150.9 78.3,499.1   78.2,499.1 78.2,550.8 78.3,550.8 130,550.8 363.6,550.8 415.3,550.8 415.3,416.4 363.6,416.4 363.6,499.1 130,499.1 130,150.9   363.6,150.9 363.6,233.6 "/>
  <polygon fill="#4A4A4A" points="603.3,325 499,193.2 499,295.3 249.1,295.3 249.1,354.7 499,354.7 499,456.8 "/>
</svg>
