<?xml version="1.0" encoding="utf-8"?>
<!-- Generator: Adobe Illustrator 18.1.1, SVG Export Plug-In . SVG Version: 6.00 Build 0)  -->
<svg xmlns="http://www.w3.org/2000/svg" xmlns:xlink="http://www.w3.org/1999/xlink" version="1.1" id="Layer_1" x="0px" y="0px" viewBox="0 0 650 650" enable-background="new 0 0 650 650" xml:space="preserve">
  <path fill="#4A4A4A" d="M352.7,511.1c-0.7,23-27.7,52.6-27.7,52.6s-28.5-29.1-27.7-52.6c0.5-15.3,12.4-27.7,27.7-27.7  S353.2,495.8,352.7,511.1z M495.9,416.8v66l-126.4-56.1c-1,2.5-2.1,5-3.2,7.5h0.5V458h-15.1c-7.2,8.4-16,14.2-26.7,14.6  c-10.7-0.4-19.6-6.2-26.8-14.6h-15v-23.9h0.4c-1.1-2.5-2.2-5-3.2-7.5l-126.3,56.1v-66l97.2-96.2c-5.8-32.6-8.9-65.5-10.2-98.3  C241,157,263.6,85.7,325,39.8c61.4,45.9,84,117.3,83.9,182.4c-1.3,32.8-4.4,65.8-10.2,98.3L495.9,416.8z M332,206.1c0-3.8-3.1-7-7-7  s-7,3.1-7,7s3.1,7,7,7S332,209.9,332,206.1z M347.3,158c0-12.3-10-22.3-22.3-22.3s-22.3,10-22.3,22.3c0,12.3,10,22.3,22.3,22.3  S347.3,170.3,347.3,158z"/>
</svg>
