<?xml version="1.0" encoding="utf-8"?>
<!-- Generator: Adobe Illustrator 18.1.1, SVG Export Plug-In . SVG Version: 6.00 Build 0)  -->
<svg xmlns="http://www.w3.org/2000/svg" xmlns:xlink="http://www.w3.org/1999/xlink" version="1.1" id="Layer_1" x="0px" y="0px" viewBox="0 0 650 650" enable-background="new 0 0 650 650" xml:space="preserve">
  <g id="greenranger">
	<path fill="#4A4A4A" d="M325,570.5c-65.6,0-127.2-25.5-173.6-71.9C105,452.2,79.5,390.6,79.5,325s25.5-127.2,71.9-173.6   c46.4-46.4,108-71.9,173.6-71.9s127.2,25.5,173.6,71.9c46.4,46.4,71.9,108,71.9,173.6S545,452.2,498.6,498.6   C452.2,545,390.6,570.5,325,570.5z M325,99.5c-60.2,0-116.9,23.5-159.5,66.1S99.5,264.8,99.5,325c0,60.2,23.5,116.9,66.1,159.5   c42.6,42.6,99.2,66.1,159.5,66.1c60.2,0,116.9-23.5,159.5-66.1s66.1-99.2,66.1-159.5c0-60.2-23.5-116.9-66.1-159.5   S385.2,99.5,325,99.5z"/>
	<g>
		<path fill="#4A4A4A" d="M325.1,467.8l-5.8-4.7c-0.3-0.2-27.8-22.6-54.5-47.9c-15.8-15-28.3-28.1-37-38.9    c-12.9-15.9-17.9-27-16.4-35.9l17.9,3l0,0c-0.1,0.5-0.7,12.5,48.5,59.2c18.7,17.7,37.8,33.9,47.1,41.7    c9.1-7.9,27.8-24.5,46.2-42.4c48.2-46.8,49.7-58.8,49.7-60l18.1,0c0,9-6.3,25.5-55.2,73c-26.1,25.4-52.6,47.9-52.9,48.2    L325.1,467.8z"/>
		<path fill="#4A4A4A" d="M473.9,276.2c-9.5-37.1-24.6-63.6-25.2-64.7l-10.2-17.8l-27.3,85.7l-22.4,20L325,139.2l-63.8,160.2    l-22.4-20l-27.3-85.7l-10.2,17.8c-0.6,1.1-15.7,27.6-25.2,64.7c-12.7,49.8-8.9,94.8,11,130.2c31.7,56.3,130.1,100.8,134.3,102.7    l3.7,1.7l3.7-1.7c1-0.5,25.8-11.6,54.7-29.6c39.4-24.6,66.2-49.2,79.6-73C482.9,371.1,486.7,326,473.9,276.2z M375,313.9l-50,78.1    l-50-78.1l50-125.6L375,313.9z M447.2,397.6C421.7,442.9,343,482.3,325,490.8c-18-8.6-96.7-47.9-122.2-93.3    c-31.2-55.5-9.6-123.8,4.6-157l15.7,49.1l34.8,31.1L325,425.5l67.1-104.8l34.8-31.1l15.7-49.1    C456.7,273.7,478.4,342.1,447.2,397.6z"/>
	</g>
</g>
</svg>
