<?xml version="1.0" encoding="utf-8"?>
<!-- Generator: Adobe Illustrator 18.1.1, SVG Export Plug-In . SVG Version: 6.00 Build 0)  -->
<svg xmlns="http://www.w3.org/2000/svg" xmlns:xlink="http://www.w3.org/1999/xlink" version="1.1" id="Layer_1" x="0px" y="0px" viewBox="0 0 650 650" enable-background="new 0 0 650 650" xml:space="preserve">
  <g id="podcast">
	<path fill="#4A4A4A" d="M348.1,324.8c20.2-8.9,34.4-29.1,34.4-52.6c0-31.7-25.7-57.5-57.5-57.5c-31.7,0-57.5,25.7-57.5,57.5   c0,23,13.5,42.8,33,52c-24.9,10.3-49.2,32.3-48.1,45.8l15.9,185.8c1.4,16,13.4,28.3,27.8,28.3h57.8c14.4,0,26.4-12.3,27.8-28.3   l15.8-185C398.7,357.2,371.8,335.4,348.1,324.8z"/>
	<path fill="#4A4A4A" d="M325,125.9c-82.4,0-149.4,67-149.4,149.4c0,42.6,18,81.2,46.7,108.4l10.3-24.3   c-20.2-22.2-32.6-51.7-32.6-84.1c0-68.9,56.1-125,125-125c68.9,0,125,56.1,125,125c0,32.4-12.4,61.9-32.6,84.1l10.3,24.3   c28.7-27.2,46.7-65.8,46.7-108.4C474.4,192.9,407.4,125.9,325,125.9z"/>
	<path fill="#4A4A4A" d="M473,127.2c-39.5-39.5-92.1-61.3-148-61.3c-55.9,0-108.5,21.8-148,61.3c-39.5,39.5-61.3,92.1-61.3,148   s21.8,108.5,61.3,148c6.6,6.6,13.6,12.7,20.9,18.3l9.9-23.3c-4.7-3.8-9.2-7.9-13.5-12.2c-34.9-34.9-54.2-81.4-54.2-130.8   s19.2-95.9,54.2-130.8c34.9-34.9,81.4-54.2,130.8-54.2c49.4,0,95.9,19.2,130.8,54.2S510,225.9,510,275.3s-19.2,95.9-54.2,130.8   c-4.3,4.3-8.8,8.4-13.5,12.2l9.9,23.3c7.3-5.6,14.3-11.7,20.9-18.3c39.5-39.5,61.3-92.1,61.3-148S512.6,166.8,473,127.2z"/>
</g>
</svg>
