<?xml version="1.0" encoding="utf-8"?>
<!-- Generator: Adobe Illustrator 18.1.1, SVG Export Plug-In . SVG Version: 6.00 Build 0)  -->
<svg xmlns="http://www.w3.org/2000/svg" xmlns:xlink="http://www.w3.org/1999/xlink" version="1.1" id="Layer_1" x="0px" y="0px" viewBox="0 0 650 650" enable-background="new 0 0 650 650" xml:space="preserve">
  <path fill="#4A4A4A" d="M325,562.2C194.2,562.2,87.8,455.8,87.8,325S194.2,87.8,325,87.8S562.2,194.2,562.2,325  S455.8,562.2,325,562.2z M325,105.9c-120.8,0-219.1,98.3-219.1,219.1S204.2,544.1,325,544.1S544.1,445.8,544.1,325  S445.8,105.9,325,105.9z M336.1,258.9l183.4,132.5c7.1-20.8,11-43.2,11-66.4c0-63-28.3-119.3-72.9-157L336.1,258.9z M261.4,295.4  l183.4-137.2c-33.7-24.3-75.1-38.6-119.8-38.6c-39.1,0-75.6,10.9-106.7,29.8L261.4,295.4z M397.9,322.7l-70.2,207.7  c83.4-1.1,154.8-51.8,186-124.1L397.9,322.7z M271.7,385l-66.9-226.6c-51.6,37.3-85.2,98-85.2,166.6c0,20.8,3.1,40.8,8.8,59.7  L271.7,385z M355.2,400.7l-221.4-0.6c28.4,72.3,96.7,124.5,177.7,129.8L355.2,400.7z"/>
</svg>
