<?xml version="1.0" encoding="utf-8"?>
<!-- Generator: Adobe Illustrator 18.1.1, SVG Export Plug-In . SVG Version: 6.00 Build 0)  -->
<svg xmlns="http://www.w3.org/2000/svg" xmlns:xlink="http://www.w3.org/1999/xlink" version="1.1" id="Layer_1" x="0px" y="0px" viewBox="0 0 650 650" enable-background="new 0 0 650 650" xml:space="preserve">
  <g>
	<path fill="#4A4A4A" d="M325,493l-47.7-46.8c26.3-26.3,69.1-26.3,95.3,0c0,0,0,0,0,0L325,493z"/>
	<path fill="#4A4A4A" d="M404.5,414.5L404.5,414.5c-43.8-43.8-115.1-43.8-158.9,0l-31.8-31.8c61.3-61.3,161.1-61.3,222.5,0l0,0   L404.5,414.5z"/>
	<path fill="#4A4A4A" d="M468,350.9C468,350.9,468,350.9,468,350.9c-78.9-78.9-207.2-78.9-286,0l-31.8-31.8   c96.4-96.4,253.2-96.4,349.6,0l0,0L468,350.9z"/>
	<path fill="#4A4A4A" d="M531.6,287.3L531.6,287.3c-113.9-113.9-299.3-113.9-413.2,0l-31.8-31.8c131.4-131.4,345.3-131.4,476.7,0   c0,0,0,0,0,0L531.6,287.3z"/>
</g>
</svg>
