<?xml version="1.0" encoding="utf-8"?>
<!-- Generator: Adobe Illustrator 18.1.1, SVG Export Plug-In . SVG Version: 6.00 Build 0)  -->
<svg xmlns="http://www.w3.org/2000/svg" xmlns:xlink="http://www.w3.org/1999/xlink" version="1.1" id="Layer_1" x="0px" y="0px" viewBox="0 0 650 650" enable-background="new 0 0 650 650" xml:space="preserve">
  <circle fill="#4A4A4A" cx="250" cy="358" r="50"/>
  <circle fill="#4A4A4A" cx="375" cy="193.5" r="50"/>
  <circle fill="#4A4A4A" cx="432.5" cy="502" r="50"/>
  <path fill="#4A4A4A" d="M416.4,511.3l-153-113.7c-10.9-8.1-13.2-23.6-5.1-34.5l0,0c8.1-10.9,23.6-13.2,34.5-5.1l153,113.7  c10.9,8.1,13.2,23.6,5.1,34.5l0,0C442.8,517.1,427.4,519.4,416.4,511.3z"/>
  <path fill="#4A4A4A" d="M223.3,349.8l113.7-153c8.1-10.9,23.6-13.2,34.5-5.1l0,0c10.9,8.1,13.2,23.6,5.1,34.5l-113.7,153  c-8.1,10.9-23.6,13.2-34.5,5.1l0,0C217.5,376.2,215.2,360.8,223.3,349.8z"/>
</svg>
