<?xml version="1.0" encoding="utf-8"?>
<!-- Generator: Adobe Illustrator 18.1.1, SVG Export Plug-In . SVG Version: 6.00 Build 0)  -->
<svg xmlns="http://www.w3.org/2000/svg" xmlns:xlink="http://www.w3.org/1999/xlink" version="1.1" id="Layer_1" x="0px" y="0px" viewBox="0 0 650 650" enable-background="new 0 0 650 650" xml:space="preserve">
  <g>
	<path fill="#4A4A4A" d="M349.6,79.5H141v490.9H509V226.3L349.6,79.5z M424.5,179.3l44.2,40.7L356.5,220l0-103.3L424.5,179.3z    M486.3,547.8H163.7V102.2h170.2l0,140.5l152.5-0.1V547.8z"/>
	<rect x="193.5" y="275.4" fill="#4A4A4A" width="263" height="31.1"/>
	<rect x="193.5" y="327.5" fill="#4A4A4A" width="263" height="31.1"/>
	<rect x="193.5" y="379.5" fill="#4A4A4A" width="263" height="31.1"/>
	<rect x="193.5" y="431.6" fill="#4A4A4A" width="263" height="31.1"/>
	<rect x="193.5" y="483.6" fill="#4A4A4A" width="263" height="31.1"/>
	<path fill="#4A4A4A" d="M305,156.1c-7-14.5-19.2-25.5-34.4-30.8c-6.5-2.3-13.2-3.4-20-3.4c-25.6,0-48.4,16.2-56.9,40.3   c-5.3,15.2-4.4,31.6,2.5,46.1c7,14.5,19.2,25.5,34.4,30.8c6.5,2.3,13.2,3.4,20,3.4c25.6,0,48.4-16.2,56.9-40.3   C312.9,187,312,170.6,305,156.1z M228,144.9l16.4,44.5l46.5,9.5c-6.7,16.2-22.6,26.9-40.3,26.9c-4.9,0-9.8-0.8-14.5-2.5   c-11-3.9-19.8-11.8-24.9-22.3c-5-10.5-5.7-22.3-1.8-33.3C212.8,158.2,219.3,150.2,228,144.9z M294.3,182.6l-37.4-7.6l-13.2-35.8   c7.2-1.2,14.5-0.5,21.4,1.9c11,3.9,19.8,11.8,24.9,22.3C292.8,169.4,294.3,176,294.3,182.6z"/>
</g>
</svg>
