<?xml version="1.0" encoding="utf-8"?>
<!-- Generator: Adobe Illustrator 18.1.1, SVG Export Plug-In . SVG Version: 6.00 Build 0)  -->
<svg xmlns="http://www.w3.org/2000/svg" xmlns:xlink="http://www.w3.org/1999/xlink" version="1.1" id="Layer_1" x="0px" y="0px" viewBox="0 0 650 650" enable-background="new 0 0 650 650" xml:space="preserve">
  <g id="camera">
	<g>
		<path fill="#4A4A4A" d="M495.2,230H427l-20-50H243l-20,50h-68.2c-12.9,0-23.3,10.5-23.3,23.3v193.4c0,12.9,10.5,23.3,23.3,23.3    h340.4c12.9,0,23.3-10.5,23.3-23.3V253.3C518.5,240.4,508.1,230,495.2,230z M325,427.9c-38.7,0-70.3-31.5-70.3-70.3    c0-38.7,31.5-70.3,70.3-70.3c38.7,0,70.3,31.5,70.3,70.3C395.3,396.4,363.7,427.9,325,427.9z M424.9,293.1    c-7.5,0-13.5-6-13.5-13.5s6-13.5,13.5-13.5c7.5,0,13.5,6,13.5,13.5S432.3,293.1,424.9,293.1z"/>
		<path fill="#4A4A4A" d="M325,305.4c-28.8,0-52.2,23.4-52.2,52.2c0,28.8,23.4,52.2,52.2,52.2s52.2-23.4,52.2-52.2    C377.2,328.9,353.8,305.4,325,305.4z"/>
	</g>
	<path fill="#4A4A4A" d="M212.9,224.1h-59v-16.8c0-3.3,2.7-6,6-6h47c3.3,0,6,2.7,6,6V224.1z"/>
</g>
</svg>
