<?xml version="1.0" encoding="utf-8"?>
<!-- Generator: Adobe Illustrator 18.1.1, SVG Export Plug-In . SVG Version: 6.00 Build 0)  -->
<svg xmlns="http://www.w3.org/2000/svg" xmlns:xlink="http://www.w3.org/1999/xlink" version="1.1" id="Layer_1" x="0px" y="0px" viewBox="0 0 650 650" enable-background="new 0 0 650 650" xml:space="preserve">
  <path id="unlock" fill="#4A4A4A" d="M456.7,496.1V324.8h-27.8V210.1c0-53.5-43.5-97.1-97.1-97.1h-13.5c-53.5,0-97.1,43.5-97.1,97.1  v68.8h44.6v-68.8c0-28.9,23.5-52.4,52.4-52.4h13.5c28.9,0,52.4,23.5,52.4,52.4v114.7h-48.5h-69.9h-44.6h-27.8v171.3h-11.6V537h286.5  v-40.8H456.7z M334.4,399.9v34.3c0,4.6-3.7,8.3-8.3,8.3H324c-4.6,0-8.3-3.7-8.3-8.3v-34.3c-8.4-3.6-14.2-11.9-14.2-21.6  c0-13,10.5-23.6,23.6-23.6s23.6,10.5,23.6,23.6C348.6,388,342.7,396.3,334.4,399.9z"/>
</svg>
