<?xml version="1.0" encoding="utf-8"?>
<!-- Generator: Adobe Illustrator 18.1.1, SVG Export Plug-In . SVG Version: 6.00 Build 0)  -->
<svg xmlns="http://www.w3.org/2000/svg" xmlns:xlink="http://www.w3.org/1999/xlink" version="1.1" id="Layer_1" x="0px" y="0px" viewBox="0 0 650 650" enable-background="new 0 0 650 650" xml:space="preserve">
  <path id="gear" fill="#4A4A4A" d="M382.1,324.4c0,31.5-25.6,57.1-57.1,57.1s-57.1-25.6-57.1-57.1s25.6-57.1,57.1-57.1  S382.1,292.9,382.1,324.4z M554.4,363.1v-77.4l-69.1-11.7c-3-9.6-6.9-18.8-11.5-27.6l40.6-57.1l-54.7-54.7l-57.2,40.7  c-8.6-4.5-17.7-8.3-27.2-11.2l-11.6-68.5h-77.4l-11.6,68.5c-9.6,3-18.7,6.8-27.5,11.4l-56.9-40.5l-54.7,54.7l40.5,56.9  c-4.6,8.7-8.4,17.9-11.4,27.4l-69.1,11.7v77.4l69.1,11.7c3,9.4,6.7,18.5,11.2,27.1l-40.7,57.2l54.7,54.7l57.1-40.6  c8.7,4.6,17.9,8.4,27.5,11.5l11.8,69.7h77.4l11.8-69.7c9.5-3,18.5-6.8,27.2-11.3l57.4,40.8l54.7-54.7L474,402.1  c4.5-8.7,8.3-17.8,11.3-27.3L554.4,363.1z"/>
</svg>
