<?xml version="1.0" encoding="utf-8"?>
<!-- Generator: Adobe Illustrator 18.1.1, SVG Export Plug-In . SVG Version: 6.00 Build 0)  -->
<svg xmlns="http://www.w3.org/2000/svg" xmlns:xlink="http://www.w3.org/1999/xlink" version="1.1" id="Layer_1" x="0px" y="0px" viewBox="0 0 650 650" enable-background="new 0 0 650 650" xml:space="preserve">
  <g>
	<path fill="#4A4A4A" d="M120,146v78h410v-78H120z M511,185.1c0,5.7-4.7,10.4-10.4,10.4h-75.9c-5.7,0-10.4-4.7-10.4-10.4v0   c0-5.7,4.7-10.4,10.4-10.4h75.9C506.3,174.6,511,179.3,511,185.1L511,185.1z"/>
	<path fill="#4A4A4A" d="M120,239.3v78h410v-78H120z M511,278.4c0,5.7-4.7,10.4-10.4,10.4h-75.9c-5.7,0-10.4-4.7-10.4-10.4v0   c0-5.7,4.7-10.4,10.4-10.4h75.9C506.3,267.9,511,272.6,511,278.4L511,278.4z"/>
	<path fill="#4A4A4A" d="M120,332.7v78h410v-78H120z M511,371.7c0,5.7-4.7,10.4-10.4,10.4h-75.9c-5.7,0-10.4-4.7-10.4-10.4v0   c0-5.7,4.7-10.4,10.4-10.4h75.9C506.3,361.2,511,365.9,511,371.7L511,371.7z"/>
	<path fill="#4A4A4A" d="M120,426v78h410v-78H120z M511,465c0,5.7-4.7,10.4-10.4,10.4h-75.9c-5.7,0-10.4-4.7-10.4-10.4v0   c0-5.7,4.7-10.4,10.4-10.4h75.9C506.3,454.5,511,459.2,511,465L511,465z"/>
</g>
</svg>
