<?xml version="1.0" encoding="utf-8"?>
<!-- Generator: Adobe Illustrator 18.1.1, SVG Export Plug-In . SVG Version: 6.00 Build 0)  -->
<svg xmlns="http://www.w3.org/2000/svg" xmlns:xlink="http://www.w3.org/1999/xlink" version="1.1" id="Layer_1" x="0px" y="0px" viewBox="0 0 650 650" enable-background="new 0 0 650 650" xml:space="preserve">
  <g>
	<path fill="#4A4A4A" d="M462,256.6v234.7c0,7.9-6.7,14.6-14.6,14.6H162.3c-7.9,0-14.6-6.7-14.6-14.6V206.1   c0-7.9,6.7-14.6,14.6-14.6h220.5l43.8-43.8H162.3c-32.2,0-58.4,26.2-58.4,58.4v285.1c0,32.2,26.2,58.4,58.4,58.4h285.1   c32.2,0,58.4-26.2,58.4-58.4V212.8L462,256.6z"/>
	<polygon fill="#4A4A4A" points="529,168.3 294,403.2 237.1,409.3 243.2,352.4 478.2,117.5  "/>
	
		<rect x="504.4" y="96.6" transform="matrix(0.7071 -0.7071 0.7071 0.7071 56.8465 402.2362)" fill="#4A4A4A" width="19.2" height="71.8"/>
</g>
</svg>
