<?xml version="1.0" encoding="utf-8"?>
<!-- Generator: Adobe Illustrator 18.1.1, SVG Export Plug-In . SVG Version: 6.00 Build 0)  -->
<svg xmlns="http://www.w3.org/2000/svg" xmlns:xlink="http://www.w3.org/1999/xlink" version="1.1" id="Layer_1" x="0px" y="0px" viewBox="0 0 650 650" enable-background="new 0 0 650 650" xml:space="preserve">
  <g id="link">
	<g>
		<path fill="#4A4A4A" d="M596.3,175.9L391.2,357.3l-33.7-33.7l20.3-20.3l14.6,14.6l161.9-143.2l-79-79L331.6,257.1l15.2,15.2    l-20.3,20.3l-34.4-34.4L474.1,53.8L596.3,175.9z M175.9,596.2L53.7,474.1l205.1-181.4l33.7,33.7l-20.3,20.3l-14.6-14.6L95.7,475.4    l79,79l143.7-161.4l-15.2-15.2l20.3-20.3l34.4,34.4L175.9,596.2z"/>
	</g>
	
		<rect x="221" y="313.1" transform="matrix(0.7071 -0.7071 0.7071 0.7071 -134.6194 324.998)" fill="#4A4A4A" width="208" height="23.8"/>
</g>
</svg>
