<?xml version="1.0" encoding="utf-8"?>
<!-- Generator: Adobe Illustrator 18.1.1, SVG Export Plug-In . SVG Version: 6.00 Build 0)  -->
<svg xmlns="http://www.w3.org/2000/svg" xmlns:xlink="http://www.w3.org/1999/xlink" version="1.1" id="Layer_1" x="0px" y="0px" viewBox="0 0 650 650" enable-background="new 0 0 650 650" xml:space="preserve">
  <g>
	<polygon fill="#4A4A4A" points="212.6,262.6 144.9,262.6 144.9,387.4 212.6,387.4 291.1,438.3 291.1,211.7  "/>
	<path fill="#4A4A4A" d="M417,466.9l20.8,20.8c89.7-89.7,89.7-235.7,0-325.5L417,183.1C495.2,261.3,495.2,388.7,417,466.9z"/>
	<path fill="#4A4A4A" d="M372.9,422.9l20.8,20.8c65.4-65.4,65.4-171.9,0-237.4l-20.8,20.8C426.9,281.1,426.9,368.9,372.9,422.9z"/>
	<path fill="#4A4A4A" d="M330.5,380.5l20.8,20.8c42.1-42.1,42.1-110.5,0-152.6l-20.8,20.8C361.1,300.1,361.1,349.9,330.5,380.5z"/>
</g>
</svg>
