<?xml version="1.0" encoding="UTF-8" standalone="no"?>
<!-- Created with Sodipodi ("http://www.sodipodi.com/") -->
<svg xmlns:dc="http://purl.org/dc/elements/1.1/" xmlns:cc="http://creativecommons.org/ns#" xmlns:rdf="http://www.w3.org/1999/02/22-rdf-syntax-ns#" xmlns:svg="http://www.w3.org/2000/svg" xmlns="http://www.w3.org/2000/svg" xmlns:sodipodi="http://sodipodi.sourceforge.net/DTD/sodipodi-0.dtd" xmlns:inkscape="http://www.inkscape.org/namespaces/inkscape" xml:space="preserve" width="128pt" height="128pt" viewBox="0 0 507.946 507.946" id="svg49" sodipodi:version="0.27" sodipodi:docname="color_bluesphere_web-spider.svg" version="1.1" inkscape:version="0.91 r13725">
  <defs id="defs62">
    <radialGradient id="aigrd1" cx="218.9404" cy="219.7715" r="150.7063" fx="218.9404" fy="219.7715" gradientUnits="userSpaceOnUse" style="stroke:#000000;stroke-opacity:0.986014;stroke-width:0.981612;">
      <stop offset="0" style="stop-color:#73ffff;stroke:#000000;stroke-opacity:0.986014;stroke-width:0.981612;" id="stop53"/>
      <stop offset="0.2809" style="stop-color:#2EA6B9;stroke:#000000;stroke-opacity:0.986014;stroke-width:0.981612;" id="stop54"/>
      <stop offset="1" style="stop-color:#006b8b;stroke:#000000;stroke-opacity:0.986014;stroke-width:0.981612;" id="stop55"/>
    </radialGradient>
  </defs>
  <path inkscape:connector-curvature="0" d="m 262.80145,247.60055 -105.83255,247.17168 17.51961,7.1187 c 0,0 92.70238,-216.4865 101.20006,-236.3195 17.7722,12.68644 210.34493,150.19391 210.34493,150.19391 l 11.22856,-14.92002 -229.81858,-164.08767 -4.6468,10.8429 z" id="path27" style="font-size:12px;fill:#808080;fill-opacity:0.98999999;stroke:#1c6772;stroke-width:3.04108024;stroke-opacity:0.98823499"/>
  <path sodipodi:nodetypes="ccccccc" inkscape:connector-curvature="0" d="M 228.47417,5.8681369 264.48269,273.2268 504.82224,141.36417 503.43343,121.15041 c 0,0 -202.30003,113.74581 -224.10617,125.2723 C 276.12567,224.14034 246.86467,3.8417261 246.86467,3.8417261 Z" id="path28" style="font-size:12px;fill:#808080;fill-opacity:0.98999999;stroke:#1c6772;stroke-width:2.81577563;stroke-opacity:0.98823499"/>
  <path inkscape:connector-curvature="0" d="M 5.9003071,219.84225 260.69939,265.82838 265.30253,250.94871 10.498428,204.95491 5.9003071,219.84225 Z" id="path29" style="font-size:12px;fill:#808080;fill-opacity:0.98999999;stroke:#1c6772;stroke-width:2.83736539;stroke-opacity:0.98823499"/>
  <path sodipodi:nodetypes="ccccccccccccccccccccccccc" inkscape:connector-curvature="0" d="M 493.3841,127.76384 238.35847,16.683965 20.54743,218.30111 185.57364,470.92644 454.61205,394.07322 440.11731,167.73971 249.07117,101.492 123.43013,242.08762 227.67382,380.2351 l 136.8659,-47.83927 -5.67185,-114.14825 -89.15,-38.27244 -11.93341,23.3969 c 0,0 59.92331,25.50577 73.12653,31.2787 l 5.67185,79.85488 c -13.96792,4.87679 -82.89545,28.99448 -98.44888,34.43622 -10.05324,-13.33161 -69.76238,-92.46414 -79.61218,-105.52301 11.25991,-12.60433 89.07613,-99.69166 99.53628,-111.39984 15.85508,5.30538 138.28237,48.5848 154.09536,53.88368 l 14.49474,189.11796 C 409.25667,379.96885 216.54719,435.02265 198.19458,440.2501 188.10624,424.81451 65.902808,237.74331 55.793431,222.26878 69.670143,209.41769 234.36663,56.971023 245.64058,46.53562 c 15.18862,4.993667 238.0556,102.02887 238.0556,102.02887 z" id="path30" style="font-size:12px;fill:#808080;fill-opacity:0.98999999;stroke:#1c6772;stroke-width:3.35930967;stroke-opacity:0.98823499"/>
</svg>
