<?xml version="1.0" standalone="no"?>
<!DOCTYPE svg PUBLIC "-//W3C//DTD SVG 20010904//EN" "http://www.w3.org/TR/2001/REC-SVG-20010904/DTD/svg10.dtd" [
<!ATTLIST svg xmlns:xlink CDATA #FIXED "http://www.w3.org/1999/xlink">
]>
<!-- Created with Sodipodi ("http://www.sodipodi.com/") -->
<svg xmlns="http://www.w3.org/2000/svg" xmlns:sodipodi="http://sodipodi.sourceforge.net/DTD/sodipodi-0.dtd" xmlns:xlink="http://www.w3.org/1999/xlink" xml:space="preserve" width="128pt" height="128pt" viewBox="0 0 507.946 507.946" id="svg49" sodipodi:version="0.27" sodipodi:docname="/mnt/windows/Themes/Work/Blue-Sphere/next-c-2.0.svg" sodipodi:docbase="/mnt/windows/Themes/Work/Blue-Sphere/">
  <defs id="defs62">
    <radialGradient id="aigrd1" cx="218.9404" cy="219.7715" r="150.7063" fx="218.9404" fy="219.7715" gradientUnits="userSpaceOnUse" style="stroke:#000000;stroke-opacity:0.986014;stroke-width:0.981612;">
      <stop offset="0" style="stop-color:#73ffff;stroke:#000000;stroke-opacity:0.986014;stroke-width:0.981612;" id="stop53"/>
      <stop offset="0.2809" style="stop-color:#2EA6B9;stroke:#000000;stroke-opacity:0.986014;stroke-width:0.981612;" id="stop54"/>
      <stop offset="1" style="stop-color:#006b8b;stroke:#000000;stroke-opacity:0.986014;stroke-width:0.981612;" id="stop55"/>
    </radialGradient>
    <radialGradient xlink:href="#aigrd1" id="radialGradient356" cx="-7.85548e-13" cy="4.07268e-14" fx="-7.85548e-13" fy="4.07268e-14" r="0.591922" gradientUnits="objectBoundingBox" gradientTransform="matrix(0.0298618,-1.07513,0.929404,0.0258143,0.225031,0.575553)" spreadMethod="pad"/>
  </defs>
  <path style="font-size:12;opacity:1.0;fill:url(#radialGradient356);stroke:#1c6772;stroke-width:5.51551;stroke-opacity:0.988235;fill-opacity:0.7;" d="M 305.753 281.376 L 277.899 253.525 L 299.051 232.372 C 300.964 230.459 301.98 227.901 301.98 225.299 C 301.98 224.01 301.731 222.711 301.218 221.474 C 299.67 217.738 296.025 215.301 291.98 215.301 L 215.117 215.301 C 209.594 215.301 205.117 219.778 205.117 225.301 L 205.117 302.168 C 205.117 306.213 207.554 309.859 211.29 311.407 C 215.027 312.955 219.329 312.098 222.188 309.238 L 243.34 288.083 L 271.192 315.937 C 273.067 317.813 275.611 318.867 278.263 318.867 C 280.915 318.867 283.458 317.813 285.334 315.938 L 305.754 295.518 C 307.629 293.642 308.683 291.099 308.683 288.447 C 308.683 285.795 307.629 283.251 305.753 281.376 z " id="path59" transform="matrix(-0.324817,3.44579,-3.45101,0.37623,1246.27,-720.412)" sodipodi:nodetypes="cccccccccccccccccc"/>
</svg>
