<?xml version="1.0" standalone="no"?>
<!DOCTYPE svg PUBLIC "-//W3C//DTD SVG 20010904//EN" "http://www.w3.org/TR/2001/REC-SVG-20010904/DTD/svg10.dtd" [
<!ATTLIST svg xmlns:xlink CDATA #FIXED "http://www.w3.org/1999/xlink">
]>
<!-- Created with Sodipodi ("http://www.sodipodi.com/") -->
<svg xmlns="http://www.w3.org/2000/svg" xmlns:sodipodi="http://sodipodi.sourceforge.net/DTD/sodipodi-0.dtd" xmlns:xlink="http://www.w3.org/1999/xlink" xml:space="preserve" width="128pt" height="128pt" viewBox="0 0 507.946 507.946" id="svg49" sodipodi:version="0.27" sodipodi:docname="/mnt/windows/Themes/Work/Blue-Sphere/viewmag.svg" sodipodi:docbase="/mnt/windows/Themes/Work/Blue-Sphere/">
  <defs id="defs62">
    <radialGradient id="radialGradient351" cx="218.9404" cy="219.7715" r="150.7063" fx="218.9404" fy="219.7715" gradientUnits="userSpaceOnUse" style="stroke:#000000;stroke-opacity:0.986014;stroke-width:0.981612;">
      <stop offset="0.000000" style="stop-color:#fbddb2;stop-opacity:1;" id="stop352"/>
      <stop offset="1.000000" style="stop-color:#efa81a;stop-opacity:1;" id="stop353"/>
    </radialGradient>
    <radialGradient id="radialGradient194" cx="218.9404" cy="219.7715" r="150.7063" fx="218.9404" fy="219.7715" gradientUnits="userSpaceOnUse" style="stroke:#000000;stroke-opacity:0.986014;stroke-width:0.981612;">
      <stop offset="0.000000" style="stop-color:#c7edf7;stop-opacity:1;" id="stop195"/>
      <stop offset="1.000000" style="stop-color:#3e9ea6;stop-opacity:1;" id="stop196"/>
    </radialGradient>
    <radialGradient id="radialGradient189" cx="218.9404" cy="219.7715" r="150.7063" fx="218.9404" fy="219.7715" gradientUnits="userSpaceOnUse" style="stroke:#000000;stroke-opacity:0.986014;stroke-width:0.981612;">
      <stop offset="0.000000" style="stop-color:#3e9ea6;stop-opacity:1;" id="stop190"/>
      <stop offset="1.000000" style="stop-color:#c7edf7;stop-opacity:1;" id="stop191"/>
    </radialGradient>
    <radialGradient id="aigrd1" cx="218.9404" cy="219.7715" r="150.7063" fx="218.9404" fy="219.7715" gradientUnits="userSpaceOnUse" style="stroke:#000000;stroke-opacity:0.986014;stroke-width:0.981612;">
      <stop offset="0" style="stop-color:#73ffff;stroke:#000000;stroke-opacity:0.986014;stroke-width:0.981612;" id="stop53"/>
      <stop offset="0.2809" style="stop-color:#2EA6B9;stroke:#000000;stroke-opacity:0.986014;stroke-width:0.981612;" id="stop54"/>
      <stop offset="1" style="stop-color:#006b8b;stroke:#000000;stroke-opacity:0.986014;stroke-width:0.981612;" id="stop55"/>
    </radialGradient>
    <linearGradient xlink:href="#radialGradient351" id="linearGradient88" x1="0.971959" y1="0.492186" x2="0.0373832" y2="0.507812" gradientUnits="objectBoundingBox" gradientTransform="matrix(0.999999,0,0,1,2.49454e-08,7.55061e-08)" spreadMethod="pad"/>
    <radialGradient xlink:href="#radialGradient351" id="radialGradient89"/>
    <radialGradient cx="1.06812e-14" cy="1.07223e-14" r="0.666083" fx="1.06812e-14" fy="1.07223e-14" xlink:href="#radialGradient194" id="radialGradient193" gradientUnits="objectBoundingBox" gradientTransform="matrix(0.979596,0,0,1.02083,0.337068,0.292637)" spreadMethod="pad"/>
    <radialGradient xlink:href="#radialGradient189" id="radialGradient197" cx="4.04749e-17" cy="3.89647e-17" fx="4.04749e-17" fy="3.89647e-17" r="0.496336" gradientUnits="objectBoundingBox" gradientTransform="matrix(0.974445,0,0,1.02623,0.518471,0.499208)" spreadMethod="pad"/>
  </defs>
  <path style="font-size:12;fill:url(#linearGradient88);fill-rule:evenodd;stroke:#cf5d07;stroke-width:13.3239;stroke-linejoin:round;stroke-opacity:0.992157;" d="M 387.834 258.217 L 387.834 465.72 C 387.942 473.804 391.61 479.266 398.84 480.141 C 416.396 480.141 433.952 480.141 451.508 480.141 C 457.956 478.49 462.266 473.561 462.304 467.322 L 463.906 258.217 L 387.834 258.217 z " id="path354" sodipodi:nodetypes="ccccccc" transform="matrix(0.684536,-0.728979,0.792138,0.743845,-196.964,423.896)"/>
  <g id="g355" transform="translate(-9.61413,-4.80706)">
    <path style="font-size:12;fill:#a4c9ee;fill-opacity:0.7;stroke-width:0.979268;stroke-opacity:0.986014;" d="M134.757,263.776c0,66.739,54.298,121.04,121.039,121.04c66.739,0,121.039-54.301,121.039-121.04c0-66.741-54.3-121.039-121.039-121.039c-66.741,0-121.039,54.298-121.039,121.039z" id="path51" transform="matrix(1.39205,0,0,1.40472,-163.668,-175.513)"/>
    <path style="font-size:12;fill:url(#radialGradient197);fill-rule:evenodd;stroke:#1c6671;stroke-width:7.73106;stroke-opacity:0.988235;fill-opacity:0.99;" d="M356.643,263.366c0,57.027-46.23,103.257-103.256,103.257c-57.027,0-103.256-46.229-103.256-103.257c0-57.027,46.229-103.256,103.256-103.256     c57.025,0,103.256,46.229,103.256,103.256z" id="path56" transform="matrix(1.50179,0,0,1.50179,-187.831,-200.305)"/>
    <path style="font-size:12;fill:url(#radialGradient193);fill-rule:evenodd;stroke:none;stroke-width:7.73106;stroke-opacity:0.988235;" d="M356.643,263.366c0,57.027-46.23,103.257-103.256,103.257c-57.027,0-103.256-46.229-103.256-103.257c0-57.027,46.229-103.256,103.256-103.256     c57.025,0,103.256,46.229,103.256,103.256z" id="path188" transform="matrix(1.29229,0,0,1.29229,-135.548,-144.33)"/>
    <path style="fill:none;fill-rule:evenodd;stroke:black;stroke-opacity:1;stroke-width:1pt;stroke-linejoin:miter;stroke-linecap:butt;fill-opacity:1;" d="M 314.862 103.352 L 316.465 106.557 " id="path200"/>
  </g>
</svg>
