<?xml version="1.0" standalone="no"?>
<!DOCTYPE svg PUBLIC "-//W3C//DTD SVG 20010904//EN"
"http://www.w3.org/TR/2001/REC-SVG-20010904/DTD/svg10.dtd"
[
 <!ATTLIST svg
  xmlns:xlink CDATA #FIXED "http://www.w3.org/1999/xlink">
]>
<!-- Created with Sodipodi ("http://www.sodipodi.com/") -->
<svg
   width="45.1555mm"
   height="45.1555mm"
   id="svg260"
   sodipodi:version="0.27"
   sodipodi:docname="/mnt/windows/Themes/Work/Blue-Sphere/undo.svg"
   sodipodi:docbase="/mnt/windows/Themes/Work/Blue-Sphere/"
   xmlns="http://www.w3.org/2000/svg"
   xmlns:sodipodi="http://sodipodi.sourceforge.net/DTD/sodipodi-0.dtd"
   xmlns:xlink="http://www.w3.org/1999/xlink">
  <sodipodi:namedview
     id="base" />
  <defs
     id="defs261">
    <linearGradient
       id="id0"
       x1="159"
       y1="84"
       x2="7"
       y2="-2">
      <stop
         offset="0.000000"
         style="stop-color:#009240;stop-opacity:1;"
         id="stop255" />
      <stop
         offset="1.000000"
         style="stop-color:#b9db7d;stop-opacity:1;"
         id="stop256" />
    </linearGradient>
    <linearGradient
       x1="1.09451"
       y1="0.929688"
       x2="-0.081446"
       y2="0.046875"
       xlink:href="#id0"
       id="linearGradient268" />
  </defs>
  <path
     transform="matrix(1.18583,0,0,1.22222,0.521393,0.919724)"
     style="fill:url(#linearGradient268);stroke:#037340;stroke-width:4;"
     d="M 44.4256 65 L 62 84 L 14 84 L 14 34 L 28 50 C 29 51 39 40 43 36 C 47 32 64 19 77 19 C 90 19 93.7025 20.1741 102.405 25.2389 C 110.682 30.3037 115.446 35.8704 120 46 C 121.574 53.6519 122 60 121 68 C 117.872 84.6722 110.256 92.6963 100 100 C 94 104 81.6409 108.174 67 109 C 63 109 59 106 62 106 C 65 106 74 105 83 100 C 99.6614 88.8056 105 78.7815 105 67 C 105 61 104.149 55.6518 101 50 C 97 46 92 42 81 42 C 70 42 65.2564 47.4574 58.2564 52.4574 C 52.5333 57.8704 51.2769 59.1741 44.4256 65 z "
     id="path266"
     sodipodi:nodetypes="ccccccccccccccccccc" />
</svg>
