<?xml version="1.0" standalone="no"?>
<!DOCTYPE svg PUBLIC "-//W3C//DTD SVG 20010904//EN" "http://www.w3.org/TR/2001/REC-SVG-20010904/DTD/svg10.dtd" [
<!ATTLIST svg xmlns:xlink CDATA #FIXED "http://www.w3.org/1999/xlink">
]>
<!-- Created with Sodipodi ("http://www.sodipodi.com/") -->
<svg xmlns="http://www.w3.org/2000/svg" xmlns:sodipodi="http://sodipodi.sourceforge.net/DTD/sodipodi-0.dtd" xmlns:xlink="http://www.w3.org/1999/xlink" xml:space="preserve" width="128pt" height="128pt" viewBox="0 0 507.946 507.946" id="svg49" sodipodi:version="0.27" sodipodi:docname="/mnt/windows/Themes/Work/Blue-Sphere/folder_home.svg" sodipodi:docbase="/mnt/windows/Themes/Work/Blue-Sphere/">
  <defs id="defs62">
    <radialGradient id="radialGradient66" cx="218.9404" cy="219.7715" r="150.7063" fx="218.9404" fy="219.7715" gradientUnits="userSpaceOnUse" style="stroke:#000000;stroke-opacity:0.986014;stroke-width:0.981612;">
      <stop offset="0.000000" style="stop-color:#ffffff;stop-opacity:1;" id="stop67"/>
      <stop offset="1.000000" style="stop-color:#7f7f7f;stop-opacity:0.992157;" id="stop68"/>
    </radialGradient>
    <radialGradient id="radialGradient58" cx="218.9404" cy="219.7715" r="150.7063" fx="218.9404" fy="219.7715" gradientUnits="userSpaceOnUse" style="stroke:#000000;stroke-opacity:0.986014;stroke-width:0.981612;">
      <stop offset="0.000000" style="stop-color:#006c8b;stop-opacity:1;" id="stop59"/>
      <stop offset="1.000000" style="stop-color:#bddaff;stop-opacity:1;" id="stop60"/>
    </radialGradient>
    <linearGradient id="Gradient53" gradientUnits="userSpaceOnUse" style="stroke:#000000;stroke-opacity:0.986014;stroke-width:0.981612;">
      <stop offset="0.000000" style="stop-color:#787878;stop-opacity:0.8;" id="stop55"/>
      <stop offset="1.000000" style="stop-color:#ffffff;stop-opacity:0.529412;" id="stop56"/>
    </linearGradient>
    <radialGradient id="aigrd1" cx="218.9404" cy="219.7715" r="150.7063" fx="218.9404" fy="219.7715" gradientUnits="userSpaceOnUse" style="stroke:#000000;stroke-opacity:0.986014;stroke-width:0.981612;">
      <stop offset="0.000000" style="stop-color:#006c8b;stop-opacity:1;" id="stop53"/>
      <stop offset="1.000000" style="stop-color:#bddaff;stop-opacity:1;" id="stop54"/>
    </radialGradient>
    <linearGradient xlink:href="#Gradient53" id="linearGradient17" x1="-0.0270271" y1="0.46875" x2="0.783784" y2="0.476562" gradientUnits="objectBoundingBox" gradientTransform="translate(-2.81087e-08,-2.89016e-08)" spreadMethod="pad"/>
    <radialGradient xlink:href="#aigrd1" id="radialGradient29" cx="5.85956e-34" cy="5.90413e-34" fx="5.85956e-34" fy="5.90413e-34" r="0.928056" gradientUnits="objectBoundingBox" gradientTransform="matrix(0.981788,0,0,1.01855,0.891037,0.918408)" spreadMethod="pad"/>
    <linearGradient xlink:href="#Gradient53" id="linearGradient61" x1="0.235289" y1="0.265619" x2="0.672269" y2="0.59375" gradientUnits="objectBoundingBox" gradientTransform="matrix(1,0,0,1,1.65219e-07,-1.78048e-08)" spreadMethod="pad"/>
    <linearGradient xlink:href="#Gradient53" id="linearGradient62" x1="0.981639" y1="0.0312495" x2="0.146789" y2="0.601562" gradientUnits="objectBoundingBox" gradientTransform="matrix(1,0,0,1,4.98794e-08,3.21379e-08)" spreadMethod="pad"/>
    <linearGradient xlink:href="#Gradient53" id="linearGradient63" x1="0.494118" y1="-2.42762e-07" x2="0.494118" y2="0.359375" gradientUnits="objectBoundingBox" gradientTransform="matrix(1,0,0,1,-2.11485e-08,4.34295e-09)" spreadMethod="pad"/>
    <linearGradient xlink:href="#Gradient53" id="linearGradient64" x1="1.20507" y1="0.523438" x2="0.102482" y2="0.515617" gradientUnits="objectBoundingBox" gradientTransform="matrix(1,0,0,1,8.24213e-05,8.52799e-06)" spreadMethod="pad"/>
    <linearGradient xlink:href="#radialGradient66" id="linearGradient65" x1="0.242009" y1="0.382812" x2="0.497717" y2="0.507812" gradientUnits="objectBoundingBox" gradientTransform="translate(-1.84284e-09,-1.57671e-09)" spreadMethod="pad"/>
  </defs>
  <path style="font-size:12;fill:url(#radialGradient280);stroke:#1c6671;stroke-width:10.9208;stroke-opacity:0.992157;stroke-linejoin:round;stroke-linecap:round;" d="M -36.067 269.069 L 449.267 273.434 L 430.545 310.731 L -57.8558 307.694 L -36.067 269.069 z " id="path279" transform="matrix(0.827006,0.228079,-0.235141,0.837892,178.228,100.832)" sodipodi:nodetypes="ccccc"/>
  <path style="font-size:12;fill:url(#linearGradient215);fill-opacity:0.701961;stroke:#1c6671;stroke-width:9.25243;stroke-linecap:round;stroke-linejoin:round;stroke-opacity:0.99;" d="M -49.21 243.091 C -46.9287 238.079 -38.9781 233.065 -32.1615 233.824 L 173.669 267.357 C 189.611 256.808 212.948 243.966 237.003 247.181 L 271.976 250.84 L 316.171 257.383 C 341.971 263.24 362.36 275.405 364.498 299.613 L 364.227 591.258 L -50.8332 491.502 L -49.21 243.091 z " id="path10" transform="matrix(0.974037,0,0,1.14826,132.278,-247.642)" sodipodi:nodetypes="cccccccccc"/>
  <path style="font-size:12;fill:#ffffff;fill-opacity:0.699301;stroke:#1c6671;stroke-width:9.25243;stroke-linecap:round;stroke-linejoin:round;stroke-opacity:0.992157;" d="M -49.21 251.696 C -50.4531 239.201 -40.2031 227.28 -26.5727 228.549 L 168.873 263.916 L 168.286 299.924 L 253.046 316.79 L 253.93 278.879 L 343.038 291.687 C 354.248 294.903 361.401 301.559 364.498 316.818 L 364.227 591.258 L -50.8332 491.502 L -49.21 251.696 z " id="path208" transform="matrix(0.974037,0,0,1.14826,106.596,-218.009)" sodipodi:nodetypes="ccccccccccc"/>
  <path style="font-size:12;fill:url(#linearGradient238);fill-opacity:0.699301;stroke-width:8.96855;" d="M -27.5759 232.64 L 161.416 266.223 L 162.857 303.665 L 255.075 321.926 L 257.994 284.305 L 339.658 295.159 C 350.192 300.105 358.021 305.051 359.09 316.919 L 359.479 402.175 L -45.8976 311.058 L -45.4017 248.362 C -45.92 242.481 -36.0719 234.675 -27.5759 232.64 z " id="path209" transform="matrix(0.969882,-0.0124783,0.0145635,1.14143,102.707,-215.419)" sodipodi:nodetypes="ccccccccccc"/>
  <path style="font-size:12;fill:url(#linearGradient231);fill-opacity:0.699301;stroke-width:8.96855;" d="M -56.9574 281.878 L 366.63 415.997 L 366.463 552.702 L -52.8614 415.802 L -56.9574 281.878 z " id="path230" transform="matrix(0.926706,0,0,0.797788,117.921,14.0454)" sodipodi:nodetypes="ccccc"/>
  <path style="font-size:12;fill:url(#radialGradient88);stroke:#0c5d7d;stroke-width:4.03585;stroke-opacity:0.99;" d="M -42.4604 274.763 L 433.35 273.812 L 434.557 303.708 L -42.4604 305.48 L -42.4604 274.763 z " id="path9" transform="matrix(0.827006,0.228079,-0.235141,0.837892,163.319,19.6598)" sodipodi:nodetypes="ccccc"/>
  <path style="font-size:12;fill:url(#linearGradient290);fill-opacity:0.699301;stroke-width:8.96855;" d="M -65.8789 283.954 L -30.3752 278.951 L -35.0029 644.067 L -70.7043 660.824 L -65.8789 283.954 z " id="path281" transform="matrix(0.371369,0,0,0.797788,493.811,-83.6924)" sodipodi:nodetypes="ccccc"/>
  <path style="font-size:12;fill:url(#linearGradient89);fill-opacity:0.866667;stroke-width:8.96855;" d="M -54.9317 113.669 L 347.321 224.163 L 346.804 333.491 L -55.046 228.132 L -54.9317 113.669 z " id="path313" transform="matrix(-0.98219,0.000824659,-0.000774374,-0.944101,402.867,454.258)" sodipodi:nodetypes="ccccc"/>
  <g id="g961" transform="matrix(0.542012,0,0,0.542012,63.5185,202.654)">
    <rect style="font-size:12;fill:#1e6773;fill-opacity:0.992157;fill-rule:evenodd;stroke:#154850;stroke-width:12.8001;stroke-opacity:0.988235;" id="rect14" x="126.604008" y="52.040339" width="46.516434" height="120.598160" rx="0.000000" ry="0.000000"/>
    <path style="fill:none;fill-rule:evenodd;stroke:#154850;stroke-opacity:0.988235;stroke-width:11.905;stroke-linejoin:round;stroke-linecap:butt;fill-opacity:1;" d="M 111.364 481.507 C 382.161 479.905 383.764 481.507 383.764 481.507 L 382.161 253.973 L 247.564 120.978 L 112.966 257.178 C 111.363 258.78 112.966 479.905 111.364 481.507 z " id="path15" sodipodi:nodetypes="cccccc" transform="matrix(1.07519,0,0,1.07519,-12.0839,-29.7941)"/>
    <path style="fill:url(#linearGradient17);fill-rule:evenodd;stroke:none;stroke-opacity:0.99;stroke-width:1pt;stroke-linejoin:miter;stroke-linecap:butt;fill-opacity:1;" d="M 117.773 475.097 C 177.06 475.097 177.06 473.495 177.06 473.495 C 177.06 473.495 177.06 302.044 177.06 302.044 C 177.06 302.044 119.375 258.78 119.375 258.78 C 116.17 260.382 117.773 476.7 117.773 475.097 z " id="path48" sodipodi:nodetypes="ccccc" transform="matrix(1.07519,0,0,1.07519,-12.0839,-29.7941)"/>
    <path style="fill:url(#linearGradient61);fill-rule:evenodd;stroke:none;stroke-opacity:0.99;stroke-width:1pt;stroke-linejoin:miter;stroke-linecap:butt;fill-opacity:1;" d="M 117.773 258.78 L 242.756 132.194 L 271.6 217.118 L 177.06 302.044 L 117.773 258.78 z " id="path49" sodipodi:nodetypes="ccccc" transform="matrix(1.07519,0,0,1.07519,-12.0839,-29.7941)"/>
    <path style="fill:url(#linearGradient62);fill-rule:evenodd;stroke:none;stroke-opacity:0.99;stroke-width:1pt;stroke-linejoin:miter;stroke-linecap:butt;fill-opacity:1;" d="M 229.938 205.902 L 252.371 130.592 L 375.752 255.575 L 316.464 306.85 L 229.938 205.902 z " id="path51" sodipodi:nodetypes="ccccc" transform="matrix(1.07519,0,0,1.07519,-12.0839,-29.7941)"/>
    <path style="fill:url(#linearGradient64);fill-rule:evenodd;stroke:none;stroke-opacity:0.99;stroke-width:1pt;stroke-linejoin:miter;stroke-linecap:butt;fill-opacity:1;" d="M 314.862 475.098 L 313.26 302.044 L 377.354 253.973 L 378.957 475.098 L 314.862 475.098 z " id="path52" sodipodi:nodetypes="ccccc" transform="matrix(1.07519,0,0,1.07519,-12.0839,-29.7941)"/>
    <path style="fill:url(#radialGradient29);fill-rule:evenodd;stroke:#1c6671;stroke-opacity:0.988235;stroke-width:11.905;stroke-linejoin:round;stroke-linecap:butt;fill-opacity:1;" d="M 177.06 486.314 L 175.458 332.488 C 175.458 295.634 195.487 269.997 237.949 269.997 C 282.014 269.997 303.646 300.441 303.646 332.488 L 303.646 486.314 C 303.646 486.314 177.06 484.712 177.06 486.314 z " id="path13" sodipodi:nodetypes="cczccc" transform="matrix(1.07519,0,0,1.07519,-5.19257,-47.0224)"/>
    <path style="fill:url(#linearGradient65);fill-rule:evenodd;stroke:#154850;stroke-opacity:0.988235;stroke-width:11.905;stroke-linejoin:miter;stroke-linecap:butt;fill-opacity:1;" d="M 63.293 303.646 C 213.914 159.434 213.914 159.434 213.914 159.434 C 213.914 159.434 282.815 157.832 284.417 157.832 C 286.02 157.832 423.822 295.634 423.822 295.634 C 423.822 295.634 455.87 261.985 455.87 261.985 C 455.87 261.985 249.166 55.2812 249.166 55.2812 C 249.166 55.2812 32.8482 269.997 32.8482 269.997 C 32.8482 269.997 63.293 303.646 63.293 303.646 z " id="path16" sodipodi:nodetypes="cccccccc" transform="matrix(1.07519,0,0,1.07519,-12.0839,-29.7941)"/>
  </g>
</svg>
