<?xml version="1.0" encoding="UTF-8" standalone="no"?>
<!-- Created with Sodipodi ("http://www.sodipodi.com/") -->
<svg xmlns:dc="http://purl.org/dc/elements/1.1/" xmlns:cc="http://creativecommons.org/ns#" xmlns:rdf="http://www.w3.org/1999/02/22-rdf-syntax-ns#" xmlns:svg="http://www.w3.org/2000/svg" xmlns="http://www.w3.org/2000/svg" xmlns:xlink="http://www.w3.org/1999/xlink" xmlns:sodipodi="http://sodipodi.sourceforge.net/DTD/sodipodi-0.dtd" xmlns:inkscape="http://www.inkscape.org/namespaces/inkscape" xml:space="preserve" width="128pt" height="128pt" viewBox="0 0 507.946 507.946" id="svg49" sodipodi:version="0.27" sodipodi:docname="color_bluesphere_clock.svg" version="1.1" inkscape:version="0.91 r13725">
  <defs id="defs62">
    <radialGradient id="radialGradient93" cx="218.9404" cy="219.7715" r="150.7063" fx="218.9404" fy="219.7715" gradientUnits="userSpaceOnUse" style="stroke:#000000;stroke-opacity:0.986014;stroke-width:0.981612;">
      <stop offset="0.000000" style="stop-color:#25a6ca;stop-opacity:1;" id="stop94"/>
      <stop offset="1.000000" style="stop-color:#2ea6b9;stop-opacity:0.843137;" id="stop95"/>
    </radialGradient>
    <radialGradient id="aigrd1" cx="218.9404" cy="219.7715" r="150.7063" fx="218.9404" fy="219.7715" gradientUnits="userSpaceOnUse" style="stroke:#000000;stroke-opacity:0.986014;stroke-width:0.981612;">
      <stop offset="0" style="stop-color:#73ffff;stroke:#000000;stroke-opacity:0.986014;stroke-width:0.981612;" id="stop53"/>
      <stop offset="0.2809" style="stop-color:#2EA6B9;stroke:#000000;stroke-opacity:0.986014;stroke-width:0.981612;" id="stop54"/>
      <stop offset="1" style="stop-color:#006b8b;stroke:#000000;stroke-opacity:0.986014;stroke-width:0.981612;" id="stop55"/>
    </radialGradient>
    <linearGradient xlink:href="#aigrd1" id="linearGradient91" x1="-0.295723" y1="-0.264591" x2="0.622574" y2="0.365762" gradientUnits="objectBoundingBox" gradientTransform="matrix(0.996114,0,0,1.0039,0.496124,0.492186)" spreadMethod="pad"/>
    <radialGradient xlink:href="#aigrd1" id="radialGradient92" cx="-8.09344e-05" cy="-7.68867e-05" fx="-8.09344e-05" fy="-7.68867e-05" r="0.789127" gradientUnits="objectBoundingBox" gradientTransform="matrix(1.06784,0,0,0.936469,0.342219,0.344712)" spreadMethod="pad"/>
  </defs>
  <g id="g4306" transform="matrix(1.4967092,0,0,1.4215566,-131.98715,-114.52494)">
    <path transform="matrix(1.35234,0,0,1.36465,-87.8126,-102.493)" id="path89" d="m 134.757,263.776 c 0,66.739 54.298,121.04 121.039,121.04 66.739,0 121.039,-54.301 121.039,-121.04 0,-66.741 -54.3,-121.039 -121.039,-121.039 -66.741,0 -121.039,54.298 -121.039,121.039 z" style="font-size:12px;fill:#71ace8;fill-opacity:1;stroke:#1c6671;stroke-width:2.9893415;stroke-opacity:0.98823499" inkscape:connector-curvature="0"/>
    <path transform="matrix(1.4332,0,0,1.4332,-105.558,-118.964)" id="path90" d="m 356.643,263.366 c 0,57.027 -46.23,103.257 -103.256,103.257 -57.027,0 -103.256,-46.229 -103.256,-103.257 0,-57.027 46.229,-103.256 103.256,-103.256 57.025,0 103.256,46.229 103.256,103.256 z" style="font-size:12px;fill:none;fill-rule:evenodd;stroke:#bbffff;stroke-width:10.60776043;stroke-opacity:0.98823499" inkscape:connector-curvature="0"/>
    <path sodipodi:nodetypes="czcczcc" transform="matrix(0.868688,-0.667103,0.891722,0.649868,-193.915,190.77)" id="path44" d="m 296.974,234.395 c 2.432,-2.419 1.823,-11.12 -2.631,-16.343 -3.948,-4.704 -14.943,-5.275 -17.497,-1.668 l -73.864,72.686 c -5.152,6.028 -0.083,14.193 3.756,17.664 4.345,3.991 11.553,6.376 15.45,2.504 0,0 71.152,-71.303 74.786,-74.843 z" style="font-size:12px;opacity:1;fill:#ffffff;stroke:#1c6772;stroke-width:2.65294814;stroke-opacity:0.98823499" inkscape:connector-curvature="0"/>
    <path sodipodi:nodetypes="czcczcc" transform="matrix(0.0690061,-1.09311,1.07606,-0.244116,8.37925,641.138)" id="path98" d="m 296.974,234.395 c 2.432,-2.419 1.823,-11.12 -2.631,-16.343 -3.948,-4.704 -14.943,-5.275 -17.497,-1.668 l -73.864,72.686 c -5.152,6.028 -0.083,14.193 3.756,17.664 4.345,3.991 11.553,6.376 15.45,2.504 0,0 71.152,-71.303 74.786,-74.843 z" style="font-size:12px;opacity:1;fill:#ffffff;stroke:#1c6772;stroke-width:2.65293431;stroke-opacity:0.98823499" inkscape:connector-curvature="0"/>
    <path sodipodi:nodetypes="czcczcc" transform="matrix(0.711046,-0.176684,0.7299,0.172119,-213.001,259.553)" id="path99" d="m 296.974,234.395 c 2.432,-2.419 1.823,-11.12 -2.631,-16.343 -3.948,-4.704 -14.943,-5.275 -17.497,-1.668 l -73.864,72.686 c -5.152,6.028 -0.083,14.193 3.756,17.664 4.345,3.991 11.553,6.376 15.45,2.504 0,0 71.152,-71.303 74.786,-74.843 z" style="font-size:12px;opacity:0.7;fill:#ffffff;stroke:#1c6772;stroke-width:6.51181364;stroke-opacity:0.98823499" inkscape:connector-curvature="0"/>
    <path sodipodi:nodetypes="czcczcc" transform="matrix(0.711046,-0.176684,0.7299,0.172119,-113.655,365.308)" id="path100" d="m 296.974,234.395 c 2.432,-2.419 1.823,-11.12 -2.631,-16.343 -3.948,-4.704 -14.943,-5.275 -17.497,-1.668 l -73.864,72.686 c -5.152,6.028 -0.083,14.193 3.756,17.664 4.345,3.991 11.553,6.376 15.45,2.504 0,0 71.152,-71.303 74.786,-74.843 z" style="font-size:12px;opacity:0.7;fill:#ffffff;stroke:#1c6772;stroke-width:6.51181364;stroke-opacity:0.98823499" inkscape:connector-curvature="0"/>
    <path sodipodi:nodetypes="czcczcc" transform="matrix(0.711046,-0.176684,0.7299,0.172119,-4.69506,257.951)" id="path101" d="m 296.974,234.395 c 2.432,-2.419 1.823,-11.12 -2.631,-16.343 -3.948,-4.704 -14.943,-5.275 -17.497,-1.668 l -73.864,72.686 c -5.152,6.028 -0.083,14.193 3.756,17.664 4.345,3.991 11.553,6.376 15.45,2.504 0,0 71.152,-71.303 74.786,-74.843 z" style="font-size:12px;opacity:0.7;fill:#ffffff;stroke:#1c6772;stroke-width:6.51181364;stroke-opacity:0.98823499" inkscape:connector-curvature="0"/>
  </g>
  <circle style="color:#000000;display:inline;overflow:visible;visibility:visible;opacity:1;fill:#f9f9f9;fill-opacity:1;fill-rule:nonzero;stroke:#000000;stroke-width:3.17466259;stroke-linecap:round;stroke-linejoin:bevel;stroke-miterlimit:4;stroke-dasharray:none;stroke-dashoffset:0;stroke-opacity:1;marker:none;enable-background:accumulate" id="path4317" cx="254.3293" cy="251.48267" r="26.437141"/>
</svg>
