<?xml version="1.0" standalone="no"?>
<!DOCTYPE svg PUBLIC "-//W3C//DTD SVG 20010904//EN" "http://www.w3.org/TR/2001/REC-SVG-20010904/DTD/svg10.dtd" [
<!ATTLIST svg xmlns:xlink CDATA #FIXED "http://www.w3.org/1999/xlink">
]>
<!-- Created with Sodipodi ("http://www.sodipodi.com/") -->
<svg xmlns="http://www.w3.org/2000/svg" xmlns:sodipodi="http://sodipodi.sourceforge.net/DTD/sodipodi-0.dtd" xmlns:xlink="http://www.w3.org/1999/xlink" width="128pt" height="128pt" id="svg1" sodipodi:version="0.27" sodipodi:docname="/mnt/windows/themes/Work/Blue-Sphere/editcut.svg" sodipodi:docbase="/mnt/windows/themes/Work/Blue-Sphere/">
  <defs id="defs22">
    <linearGradient id="linearGradient124">
      <stop offset="0.000000" style="stop-color:#6ace34;stop-opacity:0.992157;" id="stop125"/>
      <stop offset="1.000000" style="stop-color:#3d7a35;stop-opacity:0.952941;" id="stop126"/>
    </linearGradient>
    <linearGradient id="linearGradient120">
      <stop offset="0.000000" style="stop-color:#f52755;stop-opacity:0.992157;" id="stop121"/>
      <stop offset="1.000000" style="stop-color:#a81837;stop-opacity:0.952941;" id="stop122"/>
    </linearGradient>
    <linearGradient id="linearGradient96">
      <stop offset="0.000000" style="stop-color:#fbddb2;stop-opacity:0.992157;" id="stop97"/>
      <stop offset="1.000000" style="stop-color:#efa81a;stop-opacity:0.952941;" id="stop98"/>
    </linearGradient>
    <linearGradient id="linearGradient1857">
      <stop offset="0.000000" style="stop-color:#fbddc7;stop-opacity:0.992157;" id="stop1858"/>
      <stop offset="1.000000" style="stop-color:#efa81a;stop-opacity:0.952941;" id="stop1859"/>
    </linearGradient>
    <linearGradient id="linearGradient168">
      <stop offset="0.000000" style="stop-color:#cdffff;stop-opacity:1;" id="stop169"/>
      <stop offset="1.000000" style="stop-color:#0c5d7d;stop-opacity:0.905882;" id="stop170"/>
    </linearGradient>
    <linearGradient id="linearGradient90">
      <stop offset="0.000000" style="stop-color:#cdffff;stop-opacity:1;" id="stop91"/>
      <stop offset="1.000000" style="stop-color:#006b97;stop-opacity:0.905882;" id="stop92"/>
    </linearGradient>
    <linearGradient id="linearGradient67">
      <stop offset="0.000000" style="stop-color:#d7ffff;stop-opacity:0.898039;" id="stop70"/>
      <stop offset="1.000000" style="stop-color:#2ea6b9;stop-opacity:0.952941;" id="stop69"/>
    </linearGradient>
    <linearGradient id="linearGradient57">
      <stop offset="0.000000" style="stop-color:#ffffff;stop-opacity:1;" id="stop59"/>
      <stop offset="1.000000" style="stop-color:#797979;stop-opacity:1;" id="stop58"/>
    </linearGradient>
    <defs id="defs4">
      <radialGradient id="1" cx="869.603027" cy="1973.579956" r="2106.649902" fx="869.603027" fy="1973.579956" gradientUnits="userSpaceOnUse" xlink:href="#linearGradient67"/>
    </defs>
    <defs id="defs11">
      <linearGradient id="2" x1="255.848" y1="119.147" x2="375.686" y2="34.1009" gradientUnits="userSpaceOnUse">
        <stop offset="0" style="stop-color:#ffffff" id="stop13"/>
        <stop offset="1" style="stop-color:#000000" id="stop14"/>
      </linearGradient>
    </defs>
    <defs id="defs16">
      <linearGradient id="3" x1="275.053009" y1="109.384003" x2="356.480988" y2="30.864300" gradientUnits="userSpaceOnUse" xlink:href="#linearGradient57"/>
    </defs>
    <radialGradient cx="3.03981e-14" cy="1.05578e-10" r="0.773346" fx="3.03981e-14" fy="1.05578e-10" xlink:href="#linearGradient168" id="radialGradient88" gradientUnits="objectBoundingBox" gradientTransform="matrix(0.945877,0,0,1.05722,0.264368,0.249996)" spreadMethod="pad"/>
    <linearGradient x1="2.69643" y1="1.14655" x2="3.85147" y2="0.623116" xlink:href="#linearGradient67" id="linearGradient89" gradientUnits="objectBoundingBox" gradientTransform="translate(-2.65767,-0.201241)" spreadMethod="pad"/>
    <linearGradient xlink:href="#linearGradient96" id="linearGradient1856" x1="-0.01654" y1="-0.546712" x2="0.0148676" y2="0.138341" gradientUnits="objectBoundingBox" gradientTransform="matrix(1.27999,-1.2809,0.380134,0.400852,0.419179,0.455777)" spreadMethod="pad"/>
    <radialGradient xlink:href="#linearGradient1857" id="radialGradient1860" cx="-5.51513e-06" cy="-1.48419e-06" fx="-5.51513e-06" fy="-1.48419e-06" r="0.694199" gradientUnits="objectBoundingBox" gradientTransform="matrix(1.6481,-1.64928,0.295229,0.311319,0.00343702,0.809113)" spreadMethod="pad"/>
    <radialGradient xlink:href="#linearGradient96" id="radialGradient95" cx="6.46047e-09" cy="5.68149e-08" fx="6.46047e-09" fy="5.68149e-08" r="0.242318" gradientUnits="objectBoundingBox" gradientTransform="matrix(0.8189,0,0,1.22115,0.417826,0.462637)" spreadMethod="pad"/>
    <linearGradient x1="0.0853642" y1="-0.512065" x2="-0.0971978" y2="0.704975" xlink:href="#linearGradient57" id="linearGradient123" gradientUnits="objectBoundingBox" gradientTransform="matrix(1.27999,-1.2809,0.380134,0.400852,0.41919,0.455775)" spreadMethod="pad"/>
    <linearGradient xlink:href="#linearGradient124" id="linearGradient127" y2="0.138341" x2="0.0148676" y1="-0.546712" x1="-0.01654" spreadMethod="pad" gradientTransform="matrix(1.27999,-1.2809,0.380134,0.400852,0.419179,0.455777)" gradientUnits="objectBoundingBox"/>
    <linearGradient x1="-0.016540" y1="-0.546712" x2="0.014868" y2="0.138341" xlink:href="#linearGradient124" id="linearGradient470"/>
  </defs>
  <g id="g504" transform="matrix(0.974243,-0.0887009,-0.0887009,-0.974243,9.63647,167.097)">
    <path transform="matrix(0.721719,0.0661415,-0.0681712,0.743868,71.5019,34.1323)" style="font-size:12;fill:url(#linearGradient123);stroke:#0a0a05;stroke-width:4;stroke-linejoin:round;stroke-opacity:0.992157;" d="M 44.43 62.2898 C 37.1854 68.5353 27.1814 78.5602 19.9369 84.8057 C 17.0367 82.316 14.1366 79.8262 11.2364 77.3365 C 12.4845 72.0907 11.0295 68.6983 13.0142 60.9025 C 24.0729 49.2556 36.4523 42.3082 54.9566 29.877 C 65.8336 22.998 92.9065 4.89576 112.14 -5.04536 C 116.66 -5.54386 122.265 -4.26715 117.093 0.778737 C 102.902 11.7117 58.2551 50.8894 44.43 62.2898 z " id="path505" sodipodi:nodetypes="cccccccc"/>
    <path transform="matrix(-0.635419,0.0100957,-0.0104055,-0.65492,77.7293,150.658)" style="font-size:12;fill:url(#linearGradient1856);stroke:#580400;stroke-width:4;stroke-linejoin:round;stroke-opacity:0.992157;" d="M 88.2517 60.9959 C 76.4937 69.497 66.4176 73.7705 45.9812 76.0161 C 29.4079 79.1305 20.2923 84.5578 9.74771 91.1544 C 4.06707 88.6084 -3.18918 85.2674 -13.6094 81.1069 C 2.00637 64.983 20.1481 43.7033 29.7795 26.7873 C 43.5072 10.0617 41.779 11.2674 54.7576 1.18679 C 68.2677 -9.99392 88.4113 -5.37812 104.719 9.48852 C 110.996 16.4876 115.716 18.2612 115.11 26.1054 C 116.106 33.0665 109.074 46.0497 88.2517 60.9959 z " id="path506" sodipodi:nodetypes="ccccccccc"/>
    <path transform="matrix(-0.416333,0.00661491,-0.00681765,-0.429112,62.5479,143.979)" style="font-size:12;fill:#ffffff;fill-opacity:0.99;stroke:#580400;stroke-width:4;stroke-linejoin:round;stroke-opacity:0.992157;" d="M 83.7482 60.5074 C 68.6024 70.745 63.1217 72.1999 49.7201 77.7034 C 40.7391 79.9238 29.4235 80.0424 19.1807 76.7322 C 16.4741 75.1627 9.66806 69.6656 9.71206 65.0753 C 13.7272 47.5642 18.5613 43.476 27.2888 30.3599 C 36.4232 19.8185 45.8289 11.0229 61.4173 3.48493 C 78.4697 -1.86214 85.3901 -0.320545 95.9459 7.70697 C 105.819 15.9492 107.722 22.5585 108.09 31.6186 C 105.426 44.3456 99.9534 48.3606 83.7482 60.5074 z " id="path507" sodipodi:nodetypes="ccccccccc"/>
  </g>
  <g id="g500" transform="matrix(0.978272,0,0,0.978272,1.99148,0.351642)">
    <path transform="matrix(0.721719,0.0661415,-0.0681712,0.743868,71.5019,34.1323)" style="font-size:12;fill:url(#linearGradient123);stroke:#0a0a05;stroke-width:4;stroke-linejoin:round;stroke-opacity:0.992157;" d="M 44.43 62.2898 C 37.1854 68.5353 27.1814 78.5602 19.9369 84.8057 C 17.0367 82.316 14.1366 79.8262 11.2364 77.3365 C 12.4845 72.0907 11.0295 68.6983 13.0142 60.9025 C 24.0729 49.2556 36.4523 42.3082 54.9566 29.877 C 65.8336 22.998 92.9065 4.89576 112.14 -5.04536 C 116.66 -5.54386 122.265 -4.26715 117.093 0.778737 C 102.902 11.7117 58.2551 50.8894 44.43 62.2898 z " id="path119" sodipodi:nodetypes="cccccccc"/>
    <path transform="matrix(-0.635419,0.0100957,-0.0104055,-0.65492,77.7293,150.658)" style="font-size:12;fill:url(#linearGradient1856);stroke:#580400;stroke-width:4;stroke-linejoin:round;stroke-opacity:0.992157;" d="M 88.2517 60.9959 C 76.4937 69.497 66.4176 73.7705 45.9812 76.0161 C 29.4079 79.1305 20.2923 84.5578 9.74771 91.1544 C 4.06707 88.6084 -3.18918 85.2674 -13.6094 81.1069 C 2.00637 64.983 20.1481 43.7033 29.7795 26.7873 C 43.5072 10.0617 41.779 11.2674 54.7576 1.18679 C 68.2677 -9.99392 88.4113 -5.37812 104.719 9.48852 C 110.996 16.4876 115.716 18.2612 115.11 26.1054 C 116.106 33.0665 109.074 46.0497 88.2517 60.9959 z " id="path266" sodipodi:nodetypes="ccccccccc"/>
    <path transform="matrix(-0.416333,0.00661491,-0.00681765,-0.429112,62.5479,143.979)" style="font-size:12;fill:#ffffff;fill-opacity:0.99;stroke:#580400;stroke-width:4;stroke-linejoin:round;stroke-opacity:0.992157;" d="M 83.7482 60.5074 C 68.6024 70.745 63.1217 72.1999 49.7201 77.7034 C 40.7391 79.9238 29.4235 80.0424 19.1807 76.7322 C 16.4741 75.1627 9.66806 69.6656 9.71206 65.0753 C 13.7272 47.5642 18.5613 43.476 27.2888 30.3599 C 36.4232 19.8185 45.8289 11.0229 61.4173 3.48493 C 78.4697 -1.86214 85.3901 -0.320545 95.9459 7.70697 C 105.819 15.9492 107.722 22.5585 108.09 31.6186 C 105.426 44.3456 99.9534 48.3606 83.7482 60.5074 z " id="path469" sodipodi:nodetypes="ccccccccc"/>
  </g>
</svg>
