<?xml version="1.0" encoding="UTF-8" standalone="no"?>
<!-- Created with Inkscape (http://www.inkscape.org/) -->
<svg xmlns:s="http://inkscape.sourceforge.net/DTD/sodipodi-0.dtd" xmlns:dc="http://purl.org/dc/elements/1.1/" xmlns:cc="http://web.resource.org/cc/" xmlns:rdf="http://www.w3.org/1999/02/22-rdf-syntax-ns#" xmlns:svg="http://www.w3.org/2000/svg" xmlns="http://www.w3.org/2000/svg" xmlns:xlink="http://www.w3.org/1999/xlink" xmlns:sodipodi="http://sodipodi.sourceforge.net/DTD/sodipodi-0.dtd" xmlns:inkscape="http://www.inkscape.org/namespaces/inkscape" width="48px" height="48px" id="svg1307" s:version="0.32" inkscape:version="0.44" s:docbase="/home/dobey" s:docname="cvs-new.svg" sodipodi:version="0.32" sodipodi:docname="emblem-cvs-added.svg" sodipodi:docbase="/home/lapo/Icone/cvs/gnome-icon-theme/scalable/emblems" inkscape:output_extension="org.inkscape.output.svg.inkscape">
  <defs id="defs1309">
    <linearGradient id="linearGradient2378">
      <stop style="stop-color:#ffffff;stop-opacity:1;" offset="0" id="stop2380"/>
      <stop id="stop4146" offset="0.25" style="stop-color:#fefede;stop-opacity:0.91836733;"/>
      <stop id="stop2386" offset="0.5" style="stop-color:#f5f328;stop-opacity:1;"/>
      <stop style="stop-color:#f5f32d;stop-opacity:0.12234043;" offset="1" id="stop2382"/>
    </linearGradient>
    <radialGradient inkscape:collect="always" xlink:href="#linearGradient2378" id="radialGradient3271" cx="38.658855" cy="9.3411446" fx="38.658855" fy="9.3411446" r="8.341651" gradientUnits="userSpaceOnUse"/>
  </defs>
  <s:namedview id="base" pagecolor="#ffffff" bordercolor="#666666" borderopacity="1.0" inkscape:pageopacity="0.0" inkscape:pageshadow="2" inkscape:zoom="13.5" inkscape:cx="24" inkscape:cy="24" inkscape:current-layer="layer1" showgrid="true" inkscape:grid-bbox="true" inkscape:document-units="px" inkscape:window-width="726" inkscape:window-height="843" inkscape:window-x="165" inkscape:window-y="48"/>
  <g id="layer1" inkscape:label="Layer 1" inkscape:groupmode="layer">
    <path style="fill:#555753;fill-opacity:1;fill-rule:evenodd;stroke:#2e3436;stroke-width:0.99999923px;stroke-linecap:butt;stroke-linejoin:miter;stroke-opacity:1" d="M 5.5601022,14.501738 L 42.512786,14.501738 L 24.668712,46.499814 L 5.5601022,14.501738 z " id="path1325"/>
    <path style="fill:none;fill-opacity:1;fill-rule:evenodd;stroke:#888a86;stroke-width:0.99999875px;stroke-linecap:butt;stroke-linejoin:miter;stroke-opacity:1" d="M 7.4629624,15.577414 L 40.520221,15.573565 L 24.656076,44.500001 L 7.4629624,15.577414 z " id="path2200" s:nodetypes="cccc"/>
    <path style="fill:#eeeeec;fill-opacity:1;fill-rule:evenodd;stroke:#babdb6;stroke-width:0.9999997px;stroke-linecap:butt;stroke-linejoin:miter;stroke-opacity:1" d="M 5.4953498,4.4999999 L 42.5,4.4999999 L 24.630832,36.496701 L 5.4953498,4.4999999 z " id="path2202"/>
    <path style="fill:none;fill-opacity:1;fill-rule:evenodd;stroke:#d3d7cf;stroke-width:1.00000012px;stroke-linecap:butt;stroke-linejoin:miter;stroke-opacity:1" d="M 7.5315926,5.6519845 L 40.5,5.5000001 L 24.642012,34.497514 L 7.5315926,5.6519845 z " id="path2206" s:nodetypes="cccc"/>
    <path s:type="arc" style="fill:url(#radialGradient3271);fill-opacity:1;fill-rule:evenodd;stroke:none;stroke-width:1px;stroke-linecap:butt;stroke-linejoin:miter;stroke-opacity:1;display:inline" id="path2388" s:cx="38.658855" s:cy="9.3411446" s:rx="8.341651" s:ry="8.341651" d="M 47.000506 9.3411446 A 8.341651 8.341651 0 1 1  30.317204,9.3411446 A 8.341651 8.341651 0 1 1  47.000506 9.3411446 z" transform="matrix(1.138862,0,0,1.138863,-19.52711,-0.138287)"/>
    <path s:type="star" style="opacity:1;color:#000000;fill:#ffffff;fill-opacity:1;fill-rule:evenodd;stroke:none;stroke-width:0.5;stroke-linecap:butt;stroke-linejoin:miter;marker:none;marker-start:none;marker-mid:none;marker-end:none;stroke-miterlimit:4;stroke-dasharray:none;stroke-dashoffset:0;stroke-opacity:1;visibility:visible;display:inline;overflow:visible" id="path1345" s:sides="5" s:cx="36.9375" s:cy="11.125" s:r1="8.755579" s:r2="5.0676599" s:arg1="0.52359878" s:arg2="1.1519173" inkscape:flatsided="false" inkscape:rounded="0.18352206" inkscape:randomized="0" d="M 44.520054,15.50279 C 44.012883,16.381236 39.925351,15.341967 38.998703,15.754538 C 38.072055,16.167108 36.109289,19.900142 35.117113,19.689249 C 34.124936,19.478355 33.850222,15.26973 33.171495,14.515926 C 32.492767,13.762123 28.335913,13.048993 28.229885,12.040207 C 28.123857,11.031421 32.041607,9.4696164 32.548778,8.5911701 C 33.055949,7.7127238 32.449637,3.5389508 33.376285,3.1263806 C 34.302933,2.7138103 36.998949,5.957187 37.991126,6.1680807 C 38.983302,6.3789743 42.765436,4.5125708 43.444163,5.2663741 C 44.122891,6.0201775 41.871371,9.5864995 41.977399,10.595285 C 42.083426,11.604071 45.027225,14.624343 44.520054,15.50279 z " transform="matrix(0.711631,0.31846,-0.316249,0.716607,1.733792,-8.869389)"/>
  </g>
</svg>
