<?xml version="1.0" encoding="UTF-8" standalone="no"?>
<!-- Created with Inkscape (http://www.inkscape.org/) -->
<svg xmlns:dc="http://purl.org/dc/elements/1.1/" xmlns:cc="http://web.resource.org/cc/" xmlns:rdf="http://www.w3.org/1999/02/22-rdf-syntax-ns#" xmlns:svg="http://www.w3.org/2000/svg" xmlns="http://www.w3.org/2000/svg" xmlns:xlink="http://www.w3.org/1999/xlink" xmlns:sodipodi="http://sodipodi.sourceforge.net/DTD/sodipodi-0.dtd" xmlns:inkscape="http://www.inkscape.org/namespaces/inkscape" version="1.0" x="0.0000000" y="0.0000000" width="48" height="48" id="svg1" sodipodi:version="0.32" inkscape:version="0.44" sodipodi:docname="folder-saved-search.svg" sodipodi:docbase="/home/lapo/Icone/cvs/gnome-icon-theme/scalable/places" inkscape:r_cx="true" inkscape:r_cy="true" inkscape:output_extension="org.inkscape.output.svg.inkscape">
  <defs id="defs3">
    <linearGradient inkscape:collect="always" id="linearGradient2630">
      <stop style="stop-color:#ffffff;stop-opacity:1;" offset="0" id="stop2632"/>
      <stop style="stop-color:#ffffff;stop-opacity:0;" offset="1" id="stop2634"/>
    </linearGradient>
    <linearGradient id="linearGradient2622">
      <stop style="stop-color:#e4a05d;stop-opacity:1;" offset="0" id="stop2624"/>
      <stop style="stop-color:#af651d;stop-opacity:1;" offset="1" id="stop2626"/>
    </linearGradient>
    <linearGradient id="linearGradient2614">
      <stop style="stop-color:#e3aa57;stop-opacity:1;" offset="0" id="stop2616"/>
      <stop style="stop-color:#eabd7c;stop-opacity:1;" offset="1" id="stop2618"/>
    </linearGradient>
    <linearGradient id="linearGradient2580">
      <stop id="stop2582" offset="0" style="stop-color:#ffffff;stop-opacity:1;"/>
      <stop id="stop2586" offset="1" style="stop-color:#729fcf;stop-opacity:0"/>
    </linearGradient>
    <linearGradient inkscape:collect="always" id="linearGradient2339">
      <stop style="stop-color:#ffffff;stop-opacity:1;" offset="0" id="stop2341"/>
      <stop style="stop-color:#ffffff;stop-opacity:0;" offset="1" id="stop2343"/>
    </linearGradient>
    <linearGradient inkscape:collect="always" xlink:href="#linearGradient2580" id="linearGradient320" gradientUnits="userSpaceOnUse" gradientTransform="scale(0.750458,1.33252)" x1="32.827568" y1="7.9206076" x2="60.071049" y2="7.8678756"/>
    <linearGradient inkscape:collect="always" xlink:href="#linearGradient2339" id="linearGradient2345" x1="25.850664" y1="37.625" x2="24.996323" y2="25.25" gradientUnits="userSpaceOnUse"/>
    <linearGradient inkscape:collect="always" xlink:href="#linearGradient2614" id="linearGradient2620" x1="24.588383" y1="39.066536" x2="22.435516" y2="15.191534" gradientUnits="userSpaceOnUse"/>
    <linearGradient inkscape:collect="always" xlink:href="#linearGradient2622" id="linearGradient2628" x1="24.511713" y1="5.8732319" x2="24.511713" y2="16.560732" gradientUnits="userSpaceOnUse"/>
    <linearGradient inkscape:collect="always" xlink:href="#linearGradient2630" id="linearGradient2636" x1="21.530331" y1="20.3125" x2="25.375" y2="26.625" gradientUnits="userSpaceOnUse"/>
  </defs>
  <g inkscape:groupmode="layer" id="layer1" inkscape:label="pixmap" style="display:inline" inkscape:r_cx="true" inkscape:r_cy="true"/>
  <g inkscape:groupmode="layer" id="layer2" inkscape:label="vectors" style="display:inline" inkscape:r_cx="true" inkscape:r_cy="true">
    <g transform="matrix(0.216083,0,0,0.263095,-0.893233,-10.24236)" id="g1197" inkscape:r_cx="true" inkscape:r_cy="true">
      <path d="M 32.706693,164.36026 C 22.319193,164.36026 13.956693,172.72276 13.956693,183.11026 C 13.956693,193.49776 22.319193,201.86026 32.706693,201.86026 L 205.20669,201.86026 C 215.59419,201.86026 223.95669,193.49776 223.95669,183.11026 C 223.95669,172.72276 215.59419,164.36026 205.20669,164.36026 L 32.706693,164.36026 z " style="opacity:0.04787233;fill-rule:evenodd;stroke-width:3pt" id="path1196" inkscape:r_cx="true" inkscape:r_cy="true"/>
      <path d="M 32.706693,165.61026 C 23.011693,165.61026 15.206693,173.41526 15.206693,183.11026 C 15.206693,192.80526 23.011693,200.61026 32.706693,200.61026 L 205.20669,200.61026 C 214.90169,200.61026 222.70669,192.80526 222.70669,183.11026 C 222.70669,173.41526 214.90169,165.61026 205.20669,165.61026 L 32.706693,165.61026 z " style="opacity:0.04787233;fill-rule:evenodd;stroke-width:3pt" id="path1195" inkscape:r_cx="true" inkscape:r_cy="true"/>
      <path d="M 32.706694,166.86026 C 23.704194,166.86026 16.456694,174.10776 16.456694,183.11026 C 16.456694,192.11276 23.704194,199.36026 32.706694,199.36026 L 205.20669,199.36026 C 214.20919,199.36026 221.45669,192.11276 221.45669,183.11026 C 221.45669,174.10776 214.20919,166.86026 205.20669,166.86026 L 32.706694,166.86026 z " style="opacity:0.04787233;fill-rule:evenodd;stroke-width:3pt" id="path1194" inkscape:r_cx="true" inkscape:r_cy="true"/>
      <path d="M 32.706694,168.11026 C 24.396694,168.11026 17.706694,174.80026 17.706694,183.11026 C 17.706694,191.42026 24.396694,198.11026 32.706694,198.11026 L 205.20669,198.11026 C 213.51669,198.11026 220.20669,191.42026 220.20669,183.11026 C 220.20669,174.80026 213.51669,168.11026 205.20669,168.11026 L 32.706694,168.11026 z " style="opacity:0.04787233;fill-rule:evenodd;stroke-width:3pt" id="path1193" inkscape:r_cx="true" inkscape:r_cy="true"/>
      <path d="M 32.707764,169.36026 C 25.090264,169.36026 18.957764,175.49276 18.957764,183.11026 C 18.957764,190.72776 25.090264,196.86026 32.707764,196.86026 L 205.20618,196.86026 C 212.82368,196.86026 218.95618,190.72776 218.95618,183.11026 C 218.95618,175.49276 212.82368,169.36026 205.20618,169.36026 L 32.707764,169.36026 z " style="opacity:0.04787233;fill-rule:evenodd;stroke-width:3pt" id="path1192" inkscape:r_cx="true" inkscape:r_cy="true"/>
      <path d="M 32.706694,170.61026 C 25.781694,170.61026 20.206694,176.18526 20.206694,183.11026 C 20.206694,190.03526 25.781694,195.61026 32.706694,195.61026 L 205.20669,195.61026 C 212.13169,195.61026 217.70669,190.03526 217.70669,183.11026 C 217.70669,176.18526 212.13169,170.61026 205.20669,170.61026 L 32.706694,170.61026 z " style="opacity:0.04787233;fill-rule:evenodd;stroke-width:3pt" id="path1191" inkscape:r_cx="true" inkscape:r_cy="true"/>
      <path d="M 32.706694,171.86026 C 26.474194,171.86026 21.456694,176.87776 21.456694,183.11026 C 21.456694,189.34276 26.474194,194.36026 32.706694,194.36026 L 205.20669,194.36026 C 211.43919,194.36026 216.45669,189.34276 216.45669,183.11026 C 216.45669,176.87776 211.43919,171.86026 205.20669,171.86026 L 32.706694,171.86026 z " style="opacity:0.04787233;fill-rule:evenodd;stroke-width:3pt" id="path1190" inkscape:r_cx="true" inkscape:r_cy="true"/>
      <path d="M 32.706694,173.11026 C 27.166694,173.11026 22.706694,177.57026 22.706694,183.11026 C 22.706694,188.65026 27.166694,193.11026 32.706694,193.11026 L 205.20669,193.11026 C 210.74669,193.11026 215.20669,188.65026 215.20669,183.11026 C 215.20669,177.57026 210.74669,173.11026 205.20669,173.11026 L 32.706694,173.11026 z " style="opacity:0.04787233;fill-rule:evenodd;stroke-width:3pt" id="path1189" inkscape:r_cx="true" inkscape:r_cy="true"/>
    </g>
    <path d="M 5.4186638,5.45611 C 4.9536872,5.45611 4.6035534,5.6913368 4.6035534,6.182833 L 4.6035534,39.203794 C 4.6035534,39.93094 5.0906584,40.415354 5.7526104,40.415354 L 43.489564,40.415354 C 44.155366,40.415354 44.419872,39.962588 44.419872,39.328794 L 44.419872,10.425912 C 44.419872,9.8829469 44.019585,9.589354 43.520814,9.589354 L 24.41149,9.589354 C 24.074477,9.589354 23.71481,9.390928 23.517009,9.118067 L 20.914778,5.918058 C 20.696913,5.617519 20.272703,5.456125 19.9015,5.456125 L 5.4186638,5.45611 z " style="fill:url(#linearGradient2628);fill-opacity:1.0;fill-rule:evenodd;stroke:#b05f1e;stroke-width:1;stroke-miterlimit:4;stroke-opacity:1" id="path895" sodipodi:nodetypes="ccccccccccccc" inkscape:r_cx="true" inkscape:r_cy="true"/>
    <g id="g891" transform="matrix(0.186703,0,0,0.186703,-21.1073,57.62299)" inkscape:r_cx="true" inkscape:r_cy="true"/>
    <path style="opacity:0.38461538;color:#000000;fill:url(#linearGradient320);fill-opacity:1;fill-rule:evenodd;stroke:none;stroke-width:0.25pt;stroke-linecap:butt;stroke-linejoin:miter;marker:none;marker-start:none;marker-mid:none;marker-end:none;stroke-miterlimit:4;stroke-dasharray:none;stroke-dashoffset:0;stroke-opacity:1;visibility:visible;display:inline;overflow:visible" d="M 5.0625,7.90625 L 5.0625,36.15625 L 6.03125,31.78125 L 6.25,9.15625 C 6.25,8.4058274 6.7614657,8.03125 7.4869586,8.03125 L 19.09375,8.03125 C 20.655346,8.03125 22.108598,11.21875 24.411417,11.21875 C 30.383036,11.21875 43.749813,11.306338 43.75,11.21875 L 43.75,10.1875 L 24.21875,10.0625 C 22.362615,10.050621 21.088324,6.90625 19.65625,6.90625 L 6.2838336,6.90625 C 5.4685048,6.90625 5.0625,7.2604161 5.0625,7.90625 z " id="path315" sodipodi:nodetypes="ccccczscczzcc" inkscape:r_cx="true" inkscape:r_cy="true"/>
    <path style="color:#000000;fill:url(#linearGradient2620);fill-opacity:1.0;fill-rule:evenodd;stroke:#b05f1e;stroke-width:0.99999988;stroke-linecap:butt;stroke-linejoin:round;marker:none;marker-start:none;marker-mid:none;marker-end:none;stroke-miterlimit:4;stroke-dashoffset:0;stroke-opacity:1;visibility:visible;display:inline;overflow:visible" d="M 7.6864537,16.483782 L 15.619799,16.483782 C 16.361533,16.483782 16.987769,16.102971 17.306966,15.601778 C 17.443709,15.387069 18.574948,13.41355 18.66464,13.283052 C 18.963427,12.848328 19.437557,12.524136 20.006622,12.524136 L 43.048855,12.524136 C 43.851692,12.524136 44.498018,13.167925 44.498018,13.96761 L 44.498018,38.915459 C 44.498018,39.715143 43.851692,40.358932 43.048855,40.358932 L 6.1279084,40.358932 C 5.3250725,40.358932 4.6787461,39.715143 4.6787461,38.915459 L 4.6787461,19.481904 C 4.6787461,17.507539 5.8190623,16.483782 7.6864537,16.483782 z " id="rect337" sodipodi:nodetypes="czzszcccccccc" inkscape:r_cx="true" inkscape:r_cy="true"/>
    <path style="opacity:0.81868132;color:#000000;fill:url(#linearGradient2636);fill-opacity:1.0;fill-rule:evenodd;stroke:none;stroke-width:0.25pt;stroke-linecap:butt;stroke-linejoin:miter;marker:none;marker-start:none;marker-mid:none;marker-end:none;stroke-miterlimit:4;stroke-dasharray:none;stroke-dashoffset:0;stroke-opacity:1;visibility:visible;display:inline;overflow:visible" d="M 20.5,14 C 19.853581,14 19.49096,14.281698 19.125,14.75 C 18.75904,15.218302 18.343502,15.671815 18.0625,16.21875 C 17.781498,16.765685 17.493409,17.210419 17.21875,17.5625 C 16.944091,17.914581 16.729167,18.0625 16.5,18.0625 C 15.25,18.0625 7.3428301,18.0625 6.8428301,18.0625 C 6.3844968,18.0625 6.0073599,18.293019 5.6865801,18.59375 C 5.3658003,18.894481 5.0928301,19.3 5.0928301,19.8125 C 5.0928302,20.437498 5.0928301,39.25 5.0928301,39.25 L 6.0928301,39.25 C 6.0928301,39.25 6.0928302,20.437502 6.0928301,19.8125 C 6.0928301,19.7 6.1948599,19.480519 6.3740801,19.3125 C 6.5533003,19.144481 6.8011635,19.0625 6.8428301,19.0625 C 7.3428301,19.0625 15.25,19.0625 16.5,19.0625 C 17.145833,19.0625 17.634731,18.655732 18,18.1875 C 18.365269,17.719268 18.656559,17.203065 18.9375,16.65625 C 19.218441,16.109435 19.568667,15.727011 19.84375,15.375 C 20.118833,15.022989 20.269189,15 20.5,15 C 21.716667,15 43.75,15.125 43.75,15.125 L 43.75,14.125 C 43.75,14.125 21.783333,14 20.5,14 z " id="path349" sodipodi:nodetypes="ccccccccccccccccccccc" inkscape:r_cx="true" inkscape:r_cy="true"/>
    <rect style="color:#000000;fill:#fffffd;fill-opacity:1;fill-rule:evenodd;stroke:none;stroke-width:0.25pt;stroke-linecap:butt;stroke-linejoin:miter;marker:none;marker-start:none;marker-mid:none;marker-end:none;stroke-miterlimit:4;stroke-dashoffset:0;stroke-opacity:1;visibility:visible;display:inline;overflow:visible" id="rect459" width="1.25" height="1.25" x="5.5290294" y="7.3598347" rx="1.4434735" ry="1.25" inkscape:r_cx="true" inkscape:r_cy="true"/>
    <rect style="opacity:0.28571429;color:#000000;fill:none;fill-opacity:1;fill-rule:evenodd;stroke:url(#linearGradient2345);stroke-width:1.00000024;stroke-linecap:square;stroke-linejoin:round;marker:none;marker-start:none;marker-mid:none;marker-end:none;stroke-miterlimit:4;stroke-dasharray:none;stroke-dashoffset:0;stroke-opacity:1;visibility:visible;display:inline;overflow:visible" id="rect2337" width="37.95816" height="23.625" x="5.5381637" y="15.75" inkscape:r_cx="true" inkscape:r_cy="true" rx="0.43750021" ry="0.4375"/>
    <path style="opacity:0.65;color:#000000;fill:#ffffff;fill-opacity:1;fill-rule:evenodd;stroke:none;stroke-width:2.296875;stroke-linecap:square;stroke-linejoin:round;marker:none;marker-start:none;marker-mid:none;marker-end:none;stroke-miterlimit:4;stroke-dasharray:none;stroke-dashoffset:0;stroke-opacity:1;visibility:visible;display:inline;overflow:visible" d="M 22.86301,20.483131 C 19.598684,20.734409 17,23.494648 17,26.819388 C 16.999999,30.307641 19.874295,33.181937 23.362549,33.181937 C 25.07261,33.181937 26.633243,32.506995 27.779525,31.394113 C 27.850024,31.574078 27.966697,31.746853 28.095023,31.893652 C 28.21175,32.022077 28.359205,32.146141 28.515687,32.235442 L 32.722331,34.759428 C 33.520953,35.238602 34.556811,34.979637 35.035985,34.181015 C 35.515159,33.382393 35.256194,32.346534 34.457571,31.867361 L 30.250928,29.343374 C 29.966476,29.166371 29.636509,29.069205 29.304433,29.080459 C 29.572458,28.380236 29.698806,27.609695 29.698806,26.819388 C 29.698806,23.331136 26.850802,20.483131 23.362549,20.483131 C 23.199036,20.483131 23.02355,20.470773 22.86301,20.483131 z M 23.204799,23.007117 C 23.254056,23.005278 23.3128,23.007117 23.362549,23.007117 C 25.485166,23.007118 27.17482,24.69677 27.17482,26.819388 C 27.174819,28.942007 25.485166,30.631659 23.362549,30.631659 C 21.23993,30.631659 19.550278,28.942007 19.550278,26.819388 C 19.550277,24.746519 21.152449,23.083765 23.204799,23.007117 z " id="path2347" inkscape:r_cx="true" inkscape:r_cy="true"/>
  </g>
</svg>
