<?xml version="1.0" encoding="UTF-8" standalone="no"?>
<!-- Created with Inkscape (http://www.inkscape.org/) -->
<svg xmlns:dc="http://purl.org/dc/elements/1.1/" xmlns:cc="http://web.resource.org/cc/" xmlns:rdf="http://www.w3.org/1999/02/22-rdf-syntax-ns#" xmlns:svg="http://www.w3.org/2000/svg" xmlns="http://www.w3.org/2000/svg" xmlns:xlink="http://www.w3.org/1999/xlink" xmlns:sodipodi="http://sodipodi.sourceforge.net/DTD/sodipodi-0.dtd" xmlns:inkscape="http://www.inkscape.org/namespaces/inkscape" width="48" height="48" id="svg2" sodipodi:version="0.32" inkscape:version="0.44" version="1.0" sodipodi:docbase="/home/lapo/Icone/cvs/gnome-icon-theme/scalable/apps" sodipodi:docname="accessories-calculator.svg" inkscape:output_extension="org.inkscape.output.svg.inkscape">
  <defs id="defs4">
    <linearGradient id="linearGradient3428">
      <stop style="stop-color:black;stop-opacity:0;" offset="0" id="stop3430"/>
      <stop id="stop3436" offset="0.5" style="stop-color:black;stop-opacity:1;"/>
      <stop style="stop-color:black;stop-opacity:0;" offset="1" id="stop3432"/>
    </linearGradient>
    <linearGradient inkscape:collect="always" id="linearGradient3414">
      <stop style="stop-color:black;stop-opacity:1;" offset="0" id="stop3416"/>
      <stop style="stop-color:black;stop-opacity:0;" offset="1" id="stop3418"/>
    </linearGradient>
    <linearGradient inkscape:collect="always" id="linearGradient3396">
      <stop style="stop-color:white;stop-opacity:1;" offset="0" id="stop3398"/>
      <stop style="stop-color:white;stop-opacity:0;" offset="1" id="stop3400"/>
    </linearGradient>
    <linearGradient inkscape:collect="always" id="linearGradient3245">
      <stop style="stop-color:#babdb6;stop-opacity:1" offset="0" id="stop3247"/>
      <stop style="stop-color:#888a85;stop-opacity:1" offset="1" id="stop3249"/>
    </linearGradient>
    <linearGradient inkscape:collect="always" id="linearGradient3221">
      <stop style="stop-color:white;stop-opacity:1;" offset="0" id="stop3223"/>
      <stop style="stop-color:white;stop-opacity:0;" offset="1" id="stop3225"/>
    </linearGradient>
    <linearGradient inkscape:collect="always" id="linearGradient3123">
      <stop style="stop-color:#888a85;stop-opacity:1;" offset="0" id="stop3125"/>
      <stop style="stop-color:#babdb6;stop-opacity:1" offset="1" id="stop3127"/>
    </linearGradient>
    <linearGradient inkscape:collect="always" id="linearGradient3115">
      <stop style="stop-color:white;stop-opacity:1;" offset="0" id="stop3117"/>
      <stop style="stop-color:white;stop-opacity:0;" offset="1" id="stop3119"/>
    </linearGradient>
    <linearGradient id="linearGradient3093">
      <stop style="stop-color:#2e3436;stop-opacity:1" offset="0" id="stop3095"/>
      <stop style="stop-color:#555753;stop-opacity:1;" offset="1" id="stop3097"/>
    </linearGradient>
    <linearGradient inkscape:collect="always" xlink:href="#linearGradient3093" id="linearGradient3099" x1="8.125" y1="18.625" x2="8.125" y2="1.5623856" gradientUnits="userSpaceOnUse"/>
    <linearGradient inkscape:collect="always" xlink:href="#linearGradient3115" id="linearGradient3121" x1="10.375" y1="11.0625" x2="10.25" y2="5.6206751" gradientUnits="userSpaceOnUse" gradientTransform="translate(0,1)"/>
    <linearGradient inkscape:collect="always" xlink:href="#linearGradient3123" id="linearGradient3129" x1="11.579321" y1="21.053846" x2="35.079323" y2="52.56406" gradientUnits="userSpaceOnUse"/>
    <linearGradient inkscape:collect="always" xlink:href="#linearGradient3221" id="linearGradient3227" x1="14.49791" y1="20.819609" x2="15.223973" y2="22.249367" gradientUnits="userSpaceOnUse"/>
    <linearGradient inkscape:collect="always" xlink:href="#linearGradient3221" id="linearGradient3231" gradientUnits="userSpaceOnUse" x1="14.49791" y1="20.819609" x2="15.005223" y2="21.905617" gradientTransform="translate(-6,0)"/>
    <radialGradient inkscape:collect="always" xlink:href="#linearGradient3245" id="radialGradient3251" cx="15.902422" cy="21.731947" fx="15.902422" fy="21.731947" r="2.9999985" gradientTransform="matrix(1.959694,0,0,1.657851,-14.97639,-13.84084)" gradientUnits="userSpaceOnUse"/>
    <linearGradient inkscape:collect="always" xlink:href="#linearGradient3221" id="linearGradient3357" gradientUnits="userSpaceOnUse" x1="14.49791" y1="20.819609" x2="14.911473" y2="22.593117" gradientTransform="translate(-0.999989,4.291534e-6)"/>
    <linearGradient inkscape:collect="always" xlink:href="#linearGradient3221" id="linearGradient3371" gradientUnits="userSpaceOnUse" gradientTransform="translate(-0.999989,4.291534e-6)" x1="14.49791" y1="20.819609" x2="17.692724" y2="24.905617"/>
    <linearGradient inkscape:collect="always" xlink:href="#linearGradient3221" id="linearGradient3387" gradientUnits="userSpaceOnUse" x1="14.49791" y1="20.819609" x2="15.223973" y2="22.249367"/>
    <linearGradient inkscape:collect="always" xlink:href="#linearGradient3396" id="linearGradient3402" x1="7.625" y1="4.9375" x2="9.1875" y2="22.625" gradientUnits="userSpaceOnUse"/>
    <radialGradient inkscape:collect="always" xlink:href="#linearGradient3414" id="radialGradient3420" cx="3" cy="43" fx="3" fy="43" r="2" gradientTransform="matrix(2,0,0,2,-13,-129)" gradientUnits="userSpaceOnUse"/>
    <radialGradient inkscape:collect="always" xlink:href="#linearGradient3414" id="radialGradient3424" gradientUnits="userSpaceOnUse" gradientTransform="matrix(2,0,0,2,35,-43)" cx="3" cy="43" fx="3" fy="43" r="2"/>
    <linearGradient inkscape:collect="always" xlink:href="#linearGradient3428" id="linearGradient3434" x1="11.507806" y1="39" x2="11.507806" y2="47.015659" gradientUnits="userSpaceOnUse"/>
  </defs>
  <g inkscape:label="Livello 1" inkscape:groupmode="layer" id="layer1">
    <g id="g3438" transform="matrix(1,0,0,1.118068,0,-5.549194)" style="opacity:0.4">
      <rect transform="scale(-1,-1)" y="-47" x="-7" height="8" width="4" id="rect3404" style="opacity:1;color:black;fill:url(#radialGradient3420);fill-opacity:1;fill-rule:nonzero;stroke:none;stroke-width:1;stroke-linecap:square;stroke-linejoin:round;marker:none;marker-start:none;marker-mid:none;marker-end:none;stroke-miterlimit:6;stroke-dasharray:none;stroke-dashoffset:1.4;stroke-opacity:1;visibility:visible;display:inline;overflow:visible"/>
      <rect y="39" x="41" height="8" width="4" id="rect3422" style="opacity:1;color:black;fill:url(#radialGradient3424);fill-opacity:1;fill-rule:nonzero;stroke:none;stroke-width:1;stroke-linecap:square;stroke-linejoin:round;marker:none;marker-start:none;marker-mid:none;marker-end:none;stroke-miterlimit:6;stroke-dasharray:none;stroke-dashoffset:1.4;stroke-opacity:1;visibility:visible;display:inline;overflow:visible"/>
      <rect y="39" x="7" height="8" width="34" id="rect3426" style="opacity:1;color:black;fill:url(#linearGradient3434);fill-opacity:1;fill-rule:nonzero;stroke:none;stroke-width:1;stroke-linecap:square;stroke-linejoin:round;marker:none;marker-start:none;marker-mid:none;marker-end:none;stroke-miterlimit:6;stroke-dasharray:none;stroke-dashoffset:1.4;stroke-opacity:1;visibility:visible;display:inline;overflow:visible"/>
    </g>
    <rect style="opacity:1;color:black;fill:url(#linearGradient3129);fill-opacity:1;fill-rule:nonzero;stroke:#555753;stroke-width:1.00000024;stroke-linecap:round;stroke-linejoin:miter;marker:none;marker-start:none;marker-mid:none;marker-end:none;stroke-miterlimit:6;stroke-dasharray:none;stroke-dashoffset:1.4;stroke-opacity:1;visibility:visible;display:inline;overflow:visible" id="rect2157" width="37" height="36.459362" x="5.5" y="8.0407381" rx="2.875" ry="2.875"/>
    <rect style="opacity:0.3;color:black;fill:none;fill-opacity:1;fill-rule:nonzero;stroke:white;stroke-width:1;stroke-linecap:round;stroke-linejoin:miter;marker:none;marker-start:none;marker-mid:none;marker-end:none;stroke-miterlimit:6;stroke-dasharray:none;stroke-dashoffset:1.4;stroke-opacity:1;visibility:visible;display:inline;overflow:visible" id="rect3052" width="35.000004" height="41.000008" x="6.5" y="2.4999993" rx="1.9236857" ry="1.9236857"/>
    <path style="opacity:1;color:black;fill:url(#linearGradient3099);fill-opacity:1.0;fill-rule:nonzero;stroke:#2e3436;stroke-width:1.00000024;stroke-linecap:round;stroke-linejoin:miter;marker:none;marker-start:none;marker-mid:none;marker-end:none;stroke-miterlimit:6;stroke-dasharray:none;stroke-dashoffset:1.4;stroke-opacity:1;visibility:visible;display:inline;overflow:visible" d="M 42.5,17 L 42.5,4.375 C 42.5,2.78225 41.21775,1.5 39.625,1.5 L 8.375,1.5 C 6.78225,1.5 5.5,2.7822502 5.5,4.375 L 5.5,17" id="rect3047" sodipodi:nodetypes="cccccc"/>
    <rect style="opacity:1;color:black;fill:#8ae234;fill-opacity:1;fill-rule:nonzero;stroke:none;stroke-width:0.99999994;stroke-linecap:round;stroke-linejoin:miter;marker:none;marker-start:none;marker-mid:none;marker-end:none;stroke-miterlimit:6;stroke-dasharray:none;stroke-dashoffset:1.4;stroke-opacity:1;visibility:visible;display:inline;overflow:visible" id="rect3045" width="32" height="9" x="8" y="7" rx="1.1762378" ry="1.1762378"/>
    <path style="color:black;fill:none;fill-opacity:1.0;fill-rule:nonzero;stroke:url(#linearGradient3402);stroke-width:1.00000036;stroke-linecap:square;stroke-linejoin:miter;marker:none;marker-start:none;marker-mid:none;marker-end:none;stroke-miterlimit:6;stroke-dasharray:none;stroke-dashoffset:1.4;stroke-opacity:1;visibility:visible;display:inline;overflow:visible;opacity:0.2" d="M 41.500004,16.510137 L 41.500004,4.3478739 C 41.500004,3.2983225 40.702039,2.5000013 39.652955,2.5000013 L 8.3470491,2.5000013 C 7.2979658,2.5000013 6.5000006,3.2983228 6.5000006,4.3478739 L 6.5000006,16.510137" id="path3072" sodipodi:nodetypes="cccccc"/>
    <rect style="opacity:0.6;color:black;fill:white;fill-opacity:1;fill-rule:nonzero;stroke:none;stroke-width:1;stroke-linecap:square;stroke-linejoin:miter;marker:none;marker-start:none;marker-mid:none;marker-end:none;stroke-miterlimit:6;stroke-dasharray:none;stroke-dashoffset:1.4;stroke-opacity:1;visibility:visible;display:inline;overflow:visible" id="rect3075" width="22" height="5" x="13" y="9"/>
    <path style="opacity:0.3;color:black;fill:black;fill-opacity:1;fill-rule:nonzero;stroke:none;stroke-width:1;stroke-linecap:square;stroke-linejoin:miter;marker:none;marker-start:none;marker-mid:none;marker-end:none;stroke-miterlimit:6;stroke-dasharray:none;stroke-dashoffset:1.4;stroke-opacity:1;visibility:visible;display:inline;overflow:visible" d="M 13 9 L 13 9.5 L 13 14 L 13.5 14 L 13.5 9.5 L 35 9.5 L 35 9 L 13.5 9 L 13 9 z " id="rect3555"/>
    <path style="opacity:0.4;color:black;fill:url(#linearGradient3121);fill-opacity:1;fill-rule:nonzero;stroke:none;stroke-width:0.99999994;stroke-linecap:round;stroke-linejoin:miter;marker:none;marker-start:none;marker-mid:none;marker-end:none;stroke-miterlimit:6;stroke-dasharray:none;stroke-dashoffset:1.4;stroke-opacity:1;visibility:visible;display:inline;overflow:visible" d="M 9.1875,7 C 8.5358642,7 8,7.535864 8,8.1875 L 8,13.21875 C 19.702209,8.558037 32.206019,10.991812 40,14.53125 L 40,8.1875 C 40,7.5358642 39.464137,7 38.8125,7 L 9.1875,7 z " id="rect3109" sodipodi:nodetypes="ccccccc"/>
    <g id="g3253" transform="translate(4.887581e-6,4.172325e-6)">
      <rect ry="1.046875" rx="1.046875" y="19.5" x="13.499995" height="3.9999957" width="4.9999967" id="rect3133" style="opacity:1;color:black;fill:url(#radialGradient3251);fill-opacity:1;fill-rule:nonzero;stroke:#555753;stroke-width:1.00000024;stroke-linecap:square;stroke-linejoin:miter;marker:none;marker-start:none;marker-mid:none;marker-end:none;stroke-miterlimit:6;stroke-dasharray:none;stroke-dashoffset:1.4;stroke-opacity:1;visibility:visible;display:inline;overflow:visible"/>
      <rect ry="0" rx="0" y="20.499979" x="14.499989" height="2.0000167" width="3.0000131" id="rect3211" style="opacity:0.4;color:black;fill:none;fill-opacity:1;fill-rule:nonzero;stroke:url(#linearGradient3227);stroke-width:1;stroke-linecap:square;stroke-linejoin:round;marker:none;marker-start:none;marker-mid:none;marker-end:none;stroke-miterlimit:6;stroke-dasharray:none;stroke-dashoffset:1.4;stroke-opacity:1;visibility:visible;display:inline;overflow:visible"/>
    </g>
    <g id="g3279">
      <rect ry="1.016466" rx="1.016466" y="19.500013" x="7.500001" height="3.9999957" width="4.0000024" id="rect3131" style="opacity:1;color:black;fill:#555753;fill-opacity:1;fill-rule:nonzero;stroke:#2e3436;stroke-width:1.0000006;stroke-linecap:square;stroke-linejoin:miter;marker:none;marker-start:none;marker-mid:none;marker-end:none;stroke-miterlimit:6;stroke-dasharray:none;stroke-dashoffset:1.4;stroke-opacity:1;visibility:visible;display:inline;overflow:visible"/>
      <rect ry="0" rx="0" y="20.499979" x="8.4999886" height="2.000021" width="2.0000114" id="rect3229" style="opacity:0.3;color:black;fill:none;fill-opacity:1;fill-rule:nonzero;stroke:url(#linearGradient3231);stroke-width:1;stroke-linecap:square;stroke-linejoin:round;marker:none;marker-start:none;marker-mid:none;marker-end:none;stroke-miterlimit:6;stroke-dasharray:none;stroke-dashoffset:1.4;stroke-opacity:1;visibility:visible;display:inline;overflow:visible"/>
    </g>
    <use x="0" y="0" xlink:href="#g3279" id="use3283" transform="translate(0,6)" width="48" height="48"/>
    <use x="0" y="0" xlink:href="#use3283" id="use3285" transform="translate(0,6)" width="48" height="48"/>
    <use x="0" y="0" xlink:href="#use3285" id="use3287" transform="translate(0,6)" width="48" height="48"/>
    <use x="0" y="0" xlink:href="#g3253" id="use3331" transform="translate(-4.887581e-6,5.999996)" width="48" height="48"/>
    <use x="0" y="0" xlink:href="#g3253" id="use3333" transform="translate(-4.887581e-6,12)" width="48" height="48"/>
    <use x="0" y="0" xlink:href="#g3253" id="use3335" transform="translate(6.999995,-4.172325e-6)" width="48" height="48"/>
    <use x="0" y="0" xlink:href="#g3253" id="use3337" transform="translate(6.999995,5.999996)" width="48" height="48"/>
    <use x="0" y="0" xlink:href="#g3253" id="use3339" transform="translate(6.999995,12)" width="48" height="48"/>
    <use x="0" y="0" xlink:href="#g3253" id="use3341" transform="translate(6.999995,18)" width="48" height="48"/>
    <use x="0" y="0" xlink:href="#g3253" id="use3343" transform="translate(14,-4.172325e-6)" width="48" height="48"/>
    <use x="0" y="0" xlink:href="#g3253" id="use3345" transform="translate(14,12)" width="48" height="48"/>
    <use x="0" y="0" xlink:href="#g3253" id="use3347" transform="translate(14,5.999996)" width="48" height="48"/>
    <g id="g3349" transform="translate(22,0)">
      <rect ry="1.046875" rx="1.046875" y="19.5" x="12.5" height="3.9999957" width="5.9999919" id="rect3351" style="opacity:1;color:black;fill:#888a85;fill-opacity:1;fill-rule:nonzero;stroke:#555753;stroke-width:1.00000024;stroke-linecap:square;stroke-linejoin:miter;marker:none;marker-start:none;marker-mid:none;marker-end:none;stroke-miterlimit:6;stroke-dasharray:none;stroke-dashoffset:1.4;stroke-opacity:1;visibility:visible;display:inline;overflow:visible"/>
      <rect ry="0" rx="0" y="20.499983" x="13.5" height="2.0000172" width="4" id="rect3353" style="opacity:0.4;color:black;fill:none;fill-opacity:1;fill-rule:nonzero;stroke:url(#linearGradient3357);stroke-width:1;stroke-linecap:square;stroke-linejoin:round;marker:none;marker-start:none;marker-mid:none;marker-end:none;stroke-miterlimit:6;stroke-dasharray:none;stroke-dashoffset:1.4;stroke-opacity:1;visibility:visible;display:inline;overflow:visible"/>
    </g>
    <use x="0" y="0" xlink:href="#g3349" id="use3359" transform="translate(0,6)" width="48" height="48"/>
    <g transform="translate(22,12)" id="use3363">
      <rect style="opacity:1;color:black;fill:#888a85;fill-opacity:1;fill-rule:nonzero;stroke:#555753;stroke-width:1.00000024;stroke-linecap:square;stroke-linejoin:miter;marker:none;marker-start:none;marker-mid:none;marker-end:none;stroke-miterlimit:6;stroke-dasharray:none;stroke-dashoffset:1.4;stroke-opacity:1;visibility:visible;display:inline;overflow:visible" id="rect3367" width="6" height="10" x="12.5" y="19.5" rx="1.046875" ry="1.046875"/>
      <rect style="opacity:0.4;color:black;fill:none;fill-opacity:1;fill-rule:nonzero;stroke:url(#linearGradient3371);stroke-width:1;stroke-linecap:square;stroke-linejoin:round;marker:none;marker-start:none;marker-mid:none;marker-end:none;stroke-miterlimit:6;stroke-dasharray:none;stroke-dashoffset:1.4;stroke-opacity:1;visibility:visible;display:inline;overflow:visible" id="rect3369" width="4" height="8.0000172" x="13.5" y="20.499983" rx="0" ry="0"/>
    </g>
    <use x="0" y="0" xlink:href="#g3253" id="use3375" transform="translate(-4.887581e-6,18)" width="48" height="48"/>
    <g id="use3377" transform="translate(14,18)">
      <rect style="opacity:1;color:black;fill:#888a85;fill-opacity:1;fill-rule:nonzero;stroke:#555753;stroke-width:1.00000024;stroke-linecap:square;stroke-linejoin:miter;marker:none;marker-start:none;marker-mid:none;marker-end:none;stroke-miterlimit:6;stroke-dasharray:none;stroke-dashoffset:1.4;stroke-opacity:1;visibility:visible;display:inline;overflow:visible" id="rect3381" width="4.9999967" height="3.9999957" x="13.499995" y="19.5" rx="1.046875" ry="1.046875"/>
      <rect style="opacity:0.4;color:black;fill:none;fill-opacity:1;fill-rule:nonzero;stroke:url(#linearGradient3387);stroke-width:1;stroke-linecap:square;stroke-linejoin:round;marker:none;marker-start:none;marker-mid:none;marker-end:none;stroke-miterlimit:6;stroke-dasharray:none;stroke-dashoffset:1.4;stroke-opacity:1;visibility:visible;display:inline;overflow:visible" id="rect3383" width="3.0000131" height="2.0000167" x="14.499989" y="20.499979" rx="0" ry="0"/>
    </g>
    <path transform="scale(0.910679,1.098081)" style="font-size:3.17188883px;font-style:normal;font-weight:bold;fill:#eeeeec;fill-opacity:1;stroke:none;stroke-width:1px;stroke-linecap:butt;stroke-linejoin:miter;stroke-opacity:1;font-family:Bitstream Vera Sans" d="M 12.512552,3.7387398 L 12.512552,4.1909818 C 12.437177,4.1393572 12.361287,4.1011542 12.284882,4.0763725 C 12.209507,4.0515935 12.131036,4.0392033 12.049469,4.0392019 C 11.89459,4.0392033 11.773786,4.084634 11.687055,4.175494 C 11.601356,4.2653241 11.558507,4.3912909 11.558507,4.5533948 C 11.558507,4.7155005 11.601356,4.8419836 11.687055,4.9328444 C 11.773786,5.0226737 11.89459,5.0675881 12.049469,5.0675878 C 12.136199,5.0675881 12.218284,5.0546817 12.295724,5.0288684 C 12.374193,5.0030559 12.446469,4.9648529 12.512552,4.9142591 L 12.512552,5.3680499 C 12.425819,5.4000579 12.337539,5.4238057 12.247712,5.4392935 C 12.158914,5.4558137 12.069601,5.4640738 11.979774,5.4640739 C 11.666921,5.4640738 11.422215,5.3840539 11.245655,5.2240139 C 11.069094,5.0629418 10.980814,4.8394023 10.980815,4.5533948 C 10.980814,4.2673891 11.069094,4.0443659 11.245655,3.8843245 C 11.422215,3.7232538 11.666921,3.6427176 11.979774,3.6427158 C 12.070634,3.6427176 12.159946,3.6509777 12.247712,3.6674962 C 12.336506,3.6829857 12.424786,3.7067335 12.512552,3.7387398 M 13.819717,4.0392019 C 13.696847,4.0392033 13.602888,4.0836014 13.53784,4.1723965 C 13.473823,4.2601615 13.441816,4.3871608 13.441816,4.5533948 C 13.441816,4.7196306 13.473823,4.8471462 13.53784,4.935942 C 13.602888,5.0237062 13.696847,5.0675881 13.819717,5.0675878 C 13.94052,5.0675881 14.03293,5.0237062 14.096948,4.935942 C 14.160962,4.8471462 14.19297,4.7196306 14.192972,4.5533948 C 14.19297,4.3871608 14.160962,4.2601615 14.096948,4.1723965 C 14.03293,4.0836014 13.94052,4.0392033 13.819717,4.0392019 M 13.819717,3.6427158 C 14.118113,3.6427176 14.350945,3.7232538 14.518214,3.8843245 C 14.686512,4.0453984 14.770662,4.2684216 14.770664,4.5533948 C 14.770662,4.8383698 14.686512,5.061393 14.518214,5.2224651 C 14.350945,5.3835376 14.118113,5.4640738 13.819717,5.4640739 C 13.520287,5.4640738 13.285906,5.3835376 13.116574,5.2224651 C 12.948273,5.061393 12.864123,4.8383698 12.864124,4.5533948 C 12.864123,4.2684216 12.948273,4.0453984 13.116574,3.8843245 C 13.285906,3.7232538 13.520287,3.6427176 13.819717,3.6427158 M 16.576534,3.7387398 L 16.576534,4.1909818 C 16.501159,4.1393572 16.425269,4.1011542 16.348865,4.0763725 C 16.27349,4.0515935 16.195018,4.0392033 16.113451,4.0392019 C 15.958573,4.0392033 15.837768,4.084634 15.751038,4.175494 C 15.665338,4.2653241 15.622489,4.3912909 15.62249,4.5533948 C 15.622489,4.7155005 15.665338,4.8419836 15.751038,4.9328444 C 15.837768,5.0226737 15.958573,5.0675881 16.113451,5.0675878 C 16.200181,5.0675881 16.282266,5.0546817 16.359706,5.0288684 C 16.438176,5.0030559 16.510452,4.9648529 16.576534,4.9142591 L 16.576534,5.3680499 C 16.489801,5.4000579 16.401521,5.4238057 16.311694,5.4392935 C 16.222896,5.4558137 16.133584,5.4640738 16.043756,5.4640739 C 15.730903,5.4640738 15.486197,5.3840539 15.309637,5.2240139 C 15.133077,5.0629418 15.044797,4.8394023 15.044797,4.5533948 C 15.044797,4.2673891 15.133077,4.0443659 15.309637,3.8843245 C 15.486197,3.7232538 15.730903,3.6427176 16.043756,3.6427158 C 16.134616,3.6427176 16.223929,3.6509777 16.311694,3.6674962 C 16.400489,3.6829857 16.488769,3.7067335 16.576534,3.7387398 M 17.883699,4.0392019 C 17.760829,4.0392033 17.66687,4.0836014 17.601823,4.1723965 C 17.537806,4.2601615 17.505798,4.3871608 17.505799,4.5533948 C 17.505798,4.7196306 17.537806,4.8471462 17.601823,4.935942 C 17.66687,5.0237062 17.760829,5.0675881 17.883699,5.0675878 C 18.004503,5.0675881 18.096913,5.0237062 18.16093,4.935942 C 18.224944,4.8471462 18.256952,4.7196306 18.256954,4.5533948 C 18.256952,4.3871608 18.224944,4.2601615 18.16093,4.1723965 C 18.096913,4.0836014 18.004503,4.0392033 17.883699,4.0392019 M 17.883699,3.6427158 C 18.182095,3.6427176 18.414927,3.7232538 18.582196,3.8843245 C 18.750495,4.0453984 18.834645,4.2684216 18.834647,4.5533948 C 18.834645,4.8383698 18.750495,5.061393 18.582196,5.2224651 C 18.414927,5.3835376 18.182095,5.4640738 17.883699,5.4640739 C 17.584269,5.4640738 17.349888,5.3835376 17.180556,5.2224651 C 17.012256,5.061393 16.928106,4.8383698 16.928106,4.5533948 C 16.928106,4.2684216 17.012256,4.0453984 17.180556,3.8843245 C 17.349888,3.7232538 17.584269,3.6427176 17.883699,3.6427158 M 20.016361,4.6385774 C 19.900718,4.6385782 19.813471,4.658196 19.754618,4.6974308 C 19.696797,4.7366671 19.667886,4.7944879 19.667887,4.8708935 C 19.667886,4.941105 19.691118,4.9963446 19.737582,5.0366123 C 19.785077,5.0758482 19.850641,5.095466 19.934276,5.0954657 C 20.038559,5.095466 20.126323,5.0582955 20.197568,4.983954 C 20.26881,4.9085808 20.304432,4.814622 20.304433,4.7020771 L 20.304433,4.6385774 L 20.016361,4.6385774 M 20.86354,4.4294929 L 20.86354,5.4191594 L 20.304433,5.4191594 L 20.304433,5.162063 C 20.230091,5.2673797 20.146457,5.3443021 20.053532,5.3928303 C 19.960604,5.440326 19.847544,5.4640738 19.71435,5.4640739 C 19.534692,5.4640738 19.388591,5.4119318 19.276047,5.3076477 C 19.164535,5.2023313 19.108779,5.0660393 19.10878,4.8987714 C 19.108779,4.6953665 19.178474,4.5461681 19.317864,4.4511758 C 19.458286,4.3561854 19.678211,4.3086897 19.977642,4.3086886 L 20.304433,4.3086886 L 20.304433,4.2653229 C 20.304432,4.1775603 20.269842,4.1135444 20.200665,4.0732749 C 20.131485,4.0319757 20.023588,4.0113254 19.876971,4.011324 C 19.758231,4.0113254 19.647752,4.0231993 19.545534,4.0469458 C 19.443314,4.070695 19.348323,4.1063168 19.260559,4.1538112 L 19.260559,3.7309959 C 19.379298,3.7020872 19.498554,3.6804044 19.618326,3.6659474 C 19.738097,3.6504615 19.857869,3.6427176 19.977642,3.6427158 C 20.290493,3.6427176 20.516097,3.7046685 20.654456,3.8285687 C 20.793844,3.9514395 20.863538,4.1517474 20.86354,4.4294929" id="text3390"/>
    <rect style="opacity:0.3;color:black;fill:#fcaf3e;fill-opacity:1;fill-rule:nonzero;stroke:none;stroke-width:1;stroke-linecap:square;stroke-linejoin:round;marker:none;marker-start:none;marker-mid:none;marker-end:none;stroke-miterlimit:6;stroke-dasharray:none;stroke-dashoffset:1.4;stroke-opacity:1;visibility:visible;display:inline;overflow:visible" id="rect3394" width="8" height="2" x="31" y="4"/>
    <g id="g3522">
      <path id="text3443" d="M 16.500046,34.000104 L 16.063707,34.000104 L 16.063707,33.280681 C 15.904284,33.345898 15.716395,33.394131 15.500037,33.425381 L 15.500037,33.252148 C 15.613909,33.235845 15.737617,33.205049 15.871159,33.159758 C 16.0047,33.114017 16.096315,33.060802 16.146005,33.000113 L 16.500046,33.000113 L 16.500046,34.000104" style="font-size:2.1034534px;font-style:normal;font-weight:bold;opacity:1;fill:white;fill-opacity:1;stroke:none;stroke-width:1px;stroke-linecap:butt;stroke-linejoin:miter;stroke-opacity:1;font-family:Arial"/>
      <path id="text3447" d="M 23.764759,33.822846 L 23.764759,34.000154 L 22.235241,34.000154 C 22.251803,33.933126 22.301494,33.869721 22.38431,33.809939 C 22.467127,33.749703 22.630689,33.669994 22.874998,33.57081 C 23.071687,33.490648 23.192287,33.4363 23.236803,33.407768 C 23.296844,33.368367 23.326865,33.329418 23.326867,33.290921 C 23.326865,33.248349 23.300468,33.215741 23.247673,33.193096 C 23.195911,33.169999 23.123964,33.15845 23.031832,33.158449 C 22.940733,33.15845 22.868269,33.170452 22.814439,33.194454 C 22.760607,33.218458 22.729552,33.258313 22.72127,33.314019 L 22.286482,33.294997 C 22.312363,33.189926 22.393627,33.114519 22.530275,33.068776 C 22.666921,33.023034 22.837731,33.000163 23.042701,33.000163 C 23.267341,33.000163 23.443843,33.026658 23.57221,33.079646 C 23.700574,33.132635 23.764758,33.198531 23.764759,33.277334 C 23.764758,33.322172 23.746124,33.36497 23.708858,33.40573 C 23.672624,33.446038 23.614651,33.488384 23.534943,33.532767 C 23.482146,33.562205 23.386906,33.604551 23.249226,33.659804 C 23.111541,33.715057 23.024067,33.751742 22.986801,33.769857 C 22.950568,33.787973 22.921064,33.805636 22.89829,33.822846 L 23.764759,33.822846" style="font-size:2.10345578px;font-style:normal;font-weight:bold;opacity:1;fill:white;fill-opacity:1;stroke:none;stroke-width:1px;stroke-linecap:butt;stroke-linejoin:miter;stroke-opacity:1;font-family:Arial"/>
      <path id="text3451" d="M 29.275646,33.73593 L 29.69801,33.713512 C 29.711467,33.760613 29.747699,33.796618 29.806708,33.821528 C 29.865713,33.846437 29.937143,33.858891 30.020996,33.858891 C 30.111058,33.858891 30.186627,33.843946 30.247706,33.814055 C 30.309818,33.784164 30.340873,33.743856 30.340875,33.693132 C 30.340873,33.645125 30.311371,33.607082 30.252365,33.579002 C 30.193357,33.550923 30.12141,33.536883 30.036524,33.536883 C 29.980621,33.536883 29.913851,33.541639 29.83621,33.551149 L 29.884348,33.395579 C 30.002361,33.396939 30.092424,33.385843 30.154538,33.362291 C 30.216649,33.338289 30.247706,33.306586 30.247706,33.267183 C 30.247706,33.23367 30.224931,33.206949 30.179383,33.187021 C 30.133833,33.167095 30.073272,33.157131 29.997704,33.15713 C 29.923167,33.157131 29.859502,33.168453 29.806708,33.191097 C 29.753912,33.213743 29.721821,33.246804 29.710433,33.290281 L 29.308256,33.26039 C 29.336206,33.200156 29.378131,33.152149 29.434033,33.11637 C 29.490968,33.080139 29.569645,33.051833 29.67006,33.031452 C 29.77151,33.010619 29.884865,33.000203 30.010126,33.000202 C 30.224412,33.000203 30.396258,33.030094 30.525659,33.089875 C 30.632285,33.138789 30.685598,33.194042 30.6856,33.255635 C 30.685598,33.343044 30.576384,33.41279 30.357956,33.464872 C 30.488391,33.477101 30.592429,33.504501 30.670071,33.547073 C 30.748745,33.589645 30.788083,33.641049 30.788085,33.701284 C 30.788083,33.788693 30.715101,33.863194 30.569139,33.924788 C 30.423172,33.986381 30.241493,34.017178 30.024101,34.017178 C 29.818094,34.017178 29.647285,33.991363 29.511673,33.939733 C 29.376062,33.88765 29.297385,33.819716 29.275646,33.73593" style="font-size:2.10345769px;font-style:normal;font-weight:bold;opacity:1;fill:white;fill-opacity:1;stroke:none;stroke-width:1px;stroke-linecap:butt;stroke-linejoin:miter;stroke-opacity:1;font-family:Arial"/>
      <path id="text3455" d="M 30.769506,27.248206 L 30.34714,27.268587 C 30.336787,27.230544 30.309871,27.202465 30.266394,27.184348 C 30.222914,27.166233 30.166494,27.157175 30.097137,27.157174 C 30.005002,27.157175 29.926844,27.17529 29.862662,27.211521 C 29.799513,27.247754 29.759658,27.323161 29.743096,27.437743 C 29.851792,27.381584 29.986887,27.353505 30.148379,27.353504 C 30.330574,27.353505 30.486374,27.383849 30.615777,27.444536 C 30.746211,27.505225 30.81143,27.583576 30.811431,27.679589 C 30.81143,27.781491 30.743105,27.863238 30.606459,27.924832 C 30.46981,27.986426 30.294342,28.017223 30.080056,28.017223 C 29.850239,28.017223 29.661312,27.978274 29.513279,27.900376 C 29.365243,27.822025 29.291226,27.693856 29.291226,27.515868 C 29.291226,27.333351 29.368349,27.201785 29.522595,27.121169 C 29.676841,27.040554 29.877153,27.000246 30.123534,27.000246 C 30.296414,27.000246 30.439272,27.021532 30.55211,27.064104 C 30.665983,27.106224 30.738447,27.167591 30.769506,27.248206 M 29.780362,27.664643 C 29.780362,27.72669 29.812971,27.774698 29.878189,27.808664 C 29.943407,27.842179 30.017942,27.858936 30.101795,27.858936 C 30.182541,27.858936 30.249828,27.845123 30.303662,27.817496 C 30.35749,27.78987 30.384406,27.74458 30.384408,27.681627 C 30.384406,27.616864 30.35542,27.569536 30.297449,27.539645 C 30.239476,27.509301 30.167012,27.494129 30.080056,27.494128 C 29.996203,27.494129 29.925291,27.508622 29.86732,27.537606 C 29.809347,27.566139 29.780362,27.608485 29.780362,27.664643" style="font-size:2.10346055px;font-style:normal;font-weight:bold;opacity:1;fill:white;fill-opacity:1;stroke:none;stroke-width:1px;stroke-linecap:butt;stroke-linejoin:miter;stroke-opacity:1;font-family:Arial"/>
      <path id="text3459" d="M 22.297487,27.744179 L 22.732276,27.724479 C 22.744698,27.767504 22.781448,27.801697 22.842526,27.827059 C 22.903603,27.851969 22.973997,27.864424 23.053709,27.864424 C 23.144807,27.864424 23.221929,27.848346 23.285078,27.81619 C 23.348225,27.783581 23.379799,27.734669 23.3798,27.669451 C 23.379799,27.608311 23.348225,27.562569 23.285078,27.532224 C 23.222965,27.501427 23.141702,27.486029 23.041286,27.486028 C 22.916024,27.486029 22.803704,27.510259 22.704325,27.558718 L 22.350283,27.5363 L 22.573889,27.01796 L 23.727631,27.01796 L 23.727631,27.196627 L 22.904639,27.196627 L 22.836314,27.365785 C 22.933624,27.344499 23.033004,27.333856 23.134455,27.333855 C 23.328038,27.333856 23.492119,27.364653 23.626698,27.426246 C 23.761274,27.487841 23.828563,27.567777 23.828565,27.666055 C 23.828563,27.748029 23.774214,27.821172 23.665518,27.885483 C 23.517482,27.973345 23.311993,28.017276 23.049051,28.017276 C 22.838902,28.017276 22.667574,27.992593 22.535067,27.943227 C 22.402561,27.893862 22.323368,27.827512 22.297487,27.744179" style="font-size:2.10346389px;font-style:normal;font-weight:bold;opacity:1;fill:white;fill-opacity:1;stroke:none;stroke-width:1px;stroke-linecap:butt;stroke-linejoin:miter;stroke-opacity:1;font-family:Arial"/>
      <path id="text3467" d="M 16.146912,28.000345 L 16.146912,27.799939 L 15.215221,27.799939 L 15.215221,27.632819 L 16.202814,27.000348 L 16.569278,27.000348 L 16.569278,27.63214 L 16.851892,27.63214 L 16.851892,27.799939 L 16.569278,27.799939 L 16.569278,28.000345 L 16.146912,28.000345 M 16.146912,27.63214 L 16.146912,27.291788 L 15.623613,27.63214 L 16.146912,27.63214" style="font-size:2.10346723px;font-style:normal;font-weight:bold;opacity:1;fill:white;fill-opacity:1;stroke:none;stroke-width:1px;stroke-linecap:butt;stroke-linejoin:miter;stroke-opacity:1;font-family:Arial"/>
      <path id="text3473" d="M 15.291336,21.19536 L 15.291336,21.01805 L 16.783598,21.01805 L 16.783598,21.156637 C 16.660405,21.209627 16.535144,21.285713 16.407815,21.384897 C 16.280482,21.484082 16.183172,21.589607 16.115884,21.701473 C 16.049629,21.812886 16.01702,21.912523 16.018057,22.000385 L 15.597243,22.000385 C 15.604487,21.862705 15.66919,21.722307 15.791344,21.579191 C 15.914535,21.436075 16.078615,21.308132 16.283589,21.19536 L 15.291336,21.19536" style="font-size:2.10347009px;font-style:normal;font-weight:bold;opacity:1;fill:white;fill-opacity:1;stroke:none;stroke-width:1px;stroke-linecap:butt;stroke-linejoin:miter;stroke-opacity:1;font-family:Arial"/>
      <path id="text3477" d="M 22.665601,21.463056 C 22.552762,21.442224 22.470462,21.413691 22.418702,21.377458 C 22.367975,21.340775 22.342614,21.300693 22.342614,21.257214 C 22.342614,21.182939 22.401621,21.121572 22.519636,21.07311 C 22.638685,21.024651 22.807425,21.000422 23.025856,21.00042 C 23.242215,21.000422 23.40992,21.024651 23.528971,21.07311 C 23.649054,21.121572 23.709097,21.182939 23.709098,21.257214 C 23.709097,21.30341 23.681664,21.344624 23.626798,21.380856 C 23.57193,21.416635 23.494807,21.444036 23.395428,21.463056 C 23.521723,21.485249 23.61748,21.517631 23.682701,21.560203 C 23.748953,21.602776 23.782079,21.651916 23.782081,21.707621 C 23.782079,21.799561 23.71479,21.874288 23.580214,21.931807 C 23.44667,21.989325 23.268613,22.018084 23.046042,22.018084 C 22.838999,22.018084 22.666635,21.994307 22.528952,21.946752 C 22.366423,21.890593 22.28516,21.8136 22.28516,21.715774 C 22.28516,21.661879 22.315698,21.612514 22.376776,21.567676 C 22.437853,21.522387 22.534129,21.487513 22.665601,21.463056 M 22.755665,21.270801 C 22.755663,21.308845 22.779992,21.33851 22.828647,21.359796 C 22.878337,21.381082 22.944073,21.391726 23.025856,21.391725 C 23.108672,21.391726 23.174926,21.381082 23.224617,21.359796 C 23.274306,21.338057 23.299151,21.308165 23.299152,21.270122 C 23.299151,21.234343 23.274306,21.205811 23.224617,21.184524 C 23.175961,21.162785 23.11126,21.151916 23.030514,21.151915 C 22.946661,21.151916 22.879889,21.162785 22.8302,21.184524 C 22.780509,21.206264 22.755663,21.235023 22.755665,21.270801 M 22.715292,21.697431 C 22.71529,21.749968 22.74583,21.790955 22.806908,21.820394 C 22.86902,21.849832 22.946144,21.864552 23.038279,21.864551 C 23.128341,21.864552 23.202876,21.850511 23.261885,21.822432 C 23.320892,21.793899 23.350394,21.752912 23.350396,21.699469 C 23.350394,21.652821 23.320373,21.615457 23.260332,21.587377 C 23.200288,21.558845 23.1242,21.544578 23.032067,21.544578 C 22.925439,21.544578 22.845727,21.560657 22.792932,21.592812 C 22.74117,21.624968 22.71529,21.659841 22.715292,21.697431" style="font-size:2.10347342px;font-style:normal;font-weight:bold;opacity:1;fill:white;fill-opacity:1;stroke:none;stroke-width:1px;stroke-linecap:butt;stroke-linejoin:miter;stroke-opacity:1;font-family:Arial"/>
      <path id="text3481" d="M 29.300734,21.770157 L 29.723103,21.749777 C 29.733454,21.787367 29.76037,21.815221 29.80385,21.833336 C 29.847329,21.851453 29.904783,21.86051 29.976214,21.86051 C 30.066276,21.86051 30.142883,21.842394 30.206032,21.806162 C 30.269179,21.76993 30.309552,21.694749 30.327153,21.580619 C 30.217418,21.636325 30.080252,21.664179 29.915653,21.664178 C 29.73656,21.664179 29.581796,21.634061 29.451359,21.573825 C 29.321956,21.513137 29.257256,21.434332 29.257256,21.337411 C 29.257256,21.236415 29.32558,21.15512 29.462228,21.093525 C 29.599912,21.031479 29.774863,21.000455 29.987083,21.000454 C 30.217935,21.000455 30.40738,21.039631 30.555418,21.117981 C 30.703452,21.195881 30.77747,21.324278 30.777472,21.503172 C 30.77747,21.685239 30.700346,21.816579 30.546101,21.897195 C 30.391852,21.977811 30.191019,22.018119 29.943605,22.018119 C 29.765547,22.018119 29.621652,21.997512 29.511918,21.956298 C 29.402185,21.914632 29.331791,21.852584 29.300734,21.770157 M 30.288331,21.353036 C 30.288331,21.291443 30.255722,21.243662 30.190504,21.209693 C 30.126319,21.175727 30.051784,21.158743 29.966897,21.158743 C 29.886149,21.158743 29.81886,21.172783 29.76503,21.200862 C 29.712232,21.22849 29.685835,21.274006 29.685835,21.337411 C 29.685835,21.401724 29.714821,21.449052 29.772793,21.479395 C 29.830765,21.509287 29.90323,21.524233 29.990188,21.524232 C 30.074041,21.524233 30.144436,21.50974 30.201373,21.480754 C 30.259344,21.451769 30.288331,21.409197 30.288331,21.353036" style="font-size:2.10347676px;font-style:normal;font-weight:bold;opacity:1;fill:white;fill-opacity:1;stroke:none;stroke-width:1px;stroke-linecap:butt;stroke-linejoin:miter;stroke-opacity:1;font-family:Arial"/>
      <path id="text3485" d="M 23.028762,39.000222 C 23.249261,39.000223 23.421623,39.034643 23.545849,39.103482 C 23.693883,39.185004 23.767899,39.320193 23.767901,39.50905 C 23.767899,39.697455 23.693364,39.83287 23.544296,39.915297 C 23.421105,39.983232 23.249261,40.017199 23.028762,40.017199 C 22.807227,40.017199 22.628654,39.980061 22.493042,39.905787 C 22.357429,39.831059 22.289623,39.698134 22.289623,39.507012 C 22.289623,39.319514 22.364158,39.184551 22.513229,39.102124 C 22.636417,39.03419 22.808263,39.000223 23.028762,39.000222 M 23.028762,39.158509 C 22.975966,39.15851 22.928863,39.165983 22.887456,39.180927 C 22.846047,39.195421 22.813956,39.221689 22.791182,39.259731 C 22.76116,39.309098 22.746149,39.392204 22.746151,39.50905 C 22.746149,39.625898 22.759608,39.706286 22.786524,39.750217 C 22.813438,39.793695 22.847083,39.82268 22.887456,39.837173 C 22.928863,39.851666 22.975966,39.858912 23.028762,39.858912 C 23.081556,39.858912 23.128659,39.851666 23.170069,39.837173 C 23.211476,39.822227 23.243567,39.795733 23.266342,39.75769 C 23.296363,39.708777 23.311373,39.625898 23.311374,39.50905 C 23.311373,39.392204 23.297916,39.312042 23.271001,39.268562 C 23.244084,39.224633 23.209923,39.195421 23.168515,39.180927 C 23.128142,39.165983 23.081556,39.15851 23.028762,39.158509" style="font-size:2.10345864px;font-style:normal;font-weight:bold;opacity:1;fill:white;fill-opacity:1;stroke:none;stroke-width:1px;stroke-linecap:butt;stroke-linejoin:miter;stroke-opacity:1;font-family:Arial"/>
    </g>
  </g>
</svg>
