<?xml version="1.0" encoding="UTF-8" standalone="no"?>
<!-- Created with Inkscape (http://www.inkscape.org/) -->
<svg xmlns:dc="http://purl.org/dc/elements/1.1/" xmlns:cc="http://web.resource.org/cc/" xmlns:rdf="http://www.w3.org/1999/02/22-rdf-syntax-ns#" xmlns:svg="http://www.w3.org/2000/svg" xmlns="http://www.w3.org/2000/svg" xmlns:xlink="http://www.w3.org/1999/xlink" xmlns:sodipodi="http://sodipodi.sourceforge.net/DTD/sodipodi-0.dtd" xmlns:inkscape="http://www.inkscape.org/namespaces/inkscape" width="48px" height="48px" id="svg1306" sodipodi:version="0.32" inkscape:version="0.44" sodipodi:docbase="/home/lapo/Icone/cvs/gnome-icon-theme/scalable/mimetypes" sodipodi:docname="image-x-generic.svg" inkscape:output_extension="org.inkscape.output.svg.inkscape">
  <defs id="defs1308">
    <linearGradient inkscape:collect="always" id="linearGradient4616">
      <stop style="stop-color:#2e3436;stop-opacity:1;" offset="0" id="stop4618"/>
      <stop style="stop-color:#2e3436;stop-opacity:0;" offset="1" id="stop4620"/>
    </linearGradient>
    <linearGradient id="linearGradient4928">
      <stop id="stop4930" offset="0" style="stop-color:#fce94f;stop-opacity:1;"/>
      <stop id="stop4932" offset="1" style="stop-color:#fce94f;stop-opacity:0;"/>
    </linearGradient>
    <linearGradient inkscape:collect="always" id="linearGradient2807">
      <stop style="stop-color:#d3d7cf" offset="0" id="stop2809"/>
      <stop style="stop-color:#eeeeec" offset="1" id="stop2811"/>
    </linearGradient>
    <linearGradient inkscape:collect="always" id="linearGradient2065">
      <stop style="stop-color:#555753" offset="0" id="stop2067"/>
      <stop style="stop-color:#fcaf3e" offset="1" id="stop2069"/>
    </linearGradient>
    <linearGradient inkscape:collect="always" xlink:href="#linearGradient2065" id="linearGradient2071" x1="-11.986486" y1="13.122552" x2="-11.986486" y2="29.726542" gradientUnits="userSpaceOnUse" gradientTransform="translate(36.00000,2.980232e-8)"/>
    <linearGradient inkscape:collect="always" xlink:href="#linearGradient2807" id="linearGradient2813" x1="34.197105" y1="33.725819" x2="17.160702" y2="17.396523" gradientUnits="userSpaceOnUse"/>
    <radialGradient inkscape:collect="always" xlink:href="#linearGradient4928" id="radialGradient4915" cx="-6.0070167" cy="32.837029" fx="-6.0070167" fy="32.837029" r="9.90625" gradientTransform="matrix(1,-1.487184e-8,1.425535e-8,0.958546,22.7158,1.575973)" gradientUnits="userSpaceOnUse"/>
    <linearGradient inkscape:collect="always" xlink:href="#linearGradient4616" id="linearGradient4622" x1="25.355263" y1="34.006802" x2="25.355263" y2="32.409008" gradientUnits="userSpaceOnUse"/>
  </defs>
  <g id="layer1" inkscape:label="Layer 1" inkscape:groupmode="layer">
    <g id="g3799" transform="matrix(1.055093,0,0,1,-167.2219,125.75)" inkscape:r_cx="true" inkscape:r_cy="true" style="opacity:0.58241763">
      <path inkscape:r_cy="true" inkscape:r_cx="true" id="path1196" style="opacity:0.04787233;fill-rule:evenodd;stroke-width:3pt" d="M 162.36286,-88.911137 C 160.1183,-88.911137 158.3113,-86.711005 158.3113,-83.978106 C 158.3113,-81.245207 160.1183,-79.045075 162.36286,-79.045075 L 199.63718,-79.045075 C 201.88174,-79.045075 203.68873,-81.245207 203.68873,-83.978106 C 203.68873,-86.711005 201.88174,-88.911137 199.63718,-88.911137 L 162.36286,-88.911137 z "/>
      <path inkscape:r_cy="true" inkscape:r_cx="true" id="path1195" style="opacity:0.04787233;fill-rule:evenodd;stroke-width:3pt" d="M 162.36286,-88.582269 C 160.26794,-88.582269 158.58141,-86.528812 158.58141,-83.978106 C 158.58141,-81.4274 160.26794,-79.373944 162.36286,-79.373944 L 199.63718,-79.373944 C 201.7321,-79.373944 203.41863,-81.4274 203.41863,-83.978106 C 203.41863,-86.528812 201.7321,-88.582269 199.63718,-88.582269 L 162.36286,-88.582269 z "/>
      <path inkscape:r_cy="true" inkscape:r_cx="true" id="path1194" style="opacity:0.04787233;fill-rule:evenodd;stroke-width:3pt" d="M 162.36286,-88.2534 C 160.41757,-88.2534 158.85151,-86.346619 158.85151,-83.978106 C 158.85151,-81.609593 160.41757,-79.702812 162.36286,-79.702812 L 199.63718,-79.702812 C 201.58246,-79.702812 203.14853,-81.609593 203.14853,-83.978106 C 203.14853,-86.346619 201.58246,-88.2534 199.63718,-88.2534 L 162.36286,-88.2534 z "/>
      <path inkscape:r_cy="true" inkscape:r_cx="true" id="path1193" style="opacity:0.04787233;fill-rule:evenodd;stroke-width:3pt" d="M 162.36286,-87.924531 C 160.56721,-87.924531 159.12162,-86.164426 159.12162,-83.978106 C 159.12162,-81.791787 160.56721,-80.031681 162.36286,-80.031681 L 199.63718,-80.031681 C 201.43283,-80.031681 202.87842,-81.791787 202.87842,-83.978106 C 202.87842,-86.164426 201.43283,-87.924531 199.63718,-87.924531 L 162.36286,-87.924531 z "/>
      <path inkscape:r_cy="true" inkscape:r_cx="true" id="path1192" style="opacity:0.04787233;fill-rule:evenodd;stroke-width:3pt" d="M 162.36309,-87.595662 C 160.71708,-87.595662 159.39195,-85.982232 159.39195,-83.978106 C 159.39195,-81.97398 160.71708,-80.36055 162.36309,-80.36055 L 199.63707,-80.36055 C 201.28308,-80.36055 202.60821,-81.97398 202.60821,-83.978106 C 202.60821,-85.982232 201.28308,-87.595662 199.63707,-87.595662 L 162.36309,-87.595662 z "/>
      <path inkscape:r_cy="true" inkscape:r_cx="true" id="path1191" style="opacity:0.04787233;fill-rule:evenodd;stroke-width:3pt" d="M 162.36286,-87.266794 C 160.86649,-87.266794 159.66182,-85.800039 159.66182,-83.978106 C 159.66182,-82.156173 160.86649,-80.689419 162.36286,-80.689419 L 199.63718,-80.689419 C 201.13355,-80.689419 202.33821,-82.156173 202.33821,-83.978106 C 202.33821,-85.800039 201.13355,-87.266794 199.63718,-87.266794 L 162.36286,-87.266794 z "/>
      <path inkscape:r_cy="true" inkscape:r_cx="true" id="path1190" style="opacity:0.04787233;fill-rule:evenodd;stroke-width:3pt" d="M 162.36286,-86.937925 C 161.01612,-86.937925 159.93193,-85.617846 159.93193,-83.978106 C 159.93193,-82.338367 161.01612,-81.018287 162.36286,-81.018287 L 199.63718,-81.018287 C 200.98391,-81.018287 202.06811,-82.338367 202.06811,-83.978106 C 202.06811,-85.617846 200.98391,-86.937925 199.63718,-86.937925 L 162.36286,-86.937925 z "/>
      <path inkscape:r_cy="true" inkscape:r_cx="true" id="path1189" style="opacity:0.04787233;fill-rule:evenodd;stroke-width:3pt" d="M 162.36286,-86.609056 C 161.16576,-86.609056 160.20203,-85.435652 160.20203,-83.978106 C 160.20203,-82.52056 161.16576,-81.347156 162.36286,-81.347156 L 199.63718,-81.347156 C 200.83428,-81.347156 201.79801,-82.52056 201.79801,-83.978106 C 201.79801,-85.435652 200.83428,-86.609056 199.63718,-86.609056 L 162.36286,-86.609056 z "/>
    </g>
    <rect style="opacity:1.0000000;fill:url(#linearGradient2813);fill-opacity:1.0;stroke:#8a8a8a;stroke-width:0.99999928;stroke-linecap:round;stroke-linejoin:round;stroke-miterlimit:4.0000000;stroke-dasharray:none;stroke-dashoffset:0.0000000;stroke-opacity:1" id="rect2073" width="42.997345" height="39.998409" x="2.5000000" y="3.4999995" rx="3.9374998" ry="3.9374998"/>
    <rect style="opacity:1.0000000;fill:url(#linearGradient2071);fill-opacity:1.0000000;stroke:#888a85;stroke-width:0.99999994;stroke-linecap:round;stroke-linejoin:round;stroke-miterlimit:4.0000000;stroke-dasharray:none;stroke-dashoffset:0.0000000;stroke-opacity:1.0000000" id="rect2063" width="35.027027" height="24.000000" x="6.5000000" y="11.500000" rx="0.43750024" ry="0.43750000"/>
    <path style="opacity:1;color:#000000;fill:url(#radialGradient4915);fill-opacity:1.0;fill-rule:evenodd;stroke:none;stroke-width:1;stroke-linecap:round;stroke-linejoin:round;marker:none;marker-start:none;marker-mid:none;marker-end:none;stroke-miterlimit:4;stroke-dasharray:none;stroke-dashoffset:0;stroke-opacity:1;visibility:visible;display:inline;overflow:visible" d="M 16.083789,22.551777 C 10.91501,22.879732 6.8025384,27.206965 6.8025384,32.458027 C 6.8025384,32.660812 6.8217484,32.852002 6.8337884,33.051777 L 26.583789,33.051777 C 26.59583,32.852002 26.615039,32.660812 26.615039,32.458027 C 26.615039,26.993506 22.17331,22.551777 16.708789,22.551777 C 16.495331,22.551777 16.293902,22.538446 16.083789,22.551777 z " id="path4898" inkscape:r_cx="true" inkscape:r_cy="true"/>
    <rect style="opacity:1.0000000;fill:url(#linearGradient4622);fill-opacity:1.0;stroke:none;stroke-width:1.0000000;stroke-linecap:round;stroke-linejoin:round;stroke-miterlimit:4.0000000;stroke-dasharray:none;stroke-dashoffset:0.0000000;stroke-opacity:1.0000000" id="rect1324" width="34.000000" height="2.0000000" x="7.0000000" y="33.000000" rx="0.0000000" ry="0.0000000"/>
    <rect style="opacity:1.0000000;fill:none;fill-opacity:1.0000000;stroke:#ffffff;stroke-width:0.99999964;stroke-linecap:round;stroke-linejoin:round;stroke-miterlimit:4.0000000;stroke-dasharray:none;stroke-dashoffset:0.0000000;stroke-opacity:1.0000000" id="rect2077" width="41.042816" height="38.047207" x="3.4799283" y="4.4772015" rx="3.0803583" ry="3.0803583"/>
    <path style="fill:#000000;fill-opacity:1.0000000;fill-rule:evenodd;stroke:none;stroke-width:1.0000000px;stroke-linecap:butt;stroke-linejoin:miter;stroke-opacity:1.0000000" d="M 29.555584,33.972272 C 29.555584,33.972272 29,30.888917 29,29 C 29.015409,28.138301 36.786707,21.425391 36.806757,20.425476 L 35,22 L 33.734835,18.558058 L 38,19 L 40,17 L 37.734835,18.662913 L 36.955806,18.486136 L 36,15 L 36.486136,18.397748 L 32.955806,18.220971 L 34.06066,21.032932 L 31,18 L 34.237437,22.221464 C 34.237522,23.162992 27.856563,28.910666 27.867417,27.919597 L 25.220971,24.370019 L 25,19.571429 L 27,19 L 28.752155,14.679379 L 26.442435,18.672694 L 24.639267,18.59099 L 20.602879,15.181981 L 15.06066,13.06066 L 19.795495,15.662913 L 16,16 L 21,16 L 24,19 L 24.353553,24.181981 L 19,19 L 21.251301,21.707107 L 18,24 L 21.571429,22 L 27.220971,29.116117 L 27,33.972272 L 29.555584,33.972272 z " id="path2079" sodipodi:nodetypes="cccccccccccccccccccccccccccccccccccc"/>
    <path inkscape:r_cy="true" inkscape:r_cx="true" id="path4924" d="M 16.367734,27.233668 C 13.547195,27.412629 11.30307,29.773947 11.30307,32.639387 C 11.30307,32.750044 11.313552,32.854374 11.320122,32.963389 L 22.097455,32.963389 C 22.104026,32.854374 22.114508,32.750044 22.114508,32.639387 C 22.114508,29.657465 19.690711,27.233668 16.708789,27.233668 C 16.592307,27.233668 16.48239,27.226393 16.367734,27.233668 z " style="opacity:1;color:#000000;fill:#fef39e;fill-opacity:1;fill-rule:evenodd;stroke:none;stroke-width:1;stroke-linecap:round;stroke-linejoin:round;marker:none;marker-start:none;marker-mid:none;marker-end:none;stroke-miterlimit:4;stroke-dasharray:none;stroke-dashoffset:0;stroke-opacity:1;visibility:visible;display:inline;overflow:visible"/>
    <path style="opacity:1;color:#000000;fill:#fffbd7;fill-opacity:0.55681817;fill-rule:evenodd;stroke:none;stroke-width:1;stroke-linecap:round;stroke-linejoin:round;marker:none;marker-start:none;marker-mid:none;marker-end:none;stroke-miterlimit:4;stroke-dasharray:none;stroke-dashoffset:0;stroke-opacity:1;visibility:visible;display:inline;overflow:visible" d="M 16.448682,28.531973 C 14.297594,28.668459 12.586109,30.469322 12.586109,32.654654 C 12.586109,32.739046 12.594104,32.818614 12.599114,32.901754 L 20.818463,32.901754 C 20.823474,32.818614 20.831469,32.739046 20.831469,32.654654 C 20.831469,30.380487 18.982957,28.531973 16.708789,28.531973 C 16.619954,28.531973 16.536126,28.526426 16.448682,28.531973 z " id="path4926" inkscape:r_cx="true" inkscape:r_cy="true"/>
  </g>
</svg>
