<?xml version="1.0" encoding="UTF-8" standalone="no"?>
<!-- Created with Inkscape (http://www.inkscape.org/) -->
<svg xmlns:dc="http://purl.org/dc/elements/1.1/" xmlns:cc="http://web.resource.org/cc/" xmlns:rdf="http://www.w3.org/1999/02/22-rdf-syntax-ns#" xmlns:svg="http://www.w3.org/2000/svg" xmlns="http://www.w3.org/2000/svg" xmlns:xlink="http://www.w3.org/1999/xlink" xmlns:sodipodi="http://sodipodi.sourceforge.net/DTD/sodipodi-0.dtd" xmlns:inkscape="http://www.inkscape.org/namespaces/inkscape" width="48" height="48" id="svg2" sodipodi:version="0.32" inkscape:version="0.44" version="1.0" sodipodi:docbase="/home/lapo/Icone/cvs/gnome-icon-theme/scalable/actions" sodipodi:docname="help-faq.svg" inkscape:output_extension="org.inkscape.output.svg.inkscape">
  <defs id="defs4">
    <linearGradient inkscape:collect="always" id="linearGradient3100">
      <stop style="stop-color:#eeeeec;stop-opacity:1" offset="0" id="stop3102"/>
      <stop style="stop-color:white;stop-opacity:1" offset="1" id="stop3104"/>
    </linearGradient>
    <linearGradient inkscape:collect="always" id="linearGradient3075">
      <stop style="stop-color:black;stop-opacity:1;" offset="0" id="stop3077"/>
      <stop style="stop-color:black;stop-opacity:0;" offset="1" id="stop3079"/>
    </linearGradient>
    <linearGradient inkscape:collect="always" xlink:href="#linearGradient3100" id="linearGradient3255" gradientUnits="userSpaceOnUse" gradientTransform="matrix(2.083509,0,0,1.903226,-0.794382,15.54839)" x1="6.2186141" y1="4.0344343" x2="6.2186141" y2="9.68291"/>
    <radialGradient inkscape:collect="always" xlink:href="#linearGradient3075" id="radialGradient3271" gradientUnits="userSpaceOnUse" gradientTransform="matrix(1,0,0,0.554113,0,8.025974)" cx="7.21875" cy="18" fx="7.21875" fy="18" r="7.21875"/>
    <radialGradient inkscape:collect="always" xlink:href="#linearGradient3075" id="radialGradient3292" gradientUnits="userSpaceOnUse" gradientTransform="matrix(1,0,0,0.554113,0,8.025974)" cx="7.21875" cy="18" fx="7.21875" fy="18" r="7.21875"/>
    <linearGradient inkscape:collect="always" xlink:href="#linearGradient3100" id="linearGradient3294" gradientUnits="userSpaceOnUse" gradientTransform="matrix(2.083509,0,0,1.903226,-0.794382,15.54839)" x1="6.2186141" y1="4.0344343" x2="6.2186141" y2="9.68291"/>
    <radialGradient inkscape:collect="always" xlink:href="#linearGradient3075" id="radialGradient3308" gradientUnits="userSpaceOnUse" gradientTransform="matrix(1,0,0,0.554113,0,8.025974)" cx="7.21875" cy="18" fx="7.21875" fy="18" r="7.21875"/>
    <linearGradient inkscape:collect="always" xlink:href="#linearGradient3100" id="linearGradient3310" gradientUnits="userSpaceOnUse" gradientTransform="matrix(2.083509,0,0,1.903226,-0.794382,15.54839)" x1="6.2186141" y1="4.0344343" x2="6.2186141" y2="9.68291"/>
  </defs>
  <g inkscape:label="Livello 1" inkscape:groupmode="layer" id="layer1">
    <g id="g2138" transform="translate(21,173)"/>
    <g id="g3248" transform="matrix(2.074433,0,0,1.931125,63.62304,305.1745)"/>
    <g id="g3312" style="opacity:0.7">
      <g style="opacity:0.6" transform="translate(-6,-15)" id="g3296">
        <path sodipodi:type="arc" style="opacity:0.15;fill:url(#radialGradient3308);fill-opacity:1;stroke:none;stroke-width:2;stroke-linecap:round;stroke-linejoin:round;stroke-miterlimit:4;stroke-dasharray:none;stroke-dashoffset:0;stroke-opacity:1" id="path3298" sodipodi:cx="7.21875" sodipodi:cy="18" sodipodi:rx="7.21875" sodipodi:ry="4" d="M 14.4375 18 A 7.21875 4 0 1 1  0,18 A 7.21875 4 0 1 1  14.4375 18 z" transform="matrix(2.030696,0,0,2.061435,5,1.546145)"/>
        <path sodipodi:nodetypes="ccccccccccc" style="fill:url(#linearGradient3310);fill-opacity:1;fill-rule:evenodd;stroke:#888a85;stroke-width:0.99999994px;stroke-linecap:butt;stroke-linejoin:miter;stroke-opacity:1" d="M 11.836888,16.500001 C 8.8782083,16.500001 6.4978968,18.674341 6.4978968,21.377017 L 6.4978968,32.558471 C 6.4978968,35.261147 8.8782083,37.435487 11.836888,37.435487 L 16.91544,37.435487 L 30.458247,46.000005 L 27.788752,37.138108 C 29.908188,36.491944 31.500001,34.717243 31.500001,32.558471 L 31.500001,21.377017 C 31.500001,18.674341 29.05458,16.500001 26.095901,16.500001 L 11.836888,16.500001 z " id="path3300"/>
        <path sodipodi:type="inkscape:offset" inkscape:radius="-1" inkscape:original="M 11.9375 16.5 C 8.9917082 16.499999 6.59375 18.672324 6.59375 21.375 L 6.59375 32.5625 C 6.5937501 35.265175 8.991708 37.4375 11.9375 37.4375 L 16.96875 37.4375 L 30.46875 46 L 27.8125 37.125 C 29.922705 36.478837 31.5 34.721272 31.5 32.5625 L 31.5 21.375 C 31.5 18.672325 29.070792 16.5 26.125 16.5 L 11.9375 16.5 z " style="fill:none;fill-opacity:1;fill-rule:evenodd;stroke:white;stroke-width:0.9979164px;stroke-linecap:butt;stroke-linejoin:miter;stroke-opacity:1" id="path3302" d="M 11.9375,17.5 C 9.4833306,17.499999 7.59375,19.263826 7.59375,21.375 L 7.59375,32.5625 C 7.5937501,34.673673 9.4833302,36.4375 11.9375,36.4375 L 16.96875,36.4375 C 17.15701,36.438543 17.341153,36.492702 17.5,36.59375 L 28.71875,43.71875 L 26.84375,37.40625 C 26.766722,37.149292 26.796153,36.872161 26.92543,36.637112 C 27.054707,36.402062 27.272992,36.228801 27.53125,36.15625 C 29.289435,35.617879 30.5,34.234176 30.5,32.5625 L 30.5,21.375 C 30.5,19.271536 28.57917,17.5 26.125,17.5 L 11.9375,17.5 z " transform="matrix(1.00418,0,0,1,-0.127496,0)"/>
        <path style="font-size:24.39787865px;font-style:normal;font-weight:normal;opacity:1;fill:#729fcf;fill-opacity:1;stroke:none;stroke-width:1px;stroke-linecap:butt;stroke-linejoin:miter;stroke-opacity:1;font-family:Bitstream Vera Sans Mono" d="M 19.938404,30.098361 L 18.1224,30.098361 L 18.1224,28.98384 C 18.122396,28.496543 18.211136,28.096088 18.38862,27.782474 C 18.566097,27.468869 18.940073,27.1046 19.510549,26.689665 L 20.366259,26.045558 C 20.727552,25.789852 20.987433,25.548614 21.145904,25.321842 C 21.3107,25.095087 21.393102,24.863498 21.393109,24.627077 C 21.393102,24.197681 21.183929,23.850299 20.765589,23.584927 C 20.353575,23.319574 19.805289,23.186894 19.120727,23.186885 C 18.619975,23.186894 18.084364,23.271327 17.513896,23.440184 C 16.949759,23.609061 16.360272,23.855123 15.745432,24.178374 L 15.745432,22.81779 C 16.341256,22.542789 16.943421,22.337736 17.551928,22.202632 C 18.166766,22.067549 18.800624,22.000003 19.453502,21.999993 C 20.619795,22.000003 21.554735,22.234004 22.258325,22.701995 C 22.968238,23.170007 23.323199,23.787577 23.323208,24.554706 C 23.323199,24.921396 23.209104,25.271191 22.980924,25.604091 C 22.752726,25.932183 22.353396,26.303689 21.782931,26.718613 L 20.946239,27.341008 C 20.64832,27.567777 20.435976,27.746293 20.309212,27.876556 C 20.188772,28.002006 20.103201,28.125036 20.052498,28.245651 C 20.014461,28.346976 19.985938,28.470006 19.966928,28.614746 C 19.947906,28.759492 19.938399,28.957308 19.938404,29.208191 L 19.938404,30.098361" id="path3304" sodipodi:nodetypes="cccsccsssssccsssssccssscc"/>
        <path style="font-size:24.39787865px;font-style:normal;font-weight:normal;opacity:1;fill:#729fcf;fill-opacity:1;stroke:none;stroke-width:1px;stroke-linecap:butt;stroke-linejoin:miter;stroke-opacity:1;font-family:Bitstream Vera Sans Mono" d="M 18.065353,31.162221 L 19.995451,31.162221 L 19.995451,33.000457 L 18.065353,33.000457 L 18.065353,31.162221" id="path3306" sodipodi:nodetypes="ccccc"/>
      </g>
      <g transform="translate(16,-12)" id="g3280">
        <path sodipodi:type="arc" style="opacity:0.15;fill:url(#radialGradient3292);fill-opacity:1;stroke:none;stroke-width:2;stroke-linecap:round;stroke-linejoin:round;stroke-miterlimit:4;stroke-dasharray:none;stroke-dashoffset:0;stroke-opacity:1" id="path3282" sodipodi:cx="7.21875" sodipodi:cy="18" sodipodi:rx="7.21875" sodipodi:ry="4" d="M 14.4375 18 A 7.21875 4 0 1 1  0,18 A 7.21875 4 0 1 1  14.4375 18 z" transform="matrix(2.030696,0,0,2.061435,5,1.546145)"/>
        <path sodipodi:nodetypes="ccccccccccc" style="fill:url(#linearGradient3294);fill-opacity:1;fill-rule:evenodd;stroke:#888a85;stroke-width:0.99999994px;stroke-linecap:butt;stroke-linejoin:miter;stroke-opacity:1" d="M 11.836888,16.500001 C 8.8782083,16.500001 6.4978968,18.674341 6.4978968,21.377017 L 6.4978968,32.558471 C 6.4978968,35.261147 8.8782083,37.435487 11.836888,37.435487 L 16.91544,37.435487 L 30.458247,46.000005 L 27.788752,37.138108 C 29.908188,36.491944 31.500001,34.717243 31.500001,32.558471 L 31.500001,21.377017 C 31.500001,18.674341 29.05458,16.500001 26.095901,16.500001 L 11.836888,16.500001 z " id="path3284"/>
        <path sodipodi:type="inkscape:offset" inkscape:radius="-1" inkscape:original="M 11.9375 16.5 C 8.9917082 16.499999 6.59375 18.672324 6.59375 21.375 L 6.59375 32.5625 C 6.5937501 35.265175 8.991708 37.4375 11.9375 37.4375 L 16.96875 37.4375 L 30.46875 46 L 27.8125 37.125 C 29.922705 36.478837 31.5 34.721272 31.5 32.5625 L 31.5 21.375 C 31.5 18.672325 29.070792 16.5 26.125 16.5 L 11.9375 16.5 z " style="fill:none;fill-opacity:1;fill-rule:evenodd;stroke:white;stroke-width:0.9979164px;stroke-linecap:butt;stroke-linejoin:miter;stroke-opacity:1" id="path3286" d="M 11.9375,17.5 C 9.4833306,17.499999 7.59375,19.263826 7.59375,21.375 L 7.59375,32.5625 C 7.5937501,34.673673 9.4833302,36.4375 11.9375,36.4375 L 16.96875,36.4375 C 17.15701,36.438543 17.341153,36.492702 17.5,36.59375 L 28.71875,43.71875 L 26.84375,37.40625 C 26.766722,37.149292 26.796153,36.872161 26.92543,36.637112 C 27.054707,36.402062 27.272992,36.228801 27.53125,36.15625 C 29.289435,35.617879 30.5,34.234176 30.5,32.5625 L 30.5,21.375 C 30.5,19.271536 28.57917,17.5 26.125,17.5 L 11.9375,17.5 z " transform="matrix(1.00418,0,0,1,-0.127496,0)"/>
        <path style="font-size:24.39787865px;font-style:normal;font-weight:normal;opacity:1;fill:#729fcf;fill-opacity:1;stroke:none;stroke-width:1px;stroke-linecap:butt;stroke-linejoin:miter;stroke-opacity:1;font-family:Bitstream Vera Sans Mono" d="M 19.938404,30.098361 L 18.1224,30.098361 L 18.1224,28.98384 C 18.122396,28.496543 18.211136,28.096088 18.38862,27.782474 C 18.566097,27.468869 18.940073,27.1046 19.510549,26.689665 L 20.366259,26.045558 C 20.727552,25.789852 20.987433,25.548614 21.145904,25.321842 C 21.3107,25.095087 21.393102,24.863498 21.393109,24.627077 C 21.393102,24.197681 21.183929,23.850299 20.765589,23.584927 C 20.353575,23.319574 19.805289,23.186894 19.120727,23.186885 C 18.619975,23.186894 18.084364,23.271327 17.513896,23.440184 C 16.949759,23.609061 16.360272,23.855123 15.745432,24.178374 L 15.745432,22.81779 C 16.341256,22.542789 16.943421,22.337736 17.551928,22.202632 C 18.166766,22.067549 18.800624,22.000003 19.453502,21.999993 C 20.619795,22.000003 21.554735,22.234004 22.258325,22.701995 C 22.968238,23.170007 23.323199,23.787577 23.323208,24.554706 C 23.323199,24.921396 23.209104,25.271191 22.980924,25.604091 C 22.752726,25.932183 22.353396,26.303689 21.782931,26.718613 L 20.946239,27.341008 C 20.64832,27.567777 20.435976,27.746293 20.309212,27.876556 C 20.188772,28.002006 20.103201,28.125036 20.052498,28.245651 C 20.014461,28.346976 19.985938,28.470006 19.966928,28.614746 C 19.947906,28.759492 19.938399,28.957308 19.938404,29.208191 L 19.938404,30.098361" id="path3288" sodipodi:nodetypes="cccsccsssssccsssssccssscc"/>
        <path style="font-size:24.39787865px;font-style:normal;font-weight:normal;opacity:1;fill:#729fcf;fill-opacity:1;stroke:none;stroke-width:1px;stroke-linecap:butt;stroke-linejoin:miter;stroke-opacity:1;font-family:Bitstream Vera Sans Mono" d="M 18.065353,31.162221 L 19.995451,31.162221 L 19.995451,33.000457 L 18.065353,33.000457 L 18.065353,31.162221" id="path3290" sodipodi:nodetypes="ccccc"/>
      </g>
    </g>
    <g id="g3273">
      <path transform="matrix(2.030696,0,0,2.061435,5,1.546145)" d="M 14.4375 18 A 7.21875 4 0 1 1  0,18 A 7.21875 4 0 1 1  14.4375 18 z" sodipodi:ry="4" sodipodi:rx="7.21875" sodipodi:cy="18" sodipodi:cx="7.21875" id="path3269" style="opacity:0.15;fill:url(#radialGradient3271);fill-opacity:1;stroke:none;stroke-width:2;stroke-linecap:round;stroke-linejoin:round;stroke-miterlimit:4;stroke-dasharray:none;stroke-dashoffset:0;stroke-opacity:1" sodipodi:type="arc"/>
      <path id="path3244" d="M 11.836888,16.500001 C 8.8782083,16.500001 6.4978968,18.674341 6.4978968,21.377017 L 6.4978968,32.558471 C 6.4978968,35.261147 8.8782083,37.435487 11.836888,37.435487 L 16.91544,37.435487 L 30.458247,46.000005 L 27.788752,37.138108 C 29.908188,36.491944 31.500001,34.717243 31.500001,32.558471 L 31.500001,21.377017 C 31.500001,18.674341 29.05458,16.500001 26.095901,16.500001 L 11.836888,16.500001 z " style="fill:url(#linearGradient3255);fill-opacity:1;fill-rule:evenodd;stroke:#888a85;stroke-width:0.99999994px;stroke-linecap:butt;stroke-linejoin:miter;stroke-opacity:1" sodipodi:nodetypes="ccccccccccc"/>
      <path transform="matrix(1.00418,0,0,1,-0.127496,0)" d="M 11.9375,17.5 C 9.4833306,17.499999 7.59375,19.263826 7.59375,21.375 L 7.59375,32.5625 C 7.5937501,34.673673 9.4833302,36.4375 11.9375,36.4375 L 16.96875,36.4375 C 17.15701,36.438543 17.341153,36.492702 17.5,36.59375 L 28.71875,43.71875 L 26.84375,37.40625 C 26.766722,37.149292 26.796153,36.872161 26.92543,36.637112 C 27.054707,36.402062 27.272992,36.228801 27.53125,36.15625 C 29.289435,35.617879 30.5,34.234176 30.5,32.5625 L 30.5,21.375 C 30.5,19.271536 28.57917,17.5 26.125,17.5 L 11.9375,17.5 z " id="path3261" style="fill:none;fill-opacity:1;fill-rule:evenodd;stroke:white;stroke-width:0.9979164px;stroke-linecap:butt;stroke-linejoin:miter;stroke-opacity:1" inkscape:original="M 11.9375 16.5 C 8.9917082 16.499999 6.59375 18.672324 6.59375 21.375 L 6.59375 32.5625 C 6.5937501 35.265175 8.991708 37.4375 11.9375 37.4375 L 16.96875 37.4375 L 30.46875 46 L 27.8125 37.125 C 29.922705 36.478837 31.5 34.721272 31.5 32.5625 L 31.5 21.375 C 31.5 18.672325 29.070792 16.5 26.125 16.5 L 11.9375 16.5 z " inkscape:radius="-1" sodipodi:type="inkscape:offset"/>
      <path sodipodi:nodetypes="cccsccsssssccsssssccssscc" id="path3265" d="M 19.938404,30.098361 L 18.1224,30.098361 L 18.1224,28.98384 C 18.122396,28.496543 18.211136,28.096088 18.38862,27.782474 C 18.566097,27.468869 18.940073,27.1046 19.510549,26.689665 L 20.366259,26.045558 C 20.727552,25.789852 20.987433,25.548614 21.145904,25.321842 C 21.3107,25.095087 21.393102,24.863498 21.393109,24.627077 C 21.393102,24.197681 21.183929,23.850299 20.765589,23.584927 C 20.353575,23.319574 19.805289,23.186894 19.120727,23.186885 C 18.619975,23.186894 18.084364,23.271327 17.513896,23.440184 C 16.949759,23.609061 16.360272,23.855123 15.745432,24.178374 L 15.745432,22.81779 C 16.341256,22.542789 16.943421,22.337736 17.551928,22.202632 C 18.166766,22.067549 18.800624,22.000003 19.453502,21.999993 C 20.619795,22.000003 21.554735,22.234004 22.258325,22.701995 C 22.968238,23.170007 23.323199,23.787577 23.323208,24.554706 C 23.323199,24.921396 23.209104,25.271191 22.980924,25.604091 C 22.752726,25.932183 22.353396,26.303689 21.782931,26.718613 L 20.946239,27.341008 C 20.64832,27.567777 20.435976,27.746293 20.309212,27.876556 C 20.188772,28.002006 20.103201,28.125036 20.052498,28.245651 C 20.014461,28.346976 19.985938,28.470006 19.966928,28.614746 C 19.947906,28.759492 19.938399,28.957308 19.938404,29.208191 L 19.938404,30.098361" style="font-size:24.39787865px;font-style:normal;font-weight:normal;opacity:1;fill:#729fcf;fill-opacity:1;stroke:none;stroke-width:1px;stroke-linecap:butt;stroke-linejoin:miter;stroke-opacity:1;font-family:Bitstream Vera Sans Mono"/>
      <path sodipodi:nodetypes="ccccc" id="path3267" d="M 18.065353,31.162221 L 19.995451,31.162221 L 19.995451,33.000457 L 18.065353,33.000457 L 18.065353,31.162221" style="font-size:24.39787865px;font-style:normal;font-weight:normal;opacity:1;fill:#729fcf;fill-opacity:1;stroke:none;stroke-width:1px;stroke-linecap:butt;stroke-linejoin:miter;stroke-opacity:1;font-family:Bitstream Vera Sans Mono"/>
    </g>
  </g>
</svg>
