<?xml version="1.0" encoding="UTF-8" standalone="no"?>
<!-- Created with Inkscape (http://www.inkscape.org/) -->
<svg xmlns:dc="http://purl.org/dc/elements/1.1/" xmlns:cc="http://web.resource.org/cc/" xmlns:rdf="http://www.w3.org/1999/02/22-rdf-syntax-ns#" xmlns:svg="http://www.w3.org/2000/svg" xmlns="http://www.w3.org/2000/svg" xmlns:xlink="http://www.w3.org/1999/xlink" xmlns:sodipodi="http://sodipodi.sourceforge.net/DTD/sodipodi-0.dtd" xmlns:inkscape="http://www.inkscape.org/namespaces/inkscape" width="48" height="48" id="svg1" sodipodi:version="0.32" inkscape:version="0.44" sodipodi:docbase="/home/lapo/Icone/cvs/gnome-icon-theme/scalable/places" sodipodi:docname="user-trash.svg" version="1.0" inkscape:output_extension="org.inkscape.output.svg.inkscape">
  <defs id="defs3">
    <linearGradient id="linearGradient4524">
      <stop style="stop-color:#417ac3;stop-opacity:1;" offset="0" id="stop4526"/>
      <stop style="stop-color:#3465a4;stop-opacity:1;" offset="1" id="stop4528"/>
    </linearGradient>
    <linearGradient inkscape:collect="always" id="linearGradient5411">
      <stop style="stop-color:#ffffff;stop-opacity:1;" offset="0" id="stop5413"/>
      <stop style="stop-color:#ffffff;stop-opacity:0;" offset="1" id="stop5415"/>
    </linearGradient>
    <linearGradient inkscape:collect="always" id="linearGradient4211">
      <stop style="stop-color:#000000;stop-opacity:1;" offset="0" id="stop4213"/>
      <stop style="stop-color:#000000;stop-opacity:0;" offset="1" id="stop4215"/>
    </linearGradient>
    <linearGradient id="linearGradient1877">
      <stop style="stop-color:#000000;stop-opacity:0.17964073;" offset="0.0000000" id="stop1878"/>
      <stop style="stop-color:#000000;stop-opacity:0.0000000;" offset="1.0000000" id="stop1879"/>
    </linearGradient>
    <linearGradient id="linearGradient1869">
      <stop style="stop-color:#eff3f4;stop-opacity:1.0000000;" offset="0.0000000" id="stop1870"/>
      <stop style="stop-color:#939596;stop-opacity:1.0000000;" offset="1.0000000" id="stop1871"/>
    </linearGradient>
    <linearGradient inkscape:collect="always" xlink:href="#linearGradient1869" id="linearGradient1872" gradientTransform="matrix(1.436131,0,0,0.475306,-6.508085,6.805509)" x1="-4.6375198" y1="104.38752" x2="-4.523921" y2="110.61378" gradientUnits="userSpaceOnUse"/>
    <linearGradient inkscape:collect="always" xlink:href="#linearGradient1877" id="linearGradient1894" gradientUnits="userSpaceOnUse" gradientTransform="matrix(-0.358726,0,0,1.867845,-36.85125,41.4295)" x1="-84.334358" y1="9.5548248" x2="-84.334358" y2="12.485031"/>
    <radialGradient inkscape:collect="always" xlink:href="#linearGradient4211" id="radialGradient4217" cx="18.738329" cy="41.63604" fx="18.738329" fy="41.63604" r="21.743534" gradientTransform="matrix(1,0,0,0.333333,0,27.75736)" gradientUnits="userSpaceOnUse"/>
    <linearGradient inkscape:collect="always" xlink:href="#linearGradient5411" id="linearGradient5417" x1="-17.000057" y1="73.479156" x2="-19.345716" y2="98.479156" gradientUnits="userSpaceOnUse" gradientTransform="matrix(1,0,0,0.979216,0,1.222246)"/>
    <linearGradient inkscape:collect="always" xlink:href="#linearGradient4524" id="linearGradient4530" x1="-33.22401" y1="71.791658" x2="7.1282601" y2="71.791658" gradientUnits="userSpaceOnUse"/>
  </defs>
  <g inkscape:groupmode="layer" id="layer2" inkscape:label="Shadow">
    <path sodipodi:type="arc" style="opacity:1;color:#000000;fill:url(#radialGradient4217);fill-opacity:1;fill-rule:evenodd;stroke:none;stroke-width:0.99999982px;stroke-linecap:round;stroke-linejoin:round;marker:none;marker-start:none;marker-mid:none;marker-end:none;stroke-miterlimit:4;stroke-dasharray:none;stroke-dashoffset:0;stroke-opacity:1;visibility:visible;display:inline;overflow:visible" id="path3336" sodipodi:cx="18.738329" sodipodi:cy="41.63604" sodipodi:rx="21.743534" sodipodi:ry="7.2478447" d="M 40.481863 41.63604 A 21.743534 7.2478447 0 1 1  -3.0052052,41.63604 A 21.743534 7.2478447 0 1 1  40.481863 41.63604 z" transform="translate(5.303301,-0.707107)"/>
  </g>
  <g inkscape:label="Pixmap Background" inkscape:groupmode="layer" id="layer1"/>
  <g inkscape:label="Layer 1" inkscape:groupmode="layer" id="g1623" transform="translate(37.06885,-41.11763)">
    <path style="fill:url(#linearGradient4530);fill-opacity:1.0;fill-rule:evenodd;stroke:#204a87;stroke-width:1.02320302;stroke-linecap:butt;stroke-linejoin:miter;stroke-miterlimit:4;stroke-opacity:1" d="M -32.711617,57.920772 C -32.75484,57.886856 -31.013657,82.319708 -31.013161,82.327116 C -30.849819,84.76715 -29.478625,85.658942 -27.943864,85.662576 C -27.889022,85.6627 0.84900065,85.659434 1.4612656,85.656892 C 4.0458711,85.64616 4.6790717,84.093225 4.8490952,82.396482 C 4.8627317,82.363025 6.603023,57.954228 6.6166586,57.920772 C -6.4927658,57.920772 -19.602191,57.920772 -32.711617,57.920772 z " id="path1751" sodipodi:nodetypes="ccccccc" inkscape:r_cx="true" inkscape:r_cy="true"/>
    <path sodipodi:nodetypes="ccccccc" id="path4536" d="M -31.487684,58.804659 C -31.528216,58.773117 -29.957445,81.748687 -29.957445,81.748687 C -29.80427,84.018051 -29.080923,84.602662 -27.64169,84.606042 C -27.64169,84.606042 0.3590203,84.603118 0.93317605,84.600756 C 3.3569079,84.590774 3.6381962,83.207662 3.797637,81.629598 C 3.797637,81.629598 5.379895,58.835775 5.3926819,58.804659 C -6.9007726,58.804659 -19.194228,58.804659 -31.487684,58.804659 z " style="opacity:0.32967033;fill:none;fill-opacity:1;fill-rule:evenodd;stroke:url(#linearGradient5417);stroke-width:1.02320278;stroke-linecap:butt;stroke-linejoin:miter;stroke-miterlimit:4;stroke-opacity:1" inkscape:r_cx="true" inkscape:r_cy="true"/>
    <path style="fill:url(#linearGradient1872);fill-opacity:1;fill-rule:evenodd;stroke:#555555;stroke-width:1.02320313;stroke-linecap:butt;stroke-linejoin:miter;stroke-miterlimit:4;stroke-opacity:1" d="M -29.082499,45.829563 C -30.106321,45.831929 -30.963179,45.85588 -31.429903,46.84186 C -31.511024,47.013232 -33.983709,53.968498 -34.102588,54.233742 C -35.120311,56.50448 -34.181763,59.364893 -32.216058,59.345744 C -31.84223,59.342218 6.518454,59.363478 7.1133033,59.345744 C 8.7866141,59.296726 9.0007434,55.984399 8.2803939,54.494337 C 8.2395836,54.40992 4.8963639,46.747074 4.8110968,46.611348 C 4.4167208,46.005189 3.5335502,45.739533 2.8775216,45.764414 C 2.7482894,45.769438 -28.954598,45.829269 -29.082499,45.829563 z " id="path1841" sodipodi:nodetypes="cssssscss" inkscape:r_cx="true" inkscape:r_cy="true"/>
    <path style="color:#000000;fill:#204a87;fill-opacity:1;fill-rule:evenodd;stroke:none;stroke-width:0;stroke-linecap:butt;stroke-linejoin:miter;marker:none;marker-start:none;marker-mid:none;marker-end:none;stroke-miterlimit:4;stroke-dashoffset:0;stroke-opacity:1;visibility:visible;display:block" d="M -28.904114,47.210295 C -29.869702,47.197065 -29.932579,47.157501 -30.149937,47.881742 C -30.200113,48.048927 -32.221643,54.630972 -32.300884,54.88639 C -32.570366,55.755015 -32.189294,55.984256 -31.254099,55.966598 C -30.922809,55.960343 5.359423,55.966598 5.8868702,55.966598 C 6.6356452,55.966598 6.8577579,55.705163 6.6886176,55.088159 C 6.6198886,54.837443 3.8056452,47.809751 3.7300723,47.684596 C 3.3805322,47.125649 3.4411517,47.127276 2.8306245,47.119396 C 2.7160102,47.117916 -28.790763,47.211847 -28.904114,47.210295 z " id="path1864" sodipodi:nodetypes="cssssscss" inkscape:r_cx="true" inkscape:r_cy="true"/>
    <path style="color:#000000;fill:#132c52;fill-opacity:1;fill-rule:evenodd;stroke:none;stroke-width:0;stroke-linecap:butt;stroke-linejoin:miter;marker:none;marker-start:none;marker-mid:none;marker-end:none;stroke-miterlimit:4;stroke-dashoffset:0;stroke-opacity:1;visibility:visible;display:block" d="M -29.42274,47.202148 C -29.786334,47.23159 -29.961217,47.34586 -30.113402,47.853333 C -30.163578,48.020644 -32.182887,54.597959 -32.262128,54.85357 C -32.531611,55.722851 -32.17412,55.956548 -31.238926,55.938879 C -31.222726,55.938575 -29.323942,55.939131 -29.144207,55.938879 L -29.42274,47.202148 z " id="path1880" sodipodi:nodetypes="cccccc" inkscape:r_cx="true" inkscape:r_cy="true"/>
    <path style="color:#000000;fill:#729fcf;fill-opacity:1;fill-rule:evenodd;stroke:none;stroke-width:0;stroke-linecap:butt;stroke-linejoin:miter;marker:none;marker-start:none;marker-mid:none;marker-end:none;stroke-miterlimit:4;stroke-dashoffset:0;stroke-opacity:1;visibility:visible;display:block" d="M 2.8823282,47.11678 C 3.3242332,47.120782 3.4540015,47.111397 3.7365037,47.677324 C 3.7751374,47.754718 6.55447,54.735164 6.6542609,54.990551 C 6.9936352,55.974555 6.3472779,55.953979 5.3221031,55.982521 C 5.1273467,55.982217 2.8232902,55.959675 2.5969422,55.959422 L 2.8823282,47.11678 z " id="path1888" sodipodi:nodetypes="cscccc" inkscape:r_cx="true" inkscape:r_cy="true"/>
    <path style="color:#000000;fill:url(#linearGradient1894);fill-opacity:1;fill-rule:nonzero;stroke:none;stroke-width:0;stroke-linecap:butt;stroke-linejoin:miter;marker:none;marker-start:none;marker-mid:none;marker-end:none;stroke-miterlimit:4;stroke-dashoffset:0;stroke-opacity:1;visibility:visible;display:block" d="M 5.8674719,59.783199 L -29.241178,59.84715 C -2.6592192,60.465334 2.5633795,63.385727 5.8035217,63.236509 L 5.8674719,59.783199 z " id="path1893" sodipodi:nodetypes="cccc"/>
  </g>
</svg>
