<?xml version="1.0" encoding="UTF-8" standalone="no"?>
<!-- Created with Inkscape (http://www.inkscape.org/) -->
<svg xmlns:dc="http://purl.org/dc/elements/1.1/" xmlns:cc="http://web.resource.org/cc/" xmlns:rdf="http://www.w3.org/1999/02/22-rdf-syntax-ns#" xmlns:svg="http://www.w3.org/2000/svg" xmlns="http://www.w3.org/2000/svg" xmlns:xlink="http://www.w3.org/1999/xlink" xmlns:sodipodi="http://sodipodi.sourceforge.net/DTD/sodipodi-0.dtd" xmlns:inkscape="http://www.inkscape.org/namespaces/inkscape" width="48" height="48" id="svg2" sodipodi:version="0.32" inkscape:version="0.44" version="1.0" sodipodi:docbase="/home/lapo/Icone/cvs/gnome-icon-theme/scalable/apps" sodipodi:docname="logviewer.svg" inkscape:output_extension="org.inkscape.output.svg.inkscape">
  <defs id="defs4">
    <linearGradient id="linearGradient3455">
      <stop style="stop-color:black;stop-opacity:0;" offset="0" id="stop3457"/>
      <stop id="stop3463" offset="0.5" style="stop-color:black;stop-opacity:1;"/>
      <stop style="stop-color:black;stop-opacity:0;" offset="1" id="stop3459"/>
    </linearGradient>
    <linearGradient inkscape:collect="always" id="linearGradient3441">
      <stop style="stop-color:black;stop-opacity:1;" offset="0" id="stop3443"/>
      <stop style="stop-color:black;stop-opacity:0;" offset="1" id="stop3445"/>
    </linearGradient>
    <linearGradient id="linearGradient3058">
      <stop style="stop-color:#babdb6;stop-opacity:1" offset="0" id="stop3060"/>
      <stop style="stop-color:#eeeeec;stop-opacity:1" offset="1" id="stop3062"/>
    </linearGradient>
    <linearGradient id="linearGradient3048">
      <stop style="stop-color:white;stop-opacity:1;" offset="0" id="stop3050"/>
      <stop id="stop3056" offset="0.12643678" style="stop-color:#eeeeec;stop-opacity:1;"/>
      <stop style="stop-color:white;stop-opacity:1;" offset="1" id="stop3052"/>
    </linearGradient>
    <linearGradient id="linearGradient3040">
      <stop style="stop-color:white;stop-opacity:1;" offset="0" id="stop3042"/>
      <stop style="stop-color:white;stop-opacity:1;" offset="1" id="stop3044"/>
    </linearGradient>
    <linearGradient id="linearGradient3032">
      <stop style="stop-color:white;stop-opacity:1;" offset="0" id="stop3034"/>
      <stop style="stop-color:white;stop-opacity:0;" offset="1" id="stop3036"/>
    </linearGradient>
    <linearGradient inkscape:collect="always" xlink:href="#linearGradient3032" id="linearGradient3038" x1="13.682637" y1="39.499584" x2="13.682637" y2="43.893162" gradientUnits="userSpaceOnUse"/>
    <linearGradient inkscape:collect="always" xlink:href="#linearGradient3040" id="linearGradient3046" x1="20.625" y1="10.247036" x2="21" y2="62.173271" gradientUnits="userSpaceOnUse"/>
    <linearGradient inkscape:collect="always" xlink:href="#linearGradient3048" id="linearGradient3054" x1="17.5" y1="6.5" x2="17.5" y2="40.753651" gradientUnits="userSpaceOnUse"/>
    <linearGradient inkscape:collect="always" xlink:href="#linearGradient3058" id="linearGradient3064" x1="12.75" y1="42.236084" x2="12.75" y2="39.045811" gradientUnits="userSpaceOnUse"/>
    <linearGradient inkscape:collect="always" id="linearGradient2759">
      <stop style="stop-color:#ffffff;stop-opacity:1;" offset="0" id="stop2761"/>
      <stop style="stop-color:#ffffff;stop-opacity:0;" offset="1" id="stop2763"/>
    </linearGradient>
    <linearGradient id="linearGradient2698">
      <stop style="stop-color:#555753" offset="0" id="stop2700"/>
      <stop id="stop2706" offset="0.70238096" style="stop-color:#a3a5a2;stop-opacity:1;"/>
      <stop style="stop-color:#888a85" offset="1" id="stop2702"/>
    </linearGradient>
    <linearGradient inkscape:collect="always" id="linearGradient2690">
      <stop style="stop-color:#2e3436" offset="0" id="stop2692"/>
      <stop style="stop-color:#555753" offset="1" id="stop2694"/>
    </linearGradient>
    <linearGradient inkscape:collect="always" id="linearGradient2670">
      <stop style="stop-color:#888a85;stop-opacity:1;" offset="0" id="stop2672"/>
      <stop style="stop-color:#555753" offset="1" id="stop2674"/>
    </linearGradient>
    <linearGradient id="linearGradient2635">
      <stop style="stop-color:#ffffff;stop-opacity:1;" offset="0" id="stop2637"/>
      <stop id="stop2655" offset="0.55952382" style="stop-color:#ffffff;stop-opacity:0.71951222;"/>
      <stop style="stop-color:#ffffff;stop-opacity:0;" offset="1" id="stop2639"/>
    </linearGradient>
    <linearGradient id="linearGradient2617">
      <stop style="stop-color:#fbfbfa;stop-opacity:1;" offset="0" id="stop2619"/>
      <stop style="stop-color:#d3d7cf" offset="1" id="stop2621"/>
    </linearGradient>
    <linearGradient inkscape:collect="always" id="linearGradient2609">
      <stop style="stop-color:#ffffff;stop-opacity:1" offset="0" id="stop2611"/>
      <stop style="stop-color:#eeeeec" offset="1" id="stop2613"/>
    </linearGradient>
    <linearGradient id="linearGradient2980" inkscape:collect="always">
      <stop id="stop2982" offset="0" style="stop-color:#000000;stop-opacity:1;"/>
      <stop id="stop2984" offset="1" style="stop-color:#000000;stop-opacity:0;"/>
    </linearGradient>
    <linearGradient id="linearGradient2992">
      <stop id="stop2994" offset="0" style="stop-color:#000000;stop-opacity:1;"/>
      <stop style="stop-color:#000000;stop-opacity:0.49803922;" offset="0.91666669" id="stop3000"/>
      <stop id="stop2996" offset="1" style="stop-color:#000000;stop-opacity:0;"/>
    </linearGradient>
    <linearGradient id="linearGradient2707" inkscape:collect="always">
      <stop id="stop2709" offset="0" style="stop-color:#000000;stop-opacity:1;"/>
      <stop id="stop2711" offset="1" style="stop-color:#000000;stop-opacity:0;"/>
    </linearGradient>
    <linearGradient inkscape:collect="always" xlink:href="#linearGradient2707" id="linearGradient3401" gradientUnits="userSpaceOnUse" x1="9.5" y1="26.5" x2="9.0625" y2="34.5625" gradientTransform="translate(1.0485,-6.541e-2)"/>
    <radialGradient inkscape:collect="always" xlink:href="#linearGradient2635" id="radialGradient3413" gradientUnits="userSpaceOnUse" gradientTransform="matrix(1.317389,0,0,1.317389,-20.57979,-12.04281)" cx="64.597321" cy="37.572186" fx="64.597321" fy="37.572186" r="9.25"/>
    <radialGradient inkscape:collect="always" xlink:href="#linearGradient2617" id="radialGradient3415" gradientUnits="userSpaceOnUse" gradientTransform="matrix(0,-1.686609,1.66336,0,41.65431,111.7396)" cx="59.787472" cy="10.901535" fx="59.787472" fy="10.901535" r="10.55559"/>
    <radialGradient inkscape:collect="always" xlink:href="#linearGradient2609" id="radialGradient3417" gradientUnits="userSpaceOnUse" gradientTransform="matrix(0,1.925926,-2.100716,-2.103013e-6,39.43594,-89.54261)" cx="45.094624" cy="-2.6936908" fx="45.094624" fy="-2.6936908" r="10.498367"/>
    <linearGradient inkscape:collect="always" xlink:href="#linearGradient2670" id="linearGradient3419" gradientUnits="userSpaceOnUse" x1="42.04528" y1="4.5" x2="62.95472" y2="4.5"/>
    <linearGradient inkscape:collect="always" xlink:href="#linearGradient2759" id="linearGradient3421" gradientUnits="userSpaceOnUse" x1="-19.5625" y1="31.99976" x2="-19.5625" y2="35.41238"/>
    <linearGradient inkscape:collect="always" xlink:href="#linearGradient2698" id="linearGradient3423" gradientUnits="userSpaceOnUse" x1="81.595871" y1="52.865707" x2="79.829956" y2="54.631626"/>
    <linearGradient inkscape:collect="always" xlink:href="#linearGradient2690" id="linearGradient3425" gradientUnits="userSpaceOnUse" x1="83.659676" y1="53.211559" x2="81.067772" y2="55.803459"/>
    <radialGradient inkscape:collect="always" xlink:href="#linearGradient2992" id="radialGradient3427" gradientUnits="userSpaceOnUse" cx="52.5" cy="4.5" fx="52.5" fy="4.5" r="10.909439"/>
    <radialGradient inkscape:collect="always" xlink:href="#linearGradient2980" id="radialGradient3429" gradientUnits="userSpaceOnUse" gradientTransform="matrix(1,0,0,0.34,0,19.89607)" cx="28.284271" cy="30.145554" fx="28.284271" fy="30.145554" r="13.258252"/>
    <radialGradient inkscape:collect="always" xlink:href="#linearGradient3441" id="radialGradient3470" gradientUnits="userSpaceOnUse" gradientTransform="matrix(2,0,0,1.333333,-21,-100.3333)" cx="6" cy="43.000008" fx="6" fy="43.000008" r="1.5"/>
    <radialGradient inkscape:collect="always" xlink:href="#linearGradient3441" id="radialGradient3472" gradientUnits="userSpaceOnUse" gradientTransform="matrix(2,0,0,1.333333,33,-14.3333)" cx="6" cy="43.000008" fx="6" fy="43.000008" r="1.5"/>
    <linearGradient inkscape:collect="always" xlink:href="#linearGradient3455" id="linearGradient3474" gradientUnits="userSpaceOnUse" gradientTransform="matrix(9,0,0,1,-72,0)" x1="10.53125" y1="40.999969" x2="10.53125" y2="45.001102"/>
  </defs>
  <g inkscape:label="Livello 1" inkscape:groupmode="layer" id="layer1">
    <g id="g3465" transform="matrix(0.999999,0,0,1.375,-1.999996,-16.375)" style="opacity:0.4">
      <rect transform="scale(-1,-1)" y="-45" x="-9" height="4" width="3" id="rect3431" style="opacity:1;fill:url(#radialGradient3470);fill-opacity:1;stroke:none;stroke-width:1;stroke-linecap:round;stroke-linejoin:miter;stroke-miterlimit:4;stroke-dasharray:none;stroke-dashoffset:0;stroke-opacity:1"/>
      <rect y="41" x="45" height="4" width="3" id="rect3449" style="opacity:1;fill:url(#radialGradient3472);fill-opacity:1;stroke:none;stroke-width:1;stroke-linecap:round;stroke-linejoin:miter;stroke-miterlimit:4;stroke-dasharray:none;stroke-dashoffset:0;stroke-opacity:1"/>
      <rect y="41" x="9" height="4" width="36" id="rect3453" style="opacity:1;fill:url(#linearGradient3474);fill-opacity:1;stroke:none;stroke-width:1;stroke-linecap:round;stroke-linejoin:miter;stroke-miterlimit:4;stroke-dasharray:none;stroke-dashoffset:0;stroke-opacity:1"/>
    </g>
    <path transform="matrix(0.829672,0,0,0.811093,-12.9953,17.82749)" d="M 41.542523 30.145554 A 13.258252 4.5078058 0 1 1  15.026019,30.145554 A 13.258252 4.5078058 0 1 1  41.542523 30.145554 z" sodipodi:ry="4.5078058" sodipodi:rx="13.258252" sodipodi:cy="30.145554" sodipodi:cx="28.284271" id="path2970" style="opacity:0.08235294;color:black;fill:url(#radialGradient3429);fill-opacity:1;fill-rule:nonzero;stroke:none;stroke-width:1;stroke-linecap:round;stroke-linejoin:round;marker:none;marker-start:none;marker-mid:none;marker-end:none;stroke-miterlimit:4;stroke-dasharray:none;stroke-dashoffset:0;stroke-opacity:1;visibility:visible;display:inline;overflow:visible" sodipodi:type="arc"/>
    <path style="fill:url(#linearGradient3054);fill-opacity:1.0;stroke:#888a85;stroke-width:1.00000048;stroke-linecap:round;stroke-linejoin:round;stroke-miterlimit:4;stroke-dashoffset:0;stroke-opacity:1" d="M 9,4.5 C 8.164637,4.5 7.5,8.0730565 7.5,12.5 L 7.5,43.5 L 42.5,43.5 L 42.5,12.5 C 42.5,8.0730568 41.835364,4.5 41,4.5 L 39.3125,4.5 L 39.75,5.5 L 37.75,5.5 L 37.3125,4.5 L 12.65625,4.5 L 12.21875,5.5 L 10.21875,5.5 L 10.65625,4.5 L 9,4.5 z M 9.75,7.5 L 11.75,7.5 L 11.5625,9.5 L 9.5625,9.5 L 9.75,7.5 z M 38.1875,7.5 L 40.1875,7.5 L 40.40625,9.5 L 38.40625,9.5 L 38.1875,7.5 z M 9.5,11.5 L 11.5,11.5 L 11.5,13.5 L 9.5,13.5 L 9.5,11.5 z M 38.5,11.5 L 40.5,11.5 L 40.5,13.5 L 38.5,13.5 L 38.5,11.5 z M 9.5,15.5 L 11.5,15.5 L 11.5,17.5 L 9.5,17.5 L 9.5,15.5 z M 38.5,15.5 L 40.5,15.5 L 40.5,17.5 L 38.5,17.5 L 38.5,15.5 z M 9.5,19.5 L 11.5,19.5 L 11.5,21.5 L 9.5,21.5 L 9.5,19.5 z M 38.5,19.5 L 40.5,19.5 L 40.5,21.5 L 38.5,21.5 L 38.5,19.5 z M 9.5,23.5 L 11.5,23.5 L 11.5,25.5 L 9.5,25.5 L 9.5,23.5 z M 38.5,23.5 L 40.5,23.5 L 40.5,25.5 L 38.5,25.5 L 38.5,23.5 z M 9.5,27.5 L 11.5,27.5 L 11.5,29.5 L 9.5,29.5 L 9.5,27.5 z M 38.5,27.5 L 40.5,27.5 L 40.5,29.5 L 38.5,29.5 L 38.5,27.5 z M 9.5,31.5 L 11.5,31.5 L 11.5,33.5 L 9.5,33.5 L 9.5,31.5 z M 38.5,31.5 L 40.5,31.5 L 40.5,33.5 L 38.5,33.5 L 38.5,31.5 z M 9.5,35.5 L 11.5,35.5 L 11.5,37.5 L 9.5,37.5 L 9.5,35.5 z M 38.5,35.5 L 40.5,35.5 L 40.5,37.5 L 38.5,37.5 L 38.5,35.5 z " id="rect1869"/>
    <path style="opacity:0.1;fill:#888a85;fill-opacity:1;stroke:none;stroke-width:1;stroke-linecap:round;stroke-linejoin:round;stroke-miterlimit:4;stroke-dasharray:none;stroke-dashoffset:0;stroke-opacity:1" d="M 9.0625,5 C 9.022063,5.0438271 8.951063,5.1727639 8.875,5.34375 C 8.798937,5.514736 8.73023,5.7318797 8.65625,6 L 10.21875,6 C 10.051578,6.0017299 9.906679,5.9193796 9.8125,5.78125 C 9.718321,5.6431203 9.687321,5.4674868 9.75,5.3125 L 9.875,5 L 9.0625,5 z M 13,5 L 12.6875,5.6875 C 12.610377,5.8781475 12.424395,6.0021357 12.21875,6 L 37.75,6 C 37.544355,6.0021357 37.358373,5.8781475 37.28125,5.6875 L 36.96875,5 L 13,5 z M 40.09375,5 L 40.21875,5.3125 C 40.281429,5.4674868 40.250429,5.6431204 40.15625,5.78125 C 40.062069,5.9193796 39.917172,6.0017299 39.75,6 L 41.34375,6 C 41.26977,5.7318797 41.201062,5.514736 41.125,5.34375 C 41.048937,5.1727639 40.977937,5.0438271 40.9375,5 L 40.09375,5 z M 8.25,8 C 8.170528,8.601359 8.140286,9.2852131 8.09375,10 L 9.5625,10 C 9.4243,10.000255 9.282217,9.9443873 9.1875,9.84375 C 9.092783,9.7431126 9.053877,9.6066808 9.0625,9.46875 L 9.1875,8 L 8.25,8 z M 12.21875,8 L 12.0625,9.53125 C 12.045952,9.7951072 11.826875,10.000492 11.5625,10 L 38.40625,10 C 38.15279,10.001965 37.937948,9.8139781 37.90625,9.5625 L 37.75,8 L 12.21875,8 z M 40.75,8 L 40.90625,9.4375 C 40.924261,9.5805525 40.877039,9.7359871 40.78125,9.84375 C 40.68546,9.9515129 40.550428,10.001115 40.40625,10 L 41.90625,10 C 41.859714,9.2852131 41.829472,8.601359 41.75,8 L 40.75,8 z M 8,12 C 7.9978861,12.168756 8,12.328423 8,12.5 L 8,14 L 9.5,14 C 9.223869,13.999972 9.000028,13.776131 9,13.5 L 9,12 L 8,12 z M 12,12 L 12,13.5 C 11.999972,13.776131 11.776131,13.999972 11.5,14 L 38.5,14 C 38.223869,13.999972 38.000028,13.776131 38,13.5 L 38,12 L 12,12 z M 41,12 L 41,13.5 C 40.999972,13.776131 40.776131,13.999972 40.5,14 L 42,14 L 42,12.5 C 42,12.328423 42.002114,12.168756 42,12 L 41,12 z M 8,16 L 8,18 L 9.5,18 C 9.223869,17.999972 9.000028,17.776131 9,17.5 L 9,16 L 8,16 z M 12,16 L 12,17.5 C 11.999972,17.776131 11.776131,17.999972 11.5,18 L 38.5,18 C 38.223869,17.999972 38.000028,17.776131 38,17.5 L 38,16 L 12,16 z M 41,16 L 41,17.5 C 40.999972,17.776131 40.776131,17.999972 40.5,18 L 42,18 L 42,16 L 41,16 z M 8,20 L 8,22 L 9.5,22 C 9.223869,21.999972 9.000028,21.776131 9,21.5 L 9,20 L 8,20 z M 12,20 L 12,21.5 C 11.999972,21.776131 11.776131,21.999972 11.5,22 L 38.5,22 C 38.223869,21.999972 38.000028,21.776131 38,21.5 L 38,20 L 12,20 z M 41,20 L 41,21.5 C 40.999972,21.776131 40.776131,21.999972 40.5,22 L 42,22 L 42,20 L 41,20 z M 8,24 L 8,26 L 9.5,26 C 9.223869,25.999972 9.000028,25.776131 9,25.5 L 9,24 L 8,24 z M 12,24 L 12,25.5 C 11.999972,25.776131 11.776131,25.999972 11.5,26 L 38.5,26 C 38.223869,25.999972 38.000028,25.776131 38,25.5 L 38,24 L 12,24 z M 41,24 L 41,25.5 C 40.999972,25.776131 40.776131,25.999972 40.5,26 L 42,26 L 42,24 L 41,24 z M 8,28 L 8,30 L 9.5,30 C 9.223869,29.999972 9.000028,29.776131 9,29.5 L 9,28 L 8,28 z M 12,28 L 12,29.5 C 11.999972,29.776131 11.776131,29.999972 11.5,30 L 38.5,30 C 38.223869,29.999972 38.000028,29.776131 38,29.5 L 38,28 L 12,28 z M 41,28 L 41,29.5 C 40.999972,29.776131 40.776131,29.999972 40.5,30 L 42,30 L 42,28 L 41,28 z M 8,32 L 8,34 L 9.5,34 C 9.223869,33.999972 9.000028,33.776131 9,33.5 L 9,32 L 8,32 z M 12,32 L 12,33.5 C 11.999972,33.776131 11.776131,33.999972 11.5,34 L 38.5,34 C 38.223869,33.999972 38.000028,33.776131 38,33.5 L 38,32 L 12,32 z M 41,32 L 41,33.5 C 40.999972,33.776131 40.776131,33.999972 40.5,34 L 42,34 L 42,32 L 41,32 z M 8,36 L 8,38 L 9.5,38 C 9.223869,37.999972 9.000028,37.776131 9,37.5 L 9,36 L 8,36 z M 12,36 L 12,37.5 C 11.999972,37.776131 11.776131,37.999972 11.5,38 L 38.5,38 C 38.223869,37.999972 38.000028,37.776131 38,37.5 L 38,36 L 12,36 z M 41,36 L 41,37.5 C 40.999972,37.776131 40.776131,37.999972 40.5,38 L 42,38 L 42,36 L 41,36 z " id="rect2981"/>
    <path sodipodi:type="inkscape:offset" inkscape:radius="-1" inkscape:original="M 9 4.5 C 8.1646365 4.5 7.5 8.073059 7.5 12.5 L 7.5 43.5 L 42.5 43.5 L 42.5 12.5 C 42.5 8.073057 41.835364 4.500001 41 4.5 L 39.3125 4.5 L 39.75 5.5 L 37.75 5.5 L 37.3125 4.5 L 12.65625 4.5 L 12.21875 5.5 L 10.21875 5.5 L 10.65625 4.5 L 9 4.5 z " style="fill:none;fill-opacity:1;stroke:url(#linearGradient3046);stroke-width:1;stroke-linecap:round;stroke-linejoin:round;stroke-miterlimit:4;stroke-dasharray:none;stroke-dashoffset:0;stroke-opacity:1" id="path3026" d="M 13.3125,5.5 L 13.125,5.90625 C 12.965567,6.2648243 12.61116,6.4970219 12.21875,6.5 L 10.21875,6.5 C 9.7714279,6.5040385 9.3758284,6.2105291 9.25,5.78125 C 9.1388522,6.0820354 9.0120104,6.4658103 8.90625,7.03125 C 8.6526916,8.3868801 8.5,10.336574 8.5,12.5 L 8.5,42.5 L 41.5,42.5 L 41.5,12.5 C 41.5,10.336573 41.347308,8.3868797 41.09375,7.03125 C 40.979941,6.4227789 40.835695,5.9840361 40.71875,5.6875 C 40.629709,6.1539943 40.224872,6.4935347 39.75,6.5 L 37.75,6.5 C 37.35759,6.4970219 37.003183,6.2648243 36.84375,5.90625 L 36.65625,5.5 L 13.3125,5.5 z "/>
    <path style="fill:url(#linearGradient3064);fill-opacity:1.0;stroke:#888a85;stroke-width:1.00000083;stroke-linecap:round;stroke-linejoin:round;stroke-miterlimit:4;stroke-dashoffset:0;stroke-opacity:1" d="M 5.5,37.5 C 5.5,40.824012 6,43.500001 7.5,43.5 L 42.5,43.5 C 44,43.5 44.5,40.824014 44.5,37.5 L 5.5,37.5 z M 7.5,39.5 L 9.5,39.5 C 9.472526,40.53082 9.585048,41.100183 9.75,41.5 L 7.75,41.5 C 7.5686811,41.127288 7.5356346,40.51289 7.5,39.5 z M 40.5,39.5 L 42.5,39.5 C 42.464365,40.51289 42.431318,41.127287 42.25,41.5 L 40.25,41.5 C 40.414952,41.100183 40.527474,40.530819 40.5,39.5 z " id="rect1871"/>
    <path style="opacity:0.1;fill:#888a85;fill-opacity:1;stroke:none;stroke-width:1;stroke-linecap:round;stroke-linejoin:round;stroke-miterlimit:4;stroke-dasharray:none;stroke-dashoffset:0;stroke-opacity:1" d="M 6.125,40 C 6.1834559,40.609366 6.2778852,41.148274 6.40625,41.59375 C 6.4509312,41.748812 6.5091807,41.865986 6.5625,42 L 7.75,42 C 7.563049,41.995433 7.3942702,41.886932 7.3125,41.71875 C 7.0956701,41.273043 7.0607802,40.721971 7.03125,40 L 6.125,40 z M 10,40 C 10.018193,40.660098 10.112137,41.054085 10.21875,41.3125 C 10.281429,41.467487 10.250429,41.64312 10.15625,41.78125 C 10.062071,41.91938 9.917172,42.00173 9.75,42 L 40.25,42 C 40.082828,42.00173 39.937929,41.91938 39.84375,41.78125 C 39.749573,41.64312 39.718571,41.467487 39.78125,41.3125 C 39.887863,41.054085 39.981807,40.660098 40,40 L 10,40 z M 42.96875,40 C 42.939219,40.721971 42.904328,41.273043 42.6875,41.71875 C 42.60573,41.886932 42.436951,41.995433 42.25,42 L 43.4375,42 C 43.490819,41.865986 43.549069,41.748811 43.59375,41.59375 C 43.722115,41.148274 43.816544,40.609366 43.875,40 L 42.96875,40 z " id="rect2999"/>
    <path sodipodi:type="inkscape:offset" inkscape:radius="-0.99436891" inkscape:original="M 5.5 37.5 C 5.5 40.824012 6 43.500001 7.5 43.5 L 42.5 43.5 C 44 43.5 44.5 40.824014 44.5 37.5 L 5.5 37.5 z " style="opacity:0.8;fill:none;fill-opacity:1;stroke:url(#linearGradient3038);stroke-width:0.99746299;stroke-linecap:round;stroke-linejoin:miter;stroke-miterlimit:4;stroke-dasharray:none;stroke-dashoffset:0;stroke-opacity:1" id="path3030" d="M 6.59375,38.5 C 6.6441049,39.625164 6.7083463,40.781946 6.90625,41.46875 C 7.0384942,41.92769 7.1946448,42.236574 7.3125,42.375 C 7.4303552,42.513426 7.4206578,42.5 7.5,42.5 L 42.5,42.5 C 42.579343,42.5 42.569645,42.513426 42.6875,42.375 C 42.805355,42.236574 42.961506,41.927689 43.09375,41.46875 C 43.291654,40.781946 43.355895,39.625165 43.40625,38.5 L 6.59375,38.5 z " transform="matrix(1.005094,0,0,1,-0.127337,0)"/>
    <path sodipodi:type="arc" style="opacity:0.19607843;color:black;fill:none;fill-opacity:1;fill-rule:nonzero;stroke:url(#radialGradient3427);stroke-width:1.81887877;stroke-linecap:round;stroke-linejoin:miter;marker:none;marker-start:none;marker-mid:none;marker-end:none;stroke-miterlimit:4;stroke-dasharray:none;stroke-dashoffset:0;stroke-opacity:1;visibility:visible;display:inline;overflow:visible" id="path2883" sodipodi:cx="52.5" sodipodi:cy="4.5" sodipodi:rx="10" sodipodi:ry="10" d="M 62.5 4.5 A 10 10 0 1 1  42.5,4.5 A 10 10 0 1 1  62.5 4.5 z" transform="matrix(1.099732,0,0,1.099425,-36.5853,14.92749)"/>
    <g id="g2637" inkscape:label="base" style="display:inline" transform="translate(-9.2166,47.43458)"/>
    <path id="path2694" d="M 13.0485,27.93459 L 9.2985,28.93459 L 8.0485,30.18459 L 8.0485,35.62209 C 9.44601,34.224558 11.98567,31.684841 12.01725,31.65334 L 13.0485,27.93459 z " style="opacity:0.2627451;color:black;fill:none;fill-opacity:1;fill-rule:nonzero;stroke:url(#linearGradient3401);stroke-width:2;stroke-linecap:round;stroke-linejoin:round;marker:none;marker-start:none;marker-mid:none;marker-end:none;stroke-miterlimit:4;stroke-dasharray:none;stroke-dashoffset:0;stroke-opacity:1;visibility:visible;display:inline;overflow:visible"/>
    <g transform="translate(-5.8467,-11.11935)" id="g1746">
      <g id="g1733">
        <path sodipodi:type="arc" style="color:black;fill:url(#radialGradient3413);fill-opacity:1;fill-rule:nonzero;stroke:none;stroke-width:2.5;stroke-linecap:round;stroke-linejoin:miter;marker:none;marker-start:none;marker-mid:none;marker-end:none;stroke-miterlimit:4;stroke-dasharray:none;stroke-dashoffset:0;stroke-opacity:1;visibility:visible;display:inline;overflow:visible" id="path2625" sodipodi:cx="66.75" sodipodi:cy="39.75" sodipodi:rx="9.25" sodipodi:ry="9.25" d="M 76 39.75 A 9.25 9.25 0 1 1  57.5,39.75 A 9.25 9.25 0 1 1  76 39.75 z" transform="matrix(0.811406,0,0,0.811406,-27.69436,-2.759138)"/>
        <path sodipodi:type="arc" style="color:black;fill:none;fill-opacity:1;fill-rule:nonzero;stroke:url(#radialGradient3415);stroke-width:2.56442523;stroke-linecap:round;stroke-linejoin:miter;marker:none;marker-start:none;marker-mid:none;marker-end:none;stroke-miterlimit:4;stroke-dasharray:none;stroke-dashoffset:0;stroke-opacity:1;visibility:visible;display:inline;overflow:visible" id="path2607" sodipodi:cx="52.5" sodipodi:cy="4.5" sodipodi:rx="10" sodipodi:ry="10" d="M 62.5 4.5 A 10 10 0 1 1  42.5,4.5 A 10 10 0 1 1  62.5 4.5 z" transform="matrix(0.974184,0,0,0.975571,-24.67502,25.11888)"/>
        <path sodipodi:type="arc" style="color:black;fill:none;fill-opacity:1;fill-rule:nonzero;stroke:url(#radialGradient3417);stroke-width:1.09640825;stroke-linecap:round;stroke-linejoin:miter;marker:none;marker-start:none;marker-mid:none;marker-end:none;stroke-miterlimit:4;stroke-dasharray:none;stroke-dashoffset:0;stroke-opacity:1;visibility:visible;display:inline;overflow:visible" id="path2605" sodipodi:cx="52.5" sodipodi:cy="4.5" sodipodi:rx="10" sodipodi:ry="10" d="M 62.5 4.5 A 10 10 0 1 1  42.5,4.5 A 10 10 0 1 1  62.5 4.5 z" transform="matrix(1.004337,0,0,1.002216,-26.2607,25.00091)"/>
        <path sodipodi:type="arc" style="color:black;fill:none;fill-opacity:1;fill-rule:nonzero;stroke:url(#linearGradient3419);stroke-width:0.90943909;stroke-linecap:round;stroke-linejoin:miter;marker:none;marker-start:none;marker-mid:none;marker-end:none;stroke-miterlimit:4;stroke-dasharray:none;stroke-dashoffset:0;stroke-opacity:1;visibility:visible;display:inline;overflow:visible" id="path2599" sodipodi:cx="52.5" sodipodi:cy="4.5" sodipodi:rx="10" sodipodi:ry="10" d="M 62.5 4.5 A 10 10 0 1 1  42.5,4.5 A 10 10 0 1 1  62.5 4.5 z" transform="matrix(1.099732,0,0,1.099425,-31.26893,24.54684)"/>
        <path sodipodi:type="arc" style="color:black;fill:white;fill-opacity:1;fill-rule:nonzero;stroke:none;stroke-width:2.5;stroke-linecap:round;stroke-linejoin:miter;marker:none;marker-start:none;marker-mid:none;marker-end:none;stroke-miterlimit:4;stroke-dasharray:none;stroke-dashoffset:0;stroke-opacity:1;visibility:visible;display:inline;overflow:visible" id="path2657" sodipodi:cx="64.5" sodipodi:cy="37.5" sodipodi:rx="3" sodipodi:ry="2.5" d="M 67.5 37.5 A 3 2.5 0 1 1  61.5,37.5 A 3 2.5 0 1 1  67.5 37.5 z" transform="matrix(0.499998,0,0,0.6,-8.78287,4.04133)"/>
        <path sodipodi:type="arc" style="opacity:0.8;color:black;fill:url(#linearGradient3421);fill-opacity:1;fill-rule:nonzero;stroke:none;stroke-width:1;stroke-linecap:round;stroke-linejoin:round;marker:none;marker-start:none;marker-mid:none;marker-end:none;stroke-miterlimit:4;stroke-dasharray:none;stroke-dashoffset:0;stroke-opacity:1;visibility:visible;display:inline;overflow:visible" id="path2735" sodipodi:cx="-19.5" sodipodi:cy="34.25" sodipodi:rx="5.5" sodipodi:ry="2.25" d="M -14 34.25 A 5.5 2.25 0 1 1  -25,34.25 A 5.5 2.25 0 1 1  -14 34.25 z" transform="matrix(1,0,0,1.777776,45.96699,-33.8475)"/>
      </g>
      <g transform="matrix(0,1,-1,0,67.94781,-38.97906)" id="g2708">
        <path style="color:black;fill:url(#linearGradient3423);fill-opacity:1;fill-rule:nonzero;stroke:url(#linearGradient3425);stroke-width:1.04188347;stroke-linecap:round;stroke-linejoin:round;marker:none;marker-start:none;marker-mid:none;marker-end:none;stroke-miterlimit:4;stroke-dashoffset:0;stroke-opacity:1;visibility:visible;display:inline;overflow:visible" d="M 76.5,49.46875 L 77.5,53.21875 L 82.65625,58.34375 C 82.665665,58.357369 82.676779,58.394183 82.6875,58.40625 C 82.693176,58.4119 82.712765,58.43223 82.71875,58.4375 C 82.794192,58.496224 82.918904,58.523816 83.03125,58.53125 C 83.471603,58.544313 84.149596,58.226665 84.6875,57.6875 C 85.365724,57.007682 85.663284,56.175765 85.4375,55.75 C 85.429072,55.735785 85.415974,55.700749 85.40625,55.6875 C 85.401062,55.681125 85.380517,55.662371 85.375,55.65625 C 85.375,55.65625 80.259677,50.541023 80.21875,50.5 L 76.5,49.46875 z " id="path2682" sodipodi:nodetypes="cccssssssccc"/>
        <path style="opacity:0.19215686;color:black;fill:white;fill-opacity:1;fill-rule:nonzero;stroke:none;stroke-width:0.99999964;stroke-linecap:round;stroke-linejoin:miter;marker:none;marker-start:none;marker-mid:none;marker-end:none;stroke-miterlimit:4;stroke-dashoffset:0;stroke-opacity:1;visibility:visible;display:inline;overflow:visible" d="M 79.925079,50.989164 C 80.194775,51.259495 79.975891,51.917693 79.436499,52.458357 C 78.8971,52.99902 78.22833,53.205673 77.970746,52.948089 L 77.25,50.235297 L 79.925079,50.989164 z " id="path2687" sodipodi:nodetypes="csccc"/>
      </g>
    </g>
  </g>
</svg>
