<?xml version="1.0" encoding="UTF-8" standalone="no"?>
<!-- Created with Inkscape (http://www.inkscape.org/) -->
<svg xmlns:dc="http://purl.org/dc/elements/1.1/" xmlns:cc="http://web.resource.org/cc/" xmlns:rdf="http://www.w3.org/1999/02/22-rdf-syntax-ns#" xmlns:svg="http://www.w3.org/2000/svg" xmlns="http://www.w3.org/2000/svg" xmlns:xlink="http://www.w3.org/1999/xlink" xmlns:sodipodi="http://sodipodi.sourceforge.net/DTD/sodipodi-0.dtd" xmlns:inkscape="http://www.inkscape.org/namespaces/inkscape" width="48px" height="48px" id="svg4289" sodipodi:version="0.32" inkscape:version="0.44" sodipodi:docbase="/home/lapo/Icone/cvs/gnome-icon-theme/scalable/places" sodipodi:docname="network-workgroup.svg" inkscape:export-filename="/home/andreas/project/gnome-icon-theme/scalable/places/network-workgroup.png" inkscape:export-xdpi="90" inkscape:export-ydpi="90" inkscape:output_extension="org.inkscape.output.svg.inkscape">
  <defs id="defs4291">
    <linearGradient inkscape:collect="always" id="linearGradient4091">
      <stop style="stop-color:black;stop-opacity:1;" offset="0" id="stop4093"/>
      <stop style="stop-color:black;stop-opacity:0;" offset="1" id="stop4095"/>
    </linearGradient>
    <linearGradient id="linearGradient2823">
      <stop style="stop-color:#d7d7d7;stop-opacity:1;" offset="0" id="stop2825"/>
      <stop style="stop-color:#f6f6f6;stop-opacity:1;" offset="1" id="stop2827"/>
    </linearGradient>
    <linearGradient id="linearGradient2833">
      <stop id="stop2835" offset="0" style="stop-color:#959595;stop-opacity:1;"/>
      <stop id="stop2837" offset="1" style="stop-color:white;stop-opacity:0.85576922;"/>
    </linearGradient>
    <linearGradient inkscape:collect="always" id="linearGradient5060">
      <stop style="stop-color:black;stop-opacity:1;" offset="0" id="stop5062"/>
      <stop style="stop-color:black;stop-opacity:0;" offset="1" id="stop5064"/>
    </linearGradient>
    <linearGradient id="linearGradient5048">
      <stop style="stop-color:black;stop-opacity:0;" offset="0" id="stop5050"/>
      <stop id="stop5056" offset="0.5" style="stop-color:black;stop-opacity:1;"/>
      <stop style="stop-color:black;stop-opacity:0;" offset="1" id="stop5052"/>
    </linearGradient>
    <linearGradient inkscape:collect="always" id="linearGradient5199">
      <stop style="stop-color:#959595;stop-opacity:1;" offset="0" id="stop5201"/>
      <stop style="stop-color:#959595;stop-opacity:0;" offset="1" id="stop5203"/>
    </linearGradient>
    <linearGradient gradientUnits="userSpaceOnUse" y2="10" x2="1.6302037" y1="2.0277281" x1="9.0554562" id="linearGradient2293" xlink:href="#linearGradient2287" inkscape:collect="always"/>
    <linearGradient gradientUnits="userSpaceOnUse" y2="6.559052" x2="0.4375" y1="20.375" x1="0.4375" id="linearGradient2277" xlink:href="#linearGradient2271" inkscape:collect="always"/>
    <linearGradient gradientUnits="userSpaceOnUse" y2="15.53534" x2="15.005585" y1="15.53534" x1="6.5625" id="linearGradient2238" xlink:href="#linearGradient2232" inkscape:collect="always"/>
    <radialGradient r="7.0007591" fy="18.5" fx="11" cy="18.5" cx="11" gradientTransform="matrix(1,0,0,0.214371,-2.9286e-2,13.53414)" gradientUnits="userSpaceOnUse" id="radialGradient1357" xlink:href="#linearGradient2240" inkscape:collect="always"/>
    <radialGradient r="21.006207" fy="56.564655" fx="213.01555" cy="56.564655" cx="213.01555" gradientTransform="matrix(0.600917,0,1.491591e-5,0.376288,-117.0195,-10.35669)" gradientUnits="userSpaceOnUse" id="radialGradient1509" xlink:href="#linearGradient4039" inkscape:collect="always"/>
    <linearGradient id="linearGradient4039" inkscape:collect="always">
      <stop id="stop4041" offset="0" style="stop-color:#729fcf"/>
      <stop id="stop4043" offset="1" style="stop-color:#3465a4"/>
    </linearGradient>
    <linearGradient id="linearGradient2232" inkscape:collect="always">
      <stop id="stop2234" offset="0" style="stop-color:#888a85"/>
      <stop id="stop2236" offset="1" style="stop-color:#babdb6"/>
    </linearGradient>
    <linearGradient id="linearGradient2240">
      <stop id="stop2242" offset="0" style="stop-color:#ffffff;stop-opacity:1;"/>
      <stop id="stop2244" offset="1" style="stop-color:#babdb6"/>
    </linearGradient>
    <linearGradient id="linearGradient2271" inkscape:collect="always">
      <stop id="stop2273" offset="0" style="stop-color:#6e6e71;stop-opacity:1;"/>
      <stop id="stop2275" offset="1" style="stop-color:#babdb6"/>
    </linearGradient>
    <linearGradient id="linearGradient2287" inkscape:collect="always">
      <stop id="stop2289" offset="0" style="stop-color:#ffffff;stop-opacity:1;"/>
      <stop id="stop2291" offset="1" style="stop-color:#ffffff;stop-opacity:0;"/>
    </linearGradient>
    <linearGradient inkscape:collect="always" xlink:href="#linearGradient2232" id="linearGradient4822" gradientUnits="userSpaceOnUse" x1="6.5625" y1="15.53534" x2="15.005585" y2="15.53534"/>
    <radialGradient inkscape:collect="always" xlink:href="#linearGradient4039" id="radialGradient4824" gradientUnits="userSpaceOnUse" gradientTransform="matrix(0.600917,0,1.491591e-5,0.376288,-117.0195,-10.35669)" cx="213.01555" cy="56.564655" fx="213.01555" fy="56.564655" r="21.006207"/>
    <linearGradient inkscape:collect="always" xlink:href="#linearGradient2271" id="linearGradient4828" gradientUnits="userSpaceOnUse" x1="0.4375" y1="20.375" x2="0.4375" y2="6.559052"/>
    <radialGradient inkscape:collect="always" xlink:href="#linearGradient2240" id="radialGradient4830" gradientUnits="userSpaceOnUse" gradientTransform="matrix(1,0,0,0.214371,-2.9286e-2,13.53414)" cx="11" cy="18.5" fx="11" fy="18.5" r="7.0007591"/>
    <linearGradient inkscape:collect="always" xlink:href="#linearGradient2287" id="linearGradient4832" gradientUnits="userSpaceOnUse" x1="9.0554562" y1="2.0277281" x2="1.6302037" y2="10"/>
    <linearGradient inkscape:collect="always" xlink:href="#linearGradient5048" id="linearGradient2317" gradientUnits="userSpaceOnUse" gradientTransform="matrix(2.774389,0,0,1.969706,-1892.179,-872.8854)" x1="302.85715" y1="366.64789" x2="302.85715" y2="609.50507"/>
    <radialGradient inkscape:collect="always" xlink:href="#linearGradient5060" id="radialGradient2319" gradientUnits="userSpaceOnUse" gradientTransform="matrix(2.774389,0,0,1.969706,-1891.633,-872.8854)" cx="605.71429" cy="486.64789" fx="605.71429" fy="486.64789" r="117.14286"/>
    <radialGradient inkscape:collect="always" xlink:href="#linearGradient5060" id="radialGradient2321" gradientUnits="userSpaceOnUse" gradientTransform="matrix(-2.774389,0,0,1.969706,112.7623,-872.8854)" cx="605.71429" cy="486.64789" fx="605.71429" fy="486.64789" r="117.14286"/>
    <linearGradient id="linearGradient2809">
      <stop style="stop-color:#d3d7cf;stop-opacity:1;" offset="0" id="stop2811"/>
      <stop style="stop-color:#eeeeec;stop-opacity:0;" offset="1" id="stop2813"/>
    </linearGradient>
    <linearGradient id="linearGradient3942">
      <stop id="stop3944" offset="0" style="stop-color:#888a85;stop-opacity:1"/>
      <stop id="stop3946" offset="1" style="stop-color:#eeeeec;stop-opacity:1"/>
    </linearGradient>
    <linearGradient id="linearGradient3859">
      <stop id="stop3861" offset="0" style="stop-color:#d3d7cf;stop-opacity:1"/>
      <stop id="stop3037" offset="0.30973485" style="stop-color:#eeeeec;stop-opacity:1;"/>
      <stop style="stop-color:white;stop-opacity:1;" offset="0.88648254" id="stop3039"/>
      <stop id="stop3863" offset="1" style="stop-color:#d3d7cf;stop-opacity:1"/>
    </linearGradient>
    <linearGradient id="linearGradient4175" inkscape:collect="always">
      <stop id="stop4177" offset="0" style="stop-color:#d3d7cf;stop-opacity:1"/>
      <stop id="stop4179" offset="1" style="stop-color:#eeeeec;stop-opacity:1"/>
    </linearGradient>
    <linearGradient inkscape:collect="always" id="linearGradient4391">
      <stop style="stop-color:#729fcf;stop-opacity:1" offset="0" id="stop4393"/>
      <stop style="stop-color:#729fcf;stop-opacity:0" offset="1" id="stop4395"/>
    </linearGradient>
    <linearGradient inkscape:collect="always" xlink:href="#linearGradient2809" id="linearGradient2654" gradientUnits="userSpaceOnUse" gradientTransform="matrix(-0.909091,0,0,1,28.95455,6.03896)" x1="7.5030818" y1="27.499998" x2="1.0550151" y2="27.499998"/>
    <linearGradient inkscape:collect="always" xlink:href="#linearGradient4391" id="linearGradient2656" gradientUnits="userSpaceOnUse" gradientTransform="matrix(-0.909091,0,0,1,28.04546,9.03895)" x1="6.5030808" y1="24.500002" x2="0.055013988" y2="24.500002"/>
    <linearGradient inkscape:collect="always" xlink:href="#linearGradient3942" id="linearGradient2694" gradientUnits="userSpaceOnUse" x1="53.5625" y1="4.4916701" x2="53.5625" y2="37.256325" gradientTransform="matrix(0.526319,0,0,0.6,-24.65807,12.8)"/>
    <linearGradient inkscape:collect="always" xlink:href="#linearGradient4175" id="linearGradient2710" gradientUnits="userSpaceOnUse" x1="60.426777" y1="18.520107" x2="60.426777" y2="72.082878" gradientTransform="matrix(0.571428,0,0,0.620897,-27.49993,12.22237)"/>
    <linearGradient inkscape:collect="always" xlink:href="#linearGradient3859" id="linearGradient2714" gradientUnits="userSpaceOnUse" x1="73.05397" y1="6.5458651" x2="53.61911" y2="6.5458651" gradientTransform="matrix(0.608696,0,0,0.637968,-29.84782,12.02435)"/>
    <linearGradient inkscape:collect="always" xlink:href="#linearGradient2823" id="linearGradient2722" gradientUnits="userSpaceOnUse" gradientTransform="matrix(0.352942,0,0,0.6,0.38235,13.79997)" x1="24.92893" y1="12.001067" x2="24.92893" y2="10.868282"/>
    <linearGradient inkscape:collect="always" xlink:href="#linearGradient2823" id="linearGradient2724" gradientUnits="userSpaceOnUse" gradientTransform="matrix(0.352942,0,0,0.600003,0.38234,12.59997)" x1="24.960155" y1="19.00001" x2="24.92893" y2="17.762573"/>
    <linearGradient inkscape:collect="always" xlink:href="#linearGradient2833" id="linearGradient2732" gradientUnits="userSpaceOnUse" gradientTransform="matrix(0.600736,0,0,0.6,-0.60624,7.999987)" x1="10.249995" y1="32.593761" x2="12.500004" y2="36.374992"/>
    <linearGradient inkscape:collect="always" xlink:href="#linearGradient5199" id="linearGradient2744" gradientUnits="userSpaceOnUse" gradientTransform="matrix(0.62225,0,0,0.508106,-5.01161,16.71631)" x1="18.5" y1="36.92857" x2="18.5" y2="30.357143"/>
    <linearGradient inkscape:collect="always" xlink:href="#linearGradient5199" id="linearGradient2746" gradientUnits="userSpaceOnUse" gradientTransform="matrix(0.62225,0,0,0.508106,-3.011608,16.66767)" x1="18.5" y1="36.92857" x2="18.5" y2="30.357143"/>
    <linearGradient inkscape:collect="always" xlink:href="#linearGradient5199" id="linearGradient2748" gradientUnits="userSpaceOnUse" gradientTransform="matrix(0.62225,0,0,0.508106,-1.011608,16.66767)" x1="18.5" y1="36.92857" x2="18.5" y2="30.357143"/>
    <linearGradient inkscape:collect="always" xlink:href="#linearGradient5199" id="linearGradient2750" gradientUnits="userSpaceOnUse" gradientTransform="matrix(0.62225,0,0,0.508106,0.988392,16.66767)" x1="18.5" y1="36.92857" x2="18.5" y2="30.357143"/>
    <radialGradient inkscape:collect="always" xlink:href="#linearGradient4091" id="radialGradient4097" cx="26" cy="40.5" fx="26" fy="40.5" r="0.75" gradientTransform="matrix(2,0,0,2,-79.5,-121.5)" gradientUnits="userSpaceOnUse"/>
    <radialGradient inkscape:collect="always" xlink:href="#linearGradient4091" id="radialGradient4101" gradientUnits="userSpaceOnUse" gradientTransform="matrix(2,0,0,2,-5.5,-40.5)" cx="26" cy="40.5" fx="26" fy="40.5" r="0.75"/>
    <linearGradient inkscape:collect="always" xlink:href="#linearGradient5048" id="linearGradient4111" x1="36.4375" y1="42" x2="36.4375" y2="38.999298" gradientUnits="userSpaceOnUse"/>
    <radialGradient inkscape:collect="always" xlink:href="#linearGradient4091" id="radialGradient4126" gradientUnits="userSpaceOnUse" gradientTransform="matrix(2,0,0,2,-79.5,-121.5)" cx="26" cy="40.5" fx="26" fy="40.5" r="0.75"/>
    <radialGradient inkscape:collect="always" xlink:href="#linearGradient4091" id="radialGradient4128" gradientUnits="userSpaceOnUse" gradientTransform="matrix(2,0,0,2,-5.5,-40.5)" cx="26" cy="40.5" fx="26" fy="40.5" r="0.75"/>
    <linearGradient inkscape:collect="always" xlink:href="#linearGradient5048" id="linearGradient4130" gradientUnits="userSpaceOnUse" x1="36.4375" y1="42" x2="36.4375" y2="38.999298"/>
  </defs>
  <g id="layer1" inkscape:label="Layer 1" inkscape:groupmode="layer">
    <path style="fill:url(#linearGradient2654);fill-opacity:1;stroke:url(#linearGradient2656);stroke-width:1;stroke-linecap:round;stroke-linejoin:miter;stroke-miterlimit:4;stroke-dasharray:none;stroke-opacity:1" d="M 28.5,32.538957 L 18.499996,32.538957 L 18.499996,34.538954 L 28.5,34.538954" id="path6845" sodipodi:nodetypes="cccc"/>
    <g id="g4132" style="opacity:0.4">
      <g transform="translate(-7,-11)" style="opacity:1" id="g4118">
        <rect style="opacity:1;color:black;fill:url(#radialGradient4126);fill-opacity:1;fill-rule:nonzero;stroke:none;stroke-width:1;stroke-linecap:round;stroke-linejoin:round;marker:none;marker-start:none;marker-mid:none;marker-end:none;stroke-miterlimit:4;stroke-dasharray:none;stroke-dashoffset:1.4;stroke-opacity:1;visibility:visible;display:inline;overflow:visible" id="rect4120" width="1.5" height="3" x="-27.5" y="-42" transform="scale(-1,-1)"/>
        <rect style="opacity:1;color:black;fill:url(#radialGradient4128);fill-opacity:1;fill-rule:nonzero;stroke:none;stroke-width:1;stroke-linecap:round;stroke-linejoin:round;marker:none;marker-start:none;marker-mid:none;marker-end:none;stroke-miterlimit:4;stroke-dasharray:none;stroke-dashoffset:1.4;stroke-opacity:1;visibility:visible;display:inline;overflow:visible" id="rect4122" width="1.5" height="3" x="46.5" y="39"/>
        <rect style="opacity:1;color:black;fill:url(#linearGradient4130);fill-opacity:1;fill-rule:nonzero;stroke:none;stroke-width:1;stroke-linecap:round;stroke-linejoin:round;marker:none;marker-start:none;marker-mid:none;marker-end:none;stroke-miterlimit:4;stroke-dasharray:none;stroke-dashoffset:1.4;stroke-opacity:1;visibility:visible;display:inline;overflow:visible" id="rect4124" width="19" height="3" x="27.5" y="39"/>
      </g>
      <g style="opacity:1" id="g4113">
        <rect style="opacity:1;color:black;fill:url(#radialGradient4097);fill-opacity:1;fill-rule:nonzero;stroke:none;stroke-width:1;stroke-linecap:round;stroke-linejoin:round;marker:none;marker-start:none;marker-mid:none;marker-end:none;stroke-miterlimit:4;stroke-dasharray:none;stroke-dashoffset:1.4;stroke-opacity:1;visibility:visible;display:inline;overflow:visible" id="rect4081" width="1.5" height="3" x="-27.5" y="-42" transform="scale(-1,-1)"/>
        <rect style="opacity:1;color:black;fill:url(#radialGradient4101);fill-opacity:1;fill-rule:nonzero;stroke:none;stroke-width:1;stroke-linecap:round;stroke-linejoin:round;marker:none;marker-start:none;marker-mid:none;marker-end:none;stroke-miterlimit:4;stroke-dasharray:none;stroke-dashoffset:1.4;stroke-opacity:1;visibility:visible;display:inline;overflow:visible" id="rect4099" width="1.5" height="3" x="46.5" y="39"/>
        <rect style="opacity:1;color:black;fill:url(#linearGradient4111);fill-opacity:1.0;fill-rule:nonzero;stroke:none;stroke-width:1;stroke-linecap:round;stroke-linejoin:round;marker:none;marker-start:none;marker-mid:none;marker-end:none;stroke-miterlimit:4;stroke-dasharray:none;stroke-dashoffset:1.4;stroke-opacity:1;visibility:visible;display:inline;overflow:visible" id="rect4103" width="19" height="3" x="27.5" y="39"/>
      </g>
    </g>
    <g id="g4784" transform="translate(19,9)">
      <g inkscape:label="Shadow" id="g4786"/>
      <g style="display:inline" inkscape:label="Lavoro" id="g4788">
        <g transform="translate(0,15.06603)" inkscape:label="Shadow" id="g4790"/>
        <g transform="translate(0,15.06603)" style="display:inline" inkscape:label="Lavoro" id="g4792"/>
        <rect y="13.570681" x="7.4910188" height="3.9293196" width="7.0145669" id="rect4794" style="opacity:1;color:black;fill:url(#linearGradient4822);fill-opacity:1;fill-rule:nonzero;stroke:#868883;stroke-width:0.99999905;stroke-linecap:round;stroke-linejoin:miter;marker:none;marker-start:none;marker-mid:none;marker-end:none;stroke-miterlimit:4;stroke-dasharray:none;stroke-dashoffset:0;stroke-opacity:1;visibility:visible;display:inline;overflow:visible"/>
        <rect ry="0.75630462" rx="0.75858521" y="0.5" x="1.5" height="14" width="19" id="rect4796" style="opacity:1;color:black;fill:#e4e4e1;fill-opacity:1;fill-rule:nonzero;stroke:#808083;stroke-width:0.99999905;stroke-linecap:round;stroke-linejoin:round;marker:none;marker-start:none;marker-mid:none;marker-end:none;stroke-miterlimit:4;stroke-dasharray:none;stroke-dashoffset:0;stroke-opacity:1;visibility:visible;display:inline;overflow:visible"/>
        <rect ry="0" rx="0" y="1.5" x="2.5" height="12" width="17" id="rect4798" style="opacity:1;color:black;fill:none;fill-opacity:1;fill-rule:nonzero;stroke:white;stroke-width:1.00000036;stroke-linecap:round;stroke-linejoin:round;marker:none;marker-start:none;marker-mid:none;marker-end:none;stroke-miterlimit:4;stroke-dasharray:none;stroke-dashoffset:0;stroke-opacity:1;visibility:visible;display:inline;overflow:visible"/>
        <rect y="2.4999998" x="3.4722338" height="9" width="15.027766" id="rect4800" style="opacity:1;color:black;fill:url(#radialGradient4824);fill-opacity:1;fill-rule:nonzero;stroke:#204a87;stroke-width:1;stroke-linecap:round;stroke-linejoin:round;marker:none;marker-start:none;marker-mid:none;marker-end:none;stroke-miterlimit:4;stroke-dasharray:none;stroke-dashoffset:0;stroke-opacity:1;visibility:visible;display:inline;overflow:visible"/>
        <g id="g4804">
          <path sodipodi:nodetypes="ccccc" id="path4806" d="M 1.5,16.5 L 20.5,16.5 L 21.529286,20.490574 L 0.5,20.5 L 1.5,16.5 z " style="color:black;fill:#eeeeec;fill-opacity:1;fill-rule:nonzero;stroke:url(#linearGradient4828);stroke-width:0.89999998;stroke-linecap:round;stroke-linejoin:round;marker:none;marker-start:none;marker-mid:none;marker-end:none;stroke-miterlimit:4;stroke-dasharray:none;stroke-dashoffset:0;stroke-opacity:1;visibility:visible;display:inline;overflow:visible"/>
          <path sodipodi:nodetypes="ccccc" id="path4808" d="M 3.5,16.5 L 18.5,16.5 L 19,18.5 L 3,18.5 L 3.5,16.5 z " style="color:black;fill:#bfc5ba;fill-opacity:1;fill-rule:nonzero;stroke:#b5b8b1;stroke-width:1.00000095;stroke-linecap:round;stroke-linejoin:round;marker:none;marker-start:none;marker-mid:none;marker-end:none;stroke-miterlimit:4;stroke-dashoffset:0;stroke-opacity:1;visibility:visible;display:inline;overflow:visible"/>
        </g>
        <path id="path4810" d="M 5.376964,16 C 5.3606945,16.003332 5.3301173,16.026378 5.314464,16.03125 C 5.2914934,16.039666 5.2419674,16.05095 5.220714,16.0625 C 5.1519872,16.104274 5.0749877,16.181273 5.033214,16.25 C 5.0216637,16.271253 5.0103799,16.320779 5.001964,16.34375 C 4.9946559,16.36723 4.9745098,16.412681 4.970714,16.4375 C 4.969006,16.454302 4.970714,16.48275 4.970714,16.5 C 4.970714,16.51725 4.969006,16.545698 4.970714,16.5625 C 4.9745098,16.587319 4.9946559,16.63277 5.001964,16.65625 C 5.0103799,16.679221 5.0216637,16.728747 5.033214,16.75 C 5.0749877,16.818727 5.1519872,16.895726 5.220714,16.9375 C 5.2419674,16.94905 5.2914934,16.960334 5.314464,16.96875 C 5.337944,16.976058 5.3833948,16.996204 5.408214,17 C 5.4250158,17.001708 5.453464,17 5.470714,17 C 5.487964,17 5.5164122,17.001708 5.533214,17 C 5.5580332,16.996204 5.603484,16.976058 5.626964,16.96875 C 5.6499346,16.960334 5.6994606,16.94905 5.720714,16.9375 C 5.7894408,16.895726 5.8664403,16.818727 5.908214,16.75 C 5.9197643,16.728747 5.9310481,16.679221 5.939464,16.65625 C 5.9467721,16.63277 5.9669182,16.587319 5.970714,16.5625 C 5.972422,16.545698 5.970714,16.51725 5.970714,16.5 C 5.970714,16.48275 5.972422,16.454302 5.970714,16.4375 C 5.9669182,16.412681 5.9467721,16.36723 5.939464,16.34375 C 5.9310481,16.320779 5.9197643,16.271253 5.908214,16.25 C 5.8664403,16.181273 5.7894408,16.104274 5.720714,16.0625 C 5.6994606,16.05095 5.6499346,16.039666 5.626964,16.03125 C 5.603484,16.023942 5.5580332,16.003796 5.533214,16 C 5.5164122,15.998292 5.487964,16 5.470714,16 C 5.453464,16 5.4250158,15.998292 5.408214,16 C 5.3999409,16.001265 5.3850988,15.998334 5.376964,16 z M 7.376964,16 C 7.3606945,16.003332 7.3301173,16.026378 7.314464,16.03125 C 7.2914934,16.039666 7.2419674,16.05095 7.220714,16.0625 C 7.1519872,16.104274 7.0749877,16.181273 7.033214,16.25 C 7.0216637,16.271253 7.0103799,16.320779 7.001964,16.34375 C 6.9946559,16.36723 6.9745098,16.412681 6.970714,16.4375 C 6.969006,16.454302 6.970714,16.48275 6.970714,16.5 C 6.970714,16.51725 6.969006,16.545698 6.970714,16.5625 C 6.9745098,16.587319 6.9946559,16.63277 7.001964,16.65625 C 7.0103799,16.679221 7.0216637,16.728747 7.033214,16.75 C 7.0749877,16.818727 7.1519872,16.895726 7.220714,16.9375 C 7.2419674,16.94905 7.2914934,16.960334 7.314464,16.96875 C 7.337944,16.976058 7.3833948,16.996204 7.408214,17 C 7.4250158,17.001708 7.453464,17 7.470714,17 C 7.487964,17 7.5164122,17.001708 7.533214,17 C 7.5580332,16.996204 7.603484,16.976058 7.626964,16.96875 C 7.6499346,16.960334 7.6994606,16.94905 7.720714,16.9375 C 7.7894408,16.895726 7.8664403,16.818727 7.908214,16.75 C 7.9197643,16.728747 7.9310481,16.679221 7.939464,16.65625 C 7.9467721,16.63277 7.9669182,16.587319 7.970714,16.5625 C 7.972422,16.545698 7.970714,16.51725 7.970714,16.5 C 7.970714,16.48275 7.972422,16.454302 7.970714,16.4375 C 7.9669182,16.412681 7.9467721,16.36723 7.939464,16.34375 C 7.9310481,16.320779 7.9197643,16.271253 7.908214,16.25 C 7.8664403,16.181273 7.7894408,16.104274 7.720714,16.0625 C 7.6994606,16.05095 7.6499346,16.039666 7.626964,16.03125 C 7.603484,16.023942 7.5580332,16.003796 7.533214,16 C 7.5164122,15.998292 7.487964,16 7.470714,16 C 7.453464,16 7.4250158,15.998292 7.408214,16 C 7.3999409,16.001265 7.3850988,15.998334 7.376964,16 z M 9.376964,16 C 9.3606945,16.003332 9.3301173,16.026378 9.314464,16.03125 C 9.2914934,16.039666 9.2419674,16.05095 9.220714,16.0625 C 9.1519872,16.104274 9.0749877,16.181273 9.033214,16.25 C 9.0216637,16.271253 9.0103799,16.320779 9.001964,16.34375 C 8.9946559,16.36723 8.9745098,16.412681 8.970714,16.4375 C 8.969006,16.454302 8.970714,16.48275 8.970714,16.5 C 8.970714,16.51725 8.969006,16.545698 8.970714,16.5625 C 8.9745098,16.587319 8.9946559,16.63277 9.001964,16.65625 C 9.0103799,16.679221 9.0216637,16.728747 9.033214,16.75 C 9.0749877,16.818727 9.1519872,16.895726 9.220714,16.9375 C 9.2419674,16.94905 9.2914934,16.960334 9.314464,16.96875 C 9.337944,16.976058 9.3833948,16.996204 9.408214,17 C 9.4250158,17.001708 9.453464,17 9.470714,17 C 9.487964,17 9.5164122,17.001708 9.533214,17 C 9.5580332,16.996204 9.603484,16.976058 9.626964,16.96875 C 9.6499346,16.960334 9.6994606,16.94905 9.720714,16.9375 C 9.7894408,16.895726 9.8664403,16.818727 9.908214,16.75 C 9.9197643,16.728747 9.9310481,16.679221 9.939464,16.65625 C 9.9467721,16.63277 9.9669182,16.587319 9.970714,16.5625 C 9.972422,16.545698 9.970714,16.51725 9.970714,16.5 C 9.970714,16.48275 9.972422,16.454302 9.970714,16.4375 C 9.9669182,16.412681 9.9467721,16.36723 9.939464,16.34375 C 9.9310481,16.320779 9.9197643,16.271253 9.908214,16.25 C 9.8664403,16.181273 9.7894408,16.104274 9.720714,16.0625 C 9.6994606,16.05095 9.6499346,16.039666 9.626964,16.03125 C 9.603484,16.023942 9.5580332,16.003796 9.533214,16 C 9.5164122,15.998292 9.487964,16 9.470714,16 C 9.453464,16 9.4250158,15.998292 9.408214,16 C 9.3999409,16.001265 9.3850988,15.998334 9.376964,16 z M 11.376964,16 C 11.360694,16.003332 11.330117,16.026378 11.314464,16.03125 C 11.291493,16.039666 11.241967,16.05095 11.220714,16.0625 C 11.151987,16.104274 11.074988,16.181273 11.033214,16.25 C 11.021664,16.271253 11.01038,16.320779 11.001964,16.34375 C 10.994656,16.36723 10.97451,16.412681 10.970714,16.4375 C 10.969006,16.454302 10.970714,16.48275 10.970714,16.5 C 10.970714,16.51725 10.969006,16.545698 10.970714,16.5625 C 10.97451,16.587319 10.994656,16.63277 11.001964,16.65625 C 11.01038,16.679221 11.021664,16.728747 11.033214,16.75 C 11.074988,16.818727 11.151987,16.895726 11.220714,16.9375 C 11.241967,16.94905 11.291493,16.960334 11.314464,16.96875 C 11.337944,16.976058 11.383395,16.996204 11.408214,17 C 11.425016,17.001708 11.453464,17 11.470714,17 C 11.487964,17 11.516412,17.001708 11.533214,17 C 11.558033,16.996204 11.603484,16.976058 11.626964,16.96875 C 11.649935,16.960334 11.699461,16.94905 11.720714,16.9375 C 11.789441,16.895726 11.86644,16.818727 11.908214,16.75 C 11.919764,16.728747 11.931048,16.679221 11.939464,16.65625 C 11.946772,16.63277 11.966918,16.587319 11.970714,16.5625 C 11.972422,16.545698 11.970714,16.51725 11.970714,16.5 C 11.970714,16.48275 11.972422,16.454302 11.970714,16.4375 C 11.966918,16.412681 11.946772,16.36723 11.939464,16.34375 C 11.931048,16.320779 11.919764,16.271253 11.908214,16.25 C 11.86644,16.181273 11.789441,16.104274 11.720714,16.0625 C 11.699461,16.05095 11.649935,16.039666 11.626964,16.03125 C 11.603484,16.023942 11.558033,16.003796 11.533214,16 C 11.516412,15.998292 11.487964,16 11.470714,16 C 11.453464,16 11.425016,15.998292 11.408214,16 C 11.399941,16.001265 11.385099,15.998334 11.376964,16 z M 13.376964,16 C 13.360694,16.003332 13.330117,16.026378 13.314464,16.03125 C 13.291493,16.039666 13.241967,16.05095 13.220714,16.0625 C 13.151987,16.104274 13.074988,16.181273 13.033214,16.25 C 13.021664,16.271253 13.01038,16.320779 13.001964,16.34375 C 12.994656,16.36723 12.97451,16.412681 12.970714,16.4375 C 12.969006,16.454302 12.970714,16.48275 12.970714,16.5 C 12.970714,16.51725 12.969006,16.545698 12.970714,16.5625 C 12.97451,16.587319 12.994656,16.63277 13.001964,16.65625 C 13.01038,16.679221 13.021664,16.728747 13.033214,16.75 C 13.074988,16.818727 13.151987,16.895726 13.220714,16.9375 C 13.241967,16.94905 13.291493,16.960334 13.314464,16.96875 C 13.337944,16.976058 13.383395,16.996204 13.408214,17 C 13.425016,17.001708 13.453464,17 13.470714,17 C 13.487964,17 13.516412,17.001708 13.533214,17 C 13.558033,16.996204 13.603484,16.976058 13.626964,16.96875 C 13.649935,16.960334 13.699461,16.94905 13.720714,16.9375 C 13.789441,16.895726 13.86644,16.818727 13.908214,16.75 C 13.919764,16.728747 13.931048,16.679221 13.939464,16.65625 C 13.946772,16.63277 13.966918,16.587319 13.970714,16.5625 C 13.972422,16.545698 13.970714,16.51725 13.970714,16.5 C 13.970714,16.48275 13.972422,16.454302 13.970714,16.4375 C 13.966918,16.412681 13.946772,16.36723 13.939464,16.34375 C 13.931048,16.320779 13.919764,16.271253 13.908214,16.25 C 13.86644,16.181273 13.789441,16.104274 13.720714,16.0625 C 13.699461,16.05095 13.649935,16.039666 13.626964,16.03125 C 13.603484,16.023942 13.558033,16.003796 13.533214,16 C 13.516412,15.998292 13.487964,16 13.470714,16 C 13.453464,16 13.425016,15.998292 13.408214,16 C 13.399941,16.001265 13.385099,15.998334 13.376964,16 z M 15.376964,16 C 15.360694,16.003332 15.330117,16.026378 15.314464,16.03125 C 15.291493,16.039666 15.241967,16.05095 15.220714,16.0625 C 15.151987,16.104274 15.074988,16.181273 15.033214,16.25 C 15.021664,16.271253 15.01038,16.320779 15.001964,16.34375 C 14.994656,16.36723 14.97451,16.412681 14.970714,16.4375 C 14.969006,16.454302 14.970714,16.48275 14.970714,16.5 C 14.970714,16.51725 14.969006,16.545698 14.970714,16.5625 C 14.97451,16.587319 14.994656,16.63277 15.001964,16.65625 C 15.01038,16.679221 15.021664,16.728747 15.033214,16.75 C 15.074988,16.818727 15.151987,16.895726 15.220714,16.9375 C 15.241967,16.94905 15.291493,16.960334 15.314464,16.96875 C 15.337944,16.976058 15.383395,16.996204 15.408214,17 C 15.425016,17.001708 15.453464,17 15.470714,17 C 15.487964,17 15.516412,17.001708 15.533214,17 C 15.558033,16.996204 15.603484,16.976058 15.626964,16.96875 C 15.649935,16.960334 15.699461,16.94905 15.720714,16.9375 C 15.789441,16.895726 15.86644,16.818727 15.908214,16.75 C 15.919764,16.728747 15.931048,16.679221 15.939464,16.65625 C 15.946772,16.63277 15.966918,16.587319 15.970714,16.5625 C 15.972422,16.545698 15.970714,16.51725 15.970714,16.5 C 15.970714,16.48275 15.972422,16.454302 15.970714,16.4375 C 15.966918,16.412681 15.946772,16.36723 15.939464,16.34375 C 15.931048,16.320779 15.919764,16.271253 15.908214,16.25 C 15.86644,16.181273 15.789441,16.104274 15.720714,16.0625 C 15.699461,16.05095 15.649935,16.039666 15.626964,16.03125 C 15.603484,16.023942 15.558033,16.003796 15.533214,16 C 15.516412,15.998292 15.487964,16 15.470714,16 C 15.453464,16 15.425016,15.998292 15.408214,16 C 15.399941,16.001265 15.385099,15.998334 15.376964,16 z M 17.376964,16 C 17.360694,16.003332 17.330117,16.026378 17.314464,16.03125 C 17.291493,16.039666 17.241967,16.05095 17.220714,16.0625 C 17.151987,16.104274 17.074988,16.181273 17.033214,16.25 C 17.021664,16.271253 17.01038,16.320779 17.001964,16.34375 C 16.994656,16.36723 16.97451,16.412681 16.970714,16.4375 C 16.969006,16.454302 16.970714,16.48275 16.970714,16.5 C 16.970714,16.51725 16.969006,16.545698 16.970714,16.5625 C 16.97451,16.587319 16.994656,16.63277 17.001964,16.65625 C 17.01038,16.679221 17.021664,16.728747 17.033214,16.75 C 17.074988,16.818727 17.151987,16.895726 17.220714,16.9375 C 17.241967,16.94905 17.291493,16.960334 17.314464,16.96875 C 17.337944,16.976058 17.383395,16.996204 17.408214,17 C 17.425016,17.001708 17.453464,17 17.470714,17 C 17.487964,17 17.516412,17.001708 17.533214,17 C 17.558033,16.996204 17.603484,16.976058 17.626964,16.96875 C 17.649935,16.960334 17.699461,16.94905 17.720714,16.9375 C 17.789441,16.895726 17.86644,16.818727 17.908214,16.75 C 17.919764,16.728747 17.931048,16.679221 17.939464,16.65625 C 17.946772,16.63277 17.966918,16.587319 17.970714,16.5625 C 17.972422,16.545698 17.970714,16.51725 17.970714,16.5 C 17.970714,16.48275 17.972422,16.454302 17.970714,16.4375 C 17.966918,16.412681 17.946772,16.36723 17.939464,16.34375 C 17.931048,16.320779 17.919764,16.271253 17.908214,16.25 C 17.86644,16.181273 17.789441,16.104274 17.720714,16.0625 C 17.699461,16.05095 17.649935,16.039666 17.626964,16.03125 C 17.603484,16.023942 17.558033,16.003796 17.533214,16 C 17.516412,15.998292 17.487964,16 17.470714,16 C 17.453464,16 17.425016,15.998292 17.408214,16 C 17.399941,16.001265 17.385099,15.998334 17.376964,16 z M 4.376964,17 C 4.3606945,17.003332 4.3301173,17.026378 4.314464,17.03125 C 4.2914934,17.039666 4.2419674,17.05095 4.220714,17.0625 C 4.1519872,17.104274 4.0749877,17.181273 4.033214,17.25 C 4.0216637,17.271253 4.0103799,17.320779 4.001964,17.34375 C 3.9946559,17.36723 3.9745098,17.412681 3.970714,17.4375 C 3.969006,17.454302 3.970714,17.48275 3.970714,17.5 C 3.970714,17.51725 3.969006,17.545698 3.970714,17.5625 C 3.9745098,17.587319 3.9946559,17.63277 4.001964,17.65625 C 4.0103799,17.679221 4.0216637,17.728747 4.033214,17.75 C 4.0749877,17.818727 4.1519872,17.895726 4.220714,17.9375 C 4.2419674,17.94905 4.2914934,17.960334 4.314464,17.96875 C 4.337944,17.976058 4.3833948,17.996204 4.408214,18 C 4.4250158,18.001708 4.453464,18 4.470714,18 C 4.487964,18 4.5164122,18.001708 4.533214,18 C 4.5580332,17.996204 4.603484,17.976058 4.626964,17.96875 C 4.6499346,17.960334 4.6994606,17.94905 4.720714,17.9375 C 4.7894408,17.895726 4.8664403,17.818727 4.908214,17.75 C 4.9197643,17.728747 4.9310481,17.679221 4.939464,17.65625 C 4.9467721,17.63277 4.9669182,17.587319 4.970714,17.5625 C 4.972422,17.545698 4.970714,17.51725 4.970714,17.5 C 4.970714,17.48275 4.972422,17.454302 4.970714,17.4375 C 4.9669182,17.412681 4.9467721,17.36723 4.939464,17.34375 C 4.9310481,17.320779 4.9197643,17.271253 4.908214,17.25 C 4.8664403,17.181273 4.7894408,17.104274 4.720714,17.0625 C 4.6994606,17.05095 4.6499346,17.039666 4.626964,17.03125 C 4.603484,17.023942 4.5580332,17.003796 4.533214,17 C 4.5164122,16.998292 4.487964,17 4.470714,17 C 4.453464,17 4.4250158,16.998292 4.408214,17 C 4.3999409,17.001265 4.3850988,16.998334 4.376964,17 z M 6.376964,17 C 6.3606945,17.003332 6.3301173,17.026378 6.314464,17.03125 C 6.2914934,17.039666 6.2419674,17.05095 6.220714,17.0625 C 6.1519872,17.104274 6.0749877,17.181273 6.033214,17.25 C 6.0216637,17.271253 6.0103799,17.320779 6.001964,17.34375 C 5.9946559,17.36723 5.9745098,17.412681 5.970714,17.4375 C 5.969006,17.454302 5.970714,17.48275 5.970714,17.5 C 5.970714,17.51725 5.969006,17.545698 5.970714,17.5625 C 5.9745098,17.587319 5.9946559,17.63277 6.001964,17.65625 C 6.0103799,17.679221 6.0216637,17.728747 6.033214,17.75 C 6.0749877,17.818727 6.1519872,17.895726 6.220714,17.9375 C 6.2419674,17.94905 6.2914934,17.960334 6.314464,17.96875 C 6.337944,17.976058 6.3833948,17.996204 6.408214,18 C 6.4250158,18.001708 6.453464,18 6.470714,18 C 6.487964,18 6.5164122,18.001708 6.533214,18 C 6.5580332,17.996204 6.603484,17.976058 6.626964,17.96875 C 6.6499346,17.960334 6.6994606,17.94905 6.720714,17.9375 C 6.7894408,17.895726 6.8664403,17.818727 6.908214,17.75 C 6.9197643,17.728747 6.9310481,17.679221 6.939464,17.65625 C 6.9467721,17.63277 6.9669182,17.587319 6.970714,17.5625 C 6.972422,17.545698 6.970714,17.51725 6.970714,17.5 C 6.970714,17.48275 6.972422,17.454302 6.970714,17.4375 C 6.9669182,17.412681 6.9467721,17.36723 6.939464,17.34375 C 6.9310481,17.320779 6.9197643,17.271253 6.908214,17.25 C 6.8664403,17.181273 6.7894408,17.104274 6.720714,17.0625 C 6.6994606,17.05095 6.6499346,17.039666 6.626964,17.03125 C 6.603484,17.023942 6.5580332,17.003796 6.533214,17 C 6.5164122,16.998292 6.487964,17 6.470714,17 C 6.453464,17 6.4250158,16.998292 6.408214,17 C 6.3999409,17.001265 6.3850988,16.998334 6.376964,17 z M 8.376964,17 C 8.3606945,17.003332 8.3301173,17.026378 8.314464,17.03125 C 8.2914934,17.039666 8.2419674,17.05095 8.220714,17.0625 C 8.1519872,17.104274 8.0749877,17.181273 8.033214,17.25 C 8.0216637,17.271253 8.0103799,17.320779 8.001964,17.34375 C 7.9946559,17.36723 7.9745098,17.412681 7.970714,17.4375 C 7.969006,17.454302 7.970714,17.48275 7.970714,17.5 C 7.970714,17.51725 7.969006,17.545698 7.970714,17.5625 C 7.9745098,17.587319 7.9946559,17.63277 8.001964,17.65625 C 8.0103799,17.679221 8.0216637,17.728747 8.033214,17.75 C 8.0749877,17.818727 8.1519872,17.895726 8.220714,17.9375 C 8.2419674,17.94905 8.2914934,17.960334 8.314464,17.96875 C 8.337944,17.976058 8.3833948,17.996204 8.408214,18 C 8.4250158,18.001708 8.453464,18 8.470714,18 C 8.487964,18 8.5164122,18.001708 8.533214,18 C 8.5580332,17.996204 8.603484,17.976058 8.626964,17.96875 C 8.6499346,17.960334 8.6994606,17.94905 8.720714,17.9375 C 8.7894408,17.895726 8.8664403,17.818727 8.908214,17.75 C 8.9197643,17.728747 8.9310481,17.679221 8.939464,17.65625 C 8.9467721,17.63277 8.9669182,17.587319 8.970714,17.5625 C 8.972422,17.545698 8.970714,17.51725 8.970714,17.5 C 8.970714,17.48275 8.972422,17.454302 8.970714,17.4375 C 8.9669182,17.412681 8.9467721,17.36723 8.939464,17.34375 C 8.9310481,17.320779 8.9197643,17.271253 8.908214,17.25 C 8.8664403,17.181273 8.7894408,17.104274 8.720714,17.0625 C 8.6994606,17.05095 8.6499346,17.039666 8.626964,17.03125 C 8.603484,17.023942 8.5580332,17.003796 8.533214,17 C 8.5164122,16.998292 8.487964,17 8.470714,17 C 8.453464,17 8.4250158,16.998292 8.408214,17 C 8.3999409,17.001265 8.3850988,16.998334 8.376964,17 z M 10.376964,17 C 10.360694,17.003332 10.330117,17.026378 10.314464,17.03125 C 10.291493,17.039666 10.241967,17.05095 10.220714,17.0625 C 10.151987,17.104274 10.074988,17.181273 10.033214,17.25 C 10.021664,17.271253 10.01038,17.320779 10.001964,17.34375 C 9.994656,17.36723 9.97451,17.412681 9.970714,17.4375 C 9.969006,17.454302 9.970714,17.48275 9.970714,17.5 C 9.970714,17.51725 9.969006,17.545698 9.970714,17.5625 C 9.97451,17.587319 9.994656,17.63277 10.001964,17.65625 C 10.01038,17.679221 10.021664,17.728747 10.033214,17.75 C 10.074988,17.818727 10.151987,17.895726 10.220714,17.9375 C 10.241967,17.94905 10.291493,17.960334 10.314464,17.96875 C 10.337944,17.976058 10.383395,17.996204 10.408214,18 C 10.425016,18.001708 10.453464,18 10.470714,18 C 10.487964,18 10.516412,18.001708 10.533214,18 C 10.558033,17.996204 10.603484,17.976058 10.626964,17.96875 C 10.649935,17.960334 10.699461,17.94905 10.720714,17.9375 C 10.789441,17.895726 10.86644,17.818727 10.908214,17.75 C 10.919764,17.728747 10.931048,17.679221 10.939464,17.65625 C 10.946772,17.63277 10.966918,17.587319 10.970714,17.5625 C 10.972422,17.545698 10.970714,17.51725 10.970714,17.5 C 10.970714,17.48275 10.972422,17.454302 10.970714,17.4375 C 10.966918,17.412681 10.946772,17.36723 10.939464,17.34375 C 10.931048,17.320779 10.919764,17.271253 10.908214,17.25 C 10.86644,17.181273 10.789441,17.104274 10.720714,17.0625 C 10.699461,17.05095 10.649935,17.039666 10.626964,17.03125 C 10.603484,17.023942 10.558033,17.003796 10.533214,17 C 10.516412,16.998292 10.487964,17 10.470714,17 C 10.453464,17 10.425016,16.998292 10.408214,17 C 10.399941,17.001265 10.385099,16.998334 10.376964,17 z M 12.376964,17 C 12.360694,17.003332 12.330117,17.026378 12.314464,17.03125 C 12.291493,17.039666 12.241967,17.05095 12.220714,17.0625 C 12.151987,17.104274 12.074988,17.181273 12.033214,17.25 C 12.021664,17.271253 12.01038,17.320779 12.001964,17.34375 C 11.994656,17.36723 11.97451,17.412681 11.970714,17.4375 C 11.969006,17.454302 11.970714,17.48275 11.970714,17.5 C 11.970714,17.51725 11.969006,17.545698 11.970714,17.5625 C 11.97451,17.587319 11.994656,17.63277 12.001964,17.65625 C 12.01038,17.679221 12.021664,17.728747 12.033214,17.75 C 12.074988,17.818727 12.151987,17.895726 12.220714,17.9375 C 12.241967,17.94905 12.291493,17.960334 12.314464,17.96875 C 12.337944,17.976058 12.383395,17.996204 12.408214,18 C 12.425016,18.001708 12.453464,18 12.470714,18 C 12.487964,18 12.516412,18.001708 12.533214,18 C 12.558033,17.996204 12.603484,17.976058 12.626964,17.96875 C 12.649935,17.960334 12.699461,17.94905 12.720714,17.9375 C 12.789441,17.895726 12.86644,17.818727 12.908214,17.75 C 12.919764,17.728747 12.931048,17.679221 12.939464,17.65625 C 12.946772,17.63277 12.966918,17.587319 12.970714,17.5625 C 12.972422,17.545698 12.970714,17.51725 12.970714,17.5 C 12.970714,17.48275 12.972422,17.454302 12.970714,17.4375 C 12.966918,17.412681 12.946772,17.36723 12.939464,17.34375 C 12.931048,17.320779 12.919764,17.271253 12.908214,17.25 C 12.86644,17.181273 12.789441,17.104274 12.720714,17.0625 C 12.699461,17.05095 12.649935,17.039666 12.626964,17.03125 C 12.603484,17.023942 12.558033,17.003796 12.533214,17 C 12.516412,16.998292 12.487964,17 12.470714,17 C 12.453464,17 12.425016,16.998292 12.408214,17 C 12.399941,17.001265 12.385099,16.998334 12.376964,17 z M 14.376964,17 C 14.360694,17.003332 14.330117,17.026378 14.314464,17.03125 C 14.291493,17.039666 14.241967,17.05095 14.220714,17.0625 C 14.151987,17.104274 14.074988,17.181273 14.033214,17.25 C 14.021664,17.271253 14.01038,17.320779 14.001964,17.34375 C 13.994656,17.36723 13.97451,17.412681 13.970714,17.4375 C 13.969006,17.454302 13.970714,17.48275 13.970714,17.5 C 13.970714,17.51725 13.969006,17.545698 13.970714,17.5625 C 13.97451,17.587319 13.994656,17.63277 14.001964,17.65625 C 14.01038,17.679221 14.021664,17.728747 14.033214,17.75 C 14.074988,17.818727 14.151987,17.895726 14.220714,17.9375 C 14.241967,17.94905 14.291493,17.960334 14.314464,17.96875 C 14.337944,17.976058 14.383395,17.996204 14.408214,18 C 14.425016,18.001708 14.453464,18 14.470714,18 C 14.487964,18 14.516412,18.001708 14.533214,18 C 14.558033,17.996204 14.603484,17.976058 14.626964,17.96875 C 14.649935,17.960334 14.699461,17.94905 14.720714,17.9375 C 14.789441,17.895726 14.86644,17.818727 14.908214,17.75 C 14.919764,17.728747 14.931048,17.679221 14.939464,17.65625 C 14.946772,17.63277 14.966918,17.587319 14.970714,17.5625 C 14.972422,17.545698 14.970714,17.51725 14.970714,17.5 C 14.970714,17.48275 14.972422,17.454302 14.970714,17.4375 C 14.966918,17.412681 14.946772,17.36723 14.939464,17.34375 C 14.931048,17.320779 14.919764,17.271253 14.908214,17.25 C 14.86644,17.181273 14.789441,17.104274 14.720714,17.0625 C 14.699461,17.05095 14.649935,17.039666 14.626964,17.03125 C 14.603484,17.023942 14.558033,17.003796 14.533214,17 C 14.516412,16.998292 14.487964,17 14.470714,17 C 14.453464,17 14.425016,16.998292 14.408214,17 C 14.399941,17.001265 14.385099,16.998334 14.376964,17 z M 16.376964,17 C 16.360694,17.003332 16.330117,17.026378 16.314464,17.03125 C 16.291493,17.039666 16.241967,17.05095 16.220714,17.0625 C 16.151987,17.104274 16.074988,17.181273 16.033214,17.25 C 16.021664,17.271253 16.01038,17.320779 16.001964,17.34375 C 15.994656,17.36723 15.97451,17.412681 15.970714,17.4375 C 15.969006,17.454302 15.970714,17.48275 15.970714,17.5 C 15.970714,17.51725 15.969006,17.545698 15.970714,17.5625 C 15.97451,17.587319 15.994656,17.63277 16.001964,17.65625 C 16.01038,17.679221 16.021664,17.728747 16.033214,17.75 C 16.074988,17.818727 16.151987,17.895726 16.220714,17.9375 C 16.241967,17.94905 16.291493,17.960334 16.314464,17.96875 C 16.337944,17.976058 16.383395,17.996204 16.408214,18 C 16.425016,18.001708 16.453464,18 16.470714,18 C 16.487964,18 16.516412,18.001708 16.533214,18 C 16.558033,17.996204 16.603484,17.976058 16.626964,17.96875 C 16.649935,17.960334 16.699461,17.94905 16.720714,17.9375 C 16.789441,17.895726 16.86644,17.818727 16.908214,17.75 C 16.919764,17.728747 16.931048,17.679221 16.939464,17.65625 C 16.946772,17.63277 16.966918,17.587319 16.970714,17.5625 C 16.972422,17.545698 16.970714,17.51725 16.970714,17.5 C 16.970714,17.48275 16.972422,17.454302 16.970714,17.4375 C 16.966918,17.412681 16.946772,17.36723 16.939464,17.34375 C 16.931048,17.320779 16.919764,17.271253 16.908214,17.25 C 16.86644,17.181273 16.789441,17.104274 16.720714,17.0625 C 16.699461,17.05095 16.649935,17.039666 16.626964,17.03125 C 16.603484,17.023942 16.558033,17.003796 16.533214,17 C 16.516412,16.998292 16.487964,17 16.470714,17 C 16.453464,17 16.425016,16.998292 16.408214,17 C 16.399941,17.001265 16.385099,16.998334 16.376964,17 z M 5.376964,18 C 5.3606945,18.003332 5.3301173,18.026378 5.314464,18.03125 C 5.2914934,18.039666 5.2419674,18.05095 5.220714,18.0625 C 5.1519872,18.104274 5.0749877,18.181273 5.033214,18.25 C 5.0216637,18.271253 5.0103799,18.320779 5.001964,18.34375 C 4.9946559,18.36723 4.9745098,18.412681 4.970714,18.4375 C 4.969006,18.454302 4.970714,18.48275 4.970714,18.5 C 4.970714,18.51725 4.969006,18.545698 4.970714,18.5625 C 4.9745098,18.587319 4.9946559,18.63277 5.001964,18.65625 C 5.0103799,18.679221 5.0216637,18.728747 5.033214,18.75 C 5.0749877,18.818727 5.1519872,18.895726 5.220714,18.9375 C 5.2419674,18.94905 5.2914934,18.960334 5.314464,18.96875 C 5.337944,18.976058 5.3833948,18.996204 5.408214,19 C 5.4250158,19.001708 5.453464,19 5.470714,19 C 5.487964,19 5.5164122,19.001708 5.533214,19 C 5.5580332,18.996204 5.603484,18.976058 5.626964,18.96875 C 5.6499346,18.960334 5.6994606,18.94905 5.720714,18.9375 C 5.7894408,18.895726 5.8664403,18.818727 5.908214,18.75 C 5.9197643,18.728747 5.9310481,18.679221 5.939464,18.65625 C 5.9467721,18.63277 5.9669182,18.587319 5.970714,18.5625 C 5.972422,18.545698 5.970714,18.51725 5.970714,18.5 C 5.970714,18.48275 5.972422,18.454302 5.970714,18.4375 C 5.9669182,18.412681 5.9467721,18.36723 5.939464,18.34375 C 5.9310481,18.320779 5.9197643,18.271253 5.908214,18.25 C 5.8664403,18.181273 5.7894408,18.104274 5.720714,18.0625 C 5.6994606,18.05095 5.6499346,18.039666 5.626964,18.03125 C 5.603484,18.023942 5.5580332,18.003796 5.533214,18 C 5.5164122,17.998292 5.487964,18 5.470714,18 C 5.453464,18 5.4250158,17.998292 5.408214,18 C 5.3999409,18.001265 5.3850988,17.998334 5.376964,18 z M 7.376964,18 C 7.3606945,18.003332 7.3301173,18.026378 7.314464,18.03125 C 7.2914934,18.039666 7.2419674,18.05095 7.220714,18.0625 C 7.1519872,18.104274 7.0749877,18.181273 7.033214,18.25 C 7.0216637,18.271253 7.0103799,18.320779 7.001964,18.34375 C 6.9946559,18.36723 6.9745098,18.412681 6.970714,18.4375 C 6.969006,18.454302 6.970714,18.48275 6.970714,18.5 C 6.970714,18.51725 6.969006,18.545698 6.970714,18.5625 C 6.9745098,18.587319 6.9946559,18.63277 7.001964,18.65625 C 7.0103799,18.679221 7.0216637,18.728747 7.033214,18.75 C 7.0749877,18.818727 7.1519872,18.895726 7.220714,18.9375 C 7.2419674,18.94905 7.2914934,18.960334 7.314464,18.96875 C 7.337944,18.976058 7.3833948,18.996204 7.408214,19 C 7.4250158,19.001708 7.453464,19 7.470714,19 C 7.487964,19 7.5164122,19.001708 7.533214,19 C 7.5580332,18.996204 7.603484,18.976058 7.626964,18.96875 C 7.6499346,18.960334 7.6994606,18.94905 7.720714,18.9375 C 7.7894408,18.895726 7.8664403,18.818727 7.908214,18.75 C 7.9197643,18.728747 7.9310481,18.679221 7.939464,18.65625 C 7.9467721,18.63277 7.9669182,18.587319 7.970714,18.5625 C 7.972422,18.545698 7.970714,18.51725 7.970714,18.5 C 7.970714,18.48275 7.972422,18.454302 7.970714,18.4375 C 7.9669182,18.412681 7.9467721,18.36723 7.939464,18.34375 C 7.9310481,18.320779 7.9197643,18.271253 7.908214,18.25 C 7.8664403,18.181273 7.7894408,18.104274 7.720714,18.0625 C 7.6994606,18.05095 7.6499346,18.039666 7.626964,18.03125 C 7.603484,18.023942 7.5580332,18.003796 7.533214,18 C 7.5164122,17.998292 7.487964,18 7.470714,18 C 7.453464,18 7.4250158,17.998292 7.408214,18 C 7.3999409,18.001265 7.3850988,17.998334 7.376964,18 z M 15.376964,18 C 15.360694,18.003332 15.330117,18.026378 15.314464,18.03125 C 15.291493,18.039666 15.241967,18.05095 15.220714,18.0625 C 15.151987,18.104274 15.074988,18.181273 15.033214,18.25 C 15.021664,18.271253 15.01038,18.320779 15.001964,18.34375 C 14.994656,18.36723 14.97451,18.412681 14.970714,18.4375 C 14.969006,18.454302 14.970714,18.48275 14.970714,18.5 C 14.970714,18.51725 14.969006,18.545698 14.970714,18.5625 C 14.97451,18.587319 14.994656,18.63277 15.001964,18.65625 C 15.01038,18.679221 15.021664,18.728747 15.033214,18.75 C 15.074988,18.818727 15.151987,18.895726 15.220714,18.9375 C 15.241967,18.94905 15.291493,18.960334 15.314464,18.96875 C 15.337944,18.976058 15.383395,18.996204 15.408214,19 C 15.425016,19.001708 15.453464,19 15.470714,19 C 15.487964,19 15.516412,19.001708 15.533214,19 C 15.558033,18.996204 15.603484,18.976058 15.626964,18.96875 C 15.649935,18.960334 15.699461,18.94905 15.720714,18.9375 C 15.789441,18.895726 15.86644,18.818727 15.908214,18.75 C 15.919764,18.728747 15.931048,18.679221 15.939464,18.65625 C 15.946772,18.63277 15.966918,18.587319 15.970714,18.5625 C 15.972422,18.545698 15.970714,18.51725 15.970714,18.5 C 15.970714,18.48275 15.972422,18.454302 15.970714,18.4375 C 15.966918,18.412681 15.946772,18.36723 15.939464,18.34375 C 15.931048,18.320779 15.919764,18.271253 15.908214,18.25 C 15.86644,18.181273 15.789441,18.104274 15.720714,18.0625 C 15.699461,18.05095 15.649935,18.039666 15.626964,18.03125 C 15.603484,18.023942 15.558033,18.003796 15.533214,18 C 15.516412,17.998292 15.487964,18 15.470714,18 C 15.453464,18 15.425016,17.998292 15.408214,18 C 15.399941,18.001265 15.385099,17.998334 15.376964,18 z M 17.376964,18 C 17.360694,18.003332 17.330117,18.026378 17.314464,18.03125 C 17.291493,18.039666 17.241967,18.05095 17.220714,18.0625 C 17.151987,18.104274 17.074988,18.181273 17.033214,18.25 C 17.021664,18.271253 17.01038,18.320779 17.001964,18.34375 C 16.994656,18.36723 16.97451,18.412681 16.970714,18.4375 C 16.969006,18.454302 16.970714,18.48275 16.970714,18.5 C 16.970714,18.51725 16.969006,18.545698 16.970714,18.5625 C 16.97451,18.587319 16.994656,18.63277 17.001964,18.65625 C 17.01038,18.679221 17.021664,18.728747 17.033214,18.75 C 17.074988,18.818727 17.151987,18.895726 17.220714,18.9375 C 17.241967,18.94905 17.291493,18.960334 17.314464,18.96875 C 17.337944,18.976058 17.383395,18.996204 17.408214,19 C 17.425016,19.001708 17.453464,19 17.470714,19 C 17.487964,19 17.516412,19.001708 17.533214,19 C 17.558033,18.996204 17.603484,18.976058 17.626964,18.96875 C 17.649935,18.960334 17.699461,18.94905 17.720714,18.9375 C 17.789441,18.895726 17.86644,18.818727 17.908214,18.75 C 17.919764,18.728747 17.931048,18.679221 17.939464,18.65625 C 17.946772,18.63277 17.966918,18.587319 17.970714,18.5625 C 17.972422,18.545698 17.970714,18.51725 17.970714,18.5 C 17.970714,18.48275 17.972422,18.454302 17.970714,18.4375 C 17.966918,18.412681 17.946772,18.36723 17.939464,18.34375 C 17.931048,18.320779 17.919764,18.271253 17.908214,18.25 C 17.86644,18.181273 17.789441,18.104274 17.720714,18.0625 C 17.699461,18.05095 17.649935,18.039666 17.626964,18.03125 C 17.603484,18.023942 17.558033,18.003796 17.533214,18 C 17.516412,17.998292 17.487964,18 17.470714,18 C 17.453464,18 17.425016,17.998292 17.408214,18 C 17.399941,18.001265 17.385099,17.998334 17.376964,18 z " style="fill:url(#radialGradient4830);fill-opacity:1;stroke:none;stroke-width:0.80000001;stroke-linecap:round;stroke-linejoin:round;stroke-miterlimit:4;stroke-dasharray:none;stroke-opacity:1"/>
        <g transform="translate(-306.25,-49)" inkscape:label="Shadow" id="g4812"/>
        <g transform="translate(-306.25,-49)" style="display:inline" inkscape:label="finiture" id="g4814"/>
        <path id="path4816" d="M 1.5,19.5 L 20.5,19.5" style="fill:none;fill-opacity:0.75;fill-rule:evenodd;stroke:white;stroke-width:1;stroke-linecap:round;stroke-linejoin:miter;stroke-miterlimit:4;stroke-dasharray:none;stroke-opacity:1"/>
        <path sodipodi:nodetypes="ccccc" id="path4818" d="M 4,3 L 18,3 L 18,6 C 10.9375,6.0625 11,10 4,10 L 4,3 z " style="opacity:0.30196078;color:black;fill:url(#linearGradient4832);fill-opacity:1;fill-rule:nonzero;stroke:none;stroke-width:1;stroke-linecap:round;stroke-linejoin:round;marker:none;marker-start:none;marker-mid:none;marker-end:none;stroke-miterlimit:4;stroke-dashoffset:0;stroke-opacity:1;visibility:visible;display:inline;overflow:visible"/>
      </g>
      <g style="display:inline" inkscape:label="finiture" id="g4820"/>
    </g>
    <g id="g4763" transform="matrix(1.002325,0,0,1,25.94886,20)">
      <g inkscape:label="Shadow" id="g4765"/>
      <g style="display:inline" inkscape:label="Lavoro" id="layer2">
        <g transform="translate(0,15.06603)" inkscape:label="Shadow" id="g2611"/>
        <g transform="translate(0,15.06603)" style="display:inline" inkscape:label="Lavoro" id="g2613"/>
        <rect y="13.570681" x="7.4910188" height="3.9293196" width="7.0145669" id="rect1428" style="opacity:1;color:black;fill:url(#linearGradient2238);fill-opacity:1;fill-rule:nonzero;stroke:#868883;stroke-width:0.99883866;stroke-linecap:round;stroke-linejoin:miter;marker:none;marker-start:none;marker-mid:none;marker-end:none;stroke-miterlimit:4;stroke-dasharray:none;stroke-dashoffset:0;stroke-opacity:1;visibility:visible;display:inline;overflow:visible"/>
        <rect ry="0.75630462" rx="0.75682575" y="0.5" x="1.5" height="14" width="19" id="rect1432" style="opacity:1;color:black;fill:#e4e4e1;fill-opacity:1;fill-rule:nonzero;stroke:#808083;stroke-width:0.99883866;stroke-linecap:round;stroke-linejoin:round;marker:none;marker-start:none;marker-mid:none;marker-end:none;stroke-miterlimit:4;stroke-dasharray:none;stroke-dashoffset:0;stroke-opacity:1;visibility:visible;display:inline;overflow:visible"/>
        <rect ry="0" rx="0" y="1.5" x="2.5" height="12" width="17" id="rect1434" style="opacity:1;color:black;fill:none;fill-opacity:1;fill-rule:nonzero;stroke:white;stroke-width:0.99883997;stroke-linecap:round;stroke-linejoin:round;marker:none;marker-start:none;marker-mid:none;marker-end:none;stroke-miterlimit:4;stroke-dasharray:none;stroke-dashoffset:0;stroke-opacity:1;visibility:visible;display:inline;overflow:visible"/>
        <rect y="2.4999998" x="3.4722338" height="9" width="15.027766" id="rect1436" style="opacity:1;color:black;fill:url(#radialGradient1509);fill-opacity:1;fill-rule:nonzero;stroke:#204a87;stroke-width:0.99883962;stroke-linecap:round;stroke-linejoin:round;marker:none;marker-start:none;marker-mid:none;marker-end:none;stroke-miterlimit:4;stroke-dasharray:none;stroke-dashoffset:0;stroke-opacity:1;visibility:visible;display:inline;overflow:visible"/>
        <g id="g2228">
          <path sodipodi:nodetypes="ccccc" id="path2622" d="M 1.5,16.5 L 20.5,16.5 L 21.529286,20.490574 L 0.5,20.5 L 1.5,16.5 z " style="color:black;fill:#eeeeec;fill-opacity:1;fill-rule:nonzero;stroke:url(#linearGradient2277);stroke-width:0.89895564;stroke-linecap:round;stroke-linejoin:round;marker:none;marker-start:none;marker-mid:none;marker-end:none;stroke-miterlimit:4;stroke-dasharray:none;stroke-dashoffset:0;stroke-opacity:1;visibility:visible;display:inline;overflow:visible"/>
          <path sodipodi:nodetypes="ccccc" id="path2626" d="M 3.5,16.5 L 18.5,16.5 L 19,18.5 L 3,18.5 L 3.5,16.5 z " style="color:black;fill:#bfc5ba;fill-opacity:1;fill-rule:nonzero;stroke:#b5b8b1;stroke-width:0.99884057;stroke-linecap:round;stroke-linejoin:round;marker:none;marker-start:none;marker-mid:none;marker-end:none;stroke-miterlimit:4;stroke-dashoffset:0;stroke-opacity:1;visibility:visible;display:inline;overflow:visible"/>
        </g>
        <path id="path2414" d="M 5.376964,16 C 5.3606945,16.003332 5.3301173,16.026378 5.314464,16.03125 C 5.2914934,16.039666 5.2419674,16.05095 5.220714,16.0625 C 5.1519872,16.104274 5.0749877,16.181273 5.033214,16.25 C 5.0216637,16.271253 5.0103799,16.320779 5.001964,16.34375 C 4.9946559,16.36723 4.9745098,16.412681 4.970714,16.4375 C 4.969006,16.454302 4.970714,16.48275 4.970714,16.5 C 4.970714,16.51725 4.969006,16.545698 4.970714,16.5625 C 4.9745098,16.587319 4.9946559,16.63277 5.001964,16.65625 C 5.0103799,16.679221 5.0216637,16.728747 5.033214,16.75 C 5.0749877,16.818727 5.1519872,16.895726 5.220714,16.9375 C 5.2419674,16.94905 5.2914934,16.960334 5.314464,16.96875 C 5.337944,16.976058 5.3833948,16.996204 5.408214,17 C 5.4250158,17.001708 5.453464,17 5.470714,17 C 5.487964,17 5.5164122,17.001708 5.533214,17 C 5.5580332,16.996204 5.603484,16.976058 5.626964,16.96875 C 5.6499346,16.960334 5.6994606,16.94905 5.720714,16.9375 C 5.7894408,16.895726 5.8664403,16.818727 5.908214,16.75 C 5.9197643,16.728747 5.9310481,16.679221 5.939464,16.65625 C 5.9467721,16.63277 5.9669182,16.587319 5.970714,16.5625 C 5.972422,16.545698 5.970714,16.51725 5.970714,16.5 C 5.970714,16.48275 5.972422,16.454302 5.970714,16.4375 C 5.9669182,16.412681 5.9467721,16.36723 5.939464,16.34375 C 5.9310481,16.320779 5.9197643,16.271253 5.908214,16.25 C 5.8664403,16.181273 5.7894408,16.104274 5.720714,16.0625 C 5.6994606,16.05095 5.6499346,16.039666 5.626964,16.03125 C 5.603484,16.023942 5.5580332,16.003796 5.533214,16 C 5.5164122,15.998292 5.487964,16 5.470714,16 C 5.453464,16 5.4250158,15.998292 5.408214,16 C 5.3999409,16.001265 5.3850988,15.998334 5.376964,16 z M 7.376964,16 C 7.3606945,16.003332 7.3301173,16.026378 7.314464,16.03125 C 7.2914934,16.039666 7.2419674,16.05095 7.220714,16.0625 C 7.1519872,16.104274 7.0749877,16.181273 7.033214,16.25 C 7.0216637,16.271253 7.0103799,16.320779 7.001964,16.34375 C 6.9946559,16.36723 6.9745098,16.412681 6.970714,16.4375 C 6.969006,16.454302 6.970714,16.48275 6.970714,16.5 C 6.970714,16.51725 6.969006,16.545698 6.970714,16.5625 C 6.9745098,16.587319 6.9946559,16.63277 7.001964,16.65625 C 7.0103799,16.679221 7.0216637,16.728747 7.033214,16.75 C 7.0749877,16.818727 7.1519872,16.895726 7.220714,16.9375 C 7.2419674,16.94905 7.2914934,16.960334 7.314464,16.96875 C 7.337944,16.976058 7.3833948,16.996204 7.408214,17 C 7.4250158,17.001708 7.453464,17 7.470714,17 C 7.487964,17 7.5164122,17.001708 7.533214,17 C 7.5580332,16.996204 7.603484,16.976058 7.626964,16.96875 C 7.6499346,16.960334 7.6994606,16.94905 7.720714,16.9375 C 7.7894408,16.895726 7.8664403,16.818727 7.908214,16.75 C 7.9197643,16.728747 7.9310481,16.679221 7.939464,16.65625 C 7.9467721,16.63277 7.9669182,16.587319 7.970714,16.5625 C 7.972422,16.545698 7.970714,16.51725 7.970714,16.5 C 7.970714,16.48275 7.972422,16.454302 7.970714,16.4375 C 7.9669182,16.412681 7.9467721,16.36723 7.939464,16.34375 C 7.9310481,16.320779 7.9197643,16.271253 7.908214,16.25 C 7.8664403,16.181273 7.7894408,16.104274 7.720714,16.0625 C 7.6994606,16.05095 7.6499346,16.039666 7.626964,16.03125 C 7.603484,16.023942 7.5580332,16.003796 7.533214,16 C 7.5164122,15.998292 7.487964,16 7.470714,16 C 7.453464,16 7.4250158,15.998292 7.408214,16 C 7.3999409,16.001265 7.3850988,15.998334 7.376964,16 z M 9.376964,16 C 9.3606945,16.003332 9.3301173,16.026378 9.314464,16.03125 C 9.2914934,16.039666 9.2419674,16.05095 9.220714,16.0625 C 9.1519872,16.104274 9.0749877,16.181273 9.033214,16.25 C 9.0216637,16.271253 9.0103799,16.320779 9.001964,16.34375 C 8.9946559,16.36723 8.9745098,16.412681 8.970714,16.4375 C 8.969006,16.454302 8.970714,16.48275 8.970714,16.5 C 8.970714,16.51725 8.969006,16.545698 8.970714,16.5625 C 8.9745098,16.587319 8.9946559,16.63277 9.001964,16.65625 C 9.0103799,16.679221 9.0216637,16.728747 9.033214,16.75 C 9.0749877,16.818727 9.1519872,16.895726 9.220714,16.9375 C 9.2419674,16.94905 9.2914934,16.960334 9.314464,16.96875 C 9.337944,16.976058 9.3833948,16.996204 9.408214,17 C 9.4250158,17.001708 9.453464,17 9.470714,17 C 9.487964,17 9.5164122,17.001708 9.533214,17 C 9.5580332,16.996204 9.603484,16.976058 9.626964,16.96875 C 9.6499346,16.960334 9.6994606,16.94905 9.720714,16.9375 C 9.7894408,16.895726 9.8664403,16.818727 9.908214,16.75 C 9.9197643,16.728747 9.9310481,16.679221 9.939464,16.65625 C 9.9467721,16.63277 9.9669182,16.587319 9.970714,16.5625 C 9.972422,16.545698 9.970714,16.51725 9.970714,16.5 C 9.970714,16.48275 9.972422,16.454302 9.970714,16.4375 C 9.9669182,16.412681 9.9467721,16.36723 9.939464,16.34375 C 9.9310481,16.320779 9.9197643,16.271253 9.908214,16.25 C 9.8664403,16.181273 9.7894408,16.104274 9.720714,16.0625 C 9.6994606,16.05095 9.6499346,16.039666 9.626964,16.03125 C 9.603484,16.023942 9.5580332,16.003796 9.533214,16 C 9.5164122,15.998292 9.487964,16 9.470714,16 C 9.453464,16 9.4250158,15.998292 9.408214,16 C 9.3999409,16.001265 9.3850988,15.998334 9.376964,16 z M 11.376964,16 C 11.360694,16.003332 11.330117,16.026378 11.314464,16.03125 C 11.291493,16.039666 11.241967,16.05095 11.220714,16.0625 C 11.151987,16.104274 11.074988,16.181273 11.033214,16.25 C 11.021664,16.271253 11.01038,16.320779 11.001964,16.34375 C 10.994656,16.36723 10.97451,16.412681 10.970714,16.4375 C 10.969006,16.454302 10.970714,16.48275 10.970714,16.5 C 10.970714,16.51725 10.969006,16.545698 10.970714,16.5625 C 10.97451,16.587319 10.994656,16.63277 11.001964,16.65625 C 11.01038,16.679221 11.021664,16.728747 11.033214,16.75 C 11.074988,16.818727 11.151987,16.895726 11.220714,16.9375 C 11.241967,16.94905 11.291493,16.960334 11.314464,16.96875 C 11.337944,16.976058 11.383395,16.996204 11.408214,17 C 11.425016,17.001708 11.453464,17 11.470714,17 C 11.487964,17 11.516412,17.001708 11.533214,17 C 11.558033,16.996204 11.603484,16.976058 11.626964,16.96875 C 11.649935,16.960334 11.699461,16.94905 11.720714,16.9375 C 11.789441,16.895726 11.86644,16.818727 11.908214,16.75 C 11.919764,16.728747 11.931048,16.679221 11.939464,16.65625 C 11.946772,16.63277 11.966918,16.587319 11.970714,16.5625 C 11.972422,16.545698 11.970714,16.51725 11.970714,16.5 C 11.970714,16.48275 11.972422,16.454302 11.970714,16.4375 C 11.966918,16.412681 11.946772,16.36723 11.939464,16.34375 C 11.931048,16.320779 11.919764,16.271253 11.908214,16.25 C 11.86644,16.181273 11.789441,16.104274 11.720714,16.0625 C 11.699461,16.05095 11.649935,16.039666 11.626964,16.03125 C 11.603484,16.023942 11.558033,16.003796 11.533214,16 C 11.516412,15.998292 11.487964,16 11.470714,16 C 11.453464,16 11.425016,15.998292 11.408214,16 C 11.399941,16.001265 11.385099,15.998334 11.376964,16 z M 13.376964,16 C 13.360694,16.003332 13.330117,16.026378 13.314464,16.03125 C 13.291493,16.039666 13.241967,16.05095 13.220714,16.0625 C 13.151987,16.104274 13.074988,16.181273 13.033214,16.25 C 13.021664,16.271253 13.01038,16.320779 13.001964,16.34375 C 12.994656,16.36723 12.97451,16.412681 12.970714,16.4375 C 12.969006,16.454302 12.970714,16.48275 12.970714,16.5 C 12.970714,16.51725 12.969006,16.545698 12.970714,16.5625 C 12.97451,16.587319 12.994656,16.63277 13.001964,16.65625 C 13.01038,16.679221 13.021664,16.728747 13.033214,16.75 C 13.074988,16.818727 13.151987,16.895726 13.220714,16.9375 C 13.241967,16.94905 13.291493,16.960334 13.314464,16.96875 C 13.337944,16.976058 13.383395,16.996204 13.408214,17 C 13.425016,17.001708 13.453464,17 13.470714,17 C 13.487964,17 13.516412,17.001708 13.533214,17 C 13.558033,16.996204 13.603484,16.976058 13.626964,16.96875 C 13.649935,16.960334 13.699461,16.94905 13.720714,16.9375 C 13.789441,16.895726 13.86644,16.818727 13.908214,16.75 C 13.919764,16.728747 13.931048,16.679221 13.939464,16.65625 C 13.946772,16.63277 13.966918,16.587319 13.970714,16.5625 C 13.972422,16.545698 13.970714,16.51725 13.970714,16.5 C 13.970714,16.48275 13.972422,16.454302 13.970714,16.4375 C 13.966918,16.412681 13.946772,16.36723 13.939464,16.34375 C 13.931048,16.320779 13.919764,16.271253 13.908214,16.25 C 13.86644,16.181273 13.789441,16.104274 13.720714,16.0625 C 13.699461,16.05095 13.649935,16.039666 13.626964,16.03125 C 13.603484,16.023942 13.558033,16.003796 13.533214,16 C 13.516412,15.998292 13.487964,16 13.470714,16 C 13.453464,16 13.425016,15.998292 13.408214,16 C 13.399941,16.001265 13.385099,15.998334 13.376964,16 z M 15.376964,16 C 15.360694,16.003332 15.330117,16.026378 15.314464,16.03125 C 15.291493,16.039666 15.241967,16.05095 15.220714,16.0625 C 15.151987,16.104274 15.074988,16.181273 15.033214,16.25 C 15.021664,16.271253 15.01038,16.320779 15.001964,16.34375 C 14.994656,16.36723 14.97451,16.412681 14.970714,16.4375 C 14.969006,16.454302 14.970714,16.48275 14.970714,16.5 C 14.970714,16.51725 14.969006,16.545698 14.970714,16.5625 C 14.97451,16.587319 14.994656,16.63277 15.001964,16.65625 C 15.01038,16.679221 15.021664,16.728747 15.033214,16.75 C 15.074988,16.818727 15.151987,16.895726 15.220714,16.9375 C 15.241967,16.94905 15.291493,16.960334 15.314464,16.96875 C 15.337944,16.976058 15.383395,16.996204 15.408214,17 C 15.425016,17.001708 15.453464,17 15.470714,17 C 15.487964,17 15.516412,17.001708 15.533214,17 C 15.558033,16.996204 15.603484,16.976058 15.626964,16.96875 C 15.649935,16.960334 15.699461,16.94905 15.720714,16.9375 C 15.789441,16.895726 15.86644,16.818727 15.908214,16.75 C 15.919764,16.728747 15.931048,16.679221 15.939464,16.65625 C 15.946772,16.63277 15.966918,16.587319 15.970714,16.5625 C 15.972422,16.545698 15.970714,16.51725 15.970714,16.5 C 15.970714,16.48275 15.972422,16.454302 15.970714,16.4375 C 15.966918,16.412681 15.946772,16.36723 15.939464,16.34375 C 15.931048,16.320779 15.919764,16.271253 15.908214,16.25 C 15.86644,16.181273 15.789441,16.104274 15.720714,16.0625 C 15.699461,16.05095 15.649935,16.039666 15.626964,16.03125 C 15.603484,16.023942 15.558033,16.003796 15.533214,16 C 15.516412,15.998292 15.487964,16 15.470714,16 C 15.453464,16 15.425016,15.998292 15.408214,16 C 15.399941,16.001265 15.385099,15.998334 15.376964,16 z M 17.376964,16 C 17.360694,16.003332 17.330117,16.026378 17.314464,16.03125 C 17.291493,16.039666 17.241967,16.05095 17.220714,16.0625 C 17.151987,16.104274 17.074988,16.181273 17.033214,16.25 C 17.021664,16.271253 17.01038,16.320779 17.001964,16.34375 C 16.994656,16.36723 16.97451,16.412681 16.970714,16.4375 C 16.969006,16.454302 16.970714,16.48275 16.970714,16.5 C 16.970714,16.51725 16.969006,16.545698 16.970714,16.5625 C 16.97451,16.587319 16.994656,16.63277 17.001964,16.65625 C 17.01038,16.679221 17.021664,16.728747 17.033214,16.75 C 17.074988,16.818727 17.151987,16.895726 17.220714,16.9375 C 17.241967,16.94905 17.291493,16.960334 17.314464,16.96875 C 17.337944,16.976058 17.383395,16.996204 17.408214,17 C 17.425016,17.001708 17.453464,17 17.470714,17 C 17.487964,17 17.516412,17.001708 17.533214,17 C 17.558033,16.996204 17.603484,16.976058 17.626964,16.96875 C 17.649935,16.960334 17.699461,16.94905 17.720714,16.9375 C 17.789441,16.895726 17.86644,16.818727 17.908214,16.75 C 17.919764,16.728747 17.931048,16.679221 17.939464,16.65625 C 17.946772,16.63277 17.966918,16.587319 17.970714,16.5625 C 17.972422,16.545698 17.970714,16.51725 17.970714,16.5 C 17.970714,16.48275 17.972422,16.454302 17.970714,16.4375 C 17.966918,16.412681 17.946772,16.36723 17.939464,16.34375 C 17.931048,16.320779 17.919764,16.271253 17.908214,16.25 C 17.86644,16.181273 17.789441,16.104274 17.720714,16.0625 C 17.699461,16.05095 17.649935,16.039666 17.626964,16.03125 C 17.603484,16.023942 17.558033,16.003796 17.533214,16 C 17.516412,15.998292 17.487964,16 17.470714,16 C 17.453464,16 17.425016,15.998292 17.408214,16 C 17.399941,16.001265 17.385099,15.998334 17.376964,16 z M 4.376964,17 C 4.3606945,17.003332 4.3301173,17.026378 4.314464,17.03125 C 4.2914934,17.039666 4.2419674,17.05095 4.220714,17.0625 C 4.1519872,17.104274 4.0749877,17.181273 4.033214,17.25 C 4.0216637,17.271253 4.0103799,17.320779 4.001964,17.34375 C 3.9946559,17.36723 3.9745098,17.412681 3.970714,17.4375 C 3.969006,17.454302 3.970714,17.48275 3.970714,17.5 C 3.970714,17.51725 3.969006,17.545698 3.970714,17.5625 C 3.9745098,17.587319 3.9946559,17.63277 4.001964,17.65625 C 4.0103799,17.679221 4.0216637,17.728747 4.033214,17.75 C 4.0749877,17.818727 4.1519872,17.895726 4.220714,17.9375 C 4.2419674,17.94905 4.2914934,17.960334 4.314464,17.96875 C 4.337944,17.976058 4.3833948,17.996204 4.408214,18 C 4.4250158,18.001708 4.453464,18 4.470714,18 C 4.487964,18 4.5164122,18.001708 4.533214,18 C 4.5580332,17.996204 4.603484,17.976058 4.626964,17.96875 C 4.6499346,17.960334 4.6994606,17.94905 4.720714,17.9375 C 4.7894408,17.895726 4.8664403,17.818727 4.908214,17.75 C 4.9197643,17.728747 4.9310481,17.679221 4.939464,17.65625 C 4.9467721,17.63277 4.9669182,17.587319 4.970714,17.5625 C 4.972422,17.545698 4.970714,17.51725 4.970714,17.5 C 4.970714,17.48275 4.972422,17.454302 4.970714,17.4375 C 4.9669182,17.412681 4.9467721,17.36723 4.939464,17.34375 C 4.9310481,17.320779 4.9197643,17.271253 4.908214,17.25 C 4.8664403,17.181273 4.7894408,17.104274 4.720714,17.0625 C 4.6994606,17.05095 4.6499346,17.039666 4.626964,17.03125 C 4.603484,17.023942 4.5580332,17.003796 4.533214,17 C 4.5164122,16.998292 4.487964,17 4.470714,17 C 4.453464,17 4.4250158,16.998292 4.408214,17 C 4.3999409,17.001265 4.3850988,16.998334 4.376964,17 z M 6.376964,17 C 6.3606945,17.003332 6.3301173,17.026378 6.314464,17.03125 C 6.2914934,17.039666 6.2419674,17.05095 6.220714,17.0625 C 6.1519872,17.104274 6.0749877,17.181273 6.033214,17.25 C 6.0216637,17.271253 6.0103799,17.320779 6.001964,17.34375 C 5.9946559,17.36723 5.9745098,17.412681 5.970714,17.4375 C 5.969006,17.454302 5.970714,17.48275 5.970714,17.5 C 5.970714,17.51725 5.969006,17.545698 5.970714,17.5625 C 5.9745098,17.587319 5.9946559,17.63277 6.001964,17.65625 C 6.0103799,17.679221 6.0216637,17.728747 6.033214,17.75 C 6.0749877,17.818727 6.1519872,17.895726 6.220714,17.9375 C 6.2419674,17.94905 6.2914934,17.960334 6.314464,17.96875 C 6.337944,17.976058 6.3833948,17.996204 6.408214,18 C 6.4250158,18.001708 6.453464,18 6.470714,18 C 6.487964,18 6.5164122,18.001708 6.533214,18 C 6.5580332,17.996204 6.603484,17.976058 6.626964,17.96875 C 6.6499346,17.960334 6.6994606,17.94905 6.720714,17.9375 C 6.7894408,17.895726 6.8664403,17.818727 6.908214,17.75 C 6.9197643,17.728747 6.9310481,17.679221 6.939464,17.65625 C 6.9467721,17.63277 6.9669182,17.587319 6.970714,17.5625 C 6.972422,17.545698 6.970714,17.51725 6.970714,17.5 C 6.970714,17.48275 6.972422,17.454302 6.970714,17.4375 C 6.9669182,17.412681 6.9467721,17.36723 6.939464,17.34375 C 6.9310481,17.320779 6.9197643,17.271253 6.908214,17.25 C 6.8664403,17.181273 6.7894408,17.104274 6.720714,17.0625 C 6.6994606,17.05095 6.6499346,17.039666 6.626964,17.03125 C 6.603484,17.023942 6.5580332,17.003796 6.533214,17 C 6.5164122,16.998292 6.487964,17 6.470714,17 C 6.453464,17 6.4250158,16.998292 6.408214,17 C 6.3999409,17.001265 6.3850988,16.998334 6.376964,17 z M 8.376964,17 C 8.3606945,17.003332 8.3301173,17.026378 8.314464,17.03125 C 8.2914934,17.039666 8.2419674,17.05095 8.220714,17.0625 C 8.1519872,17.104274 8.0749877,17.181273 8.033214,17.25 C 8.0216637,17.271253 8.0103799,17.320779 8.001964,17.34375 C 7.9946559,17.36723 7.9745098,17.412681 7.970714,17.4375 C 7.969006,17.454302 7.970714,17.48275 7.970714,17.5 C 7.970714,17.51725 7.969006,17.545698 7.970714,17.5625 C 7.9745098,17.587319 7.9946559,17.63277 8.001964,17.65625 C 8.0103799,17.679221 8.0216637,17.728747 8.033214,17.75 C 8.0749877,17.818727 8.1519872,17.895726 8.220714,17.9375 C 8.2419674,17.94905 8.2914934,17.960334 8.314464,17.96875 C 8.337944,17.976058 8.3833948,17.996204 8.408214,18 C 8.4250158,18.001708 8.453464,18 8.470714,18 C 8.487964,18 8.5164122,18.001708 8.533214,18 C 8.5580332,17.996204 8.603484,17.976058 8.626964,17.96875 C 8.6499346,17.960334 8.6994606,17.94905 8.720714,17.9375 C 8.7894408,17.895726 8.8664403,17.818727 8.908214,17.75 C 8.9197643,17.728747 8.9310481,17.679221 8.939464,17.65625 C 8.9467721,17.63277 8.9669182,17.587319 8.970714,17.5625 C 8.972422,17.545698 8.970714,17.51725 8.970714,17.5 C 8.970714,17.48275 8.972422,17.454302 8.970714,17.4375 C 8.9669182,17.412681 8.9467721,17.36723 8.939464,17.34375 C 8.9310481,17.320779 8.9197643,17.271253 8.908214,17.25 C 8.8664403,17.181273 8.7894408,17.104274 8.720714,17.0625 C 8.6994606,17.05095 8.6499346,17.039666 8.626964,17.03125 C 8.603484,17.023942 8.5580332,17.003796 8.533214,17 C 8.5164122,16.998292 8.487964,17 8.470714,17 C 8.453464,17 8.4250158,16.998292 8.408214,17 C 8.3999409,17.001265 8.3850988,16.998334 8.376964,17 z M 10.376964,17 C 10.360694,17.003332 10.330117,17.026378 10.314464,17.03125 C 10.291493,17.039666 10.241967,17.05095 10.220714,17.0625 C 10.151987,17.104274 10.074988,17.181273 10.033214,17.25 C 10.021664,17.271253 10.01038,17.320779 10.001964,17.34375 C 9.994656,17.36723 9.97451,17.412681 9.970714,17.4375 C 9.969006,17.454302 9.970714,17.48275 9.970714,17.5 C 9.970714,17.51725 9.969006,17.545698 9.970714,17.5625 C 9.97451,17.587319 9.994656,17.63277 10.001964,17.65625 C 10.01038,17.679221 10.021664,17.728747 10.033214,17.75 C 10.074988,17.818727 10.151987,17.895726 10.220714,17.9375 C 10.241967,17.94905 10.291493,17.960334 10.314464,17.96875 C 10.337944,17.976058 10.383395,17.996204 10.408214,18 C 10.425016,18.001708 10.453464,18 10.470714,18 C 10.487964,18 10.516412,18.001708 10.533214,18 C 10.558033,17.996204 10.603484,17.976058 10.626964,17.96875 C 10.649935,17.960334 10.699461,17.94905 10.720714,17.9375 C 10.789441,17.895726 10.86644,17.818727 10.908214,17.75 C 10.919764,17.728747 10.931048,17.679221 10.939464,17.65625 C 10.946772,17.63277 10.966918,17.587319 10.970714,17.5625 C 10.972422,17.545698 10.970714,17.51725 10.970714,17.5 C 10.970714,17.48275 10.972422,17.454302 10.970714,17.4375 C 10.966918,17.412681 10.946772,17.36723 10.939464,17.34375 C 10.931048,17.320779 10.919764,17.271253 10.908214,17.25 C 10.86644,17.181273 10.789441,17.104274 10.720714,17.0625 C 10.699461,17.05095 10.649935,17.039666 10.626964,17.03125 C 10.603484,17.023942 10.558033,17.003796 10.533214,17 C 10.516412,16.998292 10.487964,17 10.470714,17 C 10.453464,17 10.425016,16.998292 10.408214,17 C 10.399941,17.001265 10.385099,16.998334 10.376964,17 z M 12.376964,17 C 12.360694,17.003332 12.330117,17.026378 12.314464,17.03125 C 12.291493,17.039666 12.241967,17.05095 12.220714,17.0625 C 12.151987,17.104274 12.074988,17.181273 12.033214,17.25 C 12.021664,17.271253 12.01038,17.320779 12.001964,17.34375 C 11.994656,17.36723 11.97451,17.412681 11.970714,17.4375 C 11.969006,17.454302 11.970714,17.48275 11.970714,17.5 C 11.970714,17.51725 11.969006,17.545698 11.970714,17.5625 C 11.97451,17.587319 11.994656,17.63277 12.001964,17.65625 C 12.01038,17.679221 12.021664,17.728747 12.033214,17.75 C 12.074988,17.818727 12.151987,17.895726 12.220714,17.9375 C 12.241967,17.94905 12.291493,17.960334 12.314464,17.96875 C 12.337944,17.976058 12.383395,17.996204 12.408214,18 C 12.425016,18.001708 12.453464,18 12.470714,18 C 12.487964,18 12.516412,18.001708 12.533214,18 C 12.558033,17.996204 12.603484,17.976058 12.626964,17.96875 C 12.649935,17.960334 12.699461,17.94905 12.720714,17.9375 C 12.789441,17.895726 12.86644,17.818727 12.908214,17.75 C 12.919764,17.728747 12.931048,17.679221 12.939464,17.65625 C 12.946772,17.63277 12.966918,17.587319 12.970714,17.5625 C 12.972422,17.545698 12.970714,17.51725 12.970714,17.5 C 12.970714,17.48275 12.972422,17.454302 12.970714,17.4375 C 12.966918,17.412681 12.946772,17.36723 12.939464,17.34375 C 12.931048,17.320779 12.919764,17.271253 12.908214,17.25 C 12.86644,17.181273 12.789441,17.104274 12.720714,17.0625 C 12.699461,17.05095 12.649935,17.039666 12.626964,17.03125 C 12.603484,17.023942 12.558033,17.003796 12.533214,17 C 12.516412,16.998292 12.487964,17 12.470714,17 C 12.453464,17 12.425016,16.998292 12.408214,17 C 12.399941,17.001265 12.385099,16.998334 12.376964,17 z M 14.376964,17 C 14.360694,17.003332 14.330117,17.026378 14.314464,17.03125 C 14.291493,17.039666 14.241967,17.05095 14.220714,17.0625 C 14.151987,17.104274 14.074988,17.181273 14.033214,17.25 C 14.021664,17.271253 14.01038,17.320779 14.001964,17.34375 C 13.994656,17.36723 13.97451,17.412681 13.970714,17.4375 C 13.969006,17.454302 13.970714,17.48275 13.970714,17.5 C 13.970714,17.51725 13.969006,17.545698 13.970714,17.5625 C 13.97451,17.587319 13.994656,17.63277 14.001964,17.65625 C 14.01038,17.679221 14.021664,17.728747 14.033214,17.75 C 14.074988,17.818727 14.151987,17.895726 14.220714,17.9375 C 14.241967,17.94905 14.291493,17.960334 14.314464,17.96875 C 14.337944,17.976058 14.383395,17.996204 14.408214,18 C 14.425016,18.001708 14.453464,18 14.470714,18 C 14.487964,18 14.516412,18.001708 14.533214,18 C 14.558033,17.996204 14.603484,17.976058 14.626964,17.96875 C 14.649935,17.960334 14.699461,17.94905 14.720714,17.9375 C 14.789441,17.895726 14.86644,17.818727 14.908214,17.75 C 14.919764,17.728747 14.931048,17.679221 14.939464,17.65625 C 14.946772,17.63277 14.966918,17.587319 14.970714,17.5625 C 14.972422,17.545698 14.970714,17.51725 14.970714,17.5 C 14.970714,17.48275 14.972422,17.454302 14.970714,17.4375 C 14.966918,17.412681 14.946772,17.36723 14.939464,17.34375 C 14.931048,17.320779 14.919764,17.271253 14.908214,17.25 C 14.86644,17.181273 14.789441,17.104274 14.720714,17.0625 C 14.699461,17.05095 14.649935,17.039666 14.626964,17.03125 C 14.603484,17.023942 14.558033,17.003796 14.533214,17 C 14.516412,16.998292 14.487964,17 14.470714,17 C 14.453464,17 14.425016,16.998292 14.408214,17 C 14.399941,17.001265 14.385099,16.998334 14.376964,17 z M 16.376964,17 C 16.360694,17.003332 16.330117,17.026378 16.314464,17.03125 C 16.291493,17.039666 16.241967,17.05095 16.220714,17.0625 C 16.151987,17.104274 16.074988,17.181273 16.033214,17.25 C 16.021664,17.271253 16.01038,17.320779 16.001964,17.34375 C 15.994656,17.36723 15.97451,17.412681 15.970714,17.4375 C 15.969006,17.454302 15.970714,17.48275 15.970714,17.5 C 15.970714,17.51725 15.969006,17.545698 15.970714,17.5625 C 15.97451,17.587319 15.994656,17.63277 16.001964,17.65625 C 16.01038,17.679221 16.021664,17.728747 16.033214,17.75 C 16.074988,17.818727 16.151987,17.895726 16.220714,17.9375 C 16.241967,17.94905 16.291493,17.960334 16.314464,17.96875 C 16.337944,17.976058 16.383395,17.996204 16.408214,18 C 16.425016,18.001708 16.453464,18 16.470714,18 C 16.487964,18 16.516412,18.001708 16.533214,18 C 16.558033,17.996204 16.603484,17.976058 16.626964,17.96875 C 16.649935,17.960334 16.699461,17.94905 16.720714,17.9375 C 16.789441,17.895726 16.86644,17.818727 16.908214,17.75 C 16.919764,17.728747 16.931048,17.679221 16.939464,17.65625 C 16.946772,17.63277 16.966918,17.587319 16.970714,17.5625 C 16.972422,17.545698 16.970714,17.51725 16.970714,17.5 C 16.970714,17.48275 16.972422,17.454302 16.970714,17.4375 C 16.966918,17.412681 16.946772,17.36723 16.939464,17.34375 C 16.931048,17.320779 16.919764,17.271253 16.908214,17.25 C 16.86644,17.181273 16.789441,17.104274 16.720714,17.0625 C 16.699461,17.05095 16.649935,17.039666 16.626964,17.03125 C 16.603484,17.023942 16.558033,17.003796 16.533214,17 C 16.516412,16.998292 16.487964,17 16.470714,17 C 16.453464,17 16.425016,16.998292 16.408214,17 C 16.399941,17.001265 16.385099,16.998334 16.376964,17 z M 5.376964,18 C 5.3606945,18.003332 5.3301173,18.026378 5.314464,18.03125 C 5.2914934,18.039666 5.2419674,18.05095 5.220714,18.0625 C 5.1519872,18.104274 5.0749877,18.181273 5.033214,18.25 C 5.0216637,18.271253 5.0103799,18.320779 5.001964,18.34375 C 4.9946559,18.36723 4.9745098,18.412681 4.970714,18.4375 C 4.969006,18.454302 4.970714,18.48275 4.970714,18.5 C 4.970714,18.51725 4.969006,18.545698 4.970714,18.5625 C 4.9745098,18.587319 4.9946559,18.63277 5.001964,18.65625 C 5.0103799,18.679221 5.0216637,18.728747 5.033214,18.75 C 5.0749877,18.818727 5.1519872,18.895726 5.220714,18.9375 C 5.2419674,18.94905 5.2914934,18.960334 5.314464,18.96875 C 5.337944,18.976058 5.3833948,18.996204 5.408214,19 C 5.4250158,19.001708 5.453464,19 5.470714,19 C 5.487964,19 5.5164122,19.001708 5.533214,19 C 5.5580332,18.996204 5.603484,18.976058 5.626964,18.96875 C 5.6499346,18.960334 5.6994606,18.94905 5.720714,18.9375 C 5.7894408,18.895726 5.8664403,18.818727 5.908214,18.75 C 5.9197643,18.728747 5.9310481,18.679221 5.939464,18.65625 C 5.9467721,18.63277 5.9669182,18.587319 5.970714,18.5625 C 5.972422,18.545698 5.970714,18.51725 5.970714,18.5 C 5.970714,18.48275 5.972422,18.454302 5.970714,18.4375 C 5.9669182,18.412681 5.9467721,18.36723 5.939464,18.34375 C 5.9310481,18.320779 5.9197643,18.271253 5.908214,18.25 C 5.8664403,18.181273 5.7894408,18.104274 5.720714,18.0625 C 5.6994606,18.05095 5.6499346,18.039666 5.626964,18.03125 C 5.603484,18.023942 5.5580332,18.003796 5.533214,18 C 5.5164122,17.998292 5.487964,18 5.470714,18 C 5.453464,18 5.4250158,17.998292 5.408214,18 C 5.3999409,18.001265 5.3850988,17.998334 5.376964,18 z M 7.376964,18 C 7.3606945,18.003332 7.3301173,18.026378 7.314464,18.03125 C 7.2914934,18.039666 7.2419674,18.05095 7.220714,18.0625 C 7.1519872,18.104274 7.0749877,18.181273 7.033214,18.25 C 7.0216637,18.271253 7.0103799,18.320779 7.001964,18.34375 C 6.9946559,18.36723 6.9745098,18.412681 6.970714,18.4375 C 6.969006,18.454302 6.970714,18.48275 6.970714,18.5 C 6.970714,18.51725 6.969006,18.545698 6.970714,18.5625 C 6.9745098,18.587319 6.9946559,18.63277 7.001964,18.65625 C 7.0103799,18.679221 7.0216637,18.728747 7.033214,18.75 C 7.0749877,18.818727 7.1519872,18.895726 7.220714,18.9375 C 7.2419674,18.94905 7.2914934,18.960334 7.314464,18.96875 C 7.337944,18.976058 7.3833948,18.996204 7.408214,19 C 7.4250158,19.001708 7.453464,19 7.470714,19 C 7.487964,19 7.5164122,19.001708 7.533214,19 C 7.5580332,18.996204 7.603484,18.976058 7.626964,18.96875 C 7.6499346,18.960334 7.6994606,18.94905 7.720714,18.9375 C 7.7894408,18.895726 7.8664403,18.818727 7.908214,18.75 C 7.9197643,18.728747 7.9310481,18.679221 7.939464,18.65625 C 7.9467721,18.63277 7.9669182,18.587319 7.970714,18.5625 C 7.972422,18.545698 7.970714,18.51725 7.970714,18.5 C 7.970714,18.48275 7.972422,18.454302 7.970714,18.4375 C 7.9669182,18.412681 7.9467721,18.36723 7.939464,18.34375 C 7.9310481,18.320779 7.9197643,18.271253 7.908214,18.25 C 7.8664403,18.181273 7.7894408,18.104274 7.720714,18.0625 C 7.6994606,18.05095 7.6499346,18.039666 7.626964,18.03125 C 7.603484,18.023942 7.5580332,18.003796 7.533214,18 C 7.5164122,17.998292 7.487964,18 7.470714,18 C 7.453464,18 7.4250158,17.998292 7.408214,18 C 7.3999409,18.001265 7.3850988,17.998334 7.376964,18 z M 15.376964,18 C 15.360694,18.003332 15.330117,18.026378 15.314464,18.03125 C 15.291493,18.039666 15.241967,18.05095 15.220714,18.0625 C 15.151987,18.104274 15.074988,18.181273 15.033214,18.25 C 15.021664,18.271253 15.01038,18.320779 15.001964,18.34375 C 14.994656,18.36723 14.97451,18.412681 14.970714,18.4375 C 14.969006,18.454302 14.970714,18.48275 14.970714,18.5 C 14.970714,18.51725 14.969006,18.545698 14.970714,18.5625 C 14.97451,18.587319 14.994656,18.63277 15.001964,18.65625 C 15.01038,18.679221 15.021664,18.728747 15.033214,18.75 C 15.074988,18.818727 15.151987,18.895726 15.220714,18.9375 C 15.241967,18.94905 15.291493,18.960334 15.314464,18.96875 C 15.337944,18.976058 15.383395,18.996204 15.408214,19 C 15.425016,19.001708 15.453464,19 15.470714,19 C 15.487964,19 15.516412,19.001708 15.533214,19 C 15.558033,18.996204 15.603484,18.976058 15.626964,18.96875 C 15.649935,18.960334 15.699461,18.94905 15.720714,18.9375 C 15.789441,18.895726 15.86644,18.818727 15.908214,18.75 C 15.919764,18.728747 15.931048,18.679221 15.939464,18.65625 C 15.946772,18.63277 15.966918,18.587319 15.970714,18.5625 C 15.972422,18.545698 15.970714,18.51725 15.970714,18.5 C 15.970714,18.48275 15.972422,18.454302 15.970714,18.4375 C 15.966918,18.412681 15.946772,18.36723 15.939464,18.34375 C 15.931048,18.320779 15.919764,18.271253 15.908214,18.25 C 15.86644,18.181273 15.789441,18.104274 15.720714,18.0625 C 15.699461,18.05095 15.649935,18.039666 15.626964,18.03125 C 15.603484,18.023942 15.558033,18.003796 15.533214,18 C 15.516412,17.998292 15.487964,18 15.470714,18 C 15.453464,18 15.425016,17.998292 15.408214,18 C 15.399941,18.001265 15.385099,17.998334 15.376964,18 z M 17.376964,18 C 17.360694,18.003332 17.330117,18.026378 17.314464,18.03125 C 17.291493,18.039666 17.241967,18.05095 17.220714,18.0625 C 17.151987,18.104274 17.074988,18.181273 17.033214,18.25 C 17.021664,18.271253 17.01038,18.320779 17.001964,18.34375 C 16.994656,18.36723 16.97451,18.412681 16.970714,18.4375 C 16.969006,18.454302 16.970714,18.48275 16.970714,18.5 C 16.970714,18.51725 16.969006,18.545698 16.970714,18.5625 C 16.97451,18.587319 16.994656,18.63277 17.001964,18.65625 C 17.01038,18.679221 17.021664,18.728747 17.033214,18.75 C 17.074988,18.818727 17.151987,18.895726 17.220714,18.9375 C 17.241967,18.94905 17.291493,18.960334 17.314464,18.96875 C 17.337944,18.976058 17.383395,18.996204 17.408214,19 C 17.425016,19.001708 17.453464,19 17.470714,19 C 17.487964,19 17.516412,19.001708 17.533214,19 C 17.558033,18.996204 17.603484,18.976058 17.626964,18.96875 C 17.649935,18.960334 17.699461,18.94905 17.720714,18.9375 C 17.789441,18.895726 17.86644,18.818727 17.908214,18.75 C 17.919764,18.728747 17.931048,18.679221 17.939464,18.65625 C 17.946772,18.63277 17.966918,18.587319 17.970714,18.5625 C 17.972422,18.545698 17.970714,18.51725 17.970714,18.5 C 17.970714,18.48275 17.972422,18.454302 17.970714,18.4375 C 17.966918,18.412681 17.946772,18.36723 17.939464,18.34375 C 17.931048,18.320779 17.919764,18.271253 17.908214,18.25 C 17.86644,18.181273 17.789441,18.104274 17.720714,18.0625 C 17.699461,18.05095 17.649935,18.039666 17.626964,18.03125 C 17.603484,18.023942 17.558033,18.003796 17.533214,18 C 17.516412,17.998292 17.487964,18 17.470714,18 C 17.453464,18 17.425016,17.998292 17.408214,18 C 17.399941,18.001265 17.385099,17.998334 17.376964,18 z " style="fill:url(#radialGradient1357);fill-opacity:1;stroke:none;stroke-width:0.80000001;stroke-linecap:round;stroke-linejoin:round;stroke-miterlimit:4;stroke-dasharray:none;stroke-opacity:1"/>
        <g transform="translate(-306.25,-49)" inkscape:label="Shadow" id="g1598"/>
        <g transform="translate(-306.25,-49)" style="display:inline" inkscape:label="finiture" id="g1618"/>
        <path id="path2258" d="M 1.5,19.5 L 20.5,19.5" style="fill:none;fill-opacity:0.75;fill-rule:evenodd;stroke:white;stroke-width:0.99883962;stroke-linecap:round;stroke-linejoin:miter;stroke-miterlimit:4;stroke-dasharray:none;stroke-opacity:1"/>
        <path sodipodi:nodetypes="ccccc" id="rect2260" d="M 4,3 L 18,3 L 18,6 C 10.9375,6.0625 11,10 4,10 L 4,3 z " style="opacity:0.30196078;color:black;fill:url(#linearGradient2293);fill-opacity:1;fill-rule:nonzero;stroke:none;stroke-width:1;stroke-linecap:round;stroke-linejoin:round;marker:none;marker-start:none;marker-mid:none;marker-end:none;stroke-miterlimit:4;stroke-dashoffset:0;stroke-opacity:1;visibility:visible;display:inline;overflow:visible"/>
      </g>
      <g style="display:inline" inkscape:label="finiture" id="layer3"/>
    </g>
    <g id="g2235" transform="matrix(8.865102e-3,0,0,1.858481e-2,16.88494,34.80067)" style="opacity:1;display:inline">
      <rect y="-150.69685" x="-1559.2523" height="478.35718" width="1339.6335" id="rect2237" style="opacity:0.40206185;color:black;fill:url(#linearGradient2317);fill-opacity:1;fill-rule:nonzero;stroke:none;stroke-width:1;stroke-linecap:round;stroke-linejoin:miter;marker:none;marker-start:none;marker-mid:none;marker-end:none;stroke-miterlimit:4;stroke-dasharray:none;stroke-dashoffset:0;stroke-opacity:1;visibility:visible;display:inline;overflow:visible"/>
      <path sodipodi:nodetypes="cccc" id="path2239" d="M -219.61876,-150.68038 C -219.61876,-150.68038 -219.61876,327.65041 -219.61876,327.65041 C -76.744594,328.55086 125.78146,220.48075 125.78138,88.454235 C 125.78138,-43.572302 -33.655436,-150.68036 -219.61876,-150.68038 z " style="opacity:0.40206185;color:black;fill:url(#radialGradient2319);fill-opacity:1;fill-rule:nonzero;stroke:none;stroke-width:1;stroke-linecap:round;stroke-linejoin:miter;marker:none;marker-start:none;marker-mid:none;marker-end:none;stroke-miterlimit:4;stroke-dasharray:none;stroke-dashoffset:0;stroke-opacity:1;visibility:visible;display:inline;overflow:visible"/>
      <path style="opacity:0.40206185;color:black;fill:url(#radialGradient2321);fill-opacity:1;fill-rule:nonzero;stroke:none;stroke-width:1;stroke-linecap:round;stroke-linejoin:miter;marker:none;marker-start:none;marker-mid:none;marker-end:none;stroke-miterlimit:4;stroke-dasharray:none;stroke-dashoffset:0;stroke-opacity:1;visibility:visible;display:inline;overflow:visible" d="M -1559.2523,-150.68038 C -1559.2523,-150.68038 -1559.2523,327.65041 -1559.2523,327.65041 C -1702.1265,328.55086 -1904.6525,220.48075 -1904.6525,88.454235 C -1904.6525,-43.572302 -1745.2157,-150.68036 -1559.2523,-150.68038 z " id="path2241" sodipodi:nodetypes="cccc"/>
    </g>
    <path sodipodi:type="arc" style="fill:#d0d0ca;fill-opacity:1;stroke:#729fcf;stroke-width:1.31249964;stroke-linecap:round;stroke-linejoin:miter;stroke-miterlimit:4;stroke-dasharray:none;stroke-opacity:1" id="path6851" sodipodi:cx="35.625" sodipodi:cy="27.5625" sodipodi:rx="2.625" sodipodi:ry="2.625" d="M 38.25 27.5625 A 2.625 2.625 0 1 1  33,27.5625 A 2.625 2.625 0 1 1  38.25 27.5625 z" transform="matrix(0.761905,0,0,0.761905,-10.61161,12.53896)"/>
    <path style="color:black;fill:url(#linearGradient2714);fill-opacity:1;fill-rule:nonzero;stroke:#888a85;stroke-width:1.00000012;stroke-linecap:round;stroke-linejoin:round;marker:none;marker-start:none;marker-mid:none;marker-end:none;stroke-miterlimit:4;stroke-dasharray:none;stroke-dashoffset:1.4;stroke-opacity:1;visibility:visible;display:inline;overflow:visible" d="M 5.53261,13.500371 C 5.079705,13.500371 4.681258,13.700249 4.391306,14.018718 L 1.82337,16.759751 C 1.623946,17.132011 1.5,17.556812 1.5,18.015748 L 1.500001,35.928187 C 1.500001,37.352967 2.594396,38.499991 3.953805,38.499992 L 14.046197,38.499992 C 15.405609,38.499991 16.500001,37.352967 16.500001,35.928187 L 16.5,18.015748 C 16.5,17.556812 16.376057,17.132011 16.176631,16.759751 L 13.608697,14.018718 C 13.318744,13.700249 12.920299,13.500371 12.467392,13.500371 L 5.53261,13.500371 z " id="path2371" sodipodi:nodetypes="ccccccccccccc"/>
    <path sodipodi:type="inkscape:offset" inkscape:radius="-1" inkscape:original="M 5.53125 13.5 C 5.0783451 13.5 4.696202 13.712781 4.40625 14.03125 L 1.8125 16.75 C 1.613076 17.122261 1.5 17.572314 1.5 18.03125 L 1.5 35.9375 C 1.5 37.362279 2.609341 38.499999 3.96875 38.5 L 14.03125 38.5 C 15.390662 38.499999 16.5 37.36228 16.5 35.9375 L 16.5 18.03125 C 16.5 17.572315 16.386926 17.12226 16.1875 16.75 L 13.59375 14.03125 C 13.303797 13.712781 12.921657 13.5 12.46875 13.5 L 5.53125 13.5 z " style="color:black;fill:none;fill-opacity:1;fill-rule:nonzero;stroke:white;stroke-width:1;stroke-linecap:round;stroke-linejoin:round;marker:none;marker-start:none;marker-mid:none;marker-end:none;stroke-miterlimit:4;stroke-dasharray:none;stroke-dashoffset:1.4;stroke-opacity:1;visibility:visible;display:inline;overflow:visible;opacity:0.6" id="path3537" d="M 5.53125,14.5 C 5.3915543,14.5 5.3010172,14.559745 5.15625,14.71875 C 5.145834,14.718913 5.135416,14.718913 5.125,14.71875 L 2.65625,17.28125 C 2.5560782,17.490963 2.5,17.760577 2.5,18.03125 L 2.5,35.9375 C 2.5,36.843209 3.1672889,37.499999 3.96875,37.5 L 14.03125,37.5 C 14.832716,37.499999 15.5,36.843211 15.5,35.9375 L 15.5,18.03125 C 15.5,17.760575 15.44392,17.490958 15.34375,17.28125 L 12.875,14.71875 C 12.864584,14.718913 12.854166,14.718913 12.84375,14.71875 C 12.698979,14.559741 12.608449,14.5 12.46875,14.5 L 5.53125,14.5 z "/>
    <rect style="color:black;fill:url(#linearGradient2710);fill-opacity:1;fill-rule:nonzero;stroke:white;stroke-width:0.99999952;stroke-linecap:round;stroke-linejoin:miter;marker:none;marker-start:none;marker-mid:none;marker-end:none;stroke-miterlimit:4;stroke-dasharray:none;stroke-dashoffset:1.4;stroke-opacity:1;visibility:visible;display:inline;overflow:visible" id="rect2377" width="13" height="21" x="2.5" y="16.5" rx="1.4826374" ry="1.4826374"/>
    <rect style="opacity:0.8;color:black;fill:none;fill-opacity:1;fill-rule:nonzero;stroke:url(#linearGradient2694);stroke-width:1.00000012;stroke-linecap:round;stroke-linejoin:miter;marker:none;marker-start:none;marker-mid:none;marker-end:none;stroke-miterlimit:4;stroke-dasharray:none;stroke-dashoffset:1.4;stroke-opacity:1;visibility:visible;display:inline;overflow:visible" id="rect2379" width="11" height="19" x="3.5" y="17.5" rx="0.54374039" ry="0.54374039"/>
    <rect style="color:black;fill:url(#linearGradient2722);fill-opacity:1;fill-rule:nonzero;stroke:#b2b2b2;stroke-width:0.9999997;stroke-linecap:round;stroke-linejoin:round;marker:none;marker-start:none;marker-mid:none;marker-end:none;stroke-miterlimit:4;stroke-dasharray:none;stroke-dashoffset:0;stroke-opacity:1;visibility:visible;display:inline;overflow:visible" id="rect2716" width="7" height="3.0000038" x="5.5" y="19.499994" rx="0" ry="0"/>
    <rect style="fill:url(#linearGradient2724);fill-opacity:1;stroke:#b2b2b2;stroke-width:1.00000012;stroke-linecap:round;stroke-linejoin:round;stroke-miterlimit:4;stroke-dasharray:none;stroke-opacity:1" id="rect2718" width="7.0000076" height="2.999999" x="5.4999924" y="22.49999" rx="0" ry="0"/>
    <rect style="fill:#eeeeec;fill-opacity:1;stroke:#b2b2b2;stroke-width:0.99999958;stroke-linecap:round;stroke-linejoin:round;stroke-miterlimit:4;stroke-dasharray:none;stroke-opacity:1" id="rect2720" width="4.0000095" height="1.9999981" x="8.4999905" y="27.500002" rx="0" ry="0"/>
    <path sodipodi:type="arc" style="fill:#d0d0ca;fill-opacity:1;stroke:#555753;stroke-width:1.81479383;stroke-linecap:round;stroke-linejoin:round;stroke-miterlimit:4;stroke-dasharray:none;stroke-opacity:1" id="path2726" sodipodi:cx="17" sodipodi:cy="26" sodipodi:rx="1.5714285" sodipodi:ry="1.5714285" d="M 18.571429 26 A 1.5714285 1.5714285 0 1 1  15.428571,26 A 1.5714285 1.5714285 0 1 1  18.571429 26 z" transform="matrix(0.557562,0,0,0.544568,-3.69619,14.69661)"/>
    <rect style="fill:none;fill-opacity:1;stroke:url(#linearGradient2732);stroke-width:0.99999928;stroke-linecap:round;stroke-linejoin:miter;stroke-miterlimit:4;stroke-dasharray:none;stroke-dashoffset:1.20000057;stroke-opacity:1" id="rect2728" width="3.0036838" height="2.9999917" x="4.5" y="27.500015" rx="2.499989" ry="2.4999876"/>
    <path sodipodi:type="arc" style="fill:#f7f7f7;fill-opacity:1;stroke:none;stroke-width:1;stroke-linecap:round;stroke-linejoin:round;stroke-miterlimit:4;stroke-dasharray:none;stroke-opacity:1" id="path2730" sodipodi:cx="16.639107" sodipodi:cy="25.61565" sodipodi:rx="0.53033012" sodipodi:ry="0.46403882" d="M 17.169437 25.61565 A 0.53033012 0.46403882 0 1 1  16.108777,25.61565 A 0.53033012 0.46403882 0 1 1  17.169437 25.61565 z" transform="matrix(1.018125,0,0,1.136473,-11.39411,-0.770398)"/>
    <g id="g2734" transform="matrix(1,0,0,0.714894,-1,9.15079)" style="opacity:0.7">
      <path id="path2736" d="M 6.5,31.262271 L 6.5,37.556911" style="fill:#959595;fill-opacity:1;fill-rule:evenodd;stroke:url(#linearGradient2744);stroke-width:1.18271196px;stroke-linecap:butt;stroke-linejoin:miter;stroke-opacity:1" sodipodi:nodetypes="cc"/>
      <path style="fill:#959595;fill-opacity:1;fill-rule:evenodd;stroke:url(#linearGradient2746);stroke-width:1.18271196px;stroke-linecap:butt;stroke-linejoin:miter;stroke-opacity:1" d="M 8.5,31.262271 L 8.5,37.556911" id="path2738" sodipodi:nodetypes="cc"/>
      <path id="path2740" d="M 10.5,31.262271 L 10.5,37.556911" style="fill:#959595;fill-opacity:1;fill-rule:evenodd;stroke:url(#linearGradient2748);stroke-width:1.18271196px;stroke-linecap:butt;stroke-linejoin:miter;stroke-opacity:1" sodipodi:nodetypes="cc"/>
      <path style="fill:#959595;fill-opacity:1;fill-rule:evenodd;stroke:url(#linearGradient2750);stroke-width:1.18271196px;stroke-linecap:butt;stroke-linejoin:miter;stroke-opacity:1" d="M 12.5,31.262271 L 12.5,37.556911" id="path2742" sodipodi:nodetypes="cc"/>
    </g>
  </g>
</svg>
