<?xml version="1.0" encoding="UTF-8" standalone="no"?>
<!-- Created with Inkscape (http://www.inkscape.org/) -->
<svg xmlns:dc="http://purl.org/dc/elements/1.1/" xmlns:cc="http://web.resource.org/cc/" xmlns:rdf="http://www.w3.org/1999/02/22-rdf-syntax-ns#" xmlns:svg="http://www.w3.org/2000/svg" xmlns="http://www.w3.org/2000/svg" xmlns:xlink="http://www.w3.org/1999/xlink" xmlns:sodipodi="http://sodipodi.sourceforge.net/DTD/sodipodi-0.dtd" xmlns:inkscape="http://www.inkscape.org/namespaces/inkscape" version="1.0" x="0.0000000" y="0.0000000" width="48.000000px" height="48.000000px" id="svg1" sodipodi:version="0.32" inkscape:version="0.44" sodipodi:docname="folder-drag-accept.svg" sodipodi:docbase="/home/lapo/Icone/cvs/gnome-icon-theme/scalable/status" inkscape:export-filename="/home/jimmac/Desktop/inkscape.png" inkscape:export-xdpi="90.000000" inkscape:export-ydpi="90.000000" inkscape:output_extension="org.inkscape.output.svg.inkscape">
  <defs id="defs3">
    <linearGradient id="linearGradient4734">
      <stop style="stop-color:#cccdbc;stop-opacity:1;" offset="0" id="stop4736"/>
      <stop style="stop-color:#b9baa4;stop-opacity:1;" offset="1" id="stop4738"/>
    </linearGradient>
    <linearGradient inkscape:collect="always" xlink:href="#linearGradient4734" id="linearGradient4740" x1="24.588383" y1="1.8991361" x2="24.588383" y2="40.858932" gradientUnits="userSpaceOnUse"/>
    <linearGradient id="linearGradient356">
      <stop style="stop-color:#fffff3;stop-opacity:0.54455447;" offset="0.0000000" id="stop357"/>
      <stop style="stop-color:#fffff3;stop-opacity:0.0000000;" offset="1.0000000" id="stop358"/>
    </linearGradient>
    <linearGradient id="linearGradient311">
      <stop style="stop-color:#cfcfc4;stop-opacity:1.0000000;" offset="0.0000000" id="stop312"/>
      <stop style="stop-color:#cfcfc4;stop-opacity:1.0000000;" offset="0.32673267" id="stop335"/>
      <stop style="stop-color:#cfcfc4;stop-opacity:0;" offset="1" id="stop313"/>
    </linearGradient>
    <linearGradient id="linearGradient235">
      <stop style="stop-color:#676756;stop-opacity:1;" offset="0" id="stop236"/>
      <stop style="stop-color:#90937c;stop-opacity:1;" offset="1" id="stop237"/>
    </linearGradient>
    <linearGradient inkscape:collect="always" xlink:href="#linearGradient235" id="linearGradient253" gradientTransform="scale(1.068312,0.936056)" x1="24.983023" y1="43.710369" x2="24.983023" y2="19.705572" gradientUnits="userSpaceOnUse"/>
    <linearGradient inkscape:collect="always" xlink:href="#linearGradient311" id="linearGradient320" gradientUnits="userSpaceOnUse" gradientTransform="scale(0.750458,1.332520)" x1="32.827568" y1="7.9206076" x2="60.071049" y2="7.8678756"/>
    <linearGradient inkscape:collect="always" xlink:href="#linearGradient356" id="linearGradient2892" gradientUnits="userSpaceOnUse" gradientTransform="matrix(0.806859,0,0,0.67071,-0.104854,18.69867)" x1="24.710207" y1="16.329607" x2="29.842236" y2="27.759533"/>
  </defs>
  <g inkscape:groupmode="layer" id="layer1" inkscape:label="pixmap" style="display:inline"/>
  <g inkscape:groupmode="layer" id="layer2" inkscape:label="vectors" style="display:inline">
    <g transform="matrix(0.216083,0,0,0.226386,-1.393233,-2.889517)" id="g1197" inkscape:r_cx="true" inkscape:r_cy="true">
      <path d="M 32.706693,164.36026 C 22.319193,164.36026 13.956693,172.72276 13.956693,183.11026 C 13.956693,193.49776 22.319193,201.86026 32.706693,201.86026 L 205.20669,201.86026 C 215.59419,201.86026 223.95669,193.49776 223.95669,183.11026 C 223.95669,172.72276 215.59419,164.36026 205.20669,164.36026 L 32.706693,164.36026 z " style="opacity:0.04787233;fill-rule:evenodd;stroke-width:3pt" id="path1196" inkscape:r_cx="true" inkscape:r_cy="true"/>
      <path d="M 32.706693,165.61026 C 23.011693,165.61026 15.206693,173.41526 15.206693,183.11026 C 15.206693,192.80526 23.011693,200.61026 32.706693,200.61026 L 205.20669,200.61026 C 214.90169,200.61026 222.70669,192.80526 222.70669,183.11026 C 222.70669,173.41526 214.90169,165.61026 205.20669,165.61026 L 32.706693,165.61026 z " style="opacity:0.04787233;fill-rule:evenodd;stroke-width:3pt" id="path1195" inkscape:r_cx="true" inkscape:r_cy="true"/>
      <path d="M 32.706694,166.86026 C 23.704194,166.86026 16.456694,174.10776 16.456694,183.11026 C 16.456694,192.11276 23.704194,199.36026 32.706694,199.36026 L 205.20669,199.36026 C 214.20919,199.36026 221.45669,192.11276 221.45669,183.11026 C 221.45669,174.10776 214.20919,166.86026 205.20669,166.86026 L 32.706694,166.86026 z " style="opacity:0.04787233;fill-rule:evenodd;stroke-width:3pt" id="path1194" inkscape:r_cx="true" inkscape:r_cy="true"/>
      <path d="M 32.706694,168.11026 C 24.396694,168.11026 17.706694,174.80026 17.706694,183.11026 C 17.706694,191.42026 24.396694,198.11026 32.706694,198.11026 L 205.20669,198.11026 C 213.51669,198.11026 220.20669,191.42026 220.20669,183.11026 C 220.20669,174.80026 213.51669,168.11026 205.20669,168.11026 L 32.706694,168.11026 z " style="opacity:0.04787233;fill-rule:evenodd;stroke-width:3pt" id="path1193" inkscape:r_cx="true" inkscape:r_cy="true"/>
      <path d="M 32.707764,169.36026 C 25.090264,169.36026 18.957764,175.49276 18.957764,183.11026 C 18.957764,190.72776 25.090264,196.86026 32.707764,196.86026 L 205.20618,196.86026 C 212.82368,196.86026 218.95618,190.72776 218.95618,183.11026 C 218.95618,175.49276 212.82368,169.36026 205.20618,169.36026 L 32.707764,169.36026 z " style="opacity:0.04787233;fill-rule:evenodd;stroke-width:3pt" id="path1192" inkscape:r_cx="true" inkscape:r_cy="true"/>
      <path d="M 32.706694,170.61026 C 25.781694,170.61026 20.206694,176.18526 20.206694,183.11026 C 20.206694,190.03526 25.781694,195.61026 32.706694,195.61026 L 205.20669,195.61026 C 212.13169,195.61026 217.70669,190.03526 217.70669,183.11026 C 217.70669,176.18526 212.13169,170.61026 205.20669,170.61026 L 32.706694,170.61026 z " style="opacity:0.04787233;fill-rule:evenodd;stroke-width:3pt" id="path1191" inkscape:r_cx="true" inkscape:r_cy="true"/>
      <path d="M 32.706694,171.86026 C 26.474194,171.86026 21.456694,176.87776 21.456694,183.11026 C 21.456694,189.34276 26.474194,194.36026 32.706694,194.36026 L 205.20669,194.36026 C 211.43919,194.36026 216.45669,189.34276 216.45669,183.11026 C 216.45669,176.87776 211.43919,171.86026 205.20669,171.86026 L 32.706694,171.86026 z " style="opacity:0.04787233;fill-rule:evenodd;stroke-width:3pt" id="path1190" inkscape:r_cx="true" inkscape:r_cy="true"/>
      <path d="M 32.706694,173.11026 C 27.166694,173.11026 22.706694,177.57026 22.706694,183.11026 C 22.706694,188.65026 27.166694,193.11026 32.706694,193.11026 L 205.20669,193.11026 C 210.74669,193.11026 215.20669,188.65026 215.20669,183.11026 C 215.20669,177.57026 210.74669,173.11026 205.20669,173.11026 L 32.706694,173.11026 z " style="opacity:0.04787233;fill-rule:evenodd;stroke-width:3pt" id="path1189" inkscape:r_cx="true" inkscape:r_cy="true"/>
    </g>
    <path d="M 5.4186638,5.4561100 C 4.9536872,5.4561100 4.6035534,5.6913368 4.6035534,6.1828330 L 4.6035534,39.203794 C 4.6035534,39.930940 5.0906584,40.415354 5.7526104,40.415354 L 43.489564,40.415354 C 44.155366,40.415354 44.419872,39.962588 44.419872,39.328794 L 44.419872,10.425912 C 44.419872,9.8829469 44.019585,9.5893540 43.520814,9.5893540 L 24.411490,9.5893540 C 24.074477,9.5893540 23.714810,9.3909280 23.517009,9.1180670 L 20.914778,5.9180580 C 20.696913,5.6175190 20.272703,5.4561250 19.901500,5.4561250 L 5.4186638,5.4561100 z " style="fill:url(#linearGradient253);fill-opacity:1;fill-rule:evenodd;stroke:#555753;stroke-width:1;stroke-miterlimit:4;stroke-opacity:1;opacity:1;color:#000000;stroke-linecap:butt;stroke-linejoin:miter;marker:none;marker-start:none;marker-mid:none;marker-end:none;stroke-dasharray:none;stroke-dashoffset:0;visibility:visible;display:inline;overflow:visible" id="path895" sodipodi:nodetypes="ccccccccccccc"/>
    <g id="g891" transform="matrix(0.186703,0.000000,0.000000,0.186703,-21.10730,57.62299)"/>
    <path style="color:#000000;fill:url(#linearGradient320);fill-opacity:1.0000000;fill-rule:evenodd;stroke:none;stroke-width:0.25000000pt;stroke-linecap:butt;stroke-linejoin:miter;stroke-miterlimit:4.0000000;stroke-dashoffset:0.0000000;stroke-opacity:1.0000000;marker:none;marker-start:none;marker-mid:none;marker-end:none;visibility:visible;display:inline;overflow:visible" d="M 5.0625000,7.9062500 L 5.0625000,36.156250 L 6.0312500,31.781250 L 6.2500000,9.1562500 C 6.2500000,8.4058274 6.7614657,8.0312500 7.4869586,8.0312500 L 19.093750,8.0312500 C 20.655346,8.0312500 22.108598,11.218750 24.411417,11.218750 C 30.383036,11.218750 43.749813,11.306338 43.750000,11.218750 L 43.750000,10.187500 L 24.218750,10.062500 C 22.362615,10.050621 21.088324,6.9062500 19.656250,6.9062500 L 6.2838336,6.9062500 C 5.4685048,6.9062500 5.0625000,7.2604161 5.0625000,7.9062500 z " id="path315" sodipodi:nodetypes="ccccczscczzcc"/>
    <path style="color:#000000;fill:url(#linearGradient4740);fill-opacity:1;fill-rule:evenodd;stroke:#555753;stroke-width:0.99999988;stroke-linecap:butt;stroke-linejoin:round;marker:none;marker-start:none;marker-mid:none;marker-end:none;stroke-miterlimit:4;stroke-dashoffset:0;stroke-opacity:1;visibility:visible;display:inline;overflow:visible;opacity:1;stroke-dasharray:none" d="M 2.0236282,29.499437 L 14.898103,29.499437 C 15.636925,29.499437 16.260703,29.297454 16.578647,29.031618 C 16.714853,28.917736 17.841652,28.096752 17.930992,28.027535 C 18.228606,27.796956 18.700874,27.625003 19.267706,27.625003 L 46.173991,27.625003 C 47.176801,27.625003 47.695063,28.703042 47.484882,29.495483 L 44.72546,39.899257 C 44.551522,40.555052 44.019171,40.681456 43.219486,40.681456 L 5.443473,40.681456 C 4.643789,40.681456 4.1553885,40.315646 4,39.915832 L 0.72855339,31.498408 C 0.41139459,30.682359 0.35106717,29.499437 2.0236282,29.499437 z " id="rect337" sodipodi:nodetypes="czzszssssssss" inkscape:r_cx="true" inkscape:r_cy="true"/>
    <path style="color:#000000;fill:url(#linearGradient2892);fill-opacity:1;fill-rule:evenodd;stroke:none;stroke-width:0.25pt;stroke-linecap:butt;stroke-linejoin:miter;marker:none;marker-start:none;marker-mid:none;marker-end:none;stroke-miterlimit:4;stroke-dashoffset:0;stroke-opacity:1;visibility:visible;display:inline;overflow:visible" d="M 19.179997,28.088388 C 17.854432,28.088388 17.457721,29.975139 14.938039,30.013665 C 13.688423,30.032771 2.63052,29.96947 2.13052,29.96947 C 0.71879794,29.96947 1.0420794,30.616323 1.1760152,31.225875 C 1.3085977,31.829268 4.3411486,39.433308 4.3411486,39.433308 C 4.590842,39.984847 4.3231494,40.116308 5.1773161,40.116308 C 5.1773161,40.116308 2.3527919,31.873464 2.3527919,31.535234 C 2.3527919,31.304616 2.1661238,30.95258 2.616656,30.95258 C 3.116656,30.95258 12.84835,30.95258 14.09835,30.95258 C 17.775964,30.95258 17.993814,29.027304 20.093369,29.027304 C 21.310036,29.027304 45.044195,29.061127 45.044195,29.061127 L 46.900349,28.078017 C 46.900349,28.078017 20.46333,28.088388 19.179997,28.088388 z " id="path349" sodipodi:nodetypes="csssccssssccs" inkscape:r_cx="true" inkscape:r_cy="true"/>
    <rect style="color:#000000;fill:#fffffd;fill-opacity:1.0000000;fill-rule:evenodd;stroke:none;stroke-width:0.25000000pt;stroke-linecap:butt;stroke-linejoin:miter;stroke-miterlimit:4.0000000;stroke-dashoffset:0.0000000;stroke-opacity:1.0000000;marker:none;marker-start:none;marker-mid:none;marker-end:none;visibility:visible;display:inline;overflow:visible" id="rect459" width="1.2500000" height="1.2500000" x="5.5290294" y="7.3598347" rx="1.4434735" ry="1.2500000"/>
  </g>
</svg>
