<?xml version="1.0" encoding="UTF-8" standalone="no"?>
<!-- Created with Inkscape (http://www.inkscape.org/) -->
<svg xmlns:dc="http://purl.org/dc/elements/1.1/" xmlns:cc="http://web.resource.org/cc/" xmlns:rdf="http://www.w3.org/1999/02/22-rdf-syntax-ns#" xmlns:svg="http://www.w3.org/2000/svg" xmlns="http://www.w3.org/2000/svg" xmlns:xlink="http://www.w3.org/1999/xlink" xmlns:sodipodi="http://sodipodi.sourceforge.net/DTD/sodipodi-0.dtd" xmlns:inkscape="http://www.inkscape.org/namespaces/inkscape" inkscape:export-ydpi="240.00000" inkscape:export-xdpi="240.00000" inkscape:export-filename="/home/jimmac/gfx/novell/pdes/trunk/docs/BIGmime-text.png" sodipodi:docname="text-html.svg" sodipodi:docbase="/home/lapo/Icone/cvs/gnome-icon-theme/scalable/mimetypes" inkscape:version="0.44" sodipodi:version="0.32" id="svg249" height="48.000000px" width="48.000000px" inkscape:output_extension="org.inkscape.output.svg.inkscape">
  <defs id="defs3">
    <linearGradient id="linearGradient8930">
      <stop id="stop8932" offset="0" style="stop-color:#cee14b"/>
      <stop id="stop8934" offset="1" style="stop-color:#9db029"/>
    </linearGradient>
    <linearGradient id="linearGradient8924">
      <stop id="stop8926" offset="0" style="stop-color:#cee14b"/>
      <stop id="stop8928" offset="1" style="stop-color:#9db029"/>
    </linearGradient>
    <linearGradient id="linearGradient8918">
      <stop id="stop8920" offset="0" style="stop-color:#cee14b"/>
      <stop id="stop8922" offset="1" style="stop-color:#9db029"/>
    </linearGradient>
    <linearGradient id="linearGradient8912">
      <stop style="stop-color:#cee14b" offset="0" id="stop8914"/>
      <stop style="stop-color:#9db029" offset="1" id="stop8916"/>
    </linearGradient>
    <linearGradient inkscape:collect="always" id="linearGradient8838">
      <stop style="stop-color:#000000;stop-opacity:1;" offset="0" id="stop8840"/>
      <stop style="stop-color:#000000;stop-opacity:0;" offset="1" id="stop8842"/>
    </linearGradient>
    <linearGradient inkscape:collect="always" id="linearGradient8740">
      <stop style="stop-color:#ffffff;stop-opacity:1;" offset="0" id="stop8742"/>
      <stop style="stop-color:#ffffff;stop-opacity:0;" offset="1" id="stop8744"/>
    </linearGradient>
    <linearGradient id="linearGradient8647">
      <stop style="stop-color:#8fb1dc;stop-opacity:1;" offset="0" id="stop8649"/>
      <stop style="stop-color:#3465a4;stop-opacity:1;" offset="1" id="stop8651"/>
    </linearGradient>
    <linearGradient inkscape:collect="always" id="linearGradient4790">
      <stop style="stop-color:#000000;stop-opacity:1;" offset="0" id="stop4792"/>
      <stop style="stop-color:#000000;stop-opacity:0;" offset="1" id="stop4794"/>
    </linearGradient>
    <linearGradient inkscape:collect="always" id="linearGradient2251">
      <stop style="stop-color:#ffffff;stop-opacity:1;" offset="0" id="stop2253"/>
      <stop style="stop-color:#ffffff;stop-opacity:0;" offset="1" id="stop2255"/>
    </linearGradient>
    <linearGradient inkscape:collect="always" xlink:href="#linearGradient2251" id="linearGradient8166" gradientUnits="userSpaceOnUse" gradientTransform="matrix(-3.277938e-2,-0.999463,0.999463,-3.277938e-2,-0.709646,45.06274)" x1="33.396004" y1="36.921333" x2="34.170048" y2="38.070381"/>
    <linearGradient id="linearGradient15662">
      <stop id="stop15664" offset="0.0000000" style="stop-color:#ffffff;stop-opacity:1.0000000;"/>
      <stop id="stop15666" offset="1.0000000" style="stop-color:#f8f8f8;stop-opacity:1.0000000;"/>
    </linearGradient>
    <linearGradient id="linearGradient269">
      <stop id="stop270" offset="0.0000000" style="stop-color:#a3a3a3;stop-opacity:1.0000000;"/>
      <stop id="stop271" offset="1" style="stop-color:#8a8a8a;stop-opacity:1;"/>
    </linearGradient>
    <linearGradient id="linearGradient259">
      <stop id="stop260" offset="0.0000000" style="stop-color:#fafafa;stop-opacity:1.0000000;"/>
      <stop id="stop261" offset="1.0000000" style="stop-color:#bbbbbb;stop-opacity:1.0000000;"/>
    </linearGradient>
    <radialGradient inkscape:collect="always" xlink:href="#linearGradient269" id="radialGradient15656" gradientUnits="userSpaceOnUse" gradientTransform="matrix(0.968273,0.000000,0.000000,1.032767,3.353553,0.646447)" cx="8.8244190" cy="3.7561285" fx="8.8244190" fy="3.7561285" r="37.751713"/>
    <radialGradient inkscape:collect="always" xlink:href="#linearGradient259" id="radialGradient15658" gradientUnits="userSpaceOnUse" gradientTransform="scale(0.960493,1.041132)" cx="33.966679" cy="35.736916" fx="33.966679" fy="35.736916" r="86.708450"/>
    <radialGradient inkscape:collect="always" xlink:href="#linearGradient15662" id="radialGradient15668" gradientUnits="userSpaceOnUse" gradientTransform="matrix(0.968273,0.000000,0.000000,1.032767,3.353553,0.646447)" cx="8.1435566" cy="7.2678967" fx="8.1435566" fy="7.2678967" r="38.158695"/>
    <radialGradient inkscape:collect="always" xlink:href="#linearGradient269" id="radialGradient5350" gradientUnits="userSpaceOnUse" gradientTransform="matrix(0.331735,-2.3449e-17,2.501087e-17,0.353831,20.10526,9.5823)" cx="31.863327" cy="2.3667307" fx="31.863327" fy="2.3667307" r="37.751713"/>
    <radialGradient inkscape:collect="always" xlink:href="#linearGradient259" id="radialGradient5352" gradientUnits="userSpaceOnUse" gradientTransform="matrix(0.148355,1.009137e-2,-1.104438e-2,0.162365,25.06011,12.81706)" cx="30.653816" cy="14.9373" fx="30.653816" fy="14.9373" r="86.708450"/>
    <radialGradient inkscape:collect="always" xlink:href="#linearGradient4790" id="radialGradient4796" cx="37.030354" cy="12.98915" fx="37.030354" fy="12.98915" r="4.2929165" gradientTransform="matrix(1.744653,2.313551e-22,-1.663e-22,1.283833,-26.58256,-3.478359)" gradientUnits="userSpaceOnUse"/>
    <radialGradient inkscape:collect="always" xlink:href="#linearGradient8740" id="radialGradient8748" gradientUnits="userSpaceOnUse" gradientTransform="matrix(1,0,0,0.930233,0,-0.240141)" cx="62.225393" cy="-3.4420195" fx="62.225393" fy="-3.4420195" r="10.081216"/>
    <radialGradient inkscape:collect="always" xlink:href="#linearGradient8740" id="radialGradient8750" gradientUnits="userSpaceOnUse" gradientTransform="matrix(1,0,0,0.930233,0,-0.240141)" cx="62.225393" cy="-3.4420195" fx="62.225393" fy="-3.4420195" r="10.081216"/>
    <radialGradient inkscape:collect="always" xlink:href="#linearGradient8740" id="radialGradient8752" gradientUnits="userSpaceOnUse" gradientTransform="matrix(1,0,0,0.930233,-7.376045e-14,-0.240141)" cx="62.225393" cy="-3.4420195" fx="62.225393" fy="-3.4420195" r="10.081216"/>
    <radialGradient inkscape:collect="always" xlink:href="#linearGradient8740" id="radialGradient8756" gradientUnits="userSpaceOnUse" gradientTransform="matrix(1,0,0,0.930233,0,-0.240141)" cx="62.225393" cy="-3.4420195" fx="62.225393" fy="-3.4420195" r="10.081216"/>
    <radialGradient inkscape:collect="always" xlink:href="#linearGradient8740" id="radialGradient8758" gradientUnits="userSpaceOnUse" gradientTransform="matrix(1,0,0,0.930233,0,-0.240141)" cx="62.225393" cy="-3.4420195" fx="62.225393" fy="-3.4420195" r="10.081216"/>
    <radialGradient inkscape:collect="always" xlink:href="#linearGradient8740" id="radialGradient8760" gradientUnits="userSpaceOnUse" gradientTransform="matrix(1,0,0,0.930233,-1.425943e-14,-0.240141)" cx="62.225393" cy="-3.4420195" fx="62.225393" fy="-3.4420195" r="10.081216"/>
    <radialGradient inkscape:collect="always" xlink:href="#linearGradient8740" id="radialGradient8764" gradientUnits="userSpaceOnUse" gradientTransform="matrix(1,0,0,0.930233,0,-0.240141)" cx="62.225393" cy="-3.4420195" fx="62.225393" fy="-3.4420195" r="10.081216"/>
    <radialGradient inkscape:collect="always" xlink:href="#linearGradient8740" id="radialGradient8766" gradientUnits="userSpaceOnUse" gradientTransform="matrix(1,0,0,0.930233,-1.450229e-14,-0.240141)" cx="62.225393" cy="-3.4420195" fx="62.225393" fy="-3.4420195" r="10.081216"/>
    <radialGradient inkscape:collect="always" xlink:href="#linearGradient8740" id="radialGradient8770" gradientUnits="userSpaceOnUse" gradientTransform="matrix(1,0,0,0.930233,0,-0.240141)" cx="62.225393" cy="-3.4420195" fx="62.225393" fy="-3.4420195" r="10.081216"/>
    <radialGradient inkscape:collect="always" xlink:href="#linearGradient8740" id="radialGradient8772" gradientUnits="userSpaceOnUse" gradientTransform="matrix(1,0,0,0.930233,0,-0.240141)" cx="62.225393" cy="-3.4420195" fx="62.225393" fy="-3.4420195" r="10.081216"/>
    <radialGradient inkscape:collect="always" xlink:href="#linearGradient8740" id="radialGradient8774" gradientUnits="userSpaceOnUse" gradientTransform="matrix(1,0,0,0.930233,-7.376045e-14,-0.240141)" cx="62.225393" cy="-3.4420195" fx="62.225393" fy="-3.4420195" r="10.081216"/>
    <radialGradient inkscape:collect="always" xlink:href="#linearGradient8740" id="radialGradient8778" gradientUnits="userSpaceOnUse" gradientTransform="matrix(1,0,0,0.930233,0,-0.240141)" cx="62.225393" cy="-3.4420195" fx="62.225393" fy="-3.4420195" r="10.081216"/>
    <radialGradient inkscape:collect="always" xlink:href="#linearGradient8740" id="radialGradient8780" gradientUnits="userSpaceOnUse" gradientTransform="matrix(1,0,0,0.930233,0,-0.240141)" cx="62.225393" cy="-3.4420195" fx="62.225393" fy="-3.4420195" r="10.081216"/>
    <radialGradient inkscape:collect="always" xlink:href="#linearGradient8740" id="radialGradient8782" gradientUnits="userSpaceOnUse" gradientTransform="matrix(1,0,0,0.930233,-1.57166e-14,-0.240141)" cx="62.225393" cy="-3.4420195" fx="62.225393" fy="-3.4420195" r="10.081216"/>
    <radialGradient inkscape:collect="always" xlink:href="#linearGradient8740" id="radialGradient8786" gradientUnits="userSpaceOnUse" gradientTransform="matrix(1,0,0,0.930233,0,-0.240141)" cx="62.225393" cy="-3.4420195" fx="62.225393" fy="-3.4420195" r="10.081216"/>
    <radialGradient inkscape:collect="always" xlink:href="#linearGradient8740" id="radialGradient8788" gradientUnits="userSpaceOnUse" gradientTransform="matrix(1,0,0,0.930233,-3.979455e-14,-0.240141)" cx="62.225393" cy="-3.4420195" fx="62.225393" fy="-3.4420195" r="10.081216"/>
    <radialGradient inkscape:collect="always" xlink:href="#linearGradient8740" id="radialGradient8792" gradientUnits="userSpaceOnUse" gradientTransform="matrix(1,0,0,0.930233,0,-0.240141)" cx="62.225393" cy="-3.4420195" fx="62.225393" fy="-3.4420195" r="10.081216"/>
    <radialGradient inkscape:collect="always" xlink:href="#linearGradient8740" id="radialGradient8794" gradientUnits="userSpaceOnUse" gradientTransform="matrix(1,0,0,0.930233,0,-0.240141)" cx="62.225393" cy="-3.4420195" fx="62.225393" fy="-3.4420195" r="10.081216"/>
    <radialGradient inkscape:collect="always" xlink:href="#linearGradient8740" id="radialGradient8796" gradientUnits="userSpaceOnUse" gradientTransform="matrix(1,0,0,0.930233,0,-0.240141)" cx="62.225393" cy="-3.4420195" fx="62.225393" fy="-3.4420195" r="10.081216"/>
    <radialGradient inkscape:collect="always" xlink:href="#linearGradient8740" id="radialGradient8798" gradientUnits="userSpaceOnUse" gradientTransform="matrix(1,0,0,0.930233,0,-0.240141)" cx="62.225393" cy="-3.4420195" fx="62.225393" fy="-3.4420195" r="10.081216"/>
    <radialGradient inkscape:collect="always" xlink:href="#linearGradient8740" id="radialGradient8800" gradientUnits="userSpaceOnUse" gradientTransform="matrix(1,0,0,0.930233,0,-0.240141)" cx="62.225393" cy="-3.4420195" fx="62.225393" fy="-3.4420195" r="10.081216"/>
    <radialGradient inkscape:collect="always" xlink:href="#linearGradient8740" id="radialGradient8802" gradientUnits="userSpaceOnUse" gradientTransform="matrix(1,0,0,0.930233,0,-0.240141)" cx="62.225393" cy="-3.4420195" fx="62.225393" fy="-3.4420195" r="10.081216"/>
    <radialGradient inkscape:collect="always" xlink:href="#linearGradient8740" id="radialGradient8804" gradientUnits="userSpaceOnUse" gradientTransform="matrix(1,0,0,0.930233,0,-0.240141)" cx="62.225393" cy="-3.4420195" fx="62.225393" fy="-3.4420195" r="10.081216"/>
    <radialGradient inkscape:collect="always" xlink:href="#linearGradient8740" id="radialGradient8806" gradientUnits="userSpaceOnUse" gradientTransform="matrix(1,0,0,0.930233,0,-0.240141)" cx="62.225393" cy="-3.4420195" fx="62.225393" fy="-3.4420195" r="10.081216"/>
    <radialGradient inkscape:collect="always" xlink:href="#linearGradient8740" id="radialGradient8808" gradientUnits="userSpaceOnUse" gradientTransform="matrix(1,0,0,0.930233,0,-0.240141)" cx="62.225393" cy="-3.4420195" fx="62.225393" fy="-3.4420195" r="10.081216"/>
    <radialGradient inkscape:collect="always" xlink:href="#linearGradient8740" id="radialGradient8810" gradientUnits="userSpaceOnUse" gradientTransform="matrix(1,0,0,0.930233,0,-0.240141)" cx="62.225393" cy="-3.4420195" fx="62.225393" fy="-3.4420195" r="10.081216"/>
    <radialGradient inkscape:collect="always" xlink:href="#linearGradient8740" id="radialGradient8812" gradientUnits="userSpaceOnUse" gradientTransform="matrix(1,0,0,0.930233,-2.397389e-14,-0.240141)" cx="62.225393" cy="-3.4420195" fx="62.225393" fy="-3.4420195" r="10.081216"/>
    <radialGradient inkscape:collect="always" xlink:href="#linearGradient8740" id="radialGradient8816" gradientUnits="userSpaceOnUse" gradientTransform="matrix(1,0,0,0.930233,-2.751271e-14,-0.240141)" cx="62.225393" cy="-3.4420195" fx="62.225393" fy="-3.4420195" r="10.081216"/>
    <radialGradient inkscape:collect="always" xlink:href="#linearGradient8740" id="radialGradient8820" gradientUnits="userSpaceOnUse" gradientTransform="matrix(1,0,0,0.930233,-5.728055e-14,-0.240141)" cx="62.225393" cy="-3.4420195" fx="62.225393" fy="-3.4420195" r="10.081216"/>
    <radialGradient inkscape:collect="always" xlink:href="#linearGradient8740" id="radialGradient8824" gradientUnits="userSpaceOnUse" gradientTransform="matrix(1,0,0,0.930233,-1.94636e-14,-0.240141)" cx="62.225393" cy="-3.4420195" fx="62.225393" fy="-3.4420195" r="10.081216"/>
    <radialGradient inkscape:collect="always" xlink:href="#linearGradient8838" id="radialGradient9169" gradientUnits="userSpaceOnUse" gradientTransform="matrix(1,0,0,0.341176,0,3.047059)" cx="62.625" cy="4.625" fx="62.625" fy="4.625" r="10.625"/>
    <radialGradient inkscape:collect="always" xlink:href="#linearGradient8647" id="radialGradient9171" gradientUnits="userSpaceOnUse" gradientTransform="matrix(1.122354,-2.185101e-15,2.185149e-15,1.122379,-7.610472,1.067717)" cx="62.200352" cy="-8.7256308" fx="62.200352" fy="-8.7256308" r="9.7552835"/>
    <radialGradient inkscape:collect="always" xlink:href="#linearGradient8740" id="radialGradient9173" gradientUnits="userSpaceOnUse" gradientTransform="matrix(1,0,0,0.930233,-6.132595e-14,-0.240141)" cx="62.225393" cy="-3.4420195" fx="62.225393" fy="-3.4420195" r="10.081216"/>
    <radialGradient inkscape:collect="always" xlink:href="#linearGradient8740" id="radialGradient9175" gradientUnits="userSpaceOnUse" gradientTransform="matrix(1,0,0,0.930233,-1.603579e-14,-0.240141)" cx="62.225393" cy="-3.4420195" fx="62.225393" fy="-3.4420195" r="10.081216"/>
    <radialGradient inkscape:collect="always" xlink:href="#linearGradient8740" id="radialGradient9177" gradientUnits="userSpaceOnUse" gradientTransform="matrix(1,0,0,0.930233,-1.627865e-14,-0.240141)" cx="62.225393" cy="-3.4420195" fx="62.225393" fy="-3.4420195" r="10.081216"/>
    <radialGradient inkscape:collect="always" xlink:href="#linearGradient8740" id="radialGradient9179" gradientUnits="userSpaceOnUse" gradientTransform="matrix(1,0,0,0.930233,-6.132595e-14,-0.240141)" cx="62.225393" cy="-3.4420195" fx="62.225393" fy="-3.4420195" r="10.081216"/>
    <radialGradient inkscape:collect="always" xlink:href="#linearGradient8740" id="radialGradient9181" gradientUnits="userSpaceOnUse" gradientTransform="matrix(1,0,0,0.930233,-1.749295e-14,-0.240141)" cx="62.225393" cy="-3.4420195" fx="62.225393" fy="-3.4420195" r="10.081216"/>
    <radialGradient inkscape:collect="always" xlink:href="#linearGradient8740" id="radialGradient9183" gradientUnits="userSpaceOnUse" gradientTransform="matrix(1,0,0,0.930233,-4.157091e-14,-0.240141)" cx="62.225393" cy="-3.4420195" fx="62.225393" fy="-3.4420195" r="10.081216"/>
    <radialGradient inkscape:collect="always" xlink:href="#linearGradient8924" id="radialGradient9185" gradientUnits="userSpaceOnUse" gradientTransform="matrix(7.657394e-2,2.760516,-1.969551,5.463895e-2,60.09901,-55.47179)" cx="24.652573" cy="18.94449" fx="24.652485" fy="18.944481" r="8.61745"/>
    <radialGradient inkscape:collect="always" xlink:href="#linearGradient8924" id="radialGradient9187" gradientUnits="userSpaceOnUse" gradientTransform="matrix(7.657394e-2,2.760516,-1.969551,5.463895e-2,60.09901,-55.47179)" cx="24.652573" cy="18.94449" fx="24.652485" fy="18.944481" r="8.61745"/>
    <radialGradient inkscape:collect="always" xlink:href="#linearGradient8740" id="radialGradient9189" gradientUnits="userSpaceOnUse" gradientTransform="matrix(1,0,0,0.930233,-2.575025e-14,-0.240141)" cx="62.225393" cy="-3.4420195" fx="62.225393" fy="-3.4420195" r="10.081216"/>
    <radialGradient inkscape:collect="always" xlink:href="#linearGradient8930" id="radialGradient9191" gradientUnits="userSpaceOnUse" gradientTransform="matrix(0.159592,5.753335,-0.8072,2.23703e-2,32.87305,-131.6974)" cx="25.135374" cy="14.542349" fx="25.135332" fy="14.542329" r="4.13475"/>
    <radialGradient inkscape:collect="always" xlink:href="#linearGradient8930" id="radialGradient9193" gradientUnits="userSpaceOnUse" gradientTransform="matrix(0.159592,5.753335,-0.8072,2.23703e-2,32.87305,-131.6974)" cx="25.135374" cy="14.542349" fx="25.135332" fy="14.542329" r="4.13475"/>
    <radialGradient inkscape:collect="always" xlink:href="#linearGradient8740" id="radialGradient9195" gradientUnits="userSpaceOnUse" gradientTransform="matrix(1,0,0,0.930233,-2.928906e-14,-0.240141)" cx="62.225393" cy="-3.4420195" fx="62.225393" fy="-3.4420195" r="10.081216"/>
    <radialGradient inkscape:collect="always" xlink:href="#linearGradient8912" id="radialGradient9197" gradientUnits="userSpaceOnUse" gradientTransform="matrix(0.222034,8.004376,-0.597156,1.656095e-2,29.5454,-182.3268)" cx="24.478569" cy="17.573915" fx="24.478539" fy="17.573889" r="2.97195"/>
    <radialGradient inkscape:collect="always" xlink:href="#linearGradient8912" id="radialGradient9199" gradientUnits="userSpaceOnUse" gradientTransform="matrix(0.222034,8.004376,-0.597156,1.656095e-2,29.5454,-182.3268)" cx="24.478569" cy="17.573915" fx="24.478539" fy="17.573889" r="2.97195"/>
    <radialGradient inkscape:collect="always" xlink:href="#linearGradient8740" id="radialGradient9201" gradientUnits="userSpaceOnUse" gradientTransform="matrix(1,0,0,0.930233,-4.484606e-14,-0.240141)" cx="62.225393" cy="-3.4420195" fx="62.225393" fy="-3.4420195" r="10.081216"/>
    <radialGradient inkscape:collect="always" xlink:href="#linearGradient8918" id="radialGradient9203" gradientUnits="userSpaceOnUse" gradientTransform="matrix(6.718136e-2,2.42191,-1.629357,4.51789e-2,52.36869,-50.34012)" cx="25.969097" cy="17.257854" fx="25.968998" fy="17.257843" r="9.82225"/>
    <radialGradient inkscape:collect="always" xlink:href="#linearGradient8918" id="radialGradient9205" gradientUnits="userSpaceOnUse" gradientTransform="matrix(6.718136e-2,2.42191,-1.629357,4.51789e-2,52.36869,-50.34012)" cx="25.969097" cy="17.257854" fx="25.968998" fy="17.257843" r="9.82225"/>
    <radialGradient inkscape:collect="always" xlink:href="#linearGradient8740" id="radialGradient9207" gradientUnits="userSpaceOnUse" gradientTransform="matrix(1,0,0,0.930233,-2.123995e-14,-0.240141)" cx="62.225393" cy="-3.4420195" fx="62.225393" fy="-3.4420195" r="10.081216"/>
    <linearGradient id="linearGradient3688" inkscape:collect="always">
      <stop id="stop3690" offset="0" style="stop-color:black;stop-opacity:1;"/>
      <stop id="stop3692" offset="1" style="stop-color:black;stop-opacity:0;"/>
    </linearGradient>
    <linearGradient id="linearGradient3702">
      <stop id="stop3704" offset="0" style="stop-color:black;stop-opacity:0;"/>
      <stop style="stop-color:black;stop-opacity:1;" offset="0.5" id="stop3710"/>
      <stop id="stop3706" offset="1" style="stop-color:black;stop-opacity:0;"/>
    </linearGradient>
    <radialGradient inkscape:collect="always" xlink:href="#linearGradient3688" id="radialGradient2285" gradientUnits="userSpaceOnUse" gradientTransform="matrix(2.003784,0,0,1.4,27.98813,-17.4)" cx="4.9929786" cy="43.5" fx="4.9929786" fy="43.5" r="2.5"/>
    <radialGradient inkscape:collect="always" xlink:href="#linearGradient3688" id="radialGradient2287" gradientUnits="userSpaceOnUse" gradientTransform="matrix(2.003784,0,0,1.4,-20.01187,-104.4)" cx="4.9929786" cy="43.5" fx="4.9929786" fy="43.5" r="2.5"/>
    <linearGradient inkscape:collect="always" xlink:href="#linearGradient3702" id="linearGradient2289" gradientUnits="userSpaceOnUse" x1="25.058096" y1="47.027729" x2="25.058096" y2="39.999443"/>
  </defs>
  <g inkscape:groupmode="layer" id="layer6" inkscape:label="Shadow">
    <g style="display:inline" id="g2229" inkscape:label="Shadow" transform="translate(-1.8e-5,2e-5)">
      <g id="g3712" style="opacity:0.4" transform="matrix(1.052632,0,0,1.285713,-1.263158,-13.42854)">
        <rect y="40" x="38" height="7" width="5" id="rect2801" style="opacity:1;fill:url(#radialGradient2285);fill-opacity:1;stroke:none;stroke-width:1;stroke-linecap:round;stroke-linejoin:miter;stroke-miterlimit:4;stroke-dasharray:none;stroke-opacity:1"/>
        <rect transform="scale(-1,-1)" y="-47" x="-10" height="7" width="5" id="rect3696" style="opacity:1;fill:url(#radialGradient2287);fill-opacity:1;stroke:none;stroke-width:1;stroke-linecap:round;stroke-linejoin:miter;stroke-miterlimit:4;stroke-dasharray:none;stroke-opacity:1"/>
        <rect y="40" x="10" height="7.0000005" width="28" id="rect3700" style="opacity:1;fill:url(#linearGradient2289);fill-opacity:1;stroke:none;stroke-width:1;stroke-linecap:round;stroke-linejoin:miter;stroke-miterlimit:4;stroke-dasharray:none;stroke-opacity:1"/>
      </g>
    </g>
  </g>
  <g style="display:inline" inkscape:groupmode="layer" inkscape:label="Base" id="layer1">
    <path style="color:#000000;fill:url(#radialGradient15658);fill-opacity:1;fill-rule:nonzero;stroke:url(#radialGradient15656);stroke-width:1;stroke-linecap:round;stroke-linejoin:round;stroke-miterlimit:4;stroke-dashoffset:0;stroke-opacity:1;marker:none;marker-start:none;marker-mid:none;marker-end:none;visibility:visible;display:block;overflow:visible" d="M 7.7526014,3.6464462 L 31.199616,3.6308212 C 31.199616,3.6308212 41.478553,13.174533 41.478553,13.811106 L 41.478553,43.417892 C 41.478553,44.054465 40.966077,44.56694 40.329504,44.56694 L 7.7526014,44.56694 C 7.1160285,44.56694 6.6035528,44.054465 6.6035528,43.417892 L 6.6035528,4.7954948 C 6.6035528,4.1589219 7.1160285,3.6464462 7.7526014,3.6464462 z " id="rect15391" sodipodi:nodetypes="ccccccccc"/>
    <path style="color:#000000;fill:none;fill-opacity:1;fill-rule:nonzero;stroke:url(#radialGradient15668);stroke-width:1;stroke-linecap:round;stroke-linejoin:round;stroke-miterlimit:4;stroke-dashoffset:0;stroke-opacity:1;marker:none;marker-start:none;marker-mid:none;marker-end:none;visibility:visible;display:block;overflow:visible" d="M 7.8151023,4.5839462 L 32.691494,4.5839462 C 32.691494,4.5839462 40.44194,12.605373 40.44194,12.687946 L 40.44194,43.381282 C 40.44194,43.463855 40.375465,43.530331 40.292892,43.530331 L 7.8151023,43.530331 C 7.7325294,43.530331 7.6660538,43.463855 7.6660538,43.381282 L 7.6660538,4.7329948 C 7.6660538,4.6504219 7.7325294,4.5839462 7.8151023,4.5839462 z " id="rect15660" sodipodi:nodetypes="ccccccccc"/>
    <g id="g8936" transform="translate(-37.625,29.625)">
      <path transform="translate(-0.707107,-0.441942)" d="M 73.25 4.625 A 10.625 3.625 0 1 1  52,4.625 A 10.625 3.625 0 1 1  73.25 4.625 z" sodipodi:ry="3.625" sodipodi:rx="10.625" sodipodi:cy="4.625" sodipodi:cx="62.625" id="path8836" style="opacity:0.35714285;color:#000000;fill:url(#radialGradient9169);fill-opacity:1;fill-rule:evenodd;stroke:none;stroke-width:0.99999988;stroke-linecap:butt;stroke-linejoin:round;marker:none;marker-start:none;marker-mid:none;marker-end:none;stroke-miterlimit:4;stroke-dasharray:none;stroke-dashoffset:0;stroke-opacity:1;visibility:visible;display:inline;overflow:visible" sodipodi:type="arc"/>
      <path id="path6495" d="M 71.455637,-3.5111605 C 71.455637,1.6006722 67.3116,5.7446615 62.20047,5.7446615 C 57.088872,5.7446615 52.94507,1.6006253 52.94507,-3.5111605 C 52.94507,-8.6227588 57.088872,-12.766327 62.20047,-12.766327 C 67.3116,-12.766327 71.455637,-8.6227588 71.455637,-3.5111605 L 71.455637,-3.5111605 z " style="fill:url(#radialGradient9171);fill-opacity:1;fill-rule:nonzero;stroke:#204a87;stroke-miterlimit:4"/>
      <path style="opacity:0.35714285;fill:none;fill-opacity:1;fill-rule:nonzero;stroke:#ffffff;stroke-miterlimit:4;stroke-opacity:1" d="M 70.491305,-3.5111266 C 70.491305,1.0680838 66.779052,4.7802942 62.200471,4.7802942 C 57.621471,4.7802942 53.909428,1.0680417 53.909428,-3.5111266 C 53.909428,-8.0901271 57.621471,-11.80196 62.200471,-11.80196 C 66.779052,-11.80196 70.491305,-8.0901271 70.491305,-3.5111266 L 70.491305,-3.5111266 z " id="path8655"/>
      <image y="-11.413214" x="61.522053" id="image6522" href="62169F0D.png" height="16.411282" width="10.784556" style="opacity:0.75;fill:#ffffff;fill-rule:nonzero;stroke:url(#radialGradient8748);stroke-miterlimit:4"/>
      <image y="-10.94432" x="61.990948" id="image6530" href="62169F0E.png" height="2.3444688" width="2.3444688" style="opacity:0.75;fill:#ffffff;fill-rule:nonzero;stroke:url(#radialGradient8750);stroke-miterlimit:4"/>
      <g id="g6532" style="fill:#9db029;fill-rule:nonzero;stroke:url(#radialGradient8752);stroke-miterlimit:4" transform="matrix(0.468894,0,0,0.468894,50.39042,-14.57365)">
        <path style="fill:#9db029;stroke:url(#radialGradient9173)" id="path6534" d="M 26.0703,9.2363 L 25.9971,9.7295 L 26.5069,10.0586 L 27.378,9.4829 L 26.9425,8.9892 L 26.3605,9.3188 L 26.0705,9.2363"/>
      </g>
      <image y="-12.819895" x="58.708691" id="image6538" href="62169F0F.png" height="4.6889377" width="5.6267252" style="opacity:0.75;fill:#ffffff;fill-rule:nonzero;stroke:url(#radialGradient8756);stroke-miterlimit:4"/>
      <image y="-9.5376387" x="62.928734" id="image6546" href="62169F10.png" height="2.3444688" width="2.3444688" style="opacity:0.75;fill:#ffffff;fill-rule:nonzero;stroke:url(#radialGradient8758);stroke-miterlimit:4"/>
      <g id="g6548" style="fill:#9db029;fill-rule:nonzero;stroke:url(#radialGradient8760);stroke-miterlimit:4" transform="matrix(0.468894,0,0,0.468894,49.7717,-14.57365)">
        <path style="fill:#9db029;stroke:url(#radialGradient9175)" id="path6550" d="M 28.833,12.7749 L 28.542,12.0337 L 28.0322,12.1987 L 28.1787,13.103 L 28.833,12.7749"/>
      </g>
      <image y="-10.006532" x="63.397629" id="image6554" href="62169F11.png" height="3.2822564" width="2.3444688" style="opacity:0.75;fill:#ffffff;fill-rule:nonzero;stroke:url(#radialGradient8764);stroke-miterlimit:4"/>
      <g id="g6556" style="fill:#9db029;fill-rule:nonzero;stroke:url(#radialGradient8766);stroke-miterlimit:4" transform="matrix(0.468894,0,0,0.468894,49.94848,-14.57365)">
        <path style="fill:#9db029;stroke:url(#radialGradient9177)" id="path6558" d="M 29.123,12.6089 L 28.9775,13.5972 L 29.7773,13.4322 L 30.3584,12.857 L 29.8496,12.3629 C 29.6787,11.9078 29.4824,11.483 29.2685,11.0465 L 28.833,11.0465 L 28.833,11.5397 L 29.123,11.8688 L 29.123,12.609"/>
      </g>
      <image y="-11.413214" x="52.144176" id="image6562" href="62169F12.png" height="17.34907" width="9.8467684" style="opacity:0.75;fill:#ffffff;fill-rule:nonzero;stroke:url(#radialGradient8770);stroke-miterlimit:4"/>
      <image y="-10.94432" x="57.770901" id="image6570" href="62169F13.png" height="2.3444688" width="2.3444688" style="opacity:0.75;fill:#ffffff;fill-rule:nonzero;stroke:url(#radialGradient8772);stroke-miterlimit:4"/>
      <g id="g6572" style="fill:#9db029;fill-rule:nonzero;stroke:url(#radialGradient8774);stroke-miterlimit:4" transform="matrix(0.468894,0,0,0.468894,50.39042,-14.57365)">
        <path style="fill:#9db029;stroke:url(#radialGradient9179)" id="path6574" d="M 16.7656,9.5649 L 17.4922,10.0586 L 18.0742,10.0586 L 18.0742,9.4829 L 17.3476,9.1538 L 16.7656,9.5649"/>
      </g>
      <image y="-11.882107" x="56.36422" id="image6578" href="62169F14.png" height="3.2822564" width="4.2200437" style="opacity:0.75;fill:#ffffff;fill-rule:nonzero;stroke:url(#radialGradient8778);stroke-miterlimit:4"/>
      <image y="-12.819895" x="57.30201" id="image6606" href="2D44FCEC.png" height="2.8133626" width="3.7511499" style="opacity:0.75;fill:#ffffff;fill-rule:nonzero;stroke:url(#radialGradient8780);stroke-miterlimit:4"/>
      <g id="g6608" style="fill:#9db029;fill-rule:nonzero;stroke:url(#radialGradient8782);stroke-miterlimit:4" transform="matrix(0.468894,0,0,0.468894,50.96494,-14.52946)">
        <path style="fill:#9db029;stroke:url(#radialGradient9181)" id="path6610" d="M 17.4922,6.8496 L 17.856,6.521 L 18.5831,6.3564 C 19.0811,6.1142 19.5811,5.9511 20.1095,5.7802 L 19.8195,5.2865 L 18.881,5.4213 L 18.4376,5.8632 L 17.7066,5.9692 L 17.0567,6.2744 L 16.7408,6.4272 L 16.5479,6.6855 L 17.4922,6.8496"/>
      </g>
      <image y="-8.5998507" x="58.239796" id="image6614" href="2D44FCED.png" height="2.3444688" width="2.3444688" style="opacity:0.75;fill:#ffffff;fill-rule:nonzero;stroke:url(#radialGradient8786);stroke-miterlimit:4"/>
      <g id="g6616" style="fill:#9db029;fill-rule:nonzero;stroke:url(#radialGradient8788);stroke-miterlimit:4" transform="matrix(0.468894,0,0,0.468894,50.56718,-14.30851)">
        <path style="fill:#9db029;stroke:url(#radialGradient9183)" id="path6618" d="M 18.7285,14.6665 L 19.165,14.0083 L 18.5102,13.5151 L 18.7285,14.6665"/>
      </g>
      <image y="-11.413214" x="61.522053" id="image6624" href="2D44FCEE.png" height="16.411282" width="10.784556" style="opacity:0.15750002;fill:#ffffff;fill-rule:nonzero;stroke:url(#radialGradient8792);stroke-miterlimit:4"/>
      <image y="-10.94432" x="61.990948" id="image6632" href="2D44FCEF.png" height="2.3444688" width="2.3444688" style="opacity:0.15750002;fill:#ffffff;fill-rule:nonzero;stroke:url(#radialGradient8794);stroke-miterlimit:4"/>
      <image y="-12.819895" x="58.708691" id="image6640" href="2D44FCF0.png" height="4.6889377" width="5.6267252" style="opacity:0.15750002;fill:#ffffff;fill-rule:nonzero;stroke:url(#radialGradient8796);stroke-miterlimit:4"/>
      <image y="-9.5376387" x="62.928734" id="image6648" href="2D44FCF1.png" height="2.3444688" width="2.3444688" style="opacity:0.15750002;fill:#ffffff;fill-rule:nonzero;stroke:url(#radialGradient8798);stroke-miterlimit:4"/>
      <image y="-10.006532" x="63.397629" id="image6656" href="2D44FCF2.png" height="3.2822564" width="2.3444688" style="opacity:0.15750002;fill:#ffffff;fill-rule:nonzero;stroke:url(#radialGradient8800);stroke-miterlimit:4"/>
      <image y="-11.413214" x="52.144176" id="image6664" href="2D44FCF3.png" height="17.34907" width="9.8467684" style="opacity:0.15750002;fill:#ffffff;fill-rule:nonzero;stroke:url(#radialGradient8802);stroke-miterlimit:4"/>
      <image y="-10.94432" x="57.770901" id="image6672" href="2D44FCF4.png" height="2.3444688" width="2.3444688" style="opacity:0.15750002;fill:#ffffff;fill-rule:nonzero;stroke:url(#radialGradient8804);stroke-miterlimit:4"/>
      <image y="-11.882107" x="56.36422" id="image6680" href="2D44FCF5.png" height="3.2822564" width="4.2200437" style="opacity:0.15750002;fill:#ffffff;fill-rule:nonzero;stroke:url(#radialGradient8806);stroke-miterlimit:4"/>
      <image y="-12.819895" x="57.30201" id="image6708" href="2D44FD11.png" height="2.8133626" width="3.7511499" style="opacity:0.15750002;fill:#ffffff;fill-rule:nonzero;stroke:url(#radialGradient8808);stroke-miterlimit:4"/>
      <image y="-8.5998507" x="58.239796" id="image6716" href="2D44FD12.png" height="2.3444688" width="2.3444688" style="opacity:0.15750002;fill:#ffffff;fill-rule:nonzero;stroke:url(#radialGradient8810);stroke-miterlimit:4"/>
      <g id="g6564" style="fill:url(#radialGradient9185);fill-opacity:1;fill-rule:nonzero;stroke:url(#radialGradient8812);stroke-miterlimit:4" transform="matrix(0.468894,0,0,0.468894,50.74397,-14.61784)">
        <path style="fill:url(#radialGradient9187);fill-opacity:1;stroke:url(#radialGradient9189)" id="path6566" d="M 18.3652,28.2422 L 17.7832,27.0899 L 16.6929,26.8433 L 16.1114,25.2808 L 14.6578,25.4449 L 13.4224,24.5406 L 12.1133,25.692 L 12.1133,25.8736 C 11.7173,25.7593 11.2305,25.7437 10.8779,25.5269 L 10.5869,24.7046 L 10.5869,23.7993 L 9.7148,23.8813 C 9.7876,23.3051 9.8598,22.7299 9.9331,22.1538 L 9.4238,22.1538 L 8.9155,22.812 L 8.4062,23.0581 L 7.6791,22.6479 L 7.6063,21.7426 L 7.7518,20.7553 L 8.8426,19.933 L 9.7147,19.933 L 9.8597,19.4389 L 10.95,19.685 L 11.7498,20.6733 L 11.8953,19.0268 L 13.2766,17.8754 L 13.7854,16.641 L 14.803,16.2299 L 15.3845,15.4076 L 16.6926,15.1596 L 17.3474,14.1733 C 16.6931,14.1733 16.0388,14.1733 15.3845,14.1733 L 16.6203,13.5971 L 17.4919,13.5971 L 18.7282,13.185 L 18.8737,12.6928 L 18.4372,12.2807 L 17.9284,12.1157 L 18.0739,11.6225 L 17.7106,10.8823 L 16.838,11.2104 L 16.9835,10.5527 L 15.9659,9.9765 L 15.1666,11.3744 L 15.2389,11.8685 L 14.4396,12.1986 L 13.9303,13.2679 L 13.7125,12.2806 L 12.3312,11.7044 L 12.1129,10.9642 L 13.9303,9.8939 L 14.7301,9.1537 L 14.8029,8.2489 L 14.3669,8.0018 L 13.7854,7.9193 L 13.4221,8.8246 C 13.4221,8.8246 12.8142,8.9437 12.6579,8.9823 C 10.6618,10.8217 6.6286,14.7924 5.6916,22.2885 C 5.7287,22.4623 6.3708,23.4701 6.3708,23.4701 L 7.8972,24.3744 L 9.4236,24.7865 L 10.0784,25.6097 L 11.0955,26.3499 L 11.677,26.2679 L 12.113,26.4642 L 12.113,26.597 L 11.5319,28.16 L 11.0954,28.8182 L 11.2409,29.1483 L 10.8776,30.3807 L 12.1862,32.7674 L 13.4943,33.9197 L 14.0763,34.742 L 14.0031,36.4705 L 14.4396,37.4568 L 14.0031,39.3494 C 14.0031,39.3494 13.9689,39.3377 14.0246,39.5271 C 14.0808,39.7166 16.3537,40.9783 16.4982,40.8709 C 16.6422,40.7615 16.7653,40.6658 16.7653,40.6658 L 16.6203,40.2556 L 17.2014,39.6794 L 17.4197,39.1032 L 18.365,38.7731 L 19.0916,36.9626 L 18.8738,36.4704 L 19.3816,35.7302 L 20.4724,35.4822 L 21.0544,34.1658 L 20.9089,32.5213 L 21.781,31.2869 L 21.9265,30.0525 C 20.7331,29.4607 19.5495,28.8513 18.365,28.242"/>
      </g>
      <g id="g6540" style="fill:url(#radialGradient9191);fill-opacity:1;fill-rule:nonzero;stroke:url(#radialGradient8816);stroke-miterlimit:4" transform="matrix(0.468894,0,0,0.468894,50.523,-14.44107)">
        <path style="fill:url(#radialGradient9193);fill-opacity:1;stroke:url(#radialGradient9195)" id="path6542" d="M 26.8701,5.8633 L 24.9795,5.1226 L 22.7998,5.3692 L 20.1094,6.1094 L 19.6006,6.6035 L 21.2725,7.7549 L 21.2725,8.4131 L 20.6182,9.0713 L 21.4912,10.8003 L 22.0713,10.4702 L 22.7998,9.3188 C 23.9228,8.9716 24.9297,8.5781 25.9971,8.0844 L 26.8701,5.8632"/>
      </g>
      <g id="g6580" style="fill:url(#radialGradient9197);fill-opacity:1;fill-rule:nonzero;stroke:url(#radialGradient8820);stroke-miterlimit:4" transform="matrix(0.468894,0,0,0.468894,50.83236,-14.75043)">
        <path style="fill:url(#radialGradient9199);fill-opacity:1;stroke:url(#radialGradient9201)" id="path6582" d="M 14.876,8.9072 L 14.5122,9.812 L 15.2393,9.812 L 15.6031,8.9892 C 15.9166,8.7675 16.2286,8.5444 16.5479,8.331 L 17.275,8.5781 C 17.7594,8.9072 18.2438,9.2363 18.7286,9.5649 L 19.4561,8.9072 L 18.6558,8.5781 L 18.292,7.8374 L 16.9111,7.6728 L 16.8383,7.2612 L 16.184,7.4262 L 15.8936,8.002 L 15.5298,7.2613 L 15.3848,7.5904 L 15.4576,8.4132 L 14.876,8.9072"/>
      </g>
      <g id="g6626" style="fill:url(#radialGradient9203);fill-opacity:1;fill-rule:nonzero;stroke:url(#radialGradient8824);stroke-miterlimit:4" transform="matrix(0.468894,0,0,0.468894,50.12526,-14.48526)">
        <path style="fill:url(#radialGradient9205);fill-opacity:1;stroke:url(#radialGradient9207)" id="path6628" d="M 44.0713,20.7144 C 44.0713,20.9771 44.0713,20.7144 44.0713,20.7144 L 43.5264,21.3316 C 43.1924,20.938 42.8174,20.607 42.4366,20.2613 L 41.6007,20.3843 L 40.837,19.521 L 40.837,20.5894 L 41.4913,21.0845 L 41.9268,21.5777 L 42.5088,20.9195 C 42.6553,21.1939 42.7998,21.4683 42.9453,21.7427 L 42.9453,22.565 L 42.29,23.3052 L 41.0908,24.1284 L 40.1826,25.0347 L 39.6006,24.3745 L 39.8916,23.6343 L 39.3105,22.9761 L 38.3291,20.8784 L 37.4932,19.9331 L 37.2744,20.1792 L 37.6025,21.3726 L 38.2197,22.0718 C 38.5722,23.0894 38.9209,24.062 39.3838,25.0347 C 40.1016,25.0347 40.7783,24.9585 41.4912,24.8687 L 41.4912,25.4449 L 40.6191,27.5841 L 39.8193,28.4884 L 39.165,29.8888 C 39.165,30.6564 39.165,31.424 39.165,32.1915 L 39.3838,33.0978 L 39.0205,33.508 L 38.2197,34.0021 L 37.3838,34.7013 L 38.0752,35.4826 L 37.1299,36.3068 L 37.3115,36.84 L 35.8935,38.4455 L 34.9492,38.4455 L 34.1494,38.9396 L 33.6396,38.9396 L 33.6396,38.2814 L 33.4228,36.963 C 33.1415,36.1368 32.8486,35.3165 32.5507,34.4962 C 32.5507,33.8907 32.5868,33.2911 32.623,32.6857 L 32.9873,31.8634 L 32.4775,30.8751 L 32.5146,29.5177 L 31.8232,28.7364 L 32.1689,27.6055 L 31.6064,26.9673 L 30.624,26.9673 L 30.2969,26.5972 L 29.3155,27.2149 L 28.9161,26.7613 L 28.0069,27.543 C 27.3897,26.8433 26.7715,26.1441 26.1534,25.4449 L 25.4268,23.7164 L 26.0811,22.7301 L 25.7178,22.319 L 26.5166,20.4254 C 27.1729,19.609 27.8584,18.8258 28.5518,18.0397 L 29.7881,17.7106 L 31.169,17.5465 L 32.1143,17.7936 L 33.459,19.15 L 33.9317,18.6158 L 34.585,18.5338 L 35.8213,18.9449 L 36.7666,18.9449 L 37.4209,18.3687 L 37.7119,17.9576 L 37.0566,17.5465 L 35.9658,17.4645 C 35.6631,17.0446 35.3818,16.6032 35.0224,16.2301 L 34.6581,16.3942 L 34.5126,17.4645 L 33.8583,16.7243 L 33.7138,15.9001 L 32.9872,15.3259 L 32.6952,15.3259 L 33.4227,16.1482 L 33.1317,16.8884 L 32.5506,17.0525 L 32.9139,16.3123 L 32.2586,15.9842 L 31.6785,15.326 L 30.5867,15.5721 L 30.4422,15.9002 L 29.7879,16.3123 L 29.4246,17.2176 L 28.5164,17.6697 L 28.116,17.2176 L 27.6805,17.2176 L 27.6805,15.7362 L 28.6258,15.2421 L 29.3524,15.2421 L 29.2059,14.6669 L 28.6258,14.0907 L 29.6063,13.8846 L 30.1512,13.2684 L 30.5867,12.5272 L 31.3875,12.5272 L 31.1687,11.952 L 31.6785,11.6229 L 31.6785,12.2811 L 32.7683,12.5272 L 33.8581,11.6229 L 33.9313,11.2108 L 34.8756,10.5531 C 34.5338,10.5956 34.192,10.6268 33.858,10.7177 L 33.858,9.9766 L 34.2213,9.1538 L 33.858,9.1538 L 33.0596,9.894 L 32.8408,10.3056 L 33.0596,10.8823 L 32.6953,11.8686 L 32.1142,11.5395 L 31.6064,10.9643 L 30.8056,11.5395 L 30.5146,10.2236 L 31.8955,9.3188 L 31.8955,8.8247 L 32.7685,8.249 L 34.1494,7.9194 L 35.0947,8.249 L 36.8388,8.5781 L 36.4033,9.0713 L 35.458,9.0713 L 36.4033,10.0586 L 37.1299,9.2363 L 37.3506,8.8745 C 37.3506,8.8745 40.1377,11.3725 41.7305,14.105 C 43.3233,16.8384 44.0713,20.0601 44.0713,20.7144 z "/>
      </g>
    </g>
  </g>
  <g inkscape:groupmode="layer" id="layer5" inkscape:label="Text" style="display:inline">
    <path inkscape:r_cy="true" inkscape:r_cx="true" style="opacity:0.35714285;color:#000000;fill:url(#radialGradient4796);fill-opacity:1;fill-rule:evenodd;stroke:none;stroke-width:1.00000024;stroke-linecap:butt;stroke-linejoin:miter;marker:none;marker-start:none;marker-mid:none;marker-end:none;stroke-miterlimit:4;stroke-dasharray:none;stroke-dashoffset:0;stroke-opacity:1;visibility:visible;display:inline;overflow:visible" d="M 40.985189,13.861445 C 40.256827,12.514817 34.882221,10.130934 32.084635,9.3314083 C 32.254143,10.904354 31.961856,15.649439 31.961856,15.649439 C 34.024356,14.274439 40.204485,13.699331 40.985189,13.861445 z " id="path5348" sodipodi:nodetypes="cccc"/>
    <path style="color:#000000;fill:url(#radialGradient5352);fill-opacity:1;fill-rule:nonzero;stroke:url(#radialGradient5350);stroke-width:1;stroke-linecap:butt;stroke-linejoin:round;marker:none;marker-start:none;marker-mid:none;marker-end:none;stroke-miterlimit:4;stroke-dasharray:none;stroke-dashoffset:0;stroke-opacity:1;visibility:visible;display:block;overflow:visible;opacity:1" d="M 41.410559,13.739267 C 41.423724,12.324125 35.058025,3.5320142 31.175441,3.6354934 C 32.148479,3.8684884 32.925796,9.803523 31.536076,12.616023 C 34.286076,12.616023 40.446694,11.881093 41.410559,13.739267 z " id="path2210" sodipodi:nodetypes="cccc" inkscape:r_cx="true" inkscape:r_cy="true"/>
    <path sodipodi:nodetypes="cccc" id="path2247" d="M 39.121563,11.586207 C 38.393201,10.239579 34.963027,6.5166576 33.040441,5.2796316 C 33.279381,6.7054805 33.577496,8.9620596 32.961856,11.524439 C 32.961856,11.524439 38.340859,11.424093 39.121563,11.586207 z " style="opacity:1;color:#000000;fill:none;fill-opacity:1;fill-rule:evenodd;stroke:url(#linearGradient8166);stroke-width:1.00000024;stroke-linecap:butt;stroke-linejoin:miter;marker:none;marker-start:none;marker-mid:none;marker-end:none;stroke-miterlimit:4;stroke-dasharray:none;stroke-dashoffset:0;stroke-opacity:1;visibility:visible;display:inline;overflow:visible" inkscape:r_cx="true" inkscape:r_cy="true"/>
  </g>
</svg>
