<?xml version="1.0" encoding="UTF-8" standalone="no"?>
<!-- Created with Inkscape (http://www.inkscape.org/) -->
<svg xmlns:dc="http://purl.org/dc/elements/1.1/" xmlns:cc="http://web.resource.org/cc/" xmlns:rdf="http://www.w3.org/1999/02/22-rdf-syntax-ns#" xmlns:svg="http://www.w3.org/2000/svg" xmlns="http://www.w3.org/2000/svg" xmlns:xlink="http://www.w3.org/1999/xlink" xmlns:sodipodi="http://sodipodi.sourceforge.net/DTD/sodipodi-0.dtd" xmlns:inkscape="http://www.inkscape.org/namespaces/inkscape" inkscape:export-ydpi="90.000000" inkscape:export-xdpi="90.000000" inkscape:export-filename="/home/jimmac/Desktop/wi-fi.png" width="48px" height="48px" id="svg11300" sodipodi:version="0.32" inkscape:version="0.44" sodipodi:docbase="/home/lapo/Icone/cvs/gnome-icon-theme/scalable/emblems" sodipodi:docname="emblem-symbolic-link.svg" inkscape:output_extension="org.inkscape.output.svg.inkscape">
  <defs id="defs3">
    <linearGradient id="linearGradient2790">
      <stop style="stop-color:white;stop-opacity:1;" offset="0" id="stop2792"/>
      <stop id="stop2798" offset="0.8108108" style="stop-color:#d3d7cf;stop-opacity:1;"/>
      <stop style="stop-color:#959e8b;stop-opacity:1;" offset="1" id="stop2794"/>
    </linearGradient>
    <linearGradient inkscape:collect="always" id="linearGradient2782">
      <stop style="stop-color:black;stop-opacity:1;" offset="0" id="stop2784"/>
      <stop style="stop-color:black;stop-opacity:0;" offset="1" id="stop2786"/>
    </linearGradient>
    <radialGradient inkscape:collect="always" xlink:href="#linearGradient2782" id="radialGradient2788" cx="28.682018" cy="39.779884" fx="28.682018" fy="39.779884" r="12.59534" gradientTransform="matrix(1,0,0,0.329825,0,26.6595)" gradientUnits="userSpaceOnUse"/>
    <linearGradient inkscape:collect="always" xlink:href="#linearGradient2790" id="linearGradient2802" gradientUnits="userSpaceOnUse" x1="23.258379" y1="11.079708" x2="30.06694" y2="38.829708" gradientTransform="translate(0,-0.4375)"/>
  </defs>
  <g id="layer1" inkscape:label="Layer 1" inkscape:groupmode="layer">
    <path sodipodi:type="arc" style="opacity:0.13402064;color:black;fill:url(#radialGradient2788);fill-opacity:1;fill-rule:nonzero;stroke:none;stroke-width:1;stroke-linecap:butt;stroke-linejoin:miter;marker:none;marker-start:none;marker-mid:none;marker-end:none;stroke-miterlimit:4;stroke-dasharray:none;stroke-dashoffset:0;stroke-opacity:1;visibility:visible;display:inline;overflow:visible" id="path2780" sodipodi:cx="28.682018" sodipodi:cy="39.779884" sodipodi:rx="12.59534" sodipodi:ry="4.1542525" d="M 41.277358 39.779884 A 12.59534 4.1542525 0 1 1  16.086679,39.779884 A 12.59534 4.1542525 0 1 1  41.277358 39.779884 z" transform="matrix(1,0,0,0.819462,0.75,7.634442)"/>
    <path sodipodi:nodetypes="ccccccc" id="path2177" d="M 18.227595,41.221919 C 32.699893,40.659772 43.898967,27.765386 30.298022,14.85437 L 36.339276,8.5874869 C 36.339276,8.5874869 17.508379,8.5625 17.508379,8.5625 L 17.53637,27.616019 C 17.53637,27.616019 23.710806,21.441584 23.710806,21.441584 C 35.039894,32.25111 26.148565,38.935154 18.227595,41.221919 z " style="opacity:1;color:black;fill:url(#linearGradient2802);fill-opacity:1;fill-rule:nonzero;stroke:#888a85;stroke-width:0.9999997;stroke-linecap:butt;stroke-linejoin:miter;marker:none;marker-start:none;marker-mid:none;marker-end:none;stroke-miterlimit:10;stroke-dasharray:none;stroke-dashoffset:0;stroke-opacity:1;visibility:visible;display:block;overflow:visible"/>
    <path sodipodi:type="inkscape:offset" inkscape:radius="-1.1229494" inkscape:original="M 17.5 8.5625 L 17.53125 27.625 C 17.531251 27.625001 23.71875 21.4375 23.71875 21.4375 C 35.047838 32.247026 26.13972 38.931985 18.21875 41.21875 C 32.691049 40.656602 43.913445 27.754766 30.3125 14.84375 L 36.34375 8.59375 C 36.343751 8.5937497 17.5 8.5625 17.5 8.5625 z " xlink:href="#path2177" style="opacity:0.64948449;color:black;fill:none;fill-opacity:1;fill-rule:nonzero;stroke:white;stroke-width:0.9999997;stroke-linecap:butt;stroke-linejoin:miter;marker:none;marker-start:none;marker-mid:none;marker-end:none;stroke-miterlimit:10;stroke-dasharray:none;stroke-dashoffset:0;stroke-opacity:1;visibility:visible;display:block;overflow:visible" id="path2800" inkscape:href="#path2177" d="M 18.625,9.75 L 18.65625,25 C 20.481493,23.174757 22.9375,20.71875 22.9375,20.71875 C 23.364495,20.288233 24.056133,20.2744 24.5,20.6875 C 27.427275,23.480527 29.133851,26.088403 29.84375,28.53125 C 30.553649,30.974097 30.212626,33.24195 29.1875,35.125 C 28.574721,36.250611 27.689036,37.223321 26.71875,38.09375 C 29.816221,36.662964 32.35093,34.618313 33.8125,32.15625 C 36.472309,27.675712 36.084415,21.939495 29.53125,15.71875 C 29.31476,15.512108 29.189704,15.227603 29.183837,14.928381 C 29.17797,14.629158 29.291777,14.33997 29.5,14.125 L 33.6875,9.78125 C 30.039621,9.7752004 20.316131,9.7528045 18.625,9.75 z "/>
  </g>
</svg>
