<?xml version="1.0" encoding="UTF-8" standalone="no"?>
<!-- Created with Inkscape (http://www.inkscape.org/) -->
<svg xmlns:dc="http://purl.org/dc/elements/1.1/" xmlns:cc="http://web.resource.org/cc/" xmlns:rdf="http://www.w3.org/1999/02/22-rdf-syntax-ns#" xmlns:svg="http://www.w3.org/2000/svg" xmlns="http://www.w3.org/2000/svg" xmlns:xlink="http://www.w3.org/1999/xlink" xmlns:sodipodi="http://sodipodi.sourceforge.net/DTD/sodipodi-0.dtd" xmlns:inkscape="http://www.inkscape.org/namespaces/inkscape" inkscape:export-ydpi="90" inkscape:export-xdpi="90" inkscape:export-filename="/home/andreas/project/gnome-icon-theme/scalable/mimetypes/tesr.png" sodipodi:docname="text-x-generic-template.svg" sodipodi:docbase="/home/lapo/Icone/cvs/gnome-icon-theme/scalable/mimetypes" inkscape:version="0.44" sodipodi:version="0.32" id="svg249" height="48.000000px" width="48.000000px" inkscape:output_extension="org.inkscape.output.svg.inkscape">
  <defs id="defs3">
    <linearGradient inkscape:collect="always" id="linearGradient4790">
      <stop style="stop-color:#000000;stop-opacity:1;" offset="0" id="stop4792"/>
      <stop style="stop-color:#000000;stop-opacity:0;" offset="1" id="stop4794"/>
    </linearGradient>
    <linearGradient inkscape:collect="always" id="linearGradient2251">
      <stop style="stop-color:#ffffff;stop-opacity:1;" offset="0" id="stop2253"/>
      <stop style="stop-color:#ffffff;stop-opacity:0;" offset="1" id="stop2255"/>
    </linearGradient>
    <linearGradient inkscape:collect="always" xlink:href="#linearGradient2251" id="linearGradient8166" gradientUnits="userSpaceOnUse" gradientTransform="matrix(-3.277938e-2,-0.999463,0.999463,-3.277938e-2,-0.709646,45.06274)" x1="33.396004" y1="36.921333" x2="34.170048" y2="38.070381"/>
    <linearGradient inkscape:collect="always" id="linearGradient4542">
      <stop style="stop-color:#000000;stop-opacity:1;" offset="0" id="stop4544"/>
      <stop style="stop-color:#000000;stop-opacity:0;" offset="1" id="stop4546"/>
    </linearGradient>
    <linearGradient id="linearGradient15662">
      <stop id="stop15664" offset="0.0000000" style="stop-color:#ffffff;stop-opacity:1.0000000;"/>
      <stop id="stop15666" offset="1.0000000" style="stop-color:#f8f8f8;stop-opacity:1.0000000;"/>
    </linearGradient>
    <linearGradient id="linearGradient269">
      <stop id="stop270" offset="0.0000000" style="stop-color:#a3a3a3;stop-opacity:1.0000000;"/>
      <stop id="stop271" offset="1" style="stop-color:#8a8a8a;stop-opacity:1;"/>
    </linearGradient>
    <linearGradient id="linearGradient259">
      <stop id="stop260" offset="0.0000000" style="stop-color:#fafafa;stop-opacity:1.0000000;"/>
      <stop id="stop261" offset="1.0000000" style="stop-color:#bbbbbb;stop-opacity:1.0000000;"/>
    </linearGradient>
    <radialGradient inkscape:collect="always" xlink:href="#linearGradient269" id="radialGradient15656" gradientUnits="userSpaceOnUse" gradientTransform="matrix(0.971148,0,0,1.036068,3.24035,0.506089)" cx="8.8244190" cy="3.7561285" fx="8.8244190" fy="3.7561285" r="37.751713"/>
    <radialGradient inkscape:collect="always" xlink:href="#linearGradient259" id="radialGradient15658" gradientUnits="userSpaceOnUse" gradientTransform="matrix(0.963345,0,0,1.044459,-0.12316,-0.142424)" cx="33.966679" cy="35.736916" fx="33.966679" fy="35.736916" r="86.708450"/>
    <radialGradient inkscape:collect="always" xlink:href="#linearGradient15662" id="radialGradient15668" gradientUnits="userSpaceOnUse" gradientTransform="matrix(0.974894,0,0,1.034993,3.158008,0.554013)" cx="8.1435566" cy="7.2678967" fx="8.1435566" fy="7.2678967" r="38.158695"/>
    <radialGradient inkscape:collect="always" xlink:href="#linearGradient4542" id="radialGradient4548" cx="24.306795" cy="42.07798" fx="24.306795" fy="42.07798" r="15.821514" gradientTransform="matrix(1,0,0,0.284916,-6.340414e-16,30.08928)" gradientUnits="userSpaceOnUse"/>
    <radialGradient inkscape:collect="always" xlink:href="#linearGradient269" id="radialGradient5350" gradientUnits="userSpaceOnUse" gradientTransform="matrix(0.331735,-2.3449e-17,2.501087e-17,0.353831,20.10526,9.5823)" cx="31.863327" cy="2.3667307" fx="31.863327" fy="2.3667307" r="37.751713"/>
    <radialGradient inkscape:collect="always" xlink:href="#linearGradient259" id="radialGradient5352" gradientUnits="userSpaceOnUse" gradientTransform="matrix(0.148355,1.009137e-2,-1.104438e-2,0.162365,25.06011,12.81706)" cx="30.653816" cy="14.9373" fx="30.653816" fy="14.9373" r="86.708450"/>
    <radialGradient inkscape:collect="always" xlink:href="#linearGradient4790" id="radialGradient4796" cx="37.030354" cy="12.98915" fx="37.030354" fy="12.98915" r="4.2929165" gradientTransform="matrix(1.744653,0,0,1.283833,-26.58256,-3.478359)" gradientUnits="userSpaceOnUse"/>
  </defs>
  <g inkscape:groupmode="layer" id="layer6" inkscape:label="Shadow">
    <path sodipodi:type="arc" style="opacity:0.47252747;color:#000000;fill:url(#radialGradient4548);fill-opacity:1;fill-rule:evenodd;stroke:none;stroke-width:2;stroke-linecap:round;stroke-linejoin:round;marker:none;marker-start:none;marker-mid:none;marker-end:none;stroke-miterlimit:4;stroke-dasharray:none;stroke-dashoffset:0;stroke-opacity:1;visibility:visible;display:inline;overflow:visible" id="path3667" sodipodi:cx="24.306795" sodipodi:cy="42.07798" sodipodi:rx="15.821514" sodipodi:ry="4.5078058" d="M 40.128309 42.07798 A 15.821514 4.5078058 0 1 1  8.485281,42.07798 A 15.821514 4.5078058 0 1 1  40.128309 42.07798 z" transform="matrix(1.173184,0,0,0.686275,-4.651498,14.2616)" inkscape:r_cx="true" inkscape:r_cy="true"/>
  </g>
  <g style="display:inline" inkscape:groupmode="layer" inkscape:label="Base" id="layer1">
    <path style="color:black;fill:url(#radialGradient15658);fill-opacity:1;fill-rule:nonzero;stroke:url(#radialGradient15656);stroke-width:0.99999994;stroke-linecap:round;stroke-linejoin:round;marker:none;marker-start:none;marker-mid:none;marker-end:none;stroke-miterlimit:4;stroke-dashoffset:0;stroke-opacity:1;visibility:visible;display:block;overflow:visible" d="M 7.6524589,3.5156762 L 31.169088,3.5000013 C 31.169088,3.5000013 41.478543,13.074215 41.478543,13.712822 L 41.478543,43.414232 C 41.478543,44.052839 40.964545,44.566952 40.326082,44.566952 L 7.6524589,44.566952 C 7.013996,44.566952 6.4999987,44.052839 6.4999987,43.414232 L 6.4999987,4.6683972 C 6.4999987,4.0297898 7.013996,3.5156762 7.6524589,3.5156762 z " id="rect15391" sodipodi:nodetypes="ccccccccc"/>
    <path style="color:black;fill:none;fill-opacity:1;fill-rule:nonzero;stroke:url(#radialGradient15668);stroke-width:0.99999964;stroke-linecap:round;stroke-linejoin:round;marker:none;marker-start:none;marker-mid:none;marker-end:none;stroke-miterlimit:4;stroke-dashoffset:0;stroke-opacity:1;visibility:visible;display:block;overflow:visible" d="M 7.6500653,4.499998 L 32.69656,4.499998 C 32.69656,4.499998 40.500003,12.538711 40.500003,12.621462 L 40.500003,43.380942 C 40.500003,43.463693 40.433073,43.530312 40.349936,43.530312 L 7.6500653,43.530312 C 7.5669278,43.530312 7.4999976,43.463693 7.4999976,43.380942 L 7.4999976,4.6493678 C 7.4999976,4.5666169 7.5669278,4.499998 7.6500653,4.499998 z " id="rect15660" sodipodi:nodetypes="ccccccccc"/>
  </g>
  <g inkscape:groupmode="layer" id="layer5" inkscape:label="Text" style="display:inline">
    <path style="opacity:0.3;fill:white;fill-opacity:1;fill-rule:evenodd;stroke:none;stroke-width:1px;stroke-linecap:butt;stroke-linejoin:miter;stroke-opacity:1;display:inline" d="M 41,43.25 L 23.9375,10 L 23.9375,4 L 32.4375,4 L 40.9375,14.0625 L 41,43.25 z " id="path5493" sodipodi:nodetypes="cccccc"/>
    <path inkscape:r_cy="true" inkscape:r_cx="true" style="opacity:0.35714285;color:black;fill:url(#radialGradient4796);fill-opacity:1;fill-rule:evenodd;stroke:none;stroke-width:1.00000024;stroke-linecap:butt;stroke-linejoin:miter;marker:none;marker-start:none;marker-mid:none;marker-end:none;stroke-miterlimit:4;stroke-dasharray:none;stroke-dashoffset:0;stroke-opacity:1;visibility:visible;display:inline;overflow:visible" d="M 40.985189,13.861445 C 40.256827,12.514817 34.882221,10.130934 32.084635,9.3314083 C 32.254143,10.904354 31.961856,15.649439 31.961856,15.649439 C 34.024356,14.274439 40.204485,13.699331 40.985189,13.861445 z " id="path5348" sodipodi:nodetypes="cccc"/>
    <path style="color:#000000;fill:url(#radialGradient5352);fill-opacity:1;fill-rule:nonzero;stroke:url(#radialGradient5350);stroke-width:1;stroke-linecap:butt;stroke-linejoin:round;marker:none;marker-start:none;marker-mid:none;marker-end:none;stroke-miterlimit:4;stroke-dasharray:none;stroke-dashoffset:0;stroke-opacity:1;visibility:visible;display:block;overflow:visible;opacity:1" d="M 41.410559,13.739267 C 41.423724,12.324125 35.058025,3.4070142 31.175441,3.5104934 C 32.148479,3.7434884 32.925796,9.803523 31.536076,12.616023 C 34.286076,12.616023 40.446694,11.881093 41.410559,13.739267 z " id="path2210" sodipodi:nodetypes="cccc" inkscape:r_cx="true" inkscape:r_cy="true"/>
    <path sodipodi:nodetypes="cccc" id="path2247" d="M 39.121563,11.586207 C 38.393201,10.239579 34.963027,6.5166576 33.040441,5.2796316 C 33.279381,6.7054805 33.577496,8.9620596 32.961856,11.524439 C 32.961856,11.524439 38.340859,11.424093 39.121563,11.586207 z " style="opacity:1;color:#000000;fill:none;fill-opacity:1;fill-rule:evenodd;stroke:url(#linearGradient8166);stroke-width:1.00000024;stroke-linecap:butt;stroke-linejoin:miter;marker:none;marker-start:none;marker-mid:none;marker-end:none;stroke-miterlimit:4;stroke-dasharray:none;stroke-dashoffset:0;stroke-opacity:1;visibility:visible;display:inline;overflow:visible" inkscape:r_cx="true" inkscape:r_cy="true"/>
    <path sodipodi:type="arc" style="opacity:0.5;fill:#9f9f95;fill-opacity:1;stroke:none;stroke-width:1;stroke-linecap:round;stroke-linejoin:miter;stroke-miterlimit:4;stroke-dasharray:1, 3;stroke-dashoffset:0;stroke-opacity:1" id="path5210" sodipodi:cx="24.031252" sodipodi:cy="8.3437481" sodipodi:rx="2.34375" sodipodi:ry="2.34375" d="M 26.375002 8.3437481 A 2.34375 2.34375 0 1 1  21.687502,8.3437481 A 2.34375 2.34375 0 1 1  26.375002 8.3437481 z" transform="matrix(0.426666,0,0,0.426667,13.74667,4.439994)"/>
    <path sodipodi:type="arc" style="opacity:0.5;fill:#9f9f95;fill-opacity:1;stroke:none;stroke-width:1;stroke-linecap:round;stroke-linejoin:miter;stroke-miterlimit:4;stroke-dasharray:1, 3;stroke-dashoffset:0;stroke-opacity:1;display:inline" id="path6100" sodipodi:cx="24.031252" sodipodi:cy="8.3437481" sodipodi:rx="2.34375" sodipodi:ry="2.34375" d="M 26.375002 8.3437481 A 2.34375 2.34375 0 1 1  21.687502,8.3437481 A 2.34375 2.34375 0 1 1  26.375002 8.3437481 z" transform="matrix(0.426666,0,0,0.426667,13.74668,8.43999)"/>
    <path sodipodi:type="arc" style="opacity:0.5;fill:#9f9f95;fill-opacity:1;stroke:none;stroke-width:1;stroke-linecap:round;stroke-linejoin:miter;stroke-miterlimit:4;stroke-dasharray:1, 3;stroke-dashoffset:0;stroke-opacity:1;display:inline" id="path6104" sodipodi:cx="24.031252" sodipodi:cy="8.3437481" sodipodi:rx="2.34375" sodipodi:ry="2.34375" d="M 26.375002 8.3437481 A 2.34375 2.34375 0 1 1  21.687502,8.3437481 A 2.34375 2.34375 0 1 1  26.375002 8.3437481 z" transform="matrix(0.426666,0,0,0.426667,13.74668,16.44)"/>
    <path sodipodi:type="arc" style="opacity:0.5;fill:#9f9f95;fill-opacity:1;stroke:none;stroke-width:1;stroke-linecap:round;stroke-linejoin:miter;stroke-miterlimit:4;stroke-dasharray:1, 3;stroke-dashoffset:0;stroke-opacity:1;display:inline" id="path6106" sodipodi:cx="24.031252" sodipodi:cy="8.3437481" sodipodi:rx="2.34375" sodipodi:ry="2.34375" d="M 26.375002 8.3437481 A 2.34375 2.34375 0 1 1  21.687502,8.3437481 A 2.34375 2.34375 0 1 1  26.375002 8.3437481 z" transform="matrix(0.426666,0,0,0.426667,13.74668,20.44)"/>
    <path sodipodi:type="arc" style="opacity:0.5;fill:#9f9f95;fill-opacity:1;stroke:none;stroke-width:1;stroke-linecap:round;stroke-linejoin:miter;stroke-miterlimit:4;stroke-dasharray:1, 3;stroke-dashoffset:0;stroke-opacity:1;display:inline" id="path6108" sodipodi:cx="24.031252" sodipodi:cy="8.3437481" sodipodi:rx="2.34375" sodipodi:ry="2.34375" d="M 26.375002 8.3437481 A 2.34375 2.34375 0 1 1  21.687502,8.3437481 A 2.34375 2.34375 0 1 1  26.375002 8.3437481 z" transform="matrix(0.426666,0,0,0.426667,13.74668,24.44)"/>
    <path sodipodi:type="arc" style="opacity:0.5;fill:#9f9f95;fill-opacity:1;stroke:none;stroke-width:1;stroke-linecap:round;stroke-linejoin:miter;stroke-miterlimit:4;stroke-dasharray:1, 3;stroke-dashoffset:0;stroke-opacity:1;display:inline" id="path6110" sodipodi:cx="24.031252" sodipodi:cy="8.3437481" sodipodi:rx="2.34375" sodipodi:ry="2.34375" d="M 26.375002 8.3437481 A 2.34375 2.34375 0 1 1  21.687502,8.3437481 A 2.34375 2.34375 0 1 1  26.375002 8.3437481 z" transform="matrix(0.426666,0,0,0.426667,13.74668,28.44)"/>
    <path sodipodi:type="arc" style="opacity:0.5;fill:#9f9f95;fill-opacity:1;stroke:none;stroke-width:1;stroke-linecap:round;stroke-linejoin:miter;stroke-miterlimit:4;stroke-dasharray:1, 3;stroke-dashoffset:0;stroke-opacity:1;display:inline" id="path6112" sodipodi:cx="24.031252" sodipodi:cy="8.3437481" sodipodi:rx="2.34375" sodipodi:ry="2.34375" d="M 26.375002 8.3437481 A 2.34375 2.34375 0 1 1  21.687502,8.3437481 A 2.34375 2.34375 0 1 1  26.375002 8.3437481 z" transform="matrix(0.426666,0,0,0.426667,13.74668,32.44)"/>
    <path sodipodi:type="arc" style="opacity:0.5;fill:#9f9f95;fill-opacity:1;stroke:none;stroke-width:1;stroke-linecap:round;stroke-linejoin:miter;stroke-miterlimit:4;stroke-dasharray:1, 3;stroke-dashoffset:0;stroke-opacity:1;display:inline" id="path6114" sodipodi:cx="24.031252" sodipodi:cy="8.3437481" sodipodi:rx="2.34375" sodipodi:ry="2.34375" d="M 26.375002 8.3437481 A 2.34375 2.34375 0 1 1  21.687502,8.3437481 A 2.34375 2.34375 0 1 1  26.375002 8.3437481 z" transform="matrix(0.426666,0,0,0.426667,13.74668,36.44)"/>
    <path sodipodi:type="arc" style="opacity:0.5;fill:#9f9f95;fill-opacity:1;stroke:none;stroke-width:1;stroke-linecap:round;stroke-linejoin:miter;stroke-miterlimit:4;stroke-dasharray:1, 3;stroke-dashoffset:0;stroke-opacity:1;display:inline" id="path6130" sodipodi:cx="24.031252" sodipodi:cy="8.3437481" sodipodi:rx="2.34375" sodipodi:ry="2.34375" d="M 26.375002 8.3437481 A 2.34375 2.34375 0 1 1  21.687502,8.3437481 A 2.34375 2.34375 0 1 1  26.375002 8.3437481 z" transform="matrix(-0.426666,0,0,0.426667,37.25331,12.44)"/>
    <path sodipodi:type="arc" style="opacity:0.5;fill:#9f9f95;fill-opacity:1;stroke:none;stroke-width:1;stroke-linecap:round;stroke-linejoin:miter;stroke-miterlimit:4;stroke-dasharray:1, 3;stroke-dashoffset:0;stroke-opacity:1;display:inline" id="path6132" sodipodi:cx="24.031252" sodipodi:cy="8.3437481" sodipodi:rx="2.34375" sodipodi:ry="2.34375" d="M 26.375002 8.3437481 A 2.34375 2.34375 0 1 1  21.687502,8.3437481 A 2.34375 2.34375 0 1 1  26.375002 8.3437481 z" transform="matrix(-0.426666,0,0,0.426667,39.25331,16.44)"/>
    <path sodipodi:type="arc" style="opacity:0.5;fill:#9f9f95;fill-opacity:1;stroke:none;stroke-width:1;stroke-linecap:round;stroke-linejoin:miter;stroke-miterlimit:4;stroke-dasharray:1, 3;stroke-dashoffset:0;stroke-opacity:1;display:inline" id="path6134" sodipodi:cx="24.031252" sodipodi:cy="8.3437481" sodipodi:rx="2.34375" sodipodi:ry="2.34375" d="M 26.375002 8.3437481 A 2.34375 2.34375 0 1 1  21.687502,8.3437481 A 2.34375 2.34375 0 1 1  26.375002 8.3437481 z" transform="matrix(-0.426666,0,0,0.426667,41.25331,20.44)"/>
    <path sodipodi:type="arc" style="opacity:0.5;fill:#9f9f95;fill-opacity:1;stroke:none;stroke-width:1;stroke-linecap:round;stroke-linejoin:miter;stroke-miterlimit:4;stroke-dasharray:1, 3;stroke-dashoffset:0;stroke-opacity:1;display:inline" id="path6136" sodipodi:cx="24.031252" sodipodi:cy="8.3437481" sodipodi:rx="2.34375" sodipodi:ry="2.34375" d="M 26.375002 8.3437481 A 2.34375 2.34375 0 1 1  21.687502,8.3437481 A 2.34375 2.34375 0 1 1  26.375002 8.3437481 z" transform="matrix(-0.426666,0,0,0.426667,43.25331,24.44)"/>
    <path sodipodi:type="arc" style="opacity:0.5;fill:#9f9f95;fill-opacity:1;stroke:none;stroke-width:1;stroke-linecap:round;stroke-linejoin:miter;stroke-miterlimit:4;stroke-dasharray:1, 3;stroke-dashoffset:0;stroke-opacity:1;display:inline" id="path6138" sodipodi:cx="24.031252" sodipodi:cy="8.3437481" sodipodi:rx="2.34375" sodipodi:ry="2.34375" d="M 26.375002 8.3437481 A 2.34375 2.34375 0 1 1  21.687502,8.3437481 A 2.34375 2.34375 0 1 1  26.375002 8.3437481 z" transform="matrix(-0.426666,0,0,0.426667,45.25331,28.44)"/>
    <path sodipodi:type="arc" style="opacity:0.5;fill:#9f9f95;fill-opacity:1;stroke:none;stroke-width:1;stroke-linecap:round;stroke-linejoin:miter;stroke-miterlimit:4;stroke-dasharray:1, 3;stroke-dashoffset:0;stroke-opacity:1;display:inline" id="path6140" sodipodi:cx="24.031252" sodipodi:cy="8.3437481" sodipodi:rx="2.34375" sodipodi:ry="2.34375" d="M 26.375002 8.3437481 A 2.34375 2.34375 0 1 1  21.687502,8.3437481 A 2.34375 2.34375 0 1 1  26.375002 8.3437481 z" transform="matrix(-0.426666,0,0,0.426667,47.25331,32.44)"/>
    <path sodipodi:type="arc" style="opacity:0.5;fill:#9f9f95;fill-opacity:1;stroke:none;stroke-width:1;stroke-linecap:round;stroke-linejoin:miter;stroke-miterlimit:4;stroke-dasharray:1, 3;stroke-dashoffset:0;stroke-opacity:1;display:inline" id="path6144" sodipodi:cx="24.031252" sodipodi:cy="8.3437481" sodipodi:rx="2.34375" sodipodi:ry="2.34375" d="M 26.375002 8.3437481 A 2.34375 2.34375 0 1 1  21.687502,8.3437481 A 2.34375 2.34375 0 1 1  26.375002 8.3437481 z" transform="matrix(-0.426666,0,0,0.426667,49.25332,36.44)"/>
    <path style="fill:#707070;fill-opacity:1;fill-rule:evenodd;stroke:none;stroke-width:1px;stroke-linecap:butt;stroke-linejoin:miter;stroke-opacity:1;opacity:0.05" d="M 6.9375,43.25 L 24,10 L 24,4 L 7,4 L 6.9375,43.25 z " id="path4544" sodipodi:nodetypes="ccccc"/>
    <path sodipodi:type="arc" style="opacity:0.5;fill:#9f9f95;fill-opacity:1;stroke:none;stroke-width:1;stroke-linecap:round;stroke-linejoin:miter;stroke-miterlimit:4;stroke-dasharray:1, 3;stroke-dashoffset:0;stroke-opacity:1;display:inline" id="path6118" sodipodi:cx="24.031252" sodipodi:cy="8.3437481" sodipodi:rx="2.34375" sodipodi:ry="2.34375" d="M 26.375002 8.3437481 A 2.34375 2.34375 0 1 1  21.687502,8.3437481 A 2.34375 2.34375 0 1 1  26.375002 8.3437481 z" transform="matrix(0.426666,0,0,0.426667,10.74667,12.44)"/>
    <path sodipodi:type="arc" style="opacity:0.5;fill:#9f9f95;fill-opacity:1;stroke:none;stroke-width:1;stroke-linecap:round;stroke-linejoin:miter;stroke-miterlimit:4;stroke-dasharray:1, 3;stroke-dashoffset:0;stroke-opacity:1;display:inline" id="path6120" sodipodi:cx="24.031252" sodipodi:cy="8.3437481" sodipodi:rx="2.34375" sodipodi:ry="2.34375" d="M 26.375002 8.3437481 A 2.34375 2.34375 0 1 1  21.687502,8.3437481 A 2.34375 2.34375 0 1 1  26.375002 8.3437481 z" transform="matrix(0.426666,0,0,0.426667,8.74667,16.44)"/>
    <path sodipodi:type="arc" style="opacity:0.5;fill:#9f9f95;fill-opacity:1;stroke:none;stroke-width:1;stroke-linecap:round;stroke-linejoin:miter;stroke-miterlimit:4;stroke-dasharray:1, 3;stroke-dashoffset:0;stroke-opacity:1;display:inline" id="path6122" sodipodi:cx="24.031252" sodipodi:cy="8.3437481" sodipodi:rx="2.34375" sodipodi:ry="2.34375" d="M 26.375002 8.3437481 A 2.34375 2.34375 0 1 1  21.687502,8.3437481 A 2.34375 2.34375 0 1 1  26.375002 8.3437481 z" transform="matrix(0.426666,0,0,0.426667,6.746673,20.44)"/>
    <path sodipodi:type="arc" style="opacity:0.5;fill:#9f9f95;fill-opacity:1;stroke:none;stroke-width:1;stroke-linecap:round;stroke-linejoin:miter;stroke-miterlimit:4;stroke-dasharray:1, 3;stroke-dashoffset:0;stroke-opacity:1;display:inline" id="path6124" sodipodi:cx="24.031252" sodipodi:cy="8.3437481" sodipodi:rx="2.34375" sodipodi:ry="2.34375" d="M 26.375002 8.3437481 A 2.34375 2.34375 0 1 1  21.687502,8.3437481 A 2.34375 2.34375 0 1 1  26.375002 8.3437481 z" transform="matrix(0.426666,0,0,0.426667,4.746674,24.44)"/>
    <path sodipodi:type="arc" style="opacity:0.5;fill:#9f9f95;fill-opacity:1;stroke:none;stroke-width:1;stroke-linecap:round;stroke-linejoin:miter;stroke-miterlimit:4;stroke-dasharray:1, 3;stroke-dashoffset:0;stroke-opacity:1;display:inline" id="path6126" sodipodi:cx="24.031252" sodipodi:cy="8.3437481" sodipodi:rx="2.34375" sodipodi:ry="2.34375" d="M 26.375002 8.3437481 A 2.34375 2.34375 0 1 1  21.687502,8.3437481 A 2.34375 2.34375 0 1 1  26.375002 8.3437481 z" transform="matrix(0.426666,0,0,0.426667,2.746673,28.44)"/>
    <path sodipodi:type="arc" style="opacity:0.5;fill:#9f9f95;fill-opacity:1;stroke:none;stroke-width:1;stroke-linecap:round;stroke-linejoin:miter;stroke-miterlimit:4;stroke-dasharray:1, 3;stroke-dashoffset:0;stroke-opacity:1;display:inline" id="path6128" sodipodi:cx="24.031252" sodipodi:cy="8.3437481" sodipodi:rx="2.34375" sodipodi:ry="2.34375" d="M 26.375002 8.3437481 A 2.34375 2.34375 0 1 1  21.687502,8.3437481 A 2.34375 2.34375 0 1 1  26.375002 8.3437481 z" transform="matrix(0.426666,0,0,0.426667,0.746674,32.44)"/>
    <path sodipodi:type="arc" style="opacity:0.5;fill:#9f9f95;fill-opacity:1;stroke:none;stroke-width:1;stroke-linecap:round;stroke-linejoin:miter;stroke-miterlimit:4;stroke-dasharray:1, 3;stroke-dashoffset:0;stroke-opacity:1;display:inline" id="path6146" sodipodi:cx="24.031252" sodipodi:cy="8.3437481" sodipodi:rx="2.34375" sodipodi:ry="2.34375" d="M 26.375002 8.3437481 A 2.34375 2.34375 0 1 1  21.687502,8.3437481 A 2.34375 2.34375 0 1 1  26.375002 8.3437481 z" transform="matrix(-0.426666,0,0,0.426667,19.25332,36.44)"/>
  </g>
</svg>
