<?xml version="1.0" encoding="UTF-8" standalone="no"?>
<!-- Created with Inkscape (http://www.inkscape.org/) -->
<svg xmlns:dc="http://purl.org/dc/elements/1.1/" xmlns:cc="http://web.resource.org/cc/" xmlns:rdf="http://www.w3.org/1999/02/22-rdf-syntax-ns#" xmlns:svg="http://www.w3.org/2000/svg" xmlns="http://www.w3.org/2000/svg" xmlns:xlink="http://www.w3.org/1999/xlink" xmlns:sodipodi="http://sodipodi.sourceforge.net/DTD/sodipodi-0.dtd" xmlns:inkscape="http://www.inkscape.org/namespaces/inkscape" width="48px" height="48px" id="svg4289" sodipodi:version="0.32" inkscape:version="0.45" sodipodi:docbase="/home/jimmac/src/cvs/gnome/gnome-icon-theme/scalable/apps" sodipodi:docname="preferences-desktop-locale.svg" inkscape:output_extension="org.inkscape.output.svg.inkscape">
  <defs id="defs4291">
    <linearGradient inkscape:collect="always" id="linearGradient6173">
      <stop style="stop-color:white;stop-opacity:1;" offset="0" id="stop6175"/>
      <stop style="stop-color:white;stop-opacity:0;" offset="1" id="stop6177"/>
    </linearGradient>
    <linearGradient inkscape:collect="always" id="linearGradient6165">
      <stop style="stop-color:#555753;stop-opacity:1;" offset="0" id="stop6167"/>
      <stop style="stop-color:#555753;stop-opacity:0;" offset="1" id="stop6169"/>
    </linearGradient>
    <linearGradient inkscape:collect="always" id="linearGradient6157">
      <stop style="stop-color:#888a85;stop-opacity:1" offset="0" id="stop6159"/>
      <stop style="stop-color:#babdb6;stop-opacity:0" offset="1" id="stop6161"/>
    </linearGradient>
    <linearGradient inkscape:collect="always" id="linearGradient6147">
      <stop style="stop-color:#595959;stop-opacity:1" offset="0" id="stop6149"/>
      <stop style="stop-color:#414141;stop-opacity:0" offset="1" id="stop6151"/>
    </linearGradient>
    <linearGradient id="linearGradient5239">
      <stop style="stop-color:#7ea7d3;stop-opacity:1;" offset="0" id="stop5241"/>
      <stop id="stop5247" offset="0.125" style="stop-color:#8bb1d9;stop-opacity:1;"/>
      <stop style="stop-color:#3871aa;stop-opacity:1;" offset="0.42562979" id="stop5249"/>
      <stop id="stop5251" offset="0.69892961" style="stop-color:#3c77b6;stop-opacity:1;"/>
      <stop style="stop-color:#6c9acf;stop-opacity:1;" offset="1" id="stop5243"/>
    </linearGradient>
    <linearGradient inkscape:collect="always" xlink:href="#linearGradient5239" id="linearGradient5245" x1="9.0877619" y1="21.214285" x2="35.799229" y2="19.976284" gradientUnits="userSpaceOnUse" gradientTransform="matrix(1,0,0,1.00176,1.928564,-1.144402e-2)"/>
    <linearGradient inkscape:collect="always" xlink:href="#linearGradient6147" id="linearGradient6153" x1="8.9642859" y1="36" x2="8.5" y2="43.857143" gradientUnits="userSpaceOnUse" gradientTransform="matrix(1,0,0,0.986364,1.4999999,5.5833119e-2)"/>
    <linearGradient inkscape:collect="always" xlink:href="#linearGradient6157" id="linearGradient6163" x1="5.9999986" y1="36.573788" x2="5.9999986" y2="44.618351" gradientUnits="userSpaceOnUse" gradientTransform="matrix(1,0,0,1.025641,0.928584,-1.192325)"/>
    <linearGradient inkscape:collect="always" xlink:href="#linearGradient6165" id="linearGradient6171" x1="5.9999986" y1="36.573788" x2="5.9999986" y2="44.618351" gradientUnits="userSpaceOnUse" gradientTransform="matrix(1,0,0,1.025641,0.928584,-1.192325)"/>
    <linearGradient inkscape:collect="always" xlink:href="#linearGradient6173" id="linearGradient6179" x1="5.5" y1="15.444439" x2="5.5" y2="36.087296" gradientUnits="userSpaceOnUse" gradientTransform="translate(0.928584,-1.395367e-5)"/>
  </defs>
  <g id="layer1" inkscape:label="Layer 1" inkscape:groupmode="layer">
    <rect style="opacity:1;fill:url(#linearGradient6163);fill-opacity:1;stroke:url(#linearGradient6171);stroke-width:1.00000083;stroke-linecap:round;stroke-linejoin:round;stroke-miterlimit:4;stroke-dasharray:none;stroke-opacity:1" id="rect4321" width="2.9999979" height="40.000027" x="5.4285841" y="6.4999857" rx="1.4999989" ry="1.4999989"/>
    <path style="fill:url(#linearGradient5245);fill-opacity:1;fill-rule:evenodd;stroke:#204a87;stroke-width:1.00000143px;stroke-linecap:butt;stroke-linejoin:miter;stroke-opacity:1" d="M 8.4285571,8.0191769 C 8.4285571,8.0191769 13.558991,6.3318604 18.776384,6.5137056 C 23.993777,6.6955518 25.385081,8.6621415 31.298129,8.4499877 C 37.211174,8.2378348 42.428567,6.7662186 42.428567,6.7662186 L 42.428567,31.348027 C 42.428567,31.348027 37.269145,33.5 31.356099,33.5 C 25.443053,33.5 24.341603,31.802646 18.776384,31.590494 C 13.211166,31.37834 8.4285571,32.507719 8.4285571,32.507719 C 8.4285571,32.507719 10.428557,26.385584 10.428557,20.263448 C 10.428557,14.141312 8.4285571,8.0191769 8.4285571,8.0191769 z " id="path4319" sodipodi:nodetypes="czzcczzczc"/>
    <path style="opacity:0.22826089;fill:none;fill-opacity:1;fill-rule:evenodd;stroke:white;stroke-width:1.00000191px;stroke-linecap:butt;stroke-linejoin:miter;stroke-opacity:1" d="M 9.500001,8.7637787 C 9.500001,8.7637787 14.363355,7.344305 19.254661,7.5126806 C 24.145966,7.6810561 25.450314,9.5019736 30.993798,9.3055349 C 36.537278,9.1090971 41.428583,8.1036315 41.428583,8.1036315 L 41.428583,30.721717 C 41.428583,30.721717 36.591624,32.499999 31.048145,32.499999 C 25.504664,32.499999 24.472053,30.928375 19.254661,30.731937 C 14.037268,30.535499 9.7857153,31.224078 9.7857153,31.224078 C 9.7857153,31.224078 11.357149,25.894257 11.428572,20.351071 C 11.500001,14.807425 9.500001,8.7637787 9.500001,8.7637787 z " id="path5213" sodipodi:nodetypes="czzcczzczc"/>
    <path style="opacity:0.3;fill:none;fill-opacity:0.75;fill-rule:evenodd;stroke:url(#linearGradient6179);stroke-width:1px;stroke-linecap:round;stroke-linejoin:miter;stroke-opacity:1" d="M 6.4285844,8.5098834 L 6.4285844,41.471314" id="path5255" sodipodi:nodetypes="cc"/>
    <path sodipodi:type="arc" style="opacity:0.7;fill:#ffffff;fill-opacity:1;stroke:#204a87;stroke-width:0.65178639;stroke-linecap:round;stroke-linejoin:round;stroke-miterlimit:4;stroke-dasharray:none;stroke-opacity:1" id="path6155" sodipodi:cx="9.7321424" sodipodi:cy="29.053572" sodipodi:rx="1.3035715" sodipodi:ry="1.3035715" d="M 11.035714 29.053572 A 1.3035715 1.3035715 0 1 1  8.428571,29.053572 A 1.3035715 1.3035715 0 1 1  11.035714 29.053572 z" transform="matrix(1.5342462,0,0,1.5342462,-1.4315025,-16.075332)"/>
    <path style="fill:#2e3436;fill-opacity:0.75;fill-rule:evenodd;stroke:url(#linearGradient6153);stroke-width:1.00000024px;stroke-linecap:round;stroke-linejoin:miter;stroke-opacity:1" d="M 13.5,28.5 C 13.238095,36.000002 11.119048,39.785718 9.9285717,45.428577" id="path6145" sodipodi:nodetypes="cc"/>
    <g id="g5593" style="opacity:0.50588235" transform="translate(0,-1)">
      <path transform="matrix(0.9846154,0,0,0.9846154,0.7769231,-0.3153846)" d="M 34.25 20.125 A 8.125 8.125 0 1 1  18,20.125 A 8.125 8.125 0 1 1  34.25 20.125 z" sodipodi:ry="8.125" sodipodi:rx="8.125" sodipodi:cy="20.125" sodipodi:cx="26.125" id="path5577" style="opacity:1;color:#000000;fill:none;fill-opacity:1;fill-rule:evenodd;stroke:#ffffff;stroke-width:1.015625;stroke-linecap:round;stroke-linejoin:miter;marker:none;marker-start:none;marker-mid:none;marker-end:none;stroke-miterlimit:4;stroke-dasharray:none;stroke-dashoffset:0;stroke-opacity:1;visibility:visible;display:inline;overflow:visible;enable-background:accumulate" sodipodi:type="arc"/>
      <path sodipodi:open="true" sodipodi:end="7.7511201" sodipodi:start="5.765898" sodipodi:type="arc" style="opacity:1;color:#000000;fill:none;fill-opacity:1;fill-rule:evenodd;stroke:#ffffff;stroke-width:1.60493815;stroke-linecap:round;stroke-linejoin:miter;marker:none;marker-start:none;marker-mid:none;marker-end:none;stroke-miterlimit:4;stroke-dasharray:none;stroke-dashoffset:0;stroke-opacity:1;visibility:visible;display:inline;overflow:visible;enable-background:accumulate" id="path5579" sodipodi:cx="26.125" sodipodi:cy="20.125" sodipodi:rx="8.125" sodipodi:ry="8.125" d="M 33.186956,16.106991 A 8.125,8.125 0 0 1 26.959277,28.207055" transform="matrix(1.2461539,0,0,1.2461539,-6.0557692,-5.5788461)"/>
      <path sodipodi:open="true" transform="matrix(-1.2461539,0,0,1.2461539,58.90791,-5.5788461)" d="M 33.071089,15.909852 A 8.125,8.125 0 0 1 26.959277,28.207055" sodipodi:ry="8.125" sodipodi:rx="8.125" sodipodi:cy="20.125" sodipodi:cx="26.125" id="path5581" style="opacity:1;color:#000000;fill:none;fill-opacity:1;fill-rule:evenodd;stroke:#ffffff;stroke-width:1.60493815;stroke-linecap:round;stroke-linejoin:miter;marker:none;marker-start:none;marker-mid:none;marker-end:none;stroke-miterlimit:4;stroke-dasharray:none;stroke-dashoffset:0;stroke-opacity:1;visibility:visible;display:inline;overflow:visible;enable-background:accumulate" sodipodi:type="arc" sodipodi:start="5.7377533" sodipodi:end="7.7511201"/>
      <path sodipodi:type="arc" style="opacity:1;color:#000000;fill:none;fill-opacity:1;fill-rule:evenodd;stroke:#ffffff;stroke-width:1.35416675;stroke-linecap:round;stroke-linejoin:miter;marker:none;marker-start:none;marker-mid:none;marker-end:none;stroke-miterlimit:4;stroke-dasharray:none;stroke-dashoffset:0;stroke-opacity:1;visibility:visible;display:inline;overflow:visible;enable-background:accumulate" id="path5583" sodipodi:cx="26.125" sodipodi:cy="20.125" sodipodi:rx="8.125" sodipodi:ry="8.125" d="M 34.25 20.125 A 8.125 8.125 0 1 1  18,20.125 A 8.125 8.125 0 1 1  34.25 20.125 z" transform="matrix(0.7384615,0,0,0.7384615,7.2076941,4.6384629)"/>
      <path transform="matrix(0.4846153,0,0,0.4846153,13.839425,9.7471168)" d="M 34.25 20.125 A 8.125 8.125 0 1 1  18,20.125 A 8.125 8.125 0 1 1  34.25 20.125 z" sodipodi:ry="8.125" sodipodi:rx="8.125" sodipodi:cy="20.125" sodipodi:cx="26.125" id="path5585" style="opacity:1;color:#000000;fill:none;fill-opacity:1;fill-rule:evenodd;stroke:#ffffff;stroke-width:2.0634923;stroke-linecap:round;stroke-linejoin:miter;marker:none;marker-start:none;marker-mid:none;marker-end:none;stroke-miterlimit:4;stroke-dasharray:none;stroke-dashoffset:0;stroke-opacity:1;visibility:visible;display:inline;overflow:visible;enable-background:accumulate" sodipodi:type="arc"/>
      <path id="path5587" d="M 30,16 L 28.5,18 L 30.4375,20.5625 L 27.5625,23.4375 C 27.5625,23.4375 32,25 32,25 L 32,20 L 31,19 L 33,17 L 29.4375,14 L 30,16 z " style="opacity:1;color:#000000;fill:#ffffff;fill-opacity:1;fill-rule:evenodd;stroke:none;stroke-width:2;stroke-linecap:round;stroke-linejoin:miter;marker:none;marker-start:none;marker-mid:none;marker-end:none;stroke-miterlimit:4;stroke-dasharray:none;stroke-dashoffset:0;stroke-opacity:1;visibility:visible;display:inline;overflow:visible;enable-background:accumulate"/>
      <path id="path5589" d="M 22,21 L 19.5625,25.5 L 25,23 L 22,21 z " style="opacity:1;color:#000000;fill:#ffffff;fill-opacity:1;fill-rule:evenodd;stroke:none;stroke-width:2;stroke-linecap:round;stroke-linejoin:miter;marker:none;marker-start:none;marker-mid:none;marker-end:none;stroke-miterlimit:4;stroke-dasharray:none;stroke-dashoffset:0;stroke-opacity:1;visibility:visible;display:inline;overflow:visible;enable-background:accumulate"/>
      <path id="path5591" d="M 20.5625,19 C 20.5625,19 25,21.5 25,21 C 25,20.5 25,19 25,19 L 23.5,19 L 25,16.4375 L 20.5625,19 z " style="opacity:1;color:#000000;fill:#ffffff;fill-opacity:1;fill-rule:evenodd;stroke:none;stroke-width:2;stroke-linecap:round;stroke-linejoin:miter;marker:none;marker-start:none;marker-mid:none;marker-end:none;stroke-miterlimit:4;stroke-dasharray:none;stroke-dashoffset:0;stroke-opacity:1;visibility:visible;display:inline;overflow:visible;enable-background:accumulate"/>
    </g>
  </g>
</svg>
