<?xml version="1.0" encoding="UTF-8" standalone="no"?>
<!-- Created with Inkscape (http://www.inkscape.org/) -->
<svg xmlns:dc="http://purl.org/dc/elements/1.1/" xmlns:cc="http://web.resource.org/cc/" xmlns:rdf="http://www.w3.org/1999/02/22-rdf-syntax-ns#" xmlns:svg="http://www.w3.org/2000/svg" xmlns="http://www.w3.org/2000/svg" xmlns:xlink="http://www.w3.org/1999/xlink" xmlns:sodipodi="http://sodipodi.sourceforge.net/DTD/sodipodi-0.dtd" xmlns:inkscape="http://www.inkscape.org/namespaces/inkscape" width="48" height="48" id="svg4908" sodipodi:version="0.32" inkscape:version="0.44+devel" version="1.0" sodipodi:docbase="/home/andreas/Desktop/tempicons/scalable" sodipodi:docname="mail-attachment.svg" inkscape:output_extension="org.inkscape.output.svg.inkscape" inkscape:export-filename="/home/andreas/project/medsphere/scalable/attachment.png" inkscape:export-xdpi="90" inkscape:export-ydpi="90" sodipodi:modified="true">
  <defs id="defs4910">
    <linearGradient inkscape:collect="always" id="linearGradient6868">
      <stop style="stop-color:#787a73;stop-opacity:1" offset="0" id="stop6870"/>
      <stop style="stop-color:#a6a7a5;stop-opacity:1" offset="1" id="stop6872"/>
    </linearGradient>
    <linearGradient inkscape:collect="always" id="linearGradient6997">
      <stop style="stop-color:#ebedea;stop-opacity:1" offset="0" id="stop6999"/>
      <stop style="stop-color:#ccd2c8;stop-opacity:1" offset="1" id="stop7001"/>
    </linearGradient>
    <linearGradient inkscape:collect="always" id="linearGradient6957">
      <stop style="stop-color:#000000;stop-opacity:1;" offset="0" id="stop6959"/>
      <stop style="stop-color:#000000;stop-opacity:0;" offset="1" id="stop6961"/>
    </linearGradient>
    <radialGradient inkscape:collect="always" xlink:href="#linearGradient6957" id="radialGradient6963" cx="6.8339977" cy="18.245768" fx="6.8339977" fy="18.245768" r="6.3620529" gradientTransform="matrix(0.8248568,-2.5087964e-3,4.1186836e-4,0.4615378,1.1894136,9.8231788)" gradientUnits="userSpaceOnUse"/>
    <linearGradient inkscape:collect="always" xlink:href="#linearGradient6997" id="linearGradient7003" x1="11.013494" y1="5.9594917" x2="11.013494" y2="15.916803" gradientUnits="userSpaceOnUse" gradientTransform="matrix(2.2252954,0,0,2.0735335,2.1557056e-2,2.7276043)"/>
    <linearGradient inkscape:collect="always" xlink:href="#linearGradient6868" id="linearGradient6874" x1="10.227501" y1="11.714401" x2="10.0904" y2="0.99801207" gradientUnits="userSpaceOnUse" gradientTransform="matrix(2.2166179,0,0,2.0917609,0.130786,2.3623591)"/>
  </defs>
  <g id="layer1" inkscape:label="Layer 1" inkscape:groupmode="layer">
    <path sodipodi:type="arc" style="opacity:0.19565217;fill:url(#radialGradient6963);fill-opacity:1;stroke:none;stroke-width:1;stroke-linecap:round;stroke-linejoin:miter;stroke-miterlimit:4;stroke-dasharray:none;stroke-dashoffset:0;stroke-opacity:1" id="path6955" sodipodi:cx="6.8356547" sodipodi:cy="18.211184" sodipodi:rx="6.3620529" sodipodi:ry="2.936332" d="M 13.197708 18.211184 A 6.3620529 2.936332 0 1 1  0.47360182,18.211184 A 6.3620529 2.936332 0 1 1  13.197708 18.211184 z" transform="matrix(2.2791386,0,0,0.8514024,9.9205951,28.994954)"/>
    <path style="fill:none;fill-rule:evenodd;stroke:url(#linearGradient6874);stroke-width:3.00000048;stroke-linecap:round;stroke-linejoin:miter;stroke-miterlimit:4;stroke-dasharray:none;stroke-opacity:1" d="M 14.551581,30.640241 L 14.551581,13.012035 C 14.551581,13.012035 13.979438,5.5000004 24.45582,5.5000004 C 34.932199,5.5000004 34.511309,13.012035 34.511309,13.012035 L 34.511309,35.920972 C 34.511309,35.920972 29.546585,44.277726 26.048595,44.277726 C 22.649562,44.277726 18.568893,35.982838 18.568893,35.982838 L 18.568893,20.174173 C 18.568893,20.174173 18.355296,15.553627 23.742664,15.553627 C 29.031083,15.553627 28.490056,19.01178 28.490056,19.01178 L 28.490056,28.623612" id="path4915" sodipodi:nodetypes="cczczzcczcc"/>
    <path style="fill:none;fill-rule:evenodd;stroke:url(#linearGradient7003);stroke-width:0.99999988;stroke-linecap:round;stroke-linejoin:miter;stroke-miterlimit:4;stroke-dasharray:none;stroke-opacity:1" d="M 14.546033,30.674974 L 14.546033,13.334498 C 14.546033,13.334498 14.134289,5.2825298 24.559302,5.5351175 C 34.921169,5.7877052 34.513635,13.334498 34.513635,13.334498 L 34.513635,35.964284 C 34.513635,35.964284 29.997778,44.286498 26.361181,44.286498 C 22.823602,44.286498 18.583114,36.029753 18.583114,36.029753 L 18.583114,20.413723 C 18.583114,20.413723 18.919779,15.498036 23.828033,15.561548 C 28.799972,15.625058 28.506662,19.315871 28.506662,19.315871 L 28.506662,28.45909" id="path5904" sodipodi:nodetypes="cczcczcczcc"/>
    <path style="opacity:0.58695649;fill:none;fill-rule:evenodd;stroke:#ffffff;stroke-width:0.99999982px;stroke-linecap:round;stroke-linejoin:miter;stroke-opacity:1" d="M 34.475963,14.117229 L 34.475963,28.680905" id="path5909"/>
    <path style="opacity:0.58695649;fill:none;fill-rule:evenodd;stroke:#ffffff;stroke-width:1px;stroke-linecap:round;stroke-linejoin:miter;stroke-opacity:1" d="M 18.499999,24.352423 L 18.499999,35.096121" id="path5911"/>
    <path sodipodi:type="arc" style="opacity:0.58695649;fill:#ffffff;fill-opacity:1;stroke:none;stroke-width:1;stroke-linecap:round;stroke-linejoin:miter;stroke-miterlimit:4;stroke-dasharray:none;stroke-dashoffset:0;stroke-opacity:1" id="path5913" sodipodi:cx="16.766684" sodipodi:cy="14.989696" sodipodi:rx="1.7190874" sodipodi:ry="1.4288518" d="M 18.485771 14.989696 A 1.7190874 1.4288518 0 1 1  15.047596,14.989696 A 1.7190874 1.4288518 0 1 1  18.485771 14.989696 z" transform="matrix(0.2908521,0,0,0.3499312,29.623374,20.254638)"/>
    <path sodipodi:type="arc" style="opacity:0.58695649;fill:#ffffff;fill-opacity:1;stroke:none;stroke-width:1;stroke-linecap:round;stroke-linejoin:miter;stroke-miterlimit:4;stroke-dasharray:none;stroke-dashoffset:0;stroke-opacity:1" id="path5915" sodipodi:cx="16.766684" sodipodi:cy="14.989696" sodipodi:rx="1.7190874" sodipodi:ry="1.4288518" d="M 18.485771 14.989696 A 1.7190874 1.4288518 0 1 1  15.047596,14.989696 A 1.7190874 1.4288518 0 1 1  18.485771 14.989696 z" transform="matrix(0.290852,0,0,0.3499314,13.623376,22.254635)"/>
  </g>
</svg>
