<?xml version="1.0" encoding="UTF-8" standalone="no"?>
<!-- Created with Inkscape (http://www.inkscape.org/) -->
<svg xmlns:dc="http://purl.org/dc/elements/1.1/" xmlns:cc="http://web.resource.org/cc/" xmlns:rdf="http://www.w3.org/1999/02/22-rdf-syntax-ns#" xmlns:svg="http://www.w3.org/2000/svg" xmlns="http://www.w3.org/2000/svg" xmlns:xlink="http://www.w3.org/1999/xlink" xmlns:sodipodi="http://sodipodi.sourceforge.net/DTD/sodipodi-0.dtd" xmlns:inkscape="http://www.inkscape.org/namespaces/inkscape" id="svg1" sodipodi:version="0.32" inkscape:version="0.44" width="32.000000px" height="32.000000px" sodipodi:docbase="/home/lapo/Icone/cvs/gnome-icon-theme/scalable/emblems" sodipodi:docname="emblem-generic.svg" inkscape:output_extension="org.inkscape.output.svg.inkscape">
  <defs id="defs3">
    <linearGradient id="linearGradient2440">
      <stop id="stop2442" offset="0.0000000" style="stop-color:#93c77d;stop-opacity:1.0000000;"/>
      <stop id="stop2444" offset="1.0000000" style="stop-color:#467432;stop-opacity:1.0000000;"/>
    </linearGradient>
    <linearGradient gradientUnits="userSpaceOnUse" y2="48.878231" x2="42.862282" y1="12.346894" x1="15.128270" id="linearGradient2448" xlink:href="#linearGradient2440" inkscape:collect="always"/>
  </defs>
  <path sodipodi:type="arc" style="fill:#000000;fill-opacity:0.098039217;fill-rule:evenodd;stroke:none;stroke-width:2.5000000;stroke-linecap:butt;stroke-linejoin:miter;stroke-miterlimit:4.0000000;stroke-opacity:1.0000000" id="path2157" sodipodi:cx="29.392656" sodipodi:cy="29.207693" sodipodi:rx="29.010935" sodipodi:ry="29.010935" d="M 58.403591 29.207693 A 29.010935 29.010935 0 1 1  0.38172150,29.207693 A 29.010935 29.010935 0 1 1  58.403591 29.207693 z" transform="matrix(0.474879,0.000000,0.000000,0.474879,3.122290,3.180454)"/>
  <path sodipodi:type="arc" style="fill:#000000;fill-opacity:0.098039217;fill-rule:evenodd;stroke:none;stroke-width:2.5000000;stroke-linecap:butt;stroke-linejoin:miter;stroke-miterlimit:4.0000000;stroke-opacity:1.0000000" id="path2156" sodipodi:cx="29.392656" sodipodi:cy="29.207693" sodipodi:rx="29.010935" sodipodi:ry="29.010935" d="M 58.403591 29.207693 A 29.010935 29.010935 0 1 1  0.38172150,29.207693 A 29.010935 29.010935 0 1 1  58.403591 29.207693 z" transform="matrix(0.474879,0.000000,0.000000,0.474879,2.512690,2.745024)"/>
  <path sodipodi:type="arc" style="fill:#000000;fill-opacity:0.098039217;fill-rule:evenodd;stroke:none;stroke-width:2.5000000;stroke-linecap:butt;stroke-linejoin:miter;stroke-miterlimit:4.0000000;stroke-opacity:1.0000000" id="path2155" sodipodi:cx="29.392656" sodipodi:cy="29.207693" sodipodi:rx="29.010935" sodipodi:ry="29.010935" d="M 58.403591 29.207693 A 29.010935 29.010935 0 1 1  0.38172150,29.207693 A 29.010935 29.010935 0 1 1  58.403591 29.207693 z" transform="matrix(0.474879,0.000000,0.000000,0.474879,1.990170,2.396674)"/>
  <path sodipodi:type="arc" style="fill:#58913f;fill-opacity:1.0000000;fill-rule:evenodd;stroke:#5b2219;stroke-width:2.1745276;stroke-linecap:butt;stroke-linejoin:miter;stroke-miterlimit:4.0000000;stroke-opacity:1.0000000;stroke-dasharray:none" id="path907" sodipodi:cx="29.392656" sodipodi:cy="29.207693" sodipodi:rx="29.010935" sodipodi:ry="29.010935" d="M 58.403591 29.207693 A 29.010935 29.010935 0 1 1  0.38172150,29.207693 A 29.010935 29.010935 0 1 1  58.403591 29.207693 z" transform="matrix(0.459870,0.000000,0.000000,0.459870,1.891210,2.169424)"/>
  <path sodipodi:type="arc" style="fill:#ffffff;fill-opacity:1.0000000;fill-rule:evenodd;stroke:none;stroke-width:1.0000000pt;stroke-linecap:butt;stroke-linejoin:miter;stroke-opacity:1.0000000" id="path2159" sodipodi:cx="31.760445" sodipodi:cy="29.319231" sodipodi:rx="18.624397" sodipodi:ry="18.624397" d="M 50.384842 29.319231 A 18.624397 18.624397 0 1 1  13.136047,29.319231 A 18.624397 18.624397 0 1 1  50.384842 29.319231 z" transform="matrix(0.479814,0.000000,0.000000,0.479814,0.184440,1.344164)"/>
  <path sodipodi:type="arc" style="stroke-dasharray:none;stroke-opacity:1.0000000;stroke-dashoffset:0.0000000;stroke-miterlimit:4.0000000;stroke-linejoin:round;stroke-linecap:round;stroke-width:2.4093129;stroke:url(#linearGradient2448);fill-rule:evenodd;fill-opacity:1.0000000;fill:none" id="path1552" sodipodi:cx="29.774380" sodipodi:cy="30.352861" sodipodi:rx="24.175779" sodipodi:ry="24.175779" d="M 53.950159 30.352861 A 24.175779 24.175779 0 1 1  5.5986004,30.352861 A 24.175779 24.175779 0 1 1  53.950159 30.352861 z" transform="matrix(0.510519,0.000000,0.000000,0.510519,0.315780,0.161334)"/>
  <path id="text2450" d="M 21.592407,13.389521 L 17.481425,15.544674 L 21.592407,17.712281 L 20.645634,19.468793 L 16.509738,17.176609 L 16.509738,21.461996 L 14.367043,21.461996 L 14.367043,17.176609 L 10.243602,19.468793 L 9.2968328,17.712281 L 13.432729,15.544674 L 9.2968328,13.389521 L 10.243602,11.633012 L 14.367043,13.900281 L 14.367043,9.6148922 L 16.509738,9.6148922 L 16.509738,13.900281 L 20.645634,11.633012 L 21.592407,13.389521" style="font-size:12.000000;font-style:normal;font-variant:normal;font-weight:bold;font-stretch:normal;line-height:100.00000%;writing-mode:lr-tb;text-anchor:start;fill:#58913f;fill-opacity:1.0000000;stroke:#58913f;stroke-width:0.99999976px;stroke-linecap:round;stroke-linejoin:round;stroke-opacity:1.0000000;font-family:Bitstream Vera Sans Mono"/>
</svg>
