<?xml version="1.0" encoding="UTF-8" standalone="no"?>
<!-- Created with Inkscape (http://www.inkscape.org/) -->
<svg xmlns:dc="http://purl.org/dc/elements/1.1/" xmlns:cc="http://web.resource.org/cc/" xmlns:rdf="http://www.w3.org/1999/02/22-rdf-syntax-ns#" xmlns:svg="http://www.w3.org/2000/svg" xmlns="http://www.w3.org/2000/svg" xmlns:xlink="http://www.w3.org/1999/xlink" xmlns:sodipodi="http://sodipodi.sourceforge.net/DTD/sodipodi-0.dtd" xmlns:inkscape="http://www.inkscape.org/namespaces/inkscape" width="48" height="48" id="svg2" sodipodi:version="0.32" inkscape:version="0.44" version="1.0" sodipodi:docbase="/home/lapo/Desktop/sort/scalable" sodipodi:docname="sort-ascending.svg" inkscape:export-filename="/home/lapo/Desktop/Icona 48x48.png" inkscape:export-xdpi="90" inkscape:export-ydpi="90">
  <defs id="defs4">
    <linearGradient inkscape:collect="always" id="linearGradient3421">
      <stop style="stop-color:black;stop-opacity:1;" offset="0" id="stop3423"/>
      <stop style="stop-color:black;stop-opacity:0;" offset="1" id="stop3425"/>
    </linearGradient>
    <linearGradient inkscape:collect="always" id="linearGradient3159">
      <stop style="stop-color:white;stop-opacity:1;" offset="0" id="stop3161"/>
      <stop style="stop-color:white;stop-opacity:0;" offset="1" id="stop3163"/>
    </linearGradient>
    <linearGradient id="linearGradient3151">
      <stop id="stop3153" offset="0" style="stop-color:white;stop-opacity:1"/>
      <stop style="stop-color:#8ae234;stop-opacity:1;" offset="0.5" id="stop3155"/>
      <stop id="stop3157" offset="1" style="stop-color:#73d216;stop-opacity:1"/>
    </linearGradient>
    <linearGradient id="linearGradient3091">
      <stop style="stop-color:#eeeeec;stop-opacity:1" offset="0" id="stop3093"/>
      <stop id="stop3099" offset="0.5" style="stop-color:#e0e2dd;stop-opacity:1;"/>
      <stop style="stop-color:#eeeeec;stop-opacity:0;" offset="1" id="stop3095"/>
    </linearGradient>
    <linearGradient inkscape:collect="always" id="linearGradient3083">
      <stop style="stop-color:white;stop-opacity:1;" offset="0" id="stop3085"/>
      <stop style="stop-color:white;stop-opacity:0;" offset="1" id="stop3087"/>
    </linearGradient>
    <linearGradient inkscape:collect="always" id="linearGradient3831">
      <stop style="stop-color:black;stop-opacity:1;" offset="0" id="stop3833"/>
      <stop style="stop-color:black;stop-opacity:0;" offset="1" id="stop3835"/>
    </linearGradient>
    <linearGradient inkscape:collect="always" id="linearGradient2851">
      <stop style="stop-color:#888a85;stop-opacity:1;" offset="0" id="stop2853"/>
      <stop style="stop-color:#888a85;stop-opacity:0;" offset="1" id="stop2855"/>
    </linearGradient>
    <radialGradient inkscape:collect="always" xlink:href="#linearGradient3151" id="radialGradient3347" gradientUnits="userSpaceOnUse" gradientTransform="matrix(0.700022,0,0,0.633863,0.819259,1.117278)" cx="2.1628973" cy="2.3786261" fx="2.1628973" fy="2.3786261" r="2.3145763"/>
    <linearGradient inkscape:collect="always" xlink:href="#linearGradient3159" id="linearGradient3349" gradientUnits="userSpaceOnUse" x1="2.1291261" y1="1.5277346" x2="3.7071068" y2="7.7466836"/>
    <linearGradient inkscape:collect="always" xlink:href="#linearGradient3421" id="linearGradient1923" gradientUnits="userSpaceOnUse" gradientTransform="translate(-53,0)" x1="14.125" y1="6.125" x2="28.250938" y2="6.125"/>
    <linearGradient inkscape:collect="always" xlink:href="#linearGradient3421" id="linearGradient1947" gradientUnits="userSpaceOnUse" gradientTransform="translate(-3,0)" x1="14.125" y1="6.125" x2="28.250938" y2="6.125"/>
    <radialGradient inkscape:collect="always" xlink:href="#linearGradient3831" id="radialGradient1949" gradientUnits="userSpaceOnUse" gradientTransform="matrix(1,0,0,0.3125,0,13.40625)" cx="12" cy="19.5" fx="12" fy="19.5" r="8"/>
    <linearGradient inkscape:collect="always" xlink:href="#linearGradient3091" id="linearGradient1951" gradientUnits="userSpaceOnUse" gradientTransform="matrix(1.295112,1.292994,-1.295112,1.292994,24.82837,7.225528)" x1="9.9106054" y1="9.2537603" x2="2.2502754" y2="1.5934311"/>
    <linearGradient inkscape:collect="always" xlink:href="#linearGradient2851" id="linearGradient1953" gradientUnits="userSpaceOnUse" gradientTransform="matrix(1.295112,1.292994,-1.295112,1.292994,24.82837,7.225528)" x1="6.7207937" y1="7.385416" x2="0.55194509" y2="1.2165676"/>
    <linearGradient inkscape:collect="always" xlink:href="#linearGradient3083" id="linearGradient1955" gradientUnits="userSpaceOnUse" x1="24.375" y1="24.25" x2="24.375" y2="7.6019897"/>
    <radialGradient inkscape:collect="always" xlink:href="#linearGradient3151" id="radialGradient1957" gradientUnits="userSpaceOnUse" gradientTransform="matrix(0.700022,0,0,0.633863,0.819259,1.117278)" cx="2.1628973" cy="2.3786261" fx="2.1628973" fy="2.3786261" r="2.3145763"/>
    <linearGradient inkscape:collect="always" xlink:href="#linearGradient3159" id="linearGradient1959" gradientUnits="userSpaceOnUse" x1="2.1291261" y1="1.5277346" x2="3.7071068" y2="7.7466836"/>
    <linearGradient inkscape:collect="always" xlink:href="#linearGradient3091" id="linearGradient1974" gradientUnits="userSpaceOnUse" gradientTransform="matrix(1.295112,-1.292994,-1.295112,-1.292994,29.82837,35.77445)" x1="9.9106054" y1="9.2537603" x2="2.2502754" y2="1.5934311"/>
    <linearGradient inkscape:collect="always" xlink:href="#linearGradient2851" id="linearGradient1976" gradientUnits="userSpaceOnUse" gradientTransform="matrix(1.295112,-1.292994,-1.295112,-1.292994,29.82837,35.77445)" x1="6.7207937" y1="7.385416" x2="0.55194509" y2="1.2165676"/>
    <linearGradient inkscape:collect="always" xlink:href="#linearGradient3083" id="linearGradient1978" gradientUnits="userSpaceOnUse" x1="24.375" y1="24.25" x2="24.375" y2="7.6019897"/>
    <radialGradient inkscape:collect="always" xlink:href="#linearGradient3831" id="radialGradient1980" gradientUnits="userSpaceOnUse" gradientTransform="matrix(1,0,0,0.3125,0,13.40625)" cx="12" cy="19.5" fx="12" fy="19.5" r="8"/>
  </defs>
  <g inkscape:label="Livello 1" inkscape:groupmode="layer" id="layer1" style="display:inline">
    <g id="g2868" transform="translate(50,0)">
      <path id="rect3167" d="M -38.5,5 C -39.331,5 -40,5.669 -40,6.5 C -40,7.331 -39.331,8 -38.5,8 L -36.5,8 C -35.669,8 -35,7.331 -35,6.5 C -35,5.669 -35.669,5 -36.5,5 L -38.5,5 z M -32.5,5 C -33.331,5 -34,5.669 -34,6.5 C -34,7.331 -33.331,8 -32.5,8 L -31.5,8 C -30.669,8 -30,7.331 -30,6.5 C -30,5.669 -30.669,5 -31.5,5 L -32.5,5 z M -27.5,5 C -28.331,5 -29,5.669 -29,6.5 C -29,7.331 -28.331,8 -27.5,8 L -14.5,8 C -13.669,8 -13,7.331 -13,6.5 C -13,5.669 -13.669,5 -14.5,5 L -27.5,5 z M -38.5,16 C -39.331,16 -40,16.669 -40,17.5 C -40,18.331 -39.331,19 -38.5,19 C -37.669,19 -37,18.331 -37,17.5 C -37,16.669 -37.669,16 -38.5,16 z M -34.5,16 C -35.331,16 -36,16.669 -36,17.5 C -36,18.331 -35.331,19 -34.5,19 L -29.5,19 C -28.669,19 -28,18.331 -28,17.5 C -28,16.669 -28.669,16 -29.5,16 L -34.5,16 z M -25.5,16 C -26.331,16 -27,16.669 -27,17.5 C -27,18.331 -26.331,19 -25.5,19 L -20.5,19 C -19.669,19 -19,18.331 -19,17.5 C -19,16.669 -19.669,16 -20.5,16 L -25.5,16 z M -38.5,27 C -39.331,27 -40,27.669 -40,28.5 C -40,29.331 -39.331,30 -38.5,30 C -37.669,30 -37,29.331 -37,28.5 C -37,27.669 -37.669,27 -38.5,27 z M -34.5,27 C -35.331,27 -36,27.669 -36,28.5 C -36,29.331 -35.331,30 -34.5,30 C -33.669,30 -33,29.331 -33,28.5 C -33,27.669 -33.669,27 -34.5,27 z M -30.5,27 C -31.331,27 -32,27.669 -32,28.5 C -32,29.331 -31.331,30 -30.5,30 L -26.5,30 C -25.669,30 -25,29.331 -25,28.5 C -25,27.669 -25.669,27 -26.5,27 L -30.5,27 z M -22.5,27 C -23.331,27 -24,27.669 -24,28.5 C -24,29.331 -23.331,30 -22.5,30 L -17.5,30 C -16.669,30 -16,29.331 -16,28.5 C -16,27.669 -16.669,27 -17.5,27 L -22.5,27 z M -38.5,38 C -39.331,38 -40,38.669 -40,39.5 C -40,40.331 -39.331,41 -38.5,41 C -37.669,41 -37,40.331 -37,39.5 C -37,38.669 -37.669,38 -38.5,38 z M -34.5,38 C -35.331,38 -36,38.669 -36,39.5 C -36,40.331 -35.331,41 -34.5,41 L -29.5,41 C -28.669,41 -28,40.331 -28,39.5 C -28,38.669 -28.669,38 -29.5,38 L -34.5,38 z M -25.5,38 C -26.331,38 -27,38.669 -27,39.5 C -27,40.331 -26.331,41 -25.5,41 L -20.5,41 C -19.669,41 -19,40.331 -19,39.5 C -19,38.669 -19.669,38 -20.5,38 L -25.5,38 z " style="opacity:0.2;fill:url(#linearGradient1923);fill-opacity:1;stroke:none;stroke-width:1.20000005;stroke-linecap:round;stroke-linejoin:round;stroke-miterlimit:4;stroke-dasharray:none;stroke-dashoffset:0;stroke-opacity:1"/>
      <path transform="matrix(1.977341,0,0,2.258045,-41.46526,-6.610336)" d="M 20 19.5 A 8 2.5 0 1 1  4,19.5 A 8 2.5 0 1 1  20 19.5 z" sodipodi:ry="2.5" sodipodi:rx="8" sodipodi:cy="19.5" sodipodi:cx="12" id="path2102" style="opacity:0.02999998;fill:url(#radialGradient1980);fill-opacity:1;stroke:none;stroke-width:2;stroke-linecap:round;stroke-linejoin:round;stroke-miterlimit:4;stroke-dasharray:none;stroke-dashoffset:0;stroke-opacity:1;display:inline" sodipodi:type="arc"/>
      <g transform="translate(-50,3)" id="g1970">
        <path style="fill:url(#linearGradient1974);fill-opacity:1;fill-rule:evenodd;stroke:url(#linearGradient1976);stroke-width:1.00000024px;stroke-linecap:butt;stroke-linejoin:miter;stroke-opacity:1;display:inline" d="M 34.342191,37.499975 L 30.679061,37.499975 L 27.931714,16.47142 L 21.521236,16.47142 L 32.510626,5.499999 L 43.500017,16.47142 L 37.089539,16.47142 L 34.342191,37.499975 z " id="path2104" sodipodi:nodetypes="cccccccc" inkscape:transform-center-x="-0.030763634" inkscape:transform-center-y="5.1801177"/>
        <path sodipodi:type="inkscape:offset" inkscape:radius="-0.9959709" inkscape:original="M 25.6875 5.5 L 22.9375 26.53125 L 16.53125 26.53125 L 27.5 37.5 L 38.5 26.53125 L 32.09375 26.53125 L 29.34375 5.5 L 25.6875 5.5 z " style="fill:none;fill-opacity:1;fill-rule:evenodd;stroke:url(#linearGradient1978);stroke-width:1.00000024px;stroke-linecap:butt;stroke-linejoin:miter;stroke-opacity:1;display:inline" id="path2190" d="M 26.5625,6.5 L 23.9375,26.65625 C 23.875831,27.160123 23.4451,27.537012 22.9375,27.53125 L 18.96875,27.53125 L 27.5,36.0625 L 36.0625,27.53125 L 32.09375,27.53125 C 31.58615,27.537012 31.155419,27.160123 31.09375,26.65625 L 28.46875,6.5 L 26.5625,6.5 z " transform="matrix(1,0,0,-1,5,42.99997)"/>
      </g>
      <g transform="translate(-52,-11)" id="g3119" style="display:inline">
        <path sodipodi:type="arc" style="fill:url(#radialGradient3347);fill-opacity:1;stroke:#4e9a06;stroke-width:0.62915254;stroke-linecap:round;stroke-linejoin:round;stroke-miterlimit:4;stroke-dasharray:none;stroke-dashoffset:0;stroke-opacity:1" id="path3121" sodipodi:cx="3" sodipodi:cy="3.21875" sodipodi:rx="2" sodipodi:ry="1.78125" d="M 5 3.21875 A 2 1.78125 0 1 1  1,3.21875 A 2 1.78125 0 1 1  5 3.21875 z" transform="matrix(1.5,0,0,1.684211,3,12.07895)"/>
        <path sodipodi:type="arc" style="opacity:0.8;fill:none;fill-opacity:1;stroke:url(#linearGradient3349);stroke-width:0.94372869;stroke-linecap:round;stroke-linejoin:round;stroke-miterlimit:4;stroke-dasharray:none;stroke-dashoffset:0;stroke-opacity:1;display:inline" id="path3123" sodipodi:cx="3" sodipodi:cy="3.21875" sodipodi:rx="2" sodipodi:ry="1.78125" d="M 5 3.21875 A 2 1.78125 0 1 1  1,3.21875 A 2 1.78125 0 1 1  5 3.21875 z" transform="matrix(1,0,0,1.122807,4.5,13.88597)"/>
      </g>
      <use height="48" width="48" transform="translate(0,11)" id="use3143" xlink:href="#g3119" y="0" x="0"/>
      <use height="48" width="48" transform="translate(0,22)" id="use3145" xlink:href="#g3119" y="0" x="0"/>
      <use height="48" width="48" transform="translate(0,33)" id="use3147" xlink:href="#g3119" y="0" x="0"/>
    </g>
  </g>
  <g inkscape:groupmode="layer" id="layer2" inkscape:label="frame" style="display:none">
    <rect style="opacity:0;fill:#eeeeec;fill-opacity:1;stroke:none;stroke-width:1;stroke-linecap:round;stroke-linejoin:round;stroke-miterlimit:4;stroke-dasharray:none;stroke-dashoffset:0;stroke-opacity:1" id="rect4038" width="200" height="72" x="-135" y="-11" inkscape:export-filename="/home/lapo/Desktop/order-stuff.png" inkscape:export-xdpi="90" inkscape:export-ydpi="90"/>
  </g>
</svg>
