<?xml version="1.0" encoding="UTF-8" standalone="no"?>
<!-- Created with Inkscape (http://www.inkscape.org/) -->
<svg xmlns:dc="http://purl.org/dc/elements/1.1/" xmlns:cc="http://web.resource.org/cc/" xmlns:rdf="http://www.w3.org/1999/02/22-rdf-syntax-ns#" xmlns:svg="http://www.w3.org/2000/svg" xmlns="http://www.w3.org/2000/svg" xmlns:xlink="http://www.w3.org/1999/xlink" xmlns:sodipodi="http://sodipodi.sourceforge.net/DTD/sodipodi-0.dtd" xmlns:inkscape="http://www.inkscape.org/namespaces/inkscape" inkscape:export-ydpi="240.00000" inkscape:export-xdpi="240.00000" inkscape:export-filename="/home/jimmac/gfx/novell/pdes/trunk/docs/BIGmime-text.png" sodipodi:docname="text-x-script.svg" sodipodi:docbase="/home/lapo/Icone/cvs/gnome-icon-theme/scalable/mimetypes" inkscape:version="0.44" sodipodi:version="0.32" id="svg249" height="48.000000px" width="48.000000px" inkscape:output_extension="org.inkscape.output.svg.inkscape">
  <defs id="defs3">
    <linearGradient inkscape:collect="always" id="linearGradient4790">
      <stop style="stop-color:#000000;stop-opacity:1;" offset="0" id="stop4792"/>
      <stop style="stop-color:#000000;stop-opacity:0;" offset="1" id="stop4794"/>
    </linearGradient>
    <linearGradient inkscape:collect="always" id="linearGradient2251">
      <stop style="stop-color:#ffffff;stop-opacity:1;" offset="0" id="stop2253"/>
      <stop style="stop-color:#ffffff;stop-opacity:0;" offset="1" id="stop2255"/>
    </linearGradient>
    <linearGradient inkscape:collect="always" xlink:href="#linearGradient2251" id="linearGradient8166" gradientUnits="userSpaceOnUse" gradientTransform="matrix(-3.277938e-2,-0.999463,0.999463,-3.277938e-2,-0.709646,45.06274)" x1="33.396004" y1="36.921333" x2="34.170048" y2="38.070381"/>
    <linearGradient id="linearGradient15662">
      <stop id="stop15664" offset="0.0000000" style="stop-color:#ffffff;stop-opacity:1.0000000;"/>
      <stop id="stop15666" offset="1.0000000" style="stop-color:#f8f8f8;stop-opacity:1.0000000;"/>
    </linearGradient>
    <linearGradient id="linearGradient269">
      <stop id="stop270" offset="0.0000000" style="stop-color:#a3a3a3;stop-opacity:1.0000000;"/>
      <stop id="stop271" offset="1" style="stop-color:#8a8a8a;stop-opacity:1;"/>
    </linearGradient>
    <linearGradient id="linearGradient259">
      <stop id="stop260" offset="0.0000000" style="stop-color:#fafafa;stop-opacity:1.0000000;"/>
      <stop id="stop261" offset="1.0000000" style="stop-color:#bbbbbb;stop-opacity:1.0000000;"/>
    </linearGradient>
    <radialGradient inkscape:collect="always" xlink:href="#linearGradient269" id="radialGradient15656" gradientUnits="userSpaceOnUse" gradientTransform="matrix(0.968273,0.000000,0.000000,1.032767,3.353553,0.646447)" cx="8.8244190" cy="3.7561285" fx="8.8244190" fy="3.7561285" r="37.751713"/>
    <radialGradient inkscape:collect="always" xlink:href="#linearGradient259" id="radialGradient15658" gradientUnits="userSpaceOnUse" gradientTransform="scale(0.960493,1.041132)" cx="33.966679" cy="35.736916" fx="33.966679" fy="35.736916" r="86.708450"/>
    <radialGradient inkscape:collect="always" xlink:href="#linearGradient15662" id="radialGradient15668" gradientUnits="userSpaceOnUse" gradientTransform="matrix(0.968273,0.000000,0.000000,1.032767,3.353553,0.646447)" cx="8.1435566" cy="7.2678967" fx="8.1435566" fy="7.2678967" r="38.158695"/>
    <radialGradient inkscape:collect="always" xlink:href="#linearGradient269" id="radialGradient5350" gradientUnits="userSpaceOnUse" gradientTransform="matrix(0.331735,-2.3449e-17,2.501087e-17,0.353831,20.10526,9.5823)" cx="31.863327" cy="2.3667307" fx="31.863327" fy="2.3667307" r="37.751713"/>
    <radialGradient inkscape:collect="always" xlink:href="#linearGradient259" id="radialGradient5352" gradientUnits="userSpaceOnUse" gradientTransform="matrix(0.148355,1.009137e-2,-1.104438e-2,0.162365,25.06011,12.81706)" cx="30.653816" cy="14.9373" fx="30.653816" fy="14.9373" r="86.708450"/>
    <radialGradient inkscape:collect="always" xlink:href="#linearGradient4790" id="radialGradient4796" cx="37.030354" cy="12.98915" fx="37.030354" fy="12.98915" r="4.2929165" gradientTransform="matrix(1.744653,2.313551e-22,-1.663e-22,1.283833,-26.58256,-3.478359)" gradientUnits="userSpaceOnUse"/>
    <radialGradient inkscape:collect="always" xlink:href="#linearGradient2300" id="radialGradient2308" gradientTransform="matrix(1.399258,-2.234445e-7,8.196178e-8,0.513264,4.365074,4.839285)" cx="14.287618" cy="68.872971" fx="14.287618" fy="72.568001" r="11.689870" gradientUnits="userSpaceOnUse"/>
    <linearGradient gradientTransform="matrix(0.200685,0,0,0.200685,-0.585758,-1.050787)" y2="248.6311" x2="153.0005" y1="15.4238" x1="99.7773" gradientUnits="userSpaceOnUse" id="linearGradient53551" xlink:href="#aigrd1" inkscape:collect="always"/>
    <linearGradient y2="248.6311" x2="153.0005" y1="15.4238" x1="99.7773" gradientUnits="userSpaceOnUse" id="aigrd1">
      <stop id="stop53300" style="stop-color:#184375" offset="0"/>
      <stop id="stop53302" style="stop-color:#C8BDDC" offset="1"/>
    </linearGradient>
    <linearGradient id="linearGradient2300">
      <stop style="stop-color:#000000;stop-opacity:0.32673267;" offset="0.0000000" id="stop2302"/>
      <stop style="stop-color:#000000;stop-opacity:0;" offset="1" id="stop2304"/>
    </linearGradient>
    <linearGradient id="linearGradient3702">
      <stop style="stop-color:black;stop-opacity:0;" offset="0" id="stop3704"/>
      <stop id="stop3710" offset="0.5" style="stop-color:black;stop-opacity:1;"/>
      <stop style="stop-color:black;stop-opacity:0;" offset="1" id="stop3706"/>
    </linearGradient>
    <linearGradient inkscape:collect="always" id="linearGradient3688">
      <stop style="stop-color:black;stop-opacity:1;" offset="0" id="stop3690"/>
      <stop style="stop-color:black;stop-opacity:0;" offset="1" id="stop3692"/>
    </linearGradient>
    <radialGradient inkscape:collect="always" xlink:href="#linearGradient3688" id="radialGradient2075" gradientUnits="userSpaceOnUse" gradientTransform="matrix(2.003784,0,0,1.4,27.98813,-17.4)" cx="4.9929786" cy="43.5" fx="4.9929786" fy="43.5" r="2.5"/>
    <radialGradient inkscape:collect="always" xlink:href="#linearGradient3688" id="radialGradient2077" gradientUnits="userSpaceOnUse" gradientTransform="matrix(2.003784,0,0,1.4,-20.01187,-104.4)" cx="4.9929786" cy="43.5" fx="4.9929786" fy="43.5" r="2.5"/>
    <linearGradient inkscape:collect="always" xlink:href="#linearGradient3702" id="linearGradient2079" gradientUnits="userSpaceOnUse" x1="25.058096" y1="47.027729" x2="25.058096" y2="39.999443"/>
  </defs>
  <g inkscape:groupmode="layer" id="layer6" inkscape:label="Shadow">
    <g id="g2025" inkscape:label="Shadow" transform="translate(-2e-6,2.838692e-5)">
      <g style="display:inline" id="g2036" inkscape:label="Shadow">
        <g id="g3712" style="opacity:0.4" transform="matrix(1.052632,0,0,1.285713,-1.263158,-13.42854)">
          <rect y="40" x="38" height="7" width="5" id="rect2801" style="opacity:1;fill:url(#radialGradient2075);fill-opacity:1;stroke:none;stroke-width:1;stroke-linecap:round;stroke-linejoin:miter;stroke-miterlimit:4;stroke-dasharray:none;stroke-opacity:1"/>
          <rect transform="scale(-1,-1)" y="-47" x="-10" height="7" width="5" id="rect3696" style="opacity:1;fill:url(#radialGradient2077);fill-opacity:1;stroke:none;stroke-width:1;stroke-linecap:round;stroke-linejoin:miter;stroke-miterlimit:4;stroke-dasharray:none;stroke-opacity:1"/>
          <rect y="40" x="10" height="7.0000005" width="28" id="rect3700" style="opacity:1;fill:url(#linearGradient2079);fill-opacity:1;stroke:none;stroke-width:1;stroke-linecap:round;stroke-linejoin:miter;stroke-miterlimit:4;stroke-dasharray:none;stroke-opacity:1"/>
        </g>
      </g>
    </g>
  </g>
  <g style="display:inline" inkscape:groupmode="layer" inkscape:label="Base" id="layer1">
    <path style="color:#000000;fill:url(#radialGradient15658);fill-opacity:1;fill-rule:nonzero;stroke:url(#radialGradient15656);stroke-width:1;stroke-linecap:round;stroke-linejoin:round;stroke-miterlimit:4;stroke-dashoffset:0;stroke-opacity:1;marker:none;marker-start:none;marker-mid:none;marker-end:none;visibility:visible;display:block;overflow:visible" d="M 7.7526014,3.6464462 L 31.199616,3.6308212 C 31.199616,3.6308212 41.478553,13.174533 41.478553,13.811106 L 41.478553,43.417892 C 41.478553,44.054465 40.966077,44.56694 40.329504,44.56694 L 7.7526014,44.56694 C 7.1160285,44.56694 6.6035528,44.054465 6.6035528,43.417892 L 6.6035528,4.7954948 C 6.6035528,4.1589219 7.1160285,3.6464462 7.7526014,3.6464462 z " id="rect15391" sodipodi:nodetypes="ccccccccc"/>
    <path style="color:#000000;fill:none;fill-opacity:1;fill-rule:nonzero;stroke:url(#radialGradient15668);stroke-width:1;stroke-linecap:round;stroke-linejoin:round;stroke-miterlimit:4;stroke-dashoffset:0;stroke-opacity:1;marker:none;marker-start:none;marker-mid:none;marker-end:none;visibility:visible;display:block;overflow:visible" d="M 7.8151023,4.5839462 L 32.691494,4.5839462 C 32.691494,4.5839462 40.44194,12.605373 40.44194,12.687946 L 40.44194,43.381282 C 40.44194,43.463855 40.375465,43.530331 40.292892,43.530331 L 7.8151023,43.530331 C 7.7325294,43.530331 7.6660538,43.463855 7.6660538,43.381282 L 7.6660538,4.7329948 C 7.6660538,4.6504219 7.7325294,4.5839462 7.8151023,4.5839462 z " id="rect15660" sodipodi:nodetypes="ccccccccc"/>
  </g>
  <g inkscape:groupmode="layer" id="layer5" inkscape:label="Text" style="display:inline">
    <path inkscape:r_cy="true" inkscape:r_cx="true" style="opacity:0.35714285;color:#000000;fill:url(#radialGradient4796);fill-opacity:1;fill-rule:evenodd;stroke:none;stroke-width:1.00000024;stroke-linecap:butt;stroke-linejoin:miter;marker:none;marker-start:none;marker-mid:none;marker-end:none;stroke-miterlimit:4;stroke-dasharray:none;stroke-dashoffset:0;stroke-opacity:1;visibility:visible;display:inline;overflow:visible" d="M 40.985189,13.861445 C 40.256827,12.514817 34.882221,10.130934 32.084635,9.3314083 C 32.254143,10.904354 31.961856,15.649439 31.961856,15.649439 C 34.024356,14.274439 40.204485,13.699331 40.985189,13.861445 z " id="path5348" sodipodi:nodetypes="cccc"/>
    <path style="color:#000000;fill:url(#radialGradient5352);fill-opacity:1;fill-rule:nonzero;stroke:url(#radialGradient5350);stroke-width:1;stroke-linecap:butt;stroke-linejoin:round;marker:none;marker-start:none;marker-mid:none;marker-end:none;stroke-miterlimit:4;stroke-dasharray:none;stroke-dashoffset:0;stroke-opacity:1;visibility:visible;display:block;overflow:visible;opacity:1" d="M 41.410559,13.739267 C 41.423724,12.324125 35.058025,3.5320142 31.175441,3.6354934 C 32.148479,3.8684884 32.925796,9.803523 31.536076,12.616023 C 34.286076,12.616023 40.446694,11.881093 41.410559,13.739267 z " id="path2210" sodipodi:nodetypes="cccc" inkscape:r_cx="true" inkscape:r_cy="true"/>
    <path sodipodi:nodetypes="cccc" id="path2247" d="M 39.121563,11.586207 C 38.393201,10.239579 34.963027,6.5166576 33.040441,5.2796316 C 33.279381,6.7054805 33.577496,8.9620596 32.961856,11.524439 C 32.961856,11.524439 38.340859,11.424093 39.121563,11.586207 z " style="opacity:1;color:#000000;fill:none;fill-opacity:1;fill-rule:evenodd;stroke:url(#linearGradient8166);stroke-width:1.00000024;stroke-linecap:butt;stroke-linejoin:miter;marker:none;marker-start:none;marker-mid:none;marker-end:none;stroke-miterlimit:4;stroke-dasharray:none;stroke-dashoffset:0;stroke-opacity:1;visibility:visible;display:inline;overflow:visible" inkscape:r_cx="true" inkscape:r_cy="true"/>
    <g id="g3737" transform="matrix(0.482043,0,0,0.482043,12.25886,14.32969)" inkscape:r_cx="true" inkscape:r_cy="true">
      <g id="layer2" inkscape:label="shadow" inkscape:r_cx="true" inkscape:r_cy="true">
        <path sodipodi:type="arc" style="color:#000000;fill:url(#radialGradient2308);fill-opacity:1;fill-rule:evenodd;stroke:none;stroke-width:0.50000042;stroke-linecap:round;stroke-linejoin:miter;marker:none;marker-start:none;marker-mid:none;marker-end:none;stroke-miterlimit:4;stroke-dashoffset:0;stroke-opacity:1;visibility:visible;display:inline;overflow:visible" id="path1538" sodipodi:cx="24.357143" sodipodi:cy="38.714287" sodipodi:rx="19.928572" sodipodi:ry="9.837245" d="M 44.285715 38.714287 A 19.928572 9.837245 0 1 1  4.4285717,38.714287 A 19.928572 9.837245 0 1 1  44.285715 38.714287 z" transform="matrix(1.18638,0,0,1.18638,-4.539687,-7.794678)" inkscape:r_cx="true" inkscape:r_cy="true"/>
      </g>
      <g inkscape:label="Layer 1" id="g3741" inkscape:r_cx="true" inkscape:r_cy="true">
        <path id="path53304" d="M 24.285801,43.196358 L 4.3751874,23.285744 L 24.285801,3.3751291 L 44.196415,23.285744 L 24.285801,43.196358 L 24.285801,43.196358 z " style="fill:url(#linearGradient53551);fill-rule:nonzero;stroke:#3f4561;stroke-width:2.07450533;stroke-linecap:round;stroke-linejoin:round;stroke-miterlimit:4;stroke-opacity:1" inkscape:r_cx="true" inkscape:r_cy="true"/>
        <path id="path53361" d="M 9.4758589,27.328534 L 10.214309,26.30435 C 10.851058,26.572842 11.514927,26.789419 12.200492,26.949235 L 12.19468,28.526093 C 12.622408,28.614428 13.05769,28.682229 13.498785,28.730464 L 13.980559,27.228575 C 14.3246,27.257052 14.672323,27.272742 15.02392,27.272742 C 15.375129,27.272742 15.723044,27.257245 16.067086,27.228575 L 16.548861,28.730464 C 16.990149,28.682229 17.425237,28.614428 17.852965,28.526093 L 17.84696,26.949042 C 18.532718,26.789419 19.196393,26.572842 19.833142,26.30435 L 20.755622,27.583852 C 21.157973,27.401758 21.549863,27.201261 21.930517,26.98333 L 21.4377,25.485314 C 22.03493,25.123064 22.599423,24.711995 23.125171,24.257342 L 24.397312,25.189121 C 24.72295,24.89254 25.034641,24.580849 25.331028,24.255211 L 24.399443,22.983264 C 24.85429,22.457516 25.265359,21.893217 25.627609,21.295599 L 27.125624,21.78861 C 27.343556,21.407762 27.544247,21.015678 27.725953,20.613522 L 26.446645,19.691235 C 26.715137,19.054486 26.931713,18.390617 27.091724,17.704859 L 28.668387,17.71067 C 28.756722,17.282943 28.824524,16.84766 28.872565,16.406372 L 27.37087,15.924598 C 27.399734,15.58075 27.415037,15.232834 27.415037,14.881431 C 27.415037,14.530028 27.399346,14.182306 27.37087,13.83807 L 28.872565,13.356296 C 28.824718,12.915202 28.756528,12.480113 28.668581,12.052192 L 27.09153,12.058197 C 26.931713,11.372438 26.715137,10.70857 26.446839,10.072016 L 27.726147,9.1497272 C 27.54444,8.7473759 27.343556,8.3554857 27.126012,7.9746374 L 25.627803,8.4676487 C 25.265552,7.8702243 24.854484,7.3059255 24.39983,6.7803715 L 25.331416,5.5082306 C 25.053044,5.2023512 24.760338,4.9102258 24.456008,4.6301108 L 5.6170135,23.4693 L 6.6239553,24.476242 L 6.9226671,24.257536 C 7.4484155,24.712189 8.0127136,25.123258 8.6101369,25.485508 L 8.3681843,26.220665 L 9.4762465,27.328727 L 9.4758589,27.328534 z " style="opacity:0.5;fill:#ffffff;fill-rule:nonzero;stroke:none;stroke-miterlimit:4" inkscape:r_cx="true" inkscape:r_cy="true"/>
        <path id="path53363" d="M 29.160172,31.396899 C 29.160172,25.546231 32.980104,20.588674 38.261173,18.879352 L 36.251934,16.869938 C 36.236728,16.876231 36.221349,16.881649 36.206318,16.888115 L 36.042551,16.660905 L 34.7686,15.386954 C 34.350708,15.584452 33.941554,15.796981 33.542188,16.025414 L 34.168415,17.92839 C 33.409357,18.388228 32.692595,18.910637 32.024947,19.488102 L 30.408955,18.304685 C 29.995084,18.681329 29.599388,19.077025 29.222918,19.490724 L 30.406159,21.106538 C 29.828696,21.774364 29.306461,22.491124 28.846448,23.250007 L 26.943298,22.62378 C 26.666626,23.107738 26.411801,23.605679 26.18092,24.116727 L 27.805998,25.288085 C 27.465008,26.096779 27.189909,26.940079 26.986993,27.811169 L 24.984045,27.803479 C 24.872013,28.346861 24.785673,28.899857 24.724676,29.460017 L 26.63237,30.072088 C 26.596016,30.509031 26.57644,30.950868 26.57644,31.397074 C 26.57644,31.843455 26.596016,32.285292 26.63237,32.722235 L 24.724676,33.33378 C 24.785673,33.894291 24.872013,34.447112 24.98422,34.990494 L 26.986993,34.982978 C 27.189909,35.854069 27.465008,36.697369 27.805998,37.506064 L 26.18092,38.677596 C 26.309381,38.961608 26.446057,39.241427 26.58885,39.51705 L 30.02095,36.085299 C 29.465159,34.628881 29.159998,33.048544 29.159998,31.397074 L 29.160172,31.396899 z " style="opacity:0.5;fill:#ffffff;fill-rule:nonzero;stroke:none;stroke-miterlimit:4" inkscape:r_cx="true" inkscape:r_cy="true"/>
        <path inkscape:r_cy="true" inkscape:r_cx="true" style="fill:none;fill-rule:nonzero;stroke:#ffffff;stroke-width:2.07450223;stroke-linecap:butt;stroke-linejoin:miter;stroke-miterlimit:4;stroke-dasharray:none;stroke-opacity:1;opacity:0.33516484" d="M 24.285783,40.445899 L 7.1256107,23.285727 L 24.285783,6.1255535 L 41.445955,23.285727 L 24.285783,40.445899 L 24.285783,40.445899 z " id="path3748"/>
      </g>
    </g>
  </g>
</svg>
