<?xml version="1.0" encoding="UTF-8" standalone="no"?>
<!-- Created with Inkscape (http://www.inkscape.org/) -->
<svg xmlns:dc="http://purl.org/dc/elements/1.1/" xmlns:cc="http://web.resource.org/cc/" xmlns:rdf="http://www.w3.org/1999/02/22-rdf-syntax-ns#" xmlns:svg="http://www.w3.org/2000/svg" xmlns="http://www.w3.org/2000/svg" xmlns:xlink="http://www.w3.org/1999/xlink" xmlns:sodipodi="http://sodipodi.sourceforge.net/DTD/sodipodi-0.dtd" xmlns:inkscape="http://www.inkscape.org/namespaces/inkscape" inkscape:export-ydpi="240.00000" inkscape:export-xdpi="240.00000" inkscape:export-filename="/home/jimmac/gfx/novell/pdes/trunk/docs/BIGmime-text.png" sodipodi:docname="video-x-generic.svg" sodipodi:docbase="/home/lapo/Icone/cvs/gnome-icon-theme/scalable/mimetypes" inkscape:version="0.44" sodipodi:version="0.32" id="svg249" height="48.000000px" width="48.000000px" inkscape:output_extension="org.inkscape.output.svg.inkscape">
  <defs id="defs3">
    <linearGradient id="linearGradient4614">
      <stop style="stop-color:#646464;stop-opacity:1;" offset="0" id="stop4616"/>
      <stop id="stop4626" offset="0.13919955" style="stop-color:#7f7f7f;stop-opacity:1;"/>
      <stop id="stop4622" offset="0.35263887" style="stop-color:#4c4c4c;stop-opacity:1;"/>
      <stop style="stop-color:#858585;stop-opacity:1;" offset="0.75" id="stop4624"/>
      <stop style="stop-color:#646464;stop-opacity:0;" offset="1" id="stop4618"/>
    </linearGradient>
    <linearGradient id="linearGradient4824">
      <stop style="stop-color:#464f52;stop-opacity:1;" offset="0" id="stop4826"/>
      <stop style="stop-color:#4d575b;stop-opacity:0;" offset="1" id="stop4828"/>
    </linearGradient>
    <linearGradient inkscape:collect="always" id="linearGradient4814">
      <stop style="stop-color:#242523;stop-opacity:1;" offset="0" id="stop4816"/>
      <stop style="stop-color:#242523;stop-opacity:0;" offset="1" id="stop4818"/>
    </linearGradient>
    <linearGradient inkscape:collect="always" id="linearGradient4806">
      <stop style="stop-color:#000000;stop-opacity:1;" offset="0" id="stop4808"/>
      <stop style="stop-color:#000000;stop-opacity:0;" offset="1" id="stop4810"/>
    </linearGradient>
    <radialGradient id="aigrd2" cx="13.5024" cy="12.3457" r="10.8808" fx="13.5024" fy="12.3457" gradientUnits="userSpaceOnUse">
      <stop offset="0" style="stop-color:#454545" id="stop6436"/>
      <stop offset="1" style="stop-color:#333333" id="stop6438"/>
    </radialGradient>
    <radialGradient id="aigrd3" cx="23.1567" cy="29.0337" r="26.966" fx="23.1567" fy="29.0337" gradientUnits="userSpaceOnUse">
      <stop offset="0" style="stop-color:#767676" id="stop6443"/>
      <stop offset="1" style="stop-color:#484848" id="stop6445"/>
    </radialGradient>
    <linearGradient id="aigrd6" gradientUnits="userSpaceOnUse" x1="-1.2432" y1="-3.2012" x2="26.5278" y2="28.3922">
      <stop offset="0" style="stop-color:#FFFFFF" id="stop6468"/>
      <stop offset="1" style="stop-color:#959595" id="stop6470"/>
    </linearGradient>
    <linearGradient inkscape:collect="always" id="linearGradient4790">
      <stop style="stop-color:#000000;stop-opacity:1;" offset="0" id="stop4792"/>
      <stop style="stop-color:#000000;stop-opacity:0;" offset="1" id="stop4794"/>
    </linearGradient>
    <linearGradient inkscape:collect="always" id="linearGradient2251">
      <stop style="stop-color:#ffffff;stop-opacity:1;" offset="0" id="stop2253"/>
      <stop style="stop-color:#ffffff;stop-opacity:0;" offset="1" id="stop2255"/>
    </linearGradient>
    <linearGradient inkscape:collect="always" xlink:href="#linearGradient2251" id="linearGradient8166" gradientUnits="userSpaceOnUse" gradientTransform="matrix(-3.277938e-2,-0.999463,0.999463,-3.277938e-2,-0.709646,45.06274)" x1="33.396004" y1="36.921333" x2="34.170048" y2="38.070381"/>
    <linearGradient id="linearGradient15662">
      <stop id="stop15664" offset="0.0000000" style="stop-color:#ffffff;stop-opacity:1.0000000;"/>
      <stop id="stop15666" offset="1.0000000" style="stop-color:#f8f8f8;stop-opacity:1.0000000;"/>
    </linearGradient>
    <linearGradient id="linearGradient269">
      <stop id="stop270" offset="0.0000000" style="stop-color:#a3a3a3;stop-opacity:1.0000000;"/>
      <stop id="stop271" offset="1" style="stop-color:#8a8a8a;stop-opacity:1;"/>
    </linearGradient>
    <linearGradient id="linearGradient259">
      <stop id="stop260" offset="0.0000000" style="stop-color:#fafafa;stop-opacity:1.0000000;"/>
      <stop id="stop261" offset="1.0000000" style="stop-color:#bbbbbb;stop-opacity:1.0000000;"/>
    </linearGradient>
    <radialGradient inkscape:collect="always" xlink:href="#linearGradient269" id="radialGradient15656" gradientUnits="userSpaceOnUse" gradientTransform="matrix(0.968273,0.000000,0.000000,1.032767,3.353553,0.646447)" cx="8.8244190" cy="3.7561285" fx="8.8244190" fy="3.7561285" r="37.751713"/>
    <radialGradient inkscape:collect="always" xlink:href="#linearGradient259" id="radialGradient15658" gradientUnits="userSpaceOnUse" gradientTransform="scale(0.960493,1.041132)" cx="33.966679" cy="35.736916" fx="33.966679" fy="35.736916" r="86.708450"/>
    <radialGradient inkscape:collect="always" xlink:href="#linearGradient15662" id="radialGradient15668" gradientUnits="userSpaceOnUse" gradientTransform="matrix(0.968273,0.000000,0.000000,1.032767,3.353553,0.646447)" cx="8.1435566" cy="7.2678967" fx="8.1435566" fy="7.2678967" r="38.158695"/>
    <radialGradient inkscape:collect="always" xlink:href="#linearGradient269" id="radialGradient5350" gradientUnits="userSpaceOnUse" gradientTransform="matrix(0.331735,-2.3449e-17,2.501087e-17,0.353831,20.10526,9.5823)" cx="31.863327" cy="2.3667307" fx="31.863327" fy="2.3667307" r="37.751713"/>
    <radialGradient inkscape:collect="always" xlink:href="#linearGradient259" id="radialGradient5352" gradientUnits="userSpaceOnUse" gradientTransform="matrix(0.148355,1.009137e-2,-1.104438e-2,0.162365,25.06011,12.81706)" cx="30.653816" cy="14.9373" fx="30.653816" fy="14.9373" r="86.708450"/>
    <radialGradient inkscape:collect="always" xlink:href="#linearGradient4790" id="radialGradient4796" cx="37.030354" cy="12.98915" fx="37.030354" fy="12.98915" r="4.2929165" gradientTransform="matrix(1.744653,2.313551e-22,-1.663e-22,1.283833,-26.58256,-3.478359)" gradientUnits="userSpaceOnUse"/>
    <linearGradient y2="248.6311" x2="153.0005" y1="15.4238" x1="99.7773" gradientUnits="userSpaceOnUse" id="aigrd1">
      <stop id="stop53300" style="stop-color:#707070;stop-opacity:1;" offset="0"/>
      <stop id="stop53302" style="stop-color:#cdcdcd;stop-opacity:1;" offset="1"/>
    </linearGradient>
    <linearGradient inkscape:collect="always" xlink:href="#aigrd6" id="linearGradient4682" gradientUnits="userSpaceOnUse" gradientTransform="matrix(1.09632,0,0,1.096314,11.40542,14.62779)" x1="-1.2432" y1="-3.2012" x2="26.5278" y2="28.3922"/>
    <radialGradient inkscape:collect="always" xlink:href="#aigrd3" id="radialGradient4686" gradientUnits="userSpaceOnUse" gradientTransform="matrix(1.101263,0,0,1.101263,11.3382,14.56062)" cx="23.1567" cy="29.0337" fx="23.1567" fy="29.0337" r="26.966"/>
    <radialGradient inkscape:collect="always" xlink:href="#aigrd2" id="radialGradient4689" gradientUnits="userSpaceOnUse" gradientTransform="matrix(1.101263,0,0,1.101263,11.3382,14.56062)" cx="13.5024" cy="12.3457" fx="13.5024" fy="12.3457" r="10.8808"/>
    <linearGradient inkscape:collect="always" xlink:href="#aigrd1" id="linearGradient4692" gradientUnits="userSpaceOnUse" gradientTransform="matrix(1.101263,0,0,1.101263,11.3382,14.56062)" x1="18.6235" y1="19.1899" x2="24.3907" y2="25.8145"/>
    <linearGradient inkscape:collect="always" xlink:href="#linearGradient4806" id="linearGradient4812" x1="-28.686302" y1="6.4574766" x2="-28.686302" y2="42.028126" gradientUnits="userSpaceOnUse"/>
    <linearGradient inkscape:collect="always" xlink:href="#linearGradient4814" id="linearGradient4820" x1="-17.195816" y1="7.3413601" x2="-17.195816" y2="40.223232" gradientUnits="userSpaceOnUse"/>
    <linearGradient inkscape:collect="always" xlink:href="#linearGradient4824" id="linearGradient4830" x1="12.4712" y1="33.306664" x2="12.4712" y2="40.02713" gradientUnits="userSpaceOnUse"/>
    <linearGradient inkscape:collect="always" xlink:href="#linearGradient4614" id="linearGradient4620" x1="16.437504" y1="8.9375" x2="16.437504" y2="40.9375" gradientUnits="userSpaceOnUse"/>
    <linearGradient id="linearGradient3702">
      <stop style="stop-color:black;stop-opacity:0;" offset="0" id="stop3704"/>
      <stop id="stop3710" offset="0.5" style="stop-color:black;stop-opacity:1;"/>
      <stop style="stop-color:black;stop-opacity:0;" offset="1" id="stop3706"/>
    </linearGradient>
    <linearGradient inkscape:collect="always" id="linearGradient3688">
      <stop style="stop-color:black;stop-opacity:1;" offset="0" id="stop3690"/>
      <stop style="stop-color:black;stop-opacity:0;" offset="1" id="stop3692"/>
    </linearGradient>
    <radialGradient inkscape:collect="always" xlink:href="#linearGradient3688" id="radialGradient2156" gradientUnits="userSpaceOnUse" gradientTransform="matrix(2.003784,0,0,1.4,27.98813,-17.4)" cx="4.9929786" cy="43.5" fx="4.9929786" fy="43.5" r="2.5"/>
    <radialGradient inkscape:collect="always" xlink:href="#linearGradient3688" id="radialGradient2158" gradientUnits="userSpaceOnUse" gradientTransform="matrix(2.003784,0,0,1.4,-20.01187,-104.4)" cx="4.9929786" cy="43.5" fx="4.9929786" fy="43.5" r="2.5"/>
    <linearGradient inkscape:collect="always" xlink:href="#linearGradient3702" id="linearGradient2160" gradientUnits="userSpaceOnUse" x1="25.058096" y1="47.027729" x2="25.058096" y2="39.999443"/>
  </defs>
  <g inkscape:groupmode="layer" id="layer6" inkscape:label="Shadow">
    <g id="g2106" inkscape:label="Shadow" transform="translate(-2e-6,2.838692e-5)">
      <g style="display:inline" id="g2036" inkscape:label="Shadow">
        <g id="g3712" style="opacity:0.4" transform="matrix(1.052632,0,0,1.285713,-1.263158,-13.42854)">
          <rect y="40" x="38" height="7" width="5" id="rect2801" style="opacity:1;fill:url(#radialGradient2156);fill-opacity:1;stroke:none;stroke-width:1;stroke-linecap:round;stroke-linejoin:miter;stroke-miterlimit:4;stroke-dasharray:none;stroke-opacity:1"/>
          <rect transform="scale(-1,-1)" y="-47" x="-10" height="7" width="5" id="rect3696" style="opacity:1;fill:url(#radialGradient2158);fill-opacity:1;stroke:none;stroke-width:1;stroke-linecap:round;stroke-linejoin:miter;stroke-miterlimit:4;stroke-dasharray:none;stroke-opacity:1"/>
          <rect y="40" x="10" height="7.0000005" width="28" id="rect3700" style="opacity:1;fill:url(#linearGradient2160);fill-opacity:1;stroke:none;stroke-width:1;stroke-linecap:round;stroke-linejoin:miter;stroke-miterlimit:4;stroke-dasharray:none;stroke-opacity:1"/>
        </g>
      </g>
    </g>
  </g>
  <g style="display:inline" inkscape:groupmode="layer" inkscape:label="Base" id="layer1">
    <path style="color:#000000;fill:url(#radialGradient15658);fill-opacity:1;fill-rule:nonzero;stroke:url(#radialGradient15656);stroke-width:1;stroke-linecap:round;stroke-linejoin:round;stroke-miterlimit:4;stroke-dashoffset:0;stroke-opacity:1;marker:none;marker-start:none;marker-mid:none;marker-end:none;visibility:visible;display:block;overflow:visible" d="M 7.7526014,3.6464462 L 31.199616,3.6308212 C 31.199616,3.6308212 41.478553,13.174533 41.478553,13.811106 L 41.478553,43.417892 C 41.478553,44.054465 40.966077,44.56694 40.329504,44.56694 L 7.7526014,44.56694 C 7.1160285,44.56694 6.6035528,44.054465 6.6035528,43.417892 L 6.6035528,4.7954948 C 6.6035528,4.1589219 7.1160285,3.6464462 7.7526014,3.6464462 z " id="rect15391" sodipodi:nodetypes="ccccccccc"/>
    <path style="color:#000000;fill:none;fill-opacity:1;fill-rule:nonzero;stroke:url(#radialGradient15668);stroke-width:1;stroke-linecap:round;stroke-linejoin:round;stroke-miterlimit:4;stroke-dashoffset:0;stroke-opacity:1;marker:none;marker-start:none;marker-mid:none;marker-end:none;visibility:visible;display:block;overflow:visible" d="M 7.8151023,4.5839462 L 32.691494,4.5839462 C 32.691494,4.5839462 40.44194,12.605373 40.44194,12.687946 L 40.44194,43.381282 C 40.44194,43.463855 40.375465,43.530331 40.292892,43.530331 L 7.8151023,43.530331 C 7.7325294,43.530331 7.6660538,43.463855 7.6660538,43.381282 L 7.6660538,4.7329948 C 7.6660538,4.6504219 7.7325294,4.5839462 7.8151023,4.5839462 z " id="rect15660" sodipodi:nodetypes="ccccccccc"/>
  </g>
  <g inkscape:groupmode="layer" id="layer5" inkscape:label="Text" style="display:inline">
    <path inkscape:r_cy="true" inkscape:r_cx="true" style="opacity:0.35714285;color:#000000;fill:url(#radialGradient4796);fill-opacity:1;fill-rule:evenodd;stroke:none;stroke-width:1.00000024;stroke-linecap:butt;stroke-linejoin:miter;marker:none;marker-start:none;marker-mid:none;marker-end:none;stroke-miterlimit:4;stroke-dasharray:none;stroke-dashoffset:0;stroke-opacity:1;visibility:visible;display:inline;overflow:visible" d="M 40.985189,13.861445 C 40.256827,12.514817 34.882221,10.130934 32.084635,9.3314083 C 32.254143,10.904354 31.961856,15.649439 31.961856,15.649439 C 34.024356,14.274439 40.204485,13.699331 40.985189,13.861445 z " id="path5348" sodipodi:nodetypes="cccc"/>
    <path style="color:#000000;fill:url(#radialGradient5352);fill-opacity:1;fill-rule:nonzero;stroke:url(#radialGradient5350);stroke-width:1;stroke-linecap:butt;stroke-linejoin:round;marker:none;marker-start:none;marker-mid:none;marker-end:none;stroke-miterlimit:4;stroke-dasharray:none;stroke-dashoffset:0;stroke-opacity:1;visibility:visible;display:block;overflow:visible;opacity:1" d="M 41.410559,13.739267 C 41.423724,12.324125 35.058025,3.5320142 31.175441,3.6354934 C 32.148479,3.8684884 32.925796,9.803523 31.536076,12.616023 C 34.286076,12.616023 40.446694,11.881093 41.410559,13.739267 z " id="path2210" sodipodi:nodetypes="cccc" inkscape:r_cx="true" inkscape:r_cy="true"/>
    <path sodipodi:nodetypes="cccc" id="path2247" d="M 39.121563,11.586207 C 38.393201,10.239579 34.963027,6.5166576 33.040441,5.2796316 C 33.279381,6.7054805 33.577496,8.9620596 32.961856,11.524439 C 32.961856,11.524439 38.340859,11.424093 39.121563,11.586207 z " style="opacity:1;color:#000000;fill:none;fill-opacity:1;fill-rule:evenodd;stroke:url(#linearGradient8166);stroke-width:1.00000024;stroke-linecap:butt;stroke-linejoin:miter;marker:none;marker-start:none;marker-mid:none;marker-end:none;stroke-miterlimit:4;stroke-dasharray:none;stroke-dashoffset:0;stroke-opacity:1;visibility:visible;display:inline;overflow:visible" inkscape:r_cx="true" inkscape:r_cy="true"/>
    <rect style="opacity:1;color:#000000;fill:url(#linearGradient4620);fill-opacity:1.0;fill-rule:evenodd;stroke:url(#linearGradient4830);stroke-width:0.99999982;stroke-linecap:butt;stroke-linejoin:miter;marker:none;marker-start:none;marker-mid:none;marker-end:none;stroke-miterlimit:4;stroke-dasharray:none;stroke-dashoffset:0;stroke-opacity:1;visibility:visible;display:inline;overflow:visible" id="rect4599" width="16.124994" height="37.125" x="8.3750057" y="5.375" inkscape:r_cx="true" inkscape:r_cy="true" rx="0.31249964" ry="0.31249976"/>
    <g id="g4628">
      <rect ry="0.7544415" rx="0.7544415" inkscape:r_cy="true" inkscape:r_cx="true" y="7" x="12" height="6.7937093" width="9.0364265" id="rect3747" style="opacity:0.21978022;color:#000000;fill:#dddddd;fill-opacity:1;fill-rule:evenodd;stroke:none;stroke-width:1;stroke-linecap:butt;stroke-linejoin:miter;marker:none;marker-start:none;marker-mid:none;marker-end:none;stroke-miterlimit:4;stroke-dasharray:none;stroke-dashoffset:0;stroke-opacity:1;visibility:visible;display:inline;overflow:visible"/>
      <rect style="opacity:0.21978024;color:#000000;fill:#dddddd;fill-opacity:1;fill-rule:evenodd;stroke:none;stroke-width:1;stroke-linecap:butt;stroke-linejoin:miter;marker:none;marker-start:none;marker-mid:none;marker-end:none;stroke-miterlimit:4;stroke-dasharray:none;stroke-dashoffset:0;stroke-opacity:1;visibility:visible;display:inline;overflow:visible" id="rect4622" width="9.0364265" height="6.7937093" x="11.963573" y="15" inkscape:r_cx="true" inkscape:r_cy="true" rx="0.7544415" ry="0.7544415"/>
      <rect ry="0.7544415" rx="0.7544415" inkscape:r_cy="true" inkscape:r_cx="true" y="23" x="11.963573" height="6.7937093" width="9.0364265" id="rect4624" style="opacity:0.21978024;color:#000000;fill:#dddddd;fill-opacity:1;fill-rule:evenodd;stroke:none;stroke-width:1;stroke-linecap:butt;stroke-linejoin:miter;marker:none;marker-start:none;marker-mid:none;marker-end:none;stroke-miterlimit:4;stroke-dasharray:none;stroke-dashoffset:0;stroke-opacity:1;visibility:visible;display:inline;overflow:visible"/>
      <rect style="opacity:0.21978024;color:#000000;fill:#dddddd;fill-opacity:1;fill-rule:evenodd;stroke:none;stroke-width:1;stroke-linecap:butt;stroke-linejoin:miter;marker:none;marker-start:none;marker-mid:none;marker-end:none;stroke-miterlimit:4;stroke-dasharray:none;stroke-dashoffset:0;stroke-opacity:1;visibility:visible;display:inline;overflow:visible" id="rect4626" width="9.0364265" height="6.7937093" x="11.963573" y="31" inkscape:r_cx="true" inkscape:r_cy="true" rx="0.7544415" ry="0.7544415"/>
    </g>
    <g style="opacity:1;fill-opacity:1.0;fill:url(#linearGradient4812)" inkscape:r_cy="true" inkscape:r_cx="true" id="g4673" transform="translate(40.00001,0)">
      <rect inkscape:r_cy="true" inkscape:r_cx="true" y="7" x="-30" height="1" width="1" id="rect4601" style="opacity:1;color:#000000;fill:url(#linearGradient4812);fill-opacity:1.0;fill-rule:evenodd;stroke:none;stroke-width:1;stroke-linecap:butt;stroke-linejoin:miter;marker:none;marker-start:none;marker-mid:none;marker-end:none;stroke-miterlimit:4;stroke-dasharray:none;stroke-dashoffset:0;stroke-opacity:1;visibility:visible;display:inline;overflow:visible"/>
      <rect style="opacity:1;color:#000000;fill:url(#linearGradient4812);fill-opacity:1.0;fill-rule:evenodd;stroke:none;stroke-width:1;stroke-linecap:butt;stroke-linejoin:miter;marker:none;marker-start:none;marker-mid:none;marker-end:none;stroke-miterlimit:4;stroke-dasharray:none;stroke-dashoffset:0;stroke-opacity:1;visibility:visible;display:inline;overflow:visible" id="rect4603" width="1" height="1" x="-30" y="9" inkscape:r_cx="true" inkscape:r_cy="true"/>
      <rect inkscape:r_cy="true" inkscape:r_cx="true" y="11" x="-30" height="1" width="1" id="rect4605" style="opacity:1;color:#000000;fill:url(#linearGradient4812);fill-opacity:1.0;fill-rule:evenodd;stroke:none;stroke-width:1;stroke-linecap:butt;stroke-linejoin:miter;marker:none;marker-start:none;marker-mid:none;marker-end:none;stroke-miterlimit:4;stroke-dasharray:none;stroke-dashoffset:0;stroke-opacity:1;visibility:visible;display:inline;overflow:visible"/>
      <rect style="opacity:1;color:#000000;fill:url(#linearGradient4812);fill-opacity:1.0;fill-rule:evenodd;stroke:none;stroke-width:1;stroke-linecap:butt;stroke-linejoin:miter;marker:none;marker-start:none;marker-mid:none;marker-end:none;stroke-miterlimit:4;stroke-dasharray:none;stroke-dashoffset:0;stroke-opacity:1;visibility:visible;display:inline;overflow:visible" id="rect4607" width="1" height="1" x="-30" y="13" inkscape:r_cx="true" inkscape:r_cy="true"/>
      <rect inkscape:r_cy="true" inkscape:r_cx="true" y="15" x="-30" height="1" width="1" id="rect4609" style="opacity:1;color:#000000;fill:url(#linearGradient4812);fill-opacity:1.0;fill-rule:evenodd;stroke:none;stroke-width:1;stroke-linecap:butt;stroke-linejoin:miter;marker:none;marker-start:none;marker-mid:none;marker-end:none;stroke-miterlimit:4;stroke-dasharray:none;stroke-dashoffset:0;stroke-opacity:1;visibility:visible;display:inline;overflow:visible"/>
      <rect style="opacity:1;color:#000000;fill:url(#linearGradient4812);fill-opacity:1.0;fill-rule:evenodd;stroke:none;stroke-width:1;stroke-linecap:butt;stroke-linejoin:miter;marker:none;marker-start:none;marker-mid:none;marker-end:none;stroke-miterlimit:4;stroke-dasharray:none;stroke-dashoffset:0;stroke-opacity:1;visibility:visible;display:inline;overflow:visible" id="rect4611" width="1" height="1" x="-30" y="17" inkscape:r_cx="true" inkscape:r_cy="true"/>
      <rect inkscape:r_cy="true" inkscape:r_cx="true" y="19" x="-30" height="1" width="1" id="rect4613" style="opacity:1;color:#000000;fill:url(#linearGradient4812);fill-opacity:1.0;fill-rule:evenodd;stroke:none;stroke-width:1;stroke-linecap:butt;stroke-linejoin:miter;marker:none;marker-start:none;marker-mid:none;marker-end:none;stroke-miterlimit:4;stroke-dasharray:none;stroke-dashoffset:0;stroke-opacity:1;visibility:visible;display:inline;overflow:visible"/>
      <rect style="opacity:1;color:#000000;fill:url(#linearGradient4812);fill-opacity:1.0;fill-rule:evenodd;stroke:none;stroke-width:1;stroke-linecap:butt;stroke-linejoin:miter;marker:none;marker-start:none;marker-mid:none;marker-end:none;stroke-miterlimit:4;stroke-dasharray:none;stroke-dashoffset:0;stroke-opacity:1;visibility:visible;display:inline;overflow:visible" id="rect4615" width="1" height="1" x="-30" y="21" inkscape:r_cx="true" inkscape:r_cy="true"/>
      <rect inkscape:r_cy="true" inkscape:r_cx="true" y="23" x="-30" height="1" width="1" id="rect4617" style="opacity:1;color:#000000;fill:url(#linearGradient4812);fill-opacity:1.0;fill-rule:evenodd;stroke:none;stroke-width:1;stroke-linecap:butt;stroke-linejoin:miter;marker:none;marker-start:none;marker-mid:none;marker-end:none;stroke-miterlimit:4;stroke-dasharray:none;stroke-dashoffset:0;stroke-opacity:1;visibility:visible;display:inline;overflow:visible"/>
      <rect style="opacity:1;color:#000000;fill:url(#linearGradient4812);fill-opacity:1.0;fill-rule:evenodd;stroke:none;stroke-width:1;stroke-linecap:butt;stroke-linejoin:miter;marker:none;marker-start:none;marker-mid:none;marker-end:none;stroke-miterlimit:4;stroke-dasharray:none;stroke-dashoffset:0;stroke-opacity:1;visibility:visible;display:inline;overflow:visible" id="rect4619" width="1" height="1" x="-30" y="25" inkscape:r_cx="true" inkscape:r_cy="true"/>
      <rect inkscape:r_cy="true" inkscape:r_cx="true" y="27" x="-30" height="1" width="1" id="rect4621" style="opacity:1;color:#000000;fill:url(#linearGradient4812);fill-opacity:1.0;fill-rule:evenodd;stroke:none;stroke-width:1;stroke-linecap:butt;stroke-linejoin:miter;marker:none;marker-start:none;marker-mid:none;marker-end:none;stroke-miterlimit:4;stroke-dasharray:none;stroke-dashoffset:0;stroke-opacity:1;visibility:visible;display:inline;overflow:visible"/>
      <rect style="opacity:1;color:#000000;fill:url(#linearGradient4812);fill-opacity:1.0;fill-rule:evenodd;stroke:none;stroke-width:1;stroke-linecap:butt;stroke-linejoin:miter;marker:none;marker-start:none;marker-mid:none;marker-end:none;stroke-miterlimit:4;stroke-dasharray:none;stroke-dashoffset:0;stroke-opacity:1;visibility:visible;display:inline;overflow:visible" id="rect4623" width="1" height="1" x="-30" y="29" inkscape:r_cx="true" inkscape:r_cy="true"/>
      <rect inkscape:r_cy="true" inkscape:r_cx="true" y="31" x="-30" height="1" width="1" id="rect4625" style="opacity:1;color:#000000;fill:url(#linearGradient4812);fill-opacity:1.0;fill-rule:evenodd;stroke:none;stroke-width:1;stroke-linecap:butt;stroke-linejoin:miter;marker:none;marker-start:none;marker-mid:none;marker-end:none;stroke-miterlimit:4;stroke-dasharray:none;stroke-dashoffset:0;stroke-opacity:1;visibility:visible;display:inline;overflow:visible"/>
      <rect style="opacity:1;color:#000000;fill:url(#linearGradient4812);fill-opacity:1.0;fill-rule:evenodd;stroke:none;stroke-width:1;stroke-linecap:butt;stroke-linejoin:miter;marker:none;marker-start:none;marker-mid:none;marker-end:none;stroke-miterlimit:4;stroke-dasharray:none;stroke-dashoffset:0;stroke-opacity:1;visibility:visible;display:inline;overflow:visible" id="rect4627" width="1" height="1" x="-30" y="33" inkscape:r_cx="true" inkscape:r_cy="true"/>
      <rect inkscape:r_cy="true" inkscape:r_cx="true" y="35" x="-30" height="1" width="1" id="rect4629" style="opacity:1;color:#000000;fill:url(#linearGradient4812);fill-opacity:1.0;fill-rule:evenodd;stroke:none;stroke-width:1;stroke-linecap:butt;stroke-linejoin:miter;marker:none;marker-start:none;marker-mid:none;marker-end:none;stroke-miterlimit:4;stroke-dasharray:none;stroke-dashoffset:0;stroke-opacity:1;visibility:visible;display:inline;overflow:visible"/>
      <rect style="opacity:1;color:#000000;fill:url(#linearGradient4812);fill-opacity:1.0;fill-rule:evenodd;stroke:none;stroke-width:1;stroke-linecap:butt;stroke-linejoin:miter;marker:none;marker-start:none;marker-mid:none;marker-end:none;stroke-miterlimit:4;stroke-dasharray:none;stroke-dashoffset:0;stroke-opacity:1;visibility:visible;display:inline;overflow:visible" id="rect4631" width="1" height="1" x="-30" y="37" inkscape:r_cx="true" inkscape:r_cy="true"/>
      <rect inkscape:r_cy="true" inkscape:r_cx="true" y="39" x="-30" height="1" width="1" id="rect4633" style="opacity:1;color:#000000;fill:url(#linearGradient4812);fill-opacity:1.0;fill-rule:evenodd;stroke:none;stroke-width:1;stroke-linecap:butt;stroke-linejoin:miter;marker:none;marker-start:none;marker-mid:none;marker-end:none;stroke-miterlimit:4;stroke-dasharray:none;stroke-dashoffset:0;stroke-opacity:1;visibility:visible;display:inline;overflow:visible"/>
      <rect style="opacity:1;color:#000000;fill:url(#linearGradient4812);fill-opacity:1.0;fill-rule:evenodd;stroke:none;stroke-width:1;stroke-linecap:butt;stroke-linejoin:miter;marker:none;marker-start:none;marker-mid:none;marker-end:none;stroke-miterlimit:4;stroke-dasharray:none;stroke-dashoffset:0;stroke-opacity:1;visibility:visible;display:inline;overflow:visible" id="rect4635" width="1" height="1" x="-30" y="41" inkscape:r_cx="true" inkscape:r_cy="true"/>
    </g>
    <g style="opacity:1;fill-opacity:1.0;fill:url(#linearGradient4820)" inkscape:r_cy="true" inkscape:r_cx="true" id="g4693" transform="translate(40.00001,0)">
      <rect style="opacity:1;color:#000000;fill:url(#linearGradient4820);fill-opacity:1.0;fill-rule:evenodd;stroke:none;stroke-width:1;stroke-linecap:butt;stroke-linejoin:miter;marker:none;marker-start:none;marker-mid:none;marker-end:none;stroke-miterlimit:4;stroke-dasharray:none;stroke-dashoffset:0;stroke-opacity:1;visibility:visible;display:inline;overflow:visible" id="rect4637" width="1" height="1" x="-18" y="7" inkscape:r_cx="true" inkscape:r_cy="true"/>
      <rect inkscape:r_cy="true" inkscape:r_cx="true" y="9" x="-18" height="1" width="1" id="rect4639" style="opacity:1;color:#000000;fill:url(#linearGradient4820);fill-opacity:1.0;fill-rule:evenodd;stroke:none;stroke-width:1;stroke-linecap:butt;stroke-linejoin:miter;marker:none;marker-start:none;marker-mid:none;marker-end:none;stroke-miterlimit:4;stroke-dasharray:none;stroke-dashoffset:0;stroke-opacity:1;visibility:visible;display:inline;overflow:visible"/>
      <rect style="opacity:1;color:#000000;fill:url(#linearGradient4820);fill-opacity:1.0;fill-rule:evenodd;stroke:none;stroke-width:1;stroke-linecap:butt;stroke-linejoin:miter;marker:none;marker-start:none;marker-mid:none;marker-end:none;stroke-miterlimit:4;stroke-dasharray:none;stroke-dashoffset:0;stroke-opacity:1;visibility:visible;display:inline;overflow:visible" id="rect4641" width="1" height="1" x="-18" y="11" inkscape:r_cx="true" inkscape:r_cy="true"/>
      <rect inkscape:r_cy="true" inkscape:r_cx="true" y="13" x="-18" height="1" width="1" id="rect4643" style="opacity:1;color:#000000;fill:url(#linearGradient4820);fill-opacity:1.0;fill-rule:evenodd;stroke:none;stroke-width:1;stroke-linecap:butt;stroke-linejoin:miter;marker:none;marker-start:none;marker-mid:none;marker-end:none;stroke-miterlimit:4;stroke-dasharray:none;stroke-dashoffset:0;stroke-opacity:1;visibility:visible;display:inline;overflow:visible"/>
      <rect style="opacity:1;color:#000000;fill:url(#linearGradient4820);fill-opacity:1.0;fill-rule:evenodd;stroke:none;stroke-width:1;stroke-linecap:butt;stroke-linejoin:miter;marker:none;marker-start:none;marker-mid:none;marker-end:none;stroke-miterlimit:4;stroke-dasharray:none;stroke-dashoffset:0;stroke-opacity:1;visibility:visible;display:inline;overflow:visible" id="rect4645" width="1" height="1" x="-18" y="15" inkscape:r_cx="true" inkscape:r_cy="true"/>
      <rect inkscape:r_cy="true" inkscape:r_cx="true" y="17" x="-18" height="1" width="1" id="rect4647" style="opacity:1;color:#000000;fill:url(#linearGradient4820);fill-opacity:1.0;fill-rule:evenodd;stroke:none;stroke-width:1;stroke-linecap:butt;stroke-linejoin:miter;marker:none;marker-start:none;marker-mid:none;marker-end:none;stroke-miterlimit:4;stroke-dasharray:none;stroke-dashoffset:0;stroke-opacity:1;visibility:visible;display:inline;overflow:visible"/>
      <rect style="opacity:1;color:#000000;fill:url(#linearGradient4820);fill-opacity:1.0;fill-rule:evenodd;stroke:none;stroke-width:1;stroke-linecap:butt;stroke-linejoin:miter;marker:none;marker-start:none;marker-mid:none;marker-end:none;stroke-miterlimit:4;stroke-dasharray:none;stroke-dashoffset:0;stroke-opacity:1;visibility:visible;display:inline;overflow:visible" id="rect4649" width="1" height="1" x="-18" y="19" inkscape:r_cx="true" inkscape:r_cy="true"/>
      <rect inkscape:r_cy="true" inkscape:r_cx="true" y="21" x="-18" height="1" width="1" id="rect4651" style="opacity:1;color:#000000;fill:url(#linearGradient4820);fill-opacity:1.0;fill-rule:evenodd;stroke:none;stroke-width:1;stroke-linecap:butt;stroke-linejoin:miter;marker:none;marker-start:none;marker-mid:none;marker-end:none;stroke-miterlimit:4;stroke-dasharray:none;stroke-dashoffset:0;stroke-opacity:1;visibility:visible;display:inline;overflow:visible"/>
      <rect style="opacity:1;color:#000000;fill:url(#linearGradient4820);fill-opacity:1.0;fill-rule:evenodd;stroke:none;stroke-width:1;stroke-linecap:butt;stroke-linejoin:miter;marker:none;marker-start:none;marker-mid:none;marker-end:none;stroke-miterlimit:4;stroke-dasharray:none;stroke-dashoffset:0;stroke-opacity:1;visibility:visible;display:inline;overflow:visible" id="rect4653" width="1" height="1" x="-18" y="23" inkscape:r_cx="true" inkscape:r_cy="true"/>
      <rect inkscape:r_cy="true" inkscape:r_cx="true" y="25" x="-18" height="1" width="1" id="rect4655" style="opacity:1;color:#000000;fill:url(#linearGradient4820);fill-opacity:1.0;fill-rule:evenodd;stroke:none;stroke-width:1;stroke-linecap:butt;stroke-linejoin:miter;marker:none;marker-start:none;marker-mid:none;marker-end:none;stroke-miterlimit:4;stroke-dasharray:none;stroke-dashoffset:0;stroke-opacity:1;visibility:visible;display:inline;overflow:visible"/>
      <rect style="opacity:1;color:#000000;fill:url(#linearGradient4820);fill-opacity:1.0;fill-rule:evenodd;stroke:none;stroke-width:1;stroke-linecap:butt;stroke-linejoin:miter;marker:none;marker-start:none;marker-mid:none;marker-end:none;stroke-miterlimit:4;stroke-dasharray:none;stroke-dashoffset:0;stroke-opacity:1;visibility:visible;display:inline;overflow:visible" id="rect4657" width="1" height="1" x="-18" y="27" inkscape:r_cx="true" inkscape:r_cy="true"/>
      <rect inkscape:r_cy="true" inkscape:r_cx="true" y="29" x="-18" height="1" width="1" id="rect4659" style="opacity:1;color:#000000;fill:url(#linearGradient4820);fill-opacity:1.0;fill-rule:evenodd;stroke:none;stroke-width:1;stroke-linecap:butt;stroke-linejoin:miter;marker:none;marker-start:none;marker-mid:none;marker-end:none;stroke-miterlimit:4;stroke-dasharray:none;stroke-dashoffset:0;stroke-opacity:1;visibility:visible;display:inline;overflow:visible"/>
      <rect style="opacity:1;color:#000000;fill:url(#linearGradient4820);fill-opacity:1.0;fill-rule:evenodd;stroke:none;stroke-width:1;stroke-linecap:butt;stroke-linejoin:miter;marker:none;marker-start:none;marker-mid:none;marker-end:none;stroke-miterlimit:4;stroke-dasharray:none;stroke-dashoffset:0;stroke-opacity:1;visibility:visible;display:inline;overflow:visible" id="rect4661" width="1" height="1" x="-18" y="31" inkscape:r_cx="true" inkscape:r_cy="true"/>
      <rect inkscape:r_cy="true" inkscape:r_cx="true" y="33" x="-18" height="1" width="1" id="rect4663" style="opacity:1;color:#000000;fill:url(#linearGradient4820);fill-opacity:1.0;fill-rule:evenodd;stroke:none;stroke-width:1;stroke-linecap:butt;stroke-linejoin:miter;marker:none;marker-start:none;marker-mid:none;marker-end:none;stroke-miterlimit:4;stroke-dasharray:none;stroke-dashoffset:0;stroke-opacity:1;visibility:visible;display:inline;overflow:visible"/>
      <rect style="opacity:1;color:#000000;fill:url(#linearGradient4820);fill-opacity:1.0;fill-rule:evenodd;stroke:none;stroke-width:1;stroke-linecap:butt;stroke-linejoin:miter;marker:none;marker-start:none;marker-mid:none;marker-end:none;stroke-miterlimit:4;stroke-dasharray:none;stroke-dashoffset:0;stroke-opacity:1;visibility:visible;display:inline;overflow:visible" id="rect4665" width="1" height="1" x="-18" y="35" inkscape:r_cx="true" inkscape:r_cy="true"/>
      <rect inkscape:r_cy="true" inkscape:r_cx="true" y="37" x="-18" height="1" width="1" id="rect4667" style="opacity:1;color:#000000;fill:url(#linearGradient4820);fill-opacity:1.0;fill-rule:evenodd;stroke:none;stroke-width:1;stroke-linecap:butt;stroke-linejoin:miter;marker:none;marker-start:none;marker-mid:none;marker-end:none;stroke-miterlimit:4;stroke-dasharray:none;stroke-dashoffset:0;stroke-opacity:1;visibility:visible;display:inline;overflow:visible"/>
      <rect style="opacity:1;color:#000000;fill:url(#linearGradient4820);fill-opacity:1.0;fill-rule:evenodd;stroke:none;stroke-width:1;stroke-linecap:butt;stroke-linejoin:miter;marker:none;marker-start:none;marker-mid:none;marker-end:none;stroke-miterlimit:4;stroke-dasharray:none;stroke-dashoffset:0;stroke-opacity:1;visibility:visible;display:inline;overflow:visible" id="rect4669" width="1" height="1" x="-18" y="39" inkscape:r_cx="true" inkscape:r_cy="true"/>
      <rect inkscape:r_cy="true" inkscape:r_cx="true" y="41" x="-18" height="1" width="1" id="rect4671" style="opacity:1;color:#000000;fill:url(#linearGradient4820);fill-opacity:1.0;fill-rule:evenodd;stroke:none;stroke-width:1;stroke-linecap:butt;stroke-linejoin:miter;marker:none;marker-start:none;marker-mid:none;marker-end:none;stroke-miterlimit:4;stroke-dasharray:none;stroke-dashoffset:0;stroke-opacity:1;visibility:visible;display:inline;overflow:visible"/>
    </g>
    <g id="g4754">
      <path id="path6433" d="M 33.25 18.4375 C 32.071467 18.448941 30.864351 18.63579 29.625 18.96875 C 23.127551 20.620644 17.183144 26.690052 15.53125 33.1875 C 14.595177 36.87673 15.091777 40.398267 16.8125 43 L 36.6875 43 C 37.866488 42.031713 38.936733 40.920393 39.875 39.71875 L 39.875 20.4375 C 38.063894 19.116886 35.757808 18.413154 33.25 18.4375 z M 35.53125 21.03125 C 37.52305 20.902694 39.007897 22.05452 38.96875 23.9375 C 38.968253 23.946534 38.969314 23.959717 38.96875 23.96875 C 38.968144 23.985836 38.96961 24.014043 38.96875 24.03125 C 38.793041 26.307316 36.507984 28.566378 33.90625 29 C 31.373346 29.440506 29.732121 27.873649 30.0625 25.78125 C 30.392877 23.688852 32.374848 21.706881 34.6875 21.15625 C 34.971419 21.091723 35.262088 21.048622 35.53125 21.03125 z M 25.03125 23.375 C 26.581091 23.38073 27.596419 24.515235 27.3125 26.21875 C 26.982123 28.31115 24.873648 30.419621 22.78125 30.75 C 21.929492 30.89196 21.215955 30.693835 20.71875 30.28125 C 20.077996 29.730269 19.783466 28.771278 20.03125 27.65625 C 20.471755 25.784103 22.346603 23.909255 24.21875 23.46875 C 24.497507 23.406804 24.77764 23.374062 25.03125 23.375 z M 33.9375 31.8125 C 36.469493 31.618093 38.544186 33.36413 38.4375 36.03125 L 38.3125 36.15625 C 38.202372 39.01953 35.550782 41.639874 32.6875 41.75 C 29.934343 41.860127 28.090745 39.784407 28.53125 37.03125 C 28.861629 34.498346 31.154596 32.17413 33.6875 31.84375 C 33.770095 31.833426 33.855823 31.818771 33.9375 31.8125 z M 22.40625 33.46875 C 24.521333 33.241129 25.853885 34.977757 25.53125 37.34375 C 25.090744 39.98678 22.781402 42.217248 20.46875 42.4375 C 18.266223 42.547625 17.074369 40.547778 17.625 38.125 C 18.175631 35.81235 20.157601 33.720253 22.25 33.5 C 22.301622 33.492257 22.355488 33.474213 22.40625 33.46875 z " style="fill:url(#linearGradient4692);fill-rule:nonzero;stroke:none;stroke-miterlimit:4"/>
      <path sodipodi:nodetypes="ccccccccccccsccsccscsccccccsccccscsc" style="fill:none;fill-rule:nonzero;stroke:#333333;stroke-width:2;stroke-miterlimit:4;stroke-opacity:1;stroke-dasharray:none" d="M 30.323463,16.403981 C 29.327329,16.450302 28.321803,16.611576 27.284872,16.890153 C 20.967085,18.603442 15.187046,24.397914 13.580828,30.715669 C 12.339984,35.606031 13.555781,39.073821 15.918093,41.876883 L 30.475392,41.876883 C 34.369629,39.938665 37.032168,37.259974 38.875006,33.326251 L 38.875006,19.782121 C 36.723562,17.406801 34.173386,16.224955 30.323463,16.403981 z M 33.465308,18.929455 C 35.436928,18.802202 36.902291,19.955845 36.807758,21.846487 C 36.700679,24.095179 34.455188,26.340656 31.885241,26.768978 C 29.422374,27.197301 27.82653,25.704163 28.147775,23.669632 C 28.361937,21.52802 30.396186,19.586401 32.644889,19.050998 C 32.920957,18.988256 33.203589,18.946347 33.465308,18.929455 z M 22.826785,21.392429 C 23.540355,21.330484 24.170476,21.523898 24.619553,21.878601 C 25.203462,22.356434 25.514456,23.163691 25.348815,24.157532 C 25.027569,26.192065 22.977401,28.211838 20.942859,28.533081 C 20.024303,28.686172 19.270826,28.45339 18.785459,27.955751 C 18.269664,27.408078 18.048044,26.54912 18.268899,25.555277 C 18.697225,23.734908 20.413149,21.911909 22.34061,21.483587 C 22.506252,21.446777 22.669799,21.406058 22.826785,21.392429 z M 31.478127,29.500239 C 33.940107,29.311207 35.957433,31.008957 35.853698,33.602315 L 35.732154,33.723858 C 35.625072,36.507953 33.046801,39.055827 30.262691,39.162908 C 27.585662,39.269986 25.79304,37.251674 26.221365,34.574659 C 26.542608,32.111807 28.772173,29.851866 31.23504,29.530625 C 31.315351,29.520586 31.398709,29.506337 31.478127,29.500239 z M 20.883815,31.239141 C 22.856053,31.111838 24.107047,32.792014 23.800862,35.03736 L 23.679318,35.128517 C 23.250996,37.698452 21.019969,39.852771 18.878345,39.959851 C 16.736721,40.066931 15.547436,38.152777 16.082842,35.797003 C 16.618248,33.548309 18.545414,31.514072 20.579956,31.299912 C 20.680344,31.284854 20.786819,31.245402 20.883815,31.239141 z " id="path4573" inkscape:r_cx="true" inkscape:r_cy="true"/>
      <path inkscape:r_cy="true" inkscape:r_cx="true" id="path6440" d="M 37.768519,29.53779 C 37.768519,35.374481 32.152081,40.99092 26.205263,40.99092 C 21.249582,40.99092 18.826804,36.806122 20.038193,32.18082 C 21.139456,28.106149 24.773622,24.361856 28.848293,23.37072 C 33.473595,22.159331 37.768519,24.582108 37.768519,29.53779 z " style="fill:url(#radialGradient4689);fill-rule:nonzero;stroke:none;stroke-miterlimit:4"/>
      <path inkscape:r_cy="true" inkscape:r_cx="true" id="path6447" d="M 36.116625,27.885896 C 36.116625,33.722587 30.500187,39.339026 24.553369,39.339026 C 19.597688,39.339026 17.17491,35.154228 18.386299,30.528926 C 19.487562,26.454255 23.121728,22.709962 27.1964,21.718826 C 31.821701,20.507437 36.116625,22.930215 36.116625,27.885896 z " style="fill:url(#radialGradient4686);fill-rule:nonzero;stroke:none;stroke-miterlimit:4"/>
      <path id="path6449" d="M 39.875 39.0625 C 38.788675 40.529861 37.498635 41.85743 36.0625 43 L 37.25 43 C 38.005815 42.364918 38.719556 41.65071 39.40625 40.875 C 39.557243 40.70723 39.731778 40.545355 39.875 40.375 L 39.875 39.0625 z " style="fill:#3b3b3b;fill-rule:nonzero;stroke:none;stroke-miterlimit:4"/>
      <path sodipodi:nodetypes="ccccccccccccsccsccscsccsccsccccscsc" inkscape:r_cy="true" inkscape:r_cx="true" id="path6472" d="M 30.418993,16.091818 C 29.39913,16.139242 28.369651,16.304358 27.308019,16.589571 C 20.839734,18.343673 14.922007,24.276177 13.277527,30.744429 C 12.007124,35.751285 13.379861,40.453481 16.886256,42.939383 L 30.574541,42.939383 C 34.561544,40.954994 38.015784,37.540611 39.902521,33.513181 L 39.902521,20.478268 C 37.955782,17.470465 34.360626,15.908527 30.418993,16.091818 z M 33.187759,18.549474 C 35.206345,18.41919 36.706615,19.600314 36.60983,21.535994 C 36.500201,23.838252 34.201219,26.13722 31.570053,26.575745 C 29.048517,27.014271 27.414658,25.485565 27.743555,23.402568 C 27.962819,21.20994 30.045526,19.22207 32.347796,18.673913 C 32.630441,18.609676 32.919805,18.566769 33.187759,18.549474 z M 22.42379,21.007131 C 23.154358,20.94371 23.79949,21.141731 24.259264,21.504884 C 24.857083,21.994099 25.175485,22.820586 25.005898,23.838102 C 24.677,25.9211 22.577994,27.988987 20.494987,28.317882 C 19.55455,28.47462 18.783124,28.236293 18.286195,27.726799 C 17.758113,27.16608 17.531214,26.286661 17.75733,25.269143 C 18.195859,23.40541 19.952658,21.538985 21.926034,21.10046 C 22.095622,21.062773 22.263065,21.021084 22.42379,21.007131 z M 31.601162,29.500046 C 34.12179,29.306511 36.272555,31.051907 36.080965,33.699838 C 35.87898,36.491437 33.207204,39.28326 30.356773,39.392892 C 27.615974,39.50252 25.780649,37.43613 26.219178,34.695345 C 26.548073,32.173824 28.830749,29.860049 31.352285,29.531155 C 31.434509,29.520877 31.519853,29.506289 31.601162,29.500046 z M 20.370547,31.024415 C 22.389767,30.89408 23.670561,32.61428 23.357082,34.913113 L 23.232643,35.006441 C 22.794118,37.637595 20.509945,39.843233 18.317305,39.952864 C 16.124664,40.062494 14.907049,38.102743 15.455209,35.690851 C 16.003369,33.38859 17.976443,31.305895 20.05945,31.086634 C 20.162229,31.071217 20.271241,31.030825 20.370547,31.024415 z " style="fill:url(#linearGradient4682);fill-rule:nonzero;stroke:none;stroke-width:1.00000024;stroke-miterlimit:4;stroke-opacity:1"/>
      <path inkscape:r_cy="true" inkscape:r_cx="true" id="path6476" d="M 27.561287,38.742097 C 33.05224,42.440084 39.327611,33.699386 34.733142,30.44964 C 38.991431,34.819989 32.491937,41.543603 27.561287,38.742097 L 27.561287,38.742097 z " style="fill:#e6e6e6;fill-rule:nonzero;stroke:none;stroke-miterlimit:4"/>
      <path inkscape:r_cy="true" inkscape:r_cx="true" id="path6480" d="M 18.343486,27.923134 C 19.124293,28.703942 21.132088,29.038574 23.362969,27.030781 C 24.813042,25.692253 26.15157,22.903652 24.255321,21.453578 C 26.597745,23.796003 21.46672,29.819382 18.231941,27.923134 L 18.343486,27.923134 z " style="fill:#e6e6e6;fill-rule:nonzero;stroke:none;stroke-miterlimit:4"/>
      <path inkscape:r_cy="true" inkscape:r_cx="true" id="path6484" d="M 16.313035,39.994777 C 17.153089,40.834831 19.433234,41.074846 21.713377,39.034716 C 24.233538,36.634564 24.593562,32.914328 22.553431,31.474235 C 25.433615,35.194473 20.153278,41.794892 16.313035,40.114785 L 16.313035,39.994777 z " style="fill:#e6e6e6;fill-rule:nonzero;stroke:none;stroke-miterlimit:4"/>
      <path inkscape:r_cy="true" inkscape:r_cx="true" id="path6488" d="M 29.194782,26.331096 C 29.962483,27.098796 32.923612,27.208469 35.117041,25.234381 C 37.091127,23.369967 37.639484,21.066866 35.994413,19.531466 C 38.845871,23.260295 32.704269,27.976168 29.304454,26.440768 L 29.194782,26.331096 z " style="fill:#e6e6e6;fill-rule:nonzero;stroke:none;stroke-miterlimit:4"/>
      <path id="path6490" d="M 38.96875 19.1875 L 38.96875 19.28125 C 39.021447 19.333947 39.104959 19.383009 39.15625 19.4375 C 39.096282 19.351239 39.031556 19.272676 38.96875 19.1875 z M 39.28125 19.625 C 39.303229 19.657954 39.353424 19.685647 39.375 19.71875 C 39.346966 19.686043 39.309749 19.657142 39.28125 19.625 z M 39.40625 19.78125 C 39.587753 20.063322 39.722131 20.332884 39.875 20.625 L 39.875 20.40625 C 39.725291 20.188937 39.573048 19.979175 39.40625 19.78125 z M 39.875 32.375 C 37.996589 36.860449 34.261056 40.926667 29.71875 43 L 31.1875 43 C 33.266894 41.934339 35.263234 40.430653 37 38.46875 C 38.192461 37.143793 39.150976 35.718533 39.875 34.28125 L 39.875 32.375 z " style="fill:#3b3b3b;fill-rule:nonzero;stroke:none;stroke-miterlimit:4"/>
    </g>
  </g>
</svg>
