<?xml version="1.0" encoding="UTF-8" standalone="no"?>
<!-- Created with Inkscape (http://www.inkscape.org/) -->
<svg xmlns:dc="http://purl.org/dc/elements/1.1/" xmlns:cc="http://web.resource.org/cc/" xmlns:rdf="http://www.w3.org/1999/02/22-rdf-syntax-ns#" xmlns:svg="http://www.w3.org/2000/svg" xmlns="http://www.w3.org/2000/svg" xmlns:xlink="http://www.w3.org/1999/xlink" xmlns:sodipodi="http://sodipodi.sourceforge.net/DTD/sodipodi-0.dtd" xmlns:inkscape="http://www.inkscape.org/namespaces/inkscape" inkscape:export-ydpi="240.00000" inkscape:export-xdpi="240.00000" inkscape:export-filename="/home/jimmac/gfx/novell/pdes/trunk/docs/BIGmime-text.png" sodipodi:docname="x-office-address-book.svg" sodipodi:docbase="/home/lapo/Icone/cvs/gnome-icon-theme/scalable/mimetypes" inkscape:version="0.44" sodipodi:version="0.32" id="svg249" height="48.000000px" width="48.000000px" inkscape:output_extension="org.inkscape.output.svg.inkscape">
  <defs id="defs3">
    <linearGradient id="linearGradient4585">
      <stop style="stop-color:#9e9e9e;stop-opacity:1;" offset="0" id="stop4587"/>
      <stop style="stop-color:#dddddd;stop-opacity:0;" offset="1" id="stop4589"/>
    </linearGradient>
    <linearGradient id="linearGradient6732">
      <stop style="stop-color:#ffffff;stop-opacity:1;" offset="0" id="stop6734"/>
      <stop style="stop-color:#dddddd;stop-opacity:1;" offset="1" id="stop6736"/>
    </linearGradient>
    <linearGradient inkscape:collect="always" xlink:href="#linearGradient6732" id="linearGradient6738" x1="11.511479" y1="0.75951481" x2="31.5" y2="36.625" gradientUnits="userSpaceOnUse" gradientTransform="matrix(0.858045,0,0,0.8,-0.932219,9.3)"/>
    <linearGradient inkscape:collect="always" id="linearGradient4790">
      <stop style="stop-color:#000000;stop-opacity:1;" offset="0" id="stop4792"/>
      <stop style="stop-color:#000000;stop-opacity:0;" offset="1" id="stop4794"/>
    </linearGradient>
    <linearGradient inkscape:collect="always" id="linearGradient2251">
      <stop style="stop-color:#ffffff;stop-opacity:1;" offset="0" id="stop2253"/>
      <stop style="stop-color:#ffffff;stop-opacity:0;" offset="1" id="stop2255"/>
    </linearGradient>
    <linearGradient inkscape:collect="always" xlink:href="#linearGradient2251" id="linearGradient8166" gradientUnits="userSpaceOnUse" gradientTransform="matrix(-3.277938e-2,-0.999463,0.999463,-3.277938e-2,-0.709646,45.06274)" x1="33.396004" y1="36.921333" x2="34.170048" y2="38.070381"/>
    <linearGradient id="linearGradient15662">
      <stop id="stop15664" offset="0.0000000" style="stop-color:#ffffff;stop-opacity:1.0000000;"/>
      <stop id="stop15666" offset="1.0000000" style="stop-color:#f8f8f8;stop-opacity:1.0000000;"/>
    </linearGradient>
    <linearGradient id="linearGradient269">
      <stop id="stop270" offset="0.0000000" style="stop-color:#a3a3a3;stop-opacity:1.0000000;"/>
      <stop id="stop271" offset="1" style="stop-color:#8a8a8a;stop-opacity:1;"/>
    </linearGradient>
    <linearGradient id="linearGradient259">
      <stop id="stop260" offset="0.0000000" style="stop-color:#fafafa;stop-opacity:1.0000000;"/>
      <stop id="stop261" offset="1.0000000" style="stop-color:#bbbbbb;stop-opacity:1.0000000;"/>
    </linearGradient>
    <radialGradient inkscape:collect="always" xlink:href="#linearGradient269" id="radialGradient15656" gradientUnits="userSpaceOnUse" gradientTransform="matrix(0.968273,0.000000,0.000000,1.032767,3.353553,0.646447)" cx="8.8244190" cy="3.7561285" fx="8.8244190" fy="3.7561285" r="37.751713"/>
    <radialGradient inkscape:collect="always" xlink:href="#linearGradient259" id="radialGradient15658" gradientUnits="userSpaceOnUse" gradientTransform="scale(0.960493,1.041132)" cx="33.966679" cy="35.736916" fx="33.966679" fy="35.736916" r="86.708450"/>
    <radialGradient inkscape:collect="always" xlink:href="#linearGradient15662" id="radialGradient15668" gradientUnits="userSpaceOnUse" gradientTransform="matrix(0.968273,0.000000,0.000000,1.032767,3.353553,0.646447)" cx="8.1435566" cy="7.2678967" fx="8.1435566" fy="7.2678967" r="38.158695"/>
    <radialGradient inkscape:collect="always" xlink:href="#linearGradient269" id="radialGradient5350" gradientUnits="userSpaceOnUse" gradientTransform="matrix(0.331735,-2.3449e-17,2.501087e-17,0.353831,20.10526,9.5823)" cx="31.863327" cy="2.3667307" fx="31.863327" fy="2.3667307" r="37.751713"/>
    <radialGradient inkscape:collect="always" xlink:href="#linearGradient259" id="radialGradient5352" gradientUnits="userSpaceOnUse" gradientTransform="matrix(0.148355,1.009137e-2,-1.104438e-2,0.162365,25.06011,12.81706)" cx="30.653816" cy="14.9373" fx="30.653816" fy="14.9373" r="86.708450"/>
    <radialGradient inkscape:collect="always" xlink:href="#linearGradient4790" id="radialGradient4796" cx="37.030354" cy="12.98915" fx="37.030354" fy="12.98915" r="4.2929165" gradientTransform="matrix(1.744653,2.313551e-22,-1.663e-22,1.283833,-26.58256,-3.478359)" gradientUnits="userSpaceOnUse"/>
    <linearGradient inkscape:collect="always" xlink:href="#linearGradient4585" id="linearGradient4591" x1="9.117774" y1="18.345161" x2="8.4885712" y2="34.608616" gradientUnits="userSpaceOnUse"/>
    <linearGradient id="linearGradient3702">
      <stop style="stop-color:black;stop-opacity:0;" offset="0" id="stop3704"/>
      <stop id="stop3710" offset="0.5" style="stop-color:black;stop-opacity:1;"/>
      <stop style="stop-color:black;stop-opacity:0;" offset="1" id="stop3706"/>
    </linearGradient>
    <linearGradient inkscape:collect="always" id="linearGradient3688">
      <stop style="stop-color:black;stop-opacity:1;" offset="0" id="stop3690"/>
      <stop style="stop-color:black;stop-opacity:0;" offset="1" id="stop3692"/>
    </linearGradient>
    <radialGradient inkscape:collect="always" xlink:href="#linearGradient3688" id="radialGradient2094" gradientUnits="userSpaceOnUse" gradientTransform="matrix(2.003784,0,0,1.4,27.98813,-17.4)" cx="4.9929786" cy="43.5" fx="4.9929786" fy="43.5" r="2.5"/>
    <radialGradient inkscape:collect="always" xlink:href="#linearGradient3688" id="radialGradient2096" gradientUnits="userSpaceOnUse" gradientTransform="matrix(2.003784,0,0,1.4,-20.01187,-104.4)" cx="4.9929786" cy="43.5" fx="4.9929786" fy="43.5" r="2.5"/>
    <linearGradient inkscape:collect="always" xlink:href="#linearGradient3702" id="linearGradient2098" gradientUnits="userSpaceOnUse" x1="25.058096" y1="47.027729" x2="25.058096" y2="39.999443"/>
  </defs>
  <g inkscape:groupmode="layer" id="layer6" inkscape:label="Shadow">
    <g id="g2043" inkscape:label="Shadow" transform="translate(-2e-6,2.838692e-5)">
      <g style="display:inline" id="g2036" inkscape:label="Shadow">
        <g id="g3712" style="opacity:0.4" transform="matrix(1.052632,0,0,1.285713,-1.263158,-13.42854)">
          <rect y="40" x="38" height="7" width="5" id="rect2801" style="opacity:1;fill:url(#radialGradient2094);fill-opacity:1;stroke:none;stroke-width:1;stroke-linecap:round;stroke-linejoin:miter;stroke-miterlimit:4;stroke-dasharray:none;stroke-opacity:1"/>
          <rect transform="scale(-1,-1)" y="-47" x="-10" height="7" width="5" id="rect3696" style="opacity:1;fill:url(#radialGradient2096);fill-opacity:1;stroke:none;stroke-width:1;stroke-linecap:round;stroke-linejoin:miter;stroke-miterlimit:4;stroke-dasharray:none;stroke-opacity:1"/>
          <rect y="40" x="10" height="7.0000005" width="28" id="rect3700" style="opacity:1;fill:url(#linearGradient2098);fill-opacity:1;stroke:none;stroke-width:1;stroke-linecap:round;stroke-linejoin:miter;stroke-miterlimit:4;stroke-dasharray:none;stroke-opacity:1"/>
        </g>
      </g>
    </g>
  </g>
  <g style="display:inline" inkscape:groupmode="layer" inkscape:label="Base" id="layer1">
    <path style="color:#000000;fill:url(#radialGradient15658);fill-opacity:1;fill-rule:nonzero;stroke:url(#radialGradient15656);stroke-width:1;stroke-linecap:round;stroke-linejoin:round;stroke-miterlimit:4;stroke-dashoffset:0;stroke-opacity:1;marker:none;marker-start:none;marker-mid:none;marker-end:none;visibility:visible;display:block;overflow:visible" d="M 7.7526014,3.6464462 L 31.199616,3.6308212 C 31.199616,3.6308212 41.478553,13.174533 41.478553,13.811106 L 41.478553,43.417892 C 41.478553,44.054465 40.966077,44.56694 40.329504,44.56694 L 7.7526014,44.56694 C 7.1160285,44.56694 6.6035528,44.054465 6.6035528,43.417892 L 6.6035528,4.7954948 C 6.6035528,4.1589219 7.1160285,3.6464462 7.7526014,3.6464462 z " id="rect15391" sodipodi:nodetypes="ccccccccc"/>
    <path style="color:#000000;fill:none;fill-opacity:1;fill-rule:nonzero;stroke:url(#radialGradient15668);stroke-width:1;stroke-linecap:round;stroke-linejoin:round;stroke-miterlimit:4;stroke-dashoffset:0;stroke-opacity:1;marker:none;marker-start:none;marker-mid:none;marker-end:none;visibility:visible;display:block;overflow:visible" d="M 7.8151023,4.5839462 L 32.691494,4.5839462 C 32.691494,4.5839462 40.44194,12.605373 40.44194,12.687946 L 40.44194,43.381282 C 40.44194,43.463855 40.375465,43.530331 40.292892,43.530331 L 7.8151023,43.530331 C 7.7325294,43.530331 7.6660538,43.463855 7.6660538,43.381282 L 7.6660538,4.7329948 C 7.6660538,4.6504219 7.7325294,4.5839462 7.8151023,4.5839462 z " id="rect15660" sodipodi:nodetypes="ccccccccc"/>
  </g>
  <g inkscape:groupmode="layer" id="layer5" inkscape:label="Text" style="display:inline">
    <path inkscape:r_cy="true" inkscape:r_cx="true" style="opacity:0.35714285;color:#000000;fill:url(#radialGradient4796);fill-opacity:1;fill-rule:evenodd;stroke:none;stroke-width:1.00000024;stroke-linecap:butt;stroke-linejoin:miter;marker:none;marker-start:none;marker-mid:none;marker-end:none;stroke-miterlimit:4;stroke-dasharray:none;stroke-dashoffset:0;stroke-opacity:1;visibility:visible;display:inline;overflow:visible" d="M 40.985189,13.861445 C 40.256827,12.514817 34.882221,10.130934 32.084635,9.3314083 C 32.254143,10.904354 31.961856,15.649439 31.961856,15.649439 C 34.024356,14.274439 40.204485,13.699331 40.985189,13.861445 z " id="path5348" sodipodi:nodetypes="cccc"/>
    <path style="color:#000000;fill:url(#radialGradient5352);fill-opacity:1;fill-rule:nonzero;stroke:url(#radialGradient5350);stroke-width:1;stroke-linecap:butt;stroke-linejoin:round;marker:none;marker-start:none;marker-mid:none;marker-end:none;stroke-miterlimit:4;stroke-dasharray:none;stroke-dashoffset:0;stroke-opacity:1;visibility:visible;display:block;overflow:visible;opacity:1" d="M 41.410559,13.739267 C 41.423724,12.324125 35.058025,3.5320142 31.175441,3.6354934 C 32.148479,3.8684884 32.925796,9.803523 31.536076,12.616023 C 34.286076,12.616023 40.446694,11.881093 41.410559,13.739267 z " id="path2210" sodipodi:nodetypes="cccc" inkscape:r_cx="true" inkscape:r_cy="true"/>
    <path sodipodi:nodetypes="cccc" id="path2247" d="M 39.121563,11.586207 C 38.393201,10.239579 34.963027,6.5166576 33.040441,5.2796316 C 33.279381,6.7054805 33.577496,8.9620596 32.961856,11.524439 C 32.961856,11.524439 38.340859,11.424093 39.121563,11.586207 z " style="opacity:1;color:#000000;fill:none;fill-opacity:1;fill-rule:evenodd;stroke:url(#linearGradient8166);stroke-width:1.00000024;stroke-linecap:butt;stroke-linejoin:miter;marker:none;marker-start:none;marker-mid:none;marker-end:none;stroke-miterlimit:4;stroke-dasharray:none;stroke-dashoffset:0;stroke-opacity:1;visibility:visible;display:inline;overflow:visible" inkscape:r_cx="true" inkscape:r_cy="true"/>
    <rect style="opacity:1;color:#000000;fill:url(#linearGradient6738);fill-opacity:1;fill-rule:evenodd;stroke:#939393;stroke-width:0.99999994;stroke-linecap:butt;stroke-linejoin:miter;marker:none;marker-start:none;marker-mid:none;marker-end:none;stroke-miterlimit:4;stroke-dasharray:none;stroke-dashoffset:0;stroke-opacity:1;visibility:visible;display:inline;overflow:visible" id="rect5857" width="34.000015" height="24" x="2.5000017" y="16.499996" rx="2.7500012" ry="2.7499983" inkscape:r_cx="true" inkscape:r_cy="true"/>
    <path style="font-size:4.12102222px;font-style:normal;font-variant:normal;font-weight:bold;font-stretch:normal;text-align:start;line-height:120.00000477%;writing-mode:lr-tb;text-anchor:start;fill:#000000;fill-opacity:1;stroke:none;stroke-width:1pt;stroke-linecap:butt;stroke-linejoin:miter;stroke-opacity:1;font-family:Segoe" d="M 18.395099,22.588796 C 18.395099,22.882934 18.325813,23.108509 18.187248,23.265521 C 18.048676,23.421487 17.859722,23.49947 17.620374,23.49947 C 17.522744,23.49947 17.429317,23.481152 17.340083,23.444515 L 17.340083,23.026861 C 17.418823,23.086527 17.505951,23.116359 17.601476,23.116359 C 17.719052,23.116359 17.807229,23.072919 17.866021,22.986038 C 17.925855,22.898111 17.955771,22.766745 17.955771,22.591936 L 17.955771,21.199233 L 18.395099,21.199233 L 18.395099,22.588796 M 19.621748,21.78489 C 19.867388,21.784892 20.063171,21.860258 20.209092,22.010988 C 20.355005,22.161722 20.427961,22.364269 20.427961,22.618628 C 20.427961,22.894972 20.349754,23.110602 20.193339,23.265521 C 20.036925,23.419394 19.826977,23.49633 19.563488,23.49633 C 19.320986,23.49633 19.123637,23.42044 18.971417,23.268661 C 18.820254,23.116883 18.744668,22.918 18.744668,22.672013 C 18.744668,22.395671 18.823924,22.178993 18.982443,22.02198 C 19.140955,21.863922 19.354056,21.784892 19.621748,21.78489 M 19.585532,23.158753 C 19.713603,23.158753 19.817524,23.113219 19.897312,23.022151 C 19.978141,22.930037 20.018559,22.804951 20.018559,22.646891 C 20.018559,22.486739 19.978665,22.360605 19.898885,22.26849 C 19.819097,22.17533 19.716748,22.128749 19.591831,22.128748 C 19.467955,22.128749 19.362977,22.177423 19.276898,22.27477 C 19.190818,22.371072 19.147778,22.498253 19.147778,22.656311 C 19.147778,22.812278 19.18977,22.935272 19.273752,23.025291 C 19.358783,23.114266 19.462704,23.158753 19.585532,23.158753 M 22.260854,23.450796 L 21.838843,23.450796 L 21.838843,22.569954 C 21.838843,22.422363 21.816275,22.315595 21.771138,22.249648 C 21.725993,22.182658 21.648834,22.149161 21.539662,22.14916 C 21.44413,22.149161 21.364874,22.185274 21.301895,22.257499 C 21.238908,22.329726 21.207411,22.42184 21.207411,22.533841 L 21.207411,23.450796 L 20.780683,23.450796 L 20.780683,21.070482 L 21.207411,21.070482 L 21.207411,22.067513 C 21.265147,21.973307 21.337054,21.902651 21.423142,21.855546 C 21.51027,21.808443 21.61157,21.784892 21.727042,21.78489 C 21.904451,21.784892 22.037773,21.839846 22.127006,21.949754 C 22.216232,22.059664 22.260844,22.224528 22.260854,22.444344 L 22.260854,23.450796 M 24.194514,23.450796 L 23.772504,23.450796 L 23.772504,22.569954 C 23.772504,22.422363 23.749934,22.315595 23.704794,22.249648 C 23.659654,22.182658 23.582504,22.149161 23.473324,22.14916 C 23.377794,22.149161 23.298544,22.185274 23.235554,22.257499 C 23.172564,22.329726 23.141074,22.42184 23.141074,22.533841 L 23.141074,23.450796 L 22.714344,23.450796 L 22.714344,21.842985 L 23.141074,21.842985 L 23.141074,22.067513 C 23.198814,21.973307 23.270724,21.902651 23.356804,21.855546 C 23.443924,21.808443 23.545224,21.784892 23.660704,21.78489 C 23.838114,21.784892 23.971434,21.839846 24.060664,21.949754 C 24.149894,22.059664 24.194514,22.224528 24.194514,22.444344 L 24.194514,23.450796 M 25.575474,21.199233 L 26.365944,21.199233 C 26.748054,21.199235 27.034644,21.290825 27.225704,21.474005 C 27.417804,21.657188 27.513854,21.931437 27.513854,22.296752 C 27.513854,22.649508 27.405734,22.930037 27.189484,23.138341 C 26.974274,23.346644 26.682444,23.450796 26.313974,23.450796 L 25.575474,23.450796 L 25.575474,21.199233 M 26.014794,23.103798 L 26.304534,23.103798 C 26.541774,23.103798 26.728114,23.033143 26.863534,22.891831 C 27.000004,22.75052 27.068224,22.557394 27.068234,22.312453 C 27.068224,22.074842 27.002094,21.890091 26.869834,21.758198 C 26.737554,21.626309 26.553324,21.560363 26.317134,21.560362 L 26.014794,21.560362 L 26.014794,23.103798 M 28.641304,21.78489 C 28.886944,21.784892 29.082724,21.860258 29.228644,22.010988 C 29.374554,22.161722 29.447524,22.364269 29.447524,22.618628 C 29.447524,22.894972 29.369314,23.110602 29.212904,23.265521 C 29.056484,23.419394 28.846534,23.49633 28.583044,23.49633 C 28.340544,23.49633 28.143194,23.42044 27.990974,23.268661 C 27.839804,23.116883 27.764224,22.918 27.764224,22.672013 C 27.764224,22.395671 27.843484,22.178993 28.001994,22.02198 C 28.160504,21.863922 28.373614,21.784892 28.641304,21.78489 M 28.605084,23.158753 C 28.733154,23.158753 28.837084,23.113219 28.916864,23.022151 C 28.997694,22.930037 29.038114,22.804951 29.038114,22.646891 C 29.038114,22.486739 28.998214,22.360605 28.918434,22.26849 C 28.838654,22.17533 28.736304,22.128749 28.611384,22.128748 C 28.487504,22.128749 28.382534,22.177423 28.296454,22.27477 C 28.210374,22.371072 28.167334,22.498253 28.167334,22.656311 C 28.167334,22.812278 28.209324,22.935272 28.293304,23.025291 C 28.378334,23.114266 28.482264,23.158753 28.605084,23.158753 M 31.187504,22.739528 L 30.113594,22.739528 C 30.113594,22.87142 30.154004,22.974001 30.234844,23.047273 C 30.316724,23.1195 30.430094,23.155613 30.574964,23.155612 C 30.734524,23.155613 30.888324,23.107985 31.036334,23.01273 L 31.036334,23.361299 C 30.870474,23.447133 30.684664,23.49005 30.478914,23.49005 C 30.230114,23.49005 30.035394,23.4173 29.894724,23.271801 C 29.755104,23.126303 29.685284,22.927421 29.685284,22.675153 C 29.685284,22.402998 29.759824,22.186321 29.908894,22.025119 C 30.059004,21.862875 30.256364,21.781752 30.500954,21.78175 C 30.716154,21.781752 30.884114,21.848743 31.004844,21.982726 C 31.126614,22.115665 31.187504,22.301463 31.187504,22.540122 L 31.187504,22.739528 M 30.793834,22.456905 C 30.793834,22.344903 30.765494,22.2575 30.708804,22.194694 C 30.653174,22.13189 30.573914,22.100488 30.471034,22.100486 C 30.377614,22.100488 30.296774,22.132936 30.228544,22.197834 C 30.160304,22.261687 30.121994,22.348044 30.113594,22.456905 L 30.793834,22.456905" id="text6970" inkscape:r_cx="true" inkscape:r_cy="true"/>
    <rect style="opacity:0.3976608;color:#000000;fill:#8d8d8d;fill-opacity:1;fill-rule:evenodd;stroke:none;stroke-width:1;stroke-linecap:butt;stroke-linejoin:miter;marker:none;marker-start:none;marker-mid:none;marker-end:none;stroke-miterlimit:4;stroke-dasharray:none;stroke-dashoffset:0;stroke-opacity:1;visibility:visible;display:inline;overflow:visible" id="rect6978" width="15" height="2" x="17" y="25" rx="1" ry="1" inkscape:r_cx="true" inkscape:r_cy="true"/>
    <rect ry="1" rx="1" y="28" x="17.089211" height="2" width="10.955575" id="rect6980" style="opacity:0.3976608;color:#000000;fill:#8d8d8d;fill-opacity:1;fill-rule:evenodd;stroke:none;stroke-width:1;stroke-linecap:butt;stroke-linejoin:miter;marker:none;marker-start:none;marker-mid:none;marker-end:none;stroke-miterlimit:4;stroke-dasharray:none;stroke-dashoffset:0;stroke-opacity:1;visibility:visible;display:inline;overflow:visible" inkscape:r_cx="true" inkscape:r_cy="true"/>
    <g id="g7033" transform="matrix(0.782541,0,0,0.650248,0.39068,14.55146)" style="opacity:0.48538011" inkscape:r_cx="true" inkscape:r_cy="true">
      <rect ry="0" rx="0" y="30" x="6" height="6" width="1" id="rect7003" style="opacity:1;color:#000000;fill:#000000;fill-opacity:1;fill-rule:evenodd;stroke:none;stroke-width:1;stroke-linecap:butt;stroke-linejoin:miter;marker:none;marker-start:none;marker-mid:none;marker-end:none;stroke-miterlimit:4;stroke-dasharray:none;stroke-dashoffset:0;stroke-opacity:1;visibility:visible;display:inline;overflow:visible" inkscape:r_cx="true" inkscape:r_cy="true"/>
      <rect style="opacity:1;color:#000000;fill:#000000;fill-opacity:1;fill-rule:evenodd;stroke:none;stroke-width:1;stroke-linecap:butt;stroke-linejoin:miter;marker:none;marker-start:none;marker-mid:none;marker-end:none;stroke-miterlimit:4;stroke-dasharray:none;stroke-dashoffset:0;stroke-opacity:1;visibility:visible;display:inline;overflow:visible" id="rect7005" width="1.9375" height="2.9851687" x="8.0846453" y="30" rx="0" ry="0" inkscape:r_cx="true" inkscape:r_cy="true"/>
      <rect y="30" x="11" height="2.9851687" width="1" id="rect7007" style="opacity:1;color:#000000;fill:#000000;fill-opacity:1;fill-rule:evenodd;stroke:none;stroke-width:1;stroke-linecap:butt;stroke-linejoin:miter;marker:none;marker-start:none;marker-mid:none;marker-end:none;stroke-miterlimit:4;stroke-dasharray:none;stroke-dashoffset:0;stroke-opacity:1;visibility:visible;display:inline;overflow:visible" inkscape:r_cx="true" inkscape:r_cy="true"/>
      <rect y="30" x="13" height="2.9851687" width="2" id="rect7009" style="opacity:1;color:#000000;fill:#000000;fill-opacity:1;fill-rule:evenodd;stroke:none;stroke-width:1;stroke-linecap:butt;stroke-linejoin:miter;marker:none;marker-start:none;marker-mid:none;marker-end:none;stroke-miterlimit:4;stroke-dasharray:none;stroke-dashoffset:0;stroke-opacity:1;visibility:visible;display:inline;overflow:visible" inkscape:r_cx="true" inkscape:r_cy="true"/>
      <rect y="30" x="16" height="2.9851687" width="1" id="rect7011" style="opacity:1;color:#000000;fill:#000000;fill-opacity:1;fill-rule:evenodd;stroke:none;stroke-width:1;stroke-linecap:butt;stroke-linejoin:miter;marker:none;marker-start:none;marker-mid:none;marker-end:none;stroke-miterlimit:4;stroke-dasharray:none;stroke-dashoffset:0;stroke-opacity:1;visibility:visible;display:inline;overflow:visible" inkscape:r_cx="true" inkscape:r_cy="true"/>
      <rect y="30" x="18" height="2.9851687" width="1" id="rect7013" style="opacity:1;color:#000000;fill:#000000;fill-opacity:1;fill-rule:evenodd;stroke:none;stroke-width:1;stroke-linecap:butt;stroke-linejoin:miter;marker:none;marker-start:none;marker-mid:none;marker-end:none;stroke-miterlimit:4;stroke-dasharray:none;stroke-dashoffset:0;stroke-opacity:1;visibility:visible;display:inline;overflow:visible" inkscape:r_cx="true" inkscape:r_cy="true"/>
      <rect y="30" x="21" height="2.9851687" width="1" id="rect7015" style="opacity:1;color:#000000;fill:#000000;fill-opacity:1;fill-rule:evenodd;stroke:none;stroke-width:1;stroke-linecap:butt;stroke-linejoin:miter;marker:none;marker-start:none;marker-mid:none;marker-end:none;stroke-miterlimit:4;stroke-dasharray:none;stroke-dashoffset:0;stroke-opacity:1;visibility:visible;display:inline;overflow:visible" inkscape:r_cx="true" inkscape:r_cy="true"/>
      <rect y="30" x="23" height="2.9851687" width="2" id="rect7017" style="opacity:1;color:#000000;fill:#000000;fill-opacity:1;fill-rule:evenodd;stroke:none;stroke-width:1;stroke-linecap:butt;stroke-linejoin:miter;marker:none;marker-start:none;marker-mid:none;marker-end:none;stroke-miterlimit:4;stroke-dasharray:none;stroke-dashoffset:0;stroke-opacity:1;visibility:visible;display:inline;overflow:visible" inkscape:r_cx="true" inkscape:r_cy="true"/>
      <rect y="30" x="26" height="2.9851687" width="2" id="rect7019" style="opacity:1;color:#000000;fill:#000000;fill-opacity:1;fill-rule:evenodd;stroke:none;stroke-width:1;stroke-linecap:butt;stroke-linejoin:miter;marker:none;marker-start:none;marker-mid:none;marker-end:none;stroke-miterlimit:4;stroke-dasharray:none;stroke-dashoffset:0;stroke-opacity:1;visibility:visible;display:inline;overflow:visible" inkscape:r_cx="true" inkscape:r_cy="true"/>
      <rect y="30" x="29" height="2.9851687" width="1" id="rect7021" style="opacity:1;color:#000000;fill:#000000;fill-opacity:1;fill-rule:evenodd;stroke:none;stroke-width:1;stroke-linecap:butt;stroke-linejoin:miter;marker:none;marker-start:none;marker-mid:none;marker-end:none;stroke-miterlimit:4;stroke-dasharray:none;stroke-dashoffset:0;stroke-opacity:1;visibility:visible;display:inline;overflow:visible" inkscape:r_cx="true" inkscape:r_cy="true"/>
      <rect y="30" x="31" height="2.9851687" width="1" id="rect7023" style="opacity:1;color:#000000;fill:#000000;fill-opacity:1;fill-rule:evenodd;stroke:none;stroke-width:1;stroke-linecap:butt;stroke-linejoin:miter;marker:none;marker-start:none;marker-mid:none;marker-end:none;stroke-miterlimit:4;stroke-dasharray:none;stroke-dashoffset:0;stroke-opacity:1;visibility:visible;display:inline;overflow:visible" inkscape:r_cx="true" inkscape:r_cy="true"/>
      <rect y="30" x="33" height="2.9851687" width="1" id="rect7025" style="opacity:1;color:#000000;fill:#000000;fill-opacity:1;fill-rule:evenodd;stroke:none;stroke-width:1;stroke-linecap:butt;stroke-linejoin:miter;marker:none;marker-start:none;marker-mid:none;marker-end:none;stroke-miterlimit:4;stroke-dasharray:none;stroke-dashoffset:0;stroke-opacity:1;visibility:visible;display:inline;overflow:visible" inkscape:r_cx="true" inkscape:r_cy="true"/>
      <rect y="30" x="35" height="2.9851687" width="2" id="rect7027" style="opacity:1;color:#000000;fill:#000000;fill-opacity:1;fill-rule:evenodd;stroke:none;stroke-width:1;stroke-linecap:butt;stroke-linejoin:miter;marker:none;marker-start:none;marker-mid:none;marker-end:none;stroke-miterlimit:4;stroke-dasharray:none;stroke-dashoffset:0;stroke-opacity:1;visibility:visible;display:inline;overflow:visible" inkscape:r_cx="true" inkscape:r_cy="true"/>
      <rect y="30" x="39" height="2.9851687" width="2" id="rect7029" style="opacity:1;color:#000000;fill:#000000;fill-opacity:1;fill-rule:evenodd;stroke:none;stroke-width:1;stroke-linecap:butt;stroke-linejoin:miter;marker:none;marker-start:none;marker-mid:none;marker-end:none;stroke-miterlimit:4;stroke-dasharray:none;stroke-dashoffset:0;stroke-opacity:1;visibility:visible;display:inline;overflow:visible" inkscape:r_cx="true" inkscape:r_cy="true"/>
      <rect y="30" x="42" height="6" width="1" id="rect7031" style="opacity:1;color:#000000;fill:#000000;fill-opacity:1;fill-rule:evenodd;stroke:none;stroke-width:1;stroke-linecap:butt;stroke-linejoin:miter;marker:none;marker-start:none;marker-mid:none;marker-end:none;stroke-miterlimit:4;stroke-dasharray:none;stroke-dashoffset:0;stroke-opacity:1;visibility:visible;display:inline;overflow:visible" inkscape:r_cx="true" inkscape:r_cy="true"/>
    </g>
    <path style="font-size:1.58812129px;font-style:normal;font-variant:normal;font-weight:normal;font-stretch:normal;line-height:120.00000477%;writing-mode:lr-tb;text-anchor:start;fill:#000000;fill-opacity:1;stroke:none;stroke-width:1pt;stroke-linecap:butt;stroke-linejoin:miter;stroke-opacity:1;font-family:Bitstream Vera Sans" d="M 7.4730264,37.137227 C 7.5316854,37.149733 7.5774014,37.175751 7.6101664,37.215282 C 7.6433384,37.254815 7.6599284,37.303625 7.6599284,37.361712 C 7.6599284,37.450861 7.6291824,37.51984 7.5676904,37.56865 C 7.5061984,37.61746 7.4188194,37.641865 7.3055464,37.641865 C 7.2675154,37.641865 7.2282704,37.638033 7.1878214,37.630369 C 7.1477704,37.623107 7.1063044,37.612014 7.0634204,37.597089 L 7.0634204,37.479098 C 7.0974064,37.498864 7.1346244,37.51379 7.1750734,37.523874 C 7.2155314,37.533959 7.2578044,37.539001 7.3019004,37.539001 C 7.3787694,37.539001 7.4372254,37.523874 7.4772754,37.49362 C 7.5177254,37.463366 7.5379534,37.419396 7.5379534,37.361712 C 7.5379534,37.308466 7.5191414,37.266916 7.4815244,37.237065 C 7.4442994,37.206811 7.3923154,37.191685 7.3255724,37.191685 L 7.2199834,37.191685 L 7.2199834,37.091241 L 7.3304234,37.091241 C 7.3907034,37.091242 7.4368184,37.079341 7.4687774,37.055541 C 7.5007364,37.031338 7.5167154,36.996647 7.5167154,36.951467 C 7.5167154,36.905078 7.5001334,36.86958 7.4669614,36.844973 C 7.4341884,36.819963 7.3870564,36.807458 7.3255724,36.807458 C 7.2919934,36.807458 7.2559884,36.811089 7.2175574,36.818349 C 7.1791194,36.82561 7.1368464,36.836906 7.0907314,36.852233 L 7.0907314,36.743319 C 7.1372534,36.730411 7.1807394,36.72073 7.2211964,36.714275 C 7.2620534,36.707821 7.3004834,36.704595 7.3364884,36.704593 C 7.4295404,36.704595 7.5031624,36.725772 7.5573764,36.768128 C 7.6115834,36.81008 7.6386904,36.866958 7.6386904,36.938761 C 7.6386904,36.988781 7.6243224,37.031137 7.5956034,37.065827 C 7.5668844,37.100116 7.5260204,37.123916 7.4730264,37.137227 M 7.9985334,37.521454 L 8.4263414,37.521454 L 8.4263414,37.624317 L 7.8510714,37.624317 L 7.8510714,37.521454 C 7.8976014,37.473451 7.9609094,37.409111 8.0410104,37.328433 C 8.1215184,37.247352 8.1720854,37.195113 8.1927134,37.171717 C 8.2319584,37.127748 8.2592614,37.090636 8.2746374,37.060382 C 8.2904134,37.029725 8.2983024,36.999672 8.2983024,36.970225 C 8.2983024,36.922222 8.2813134,36.883093 8.2473274,36.852839 C 8.2137484,36.822585 8.1698554,36.807458 8.1156494,36.807458 C 8.0772184,36.807458 8.0365574,36.814114 7.9936824,36.827425 C 7.9511984,36.840738 7.9056934,36.860907 7.8571444,36.887934 L 7.8571444,36.764497 C 7.9064994,36.744732 7.9526144,36.729806 7.9954974,36.719721 C 8.0383804,36.709637 8.0776254,36.704595 8.1132234,36.704593 C 8.2070734,36.704595 8.2819154,36.727991 8.3377494,36.774783 C 8.3935764,36.821577 8.4214894,36.884102 8.4214894,36.962358 C 8.4214894,36.999471 8.4144074,37.034767 8.4002514,37.068248 C 8.3864944,37.101326 8.3612104,37.140454 8.3243994,37.185633 C 8.3142814,37.197332 8.2821194,37.231217 8.2279124,37.287287 C 8.1737054,37.342955 8.0972434,37.42101 7.9985334,37.521454 M 9.0210254,36.827425 L 8.7115464,37.309675 L 9.0210254,37.309675 L 9.0210254,36.827425 M 8.9888634,36.720931 L 9.1430004,36.720931 L 9.1430004,37.309675 L 9.2722524,37.309675 L 9.2722524,37.411329 L 9.1430004,37.411329 L 9.1430004,37.624317 L 9.0210254,37.624317 L 9.0210254,37.411329 L 8.6120304,37.411329 L 8.6120304,37.293338 L 8.9888634,36.720931 M 9.4767544,36.720931 L 9.9579627,36.720931 L 9.9579627,36.823795 L 9.5890094,36.823795 L 9.5890094,37.045255 C 9.6068124,37.039204 9.6246154,37.034767 9.6424104,37.031943 C 9.6602134,37.028716 9.6780154,37.027103 9.6958104,37.027102 C 9.7969464,37.027103 9.8770474,37.054735 9.9361137,37.109998 C 9.9951797,37.165263 10.024713,37.240091 10.024713,37.334484 C 10.024713,37.4317 9.9943657,37.507335 9.9336877,37.561389 C 9.8730014,37.61504 9.7874464,37.641865 9.6769984,37.641865 C 9.6389744,37.641865 9.6001374,37.638638 9.5604934,37.632184 C 9.5212494,37.62573 9.4805964,37.616048 9.4385194,37.603139 L 9.4385194,37.480308 C 9.4749304,37.500075 9.5125554,37.514798 9.5513924,37.524479 C 9.5902224,37.53416 9.6312904,37.539001 9.6745724,37.539001 C 9.7445634,37.539001 9.7999824,37.520647 9.8408464,37.483939 C 9.8817034,37.44723 9.9021354,37.397412 9.9021354,37.334484 C 9.9021354,37.271555 9.8817034,37.221737 9.8408464,37.185029 C 9.7999824,37.14832 9.7445634,37.129966 9.6745724,37.129966 C 9.6418074,37.129966 9.6090344,37.133597 9.5762694,37.140858 C 9.5439034,37.148119 9.5107324,37.159414 9.4767544,37.174742 L 9.4767544,36.720931 M 10.924628,36.801406 C 10.861516,36.801407 10.813984,36.832469 10.782025,36.89459 C 10.750465,36.956308 10.734689,37.049289 10.734689,37.173532 C 10.734689,37.297372 10.750465,37.390353 10.782025,37.452474 C 10.813984,37.514193 10.861516,37.545052 10.924628,37.545052 C 10.988139,37.545052 11.035678,37.514193 11.06723,37.452474 C 11.099189,37.390353 11.115169,37.297372 11.115169,37.173532 C 11.115169,37.049289 11.099189,36.956308 11.06723,36.89459 C 11.035678,36.832469 10.988139,36.801407 10.924628,36.801406 M 10.924628,36.704593 C 11.02617,36.704595 11.103642,36.744732 11.157042,36.825005 C 11.210842,36.904876 11.237746,37.021052 11.237746,37.173532 C 11.237746,37.325609 11.210842,37.441785 11.157042,37.522059 C 11.103642,37.60193 11.02617,37.641865 10.924628,37.641865 C 10.823085,37.641865 10.74541,37.60193 10.691611,37.522059 C 10.63821,37.441785 10.61151,37.325609 10.61151,37.173532 C 10.61151,37.021052 10.63821,36.904876 10.691611,36.825005 C 10.74541,36.744732 10.823085,36.704595 10.924628,36.704593 M 11.454987,36.720931 L 11.936195,36.720931 L 11.936195,36.823795 L 11.56725,36.823795 L 11.56725,37.045255 C 11.585053,37.039204 11.602848,37.034767 11.620651,37.031943 C 11.638454,37.028716 11.656249,37.027103 11.674052,37.027102 C 11.775187,37.027103 11.855288,37.054735 11.914354,37.109998 C 11.973413,37.165263 12.002946,37.240091 12.002946,37.334484 C 12.002946,37.4317 11.972607,37.507335 11.911929,37.561389 C 11.851242,37.61504 11.765679,37.641865 11.655239,37.641865 C 11.617216,37.641865 11.578378,37.638638 11.538727,37.632184 C 11.49949,37.62573 11.458829,37.616048 11.41676,37.603139 L 11.41676,37.480308 C 11.453172,37.500075 11.490788,37.514798 11.529626,37.524479 C 11.568463,37.53416 11.609523,37.539001 11.652814,37.539001 C 11.722796,37.539001 11.778224,37.520647 11.81908,37.483939 C 11.859937,37.44723 11.880369,37.397412 11.880369,37.334484 C 11.880369,37.271555 11.859937,37.221737 11.81908,37.185029 C 11.778224,37.14832 11.722796,37.129966 11.652814,37.129966 C 11.620041,37.129966 11.587276,37.133597 11.554511,37.140858 C 11.522145,37.148119 11.488973,37.159414 11.454987,37.174742 L 11.454987,36.720931 M 12.246285,36.720931 L 12.727493,36.720931 L 12.727493,36.823795 L 12.358548,36.823795 L 12.358548,37.045255 C 12.376343,37.039204 12.394146,37.034767 12.411949,37.031943 C 12.429744,37.028716 12.447547,37.027103 12.465349,37.027102 C 12.566485,37.027103 12.646586,37.054735 12.705644,37.109998 C 12.764711,37.165263 12.794244,37.240091 12.794244,37.334484 C 12.794244,37.4317 12.763904,37.507335 12.703218,37.561389 C 12.64254,37.61504 12.556977,37.641865 12.446537,37.641865 C 12.408506,37.641865 12.369668,37.638638 12.330025,37.632184 C 12.29078,37.62573 12.250127,37.616048 12.208058,37.603139 L 12.208058,37.480308 C 12.244462,37.500075 12.282086,37.514798 12.320924,37.524479 C 12.359761,37.53416 12.400821,37.539001 12.444111,37.539001 C 12.514094,37.539001 12.569513,37.520647 12.610378,37.483939 C 12.651234,37.44723 12.671666,37.397412 12.671666,37.334484 C 12.671666,37.271555 12.651234,37.221737 12.610378,37.185029 C 12.569513,37.14832 12.514094,37.129966 12.444111,37.129966 C 12.411338,37.129966 12.378573,37.133597 12.345801,37.140858 C 12.313435,37.148119 12.280263,37.159414 12.246285,37.174742 L 12.246285,36.720931 M 13.00542,36.720931 L 13.587967,36.720931 L 13.587967,36.772968 L 13.259065,37.624317 L 13.131026,37.624317 L 13.440505,36.823795 L 13.00542,36.823795 L 13.00542,36.720931 M 14.224525,36.720931 L 14.705733,36.720931 L 14.705733,36.823795 L 14.336781,36.823795 L 14.336781,37.045255 C 14.354584,37.039204 14.372386,37.034767 14.390181,37.031943 C 14.407984,37.028716 14.425787,37.027103 14.443582,37.027102 C 14.544718,37.027103 14.624818,37.054735 14.683885,37.109998 C 14.742951,37.165263 14.772484,37.240091 14.772484,37.334484 C 14.772484,37.4317 14.742137,37.507335 14.681459,37.561389 C 14.620773,37.61504 14.53521,37.641865 14.42477,37.641865 C 14.386746,37.641865 14.347909,37.638638 14.308265,37.632184 C 14.269021,37.62573 14.228368,37.616048 14.18629,37.603139 L 14.18629,37.480308 C 14.222702,37.500075 14.260327,37.514798 14.299164,37.524479 C 14.337994,37.53416 14.379061,37.539001 14.422344,37.539001 C 14.492334,37.539001 14.547754,37.520647 14.58861,37.483939 C 14.629475,37.44723 14.649899,37.397412 14.649907,37.334484 C 14.649899,37.271555 14.629475,37.221737 14.58861,37.185029 C 14.547754,37.14832 14.492334,37.129966 14.422344,37.129966 C 14.389579,37.129966 14.356806,37.133597 14.324041,37.140858 C 14.291675,37.148119 14.258503,37.159414 14.224525,37.174742 L 14.224525,36.720931 M 15.03584,37.521454 L 15.236093,37.521454 L 15.236093,36.832266 L 15.018241,36.875832 L 15.018241,36.764497 L 15.23488,36.720931 L 15.357457,36.720931 L 15.357457,37.521454 L 15.557709,37.521454 L 15.557709,37.624317 L 15.03584,37.624317 L 15.03584,37.521454 M 16.068043,36.801406 C 16.004931,36.801407 15.9574,36.832469 15.925441,36.89459 C 15.893889,36.956308 15.878113,37.049289 15.878113,37.173532 C 15.878113,37.297372 15.893889,37.390353 15.925441,37.452474 C 15.9574,37.514193 16.004931,37.545052 16.068043,37.545052 C 16.131554,37.545052 16.179094,37.514193 16.210646,37.452474 C 16.242605,37.390353 16.258584,37.297372 16.258584,37.173532 C 16.258584,37.049289 16.242605,36.956308 16.210646,36.89459 C 16.179094,36.832469 16.131554,36.801407 16.068043,36.801406 M 16.068043,36.704593 C 16.169586,36.704595 16.247057,36.744732 16.300458,36.825005 C 16.354258,36.904876 16.381162,37.021052 16.381162,37.173532 C 16.381162,37.325609 16.354258,37.441785 16.300458,37.522059 C 16.247057,37.60193 16.169586,37.641865 16.068043,37.641865 C 15.966501,37.641865 15.888834,37.60193 15.835026,37.522059 C 15.781626,37.441785 15.754925,37.325609 15.754925,37.173532 C 15.754925,37.021052 15.781626,36.904876 15.835026,36.825005 C 15.888834,36.744732 15.966501,36.704595 16.068043,36.704593 M 16.874507,37.123915 C 16.819494,37.123916 16.775797,37.142673 16.743439,37.180188 C 16.71148,37.217703 16.6955,37.269135 16.6955,37.334484 C 16.6955,37.399429 16.71148,37.450861 16.743439,37.488779 C 16.775797,37.526294 16.819494,37.545052 16.874507,37.545052 C 16.929527,37.545052 16.973021,37.526294 17.00498,37.488779 C 17.037338,37.450861 17.053521,37.399429 17.053521,37.334484 C 17.053521,37.269135 17.037338,37.217703 17.00498,37.180188 C 16.973021,37.142673 16.929527,37.123916 16.874507,37.123915 M 17.117846,36.740898 L 17.117846,36.852233 C 17.0871,36.837712 17.055947,36.826619 17.024395,36.818954 C 16.993242,36.81129 16.9623,36.807458 16.931554,36.807458 C 16.850639,36.807458 16.788748,36.834687 16.745865,36.889144 C 16.703388,36.943602 16.679114,37.025893 16.673049,37.136017 C 16.696917,37.100923 16.726849,37.074098 16.762854,37.055541 C 16.798858,37.036583 16.838502,37.027103 16.881792,37.027102 C 16.972817,37.027103 17.044623,37.054735 17.09721,37.109998 C 17.150212,37.16486 17.176708,37.239688 17.176708,37.334484 C 17.176708,37.427263 17.149194,37.501688 17.094182,37.557759 C 17.039161,37.613829 16.965939,37.641865 16.874507,37.641865 C 16.769732,37.641865 16.689631,37.60193 16.634212,37.522059 C 16.578784,37.441785 16.551075,37.325609 16.551075,37.173532 C 16.551075,37.030733 16.585053,36.916978 16.653024,36.832266 C 16.720988,36.747152 16.812209,36.704595 16.926694,36.704593 C 16.95744,36.704595 16.98839,36.70762 17.019543,36.71367 C 17.051095,36.719722 17.08386,36.728798 17.117846,36.740898 M 17.785345,36.720931 L 18.266559,36.720931 L 18.266559,36.823795 L 17.897606,36.823795 L 17.897606,37.045255 C 17.915409,37.039204 17.933212,37.034767 17.951007,37.031943 C 17.96881,37.028716 17.986613,37.027103 18.004408,37.027102 C 18.105543,37.027103 18.185644,37.054735 18.24471,37.109998 C 18.303777,37.165263 18.33331,37.240091 18.33331,37.334484 C 18.33331,37.4317 18.302963,37.507335 18.242284,37.561389 C 18.181598,37.61504 18.096035,37.641865 17.985595,37.641865 C 17.947572,37.641865 17.908734,37.638638 17.869091,37.632184 C 17.829846,37.62573 17.789193,37.616048 17.747118,37.603139 L 17.747118,37.480308 C 17.78353,37.500075 17.821152,37.514798 17.85999,37.524479 C 17.898819,37.53416 17.939887,37.539001 17.983169,37.539001 C 18.05316,37.539001 18.108579,37.520647 18.149436,37.483939 C 18.1903,37.44723 18.210725,37.397412 18.210732,37.334484 C 18.210725,37.271555 18.1903,37.221737 18.149436,37.185029 C 18.108579,37.14832 18.05316,37.129966 17.983169,37.129966 C 17.950404,37.129966 17.917632,37.133597 17.884867,37.140858 C 17.852501,37.148119 17.819329,37.159414 17.785345,37.174742 L 17.785345,36.720931 M 18.912218,36.827425 L 18.602739,37.309675 L 18.912218,37.309675 L 18.912218,36.827425 M 18.880055,36.720931 L 19.034185,36.720931 L 19.034185,37.309675 L 19.163437,37.309675 L 19.163437,37.411329 L 19.034185,37.411329 L 19.034185,37.624317 L 18.912218,37.624317 L 18.912218,37.411329 L 18.503215,37.411329 L 18.503215,37.293338 L 18.880055,36.720931 M 19.628869,36.801406 C 19.565757,36.801407 19.518226,36.832469 19.486267,36.89459 C 19.454714,36.956308 19.438938,37.049289 19.438938,37.173532 C 19.438938,37.297372 19.454714,37.390353 19.486267,37.452474 C 19.518226,37.514193 19.565757,37.545052 19.628869,37.545052 C 19.69238,37.545052 19.739919,37.514193 19.771471,37.452474 C 19.80343,37.390353 19.81941,37.297372 19.81941,37.173532 C 19.81941,37.049289 19.80343,36.956308 19.771471,36.89459 C 19.739919,36.832469 19.69238,36.801407 19.628869,36.801406 M 19.628869,36.704593 C 19.730412,36.704595 19.807883,36.744732 19.861284,36.825005 C 19.915083,36.904876 19.941987,37.021052 19.941987,37.173532 C 19.941987,37.325609 19.915083,37.441785 19.861284,37.522059 C 19.807883,37.60193 19.730412,37.641865 19.628869,37.641865 C 19.527326,37.641865 19.449651,37.60193 19.395852,37.522059 C 19.342451,37.441785 19.315751,37.325609 19.315751,37.173532 C 19.315751,37.021052 19.342451,36.904876 19.395852,36.825005 C 19.449651,36.744732 19.527326,36.704595 19.628869,36.704593 M 20.435332,37.123915 C 20.38032,37.123916 20.336623,37.142673 20.304265,37.180188 C 20.272306,37.217703 20.256326,37.269135 20.256326,37.334484 C 20.256326,37.399429 20.272306,37.450861 20.304265,37.488779 C 20.336623,37.526294 20.38032,37.545052 20.435332,37.545052 C 20.490353,37.545052 20.533839,37.526294 20.565798,37.488779 C 20.598164,37.450861 20.614346,37.399429 20.614346,37.334484 C 20.614346,37.269135 20.598164,37.217703 20.565798,37.180188 C 20.533839,37.142673 20.490353,37.123916 20.435332,37.123915 M 20.678671,36.740898 L 20.678671,36.852233 C 20.647925,36.837712 20.616772,36.826619 20.58522,36.818954 C 20.554067,36.81129 20.523118,36.807458 20.49238,36.807458 C 20.411465,36.807458 20.349574,36.834687 20.30669,36.889144 C 20.264214,36.943602 20.23994,37.025893 20.233867,37.136017 C 20.257735,37.100923 20.287675,37.074098 20.323679,37.055541 C 20.359684,37.036583 20.399328,37.027103 20.442618,37.027102 C 20.533643,37.027103 20.605449,37.054735 20.658036,37.109998 C 20.711037,37.16486 20.737534,37.239688 20.737534,37.334484 C 20.737534,37.427263 20.71002,37.501688 20.655007,37.557759 C 20.599987,37.613829 20.526764,37.641865 20.435332,37.641865 C 20.330558,37.641865 20.250457,37.60193 20.195037,37.522059 C 20.13961,37.441785 20.1119,37.325609 20.1119,37.173532 C 20.1119,37.030733 20.145878,36.916978 20.213842,36.832266 C 20.281806,36.747152 20.373034,36.704595 20.48752,36.704593 C 20.518266,36.704595 20.549216,36.70762 20.580369,36.71367 C 20.611921,36.719722 20.644686,36.728798 20.678671,36.740898 M 21.346171,36.720931 L 21.827387,36.720931 L 21.827387,36.823795 L 21.458434,36.823795 L 21.458434,37.045255 C 21.476237,37.039204 21.49404,37.034767 21.511835,37.031943 C 21.529638,37.028716 21.547433,37.027103 21.565236,37.027102 C 21.666371,37.027103 21.746472,37.054735 21.805538,37.109998 C 21.864605,37.165263 21.89413,37.240091 21.894138,37.334484 C 21.89413,37.4317 21.863791,37.507335 21.803112,37.561389 C 21.742426,37.61504 21.656863,37.641865 21.546423,37.641865 C 21.5084,37.641865 21.469562,37.638638 21.429919,37.632184 C 21.390674,37.62573 21.350021,37.616048 21.307944,37.603139 L 21.307944,37.480308 C 21.344356,37.500075 21.38198,37.514798 21.42081,37.524479 C 21.459647,37.53416 21.500715,37.539001 21.543997,37.539001 C 21.613988,37.539001 21.669407,37.520647 21.710264,37.483939 C 21.751128,37.44723 21.771553,37.397412 21.771553,37.334484 C 21.771553,37.271555 21.751128,37.221737 21.710264,37.185029 C 21.669407,37.14832 21.613988,37.129966 21.543997,37.129966 C 21.511232,37.129966 21.47846,37.133597 21.445695,37.140858 C 21.413329,37.148119 21.380157,37.159414 21.346171,37.174742 L 21.346171,36.720931 M 22.473038,36.827425 L 22.163568,37.309675 L 22.473038,37.309675 L 22.473038,36.827425 M 22.440888,36.720931 L 22.595008,36.720931 L 22.595008,37.309675 L 22.724268,37.309675 L 22.724268,37.411329 L 22.595008,37.411329 L 22.595008,37.624317 L 22.473038,37.624317 L 22.473038,37.411329 L 22.064038,37.411329 L 22.064038,37.293338 L 22.440888,36.720931 M 23.204868,37.123915 C 23.149848,37.123916 23.106158,37.142673 23.073798,37.180188 C 23.041838,37.217703 23.025858,37.269135 23.025858,37.334484 C 23.025858,37.399429 23.041838,37.450861 23.073798,37.488779 C 23.106158,37.526294 23.149848,37.545052 23.204868,37.545052 C 23.259888,37.545052 23.303378,37.526294 23.335338,37.488779 C 23.367698,37.450861 23.383878,37.399429 23.383888,37.334484 C 23.383878,37.269135 23.367698,37.217703 23.335338,37.180188 C 23.303378,37.142673 23.259888,37.123916 23.204868,37.123915 M 23.448198,36.740898 L 23.448198,36.852233 C 23.417458,36.837712 23.386308,36.826619 23.354748,36.818954 C 23.323608,36.81129 23.292658,36.807458 23.261908,36.807458 C 23.180998,36.807458 23.119108,36.834687 23.076218,36.889144 C 23.033748,36.943602 23.009468,37.025893 23.003408,37.136017 C 23.027268,37.100923 23.057208,37.074098 23.093208,37.055541 C 23.129218,37.036583 23.168868,37.027103 23.212148,37.027102 C 23.303178,37.027103 23.374978,37.054735 23.427578,37.109998 C 23.480568,37.16486 23.507068,37.239688 23.507068,37.334484 C 23.507068,37.427263 23.479558,37.501688 23.424538,37.557759 C 23.369518,37.613829 23.296298,37.641865 23.204868,37.641865 C 23.100088,37.641865 23.019988,37.60193 22.964568,37.522059 C 22.909138,37.441785 22.881428,37.325609 22.881428,37.173532 C 22.881428,37.030733 22.915418,36.916978 22.983378,36.832266 C 23.051348,36.747152 23.142568,36.704595 23.257058,36.704593 C 23.287798,36.704595 23.318748,36.70762 23.349898,36.71367 C 23.381448,36.719722 23.414228,36.728798 23.448198,36.740898 M 23.720058,36.720931 L 24.201268,36.720931 L 24.201268,36.823795 L 23.832318,36.823795 L 23.832318,37.045255 C 23.850118,37.039204 23.867928,37.034767 23.885718,37.031943 C 23.903528,37.028716 23.921318,37.027103 23.939118,37.027102 C 24.040258,37.027103 24.120358,37.054735 24.179428,37.109998 C 24.238488,37.165263 24.268018,37.240091 24.268018,37.334484 C 24.268018,37.4317 24.237678,37.507335 24.176998,37.561389 C 24.116308,37.61504 24.030748,37.641865 23.920308,37.641865 C 23.882288,37.641865 23.843448,37.638638 23.803808,37.632184 C 23.764558,37.62573 23.723908,37.616048 23.681828,37.603139 L 23.681828,37.480308 C 23.718238,37.500075 23.755868,37.514798 23.794698,37.524479 C 23.833528,37.53416 23.874598,37.539001 23.917878,37.539001 C 23.987878,37.539001 24.043288,37.520647 24.084148,37.483939 C 24.125018,37.44723 24.145438,37.397412 24.145438,37.334484 C 24.145438,37.271555 24.125018,37.221737 24.084148,37.185029 C 24.043288,37.14832 23.987878,37.129966 23.917878,37.129966 C 23.885118,37.129966 23.852348,37.133597 23.819578,37.140858 C 23.787218,37.148119 23.754038,37.159414 23.720058,37.174742 L 23.720058,36.720931 M 24.874838,36.720931 L 25.457388,36.720931 L 25.457388,36.772968 L 25.128488,37.624317 L 25.000448,37.624317 L 25.309928,36.823795 L 24.874838,36.823795 L 24.874838,36.720931 M 25.959238,36.801406 C 25.896128,36.801407 25.848588,36.832469 25.816628,36.89459 C 25.785068,36.956308 25.769298,37.049289 25.769298,37.173532 C 25.769298,37.297372 25.785068,37.390353 25.816628,37.452474 C 25.848588,37.514193 25.896128,37.545052 25.959238,37.545052 C 26.022748,37.545052 26.070278,37.514193 26.101838,37.452474 C 26.133798,37.390353 26.149778,37.297372 26.149778,37.173532 C 26.149778,37.049289 26.133798,36.956308 26.101838,36.89459 C 26.070278,36.832469 26.022748,36.801407 25.959238,36.801406 M 25.959238,36.704593 C 26.060768,36.704595 26.138238,36.744732 26.191638,36.825005 C 26.245448,36.904876 26.272358,37.021052 26.272358,37.173532 C 26.272358,37.325609 26.245448,37.441785 26.191638,37.522059 C 26.138238,37.60193 26.060768,37.641865 25.959238,37.641865 C 25.857688,37.641865 25.780018,37.60193 25.726208,37.522059 C 25.672808,37.441785 25.646108,37.325609 25.646108,37.173532 C 25.646108,37.021052 25.672808,36.904876 25.726208,36.825005 C 25.780018,36.744732 25.857688,36.704595 25.959238,36.704593 M 26.765698,37.123915 C 26.710678,37.123916 26.666988,37.142673 26.634618,37.180188 C 26.602668,37.217703 26.586688,37.269135 26.586688,37.334484 C 26.586688,37.399429 26.602668,37.450861 26.634618,37.488779 C 26.666988,37.526294 26.710678,37.545052 26.765698,37.545052 C 26.820708,37.545052 26.864208,37.526294 26.896168,37.488779 C 26.928518,37.450861 26.944708,37.399429 26.944708,37.334484 C 26.944708,37.269135 26.928518,37.217703 26.896168,37.180188 C 26.864208,37.142673 26.820708,37.123916 26.765698,37.123915 M 27.009028,36.740898 L 27.009028,36.852233 C 26.978288,36.837712 26.947128,36.826619 26.915578,36.818954 C 26.884438,36.81129 26.853488,36.807458 26.822738,36.807458 C 26.741828,36.807458 26.679928,36.834687 26.637048,36.889144 C 26.594568,36.943602 26.570298,37.025893 26.564238,37.136017 C 26.588098,37.100923 26.618028,37.074098 26.654038,37.055541 C 26.690038,37.036583 26.729698,37.027103 26.772978,37.027102 C 26.863998,37.027103 26.935808,37.054735 26.988398,37.109998 C 27.041398,37.16486 27.067888,37.239688 27.067888,37.334484 C 27.067888,37.427263 27.040388,37.501688 26.985368,37.557759 C 26.930348,37.613829 26.857118,37.641865 26.765698,37.641865 C 26.660918,37.641865 26.580818,37.60193 26.525398,37.522059 C 26.469968,37.441785 26.442258,37.325609 26.442258,37.173532 C 26.442258,37.030733 26.476248,36.916978 26.544208,36.832266 C 26.612168,36.747152 26.703388,36.704595 26.817878,36.704593 C 26.848628,36.704595 26.879578,36.70762 26.910728,36.71367 C 26.942278,36.719722 26.975048,36.728798 27.009028,36.740898 M 27.280888,36.720931 L 27.762098,36.720931 L 27.762098,36.823795 L 27.393148,36.823795 L 27.393148,37.045255 C 27.410948,37.039204 27.428758,37.034767 27.446548,37.031943 C 27.464348,37.028716 27.482158,37.027103 27.499948,37.027102 C 27.601088,37.027103 27.681188,37.054735 27.740248,37.109998 C 27.799318,37.165263 27.828848,37.240091 27.828848,37.334484 C 27.828848,37.4317 27.798508,37.507335 27.737828,37.561389 C 27.677138,37.61504 27.591578,37.641865 27.481138,37.641865 C 27.443108,37.641865 27.404278,37.638638 27.364628,37.632184 C 27.325388,37.62573 27.284738,37.616048 27.242658,37.603139 L 27.242658,37.480308 C 27.279068,37.500075 27.316698,37.514798 27.355528,37.524479 C 27.394358,37.53416 27.435428,37.539001 27.478708,37.539001 C 27.548698,37.539001 27.604118,37.520647 27.644978,37.483939 C 27.685838,37.44723 27.706268,37.397412 27.706278,37.334484 C 27.706268,37.271555 27.685838,37.221737 27.644978,37.185029 C 27.604118,37.14832 27.548698,37.129966 27.478708,37.129966 C 27.445948,37.129966 27.413168,37.133597 27.380408,37.140858 C 27.348038,37.148119 27.314868,37.159414 27.280888,37.174742 L 27.280888,36.720931 M 28.435668,36.720931 L 29.018218,36.720931 L 29.018218,36.772968 L 28.689318,37.624317 L 28.561278,37.624317 L 28.870758,36.823795 L 28.435668,36.823795 L 28.435668,36.720931 M 29.535228,37.123915 C 29.480208,37.123916 29.436518,37.142673 29.404158,37.180188 C 29.372198,37.217703 29.356218,37.269135 29.356218,37.334484 C 29.356218,37.399429 29.372198,37.450861 29.404158,37.488779 C 29.436518,37.526294 29.480208,37.545052 29.535228,37.545052 C 29.590248,37.545052 29.633738,37.526294 29.665698,37.488779 C 29.698058,37.450861 29.714238,37.399429 29.714238,37.334484 C 29.714238,37.269135 29.698058,37.217703 29.665698,37.180188 C 29.633738,37.142673 29.590248,37.123916 29.535228,37.123915 M 29.778568,36.740898 L 29.778568,36.852233 C 29.747818,36.837712 29.716668,36.826619 29.685118,36.818954 C 29.653968,36.81129 29.623018,36.807458 29.592268,36.807458 C 29.511358,36.807458 29.449458,36.834687 29.406578,36.889144 C 29.364098,36.943602 29.339828,37.025893 29.333768,37.136017 C 29.357628,37.100923 29.387568,37.074098 29.423578,37.055541 C 29.459578,37.036583 29.499228,37.027103 29.542518,37.027102 C 29.633528,37.027103 29.705338,37.054735 29.757928,37.109998 C 29.810928,37.16486 29.837418,37.239688 29.837418,37.334484 C 29.837418,37.427263 29.809918,37.501688 29.754898,37.557759 C 29.699878,37.613829 29.626658,37.641865 29.535228,37.641865 C 29.430458,37.641865 29.350358,37.60193 29.294928,37.522059 C 29.239508,37.441785 29.211798,37.325609 29.211798,37.173532 C 29.211798,37.030733 29.245778,36.916978 29.313738,36.832266 C 29.381698,36.747152 29.472928,36.704595 29.587418,36.704593 C 29.618158,36.704595 29.649108,36.70762 29.680258,36.71367 C 29.711818,36.719722 29.744578,36.728798 29.778568,36.740898 M 30.018258,36.720931 L 30.600808,36.720931 L 30.600808,36.772968 L 30.271908,37.624317 L 30.143878,37.624317 L 30.453348,36.823795 L 30.018258,36.823795 L 30.018258,36.720931 M 30.844148,37.60556 L 30.844148,37.494225 C 30.874888,37.508747 30.906038,37.51984 30.937588,37.527504 C 30.969148,37.535169 31.000098,37.539001 31.030438,37.539001 C 31.111348,37.539001 31.173038,37.511974 31.215518,37.457921 C 31.258398,37.403463 31.282868,37.320971 31.288938,37.210442 C 31.265478,37.245133 31.235748,37.271757 31.199738,37.290313 C 31.163738,37.308869 31.123888,37.318147 31.080198,37.318147 C 30.989578,37.318147 30.917768,37.290918 30.864778,37.23646 C 30.812178,37.1816 30.785888,37.106772 30.785888,37.011975 C 30.785888,36.919197 30.813398,36.844771 30.868408,36.7887 C 30.923438,36.73263 30.996658,36.704595 31.088088,36.704593 C 31.192858,36.704595 31.272758,36.744732 31.327778,36.825005 C 31.383198,36.904876 31.410908,37.021052 31.410918,37.173532 C 31.410908,37.315928 31.376928,37.429683 31.308968,37.514798 C 31.241408,37.599509 31.150388,37.641865 31.035898,37.641865 C 31.005158,37.641865 30.973998,37.638839 30.942448,37.632789 C 30.910888,37.626738 30.878128,37.617661 30.844148,37.60556 M 31.088088,37.222544 C 31.143098,37.222544 31.186598,37.203786 31.218548,37.166271 C 31.250908,37.128756 31.267098,37.077324 31.267098,37.011975 C 31.267098,36.94703 31.250908,36.895801 31.218548,36.858285 C 31.186598,36.820367 31.143098,36.801407 31.088088,36.801406 C 31.033068,36.801407 30.989378,36.820367 30.957008,36.858285 C 30.925058,36.895801 30.909078,36.94703 30.909078,37.011975 C 30.909078,37.077324 30.925058,37.128756 30.957008,37.166271 C 30.989378,37.203786 31.033068,37.222544 31.088088,37.222544 M 31.635438,37.60556 L 31.635438,37.494225 C 31.666178,37.508747 31.697338,37.51984 31.728888,37.527504 C 31.760438,37.535169 31.791388,37.539001 31.821738,37.539001 C 31.902638,37.539001 31.964338,37.511974 32.006818,37.457921 C 32.049698,37.403463 32.074168,37.320971 32.080238,37.210442 C 32.056768,37.245133 32.027038,37.271757 31.991038,37.290313 C 31.955038,37.308869 31.915178,37.318147 31.871488,37.318147 C 31.780868,37.318147 31.709068,37.290918 31.656068,37.23646 C 31.603478,37.1816 31.577188,37.106772 31.577188,37.011975 C 31.577188,36.919197 31.604688,36.844771 31.659708,36.7887 C 31.714728,36.73263 31.787958,36.704595 31.879378,36.704593 C 31.984158,36.704595 32.064058,36.744732 32.119078,36.825005 C 32.174498,36.904876 32.202208,37.021052 32.202208,37.173532 C 32.202208,37.315928 32.168228,37.429683 32.100268,37.514798 C 32.032698,37.599509 31.941688,37.641865 31.827188,37.641865 C 31.796448,37.641865 31.765298,37.638839 31.733738,37.632789 C 31.702188,37.626738 31.669418,37.617661 31.635438,37.60556 M 31.879378,37.222544 C 31.934398,37.222544 31.977888,37.203786 32.009838,37.166271 C 32.042208,37.128756 32.058388,37.077324 32.058388,37.011975 C 32.058388,36.94703 32.042208,36.895801 32.009838,36.858285 C 31.977888,36.820367 31.934398,36.801407 31.879378,36.801406 C 31.824368,36.801407 31.780668,36.820367 31.748308,36.858285 C 31.716348,36.895801 31.700368,36.94703 31.700368,37.011975 C 31.700368,37.077324 31.716348,37.128756 31.748308,37.166271 C 31.780668,37.203786 31.824368,37.222544 31.879378,37.222544" id="text7050" inkscape:r_cx="true" inkscape:r_cy="true"/>
    <rect style="opacity:1;color:#000000;fill:url(#linearGradient4591);fill-opacity:1.0;fill-rule:evenodd;stroke:none;stroke-width:1;stroke-linecap:butt;stroke-linejoin:miter;marker:none;marker-start:none;marker-mid:none;marker-end:none;stroke-miterlimit:4;stroke-dasharray:none;stroke-dashoffset:0;stroke-opacity:1;visibility:visible;display:inline;overflow:visible" id="rect6553" width="9.9773989" height="11.70446" x="5.0519104" y="19.740776" inkscape:r_cx="true" inkscape:r_cy="true" rx="0.31249964" ry="0.31249976"/>
    <g id="g6935" transform="matrix(0.300427,0,0,0.299566,-1.239336,19.26775)" inkscape:r_cx="true" inkscape:r_cy="true" style="fill:#939393;fill-opacity:1;stroke:none">
      <path sodipodi:nodetypes="ccccc" id="path2329" d="M 50.301157,40.747425 C 51.336796,37.764949 50.477934,31.855136 43.76042,27.258942 L 31.209274,27.258942 C 24.49176,31.501582 23.652283,37.303773 25.198867,40.69397 C 25.198867,40.69397 50.301157,40.747425 50.301157,40.747425 z " style="opacity:1;color:#000000;fill:#939393;fill-opacity:1;fill-rule:evenodd;stroke:none;stroke-width:2.29990602px;stroke-linecap:round;stroke-linejoin:round;marker:none;marker-start:none;marker-mid:none;marker-end:none;stroke-miterlimit:4;stroke-dasharray:none;stroke-dashoffset:0;stroke-opacity:1;visibility:visible;display:inline;overflow:visible" inkscape:r_cx="true" inkscape:r_cy="true"/>
      <path transform="translate(6.407083,1.742408)" d="M 39.774755 19.008621 A 8.6620579 8.6620579 0 1 1  22.45064,19.008621 A 8.6620579 8.6620579 0 1 1  39.774755 19.008621 z" sodipodi:ry="8.6620579" sodipodi:rx="8.6620579" sodipodi:cy="19.008621" sodipodi:cx="31.112698" id="path2327" style="opacity:1;color:#000000;fill:#939393;fill-opacity:1;fill-rule:evenodd;stroke:none;stroke-width:2.29990602px;stroke-linecap:round;stroke-linejoin:round;marker:none;marker-start:none;marker-mid:none;marker-end:none;stroke-miterlimit:4;stroke-dasharray:none;stroke-dashoffset:0;stroke-opacity:1;visibility:visible;display:inline;overflow:visible" sodipodi:type="arc" inkscape:r_cx="true" inkscape:r_cy="true"/>
    </g>
    <rect inkscape:r_cy="true" inkscape:r_cx="true" ry="1.7777265" rx="1.7777265" y="17.499992" x="3.500001" height="22.000008" width="32.000011" id="rect6555" style="opacity:1;color:#000000;fill:none;fill-opacity:1;fill-rule:evenodd;stroke:#ffffff;stroke-width:0.99999982;stroke-linecap:butt;stroke-linejoin:miter;marker:none;marker-start:none;marker-mid:none;marker-end:none;stroke-miterlimit:4;stroke-dasharray:none;stroke-dashoffset:0;stroke-opacity:1;visibility:visible;display:inline;overflow:visible"/>
  </g>
</svg>
