<?xml version="1.0" encoding="UTF-8" standalone="no"?>
<!-- Created with Inkscape (http://www.inkscape.org/) -->
<svg xmlns:dc="http://purl.org/dc/elements/1.1/" xmlns:cc="http://web.resource.org/cc/" xmlns:rdf="http://www.w3.org/1999/02/22-rdf-syntax-ns#" xmlns:svg="http://www.w3.org/2000/svg" xmlns="http://www.w3.org/2000/svg" xmlns:xlink="http://www.w3.org/1999/xlink" xmlns:sodipodi="http://sodipodi.sourceforge.net/DTD/sodipodi-0.dtd" xmlns:inkscape="http://www.inkscape.org/namespaces/inkscape" width="48" height="48" id="svg7854" sodipodi:version="0.32" inkscape:version="0.45+devel" version="1.0" sodipodi:docbase="/home/jimmac/gfx/ximian/art/icons/control-center/scalable" sodipodi:docname="about-me.svg" inkscape:output_extension="org.inkscape.output.svg.inkscape">
  <defs id="defs7856">
    <linearGradient inkscape:collect="always" id="linearGradient5948">
      <stop style="stop-color:#000000;stop-opacity:1;" offset="0" id="stop5950"/>
      <stop style="stop-color:#000000;stop-opacity:0;" offset="1" id="stop5952"/>
    </linearGradient>
    <linearGradient inkscape:collect="always" id="linearGradient5938">
      <stop style="stop-color:#ffffff;stop-opacity:1;" offset="0" id="stop5940"/>
      <stop style="stop-color:#ffffff;stop-opacity:0;" offset="1" id="stop5942"/>
    </linearGradient>
    <linearGradient inkscape:collect="always" id="linearGradient5924">
      <stop style="stop-color:#3465a4;stop-opacity:1;" offset="0" id="stop5926"/>
      <stop style="stop-color:#204a87;stop-opacity:1" offset="1" id="stop5928"/>
    </linearGradient>
    <filter id="filter5655" height="1.5668966" y="-0.28344828" width="1.1522222" x="-0.076111111" inkscape:collect="always">
      <feGaussianBlur id="feGaussianBlur5657" stdDeviation="1.4531044" inkscape:collect="always"/>
    </filter>
    <radialGradient r="17.986024" fy="17.727694" fx="29.922075" cy="17.727694" cx="29.922075" gradientTransform="matrix(0.558489,0,-1.377346e-8,0.563387,14.87134,4.364123)" gradientUnits="userSpaceOnUse" id="radialGradient3816" xlink:href="#linearGradient4562" inkscape:collect="always"/>
    <radialGradient gradientUnits="userSpaceOnUse" gradientTransform="matrix(1.354517,0,-3.340511e-8,1.366395,-8.947464,-9.871365)" r="17.986024" fy="26.814409" fx="24.753788" cy="26.814409" cx="24.753788" id="radialGradient4568" xlink:href="#linearGradient4562" inkscape:collect="always"/>
    <linearGradient y2="35.803486" x2="30.935921" y1="29.553486" x1="30.935921" gradientTransform="matrix(1.33835,0,0,1.33835,-33.47918,-20.70004)" gradientUnits="userSpaceOnUse" id="linearGradient1372" xlink:href="#linearGradient3824" inkscape:collect="always"/>
    <linearGradient y2="35.739632" x2="21.408455" y1="36.390400" x1="22.686766" gradientTransform="matrix(-1.308485,0.281154,0.281154,1.308485,39.09106,-26.21225)" gradientUnits="userSpaceOnUse" id="linearGradient1366" xlink:href="#linearGradient4356" inkscape:collect="always"/>
    <linearGradient gradientTransform="matrix(-1.308485,0.281154,0.281154,1.308485,57.41196,-17.2385)" y2="35.739632" x2="21.408455" y1="36.390400" x1="22.686766" gradientUnits="userSpaceOnUse" id="linearGradient4366" xlink:href="#linearGradient4356" inkscape:collect="always"/>
    <linearGradient gradientTransform="matrix(1.3161,0.243028,-0.243028,1.3161,-9.262129,-16.07396)" gradientUnits="userSpaceOnUse" y2="36.217758" x2="22.626925" y1="35.817974" x1="20.661695" id="linearGradient4362" xlink:href="#linearGradient4356" inkscape:collect="always"/>
    <radialGradient gradientUnits="userSpaceOnUse" r="8.6620579" fy="19.008621" fx="31.112698" cy="19.008621" cx="31.112698" id="radialGradient3822" xlink:href="#linearGradient3816" inkscape:collect="always"/>
    <linearGradient id="linearGradient3816" inkscape:collect="always">
      <stop id="stop3818" offset="0" style="stop-color:#000000;stop-opacity:1;"/>
      <stop id="stop3820" offset="1" style="stop-color:#000000;stop-opacity:0;"/>
    </linearGradient>
    <linearGradient id="linearGradient3824">
      <stop id="stop3826" offset="0" style="stop-color:#ffffff;stop-opacity:1;"/>
      <stop id="stop3828" offset="1.0000000" style="stop-color:#c9c9c9;stop-opacity:1.0000000;"/>
    </linearGradient>
    <linearGradient id="linearGradient4356" inkscape:collect="always">
      <stop id="stop4358" offset="0" style="stop-color:#000000;stop-opacity:1;"/>
      <stop id="stop4360" offset="1" style="stop-color:#000000;stop-opacity:0;"/>
    </linearGradient>
    <linearGradient id="linearGradient4562">
      <stop id="stop4564" offset="0" style="stop-color:#ffffff;stop-opacity:1;"/>
      <stop id="stop4566" offset="1" style="stop-color:#d6d6d2;stop-opacity:1;"/>
    </linearGradient>
    <filter inkscape:collect="always" id="filter5918">
      <feGaussianBlur inkscape:collect="always" stdDeviation="0.60052097" id="feGaussianBlur5920"/>
    </filter>
    <linearGradient inkscape:collect="always" xlink:href="#linearGradient5924" id="linearGradient5930" x1="29.229109" y1="26.791224" x2="32.870152" y2="59.239529" gradientUnits="userSpaceOnUse"/>
    <linearGradient inkscape:collect="always" xlink:href="#linearGradient5938" id="linearGradient5944" x1="29.913771" y1="20.086231" x2="32.681488" y2="53.800053" gradientUnits="userSpaceOnUse"/>
    <radialGradient inkscape:collect="always" xlink:href="#linearGradient5948" id="radialGradient5954" cx="37.25" cy="44.21875" fx="37.25" fy="44.21875" r="5.375" gradientTransform="matrix(1,0,0,0.377907,0,27.508176)" gradientUnits="userSpaceOnUse"/>
  </defs>
  <g inkscape:label="Layer 1" inkscape:groupmode="layer" id="layer1">
    <path sodipodi:type="arc" style="opacity:0.56470588;color:#000000;fill:url(#radialGradient5954);fill-opacity:1;fill-rule:evenodd;stroke:none;stroke-width:1;stroke-linecap:round;stroke-linejoin:miter;marker:none;marker-start:none;marker-mid:none;marker-end:none;stroke-miterlimit:4;stroke-dasharray:none;stroke-dashoffset:0;stroke-opacity:1;visibility:visible;display:inline;overflow:visible;enable-background:accumulate" id="path5946" sodipodi:cx="37.25" sodipodi:cy="44.21875" sodipodi:rx="5.375" sodipodi:ry="2.03125" d="M 42.625,44.21875 A 5.375,2.03125 0 1 1 31.875,44.21875 A 5.375,2.03125 0 1 1 42.625,44.21875 z" transform="matrix(1.5846154,0,0,1.5846154,-21.776923,-25.850962)"/>
    <g id="g4914" transform="translate(-1.5679977,-0.1407331)">
      <g style="display:inline" inkscape:label="cipek" id="g4916">
        <path id="path4173" d="M 13.365469,24.850231 L 19.043607,24.850231 L 15.731361,21.774572 L 15.021593,22.720929 L 14.311825,22.011162 L 13.365469,24.850231 z" style="opacity:1;color:#000000;fill:url(#linearGradient1372);fill-opacity:1;fill-rule:evenodd;stroke:none;stroke-width:1px;stroke-linecap:round;stroke-linejoin:round;marker:none;marker-start:none;marker-mid:none;marker-end:none;stroke-miterlimit:4;stroke-dasharray:none;stroke-dashoffset:0;stroke-opacity:1;visibility:visible;display:inline;overflow:visible"/>
        <path style="opacity:0.22784807;color:#000000;fill:url(#linearGradient1366);fill-opacity:1;fill-rule:evenodd;stroke:none;stroke-width:1px;stroke-linecap:round;stroke-linejoin:round;marker:none;marker-start:none;marker-mid:none;marker-end:none;stroke-miterlimit:4;stroke-dasharray:none;stroke-dashoffset:0;stroke-opacity:1;visibility:visible;display:inline;overflow:visible" d="M 19.882923,32.490544 C 21.530768,31.712992 22.297815,29.810737 22.297815,29.810737 C 21.014177,24.39981 16.976336,20.652646 16.976336,20.652646 C 16.976336,20.652646 20.274824,29.141269 19.882923,32.490544 z" id="path4370" sodipodi:nodetypes="cccc"/>
      </g>
      <g style="display:inline" inkscape:label="dalsi cipek" id="layer2">
        <rect transform="matrix(0.9351852,0,0,0.9351852,1.5811694,2.2763322)" ry="5.126524" rx="5.126524" y="35.448853" x="5.3033009" height="10.253048" width="38.183765" id="rect4608" style="opacity:0.34857142;color:#000000;fill:#000000;fill-opacity:1;fill-rule:nonzero;stroke:none;stroke-width:0.30000001;stroke-linecap:butt;stroke-linejoin:miter;marker:none;marker-start:none;marker-mid:none;marker-end:none;stroke-miterlimit:10;stroke-dasharray:none;stroke-dashoffset:0;stroke-opacity:1;visibility:visible;display:block;overflow:visible;filter:url(#filter5655);enable-background:accumulate"/>
        <path sodipodi:nodetypes="cczcczc" id="path4308" d="M 17.918908,43.517006 L 32.114254,43.517006 C 36.136269,43.517006 40.118235,42.042236 41.577816,37.838868 C 42.963864,33.847271 41.814406,26.246002 32.824021,20.094686 L 16.026195,20.094686 C 7.0358098,25.772823 5.9122958,33.538186 7.9821665,38.075456 C 10.090864,42.697836 13.660304,43.517006 17.918908,43.517006 z" style="opacity:1;color:#000000;fill:url(#radialGradient4568);fill-opacity:1;fill-rule:evenodd;stroke:#888a85;stroke-width:0.99999982px;stroke-linecap:round;stroke-linejoin:round;marker:none;marker-start:none;marker-mid:none;marker-end:none;stroke-miterlimit:4;stroke-dasharray:none;stroke-dashoffset:0;stroke-opacity:1;visibility:visible;display:inline;overflow:visible"/>
        <path inkscape:r_cy="true" inkscape:r_cx="true" style="opacity:0.29120878;color:#000000;fill:url(#linearGradient4366);fill-opacity:1;fill-rule:evenodd;stroke:none;stroke-width:1px;stroke-linecap:round;stroke-linejoin:round;marker:none;marker-start:none;marker-mid:none;marker-end:none;stroke-miterlimit:4;stroke-dasharray:none;stroke-dashoffset:0;stroke-opacity:1;visibility:visible;display:inline;overflow:visible" d="M 38.203826,41.464292 C 39.851671,40.68674 40.618718,38.784486 40.618718,38.784486 C 39.33508,33.373558 35.297238,29.626395 35.297238,29.626395 C 35.297238,29.626395 38.595727,38.115017 38.203826,41.464292 z" id="path4364" sodipodi:nodetypes="cccc"/>
        <path inkscape:r_cy="true" inkscape:r_cx="true" sodipodi:nodetypes="cccc" id="path4354" d="M 11.642995,42.046125 C 9.9732599,41.316765 9.2259419,39.559099 9.2259419,39.559099 C 10.351871,34.11317 14.204505,30.128795 14.204505,30.128795 C 14.204505,30.128795 11.153975,38.709646 11.642995,42.046125 z" style="opacity:0.54945056;color:#000000;fill:url(#linearGradient4362);fill-opacity:1;fill-rule:evenodd;stroke:none;stroke-width:1px;stroke-linecap:round;stroke-linejoin:round;marker:none;marker-start:none;marker-mid:none;marker-end:none;stroke-miterlimit:4;stroke-dasharray:none;stroke-dashoffset:0;stroke-opacity:1;visibility:visible;display:inline;overflow:visible"/>
        <path style="opacity:0.64285715;color:#000000;fill:none;fill-opacity:1;fill-rule:evenodd;stroke:#ffffff;stroke-width:0.99999988px;stroke-linecap:round;stroke-linejoin:round;marker:none;marker-start:none;marker-mid:none;marker-end:none;stroke-miterlimit:4;stroke-dasharray:none;stroke-dashoffset:0;stroke-opacity:1;visibility:visible;display:inline;overflow:visible" d="M 17.593144,42.482789 L 32.120832,42.452196 C 35.775407,42.452196 39.393589,41.112158 40.719828,37.292799 C 41.97925,33.665864 40.58869,26.759027 32.419643,21.169679 L 16.464198,20.833163 C 8.295151,25.99256 6.714018,33.0485 8.6253819,37.507773 C 10.536748,41.967046 13.325894,42.452196 17.593144,42.482789 z" id="path4314" sodipodi:nodetypes="cczcczc"/>
        <path transform="matrix(1.33835,0,0,0.6312432,-17.02698,9.668764)" sodipodi:type="arc" style="opacity:0.46470588;color:#000000;fill:url(#radialGradient3822);fill-opacity:1;fill-rule:evenodd;stroke:none;stroke-width:1px;stroke-linecap:round;stroke-linejoin:round;marker:none;marker-start:none;marker-mid:none;marker-end:none;stroke-miterlimit:4;stroke-dasharray:none;stroke-dashoffset:0;stroke-opacity:1;visibility:visible;display:inline;overflow:visible;filter:url(#filter5918)" id="path4318" sodipodi:cx="31.112698" sodipodi:cy="19.008621" sodipodi:rx="8.6620579" sodipodi:ry="8.6620579" d="M 39.774755,19.008621 A 8.6620579,8.6620579 0 1 1 22.45064,19.008621 A 8.6620579,8.6620579 0 1 1 39.774755,19.008621 z"/>
        <path transform="matrix(1.33835,0,0,1.33835,-16.85969,-12.20659)" d="M 39.774755,19.008621 A 8.6620579,8.6620579 0 1 1 22.45064,19.008621 A 8.6620579,8.6620579 0 1 1 39.774755,19.008621 z" sodipodi:ry="8.6620579" sodipodi:rx="8.6620579" sodipodi:cy="19.008621" sodipodi:cx="31.112698" id="path4320" style="opacity:1;color:#000000;fill:url(#radialGradient3816);fill-opacity:1;fill-rule:evenodd;stroke:#888a85;stroke-width:0.74718857px;stroke-linecap:round;stroke-linejoin:round;marker:none;marker-start:none;marker-mid:none;marker-end:none;stroke-miterlimit:4;stroke-dasharray:none;stroke-dashoffset:0;stroke-opacity:1;visibility:visible;display:inline;overflow:visible" sodipodi:type="arc"/>
        <path transform="matrix(1.215123,0,0,1.215123,-13.02574,-9.864199)" sodipodi:type="arc" style="opacity:0.19620254;color:#000000;fill:none;fill-opacity:1;fill-rule:evenodd;stroke:#ffffff;stroke-width:0.82296228px;stroke-linecap:round;stroke-linejoin:round;marker:none;marker-start:none;marker-mid:none;marker-end:none;stroke-miterlimit:4;stroke-dasharray:none;stroke-dashoffset:0;stroke-opacity:1;visibility:visible;display:inline;overflow:visible" id="path4322" sodipodi:cx="31.112698" sodipodi:cy="19.008621" sodipodi:rx="8.6620579" sodipodi:ry="8.6620579" d="M 39.774755,19.008621 A 8.6620579,8.6620579 0 1 1 22.45064,19.008621 A 8.6620579,8.6620579 0 1 1 39.774755,19.008621 z"/>
      </g>
    </g>
    <path sodipodi:type="arc" style="opacity:1;color:#000000;fill:url(#linearGradient5930);fill-opacity:1.0;fill-rule:evenodd;stroke:#204a87;stroke-width:1.53602779;stroke-linecap:round;stroke-linejoin:miter;marker:none;marker-start:none;marker-mid:none;marker-end:none;stroke-miterlimit:4;stroke-dasharray:none;stroke-dashoffset:0;stroke-opacity:1;visibility:visible;display:inline;overflow:visible;enable-background:accumulate" id="path5922" sodipodi:cx="32" sodipodi:cy="31" sodipodi:rx="13" sodipodi:ry="13" d="M 45,31 A 13,13 0 1 1 19,31 A 13,13 0 1 1 45,31 z" transform="matrix(0.6510299,0,0,0.6510299,16.203655,16.781462)"/>
    <path style="font-size:16.81754684px;font-style:italic;font-variant:normal;font-weight:normal;font-stretch:normal;text-align:start;line-height:125%;writing-mode:lr-tb;text-anchor:start;fill:#ffffff;fill-opacity:1;stroke:none;stroke-width:1px;stroke-linecap:butt;stroke-linejoin:miter;stroke-opacity:1;font-family:Amelia BT" d="M 35.703496,36.201798 C 35.840356,35.522973 36.045648,35.04122 36.319373,34.75654 C 36.593093,34.466403 36.979043,34.321329 37.477222,34.321321 C 37.975394,34.321329 38.303861,34.466403 38.462625,34.75654 C 38.626854,35.046695 38.643277,35.528447 38.511895,36.201798 L 37.501857,41.251989 C 37.364992,41.930824 37.156962,42.415313 36.877768,42.705459 C 36.604042,42.990131 36.215356,43.132467 35.711708,43.132467 C 35.219005,43.132467 34.890537,42.990131 34.726305,42.705459 C 34.567545,42.415313 34.556596,41.930824 34.693458,41.251989 L 35.703496,36.201798 M 36.647841,32.071317 C 36.719006,31.715488 36.907875,31.414393 37.214448,31.168031 C 37.521014,30.916218 37.849481,30.790305 38.199851,30.790293 C 38.555686,30.790305 38.832146,30.916218 39.029232,31.168031 C 39.226307,31.414393 39.289263,31.715488 39.218101,32.071317 C 39.152402,32.421693 38.969007,32.722788 38.667917,32.974603 C 38.366817,33.220964 38.03835,33.344139 37.682514,33.344129 C 37.326671,33.344139 37.047473,33.220964 36.844921,32.974603 C 36.647838,32.722788 36.582144,32.421693 36.647841,32.071317" id="text5932"/>
    <path transform="matrix(0.5783978,0,0,0.5783978,18.527883,19.033058)" d="M 45,31 A 13,13 0 1 1 19,31 A 13,13 0 1 1 45,31 z" sodipodi:ry="13" sodipodi:rx="13" sodipodi:cy="31" sodipodi:cx="32" id="path5936" style="opacity:0.27647059;color:#000000;fill:none;fill-opacity:1;fill-rule:evenodd;stroke:url(#linearGradient5944);stroke-width:1.72891402;stroke-linecap:round;stroke-linejoin:miter;marker:none;marker-start:none;marker-mid:none;marker-end:none;stroke-miterlimit:4;stroke-dasharray:none;stroke-dashoffset:0;stroke-opacity:1;visibility:visible;display:inline;overflow:visible;enable-background:accumulate" sodipodi:type="arc"/>
  </g>
</svg>
