<?xml version="1.0" encoding="UTF-8" standalone="no"?>
<!-- Created with Inkscape (http://www.inkscape.org/) -->
<svg xmlns:dc="http://purl.org/dc/elements/1.1/" xmlns:cc="http://web.resource.org/cc/" xmlns:rdf="http://www.w3.org/1999/02/22-rdf-syntax-ns#" xmlns:svg="http://www.w3.org/2000/svg" xmlns="http://www.w3.org/2000/svg" xmlns:xlink="http://www.w3.org/1999/xlink" xmlns:sodipodi="http://sodipodi.sourceforge.net/DTD/sodipodi-0.dtd" xmlns:inkscape="http://www.inkscape.org/namespaces/inkscape" width="48" height="48" id="svg7366" sodipodi:version="0.32" inkscape:version="0.45" sodipodi:docbase="/home/jimmac/src/cvs/gnome/gnome-icon-theme/scalable/devices" sodipodi:docname="camera-web.svg" inkscape:export-filename="/media/hdb2/home/vinicius/Backup/Documentos/Vinicius/tango-icon-theme-code/webcam/scalable/webcam.png" inkscape:export-xdpi="90" inkscape:export-ydpi="90" version="1.0" inkscape:output_extension="org.inkscape.output.svg.inkscape">
  <defs id="defs7368">
    <linearGradient inkscape:collect="always" id="linearGradient6147">
      <stop style="stop-color:#ffffff;stop-opacity:1;" offset="0" id="stop6149"/>
      <stop style="stop-color:#ffffff;stop-opacity:0;" offset="1" id="stop6151"/>
    </linearGradient>
    <linearGradient id="linearGradient6035">
      <stop style="stop-color:#8e908b;stop-opacity:1;" offset="0" id="stop6037"/>
      <stop style="stop-color:#40423f;stop-opacity:1;" offset="1" id="stop6039"/>
    </linearGradient>
    <linearGradient id="linearGradient5983">
      <stop style="stop-color:#3b3c3a;stop-opacity:1;" offset="0" id="stop5985"/>
      <stop id="stop5991" offset="0.5" style="stop-color:#989a96;stop-opacity:1;"/>
      <stop style="stop-color:#31322f;stop-opacity:1;" offset="1" id="stop5987"/>
    </linearGradient>
    <linearGradient inkscape:collect="always" id="linearGradient5975">
      <stop style="stop-color:#ffffff;stop-opacity:1;" offset="0" id="stop5977"/>
      <stop style="stop-color:#ffffff;stop-opacity:0;" offset="1" id="stop5979"/>
    </linearGradient>
    <linearGradient inkscape:collect="always" id="linearGradient11646">
      <stop style="stop-color:#ffffff;stop-opacity:1;" offset="0" id="stop11648"/>
      <stop style="stop-color:#ffffff;stop-opacity:0;" offset="1" id="stop11650"/>
    </linearGradient>
    <linearGradient id="linearGradient6382">
      <stop style="stop-color:#363636;stop-opacity:1;" offset="0" id="stop6384"/>
      <stop style="stop-color:#424440;stop-opacity:1;" offset="1" id="stop6386"/>
    </linearGradient>
    <linearGradient inkscape:collect="always" id="linearGradient6596">
      <stop style="stop-color:#a6c3e1;stop-opacity:1;" offset="0" id="stop6598"/>
      <stop style="stop-color:#a6c3e1;stop-opacity:0;" offset="1" id="stop6600"/>
    </linearGradient>
    <linearGradient inkscape:collect="always" id="linearGradient3087">
      <stop style="stop-color:#ffffff;stop-opacity:1;" offset="0" id="stop3089"/>
      <stop style="stop-color:#ffffff;stop-opacity:0;" offset="1" id="stop3091"/>
    </linearGradient>
    <linearGradient inkscape:collect="always" id="linearGradient2206">
      <stop style="stop-color:#ffffff;stop-opacity:1;" offset="0" id="stop2208"/>
      <stop style="stop-color:#ffffff;stop-opacity:0;" offset="1" id="stop2210"/>
    </linearGradient>
    <linearGradient inkscape:collect="always" id="linearGradient5721">
      <stop style="stop-color:#000000;stop-opacity:1;" offset="0" id="stop5723"/>
      <stop style="stop-color:#000000;stop-opacity:0;" offset="1" id="stop5725"/>
    </linearGradient>
    <linearGradient inkscape:collect="always" id="linearGradient7410">
      <stop style="stop-color:#555753;stop-opacity:1;" offset="0" id="stop7412"/>
      <stop style="stop-color:#555753;stop-opacity:0;" offset="1" id="stop7414"/>
    </linearGradient>
    <linearGradient id="linearGradient7386">
      <stop style="stop-color:#ffffff;stop-opacity:1;" offset="0" id="stop7388"/>
      <stop id="stop6033" offset="0.34523809" style="stop-color:#ffffff;stop-opacity:1;"/>
      <stop id="stop6031" offset="0.79733562" style="stop-color:#c1c1c1;stop-opacity:1;"/>
      <stop style="stop-color:#e3e3e3;stop-opacity:1;" offset="1" id="stop7390"/>
    </linearGradient>
    <linearGradient inkscape:collect="always" xlink:href="#linearGradient7410" id="linearGradient7416" x1="24.071547" y1="23.018641" x2="25.686659" y2="19.979298" gradientUnits="userSpaceOnUse" gradientTransform="matrix(1.494265,0,0,1.494265,2.320625,-0.139643)"/>
    <radialGradient inkscape:collect="always" xlink:href="#linearGradient5721" id="radialGradient5727" cx="15.337832" cy="27.467861" fx="15.337832" fy="27.467861" r="11.631747" gradientTransform="matrix(1,0,0,0.366603,0,17.39807)" gradientUnits="userSpaceOnUse"/>
    <linearGradient inkscape:collect="always" xlink:href="#linearGradient2206" id="linearGradient2212" x1="33.57629" y1="42.274773" x2="32.471783" y2="36.587273" gradientUnits="userSpaceOnUse"/>
    <linearGradient inkscape:collect="always" xlink:href="#linearGradient3087" id="linearGradient3093" x1="53.135429" y1="20.345228" x2="53.135429" y2="1.6754831" gradientUnits="userSpaceOnUse"/>
    <linearGradient inkscape:collect="always" xlink:href="#linearGradient6596" id="linearGradient6602" x1="23.862038" y1="3.7243195" x2="23.862038" y2="5.7632418" gradientUnits="userSpaceOnUse"/>
    <radialGradient inkscape:collect="always" xlink:href="#linearGradient11646" id="radialGradient11652" cx="14.979873" cy="22.900909" fx="14.979873" fy="22.900909" r="1.75" gradientTransform="matrix(1.009505,0,0,1.045558,-0.372253,-1.256737)" gradientUnits="userSpaceOnUse"/>
    <linearGradient id="linearGradient5841" inkscape:collect="always">
      <stop id="stop5843" offset="0" style="stop-color:#ffffff;stop-opacity:1;"/>
      <stop id="stop5845" offset="1" style="stop-color:#ffffff;stop-opacity:0;"/>
    </linearGradient>
    <linearGradient id="linearGradient8895">
      <stop style="stop-color:#204a87;stop-opacity:0;" offset="0" id="stop8899"/>
      <stop id="stop8905" offset="0.5" style="stop-color:#204a87;stop-opacity:0;"/>
      <stop style="stop-color:#204a87;stop-opacity:1;" offset="1" id="stop8897"/>
    </linearGradient>
    <linearGradient id="linearGradient8909" inkscape:collect="always">
      <stop id="stop8911" offset="0" style="stop-color:#edd400;stop-opacity:1;"/>
      <stop id="stop8913" offset="1" style="stop-color:#edd400;stop-opacity:0;"/>
    </linearGradient>
    <linearGradient inkscape:collect="always" xlink:href="#linearGradient5841" id="linearGradient5960" gradientUnits="userSpaceOnUse" x1="25.84375" y1="27.124889" x2="25.84375" y2="45"/>
    <radialGradient inkscape:collect="always" xlink:href="#linearGradient8909" id="radialGradient5971" gradientUnits="userSpaceOnUse" gradientTransform="matrix(0.377828,-2.2992039e-2,2.0411515e-2,0.3354218,20.433757,19.367464)" cx="33.242355" cy="27.869101" fx="33.242355" fy="27.869101" r="4.125"/>
    <radialGradient inkscape:collect="always" xlink:href="#linearGradient8895" id="radialGradient5973" gradientUnits="userSpaceOnUse" gradientTransform="matrix(0.953696,0,0,0.953696,1.4961981,1.4354241)" cx="32.3125" cy="31" fx="32.3125" fy="31" r="2.6875"/>
    <linearGradient inkscape:collect="always" xlink:href="#linearGradient5975" id="linearGradient5981" x1="20.875" y1="18.5625" x2="20.875" y2="20.199675" gradientUnits="userSpaceOnUse"/>
    <linearGradient inkscape:collect="always" xlink:href="#linearGradient5983" id="linearGradient5989" x1="13.027615" y1="36.34014" x2="34.947331" y2="36.34014" gradientUnits="userSpaceOnUse"/>
    <filter inkscape:collect="always" x="-0.060583437" width="1.1211669" y="-0.16525639" height="1.3305128" id="filter6025">
      <feGaussianBlur inkscape:collect="always" stdDeviation="0.70469123" id="feGaussianBlur6027"/>
    </filter>
    <radialGradient inkscape:collect="always" xlink:href="#linearGradient7386" id="radialGradient6029" cx="23.987465" cy="13.112228" fx="23.987465" fy="13.112228" r="17.011631" gradientTransform="matrix(0,1.2308748,-1.3565209,0,41.774476,-16.057996)" gradientUnits="userSpaceOnUse"/>
    <radialGradient inkscape:collect="always" xlink:href="#linearGradient6035" id="radialGradient6041" cx="23.987465" cy="3.4559402" fx="23.987465" fy="3.4559402" r="17.011631" gradientTransform="matrix(1.9144537,0,0,1.8219649,-21.935426,-2.0188168)" gradientUnits="userSpaceOnUse"/>
    <filter inkscape:collect="always" x="-0.388057" width="1.776114" y="-0.36523011" height="1.7304602" id="filter6137">
      <feGaussianBlur inkscape:collect="always" stdDeviation="0.39207371" id="feGaussianBlur6139"/>
    </filter>
    <linearGradient inkscape:collect="always" xlink:href="#linearGradient6147" id="linearGradient6153" x1="53.135429" y1="20.189396" x2="53.135429" y2="13.554156" gradientUnits="userSpaceOnUse"/>
  </defs>
  <g id="layer1" inkscape:label="Layer 1" inkscape:groupmode="layer">
    <path sodipodi:type="arc" style="opacity:0.72352941;color:#000000;fill:url(#radialGradient5727);fill-opacity:1;fill-rule:evenodd;stroke:none;stroke-width:0.99999994;stroke-linecap:round;stroke-linejoin:round;marker:none;marker-start:none;marker-mid:none;marker-end:none;stroke-miterlimit:4;stroke-dasharray:none;stroke-dashoffset:0;stroke-opacity:0.49099097;visibility:visible;display:inline;overflow:visible" id="path4750" sodipodi:cx="15.337832" sodipodi:cy="27.467861" sodipodi:rx="11.631747" sodipodi:ry="4.2642298" d="M 26.96958 27.467861 A 11.631747 4.2642298 0 1 1  3.7060852,27.467861 A 11.631747 4.2642298 0 1 1  26.96958 27.467861 z" transform="matrix(1.477341,0,0,1.2837468,1.328269,4.128357)"/>
    <path style="fill:none;fill-rule:evenodd;stroke:url(#linearGradient7416);stroke-width:0.99999982px;stroke-linecap:butt;stroke-linejoin:miter;stroke-opacity:1" d="M 26.228869,38.711256 C 26.228869,38.711256 32.205932,37.21699 38.182992,37.590557 C 44.160054,37.964123 42.46939,35.842618 38.860524,34.512702 C 35.251657,33.182785 40.730665,31.29562 40.730665,29.801354" id="path7408" sodipodi:nodetypes="cssc"/>
    <path style="color:#000000;fill:url(#linearGradient5989);fill-opacity:1.0;fill-rule:evenodd;stroke:#2e3436;stroke-width:0.9999997;stroke-linecap:round;stroke-linejoin:miter;marker:none;marker-start:none;marker-mid:none;marker-end:none;stroke-miterlimit:4;stroke-dashoffset:0;stroke-opacity:1;visibility:visible;display:inline;overflow:visible" d="M 34.447331,38.819745 C 34.447331,42.212194 29.761316,42.48588 23.987472,42.48588 C 18.213633,42.48588 13.527615,42.212194 13.527615,38.819745 C 13.527615,35.427298 18.213633,30.1944 23.987472,30.1944 C 29.761316,30.1944 34.447331,35.427298 34.447331,38.819745 z " id="path7399" sodipodi:nodetypes="csssc"/>
    <path transform="matrix(0.7782433,0,0,1.333079,11.697359,-4.6942085)" d="M 26.96958 27.467861 A 11.631747 4.2642298 0 1 1  3.7060852,27.467861 A 11.631747 4.2642298 0 1 1  26.96958 27.467861 z" sodipodi:ry="4.2642298" sodipodi:rx="11.631747" sodipodi:cy="27.467861" sodipodi:cx="15.337832" id="path5993" style="opacity:0.47647059;color:#000000;fill:#000000;fill-opacity:1;fill-rule:evenodd;stroke:none;stroke-width:0.99999994;stroke-linecap:round;stroke-linejoin:round;marker:none;marker-start:none;marker-mid:none;marker-end:none;stroke-miterlimit:4;stroke-dasharray:none;stroke-dashoffset:0;stroke-opacity:0.49099097;visibility:visible;display:inline;overflow:visible;filter:url(#filter6025)" sodipodi:type="arc"/>
    <path sodipodi:nodetypes="csssc" id="path7402" d="M 33.471784,38.551985 C 33.471784,41.239991 29.225196,41.456847 23.992786,41.456847 C 18.760382,41.456847 14.51379,41.239991 14.51379,38.551985 C 14.51379,35.86398 18.760382,31.717695 23.992786,31.717695 C 29.225196,31.717695 33.471784,35.86398 33.471784,38.551985 z " style="color:#000000;fill:none;fill-opacity:1;fill-rule:evenodd;stroke:url(#linearGradient2212);stroke-width:0.99999994;stroke-linecap:round;stroke-linejoin:miter;marker:none;marker-start:none;marker-mid:none;marker-end:none;stroke-miterlimit:4;stroke-dashoffset:0;stroke-opacity:0.54054051;visibility:visible;display:inline;overflow:visible"/>
    <path style="color:#000000;fill:url(#radialGradient6029);fill-opacity:1.0;fill-rule:evenodd;stroke:url(#radialGradient6041);stroke-width:0.99999982;stroke-linecap:round;stroke-linejoin:miter;marker:none;marker-start:none;marker-mid:none;marker-end:none;stroke-miterlimit:4;stroke-dashoffset:0;stroke-opacity:1;visibility:visible;display:inline;overflow:visible" d="M 40.499096,20.467574 C 40.499096,29.128334 33.101885,36.157357 23.987463,36.157357 C 14.873044,36.157357 7.475834,29.128334 7.475834,20.467574 C 7.475834,11.806809 14.873044,4.777785 23.987463,4.777785 C 33.101885,4.777785 40.499096,11.806809 40.499096,20.467574 z " id="path7384"/>
    <path transform="matrix(0.866297,0,0,0.866006,-22.02994,11.46586)" d="M 61.797844 11.013739 A 8.6624146 8.6624146 0 1 1  44.473015,11.013739 A 8.6624146 8.6624146 0 1 1  61.797844 11.013739 z" sodipodi:ry="8.6624146" sodipodi:rx="8.6624146" sodipodi:cy="11.013739" sodipodi:cx="53.135429" id="path7394" style="opacity:1;color:#000000;fill:#1a1d1f;fill-opacity:1;fill-rule:evenodd;stroke:#080a0a;stroke-width:1.15453279;stroke-linecap:round;stroke-linejoin:miter;marker:none;marker-start:none;marker-mid:none;marker-end:none;stroke-miterlimit:4;stroke-dasharray:none;stroke-dashoffset:0;stroke-opacity:1;visibility:visible;display:inline;overflow:visible" sodipodi:type="arc"/>
    <path sodipodi:type="arc" style="opacity:1;color:#000000;fill:#4e9a06;fill-opacity:1;fill-rule:evenodd;stroke:none;stroke-width:1;stroke-linecap:round;stroke-linejoin:miter;marker:none;marker-start:none;marker-mid:none;marker-end:none;stroke-miterlimit:4;stroke-dasharray:none;stroke-dashoffset:0;stroke-opacity:0.54054051;visibility:visible;display:inline;overflow:visible" id="path7418" sodipodi:cx="9.0300102" sodipodi:cy="8.2567558" sodipodi:rx="1.0103508" sodipodi:ry="1.0734978" d="M 10.040361 8.2567558 A 1.0103508 1.0734978 0 1 1  8.0196594,8.2567558 A 1.0103508 1.0734978 0 1 1  10.040361 8.2567558 z" transform="matrix(2.0356945,0,0,1.915947,-2.6133304,-2.8232634)"/>
    <path id="path7404" d="M 39.481947,20.467564 C 39.481947,28.58872 32.543965,35.179802 23.995379,35.179802 C 15.446795,35.179802 8.5088115,28.58872 8.5088115,20.467564 C 8.5088115,12.346406 15.446795,5.7553233 23.995379,5.7553233 C 32.543965,5.7553233 39.481947,12.346406 39.481947,20.467564 z " style="opacity:1;color:#000000;fill:none;fill-opacity:1;fill-rule:evenodd;stroke:#ffffff;stroke-width:0.99999946;stroke-linecap:round;stroke-linejoin:miter;marker:none;marker-start:none;marker-mid:none;marker-end:none;stroke-miterlimit:4;stroke-dasharray:none;stroke-dashoffset:0;stroke-opacity:0.54054051;visibility:visible;display:inline;overflow:visible"/>
    <path sodipodi:type="arc" style="opacity:1;color:#000000;fill:none;fill-opacity:1;fill-rule:evenodd;stroke:url(#linearGradient3093);stroke-width:1.33855808;stroke-linecap:round;stroke-linejoin:miter;marker:none;marker-start:none;marker-mid:none;marker-end:none;stroke-miterlimit:4;stroke-dasharray:none;stroke-dashoffset:0;stroke-opacity:0.37387384;visibility:visible;display:inline;overflow:visible" id="path7423" sodipodi:cx="53.135429" sodipodi:cy="11.013739" sodipodi:rx="8.6624146" sodipodi:ry="8.6624146" d="M 61.797844 11.013739 A 8.6624146 8.6624146 0 1 1  44.473015,11.013739 A 8.6624146 8.6624146 0 1 1  61.797844 11.013739 z" transform="matrix(0.746845,0,0,0.7473,-15.67411,12.78367)"/>
    <path transform="matrix(1.337693,-1.306334,-0.593221,-0.652343,25.02462,46.6156)" d="M 10.040361 8.2567558 A 1.0103508 1.0734978 0 1 1  8.0196594,8.2567558 A 1.0103508 1.0734978 0 1 1  10.040361 8.2567558 z" sodipodi:ry="1.0734978" sodipodi:rx="1.0103508" sodipodi:cy="8.2567558" sodipodi:cx="9.0300102" id="path4755" style="opacity:1;color:#000000;fill:#555753;fill-opacity:1;fill-rule:evenodd;stroke:none;stroke-width:1;stroke-linecap:round;stroke-linejoin:miter;marker:none;marker-start:none;marker-mid:none;marker-end:none;stroke-miterlimit:4;stroke-dasharray:none;stroke-dashoffset:0;stroke-opacity:0.54054051;visibility:visible;display:inline;overflow:visible" sodipodi:type="arc"/>
    <path style="color:#000000;fill:#729fcf;fill-opacity:1;fill-rule:evenodd;stroke:#3465a4;stroke-width:0.99999994;stroke-linecap:round;stroke-linejoin:miter;marker:none;marker-start:none;marker-mid:none;marker-end:none;stroke-miterlimit:4;stroke-dashoffset:0;stroke-opacity:1;visibility:visible;display:inline;overflow:visible" d="M 28.470269,5.2767411 C 28.470269,6.3769991 26.461975,6.2733516 23.987472,6.2733516 C 21.512966,6.2733516 19.504673,6.3769991 19.504673,5.2767411 C 19.504673,4.1764829 21.512966,3.2835198 23.987472,3.2835198 C 26.461975,3.2835198 28.470269,4.1764829 28.470269,5.2767411 z " id="path7420" sodipodi:nodetypes="csssc"/>
    <path style="opacity:1;color:#000000;fill:#64c607;fill-opacity:1;fill-rule:evenodd;stroke:none;stroke-width:1;stroke-linecap:round;stroke-linejoin:miter;marker:none;marker-start:none;marker-mid:none;marker-end:none;stroke-miterlimit:4;stroke-dasharray:none;stroke-dashoffset:0;stroke-opacity:0.54054051;visibility:visible;display:inline;overflow:visible" d="M 15.59375,11.5 C 15.219962,11.54756 14.859905,11.760098 14.625,12.03125 C 14.411778,12.28958 14.28125,12.639135 14.28125,13 C 14.28125,13.12888 14.281774,13.255669 14.3125,13.375 C 15.397406,13.260556 16.17065,12.880007 16.9375,12.09375 C 16.943077,12.088032 16.931925,12.068261 16.9375,12.0625 C 16.663847,11.714338 16.258108,11.5 15.78125,11.5 C 15.71681,11.5 15.656048,11.492073 15.59375,11.5 z " id="path3972"/>
    <path style="fill:none;fill-opacity:1;fill-rule:evenodd;stroke:url(#linearGradient6602);stroke-width:1px;stroke-linecap:round;stroke-linejoin:miter;stroke-opacity:1" d="M 20.572388,5.1546796 C 22.148658,4.1221425 25.347243,3.8688101 27.464039,5.1546796" id="path4848" sodipodi:nodetypes="cc"/>
    <path sodipodi:type="arc" style="opacity:0.38235294;color:#000000;fill:url(#radialGradient11652);fill-opacity:1;fill-rule:nonzero;stroke:none;stroke-width:1;stroke-linecap:butt;stroke-linejoin:miter;marker:none;marker-start:none;marker-mid:none;marker-end:none;stroke-miterlimit:4;stroke-dashoffset:0;stroke-opacity:1;visibility:visible;display:inline;overflow:visible;font-family:Bitstream Vera Sans" id="path2599" sodipodi:cx="14.75" sodipodi:cy="22.6875" sodipodi:rx="1.75" sodipodi:ry="1.8125" d="M 16.5 22.6875 A 1.75 1.8125 0 1 1  13,22.6875 A 1.75 1.8125 0 1 1  16.5 22.6875 z" transform="matrix(2.229764,0,0,2.229764,-8.371313,-27.5036)"/>
    <path sodipodi:type="inkscape:offset" inkscape:radius="-1.1642135" inkscape:original="M 77.6875 -59 C 75.557592 -58.999998 73.875 -57.324673 73.875 -55.25 L 73.875 -45.09375 L 73.875 -1.8125 L 73.875 -1.3125 C 73.874997 3.9232308 79.710742 8.125 86.96875 8.125 C 92.624681 8.1249999 97.408001 5.1701221 99.25 1.5625 L 159.5625 1.5625 C 161.6924 1.5625 163.40625 -0.14407243 163.40625 -2.21875 L 163.40625 -55.25 C 163.40624 -57.324673 161.6924 -59 159.5625 -59 L 77.6875 -59 z " xlink:href="#rect4783" style="opacity:0.37058824;color:#000000;fill:none;fill-opacity:1;fill-rule:evenodd;stroke:url(#linearGradient5960);stroke-width:0.44588342;stroke-linecap:butt;stroke-linejoin:miter;marker:none;marker-start:none;marker-mid:none;marker-end:none;stroke-miterlimit:10;stroke-dasharray:none;stroke-dashoffset:0;stroke-opacity:1;visibility:visible;display:inline;overflow:visible;enable-background:accumulate" id="path5837" inkscape:href="#rect4783" d="M 5.21875,10.65625 C 4.8873522,10.65625 4.65625,10.902796 4.65625,11.1875 L 4.65625,15.71875 L 4.65625,35.0625 L 4.65625,35.28125 C 4.65625,36.019485 5.0486842,36.715787 5.875,37.3125 C 6.7013158,37.909213 7.9471874,38.34375 9.34375,38.34375 C 11.463736,38.34375 13.245322,37.142088 13.8125,36.03125 C 14.013191,35.647273 14.410489,35.406486 14.84375,35.40625 L 41.78125,35.40625 C 42.112647,35.40625 42.34375,35.159706 42.34375,34.875 L 42.34375,11.1875 C 42.343749,10.902795 42.112644,10.65625 41.78125,10.65625 L 5.21875,10.65625 z " transform="matrix(2.2473829,0,0,2.2381039,65.994101,-80.275764)"/>
    <path sodipodi:type="arc" style="color:#000000;fill:url(#radialGradient5973);fill-opacity:1;fill-rule:evenodd;stroke:none;stroke-width:0.30000001;stroke-linecap:butt;stroke-linejoin:miter;marker:none;marker-start:none;marker-mid:none;marker-end:none;stroke-miterlimit:10;stroke-dasharray:none;stroke-dashoffset:0;stroke-opacity:1;visibility:visible;display:inline;overflow:visible;enable-background:accumulate;opacity:0.48235294" id="path8893" sodipodi:cx="32.3125" sodipodi:cy="31" sodipodi:rx="2.6875" sodipodi:ry="2.6875" d="M 35 31 A 2.6875 2.6875 0 1 1  29.625,31 A 2.6875 2.6875 0 1 1  35 31 z" transform="matrix(2.2381039,0,0,2.2381039,-48.303828,-48.396125)"/>
    <path sodipodi:type="arc" style="color:#000000;fill:none;fill-opacity:1;fill-rule:evenodd;stroke:url(#radialGradient5971);stroke-width:0.47503382;stroke-linecap:butt;stroke-linejoin:miter;marker:none;marker-start:none;marker-mid:none;marker-end:none;stroke-miterlimit:10;stroke-dasharray:none;stroke-dashoffset:0;stroke-opacity:1;visibility:visible;display:inline;overflow:visible;enable-background:accumulate;opacity:1" id="path8907" sodipodi:cx="33.5625" sodipodi:cy="26" sodipodi:rx="2.125" sodipodi:ry="2.125" d="M 35.6875 26 A 2.125 2.125 0 1 1  31.4375,26 A 2.125 2.125 0 1 1  35.6875 26 z" transform="matrix(2.1051133,0,0,2.1051133,-46.626229,-33.715382)"/>
    <path sodipodi:type="arc" style="opacity:1;color:#000000;fill:#000000;fill-opacity:1;fill-rule:nonzero;stroke:none;stroke-width:1;stroke-linecap:butt;stroke-linejoin:miter;marker:none;marker-start:none;marker-mid:none;marker-end:none;stroke-miterlimit:4;stroke-dashoffset:0;stroke-opacity:1;visibility:visible;display:inline;overflow:visible;font-family:Bitstream Vera Sans" id="path15180" sodipodi:cx="14.75" sodipodi:cy="22.6875" sodipodi:rx="1.75" sodipodi:ry="1.8125" d="M 16.5 22.6875 A 1.75 1.8125 0 1 1  13,22.6875 A 1.75 1.8125 0 1 1  16.5 22.6875 z" transform="matrix(1.142857,0,0,1.103448,7.142867,-4.034485)"/>
    <path sodipodi:type="arc" style="opacity:1;color:#000000;fill:url(#linearGradient5981);fill-opacity:1;fill-rule:evenodd;stroke:none;stroke-width:1;stroke-linecap:round;stroke-linejoin:miter;marker:none;marker-start:none;marker-mid:none;marker-end:none;stroke-miterlimit:4;stroke-dasharray:none;stroke-dashoffset:0;stroke-opacity:1;visibility:visible;display:inline;overflow:visible;enable-background:accumulate" id="path5604" sodipodi:cx="20.875" sodipodi:cy="18.5625" sodipodi:rx="1.25" sodipodi:ry="1.25" d="M 22.125 18.5625 A 1.25 1.25 0 1 1  19.625,18.5625 A 1.25 1.25 0 1 1  22.125 18.5625 z" transform="matrix(2.4,0,0,1.6,-26.1,-11.7)"/>
    <path transform="matrix(2.0356945,0,0,1.915947,-2.6133304,-2.8232634)" d="M 10.040361 8.2567558 A 1.0103508 1.0734978 0 1 1  8.0196594,8.2567558 A 1.0103508 1.0734978 0 1 1  10.040361 8.2567558 z" sodipodi:ry="1.0734978" sodipodi:rx="1.0103508" sodipodi:cy="8.2567558" sodipodi:cx="9.0300102" id="path6043" style="opacity:1;color:#000000;fill:#edd400;fill-opacity:1;fill-rule:evenodd;stroke:none;stroke-width:1;stroke-linecap:round;stroke-linejoin:miter;marker:none;marker-start:none;marker-mid:none;marker-end:none;stroke-miterlimit:4;stroke-dasharray:none;stroke-dashoffset:0;stroke-opacity:0.54054051;visibility:visible;display:inline;overflow:visible;filter:url(#filter6137)" sodipodi:type="arc"/>
    <path sodipodi:type="arc" style="opacity:1;color:#000000;fill:#ffffff;fill-opacity:1;fill-rule:evenodd;stroke:none;stroke-width:1;stroke-linecap:round;stroke-linejoin:miter;marker:none;marker-start:none;marker-mid:none;marker-end:none;stroke-miterlimit:4;stroke-dasharray:none;stroke-dashoffset:0;stroke-opacity:1;visibility:visible;display:inline;overflow:visible;enable-background:accumulate" id="path6141" sodipodi:cx="15.71875" sodipodi:cy="13.09375" sodipodi:rx="0.8125" sodipodi:ry="0.8125" d="M 16.53125 13.09375 A 0.8125 0.8125 0 1 1  14.90625,13.09375 A 0.8125 0.8125 0 1 1  16.53125 13.09375 z" transform="translate(3.125e-2,-6.25e-2)"/>
    <path sodipodi:type="arc" style="opacity:1;color:#000000;fill:none;fill-opacity:1;fill-rule:evenodd;stroke:url(#linearGradient6153);stroke-width:1.02631152;stroke-linecap:round;stroke-linejoin:miter;marker:none;marker-start:none;marker-mid:none;marker-end:none;stroke-miterlimit:4;stroke-dasharray:none;stroke-dashoffset:0;stroke-opacity:1;visibility:visible;display:inline;overflow:visible" id="path6143" sodipodi:cx="53.135429" sodipodi:cy="11.013739" sodipodi:rx="8.6624146" sodipodi:ry="8.6624146" d="M 61.797844 11.013739 A 8.6624146 8.6624146 0 1 1  44.473015,11.013739 A 8.6624146 8.6624146 0 1 1  61.797844 11.013739 z" transform="matrix(0.974527,0,0,0.9741996,-27.780787,10.274244)"/>
  </g>
</svg>
