<?xml version="1.0" encoding="UTF-8" standalone="no"?>
<!-- Created with Inkscape (http://www.inkscape.org/) -->
<svg xmlns:dc="http://purl.org/dc/elements/1.1/" xmlns:cc="http://creativecommons.org/ns#" xmlns:rdf="http://www.w3.org/1999/02/22-rdf-syntax-ns#" xmlns:svg="http://www.w3.org/2000/svg" xmlns="http://www.w3.org/2000/svg" xmlns:sodipodi="http://sodipodi.sourceforge.net/DTD/sodipodi-0.dtd" xmlns:inkscape="http://www.inkscape.org/namespaces/inkscape" width="16" height="16" id="svg4754" version="1.1" inkscape:version="0.91 r13725" viewBox="0 0 16 16" sodipodi:docname="gear_white.svg">
  <defs id="defs4756"/>
  <g id="layer1" inkscape:label="Layer 1" inkscape:groupmode="layer">
    <path style="color:#000000;display:inline;overflow:visible;visibility:visible;opacity:1;fill:#7ad43f;fill-opacity:1;fill-rule:nonzero;stroke:#000000;stroke-width:0.49999994;stroke-linecap:round;stroke-linejoin:bevel;stroke-miterlimit:4;stroke-dasharray:none;stroke-dashoffset:0;stroke-opacity:1;marker:none;enable-background:accumulate" d="M 8 0.75 A 7.2500071 7.2500071 0 0 0 7.0605469 0.8203125 C 7.1143695 2.0600916 7.098073 3.288648 6.2011719 3.6601562 C 5.3033719 4.0320375 4.422786 3.1719733 3.5839844 2.2558594 A 7.2500071 7.2500071 0 0 0 2.2578125 3.5898438 C 3.1724333 4.4274725 4.0314685 5.3047447 3.6601562 6.2011719 C 3.2885522 7.0983038 2.0603825 7.1143638 0.8203125 7.0605469 A 7.2500071 7.2500071 0 0 0 0.75 8 A 7.2500071 7.2500071 0 0 0 0.8203125 8.9394531 C 2.0600916 8.8856304 3.288648 8.901927 3.6601562 9.7988281 C 4.0320374 10.696629 3.1719733 11.577214 2.2558594 12.416016 A 7.2500071 7.2500071 0 0 0 3.5898438 13.742188 C 4.4274724 12.827566 5.3047447 11.968531 6.2011719 12.339844 C 7.0983038 12.711448 7.1143637 13.939618 7.0605469 15.179688 A 7.2500071 7.2500071 0 0 0 8 15.25 A 7.2500071 7.2500071 0 0 0 8.9394531 15.179688 C 8.8856301 13.939908 8.9019275 12.711351 9.7988281 12.339844 C 10.696629 11.967964 11.577215 12.828028 12.416016 13.744141 A 7.2500071 7.2500071 0 0 0 13.742188 12.410156 C 12.827565 11.572527 11.968532 10.695256 12.339844 9.7988281 C 12.711448 8.9016962 13.939618 8.8856362 15.179688 8.9394531 A 7.2500071 7.2500071 0 0 0 15.25 8 A 7.2500071 7.2500071 0 0 0 15.179688 7.0605469 C 13.939908 7.1143699 12.711351 7.0980724 12.339844 6.2011719 C 11.967964 5.3033718 12.828028 4.4227861 13.744141 3.5839844 A 7.2500071 7.2500071 0 0 0 12.410156 2.2578125 C 11.572528 3.1724334 10.695256 4.0314687 9.7988281 3.6601562 C 8.9016962 3.2885522 8.8856363 2.0603825 8.9394531 0.8203125 A 7.2500071 7.2500071 0 0 0 8 0.75 z M 8 5.3632812 A 2.6363664 2.6363664 0 0 1 10.636719 8 A 2.6363664 2.6363664 0 0 1 8 10.636719 A 2.6363664 2.6363664 0 0 1 5.3632812 8 A 2.6363664 2.6363664 0 0 1 8 5.3632812 z " id="path8912"/>
  </g>
</svg>
