<?xml version="1.0" encoding="UTF-8" standalone="no"?>
<!-- Created with Inkscape (http://www.inkscape.org/) -->
<svg xmlns:dc="http://purl.org/dc/elements/1.1/" xmlns:cc="http://creativecommons.org/ns#" xmlns:rdf="http://www.w3.org/1999/02/22-rdf-syntax-ns#" xmlns:svg="http://www.w3.org/2000/svg" xmlns="http://www.w3.org/2000/svg" xmlns:sodipodi="http://sodipodi.sourceforge.net/DTD/sodipodi-0.dtd" xmlns:inkscape="http://www.inkscape.org/namespaces/inkscape" width="16" height="16" id="svg4754" version="1.1" inkscape:version="0.91 r13725" viewBox="0 0 16 16" sodipodi:docname="lamp_black.svg">
  <defs id="defs4756"/>
  <g id="layer1" inkscape:label="Layer 1" inkscape:groupmode="layer">
    <path style="color:#000000;display:inline;overflow:visible;visibility:visible;opacity:1;fill:#595959;fill-opacity:1;fill-rule:nonzero;stroke:#000000;stroke-width:0.49999997;stroke-linecap:round;stroke-linejoin:bevel;stroke-miterlimit:4;stroke-dasharray:none;stroke-dashoffset:0;stroke-opacity:1;marker:none;enable-background:accumulate" d="M 8,1 C 5.5147186,1 3.5,3.0147186 3.5,5.5 c 0.072776,1.011828 0.3648054,2.1587872 1,3 1.504446,1.992396 1.9453125,4.5 1.9453125,4.5 l 3.109375,0 c 0,0 0.4408665,-2.497252 1.9453125,-4.5 0.633098,-0.842792 0.986643,-2.1443378 1,-3 C 12.5,3.0147186 10.485281,1 8,1 Z" id="path8947" inkscape:connector-curvature="0" sodipodi:nodetypes="scsccscs"/>
    <path style="fill:#b3b3b3;fill-rule:evenodd;stroke:#000000;stroke-width:0.49999997;stroke-linecap:butt;stroke-linejoin:miter;stroke-miterlimit:4;stroke-dasharray:none;stroke-opacity:1" d="m 6.25,12.5 0,2.4 0.5833335,0.6 2.3333333,0 0.5833331,-0.6 0,-2.4 z" id="path8953" inkscape:connector-curvature="0"/>
    <path style="fill:none;fill-rule:evenodd;stroke:#000000;stroke-width:0.2;stroke-linecap:butt;stroke-linejoin:miter;stroke-miterlimit:4;stroke-dasharray:none;stroke-opacity:1" d="M 7.5,12.5 6,5.5 6.5,5 7,6 8,5 9,6 9.5,5 10,5.5 l -1.5,7" id="path8956" inkscape:connector-curvature="0" sodipodi:nodetypes="ccccccccc"/>
  </g>
</svg>
