<?xml version="1.0" encoding="UTF-8" standalone="no"?>
<!-- Created with Inkscape (http://www.inkscape.org/) -->
<svg xmlns:dc="http://purl.org/dc/elements/1.1/" xmlns:cc="http://web.resource.org/cc/" xmlns:rdf="http://www.w3.org/1999/02/22-rdf-syntax-ns#" xmlns:svg="http://www.w3.org/2000/svg" xmlns="http://www.w3.org/2000/svg" xmlns:xlink="http://www.w3.org/1999/xlink" xmlns:sodipodi="http://sodipodi.sourceforge.net/DTD/sodipodi-0.dtd" xmlns:inkscape="http://www.inkscape.org/namespaces/inkscape" sodipodi:docname="emblem-urgent.svg" sodipodi:docbase="/home/lapo/Icone/cvs/gnome-icon-theme/scalable/emblems" height="32.000000px" width="32.000000px" inkscape:version="0.44" sodipodi:version="0.32" id="svg1" inkscape:output_extension="org.inkscape.output.svg.inkscape">
  <defs id="defs3">
    <linearGradient id="linearGradient2174">
      <stop id="stop2175" offset="0.0000000" style="stop-color:#69271d;stop-opacity:1.0000000;"/>
      <stop id="stop2176" offset="1.0000000" style="stop-color:#c77961;stop-opacity:1.0000000;"/>
    </linearGradient>
    <linearGradient gradientUnits="userSpaceOnUse" y2="19.050718" x2="17.322512" y1="42.637798" x1="37.374870" id="linearGradient2177" xlink:href="#linearGradient2174" inkscape:collect="always"/>
  </defs>
  <path transform="matrix(0.474879,0.000000,0.000000,0.474879,3.122290,3.180454)" d="M 58.403591 29.207693 A 29.010935 29.010935 0 1 1  0.38172150,29.207693 A 29.010935 29.010935 0 1 1  58.403591 29.207693 z" sodipodi:ry="29.010935" sodipodi:rx="29.010935" sodipodi:cy="29.207693" sodipodi:cx="29.392656" id="path2157" style="fill:#000000;fill-opacity:0.098039217;fill-rule:evenodd;stroke:none;stroke-width:2.5000000;stroke-linecap:butt;stroke-linejoin:miter;stroke-miterlimit:4.0000000;stroke-opacity:1.0000000" sodipodi:type="arc"/>
  <path transform="matrix(0.474879,0.000000,0.000000,0.474879,2.512690,2.745024)" d="M 58.403591 29.207693 A 29.010935 29.010935 0 1 1  0.38172150,29.207693 A 29.010935 29.010935 0 1 1  58.403591 29.207693 z" sodipodi:ry="29.010935" sodipodi:rx="29.010935" sodipodi:cy="29.207693" sodipodi:cx="29.392656" id="path2156" style="fill:#000000;fill-opacity:0.098039217;fill-rule:evenodd;stroke:none;stroke-width:2.5000000;stroke-linecap:butt;stroke-linejoin:miter;stroke-miterlimit:4.0000000;stroke-opacity:1.0000000" sodipodi:type="arc"/>
  <path transform="matrix(0.474879,0.000000,0.000000,0.474879,1.990170,2.396674)" d="M 58.403591 29.207693 A 29.010935 29.010935 0 1 1  0.38172150,29.207693 A 29.010935 29.010935 0 1 1  58.403591 29.207693 z" sodipodi:ry="29.010935" sodipodi:rx="29.010935" sodipodi:cy="29.207693" sodipodi:cx="29.392656" id="path2155" style="fill:#000000;fill-opacity:0.098039217;fill-rule:evenodd;stroke:none;stroke-width:2.5000000;stroke-linecap:butt;stroke-linejoin:miter;stroke-miterlimit:4.0000000;stroke-opacity:1.0000000" sodipodi:type="arc"/>
  <path transform="matrix(0.459870,0.000000,0.000000,0.459870,1.891210,2.169424)" d="M 58.403591 29.207693 A 29.010935 29.010935 0 1 1  0.38172150,29.207693 A 29.010935 29.010935 0 1 1  58.403591 29.207693 z" sodipodi:ry="29.010935" sodipodi:rx="29.010935" sodipodi:cy="29.207693" sodipodi:cx="29.392656" id="path907" style="stroke-dasharray:none;stroke-opacity:1.0000000;stroke-miterlimit:4.0000000;stroke-linejoin:miter;stroke-linecap:butt;stroke-width:2.1745276;stroke:#5b2219;fill-rule:evenodd;fill-opacity:1.0000000;fill:#a63434" sodipodi:type="arc"/>
  <path transform="matrix(0.479814,0.000000,0.000000,0.479814,0.184440,1.344164)" d="M 50.384842 29.319231 A 18.624397 18.624397 0 1 1  13.136047,29.319231 A 18.624397 18.624397 0 1 1  50.384842 29.319231 z" sodipodi:ry="18.624397" sodipodi:rx="18.624397" sodipodi:cy="29.319231" sodipodi:cx="31.760445" id="path2159" style="fill:#ffffff;fill-opacity:1.0000000;fill-rule:evenodd;stroke:none;stroke-width:1.0000000pt;stroke-linecap:butt;stroke-linejoin:miter;stroke-opacity:1.0000000" sodipodi:type="arc"/>
  <rect rx="1.1492851" ry="1.1492851" y="7.9857798" x="13.743810" height="9.6216764" width="2.9046571" id="rect2180" style="fill:#a63434;fill-opacity:1.0000000;fill-rule:evenodd;stroke:none;stroke-width:1.0000000pt;stroke-linecap:butt;stroke-linejoin:miter;stroke-opacity:1.0000000"/>
  <rect transform="matrix(0.710722,-0.703473,0.703473,0.710722,0.000000,0.000000)" rx="1.1492852" ry="1.1492852" y="21.171124" x="-2.1626141" height="7.7154956" width="2.9046571" id="rect2181" style="fill:#a63434;fill-opacity:1.0000000;fill-rule:evenodd;stroke:none;stroke-width:1.0000000pt;stroke-linecap:butt;stroke-linejoin:miter;stroke-opacity:1.0000000"/>
  <path transform="matrix(0.510519,0.000000,0.000000,0.510519,0.315780,0.161334)" d="M 53.950159 30.352861 A 24.175779 24.175779 0 1 1  5.5986004,30.352861 A 24.175779 24.175779 0 1 1  53.950159 30.352861 z" sodipodi:ry="24.175779" sodipodi:rx="24.175779" sodipodi:cy="30.352861" sodipodi:cx="29.774380" id="path1552" style="stroke-dasharray:none;stroke-opacity:1.0000000;stroke-dashoffset:0.0000000;stroke-miterlimit:4.0000000;stroke-linejoin:round;stroke-linecap:round;stroke-width:2.4093129;stroke:url(#linearGradient2177);fill-rule:evenodd;fill-opacity:1.0000000;fill:none" sodipodi:type="arc"/>
</svg>
