<?xml version="1.0" encoding="UTF-8" standalone="no"?>
<!-- Created with Inkscape (http://www.inkscape.org/) -->
<svg xmlns:i="&#38;ns_ai;" xmlns:dc="http://purl.org/dc/elements/1.1/" xmlns:cc="http://web.resource.org/cc/" xmlns:rdf="http://www.w3.org/1999/02/22-rdf-syntax-ns#" xmlns:svg="http://www.w3.org/2000/svg" xmlns="http://www.w3.org/2000/svg" xmlns:xlink="http://www.w3.org/1999/xlink" xmlns:sodipodi="http://sodipodi.sourceforge.net/DTD/sodipodi-0.dtd" xmlns:inkscape="http://www.inkscape.org/namespaces/inkscape" width="48" height="48" id="svg1" sodipodi:version="0.32" inkscape:version="0.44" sodipodi:docbase="/home/lapo/Icone/cvs/gnome-icon-theme/scalable/status" sodipodi:docname="user-trash-full.svg" version="1.0" inkscape:output_extension="org.inkscape.output.svg.inkscape">
  <defs id="defs3">
    <linearGradient style="fill-rule:nonzero;" y2="72.608902" x2="192.38570" y1="72.608902" x1="78.245598" gradientUnits="userSpaceOnUse" id="linearGradient641">
      <stop id="stop642" style="stop-color:#f9feff;stop-opacity:1.0000000;" offset="0.0000000"/>
      <stop id="stop643" style="stop-color:#afb4b6;stop-opacity:1.0000000;" offset="1.0000000"/>
    </linearGradient>
    <radialGradient inkscape:collect="always" xlink:href="#linearGradient641" id="radialGradient1267" gradientUnits="userSpaceOnUse" gradientTransform="matrix(0.776773,0,0,0.906608,31.39762,48.05589)" cx="39.147720" cy="8.9303417" fx="39.147720" fy="8.9303417" r="13.265761"/>
    <radialGradient inkscape:collect="always" xlink:href="#linearGradient477" id="radialGradient1268" gradientUnits="userSpaceOnUse" gradientTransform="matrix(1.946539,0,0,0.507852,18.069,46.11344)" cx="16.280994" cy="20.452780" fx="16.280994" fy="20.452780" r="5.6434927"/>
    <linearGradient id="linearGradient454">
      <stop id="stop455" offset="0.0000000" style="stop-color:#ffffff;stop-opacity:1.0000000;"/>
      <stop id="stop457" offset="0.50000000" style="stop-color:#bebebe;stop-opacity:1.0000000;"/>
      <stop id="stop456" offset="1.0000000" style="stop-color:#b0b0b0;stop-opacity:1.0000000;"/>
    </linearGradient>
    <linearGradient inkscape:collect="always" xlink:href="#linearGradient454" id="linearGradient1269" gradientUnits="userSpaceOnUse" gradientTransform="matrix(1.237223,0,0,0.799011,26.76924,46.20132)" x1="14.248631" y1="11.165159" x2="18.086929" y2="14.748880"/>
    <linearGradient inkscape:collect="always" xlink:href="#linearGradient177" id="linearGradient1270" gradientUnits="userSpaceOnUse" gradientTransform="scale(1.244363,0.803624)" x1="128.35213" y1="116.66409" x2="132.98843" y2="122.61145"/>
    <linearGradient y2="137.97153" x2="136.98560" y1="67.364906" x1="81.307533" gradientTransform="scale(1.244363,0.803624)" gradientUnits="userSpaceOnUse" id="linearGradient234" xlink:href="#linearGradient177" inkscape:collect="always"/>
    <linearGradient inkscape:collect="always" xlink:href="#linearGradient177" id="linearGradient1271" gradientUnits="userSpaceOnUse" gradientTransform="matrix(1.237223,0,0,0.799011,26.76924,46.24152)" x1="9.9626188" y1="8.7251825" x2="20.135639" y2="14.744809"/>
    <linearGradient inkscape:collect="always" xlink:href="#linearGradient477" id="linearGradient1272" gradientUnits="userSpaceOnUse" gradientTransform="matrix(0.994261,0,0,0.994261,26.76924,46.20132)" x1="24.162909" y1="2.3488793" x2="40.437176" y2="10.115389"/>
    <linearGradient id="linearGradient513">
      <stop id="stop514" offset="0.0000000" style="stop-color:#696969;stop-opacity:1.0000000;"/>
      <stop id="stop515" offset="1.0000000" style="stop-color:#ffffff;stop-opacity:1.0000000;"/>
    </linearGradient>
    <linearGradient inkscape:collect="always" xlink:href="#linearGradient513" id="linearGradient1273" gradientUnits="userSpaceOnUse" gradientTransform="matrix(-1.281115,0.253279,-0.414878,0.853659,27.9117,45.93768)" x1="-32.400455" y1="18.817307" x2="-36.301399" y2="24.077389"/>
    <linearGradient style="fill-rule:nonzero;" y2="72.608902" x2="192.38570" y1="72.608902" x1="78.245598" gradientUnits="userSpaceOnUse" id="linearGradient477">
      <stop id="stop478" style="stop-color:#e4e9ea;stop-opacity:1.0000000;" offset="0.0000000"/>
      <stop id="stop479" style="stop-color:#85898A;fill-rule:nonzero;" offset="1"/>
    </linearGradient>
    <linearGradient inkscape:collect="always" xlink:href="#linearGradient477" id="linearGradient1274" gradientUnits="userSpaceOnUse" gradientTransform="matrix(0.730522,0.674458,0.674458,-0.730522,2.93412,37.14367)" x1="36.155384" y1="13.131673" x2="45.130928" y2="20.664473"/>
    <linearGradient id="linearGradient177">
      <stop id="stop178" offset="0.0000000" style="stop-color:#ffffff;stop-opacity:1.0000000;"/>
      <stop id="stop179" offset="1.0000000" style="stop-color:#b0b0b0;stop-opacity:1.0000000;"/>
    </linearGradient>
    <linearGradient inkscape:collect="always" xlink:href="#linearGradient177" id="linearGradient1275" gradientUnits="userSpaceOnUse" gradientTransform="matrix(1.237223,0,0,0.799011,27.77048,45.73815)" x1="16.551964" y1="14.035932" x2="13.763388" y2="9.3615303"/>
    <linearGradient id="linearGradient508">
      <stop id="stop509" offset="0.0000000" style="stop-color:#b0b0b0;stop-opacity:1.0000000;"/>
      <stop id="stop510" offset="1.0000000" style="stop-color:#b0b0b0;stop-opacity:1.0000000;"/>
    </linearGradient>
    <linearGradient inkscape:collect="always" xlink:href="#linearGradient508" id="linearGradient1276" gradientUnits="userSpaceOnUse" gradientTransform="matrix(0.908038,-0.118981,0.467092,0.474187,37.47776,49.83542)" x1="9.9626188" y1="8.7251825" x2="20.135639" y2="14.744809"/>
    <linearGradient id="linearGradient4524">
      <stop style="stop-color:#417ac3;stop-opacity:1;" offset="0" id="stop4526"/>
      <stop style="stop-color:#3465a4;stop-opacity:1;" offset="1" id="stop4528"/>
    </linearGradient>
    <linearGradient inkscape:collect="always" id="linearGradient5411">
      <stop style="stop-color:#ffffff;stop-opacity:1;" offset="0" id="stop5413"/>
      <stop style="stop-color:#ffffff;stop-opacity:0;" offset="1" id="stop5415"/>
    </linearGradient>
    <linearGradient id="linearGradient1877">
      <stop style="stop-color:#000000;stop-opacity:0.17964073;" offset="0.0000000" id="stop1878"/>
      <stop style="stop-color:#000000;stop-opacity:0.0000000;" offset="1.0000000" id="stop1879"/>
    </linearGradient>
    <linearGradient id="linearGradient1869">
      <stop style="stop-color:#eff3f4;stop-opacity:1.0000000;" offset="0.0000000" id="stop1870"/>
      <stop style="stop-color:#939596;stop-opacity:1.0000000;" offset="1.0000000" id="stop1871"/>
    </linearGradient>
    <linearGradient inkscape:collect="always" xlink:href="#linearGradient1869" id="linearGradient1872" gradientTransform="matrix(1.436131,0,0,0.475306,-6.508085,6.805509)" x1="-4.6375198" y1="104.38752" x2="-4.523921" y2="110.61378" gradientUnits="userSpaceOnUse"/>
    <linearGradient inkscape:collect="always" xlink:href="#linearGradient1877" id="linearGradient1894" gradientUnits="userSpaceOnUse" gradientTransform="matrix(-0.358726,0,0,1.867845,-36.85125,41.4295)" x1="-84.334358" y1="9.5548248" x2="-84.334358" y2="12.485031"/>
    <linearGradient inkscape:collect="always" xlink:href="#linearGradient5411" id="linearGradient5417" x1="-17.000057" y1="73.479156" x2="-19.345716" y2="98.479156" gradientUnits="userSpaceOnUse" gradientTransform="matrix(1,0,0,0.979216,0,1.222246)"/>
    <linearGradient inkscape:collect="always" xlink:href="#linearGradient4524" id="linearGradient4530" x1="-33.22401" y1="71.791658" x2="7.1282601" y2="71.791658" gradientUnits="userSpaceOnUse"/>
    <linearGradient id="linearGradient5048">
      <stop id="stop5050" offset="0" style="stop-color:black;stop-opacity:0;"/>
      <stop style="stop-color:black;stop-opacity:1;" offset="0.5" id="stop5056"/>
      <stop id="stop5052" offset="1" style="stop-color:black;stop-opacity:0;"/>
    </linearGradient>
    <linearGradient id="linearGradient5060" inkscape:collect="always">
      <stop id="stop5062" offset="0" style="stop-color:black;stop-opacity:1;"/>
      <stop id="stop5064" offset="1" style="stop-color:black;stop-opacity:0;"/>
    </linearGradient>
    <linearGradient inkscape:collect="always" xlink:href="#linearGradient5048" id="linearGradient2095" gradientUnits="userSpaceOnUse" gradientTransform="matrix(2.774389,0,0,1.969706,-1892.179,-872.8854)" x1="302.85715" y1="366.64789" x2="302.85715" y2="609.50507"/>
    <radialGradient inkscape:collect="always" xlink:href="#linearGradient5060" id="radialGradient2097" gradientUnits="userSpaceOnUse" gradientTransform="matrix(2.774389,0,0,1.969706,-1891.633,-872.8854)" cx="605.71429" cy="486.64789" fx="605.71429" fy="486.64789" r="117.14286"/>
    <radialGradient inkscape:collect="always" xlink:href="#linearGradient5060" id="radialGradient2099" gradientUnits="userSpaceOnUse" gradientTransform="matrix(-2.774389,0,0,1.969706,112.7623,-872.8854)" cx="605.71429" cy="486.64789" fx="605.71429" fy="486.64789" r="117.14286"/>
  </defs>
  <g inkscape:groupmode="layer" id="layer2" inkscape:label="Shadow">
    <g id="g6707" transform="matrix(2.154027e-2,0,0,2.179773e-2,43.31629,40.79676)" style="display:inline">
      <rect y="-150.69685" x="-1559.2523" height="478.35718" width="1339.6335" id="rect6709" style="opacity:0.40206185;color:black;fill:url(#linearGradient2095);fill-opacity:1;fill-rule:nonzero;stroke:none;stroke-width:1;stroke-linecap:round;stroke-linejoin:miter;marker:none;marker-start:none;marker-mid:none;marker-end:none;stroke-miterlimit:4;stroke-dasharray:none;stroke-dashoffset:0;stroke-opacity:1;visibility:visible;display:inline;overflow:visible"/>
      <path sodipodi:nodetypes="cccc" id="path6711" d="M -219.61876,-150.68038 C -219.61876,-150.68038 -219.61876,327.65041 -219.61876,327.65041 C -76.744594,328.55086 125.78146,220.48075 125.78138,88.454235 C 125.78138,-43.572302 -33.655436,-150.68036 -219.61876,-150.68038 z " style="opacity:0.40206185;color:black;fill:url(#radialGradient2097);fill-opacity:1;fill-rule:nonzero;stroke:none;stroke-width:1;stroke-linecap:round;stroke-linejoin:miter;marker:none;marker-start:none;marker-mid:none;marker-end:none;stroke-miterlimit:4;stroke-dasharray:none;stroke-dashoffset:0;stroke-opacity:1;visibility:visible;display:inline;overflow:visible"/>
      <path style="opacity:0.40206185;color:black;fill:url(#radialGradient2099);fill-opacity:1;fill-rule:nonzero;stroke:none;stroke-width:1;stroke-linecap:round;stroke-linejoin:miter;marker:none;marker-start:none;marker-mid:none;marker-end:none;stroke-miterlimit:4;stroke-dasharray:none;stroke-dashoffset:0;stroke-opacity:1;visibility:visible;display:inline;overflow:visible" d="M -1559.2523,-150.68038 C -1559.2523,-150.68038 -1559.2523,327.65041 -1559.2523,327.65041 C -1702.1265,328.55086 -1904.6525,220.48075 -1904.6525,88.454235 C -1904.6525,-43.572302 -1745.2157,-150.68036 -1559.2523,-150.68038 z " id="path6713" sodipodi:nodetypes="cccc"/>
    </g>
  </g>
  <g inkscape:label="Pixmap Background" inkscape:groupmode="layer" id="layer1"/>
  <g inkscape:label="Layer 1" inkscape:groupmode="layer" id="g1623" transform="translate(37.06885,-41.11763)">
    <path style="fill:url(#linearGradient4530);fill-opacity:1.0;fill-rule:evenodd;stroke:#204a87;stroke-width:1.02320302;stroke-linecap:butt;stroke-linejoin:miter;stroke-miterlimit:4;stroke-opacity:1" d="M -32.711617,57.920772 C -32.75484,57.886856 -31.013657,82.319708 -31.013161,82.327116 C -30.849819,84.76715 -29.478625,85.658942 -27.943864,85.662576 C -27.889022,85.6627 0.84900065,85.659434 1.4612656,85.656892 C 4.0458711,85.64616 4.6790717,84.093225 4.8490952,82.396482 C 4.8627317,82.363025 6.603023,57.954228 6.6166586,57.920772 C -6.4927658,57.920772 -19.602191,57.920772 -32.711617,57.920772 z " id="path1751" sodipodi:nodetypes="ccccccc" inkscape:r_cx="true" inkscape:r_cy="true"/>
    <path sodipodi:nodetypes="ccccccc" id="path4536" d="M -31.487684,58.804659 C -31.528216,58.773117 -29.957445,81.748687 -29.957445,81.748687 C -29.80427,84.018051 -29.080923,84.602662 -27.64169,84.606042 C -27.64169,84.606042 0.3590203,84.603118 0.93317605,84.600756 C 3.3569079,84.590774 3.6381962,83.207662 3.797637,81.629598 C 3.797637,81.629598 5.379895,58.835775 5.3926819,58.804659 C -6.9007726,58.804659 -19.194228,58.804659 -31.487684,58.804659 z " style="opacity:0.32967033;fill:none;fill-opacity:1;fill-rule:evenodd;stroke:url(#linearGradient5417);stroke-width:1.02320278;stroke-linecap:butt;stroke-linejoin:miter;stroke-miterlimit:4;stroke-opacity:1" inkscape:r_cx="true" inkscape:r_cy="true"/>
    <path style="fill:url(#linearGradient1872);fill-opacity:1;fill-rule:evenodd;stroke:#555555;stroke-width:1.02320313;stroke-linecap:butt;stroke-linejoin:miter;stroke-miterlimit:4;stroke-opacity:1" d="M -29.082499,45.829563 C -30.106321,45.831929 -30.963179,45.85588 -31.429903,46.84186 C -31.511024,47.013232 -33.983709,53.968498 -34.102588,54.233742 C -35.120311,56.50448 -34.181763,59.364893 -32.216058,59.345744 C -31.84223,59.342218 6.518454,59.363478 7.1133033,59.345744 C 8.7866141,59.296726 9.0007434,55.984399 8.2803939,54.494337 C 8.2395836,54.40992 4.8963639,46.747074 4.8110968,46.611348 C 4.4167208,46.005189 3.5335502,45.739533 2.8775216,45.764414 C 2.7482894,45.769438 -28.954598,45.829269 -29.082499,45.829563 z " id="path1841" sodipodi:nodetypes="cssssscss" inkscape:r_cx="true" inkscape:r_cy="true"/>
    <path style="color:#000000;fill:#204a87;fill-opacity:1;fill-rule:evenodd;stroke:none;stroke-width:0;stroke-linecap:butt;stroke-linejoin:miter;marker:none;marker-start:none;marker-mid:none;marker-end:none;stroke-miterlimit:4;stroke-dashoffset:0;stroke-opacity:1;visibility:visible;display:block" d="M -28.904114,47.210295 C -29.869702,47.197065 -29.932579,47.157501 -30.149937,47.881742 C -30.200113,48.048927 -32.221643,54.630972 -32.300884,54.88639 C -32.570366,55.755015 -32.189294,55.984256 -31.254099,55.966598 C -30.922809,55.960343 5.359423,55.966598 5.8868702,55.966598 C 6.6356452,55.966598 6.8577579,55.705163 6.6886176,55.088159 C 6.6198886,54.837443 3.8056452,47.809751 3.7300723,47.684596 C 3.3805322,47.125649 3.4411517,47.127276 2.8306245,47.119396 C 2.7160102,47.117916 -28.790763,47.211847 -28.904114,47.210295 z " id="path1864" sodipodi:nodetypes="cssssscss" inkscape:r_cx="true" inkscape:r_cy="true"/>
    <path style="color:#000000;fill:#132c52;fill-opacity:1;fill-rule:evenodd;stroke:none;stroke-width:0;stroke-linecap:butt;stroke-linejoin:miter;marker:none;marker-start:none;marker-mid:none;marker-end:none;stroke-miterlimit:4;stroke-dashoffset:0;stroke-opacity:1;visibility:visible;display:block" d="M -29.42274,47.202148 C -29.786334,47.23159 -29.961217,47.34586 -30.113402,47.853333 C -30.163578,48.020644 -32.182887,54.597959 -32.262128,54.85357 C -32.531611,55.722851 -32.17412,55.956548 -31.238926,55.938879 C -31.222726,55.938575 -29.323942,55.939131 -29.144207,55.938879 L -29.42274,47.202148 z " id="path1880" sodipodi:nodetypes="cccccc" inkscape:r_cx="true" inkscape:r_cy="true"/>
    <path style="color:#000000;fill:#729fcf;fill-opacity:1;fill-rule:evenodd;stroke:none;stroke-width:0;stroke-linecap:butt;stroke-linejoin:miter;marker:none;marker-start:none;marker-mid:none;marker-end:none;stroke-miterlimit:4;stroke-dashoffset:0;stroke-opacity:1;visibility:visible;display:block" d="M 2.8823282,47.11678 C 3.3242332,47.120782 3.4540015,47.111397 3.7365037,47.677324 C 3.7751374,47.754718 6.55447,54.735164 6.6542609,54.990551 C 6.9936352,55.974555 6.3472779,55.953979 5.3221031,55.982521 C 5.1273467,55.982217 2.8232902,55.959675 2.5969422,55.959422 L 2.8823282,47.11678 z " id="path1888" sodipodi:nodetypes="cscccc" inkscape:r_cx="true" inkscape:r_cy="true"/>
    <path style="color:#000000;fill:url(#linearGradient1894);fill-opacity:1;fill-rule:nonzero;stroke:none;stroke-width:0;stroke-linecap:butt;stroke-linejoin:miter;marker:none;marker-start:none;marker-mid:none;marker-end:none;stroke-miterlimit:4;stroke-dashoffset:0;stroke-opacity:1;visibility:visible;display:block" d="M 5.8674719,59.783199 L -29.241178,59.84715 C -2.6592192,60.465334 2.5633795,63.385727 5.8035217,63.236509 L 5.8674719,59.783199 z " id="path1893" sodipodi:nodetypes="cccc"/>
    <g id="g3702" transform="translate(-58.75,0)" inkscape:r_cx="true" inkscape:r_cy="true">
      <path inkscape:r_cy="true" inkscape:r_cx="true" style="color:#000000;fill:none;fill-opacity:1;fill-rule:evenodd;stroke:#6d6d6d;stroke-width:1.04897821;stroke-linecap:round;stroke-linejoin:round;marker:none;marker-start:none;marker-mid:none;marker-end:none;stroke-miterlimit:4;stroke-dashoffset:0;stroke-opacity:1;visibility:visible;display:inline;overflow:visible" d="M 37.855734,43.474184 C 37.998562,43.30329 37.959712,43.309787 37.567265,43.605306 C 35.997475,44.787381 33.397577,47.171832 33.397577,47.171832 C 33.397577,47.171832 33.618874,47.87228 32.977985,48.955096 C 32.337096,50.037911 30.40799,48.483056 30.407989,48.483055 C 29.707248,48.010956 30.150403,49.739121 31.01115,51.629991 C 30.100353,52.311738 29.437683,52.9876 29.437683,53.491927 C 29.437682,54.684872 29.35681,54.572541 29.280337,54.803149 C 28.79957,54.866198 28.256017,54.876504 27.444625,54.803149 C 29.210608,54.711143 30.30112,53.265655 30.735794,53.491927 C 30.780552,53.519751 29.619551,54.709519 29.673703,54.711364 C 29.655472,54.742463 29.175439,55.091619 29.175439,55.091619 L 40.058589,55.039171 C 40.05766,55.047956 40.060241,55.056579 40.058589,55.065393 L 50.312351,55.065393 C 50.290717,55.097023 49.958321,54.881822 49.958321,54.881822 L 51.440003,55.065393 L 55.00653,55.065393 C 55.020159,55.068297 54.991546,55.089314 55.00653,55.091619 C 55.00653,55.091619 57.473027,55.775668 57.209384,57.006003 C 56.94574,58.236339 56.317752,58.605696 56.317752,58.605696 C 56.317753,58.605694 56.595614,62.100775 56.947139,64.034158 C 57.298659,65.96754 56.687108,60.785123 57.917444,60.257836 C 59.14778,59.73055 62.385625,61.135831 63.791722,58.763042 C 65.197819,56.390255 64.772635,56.749354 64.421109,55.694781 C 64.411801,55.666855 64.353233,55.61958 64.342435,55.589883 L 64.526007,55.589883 C 65.026262,54.990198 65.592666,54.291823 66.466616,52.836316 C 64.31388,54.659522 64.406946,54.66305 64.001518,55.091619 C 63.723035,54.535368 63.291155,53.883068 62.637846,53.413253 L 62.768967,53.387028 C 62.768967,53.387028 62.641901,53.314573 63.345907,51.86601 C 64.04991,50.417449 58.749016,48.462955 59.831829,49.558258 C 60.42081,50.154032 59.006681,51.101253 57.471628,51.761113 C 57.287974,51.62169 55.608603,50.399209 54.167348,49.820503 C 53.869926,49.527369 53.766148,49.288682 53.406836,48.98132 C 57.111962,46.379546 50.403831,47.281804 46.168886,44.549387 C 49.100645,46.473345 49.177923,48.524369 48.161946,50.266318 C 47.030877,50.004831 46.106068,49.592141 46.378682,49.033769 C 46.906031,47.953644 44.369725,49.854144 43.756237,51.289072 C 43.645056,51.295933 43.559087,51.197335 43.441544,51.236624 C 43.433588,50.82219 43.498314,50.4273 43.389095,50.004074 C 42.72374,47.425831 40.418676,47.910023 38.458897,49.899176 C 37.59452,48.676718 36.066997,47.84974 35.705329,47.04071 C 35.295611,46.124198 37.427253,43.986865 37.855734,43.474184 z M 41.369812,51.420195 C 41.531217,51.420195 41.328197,51.809271 41.23869,52.075806 C 41.194153,52.082836 41.152625,52.096133 41.107567,52.102031 C 41.083009,51.716026 41.118737,51.420195 41.369812,51.420195 z M 57.052037,51.944684 C 56.80872,52.035739 56.607809,52.193304 56.370201,52.259377 C 56.328187,52.197003 56.230536,52.112762 56.18663,52.049581 L 57.052037,51.944684 z " id="path614" sodipodi:nodetypes="ccccccccccccccccccccccccccccccccccccccccccccccccccccc"/>
      <path inkscape:r_cy="true" inkscape:r_cx="true" style="color:#000000;fill:url(#linearGradient1276);fill-opacity:1;fill-rule:evenodd;stroke:none;stroke-width:2.21074963;stroke-linecap:butt;stroke-linejoin:miter;marker:none;marker-start:none;marker-mid:none;marker-end:none;stroke-miterlimit:4;stroke-dashoffset:0;stroke-opacity:1;visibility:visible;display:inline;overflow:visible" d="M 44.83783,53.590348 L 57.621694,51.856373 C 57.621694,51.856373 53.160766,48.436637 52.485034,49.820673 C 51.809305,51.204711 45.713797,50.413488 46.389527,49.029452 C 47.065258,47.645414 42.668111,51.165886 43.798345,52.313285 C 44.928577,53.460684 44.83783,53.590348 44.83783,53.590348 z " id="path506"/>
      <path inkscape:r_cy="true" inkscape:r_cx="true" style="color:#000000;fill:url(#linearGradient1275);fill-opacity:1;fill-rule:evenodd;stroke:none;stroke-width:2.21074963;stroke-linecap:butt;stroke-linejoin:miter;marker:none;marker-start:none;marker-mid:none;marker-end:none;stroke-miterlimit:4;stroke-dashoffset:0;stroke-opacity:1;visibility:visible;display:inline;overflow:visible" d="M 38.122724,50.187771 C 40.143988,47.902864 42.692539,47.287697 43.395588,50.012009 C 44.098636,52.736323 42.341015,55.900041 41.813729,54.669705 C 41.286441,53.43937 40.671275,51.418107 41.374323,51.418107 C 42.077371,51.418107 39.880345,54.581824 39.880345,54.581824 L 38.122724,50.187771 z " id="path459"/>
      <path inkscape:r_cy="true" inkscape:r_cx="true" style="color:#000000;fill:url(#linearGradient1274);fill-opacity:1;fill-rule:nonzero;stroke:none;stroke-width:1;stroke-linecap:butt;stroke-linejoin:miter;marker:none;marker-start:none;marker-mid:none;marker-end:none;stroke-miterlimit:4;stroke-dashoffset:0;stroke-opacity:1;visibility:visible;display:inline;overflow:visible" d="M 30.413288,48.485002 C 30.413288,48.485002 32.340466,50.025058 32.981355,48.942241 C 33.622244,47.859425 33.408715,47.183847 33.408715,47.183847 C 33.408715,47.183847 35.986986,44.779905 37.556776,43.597831 C 39.126565,42.415756 35.157344,45.808064 35.703635,47.03008 C 36.249924,48.252095 39.592826,49.424703 39.016358,52.121909 C 38.439891,54.819114 38.355499,54.262766 37.38185,54.799145 C 36.408203,55.335522 33.765507,56.125076 31.98744,53.646209 C 30.209371,51.167342 29.454655,47.839158 30.413288,48.485002 z " id="path504"/>
      <path inkscape:r_cy="true" inkscape:r_cx="true" style="color:#000000;fill:url(#linearGradient1273);fill-opacity:1;fill-rule:evenodd;stroke:none;stroke-width:2.21074963;stroke-linecap:butt;stroke-linejoin:miter;marker:none;marker-start:none;marker-mid:none;marker-end:none;stroke-miterlimit:4;stroke-dashoffset:0;stroke-opacity:1;visibility:visible;display:inline;overflow:visible" d="M 62.767868,53.395854 L 50.008931,55.486639 C 49.877809,55.119496 53.233951,51.174051 54.316761,52.269353 C 55.399574,53.364657 60.922061,50.66588 59.839248,49.570578 C 58.756436,48.475275 64.048431,50.404891 63.344427,51.853452 C 62.640423,53.302015 62.767868,53.395854 62.767868,53.395854 z " id="path511" sodipodi:nodetypes="cccccc"/>
      <path inkscape:r_cy="true" inkscape:r_cx="true" style="fill:#ffffff;fill-opacity:1;fill-rule:evenodd;stroke:none;stroke-width:1px;stroke-linecap:butt;stroke-linejoin:miter;stroke-opacity:1" d="M 41.902904,50.798986 L 42.781714,51.589916 L 36.278515,55.28092 L 41.902904,50.798986 z " id="path458"/>
      <path inkscape:r_cy="true" inkscape:r_cx="true" style="font-size:12px;fill:url(#linearGradient1272);fill-opacity:1;fill-rule:nonzero;stroke:none;overflow:visible" d="M 46.170092,44.53907 C 54.552319,50.039886 41.114233,57.900185 38.899563,52.803861 C 40.140446,53.717936 40.224749,54.664416 40.049176,55.600218 L 59.779034,55.600218 C 59.060695,55.387009 58.426938,55.138828 57.293382,55.103088 C 58.220209,54.799299 56.835276,51.912608 53.409552,48.982172 C 57.114675,46.380398 50.405035,47.271487 46.170092,44.53907 z M 66.459221,52.834932 C 63.827979,55.063399 64.237947,54.819164 63.445368,55.600218 L 64.532841,55.600218 C 65.033094,55.000534 65.58527,54.290439 66.459221,52.834932 z " id="path355"/>
      <path inkscape:r_cy="true" inkscape:r_cx="true" style="color:#000000;fill:url(#linearGradient1271);fill-opacity:1;fill-rule:evenodd;stroke:none;stroke-width:2.21074963;stroke-linecap:butt;stroke-linejoin:miter;marker:none;marker-start:none;marker-mid:none;marker-end:none;stroke-miterlimit:4;stroke-dashoffset:0;stroke-opacity:1;visibility:visible;display:inline;overflow:visible" d="M 29.169093,55.645229 L 46.65742,55.557348 C 46.65742,55.557348 45.339206,49.581438 42.878536,51.51482 C 40.417866,53.448204 34.00255,51.075416 36.463221,49.142032 C 38.923889,47.208649 29.432736,51.602702 29.432736,53.536084 C 29.432736,55.469469 29.169093,55.645229 29.169093,55.645229 z " id="path442"/>
      <g inkscape:r_cy="true" inkscape:r_cx="true" i:knockout="Off" style="font-size:12px;color:#000000;fill:url(#linearGradient234);fill-opacity:1;fill-rule:evenodd;stroke:none;stroke-width:2.13333321;stroke-linecap:butt;stroke-linejoin:miter;marker:none;marker-start:none;marker-mid:none;marker-end:none;stroke-miterlimit:4;stroke-dashoffset:0;stroke-opacity:1;visibility:visible;display:inline;overflow:visible" id="g378" transform="matrix(0.241485,0,0,0.241485,-8.3915,31.29133)">
        <path inkscape:r_cy="true" inkscape:r_cx="true" i:knockout="Off" style="color:#000000;fill:url(#linearGradient1270);marker:none;marker-start:none;marker-mid:none;marker-end:none;stroke-dashoffset:0;visibility:visible;display:inline;overflow:visible" d="M 163.66854,88.723079 C 164.69803,92.209992 156.205,98.079 148.429,97.376 C 155.742,96.995 153.18,98.302 154.98,99.239 C 157.137,100.58 168.86508,95.534348 163.66854,88.723079 z " id="path379" sodipodi:nodetypes="cccc"/>
      </g>
      <path inkscape:r_cy="true" inkscape:r_cx="true" style="color:#000000;fill:url(#linearGradient1269);fill-opacity:1;fill-rule:evenodd;stroke:none;stroke-width:2.21074963;stroke-linecap:butt;stroke-linejoin:miter;marker:none;marker-start:none;marker-mid:none;marker-end:none;stroke-miterlimit:4;stroke-dashoffset:0;stroke-opacity:1;visibility:visible;display:inline;overflow:visible" d="M 43.230061,51.914025 C 41.911844,52.441312 40.769391,54.989862 38.572364,55.077744 C 36.375337,55.165625 43.230061,55.69291 43.933108,55.077744 C 44.636156,54.462576 43.230061,51.914025 43.230061,51.914025 z " id="path448"/>
      <path inkscape:r_cy="true" inkscape:r_cx="true" style="color:#000000;fill:url(#radialGradient1268);fill-opacity:1;fill-rule:nonzero;stroke:none;stroke-width:1;stroke-linecap:butt;stroke-linejoin:miter;marker:none;marker-start:none;marker-mid:none;marker-end:none;stroke-miterlimit:4;stroke-dashoffset:0;stroke-opacity:1;visibility:visible;display:inline;overflow:visible" d="M 42.439131,55.51715 L 51.578761,55.51715 C 51.578761,55.51715 53.072738,52.880717 49.645377,53.056479 C 46.218016,53.23224 47.36047,54.286815 45.602848,54.638339 C 43.845228,54.989864 42.439131,55.51715 42.439131,55.51715 z " id="path491"/>
      <path inkscape:r_cy="true" inkscape:r_cx="true" style="color:#000000;fill:url(#radialGradient1267);fill-opacity:1;fill-rule:nonzero;stroke:none;stroke-width:1;stroke-linecap:butt;stroke-linejoin:miter;marker:none;marker-start:none;marker-mid:none;marker-end:none;stroke-miterlimit:4;stroke-dashoffset:0;stroke-opacity:1;visibility:visible;display:inline;overflow:visible" d="M 55.00612,55.605029 C 55.00612,55.605029 57.46679,55.780792 57.203147,57.011127 C 56.939505,58.241461 56.324336,58.592986 56.324336,58.592986 C 56.324336,58.592986 56.587979,62.108228 56.939505,64.041611 C 57.291028,65.974993 56.675861,60.790011 57.906195,60.262726 C 59.136531,59.735439 62.388127,61.141536 63.794224,58.768747 C 65.200322,56.395959 64.760917,56.747483 64.409391,55.69291 C 64.057868,54.638339 62.651771,52.26555 59.663817,52.880717 C 56.675861,53.495884 53.863667,55.429267 55.00612,55.605029 z " id="path498"/>
      <path inkscape:r_cy="true" inkscape:r_cx="true" style="fill:#ffffff;fill-opacity:1;fill-rule:evenodd;stroke:none;stroke-width:1px;stroke-linecap:butt;stroke-linejoin:miter;stroke-opacity:1" d="M 29.192084,55.625687 L 42.277304,55.585486 C 42.277304,55.585486 43.518844,55.330273 44.14195,55.169472 C 44.783599,54.841779 45.77115,54.848852 46.462675,54.492293 C 47.708462,53.849953 47.47634,53.075067 50.332038,53.056524 C 46.864405,52.685654 47.078596,54.280805 45.790764,54.588398 C 44.7456,54.838028 42.739608,55.545285 42.297403,55.484985 C 41.8552,55.424685 29.192084,55.625687 29.192084,55.625687 z " id="path644" sodipodi:nodetypes="cccscscc"/>
      <path inkscape:r_cy="true" inkscape:r_cx="true" style="fill:#ffffff;fill-opacity:1;fill-rule:evenodd;stroke:none;stroke-width:1px;stroke-linecap:butt;stroke-linejoin:miter;stroke-opacity:1" d="M 36.528651,51.083045 C 36.528651,51.083045 38.381263,52.50184 41.171793,52.188555 C 42.411528,52.049374 43.161711,51.203646 43.664217,51.143346 C 44.166721,51.083045 44.568724,51.384548 44.568724,51.384548 C 44.568724,51.384548 44.10642,51.163446 43.684315,51.263947 C 43.262212,51.364447 42.297325,52.43243 40.870291,52.389557 C 37.613981,52.291729 36.528651,51.083045 36.528651,51.083045 z " id="path645" sodipodi:nodetypes="cscccss"/>
      <path inkscape:r_cy="true" inkscape:r_cx="true" style="fill:#ffffff;fill-opacity:1;fill-rule:evenodd;stroke:none;stroke-width:1px;stroke-linecap:butt;stroke-linejoin:miter;stroke-opacity:1" d="M 46.188461,44.566096 C 46.188461,44.566096 49.192507,46.494619 48.89581,48.905273 C 48.599114,51.315927 45.854679,53.133188 45.854679,53.133188 C 45.854679,53.133188 49.47978,50.859378 49.229593,48.682751 C 48.858724,45.456183 46.188461,44.566096 46.188461,44.566096 z " id="path646" sodipodi:nodetypes="cccsc"/>
      <path inkscape:r_cy="true" inkscape:r_cx="true" style="color:#000000;fill:#000000;fill-opacity:0.17857139;fill-rule:evenodd;stroke:none;stroke-width:1px;stroke-linecap:butt;stroke-linejoin:miter;marker:none;marker-start:none;marker-mid:none;marker-end:none;stroke-miterlimit:4;stroke-dashoffset:0;stroke-opacity:1;visibility:visible;display:inline;overflow:visible" d="M 53.45751,49.016534 C 53.123727,48.386055 51.528986,47.125098 50.156768,46.828402 C 52.122378,47.34762 53.865466,48.645664 53.865466,48.645664 L 53.45751,49.016534 z " id="path647" sodipodi:nodetypes="cccc"/>
      <path inkscape:r_cy="true" inkscape:r_cx="true" style="fill:#000000;fill-opacity:0.17857139;fill-rule:evenodd;stroke:none;stroke-width:1px;stroke-linecap:butt;stroke-linejoin:miter;stroke-opacity:1" d="M 38.485121,49.820503 C 38.485121,49.820503 39.324303,50.843257 39.00961,52.049581 C 39.77012,52.206927 40.084812,52.233152 40.084812,52.233152 L 40.76665,51.68244 C 40.76665,51.68244 40.76665,50.056523 38.485121,49.820503 z " id="path648" sodipodi:nodetypes="ccccc"/>
      <path inkscape:r_cy="true" inkscape:r_cx="true" style="fill:#000000;fill-opacity:0.07142855;fill-rule:evenodd;stroke:none;stroke-width:1px;stroke-linecap:butt;stroke-linejoin:miter;stroke-opacity:1" d="M 36.117281,49.539401 C 36.117281,49.539401 37.612075,49.014912 37.218709,49.382054 C 36.825342,49.749196 39.080644,51.401337 39.080644,51.401337 C 39.080644,51.401337 39.080644,51.925826 38.975748,52.056949 C 38.870848,52.188072 35.120752,51.112869 36.117281,49.539401 z " id="path649"/>
    </g>
  </g>
</svg>
