<?xml version="1.0" encoding="UTF-8" standalone="no"?>
<!-- Created with Inkscape (http://www.inkscape.org/) -->
<svg xmlns:dc="http://purl.org/dc/elements/1.1/" xmlns:cc="http://creativecommons.org/ns#" xmlns:rdf="http://www.w3.org/1999/02/22-rdf-syntax-ns#" xmlns:svg="http://www.w3.org/2000/svg" xmlns="http://www.w3.org/2000/svg" xmlns:xlink="http://www.w3.org/1999/xlink" xmlns:sodipodi="http://sodipodi.sourceforge.net/DTD/sodipodi-0.dtd" xmlns:inkscape="http://www.inkscape.org/namespaces/inkscape" width="48px" height="48px" id="svg4417" sodipodi:version="0.32" inkscape:version="0.91 r13725" sodipodi:docname="color_gnome_2_applications-multimedia.svg" inkscape:export-filename="/home/andreas/project/gnome-icon-theme/scalable/categories/applications-multimedia.png" inkscape:export-xdpi="90" inkscape:export-ydpi="90" inkscape:output_extension="org.inkscape.output.svg.inkscape" sodipodi:modified="true" version="1.1">
  <defs id="defs4419">
    <linearGradient id="linearGradient2998">
      <stop style="stop-color:white;stop-opacity:0;" offset="0" id="stop3001"/>
      <stop id="stop3007" offset="0.5" style="stop-color:white;stop-opacity:1;"/>
      <stop style="stop-color:white;stop-opacity:0;" offset="1" id="stop3003"/>
    </linearGradient>
    <linearGradient inkscape:collect="always" id="linearGradient2996">
      <stop style="stop-color:white;stop-opacity:1;" offset="0" id="stop2998"/>
      <stop style="stop-color:white;stop-opacity:0;" offset="1" id="stop3000"/>
    </linearGradient>
    <linearGradient inkscape:collect="always" id="linearGradient2992">
      <stop style="stop-color:black;stop-opacity:1;" offset="0" id="stop2994"/>
      <stop style="stop-color:black;stop-opacity:0;" offset="1" id="stop2996"/>
    </linearGradient>
    <linearGradient id="linearGradient6593">
      <stop style="stop-color:#2e3436;stop-opacity:1;" offset="0" id="stop6595"/>
      <stop id="stop6601" offset="0.5" style="stop-color:#424a4d;stop-opacity:1;"/>
      <stop style="stop-color:#2e3436;stop-opacity:1;" offset="1" id="stop6597"/>
    </linearGradient>
    <linearGradient id="linearGradient3010">
      <stop id="stop3012" offset="0" style="stop-color:white;stop-opacity:1;"/>
      <stop id="stop3014" offset="1" style="stop-color:white;stop-opacity:0.4269006;"/>
    </linearGradient>
    <linearGradient id="linearGradient3002">
      <stop id="stop3004" offset="0" style="stop-color:#babdb6;stop-opacity:1"/>
      <stop id="stop3006" offset="1" style="stop-color:#2e3436;stop-opacity:1"/>
    </linearGradient>
    <linearGradient id="linearGradient5737">
      <stop style="stop-color:white;stop-opacity:1;" offset="0" id="stop5739"/>
      <stop style="stop-color:white;stop-opacity:0.32163742;" offset="1" id="stop5741"/>
    </linearGradient>
    <linearGradient id="linearGradient5683">
      <stop style="stop-color:white;stop-opacity:1;" offset="0" id="stop5685"/>
      <stop style="stop-color:#888a85;stop-opacity:1" offset="1" id="stop5687"/>
    </linearGradient>
    <linearGradient id="linearGradient4790">
      <stop style="stop-color:#555753;stop-opacity:1" offset="0" id="stop4792"/>
      <stop style="stop-color:#babdb6;stop-opacity:1" offset="1" id="stop4794"/>
    </linearGradient>
    <linearGradient id="linearGradient3202">
      <stop id="stop3204" offset="0" style="stop-color:#babdb6;stop-opacity:1"/>
      <stop id="stop3206" offset="1" style="stop-color:#555753;stop-opacity:1"/>
    </linearGradient>
    <linearGradient id="linearGradient3101">
      <stop style="stop-color:#2e3436;stop-opacity:1;" offset="0" id="stop3103"/>
      <stop id="stop3109" offset="0.12824793" style="stop-color:#555753;stop-opacity:1;"/>
      <stop style="stop-color:#555753;stop-opacity:1;" offset="0.56024098" id="stop3111"/>
      <stop style="stop-color:#2e3436;stop-opacity:1" offset="1" id="stop3105"/>
    </linearGradient>
    <linearGradient id="linearGradient3089">
      <stop style="stop-color:black;stop-opacity:1;" offset="0" id="stop3092"/>
      <stop style="stop-color:#2e3436;stop-opacity:1" offset="1" id="stop3094"/>
    </linearGradient>
    <linearGradient inkscape:collect="always" id="linearGradient3032">
      <stop style="stop-color:white;stop-opacity:1;" offset="0" id="stop3034"/>
      <stop style="stop-color:white;stop-opacity:0;" offset="1" id="stop3036"/>
    </linearGradient>
    <linearGradient inkscape:collect="always" id="linearGradient3169">
      <stop style="stop-color:black;stop-opacity:1;" offset="0" id="stop3171"/>
      <stop style="stop-color:black;stop-opacity:0;" offset="1" id="stop3173"/>
    </linearGradient>
    <linearGradient inkscape:collect="always" id="linearGradient3116">
      <stop style="stop-color:white;stop-opacity:1;" offset="0" id="stop3118"/>
      <stop style="stop-color:white;stop-opacity:0;" offset="1" id="stop3120"/>
    </linearGradient>
    <linearGradient id="linearGradient3093">
      <stop style="stop-color:#555753;stop-opacity:1;" offset="0" id="stop3095"/>
      <stop id="stop2022" offset="0.72289157" style="stop-color:#888a85;stop-opacity:1;"/>
      <stop style="stop-color:#71736e;stop-opacity:1;" offset="1" id="stop3097"/>
    </linearGradient>
    <linearGradient id="linearGradient3041">
      <stop style="stop-color:#555753;stop-opacity:1;" offset="0" id="stop3043"/>
      <stop id="stop3049" offset="0.32630172" style="stop-color:#898b86;stop-opacity:1;"/>
      <stop style="stop-color:#525450;stop-opacity:1;" offset="0.62983823" id="stop3051"/>
      <stop id="stop3053" offset="0.85847878" style="stop-color:#535551;stop-opacity:1;"/>
      <stop style="stop-color:#3e3f3d;stop-opacity:1;" offset="1" id="stop3045"/>
    </linearGradient>
    <linearGradient id="linearGradient2982">
      <stop style="stop-color:black;stop-opacity:0;" offset="0" id="stop2984"/>
      <stop id="stop2990" offset="0.0547975" style="stop-color:black;stop-opacity:1;"/>
      <stop style="stop-color:black;stop-opacity:1;" offset="0.90963858" id="stop2992"/>
      <stop style="stop-color:black;stop-opacity:0;" offset="1" id="stop2986"/>
    </linearGradient>
    <linearGradient id="aigrd6" gradientUnits="userSpaceOnUse" x1="-1.2432" y1="-3.2012" x2="26.5278" y2="28.3922">
      <stop offset="0" style="stop-color:#FFFFFF" id="stop6468"/>
      <stop offset="1" style="stop-color:#959595" id="stop6470"/>
    </linearGradient>
    <radialGradient id="aigrd3" cx="23.1567" cy="29.0337" r="26.966" fx="23.1567" fy="29.0337" gradientUnits="userSpaceOnUse">
      <stop offset="0" style="stop-color:#767676" id="stop6443"/>
      <stop offset="1" style="stop-color:#484848" id="stop6445"/>
    </radialGradient>
    <radialGradient id="aigrd2" cx="13.5024" cy="12.3457" r="10.8808" fx="13.5024" fy="12.3457" gradientUnits="userSpaceOnUse">
      <stop offset="0" style="stop-color:#454545" id="stop6436"/>
      <stop offset="1" style="stop-color:#333333" id="stop6438"/>
    </radialGradient>
    <linearGradient y2="248.6311" x2="153.0005" y1="15.4238" x1="99.7773" gradientUnits="userSpaceOnUse" id="aigrd1">
      <stop id="stop53300" style="stop-color:#707070;stop-opacity:1;" offset="0"/>
      <stop id="stop53302" style="stop-color:#cdcdcd;stop-opacity:1;" offset="1"/>
    </linearGradient>
    <linearGradient inkscape:collect="always" xlink:href="#linearGradient2982" id="linearGradient2988" x1="61.933079" y1="31.25" x2="106.09679" y2="31.25" gradientUnits="userSpaceOnUse" gradientTransform="translate(-60,0)"/>
    <linearGradient inkscape:collect="always" xlink:href="#linearGradient2982" id="linearGradient3000" x1="62.3125" y1="40" x2="106.06924" y2="40" gradientUnits="userSpaceOnUse" gradientTransform="translate(-60,0)"/>
    <linearGradient inkscape:collect="always" xlink:href="#linearGradient3041" id="linearGradient3047" x1="63.5" y1="29.4375" x2="104.79548" y2="29.4375" gradientUnits="userSpaceOnUse" gradientTransform="translate(-60,0)"/>
    <linearGradient inkscape:collect="always" xlink:href="#linearGradient3093" id="linearGradient3099" x1="91.339241" y1="19.333946" x2="105.30366" y2="19.333946" gradientUnits="userSpaceOnUse" gradientTransform="translate(-60,0)"/>
    <linearGradient inkscape:collect="always" xlink:href="#linearGradient3116" id="linearGradient3122" x1="75.875" y1="28.625" x2="77.375" y2="39.40625" gradientUnits="userSpaceOnUse"/>
    <linearGradient inkscape:collect="always" xlink:href="#linearGradient3032" id="linearGradient3087" gradientUnits="userSpaceOnUse" x1="77.000015" y1="13.524997" x2="80.39064" y2="-5.0196266"/>
    <linearGradient inkscape:collect="always" xlink:href="#linearGradient3089" id="linearGradient3096" x1="87.5" y1="13.75" x2="90.249092" y2="14.446928" gradientUnits="userSpaceOnUse" gradientTransform="translate(-60,0)"/>
    <linearGradient inkscape:collect="always" xlink:href="#linearGradient3101" id="linearGradient3107" x1="76.937096" y1="15.875" x2="93.063683" y2="15.875" gradientUnits="userSpaceOnUse" gradientTransform="translate(-60,0)"/>
    <linearGradient inkscape:collect="always" xlink:href="#linearGradient2982" id="linearGradient3060" x1="18.738331" y1="16.695379" x2="44.680313" y2="23.499962" gradientUnits="userSpaceOnUse"/>
    <linearGradient inkscape:collect="always" xlink:href="#linearGradient2982" id="linearGradient3062" x1="18.738331" y1="15.695379" x2="44.680313" y2="22.499962" gradientUnits="userSpaceOnUse"/>
    <radialGradient inkscape:collect="always" xlink:href="#linearGradient3169" id="radialGradient3143" gradientUnits="userSpaceOnUse" gradientTransform="matrix(0.970504,0,0,0.407216,-56.50939,11.32708)" cx="85.500011" cy="16.999587" fx="85.500011" fy="16.999587" r="22.249191"/>
    <radialGradient inkscape:collect="always" xlink:href="#linearGradient5683" id="radialGradient5689" cx="13.67201" cy="7.8948545" fx="13.67201" fy="7.8948545" r="17.503583" gradientTransform="matrix(2.396145,0,0,1.213358,-19.88512,-7.579285)" gradientUnits="userSpaceOnUse"/>
    <linearGradient inkscape:collect="always" xlink:href="#linearGradient5737" id="linearGradient5743" x1="81.92186" y1="14.49374" x2="81.690651" y2="3.1698563" gradientUnits="userSpaceOnUse"/>
    <radialGradient inkscape:collect="always" xlink:href="#linearGradient3002" id="radialGradient3907" gradientUnits="userSpaceOnUse" gradientTransform="matrix(2.03989,0,0,1.032958,-64.86939,-4.409191)" cx="13.171977" cy="21.697666" fx="13.171977" fy="21.697666" r="17.503583"/>
    <linearGradient inkscape:collect="always" xlink:href="#linearGradient3010" id="linearGradient3909" gradientUnits="userSpaceOnUse" x1="80.992172" y1="15.317177" x2="84.55397" y2="5.7076802"/>
    <linearGradient inkscape:collect="always" xlink:href="#linearGradient6593" id="linearGradient6599" x1="26.641592" y1="8.5011101" x2="24.358414" y2="10.498891" gradientUnits="userSpaceOnUse"/>
    <radialGradient inkscape:collect="always" xlink:href="#linearGradient2992" id="radialGradient2998" cx="25.546875" cy="10" fx="25.546875" fy="10" r="8.453125" gradientTransform="matrix(1,0,0,0.469501,0,5.304991)" gradientUnits="userSpaceOnUse"/>
    <linearGradient inkscape:collect="always" xlink:href="#linearGradient2996" id="linearGradient3003" x1="25.5" y1="15.453269" x2="24.942444" y2="1.2227453" gradientUnits="userSpaceOnUse"/>
    <linearGradient inkscape:collect="always" xlink:href="#linearGradient2998" id="linearGradient3005" x1="22.4375" y1="32.25" x2="28.25" y2="31.75" gradientUnits="userSpaceOnUse" gradientTransform="translate(14.75,-0.75)"/>
    <linearGradient inkscape:collect="always" xlink:href="#linearGradient2998" id="linearGradient3017" x1="44.331707" y1="22.49238" x2="46.908863" y2="22.693205" gradientUnits="userSpaceOnUse"/>
  </defs>
  <g id="layer1" inkscape:label="Layer 1" inkscape:groupmode="layer" style="display:inline">
    <path style="opacity:0.8;color:black;fill:url(#radialGradient3143);fill-opacity:1;fill-rule:nonzero;stroke:none;stroke-width:0.99999988;stroke-linecap:round;stroke-linejoin:round;marker:none;marker-start:none;marker-mid:none;marker-end:none;stroke-miterlimit:4;stroke-dasharray:none;stroke-dashoffset:1.20000057;stroke-opacity:1;visibility:visible;display:inline;overflow:visible" d="M 37.265718,10.402843 C 26.947159,7.9031525 13.725313,9.3896756 7.7678855,13.719266 C 1.8104576,18.048857 5.3532386,23.59664 15.671801,26.09633 C 25.990362,28.596021 39.212206,27.109496 45.16963,22.779906 C 51.127064,18.450317 47.584288,12.902533 37.265718,10.402843 z " id="path3141" sodipodi:nodetypes="csssc"/>
    <path style="opacity:1;color:black;fill:none;fill-opacity:1;fill-rule:nonzero;stroke:#888a85;stroke-width:2;stroke-linecap:round;stroke-linejoin:round;marker:none;marker-start:none;marker-mid:none;marker-end:none;stroke-miterlimit:4;stroke-dasharray:none;stroke-dashoffset:1.20000057;stroke-opacity:1;visibility:visible;display:inline;overflow:visible" d="M 26.513532,3.069333 C 27.494068,3.144641 27.625715,3.264127 27.593697,3.379126 L 25.353295,7.201505 C 25.241199,7.392753 24.858508,7.513819 24.307494,7.605839 C 23.749135,7.647763 23.314524,7.628665 23.015452,7.491943 L 16.895253,4.686457 C 16.661667,4.546046 16.821602,4.319954 19.490909,3.569783 C 20.984007,3.258201 22.590966,3.065644 24.257151,3 C 25.237216,3.014582 26.030543,3.032239 26.513532,3.069333 z M 31.282791,3.653536 C 31.750192,3.705773 32.579862,3.871181 33.795668,4.168406 C 35.16683,4.606105 36.347892,5.140176 37.300167,5.751299 C 38.791373,7.011106 38.682595,7.243464 38.326732,7.311671 L 29.958044,8.342364 C 29.523357,8.395612 29.110469,8.293131 28.640151,8.106981 C 28.310696,7.916013 28.145983,7.735758 28.251072,7.556464 L 30.491474,3.734084 C 30.569914,3.648554 30.74289,3.593199 31.282791,3.653536 z M 14.624127,5.635824 C 14.672763,5.642736 14.726595,5.654075 14.766964,5.66811 L 20.895251,8.459797 C 21.198262,8.598318 21.220027,8.804396 21.123149,9.064521 C 20.922542,9.31194 20.678301,9.485432 20.26438,9.536135 L 11.903779,10.553029 C 11.524573,10.575096 11.159907,10.395586 11.066412,9.001043 C 11.140424,8.627402 11.274477,8.259682 11.494076,7.885023 C 11.713674,7.510364 11.999766,7.161268 12.344331,6.820768 C 13.737443,5.79183 14.306188,5.590641 14.624127,5.635824 z M 39.255235,8.652972 C 39.579997,8.686515 39.852498,8.990752 39.933588,10.20027 C 39.859576,10.573911 39.725523,10.941631 39.505924,11.31629 C 39.286326,11.69095 39.000234,12.040045 38.655669,12.380545 C 37.04945,13.566883 36.537303,13.638989 36.233036,13.533203 L 30.104749,10.741516 C 29.81764,10.610264 29.776139,10.418878 29.852587,10.17819 C 29.862751,10.164742 29.866324,10.149776 29.876851,10.136792 C 29.881935,10.123141 29.895209,10.109364 29.901116,10.095394 C 30.098159,9.869478 30.343421,9.71322 30.73562,9.665178 L 39.096221,8.648284 C 39.146533,8.645356 39.205556,8.647841 39.255235,8.652972 z M 21.647827,10.874004 C 21.852925,10.908941 22.06662,10.973673 22.28547,11.055641 C 22.662017,11.261281 22.861024,11.453602 22.748928,11.644849 L 20.508526,15.467229 C 20.362179,15.626804 19.824526,15.673458 17.204332,15.032907 C 15.833169,14.595211 14.652109,14.061136 13.699833,13.450014 C 12.20863,12.190207 12.317406,11.957847 12.673268,11.889642 L 21.041956,10.858949 C 21.246227,10.833927 21.442729,10.839068 21.647827,10.874004 z M 27.473567,11.587619 C 27.677762,11.605656 27.840994,11.643744 27.984548,11.709371 L 34.104747,14.514857 C 34.338335,14.655265 34.1784,14.881358 31.509091,15.63153 C 30.015994,15.943111 28.409033,16.135671 26.742849,16.201313 C 23.773106,16.157133 23.358511,15.993835 23.406303,15.822188 L 25.646705,11.999808 C 25.763112,11.801204 26.173739,11.68218 26.760965,11.589069 C 27.024213,11.571596 27.269373,11.569582 27.473567,11.587619 z " id="path2995" sodipodi:nodetypes="cccccccccccccccccccccccccsccccscccsssccccccccccccccccccccc"/>
    <g id="g3901" transform="matrix(0.976118,0,0,0.976118,49.41488,6.4418)">
      <path sodipodi:nodetypes="cccccccccccccccccccccccccsccccscccsssccccccccccccccccccccc" id="path2984" d="M -23.486468,3.069333 C -22.505932,3.144641 -22.374285,3.264127 -22.406303,3.379126 L -24.646705,7.201505 C -24.758801,7.392753 -25.141492,7.513819 -25.692506,7.605839 C -26.250865,7.647763 -26.685476,7.628665 -26.984548,7.491943 L -33.104747,4.686457 C -33.338333,4.546046 -33.178398,4.319954 -30.509091,3.569783 C -29.015993,3.258201 -27.409034,3.065644 -25.742849,3 C -24.762784,3.014582 -23.969457,3.032239 -23.486468,3.069333 z M -18.717209,3.653536 C -18.249808,3.705773 -17.420138,3.871181 -16.204332,4.168406 C -14.83317,4.606105 -13.652108,5.140176 -12.699833,5.751299 C -11.208627,7.011106 -11.317405,7.243464 -11.673268,7.311671 L -20.041956,8.342364 C -20.476643,8.395612 -20.889531,8.293131 -21.359849,8.106981 C -21.689304,7.916013 -21.854017,7.735758 -21.748928,7.556464 L -19.508526,3.734084 C -19.430086,3.648554 -19.25711,3.593199 -18.717209,3.653536 z M -35.375873,5.635824 C -35.327237,5.642736 -35.273405,5.654075 -35.233036,5.66811 L -29.104749,8.459797 C -28.801738,8.598318 -28.779973,8.804396 -28.876851,9.064521 C -29.077458,9.31194 -29.321699,9.485432 -29.73562,9.536135 L -38.096221,10.553029 C -38.475427,10.575096 -38.840093,10.395586 -38.933588,9.001043 C -38.859576,8.627402 -38.725523,8.259682 -38.505924,7.885023 C -38.286326,7.510364 -38.000234,7.161268 -37.655669,6.820768 C -36.262557,5.79183 -35.693812,5.590641 -35.375873,5.635824 z M -10.744765,8.652972 C -10.420003,8.686515 -10.147502,8.990752 -10.066412,10.20027 C -10.140424,10.573911 -10.274477,10.941631 -10.494076,11.31629 C -10.713674,11.69095 -10.999766,12.040045 -11.344331,12.380545 C -12.95055,13.566883 -13.462697,13.638989 -13.766964,13.533203 L -19.895251,10.741516 C -20.18236,10.610264 -20.223861,10.418878 -20.147413,10.17819 C -20.137249,10.164742 -20.133676,10.149776 -20.123149,10.136792 C -20.118065,10.123141 -20.104791,10.109364 -20.098884,10.095394 C -19.901841,9.869478 -19.656579,9.71322 -19.26438,9.665178 L -10.903779,8.648284 C -10.853467,8.645356 -10.794444,8.647841 -10.744765,8.652972 z M -28.352173,10.874004 C -28.147075,10.908941 -27.93338,10.973673 -27.71453,11.055641 C -27.337983,11.261281 -27.138976,11.453602 -27.251072,11.644849 L -29.491474,15.467229 C -29.637821,15.626804 -30.175474,15.673458 -32.795668,15.032907 C -34.166831,14.595211 -35.347891,14.061136 -36.300167,13.450014 C -37.79137,12.190207 -37.682594,11.957847 -37.326732,11.889642 L -28.958044,10.858949 C -28.753773,10.833927 -28.557271,10.839068 -28.352173,10.874004 z M -22.526433,11.587619 C -22.322238,11.605656 -22.159006,11.643744 -22.015452,11.709371 L -15.895253,14.514857 C -15.661665,14.655265 -15.8216,14.881358 -18.490909,15.63153 C -19.984006,15.943111 -21.590967,16.135671 -23.257151,16.201313 C -26.226894,16.157133 -26.641489,15.993835 -26.593697,15.822188 L -24.353295,11.999808 C -24.236888,11.801204 -23.826261,11.68218 -23.239035,11.589069 C -22.975787,11.571596 -22.730627,11.569582 -22.526433,11.587619 z " style="opacity:1;color:black;fill:none;fill-opacity:1;fill-rule:nonzero;stroke:#2e3436;stroke-width:2.04893351;stroke-linecap:round;stroke-linejoin:round;marker:none;marker-start:none;marker-mid:none;marker-end:none;stroke-miterlimit:4;stroke-dasharray:none;stroke-dashoffset:1.20000057;stroke-opacity:1;visibility:visible;display:inline;overflow:visible"/>
      <path sodipodi:nodetypes="csssccccccccccccccccccccccccccsccccscccsssccccccccccccccccccccc" id="path2998" d="M -19.970667,2.274237 C -29.301506,1.13127 -38.90351,3.665589 -41.403702,7.931199 C -43.903895,12.196811 -38.360174,16.58638 -29.029333,17.729347 C -19.698494,18.872313 -10.096492,16.337996 -7.596298,12.072384 C -5.096106,7.806773 -10.639827,3.417203 -19.970667,2.274237 z M -23.486468,3 C -22.505932,3.075308 -22.374285,3.194794 -22.406303,3.309793 L -24.646705,7.132172 C -24.758801,7.32342 -25.141492,7.444486 -25.692506,7.536506 C -26.250865,7.57843 -26.685476,7.559332 -26.984548,7.42261 L -33.104747,4.617124 C -33.338333,4.476713 -33.178398,4.250621 -30.509091,3.50045 C -29.015993,3.188868 -27.409034,2.996311 -25.742849,2.930667 C -24.762784,2.945249 -23.969457,2.962906 -23.486468,3 z M -18.717209,3.584203 C -18.249808,3.63644 -17.420138,3.801848 -16.204332,4.099073 C -14.83317,4.536772 -13.652108,5.070843 -12.699833,5.681966 C -11.208627,6.941773 -11.317405,7.174131 -11.673268,7.242338 L -20.041956,8.273031 C -20.476643,8.326279 -20.889531,8.223798 -21.359849,8.037648 C -21.689304,7.84668 -21.854017,7.666425 -21.748928,7.487131 L -19.508526,3.664751 C -19.430086,3.579221 -19.25711,3.523866 -18.717209,3.584203 z M -35.375873,5.566491 C -35.327237,5.573403 -35.273405,5.584742 -35.233036,5.598777 L -29.104749,8.390464 C -28.801738,8.528985 -28.779973,8.735063 -28.876851,8.995188 C -29.077458,9.242607 -29.321699,9.416099 -29.73562,9.466802 L -38.096221,10.483696 C -38.475427,10.505763 -38.840093,10.326253 -38.933588,8.93171 C -38.859576,8.558069 -38.725523,8.190349 -38.505924,7.81569 C -38.286326,7.441031 -38.000234,7.091935 -37.655669,6.751435 C -36.262557,5.722497 -35.693812,5.521308 -35.375873,5.566491 z M -10.744765,8.583639 C -10.420003,8.617182 -10.147502,8.921419 -10.066412,10.130937 C -10.140424,10.504578 -10.274477,10.872298 -10.494076,11.246957 C -10.713674,11.621617 -10.999766,11.970712 -11.344331,12.311212 C -12.95055,13.49755 -13.462697,13.569656 -13.766964,13.46387 L -19.895251,10.672183 C -20.18236,10.540931 -20.223861,10.349545 -20.147413,10.108857 C -20.137249,10.095409 -20.133676,10.080443 -20.123149,10.067459 C -20.118065,10.053808 -20.104791,10.040031 -20.098884,10.026061 C -19.901841,9.800145 -19.656579,9.643887 -19.26438,9.595845 L -10.903779,8.578951 C -10.853467,8.576023 -10.794444,8.578508 -10.744765,8.583639 z M -28.352173,10.804671 C -28.147075,10.839608 -27.93338,10.90434 -27.71453,10.986308 C -27.337983,11.191948 -27.138976,11.384269 -27.251072,11.575516 L -29.491474,15.397896 C -29.637821,15.557471 -30.175474,15.604125 -32.795668,14.963574 C -34.166831,14.525878 -35.347891,13.991803 -36.300167,13.380681 C -37.79137,12.120874 -37.682594,11.888514 -37.326732,11.820309 L -28.958044,10.789616 C -28.753773,10.764594 -28.557271,10.769735 -28.352173,10.804671 z M -22.526433,11.518286 C -22.322238,11.536323 -22.159006,11.574411 -22.015452,11.640038 L -15.895253,14.445524 C -15.661665,14.585932 -15.8216,14.812025 -18.490909,15.562197 C -19.984006,15.873778 -21.590967,16.066338 -23.257151,16.13198 C -26.226894,16.0878 -26.641489,15.924502 -26.593697,15.752855 L -24.353295,11.930475 C -24.236888,11.731871 -23.826261,11.612847 -23.239035,11.519736 C -22.975787,11.502263 -22.730627,11.500249 -22.526433,11.518286 z " style="opacity:1;color:black;fill:url(#radialGradient3907);fill-opacity:1;fill-rule:nonzero;stroke:none;stroke-width:0.69588834;stroke-linecap:round;stroke-linejoin:round;marker:none;marker-start:none;marker-mid:none;marker-end:none;stroke-miterlimit:4;stroke-dasharray:none;stroke-dashoffset:1.20000057;stroke-opacity:1;visibility:visible;display:inline;overflow:visible"/>
      <path transform="matrix(1.210083,0,0,1.462367,-127.7352,-5.811834)" d="M 100.1875,10.8125 A 14.875,5.8125 0 0 1 85.3125,16.625 14.875,5.8125 0 0 1 70.4375,10.8125 14.875,5.8125 0 0 1 85.3125,5 a 14.875,5.8125 0 0 1 14.875,5.8125 z" sodipodi:ry="5.8125" sodipodi:rx="14.875" sodipodi:cy="10.8125" sodipodi:cx="85.3125" id="path2986" style="color:black;fill:none;fill-opacity:1;fill-rule:nonzero;stroke:#555753;stroke-width:0.77012676;stroke-linecap:round;stroke-linejoin:miter;marker:none;marker-start:none;marker-mid:none;marker-end:none;stroke-miterlimit:4;stroke-dasharray:none;stroke-dashoffset:1.20000057;stroke-opacity:1;visibility:visible;display:inline;overflow:visible" sodipodi:type="arc"/>
      <path transform="matrix(1.142856,0,0,1.290324,-121.9999,-3.951621)" d="M 100.1875,10.8125 A 14.875,5.8125 0 0 1 85.3125,16.625 14.875,5.8125 0 0 1 70.4375,10.8125 14.875,5.8125 0 0 1 85.3125,5 a 14.875,5.8125 0 0 1 14.875,5.8125 z" sodipodi:ry="5.8125" sodipodi:rx="14.875" sodipodi:cy="10.8125" sodipodi:cx="85.3125" id="path2988" style="opacity:0.5;color:black;fill:none;fill-opacity:1;fill-rule:nonzero;stroke:url(#linearGradient3909);stroke-width:0.84363157;stroke-linecap:round;stroke-linejoin:miter;marker:none;marker-start:none;marker-mid:none;marker-end:none;stroke-miterlimit:4;stroke-dasharray:none;stroke-dashoffset:1.20000057;stroke-opacity:1;visibility:visible;display:inline;overflow:visible" sodipodi:type="arc"/>
    </g>
    <path style="color:black;fill:url(#linearGradient3107);fill-opacity:1;fill-rule:nonzero;stroke:black;stroke-width:1;stroke-linecap:round;stroke-linejoin:round;marker:none;marker-start:none;marker-mid:none;marker-end:none;stroke-miterlimit:4;stroke-dasharray:none;stroke-dashoffset:1.20000057;stroke-opacity:1;visibility:visible;display:inline;overflow:visible" d="M 25.5,5.5 C 20.536155,5.5 16.5,7.52016 16.5,10 L 16.5,16 C 16.5,18.47984 20.536157,20.5 25.5,20.5 C 30.463845,20.5 34.5,18.47984 34.5,16 L 34.5,10 C 34.5,7.52016 30.463848,5.5 25.5,5.5 z " id="path2003" sodipodi:nodetypes="csssssc"/>
    <path style="opacity:1;fill:url(#linearGradient3099);fill-opacity:1;stroke:url(#linearGradient3096);stroke-width:1.01100004;stroke-linecap:round;stroke-linejoin:miter;stroke-miterlimit:4;stroke-dasharray:none;stroke-dashoffset:0;stroke-opacity:1" d="M 22.812512,20.28125 L 41.60134,24.28125 C 46.85523,25.399764 46.49128,29.361359 46.49128,29.361359 L 46.49128,21.486359 C 46.49128,21.486359 46.132703,17.663667 41.60134,16.8125 L 24,13.506282" id="rect2953" sodipodi:nodetypes="czcczc"/>
    <path sodipodi:type="arc" style="opacity:1;color:black;fill:url(#linearGradient6599);fill-opacity:1.0;fill-rule:nonzero;stroke:none;stroke-width:2;stroke-linecap:square;stroke-linejoin:miter;marker:none;marker-start:none;marker-mid:none;marker-end:none;stroke-miterlimit:4;stroke-dasharray:none;stroke-dashoffset:1.4;stroke-opacity:1;visibility:visible;display:inline;overflow:visible" id="path5706" sodipodi:cx="25.5" sodipodi:cy="9.5" sodipodi:rx="8.5" sodipodi:ry="3.5" d="M 34 9.5 A 8.5 3.5 0 1 1  17,9.5 A 8.5 3.5 0 1 1  34 9.5 z" transform="matrix(1,0,0,1.142857,0,-0.857143)"/>
    <path transform="translate(0,-1)" style="opacity:0.4;color:black;fill:none;fill-opacity:1;fill-rule:nonzero;stroke:url(#linearGradient3060);stroke-width:1;stroke-linecap:butt;stroke-linejoin:miter;marker:none;marker-start:none;marker-mid:none;marker-end:none;stroke-miterlimit:4;stroke-dasharray:1, 1;stroke-dashoffset:0.7;stroke-opacity:1;visibility:visible;display:inline;overflow:visible" d="M 17.5625,16 C 17.5625,16.536843 17.92744,17.18169 18.875,17.8125 C 19.82256,18.44331 21.26461,18.980918 22.96875,19.25 C 22.989579,19.249384 23.010421,19.249384 23.03125,19.25 L 41.8125,23.25 C 43.42996,23.594345 44.694406,24.079834 45.5625,24.8125" id="path3043" sodipodi:nodetypes="cssccc"/>
    <path style="opacity:0.39849626;color:black;fill:url(#radialGradient2998);fill-opacity:1.0;fill-rule:nonzero;stroke:none;stroke-width:1.96992087;stroke-linecap:round;stroke-linejoin:round;marker:none;marker-start:none;marker-mid:none;marker-end:none;stroke-miterlimit:4;stroke-dasharray:none;stroke-dashoffset:1.20000057;stroke-opacity:1;visibility:visible;display:inline;overflow:visible" d="M 26.34375,6.03125 L 25.28125,7.84375 C 25.169154,8.034998 24.801014,8.15798 24.25,8.25 C 23.691642,8.291924 23.267822,8.292972 22.96875,8.15625 L 20.21875,6.90625 C 19.435475,7.2019093 18.739204,7.5309064 18.21875,7.9375 L 20.84375,9.125 C 21.146761,9.2635209 21.159378,9.458625 21.0625,9.71875 C 20.861894,9.9661689 20.632671,10.136797 20.21875,10.1875 L 17.09375,10.5625 C 17.234387,11.031002 17.545294,11.473239 18,11.875 L 20.96875,11.5 C 21.173021,11.474978 21.388652,11.496314 21.59375,11.53125 C 21.798848,11.566187 21.9999,11.636782 22.21875,11.71875 C 22.595298,11.92439 22.799596,12.121253 22.6875,12.3125 L 21.90625,13.625 C 22.800402,13.822195 23.781767,13.929355 24.8125,13.96875 L 25.59375,12.65625 C 25.710156,12.457646 26.100274,12.343111 26.6875,12.25 C 26.950747,12.232527 27.202056,12.231963 27.40625,12.25 C 27.610446,12.268037 27.793946,12.309373 27.9375,12.375 L 30.09375,13.34375 C 30.931804,13.088908 31.680434,12.779683 32.28125,12.40625 L 30.03125,11.40625 C 29.74414,11.274998 29.704802,11.084438 29.78125,10.84375 C 29.791414,10.830302 29.801973,10.794234 29.8125,10.78125 C 29.817585,10.767599 29.837843,10.76397 29.84375,10.75 C 30.040793,10.524084 30.295301,10.360542 30.6875,10.3125 L 34,9.90625 C 33.97667,9.4345321 33.779459,8.9803565 33.4375,8.5625 L 29.90625,9 C 29.471563,9.0532484 29.064068,8.93615 28.59375,8.75 C 28.264296,8.5590324 28.082411,8.398044 28.1875,8.21875 L 29.25,6.4375 C 28.355889,6.2289546 27.381597,6.0799454 26.34375,6.03125 z " id="path3099"/>
    <path sodipodi:type="inkscape:offset" inkscape:radius="-1.0574123" inkscape:original="M 25.5 5.5 C 20.536155 5.5 16.5 7.52016 16.5 10 L 16.5 16 C 16.5 18.009253 19.166589 19.705564 22.8125 20.28125 L 41.59375 24.28125 C 46.847639 25.399764 46.5 29.375 46.5 29.375 L 46.5 21.5 C 46.5 21.5 46.14223 17.566861 41.59375 16.8125 L 34.5 15.625 L 34.5 10 C 34.5 7.52016 30.463848 5.5 25.5 5.5 z " style="opacity:0.1;color:black;fill:none;fill-opacity:1;fill-rule:nonzero;stroke:white;stroke-width:1;stroke-linecap:round;stroke-linejoin:miter;marker:none;marker-start:none;marker-mid:none;marker-end:none;stroke-miterlimit:4;stroke-dasharray:none;stroke-dashoffset:1.20000057;stroke-opacity:1;visibility:visible;display:inline;overflow:visible" id="path3030" d="M 25.5,6.5625 C 23.161524,6.5625 21.062537,7.0622517 19.625,7.78125 C 18.187463,8.5002483 17.5625,9.3337568 17.5625,10 L 17.5625,16 C 17.5625,16.536843 17.92744,17.18169 18.875,17.8125 C 19.82256,18.44331 21.26461,18.980918 22.96875,19.25 C 22.989579,19.249384 23.010421,19.249384 23.03125,19.25 L 41.8125,23.25 C 43.42996,23.594345 44.569406,24.236084 45.4375,24.96875 L 45.4375,21.59375 C 45.4375,21.59375 45.374858,20.869771 44.84375,20 C 44.312642,19.130229 43.392274,18.17313 41.40625,17.84375 L 34.3125,16.65625 C 33.810416,16.5683 33.442516,16.134704 33.4375,15.625 L 33.4375,10 C 33.4375,9.3337563 32.812537,8.5002482 31.375,7.78125 C 29.937463,7.0622518 27.838477,6.5625 25.5,6.5625 z "/>
    <g id="g3035">
      <path sodipodi:nodetypes="cczcczccc" id="rect2949" d="M 1.50002,29.499973 C 1.50002,29.499973 3.532822,27.499973 8.506322,27.499973 L 31.512623,27.499973 C 44.18377,27.499973 46.50001,25.003118 46.50001,21.499973 C 46.50001,24.174151 46.50001,29.499986 46.50001,29.499986 C 46.50001,35.359796 44.22293,37.947515 31.512623,38.499986 L 8.506322,39.499986 C 3.847089,39.941928 1.50002,43.499986 1.50002,43.499986 L 1.50002,29.499973 z " style="opacity:1;fill:url(#linearGradient3047);fill-opacity:1;stroke:#2e3436;stroke-width:0.99999952;stroke-linecap:butt;stroke-linejoin:miter;stroke-miterlimit:4;stroke-dashoffset:0;stroke-opacity:1"/>
      <path sodipodi:nodetypes="cczc" id="path2978" d="M 2.12502,31.874973 C 2.12502,31.874973 3.532822,29.499973 8.506322,29.499973 L 31.512623,29.499973 C 44.18377,29.499973 46.50001,27.003118 46.50001,23.499973" style="opacity:0.6;fill:none;fill-opacity:1;stroke:url(#linearGradient2988);stroke-width:1;stroke-linecap:butt;stroke-linejoin:miter;stroke-miterlimit:4;stroke-dasharray:1, 1;stroke-dashoffset:0.5;stroke-opacity:1"/>
      <path sodipodi:nodetypes="czcc" id="path2980" d="M 46.56251,25.968736 C 46.56251,31.828546 45.93712,36.499986 31.512623,36.499986 L 8.506322,37.499986 C 3.847089,37.941928 1.50002,41.499986 1.50002,41.499986" style="opacity:0.6;fill:none;fill-opacity:1;stroke:url(#linearGradient3000);stroke-width:1;stroke-linecap:butt;stroke-linejoin:miter;stroke-miterlimit:4;stroke-dasharray:1, 1;stroke-dashoffset:0.9;stroke-opacity:1"/>
      <path id="path3004" d="M 45.0625,28.71875 C 44.37308,29.200323 43.74836,29.777176 42,30.21875 L 42,33.4375 C 45.16645,32.177079 45.06242,30.62266 45.0625,30.59375 L 45.0625,28.71875 z M 41,30.40625 C 40.20657,30.55277 39.21189,30.683386 38,30.78125 L 38,34.46875 C 39.187273,34.27185 40.17881,34.037517 41,33.78125 L 41,30.40625 z M 37,30.84375 C 35.848926,30.914726 34.565444,30.981472 33,31 L 33,34.96875 C 34.511976,34.894324 35.84389,34.78099 37,34.625 L 37,30.84375 z M 32,31 L 28,31.03125 L 28,35.1875 L 32,35.03125 L 32,31 z M 27,31.03125 L 23,31.0625 L 23,35.375 L 27,35.21875 L 27,31.03125 z M 22,31.09375 L 18,31.125 L 18,35.59375 L 22,35.4375 L 22,31.09375 z M 17,31.125 L 13,31.15625 L 13,35.78125 L 17,35.625 L 17,31.125 z M 12,31.15625 L 8.34375,31.1875 C 8.225387,31.184386 8.117212,31.186035 8,31.1875 L 8,36.03125 C 8.163488,36.008835 8.337513,35.974104 8.46875,35.96875 L 12,35.8125 L 12,31.15625 z M 7,31.25 C 5.871329,31.386685 4.830104,31.709176 4,32.125 L 4,37.375 C 4.94283,36.868709 6.054189,36.456108 7,36.21875 L 7,31.25 z M 3,32.75 C 2.399986,33.209949 2.017888,33.69653 2,34.125 L 2,39.25 C 2.138532,38.805351 2.509781,38.379775 3,38 L 3,32.75 z " style="opacity:0.3;fill:#babdb6;fill-opacity:1;stroke:none;stroke-width:0.99999952;stroke-linecap:butt;stroke-linejoin:miter;stroke-miterlimit:4;stroke-dashoffset:0;stroke-opacity:1"/>
      <path transform="translate(-60,0)" d="M 105.5,25.8125 C 105.11869,26.131585 104.70169,26.466625 104.1875,26.71875 C 101.75082,27.913525 97.901254,28.5 91.5,28.5 L 68.5,28.5 C 66.147294,28.5 64.53517,28.961373 63.53125,29.40625 C 62.760319,29.74788 62.632868,29.916333 62.5,30.03125 L 62.5,41.03125 C 63.789632,39.926876 65.68087,38.758511 68.40625,38.5 C 68.427078,38.499349 68.447922,38.499349 68.46875,38.5 L 91.46875,37.5 C 97.758835,37.226593 101.36312,36.399909 103.21875,35.15625 C 105.07438,33.912591 105.5,32.299656 105.5,29.5 C 105.5,29.5 105.5,27.294332 105.5,25.8125 z " id="path3065" style="opacity:0.2;fill:none;fill-opacity:1;stroke:url(#linearGradient3122);stroke-width:0.99999952;stroke-linecap:butt;stroke-linejoin:miter;stroke-miterlimit:4;stroke-dashoffset:0;stroke-opacity:1" inkscape:original="M 106.5 21.5 C 106.5 25.003145 104.17114 27.5 91.5 27.5 L 68.5 27.5 C 63.5265 27.5 61.500001 29.5 61.5 29.5 L 61.5 43.5 C 61.5 43.5 63.840764 39.941943 68.5 39.5 L 91.5 38.5 C 104.21031 37.947529 106.5 35.359809 106.5 29.5 C 106.5 29.5 106.5 24.174178 106.5 21.5 z " inkscape:radius="-1" sodipodi:type="inkscape:offset"/>
      <rect ry="0.47940475" rx="0.42824069" y="29.53125" x="2.0182304" height="12.03125" width="0.96354169" id="rect3114" style="opacity:1;fill:#888a85;fill-opacity:1;stroke:none;stroke-width:1.01100004;stroke-linecap:round;stroke-linejoin:miter;stroke-miterlimit:4;stroke-dasharray:none;stroke-dashoffset:0.9;stroke-opacity:1"/>
    </g>
    <path style="opacity:0.4;color:black;fill:none;fill-opacity:1;fill-rule:nonzero;stroke:url(#linearGradient3062);stroke-width:1;stroke-linecap:butt;stroke-linejoin:miter;marker:none;marker-start:none;marker-mid:none;marker-end:none;stroke-miterlimit:4;stroke-dasharray:1, 1;stroke-dashoffset:1.4;stroke-opacity:1;visibility:visible;display:inline;overflow:visible" d="M 44.84375,21 C 44.312642,20.130229 43.392274,19.17313 41.40625,18.84375 L 34.3125,17.65625 C 28.132886,16.621777 17.500893,15.478056 17.500893,11.390758" id="path3046" sodipodi:nodetypes="cczc"/>
    <path style="opacity:0.15;color:black;fill:white;fill-opacity:1;fill-rule:nonzero;stroke:none;stroke-width:2;stroke-linecap:square;stroke-linejoin:miter;marker:none;stroke-miterlimit:4;stroke-dashoffset:1.20000057;stroke-opacity:1;visibility:visible;display:inline;overflow:visible" d="M 18,13.875 L 18,15.90625 L 20,16.65625 L 20,14.78125 C 19.159795,14.440675 18.469808,14.133901 18,13.875 z M 21,15.15625 L 21,17.03125 L 23,17.78125 L 23,15.75 C 22.445474,15.648993 21.73377,15.420922 21,15.15625 z M 24,15.96875 L 24,18 L 26,18.40625 L 26,16.375 L 24,15.96875 z M 27,16.5625 L 27,18.59375 L 29,19 L 29,16.96875 L 27,16.5625 z M 30,17.1875 L 30,19.21875 L 32,19.625 L 32,17.59375 L 30,17.1875 z M 33,17.78125 L 33,19.8125 L 35,20.21875 L 35,18.21875 L 33,17.78125 z M 36,18.40625 L 36,20.4375 L 38,20.84375 L 38,18.8125 L 36,18.40625 z M 39,19.03125 L 39,21.03125 L 41,21.4375 L 41,19.4375 L 39,19.03125 z M 42,19.625 L 42,21.6875 C 42.817262,21.904793 43.456287,22.197387 44,22.59375 L 44,20.3125 C 43.403373,20.028973 42.747736,19.784187 42,19.625 z M 45,20.875 L 45,23.46875 L 45.4375,23.90625 L 46,22.15625 L 46,21.6875 C 45.689896,21.392151 45.36,21.118532 45,20.875 z " id="path3071"/>
    <path sodipodi:type="arc" style="color:black;fill:none;fill-opacity:1;fill-rule:nonzero;stroke:url(#linearGradient3087);stroke-width:0.82348335;stroke-linecap:round;stroke-linejoin:miter;marker:none;marker-start:none;marker-mid:none;marker-end:none;stroke-miterlimit:4;stroke-dasharray:none;stroke-dashoffset:1.20000057;stroke-opacity:1;visibility:visible;display:inline;overflow:visible" id="path2966" sodipodi:cx="85.3125" sodipodi:cy="10.8125" sodipodi:rx="14.875" sodipodi:ry="5.8125" d="M 100.1875 10.8125 A 14.875 5.8125 0 1 1  70.4375,10.8125 A 14.875 5.8125 0 1 1  100.1875 10.8125 z" transform="matrix(1.142857,0,0,1.290323,-72.00001,-3.95161)"/>
    <path sodipodi:type="arc" style="color:black;fill:none;fill-opacity:1;fill-rule:nonzero;stroke:#888a85;stroke-width:0.75173426;stroke-linecap:round;stroke-linejoin:miter;marker:none;marker-start:none;marker-mid:none;marker-end:none;stroke-miterlimit:4;stroke-dasharray:none;stroke-dashoffset:1.20000057;stroke-opacity:1;visibility:visible;display:inline;overflow:visible" id="path3165" sodipodi:cx="85.3125" sodipodi:cy="10.8125" sodipodi:rx="14.875" sodipodi:ry="5.8125" d="M 100.1875 10.8125 A 14.875 5.8125 0 1 1  70.4375,10.8125 A 14.875 5.8125 0 1 1  100.1875 10.8125 z" transform="matrix(1.210083,0,0,1.462367,-77.73519,-5.811834)"/>
    <path style="opacity:1;color:black;fill:url(#radialGradient5689);fill-opacity:1;fill-rule:nonzero;stroke:none;stroke-width:0.69588834;stroke-linecap:round;stroke-linejoin:round;marker:none;marker-start:none;marker-mid:none;marker-end:none;stroke-miterlimit:4;stroke-dasharray:none;stroke-dashoffset:1.20000057;stroke-opacity:1;visibility:visible;display:inline;overflow:visible" d="M 30.029333,2.274237 C 20.698494,1.13127 11.09649,3.665589 8.596298,7.931199 C 6.0961053,12.196811 11.639826,16.58638 20.970667,17.729347 C 30.301506,18.872313 39.903508,16.337996 42.403702,12.072384 C 44.903894,7.806773 39.360173,3.417203 30.029333,2.274237 z M 26.513532,3 C 27.494068,3.075308 27.625715,3.194794 27.593697,3.309793 L 25.353295,7.132172 C 25.241199,7.32342 24.858508,7.444486 24.307494,7.536506 C 23.749135,7.57843 23.314524,7.559332 23.015452,7.42261 L 16.895253,4.617124 C 16.661667,4.476713 16.821602,4.250621 19.490909,3.50045 C 20.984007,3.188868 22.590966,2.996311 24.257151,2.930667 C 25.237216,2.945249 26.030543,2.962906 26.513532,3 z M 31.282791,3.584203 C 31.750192,3.63644 32.579862,3.801848 33.795668,4.099073 C 35.16683,4.536772 36.347892,5.070843 37.300167,5.681966 C 38.791373,6.941773 38.682595,7.174131 38.326732,7.242338 L 29.958044,8.273031 C 29.523357,8.326279 29.110469,8.223798 28.640151,8.037648 C 28.310696,7.84668 28.145983,7.666425 28.251072,7.487131 L 30.491474,3.664751 C 30.569914,3.579221 30.74289,3.523866 31.282791,3.584203 z M 14.624127,5.566491 C 14.672763,5.573403 14.726595,5.584742 14.766964,5.598777 L 20.895251,8.390464 C 21.198262,8.528985 21.220027,8.735063 21.123149,8.995188 C 20.922542,9.242607 20.678301,9.416099 20.26438,9.466802 L 11.903779,10.483696 C 11.524573,10.505763 11.159907,10.326253 11.066412,8.93171 C 11.140424,8.558069 11.274477,8.190349 11.494076,7.81569 C 11.713674,7.441031 11.999766,7.091935 12.344331,6.751435 C 13.737443,5.722497 14.306188,5.521308 14.624127,5.566491 z M 39.255235,8.583639 C 39.579997,8.617182 39.852498,8.921419 39.933588,10.130937 C 39.859576,10.504578 39.725523,10.872298 39.505924,11.246957 C 39.286326,11.621617 39.000234,11.970712 38.655669,12.311212 C 37.04945,13.49755 36.537303,13.569656 36.233036,13.46387 L 30.104749,10.672183 C 29.81764,10.540931 29.776139,10.349545 29.852587,10.108857 C 29.862751,10.095409 29.866324,10.080443 29.876851,10.067459 C 29.881935,10.053808 29.895209,10.040031 29.901116,10.026061 C 30.098159,9.800145 30.343421,9.643887 30.73562,9.595845 L 39.096221,8.578951 C 39.146533,8.576023 39.205556,8.578508 39.255235,8.583639 z M 21.647827,10.804671 C 21.852925,10.839608 22.06662,10.90434 22.28547,10.986308 C 22.662017,11.191948 22.861024,11.384269 22.748928,11.575516 L 20.508526,15.397896 C 20.362179,15.557471 19.824526,15.604125 17.204332,14.963574 C 15.833169,14.525878 14.652109,13.991803 13.699833,13.380681 C 12.20863,12.120874 12.317406,11.888514 12.673268,11.820309 L 21.041956,10.789616 C 21.246227,10.764594 21.442729,10.769735 21.647827,10.804671 z M 27.473567,11.518286 C 27.677762,11.536323 27.840994,11.574411 27.984548,11.640038 L 34.104747,14.445524 C 34.338335,14.585932 34.1784,14.812025 31.509091,15.562197 C 30.015994,15.873778 28.409033,16.066338 26.742849,16.13198 C 23.773106,16.0878 23.358511,15.924502 23.406303,15.752855 L 25.646705,11.930475 C 25.763112,11.731871 26.173739,11.612847 26.760965,11.519736 C 27.024213,11.502263 27.269373,11.500249 27.473567,11.518286 z " id="path2992" sodipodi:nodetypes="csssccccccccccccccccccccccccccsccccscccsssccccccccccccccccccccc"/>
    <path sodipodi:type="arc" style="color:black;fill:none;fill-opacity:1;fill-rule:nonzero;stroke:url(#linearGradient5743);stroke-width:0.82348359;stroke-linecap:round;stroke-linejoin:miter;marker:none;marker-start:none;marker-mid:none;marker-end:none;stroke-miterlimit:4;stroke-dasharray:none;stroke-dashoffset:1.20000057;stroke-opacity:1;visibility:visible;display:inline;overflow:visible" id="path3882" sodipodi:cx="85.3125" sodipodi:cy="10.8125" sodipodi:rx="14.875" sodipodi:ry="5.8125" d="M 100.1875 10.8125 A 14.875 5.8125 0 1 1  70.4375,10.8125 A 14.875 5.8125 0 1 1  100.1875 10.8125 z" transform="matrix(1.142856,0,0,1.290324,-71.99989,-3.951621)"/>
    <path style="opacity:0.7;color:black;fill:url(#linearGradient3003);fill-opacity:1.0;fill-rule:nonzero;stroke:none;stroke-width:0.69588834;stroke-linecap:round;stroke-linejoin:round;marker:none;marker-start:none;marker-mid:none;marker-end:none;stroke-miterlimit:4;stroke-dasharray:none;stroke-dashoffset:1.20000057;stroke-opacity:1;visibility:visible;display:inline;overflow:visible" d="M 24.21875,2.46875 C 22.529463,2.535304 20.928347,2.713616 19.40625,3.03125 C 19.395836,3.030905 19.385414,3.030905 19.375,3.03125 C 18.030353,3.409144 17.31816,3.671511 16.90625,3.875 C 16.700295,3.976745 16.533745,4.024698 16.40625,4.3125 C 16.342503,4.456401 16.359638,4.683059 16.4375,4.8125 C 16.515362,4.941941 16.592126,4.992705 16.65625,5.03125 C 16.676283,5.043196 16.697173,5.053642 16.71875,5.0625 L 22.8125,7.875 C 23.277073,8.087382 23.766882,8.043314 24.34375,8 C 24.354164,8.000345 24.364586,8.000345 24.375,8 C 24.66736,7.951176 24.93252,7.897112 25.15625,7.8125 C 25.37998,7.727888 25.602277,7.627033 25.75,7.375 L 28,3.5625 C 28.02692,3.524165 28.047984,3.482037 28.0625,3.4375 C 28.10103,3.299111 28.051103,3.040171 27.9375,2.90625 C 27.823897,2.772329 27.713327,2.729453 27.59375,2.6875 C 27.354596,2.603594 27.039179,2.57026 26.53125,2.53125 C 26.016219,2.491695 25.229781,2.483328 24.25,2.46875 C 24.239586,2.468405 24.229164,2.468405 24.21875,2.46875 z M 24.25,2.9375 C 25.230065,2.952082 26.017011,2.962906 26.5,3 C 27.480535,3.075308 27.625768,3.197501 27.59375,3.3125 L 25.34375,7.125 C 25.231655,7.316248 24.863514,7.43923 24.3125,7.53125 C 23.754142,7.573174 23.299072,7.574222 23,7.4375 L 16.90625,4.625 C 16.672665,4.484589 16.830693,4.250171 19.5,3.5 C 20.993097,3.188418 22.583815,3.003144 24.25,2.9375 z M 30.65625,3.09375 C 30.474425,3.112971 30.282388,3.206211 30.15625,3.34375 C 30.133508,3.362583 30.112583,3.383508 30.09375,3.40625 L 27.84375,7.25 C 27.710285,7.477708 27.766317,7.846965 27.90625,8.03125 C 28.046183,8.215535 28.187487,8.328808 28.375,8.4375 C 28.395033,8.449446 28.415923,8.459892 28.4375,8.46875 C 28.938239,8.66694 29.475613,8.818064 30.03125,8.75 L 38.375,7.71875 C 38.385414,7.719095 38.395836,7.719095 38.40625,7.71875 C 38.538892,7.693327 38.708411,7.654058 38.875,7.4375 C 39.041589,7.220942 39.030807,6.912667 38.9375,6.71875 C 38.750886,6.330917 38.38701,5.956264 37.625,5.3125 C 37.604967,5.300554 37.584077,5.290108 37.5625,5.28125 C 36.56488,4.641027 35.340283,4.104044 33.9375,3.65625 C 33.927577,3.645351 33.917149,3.634923 33.90625,3.625 C 32.678785,3.324925 31.850309,3.181613 31.34375,3.125 C 31.057919,3.093057 30.838075,3.074529 30.65625,3.09375 z M 30.71875,3.5625 C 30.839287,3.545512 31.0113,3.563581 31.28125,3.59375 C 31.748651,3.645987 32.565444,3.796525 33.78125,4.09375 C 35.15241,4.531449 36.360225,5.076377 37.3125,5.6875 C 38.803706,6.947307 38.668363,7.181793 38.3125,7.25 L 29.96875,8.28125 C 29.534063,8.334498 29.095318,8.2174 28.625,8.03125 C 28.295546,7.840282 28.144911,7.679294 28.25,7.5 L 30.5,3.65625 C 30.53922,3.613485 30.598213,3.579488 30.71875,3.5625 z M 14.6875,5.09375 C 14.096019,5.009693 13.481171,5.327185 12.0625,6.375 C 12.040923,6.383858 12.020033,6.394304 12,6.40625 C 11.632082,6.769827 11.337374,7.14685 11.09375,7.5625 C 10.849839,7.978638 10.67867,8.415039 10.59375,8.84375 C 10.588209,8.885233 10.588209,8.927267 10.59375,8.96875 C 10.643206,9.706413 10.75471,10.158753 11,10.5 C 11.24529,10.841247 11.673435,10.952867 11.9375,10.9375 C 11.947914,10.937845 11.958336,10.937845 11.96875,10.9375 L 20.3125,9.9375 C 20.829557,9.874163 21.240367,9.632717 21.5,9.3125 C 21.530023,9.26458 21.551193,9.211656 21.5625,9.15625 C 21.628907,8.977942 21.693002,8.781478 21.625,8.53125 C 21.556998,8.281022 21.331424,8.046152 21.09375,7.9375 L 14.96875,5.15625 C 14.958336,5.155905 14.947914,5.155905 14.9375,5.15625 C 14.811235,5.112352 14.740824,5.101328 14.6875,5.09375 z M 14.625,5.5625 C 14.673636,5.569412 14.740881,5.579715 14.78125,5.59375 L 20.90625,8.375 C 21.209262,8.513521 21.221878,8.739875 21.125,9 C 20.924392,9.247419 20.663921,9.418047 20.25,9.46875 L 11.90625,10.46875 C 11.527044,10.490817 11.155995,10.332043 11.0625,8.9375 C 11.136512,8.563859 11.280401,8.187159 11.5,7.8125 C 11.719598,7.437841 11.999185,7.0905 12.34375,6.75 C 13.736862,5.721062 14.307061,5.517317 14.625,5.5625 z M 39.03125,8.125 L 30.6875,9.125 C 30.227736,9.181318 29.879783,9.392513 29.625,9.65625 C 29.623983,9.656939 29.598616,9.684777 29.59375,9.6875 C 29.584051,9.698064 29.571837,9.708045 29.5625,9.71875 C 29.551601,9.728673 29.541173,9.739101 29.53125,9.75 L 29.5,9.75 C 29.550744,9.687412 29.541034,9.716862 29.46875,9.8125 C 29.468405,9.822914 29.468405,9.833336 29.46875,9.84375 C 29.444249,9.872393 29.423266,9.903867 29.40625,9.9375 C 29.34829,10.119981 29.292723,10.361835 29.375,10.59375 C 29.457277,10.825665 29.678664,11.020959 29.90625,11.125 L 36.03125,13.90625 C 36.041664,13.906595 36.052086,13.906595 36.0625,13.90625 C 36.327468,13.998373 36.691653,13.992584 37.125,13.8125 C 37.558347,13.632416 38.118404,13.292476 38.9375,12.6875 C 38.959077,12.678642 38.979967,12.668196 39,12.65625 C 39.367917,12.292673 39.662626,11.915652 39.90625,11.5 C 40.150161,11.083863 40.321331,10.647464 40.40625,10.21875 C 40.411791,10.177268 40.411791,10.135232 40.40625,10.09375 C 40.363432,9.455094 40.270005,9.018395 40.09375,8.6875 C 39.917495,8.356605 39.598432,8.154532 39.3125,8.125 C 39.212859,8.114709 39.119476,8.121684 39.0625,8.125 C 39.052086,8.124655 39.041664,8.124655 39.03125,8.125 z M 39.09375,8.59375 C 39.144061,8.590822 39.200321,8.588619 39.25,8.59375 C 39.574763,8.627293 39.85641,8.915482 39.9375,10.125 C 39.86349,10.498641 39.719599,10.875341 39.5,11.25 C 39.280402,11.62466 39.000815,11.972 38.65625,12.3125 C 37.05003,13.498838 36.523017,13.574536 36.21875,13.46875 L 30.09375,10.6875 C 29.80664,10.556248 29.767302,10.334438 29.84375,10.09375 C 29.853914,10.080302 29.864473,10.075484 29.875,10.0625 C 29.880085,10.048849 29.900343,10.04522 29.90625,10.03125 C 30.103294,9.805334 30.357801,9.641792 30.75,9.59375 L 39.09375,8.59375 z M 20.96875,10.3125 L 12.625,11.34375 C 12.614586,11.343405 12.604164,11.343405 12.59375,11.34375 C 12.461108,11.369172 12.291589,11.408441 12.125,11.625 C 11.958411,11.841559 11.969193,12.149834 12.0625,12.34375 C 12.249114,12.731583 12.612992,13.106236 13.375,13.75 C 13.395033,13.761946 13.415923,13.772392 13.4375,13.78125 C 14.435119,14.421471 15.659713,14.958459 17.0625,15.40625 C 17.072423,15.417149 17.082851,15.427577 17.09375,15.4375 C 18.413166,15.760054 19.231179,15.914896 19.75,15.96875 C 20.00941,15.995677 20.199598,15.995126 20.375,15.96875 C 20.550402,15.942374 20.721219,15.852356 20.84375,15.71875 C 20.866492,15.699917 20.887417,15.678992 20.90625,15.65625 L 23.15625,11.8125 C 23.230934,11.685081 23.282536,11.503864 23.25,11.34375 C 23.217464,11.183636 23.110915,11.054933 23.03125,10.96875 C 22.87192,10.796385 22.70354,10.704907 22.5,10.59375 C 22.479967,10.581804 22.459077,10.571358 22.4375,10.5625 C 22.213091,10.47845 22.008525,10.387788 21.75,10.34375 C 21.522274,10.30496 21.244957,10.278666 20.96875,10.3125 z M 21.03125,10.78125 C 21.235521,10.756228 21.451152,10.777564 21.65625,10.8125 C 21.861348,10.847437 22.0624,10.918032 22.28125,11 C 22.657798,11.20564 22.862096,11.371253 22.75,11.5625 L 20.5,15.40625 C 20.353653,15.565825 19.838944,15.609301 17.21875,14.96875 C 15.847587,14.531054 14.639776,13.986122 13.6875,13.375 C 12.196297,12.115193 12.331638,11.880705 12.6875,11.8125 L 21.03125,10.78125 z M 26.6875,11.0625 C 26.380288,11.111212 26.108719,11.167973 25.875,11.25 C 25.641281,11.332027 25.404512,11.423882 25.25,11.6875 L 23,15.5 C 22.97308,15.538335 22.952016,15.580463 22.9375,15.625 C 22.904935,15.741959 22.920591,15.932646 23,16.0625 C 23.079409,16.192354 23.19427,16.237608 23.28125,16.28125 C 23.45521,16.368533 23.617124,16.400918 23.875,16.4375 C 24.390753,16.510664 25.25703,16.571539 26.75,16.59375 C 26.760414,16.594095 26.770836,16.594095 26.78125,16.59375 C 28.470537,16.527198 30.071654,16.348883 31.59375,16.03125 C 31.604164,16.031595 31.614586,16.031595 31.625,16.03125 C 32.969648,15.653356 33.681841,15.39099 34.09375,15.1875 C 34.299705,15.085755 34.466255,15.037804 34.59375,14.75 C 34.657497,14.606098 34.640364,14.37944 34.5625,14.25 C 34.484636,14.12056 34.407874,14.069795 34.34375,14.03125 C 34.323717,14.019304 34.302827,14.008858 34.28125,14 L 28.1875,11.1875 C 27.922241,11.066235 27.694869,11.079713 27.5,11.0625 C 27.261132,11.0414 27.001137,11.043757 26.71875,11.0625 C 26.708336,11.062155 26.697914,11.062155 26.6875,11.0625 z M 26.75,11.53125 C 27.013248,11.513777 27.264556,11.513213 27.46875,11.53125 C 27.672946,11.549287 27.856446,11.559373 28,11.625 L 34.09375,14.4375 C 34.327337,14.577908 34.169309,14.812328 31.5,15.5625 C 30.006904,15.874081 28.416184,16.059358 26.75,16.125 C 23.780257,16.080819 23.358458,15.921647 23.40625,15.75 L 25.65625,11.9375 C 25.772656,11.738896 26.162774,11.624361 26.75,11.53125 z " id="path6550"/>
    <path style="opacity:0.29714286;fill:url(#linearGradient3005);fill-opacity:1;fill-rule:evenodd;stroke:none;stroke-width:1px;stroke-linecap:butt;stroke-linejoin:miter;stroke-opacity:1" d="M 32.75,28.125 C 36.665221,27.989041 39.663593,27.509264 42.25,26.875 L 44.6875,34.8125 C 41.143944,37.348492 36.537218,37.994406 31.5,37.875 L 32.75,28.125 z " id="path2111" sodipodi:nodetypes="ccccc"/>
    <path style="fill:url(#linearGradient3017);fill-rule:evenodd;stroke:none;stroke-width:1px;stroke-linecap:butt;stroke-linejoin:miter;stroke-opacity:1;fill-opacity:1.0;opacity:0.6" d="M 41.100582,23.560622 C 42.545852,23.922695 43.601874,24.362619 44.459339,24.842253 C 45.66266,23.973241 47.054739,21.640304 44.724504,18.831845 C 44.97435,19.937288 45.182433,21.455139 41.100582,23.560622 z " id="path3009" sodipodi:nodetypes="cccc"/>
  </g>
  <g inkscape:groupmode="layer" id="layer3" inkscape:label="troiai2" style="display:inline"/>
  <g inkscape:groupmode="layer" id="layer2" inkscape:label="troiai" style="display:inline"/>
</svg>
