<?xml version="1.0" encoding="UTF-8" standalone="no"?>
<!-- Created with Inkscape (http://www.inkscape.org/) -->
<svg xmlns:dc="http://purl.org/dc/elements/1.1/" xmlns:cc="http://web.resource.org/cc/" xmlns:rdf="http://www.w3.org/1999/02/22-rdf-syntax-ns#" xmlns:svg="http://www.w3.org/2000/svg" xmlns="http://www.w3.org/2000/svg" xmlns:xlink="http://www.w3.org/1999/xlink" xmlns:sodipodi="http://sodipodi.sourceforge.net/DTD/sodipodi-0.dtd" xmlns:inkscape="http://www.inkscape.org/namespaces/inkscape" width="48" height="48" id="svg4908" sodipodi:version="0.32" inkscape:version="0.44+devel" sodipodi:docbase="/home/andreas/Desktop/tempicons/scalable/actions" sodipodi:docname="address-book-new.svg" inkscape:output_extension="org.inkscape.output.svg.inkscape" inkscape:export-filename="/home/andreas/project/misc icons/32x32/actions/bookmark-view.png" inkscape:export-xdpi="90" inkscape:export-ydpi="90" version="1.0" sodipodi:modified="true">
  <defs id="defs4910">
    <linearGradient id="linearGradient2378">
      <stop id="stop2380" offset="0" style="stop-color:#ffffff;stop-opacity:1;"/>
      <stop style="stop-color:#fefede;stop-opacity:0.91836733;" offset="0.25" id="stop4146"/>
      <stop style="stop-color:#f5f328;stop-opacity:1;" offset="0.5" id="stop2386"/>
      <stop id="stop2382" offset="1" style="stop-color:#f5f32d;stop-opacity:0.12234043;"/>
    </linearGradient>
    <radialGradient inkscape:collect="always" xlink:href="#linearGradient2378" id="radialGradient2479" gradientUnits="userSpaceOnUse" cx="38.658855" cy="9.3411446" fx="38.658855" fy="9.3411446" r="8.341651"/>
    <linearGradient inkscape:collect="always" id="linearGradient4949">
      <stop style="stop-color:#c17d11;stop-opacity:1;" offset="0" id="stop4951"/>
      <stop style="stop-color:#8f5902;stop-opacity:1" offset="1" id="stop4953"/>
    </linearGradient>
    <radialGradient inkscape:collect="always" xlink:href="#linearGradient5060" id="radialGradient5031" gradientUnits="userSpaceOnUse" gradientTransform="matrix(-2.774389,0,0,1.969706,112.7623,-872.8854)" cx="605.71429" cy="486.64789" fx="605.71429" fy="486.64789" r="117.14286"/>
    <linearGradient inkscape:collect="always" id="linearGradient5060">
      <stop style="stop-color:black;stop-opacity:1;" offset="0" id="stop5062"/>
      <stop style="stop-color:black;stop-opacity:0;" offset="1" id="stop5064"/>
    </linearGradient>
    <radialGradient inkscape:collect="always" xlink:href="#linearGradient5060" id="radialGradient5029" gradientUnits="userSpaceOnUse" gradientTransform="matrix(2.774389,0,0,1.969706,-1891.633,-872.8854)" cx="605.71429" cy="486.64789" fx="605.71429" fy="486.64789" r="117.14286"/>
    <linearGradient id="linearGradient5048">
      <stop style="stop-color:black;stop-opacity:0;" offset="0" id="stop5050"/>
      <stop id="stop5056" offset="0.5" style="stop-color:black;stop-opacity:1;"/>
      <stop style="stop-color:black;stop-opacity:0;" offset="1" id="stop5052"/>
    </linearGradient>
    <linearGradient inkscape:collect="always" xlink:href="#linearGradient5048" id="linearGradient5027" gradientUnits="userSpaceOnUse" gradientTransform="matrix(2.774389,0,0,1.969706,-1892.179,-872.8854)" x1="302.85715" y1="366.64789" x2="302.85715" y2="609.50507"/>
    <linearGradient inkscape:collect="always" id="linearGradient6212">
      <stop style="stop-color:#ffffff;stop-opacity:1;" offset="0" id="stop6214"/>
      <stop style="stop-color:#ffffff;stop-opacity:0;" offset="1" id="stop6216"/>
    </linearGradient>
    <linearGradient inkscape:collect="always" xlink:href="#linearGradient6212" id="linearGradient6218" x1="10.875" y1="7.78125" x2="0.71875" y2="8" gradientUnits="userSpaceOnUse" gradientTransform="matrix(3.2641657,0,0,3.4545453,-1.3020677,-5.5909086)"/>
    <linearGradient inkscape:collect="always" xlink:href="#linearGradient4949" id="linearGradient4955" x1="19.75" y1="19.375" x2="35.9375" y2="39.3125" gradientUnits="userSpaceOnUse"/>
  </defs>
  <g id="layer1" inkscape:label="Layer 1" inkscape:groupmode="layer">
    <g style="display:inline" id="g5022" transform="matrix(2.1670245e-2,0,0,1.4992695e-2,43.274287,42.087489)">
      <rect y="-150.69685" x="-1559.2523" height="478.35718" width="1339.6335" id="rect4173" style="opacity:0.39195981;color:#000000;fill:url(#linearGradient5027);fill-opacity:1;fill-rule:nonzero;stroke:none;stroke-width:1;stroke-linecap:round;stroke-linejoin:miter;marker:none;marker-start:none;marker-mid:none;marker-end:none;stroke-miterlimit:4;stroke-dasharray:none;stroke-dashoffset:0;stroke-opacity:1;visibility:visible;display:inline;overflow:visible"/>
      <path sodipodi:nodetypes="cccc" id="path5058" d="M -219.61876,-150.68038 C -219.61876,-150.68038 -219.61876,327.65041 -219.61876,327.65041 C -76.744594,328.55086 125.78146,220.48075 125.78138,88.454235 C 125.78138,-43.572302 -33.655436,-150.68036 -219.61876,-150.68038 z " style="opacity:0.40206185;color:#000000;fill:url(#radialGradient5029);fill-opacity:1;fill-rule:nonzero;stroke:none;stroke-width:1;stroke-linecap:round;stroke-linejoin:miter;marker:none;marker-start:none;marker-mid:none;marker-end:none;stroke-miterlimit:4;stroke-dasharray:none;stroke-dashoffset:0;stroke-opacity:1;visibility:visible;display:inline;overflow:visible"/>
      <path style="opacity:0.40206185;color:#000000;fill:url(#radialGradient5031);fill-opacity:1;fill-rule:nonzero;stroke:none;stroke-width:1;stroke-linecap:round;stroke-linejoin:miter;marker:none;marker-start:none;marker-mid:none;marker-end:none;stroke-miterlimit:4;stroke-dasharray:none;stroke-dashoffset:0;stroke-opacity:1;visibility:visible;display:inline;overflow:visible" d="M -1559.2523,-150.68038 C -1559.2523,-150.68038 -1559.2523,327.65041 -1559.2523,327.65041 C -1702.1265,328.55086 -1904.6525,220.48075 -1904.6525,88.454235 C -1904.6525,-43.572302 -1745.2157,-150.68036 -1559.2523,-150.68038 z " id="path5018" sodipodi:nodetypes="cccc"/>
    </g>
    <rect style="opacity:1;fill:#eeeeec;fill-opacity:1;stroke:#8f5902;stroke-width:0.99999994;stroke-linecap:round;stroke-linejoin:miter;stroke-miterlimit:0;stroke-dasharray:none;stroke-dashoffset:0;stroke-opacity:1" id="rect4918" width="33.155689" height="41" x="10.344313" y="2.5000002" rx="0.48613596" ry="0.48613593"/>
    <rect style="opacity:1;fill:#eeeeec;fill-opacity:1;stroke:#888a85;stroke-width:1.00000012;stroke-linecap:butt;stroke-linejoin:miter;stroke-miterlimit:4;stroke-dasharray:none;stroke-dashoffset:0;stroke-opacity:1" id="rect5927" width="5" height="10" x="39.5" y="7.5" rx="1.2374369" ry="1.2374369"/>
    <rect style="opacity:1;fill:#eeeeec;fill-opacity:1;stroke:#888a85;stroke-width:1.00000012;stroke-linecap:butt;stroke-linejoin:miter;stroke-miterlimit:4;stroke-dasharray:none;stroke-dashoffset:0;stroke-opacity:1" id="rect5929" width="5" height="10" x="39.5" y="17.5" rx="1.2374369" ry="1.2374369"/>
    <rect style="opacity:1;fill:#eeeeec;fill-opacity:1;stroke:#888a85;stroke-width:1.00000012;stroke-linecap:butt;stroke-linejoin:miter;stroke-miterlimit:4;stroke-dasharray:none;stroke-dashoffset:0;stroke-opacity:1" id="rect5931" width="5" height="10" x="39.5" y="27.5" rx="1.2374369" ry="1.2374369"/>
    <rect style="opacity:0.60869565;fill:none;fill-opacity:1;stroke:#ffffff;stroke-width:1;stroke-linecap:butt;stroke-linejoin:miter;stroke-miterlimit:4;stroke-dasharray:none;stroke-dashoffset:0;stroke-opacity:1" id="rect5933" width="4" height="28" x="39.5" y="8.5" rx="0.29993689" ry="0.29993689"/>
    <rect style="opacity:1;fill:url(#linearGradient4955);fill-opacity:1.0;stroke:#8f5902;stroke-width:1;stroke-linecap:round;stroke-linejoin:miter;stroke-miterlimit:0;stroke-dasharray:none;stroke-dashoffset:0;stroke-opacity:1" id="rect4916" width="34.887901" height="39.999996" x="5.6120992" y="5.5" rx="0.44194174" ry="0.4419418"/>
    <path style="fill:none;fill-opacity:1;fill-rule:evenodd;stroke:#8f5902;stroke-width:1px;stroke-linecap:butt;stroke-linejoin:miter;stroke-opacity:1" d="M 37.025152,5.5 L 7.912989,5.4514152 C 7.912989,5.4514152 6.3393947,5.3197948 6.3752233,4.0479689 C 6.4110523,2.7761429 8.0381274,2.5018451 7.9842501,2.5018451 L 36.969331,2.5000003" id="path4920" sodipodi:nodetypes="cczcc"/>
    <path style="fill:#555753;fill-opacity:1;stroke:none;stroke-width:1;stroke-linecap:round;stroke-linejoin:miter;stroke-miterlimit:0;stroke-dashoffset:0;stroke-opacity:1" d="M 5,4 C 7.8890919,5.4674944 10.475361,4.8588996 12,5.0103236 L 12,46 L 5,46 L 5,4 z " id="rect4922" sodipodi:nodetypes="ccccc"/>
    <rect style="opacity:0.3;fill:none;fill-opacity:1;stroke:url(#linearGradient6218);stroke-width:1.00000012;stroke-linecap:round;stroke-linejoin:miter;stroke-miterlimit:0;stroke-dasharray:none;stroke-dashoffset:0;stroke-opacity:1" id="rect5893" width="32.641655" height="38" x="6.8583469" y="6.4999995"/>
    <rect style="opacity:1;fill:#eeeeec;fill-opacity:1;stroke:none;stroke-width:1;stroke-linecap:round;stroke-linejoin:miter;stroke-miterlimit:0;stroke-dasharray:none;stroke-dashoffset:0;stroke-opacity:1" id="rect5895" width="19.776337" height="1.5884314" x="9.2399368" y="3.2942157"/>
    <path style="fill:#babdb6;fill-opacity:1;stroke:none;stroke-width:1;stroke-linecap:round;stroke-linejoin:round;stroke-miterlimit:0;stroke-dashoffset:0;stroke-opacity:1" d="M 6.035399,3 L 11.027728,3 C 12.552427,2.9595599 12.110485,4.9741489 11.027728,5 L 6.035399,5 L 6.035399,3 z " id="rect6220" sodipodi:nodetypes="ccccc"/>
    <path style="fill:none;fill-opacity:1;fill-rule:evenodd;stroke:#555753;stroke-width:1px;stroke-linecap:butt;stroke-linejoin:miter;stroke-opacity:1" d="M 9.6290662,5.5 L 7.7527058,5.4408977 C 7.7527058,5.4408977 5.4643132,5.2158442 5.5004229,3.9934114 C 5.536547,2.7704953 7.8788256,2.5022447 7.8245258,2.5022447 L 14.275051,2.5" id="path6139" sodipodi:nodetypes="cczcc"/>
    <rect style="opacity:0.09239131;fill:#000000;fill-opacity:1;stroke:none;stroke-width:2;stroke-linecap:round;stroke-linejoin:round;stroke-miterlimit:0;stroke-dasharray:none;stroke-dashoffset:0;stroke-opacity:1" id="rect4921" width="1.8276633" height="33.565617" x="9" y="9" rx="0.91383165" ry="0.91383165"/>
    <path transform="scale(0.9835975,1.016676)" style="font-size:23.55376053px;font-style:normal;font-weight:normal;fill:#eeeeec;fill-opacity:1;stroke:none;stroke-width:1px;stroke-linecap:butt;stroke-linejoin:miter;stroke-opacity:1;font-family:Bitstream Vera Sans" d="M 24.271414,24.132644 C 24.271405,25.07572 24.470753,25.819442 24.869459,26.363811 C 25.275812,26.908189 25.824019,27.180375 26.514082,27.180372 C 27.196454,27.180375 27.740827,26.908189 28.147204,26.363811 C 28.553554,25.811775 28.756736,25.068053 28.75675,24.132644 C 28.756736,23.204916 28.54972,22.472695 28.135703,21.93598 C 27.729326,21.391615 27.181119,21.119428 26.49108,21.119419 C 25.816352,21.119428 25.275812,21.391615 24.869459,21.93598 C 24.470753,22.472695 24.271405,23.204916 24.271414,24.132644 M 28.986767,27.594403 C 28.756736,28.138779 28.384875,28.564311 27.871183,28.870999 C 27.365133,29.170022 26.770922,29.319533 26.08855,29.319532 C 24.769775,29.319533 23.696362,28.844165 22.868309,27.893426 C 22.047908,26.935024 21.637711,25.689099 21.637718,24.155646 C 21.637711,22.622206 22.051741,21.376281 22.87981,20.417867 C 23.707863,19.459473 24.777442,18.980271 26.08855,18.980259 C 26.770922,18.980271 27.365133,19.133615 27.871183,19.440294 C 28.384875,19.746994 28.756736,20.172525 28.986767,20.716889 L 28.986767,19.210277 L 31.390446,19.210277 L 31.390446,27.180372 C 32.341167,27.034698 33.088722,26.578498 33.633114,25.81177 C 34.177469,25.037384 34.449655,24.048311 34.449675,22.844548 C 34.449655,22.077832 34.338481,21.360946 34.11615,20.693887 C 33.893781,20.019181 33.556423,19.401968 33.104075,18.842249 C 32.375669,17.906858 31.463269,17.186138 30.36687,16.680087 C 29.278107,16.174064 28.097354,15.921045 26.824605,15.921031 C 25.935194,15.921045 25.084131,16.039887 24.271414,16.277557 C 23.458678,16.507588 22.707289,16.84878 22.017246,17.301134 C 20.882488,18.052536 19.996923,19.026274 19.360547,20.222352 C 18.73183,21.410783 18.417473,22.698878 18.417477,24.086641 C 18.417473,25.229065 18.620655,26.302477 19.027022,27.306882 C 19.441049,28.303625 20.035259,29.185357 20.809656,29.952079 C 21.576373,30.703469 22.454271,31.274677 23.443352,31.665708 C 24.440084,32.064402 25.501996,32.26375 26.629091,32.263752 C 27.59515,32.26375 28.561221,32.08357 29.527307,31.723212 C 30.493364,31.362851 31.317591,30.875981 31.999992,30.262603 L 33.230584,32.125742 C 32.272162,32.869462 31.225584,33.436837 30.090849,33.827869 C 28.963751,34.226562 27.8175,34.42591 26.652092,34.425914 C 25.233642,34.42591 23.89571,34.172891 22.638292,33.666857 C 21.380858,33.168484 20.261442,32.440097 19.280041,31.481694 C 18.298631,30.523289 17.551076,29.415374 17.037374,28.157945 C 16.523667,26.892854 16.266815,25.535754 16.266816,24.086641 C 16.266815,22.691211 16.5275,21.360946 17.048875,20.095843 C 17.570244,18.83076 18.313965,17.719011 19.280041,16.760593 C 20.246108,15.80987 21.369357,15.073816 22.649793,14.552428 C 23.93788,14.031072 25.271979,13.770387 26.652092,13.77037 C 28.36954,13.770387 29.929822,14.100077 31.332942,14.759444 C 32.736029,15.411174 33.909116,16.354244 34.852205,17.588655 C 35.427228,18.340057 35.860426,19.156617 36.151802,20.038338 C 36.450803,20.912413 36.600314,21.832481 36.600336,22.798545 C 36.600314,24.876372 35.975435,26.490325 34.725696,27.640407 C 33.475917,28.790494 31.712454,29.365537 29.4353,29.365536 L 28.986767,29.365536 L 28.986767,27.594403" id="text5935"/>
    <g style="display:inline" transform="matrix(0.9904451,0,0,0.9904451,-0.5113055,-0.6876716)" id="g2029">
      <path transform="matrix(1.14985,0,0,1.14985,-6.073881,0.554685)" d="M 47.000506 9.3411446 A 8.341651 8.341651 0 1 1  30.317204,9.3411446 A 8.341651 8.341651 0 1 1  47.000506 9.3411446 z" sodipodi:ry="8.341651" sodipodi:rx="8.341651" sodipodi:cy="9.3411446" sodipodi:cx="38.658855" id="path2388" style="fill:url(#radialGradient2479);fill-opacity:1;fill-rule:evenodd;stroke:none;stroke-width:1px;stroke-linecap:butt;stroke-linejoin:miter;stroke-opacity:1;display:inline" sodipodi:type="arc"/>
      <path transform="matrix(0.674116,0.299577,-0.299577,0.674116,16.98558,-7.128679)" d="M 44.520054,15.50279 C 44.012883,16.381236 39.925351,15.341967 38.998703,15.754538 C 38.072055,16.167108 36.109289,19.900142 35.117113,19.689249 C 34.124936,19.478355 33.850222,15.26973 33.171495,14.515926 C 32.492767,13.762123 28.335913,13.048993 28.229885,12.040207 C 28.123857,11.031421 32.041607,9.4696164 32.548778,8.5911701 C 33.055949,7.7127238 32.449637,3.5389508 33.376285,3.1263806 C 34.302933,2.7138103 36.998949,5.957187 37.991126,6.1680807 C 38.983302,6.3789743 42.765436,4.5125708 43.444163,5.2663741 C 44.122891,6.0201775 41.871371,9.5864995 41.977399,10.595285 C 42.083426,11.604071 45.027225,14.624343 44.520054,15.50279 z " inkscape:randomized="0" inkscape:rounded="0.18352206" inkscape:flatsided="false" sodipodi:arg2="1.1519173" sodipodi:arg1="0.52359878" sodipodi:r2="5.0676599" sodipodi:r1="8.755579" sodipodi:cy="11.125" sodipodi:cx="36.9375" sodipodi:sides="5" id="path1345" style="opacity:1;color:#000000;fill:#ffffff;fill-opacity:1;fill-rule:evenodd;stroke:none;stroke-width:0.5;stroke-linecap:butt;stroke-linejoin:miter;marker:none;marker-start:none;marker-mid:none;marker-end:none;stroke-miterlimit:4;stroke-dasharray:none;stroke-dashoffset:0;stroke-opacity:1;visibility:visible;display:inline;overflow:visible" sodipodi:type="star"/>
    </g>
  </g>
</svg>
