<?xml version="1.0" encoding="UTF-8" standalone="no"?>
<!-- Created with Inkscape (http://www.inkscape.org/) -->
<svg xmlns:dc="http://purl.org/dc/elements/1.1/" xmlns:cc="http://web.resource.org/cc/" xmlns:rdf="http://www.w3.org/1999/02/22-rdf-syntax-ns#" xmlns:svg="http://www.w3.org/2000/svg" xmlns="http://www.w3.org/2000/svg" xmlns:xlink="http://www.w3.org/1999/xlink" xmlns:sodipodi="http://sodipodi.sourceforge.net/DTD/sodipodi-0.dtd" xmlns:inkscape="http://www.inkscape.org/namespaces/inkscape" width="48px" height="48px" id="svg1306" sodipodi:version="0.32" inkscape:version="0.44" sodipodi:docbase="/home/lapo/Icone/cvs/gnome-icon-theme/scalable/status" sodipodi:docname="weather-few-clouds.svg" inkscape:output_extension="org.inkscape.output.svg.inkscape">
  <defs id="defs1308">
    <linearGradient id="linearGradient1994">
      <stop id="stop1997" offset="0" style="stop-color:white;stop-opacity:1"/>
      <stop style="stop-color:white;stop-opacity:1;" offset="0.5" id="stop2001"/>
      <stop id="stop1999" offset="1" style="stop-color:#d3d7cf;stop-opacity:1"/>
    </linearGradient>
    <linearGradient inkscape:collect="always" id="linearGradient5150">
      <stop style="stop-color:white;stop-opacity:1;" offset="0" id="stop5152"/>
      <stop style="stop-color:white;stop-opacity:0;" offset="1" id="stop5154"/>
    </linearGradient>
    <linearGradient id="linearGradient5142">
      <stop style="stop-color:#f1ff74;stop-opacity:1;" offset="0" id="stop5144"/>
      <stop style="stop-color:#ffc10f;stop-opacity:1;" offset="1" id="stop5146"/>
    </linearGradient>
    <linearGradient id="linearGradient5134">
      <stop style="stop-color:#ffdf1a;stop-opacity:1;" offset="0" id="stop5136"/>
      <stop style="stop-color:#fff9ce;stop-opacity:1;" offset="1" id="stop5138"/>
    </linearGradient>
    <linearGradient inkscape:collect="always" id="linearGradient5125">
      <stop style="stop-color:#ffc10f;stop-opacity:1;" offset="0" id="stop5127"/>
      <stop style="stop-color:#ffc10f;stop-opacity:0;" offset="1" id="stop5129"/>
    </linearGradient>
    <linearGradient id="linearGradient5115">
      <stop style="stop-color:white;stop-opacity:0;" offset="0" id="stop5117"/>
      <stop id="stop5123" offset="0.83783782" style="stop-color:#f6e97f;stop-opacity:0.35922331;"/>
      <stop style="stop-color:#edd400;stop-opacity:1;" offset="1" id="stop5119"/>
    </linearGradient>
    <linearGradient id="linearGradient5101">
      <stop style="stop-color:white;stop-opacity:1;" offset="0" id="stop5103"/>
      <stop style="stop-color:#edd400;stop-opacity:0.1262136;" offset="1" id="stop5105"/>
    </linearGradient>
    <radialGradient inkscape:collect="always" xlink:href="#linearGradient5101" id="radialGradient1906" gradientUnits="userSpaceOnUse" cx="23.142857" cy="24.285715" fx="23.142857" fy="24.285715" r="23.142857"/>
    <radialGradient inkscape:collect="always" xlink:href="#linearGradient5115" id="radialGradient1908" gradientUnits="userSpaceOnUse" gradientTransform="matrix(1,0,0,1.01674,0,-0.39987)" cx="21.895287" cy="23.886944" fx="21.895287" fy="23.886944" r="23.398855"/>
    <radialGradient inkscape:collect="always" xlink:href="#linearGradient5150" id="radialGradient1919" gradientUnits="userSpaceOnUse" gradientTransform="matrix(-1.636524e-8,-1.353395,2.022695,-2.607526e-8,-27.81932,50.0004)" cx="25.245258" cy="25.618958" fx="25.245258" fy="25.618958" r="14.760339"/>
    <radialGradient inkscape:collect="always" xlink:href="#linearGradient5142" id="radialGradient1925" gradientUnits="userSpaceOnUse" gradientTransform="matrix(1.421498,0,0,1.421498,-9.724552,-9.754659)" cx="23.071423" cy="30.798319" fx="23.071423" fy="30.798319" r="22.856438"/>
    <linearGradient inkscape:collect="always" xlink:href="#linearGradient5134" id="linearGradient1927" gradientUnits="userSpaceOnUse" x1="20.908642" y1="52.221584" x2="15.422572" y2="-4.3302984"/>
    <radialGradient inkscape:collect="always" xlink:href="#linearGradient5125" id="radialGradient1929" gradientUnits="userSpaceOnUse" cx="23.071428" cy="23.142857" fx="23.071428" fy="23.142857" r="22.825405"/>
    <radialGradient inkscape:collect="always" xlink:href="#linearGradient1994" id="radialGradient2003" cx="19.160831" cy="10.574146" fx="19.160831" fy="10.574146" r="8.484375" gradientTransform="matrix(1.186004,-2.209896e-2,1.097582e-2,0.589216,-4.153381,5.817969)" gradientUnits="userSpaceOnUse"/>
    <radialGradient inkscape:collect="always" xlink:href="#linearGradient1994" id="radialGradient2979" gradientUnits="userSpaceOnUse" gradientTransform="matrix(1.090165,-1.249946e-2,5.362702e-3,0.467677,-1.896362,13.38227)" cx="10.255606" cy="17.808355" fx="10.255606" fy="17.808355" r="15"/>
    <radialGradient inkscape:collect="always" xlink:href="#linearGradient1994" id="radialGradient3088" cx="30.319067" cy="23.864922" fx="30.319067" fy="23.864922" r="16.5" gradientTransform="matrix(1.430283,5.356339e-3,-2.040517e-3,0.546399,-12.64539,12.08204)" gradientUnits="userSpaceOnUse"/>
  </defs>
  <g id="layer1" inkscape:label="Layer 1" inkscape:groupmode="layer">
    <path sodipodi:type="inkscape:offset" inkscape:radius="0.50097561" inkscape:original="M 39 18.46875 C 38.173595 18.46875 37.5 19.166962 37.5 20 C 37.5 20.197846 37.556235 20.358064 37.625 20.53125 C 36.026411 20.701636 34.741539 21.937334 34.53125 23.53125 C 33.308684 23.693337 32.298651 24.476006 31.8125 25.5625 C 31.576112 25.595658 31.349609 25.653704 31.125 25.71875 C 30.687793 24.990958 29.91027 24.5 29 24.5 C 27.738095 24.5 26.700779 25.440798 26.53125 26.65625 C 25.897448 25.958209 25.013286 25.5 24 25.5 C 23.912608 25.5 23.835785 25.524924 23.75 25.53125 C 22.946399 24.31727 21.563852 23.5 20 23.5 C 19.43911 23.5 18.901379 23.624303 18.40625 23.8125 C 18.11803 22.604658 17.09423 21.679072 15.84375 21.53125 C 14.887957 20.885353 13.739584 20.5 12.5 20.5 C 9.8486673 20.5 7.5995352 22.23612 6.8125 24.625 C 6.5463474 24.559933 6.2861078 24.5 6 24.5 C 4.5960395 24.5 3.3968547 25.36604 2.84375 26.5625 C 2.7326599 26.543076 2.6165753 26.5 2.5 26.5 C 1.4024473 26.5 0.50000001 27.394185 0.5 28.5 C 0.5 29.605816 1.4024472 30.531251 2.5 30.53125 C 2.8233237 30.53125 3.136302 30.45065 3.40625 30.3125 C 4.0451444 31.026455 4.9672496 31.500001 6 31.5 C 6.8535947 31.5 7.6122756 31.165925 8.21875 30.65625 C 9.3071867 31.777081 10.815437 32.5 12.5 32.5 C 12.913195 32.5 13.329041 32.454813 13.71875 32.375 C 14.042508 33.039477 14.716159 33.531251 15.5 33.53125 C 16.53411 33.53125 17.373877 32.704533 17.46875 31.6875 C 17.618708 31.790967 17.776046 31.882383 17.9375 31.96875 C 18.449624 32.868937 19.392758 33.5 20.5 33.5 C 21.177794 33.500001 21.810481 33.255144 22.3125 32.875 C 23.041696 33.855912 24.184715 34.5 25.5 34.5 C 26.620181 34.5 27.617384 34.024031 28.34375 33.28125 C 29.24258 34.61133 30.774997 35.5 32.5 35.5 C 33.990289 35.500001 35.302456 34.816645 36.21875 33.78125 C 36.67125 34.23375 37.31 34.5 38 34.5 C 39.011116 34.499999 39.88756 33.895497 40.28125 33.03125 C 40.787002 33.316797 41.378164 33.5 42 33.5 C 43.037532 33.5 43.954595 33.032217 44.59375 32.3125 C 44.865856 32.453479 45.173155 32.53125 45.5 32.53125 C 46.597553 32.531251 47.5 31.605816 47.5 30.5 C 47.500001 29.394185 46.597553 28.5 45.5 28.5 C 45.373115 28.5 45.245301 28.539575 45.125 28.5625 C 44.761543 27.77628 44.14348 27.150944 43.34375 26.8125 C 43.433344 26.554504 43.5 26.288584 43.5 26 C 43.5 24.770719 42.60081 23.772017 41.4375 23.5625 C 41.312758 22.54936 40.764951 21.680113 39.96875 21.125 C 40.287361 20.848182 40.5 20.456946 40.5 20 C 40.5 19.166962 39.826406 18.46875 39 18.46875 z " style="fill:black;fill-opacity:1;stroke:none;stroke-width:1;stroke-linecap:round;stroke-linejoin:miter;stroke-miterlimit:4;stroke-dasharray:none;stroke-dashoffset:1.20000057;stroke-opacity:1;opacity:0.15" id="path3109" d="M 39,17.96875 C 37.891419,17.96875 37,18.896903 37,20 C 37,20.075572 37.021383,20.11913 37.03125,20.1875 C 35.588411,20.551039 34.490837,21.664006 34.15625,23.125 C 32.992302,23.377864 32.009548,24.098416 31.46875,25.125 C 31.403287,25.138987 31.344251,25.171582 31.28125,25.1875 C 30.736447,24.502549 29.946087,24 29,24 C 27.763807,24 26.737913,24.770316 26.28125,25.84375 C 25.635349,25.356925 24.877859,25 24,25 C 23.959908,25 23.969023,24.997602 23.9375,25 C 23.025722,23.804384 21.617736,23 20,23 C 19.543131,23 19.12914,23.132909 18.71875,23.25 C 18.263047,22.092792 17.233182,21.237997 15.96875,21.0625 C 15.945478,21.05927 15.929662,21.034018 15.90625,21.03125 C 14.913067,20.410359 13.758825,20 12.5,20 C 9.7904894,20 7.5009102,21.696032 6.53125,24.0625 C 6.3595759,24.030196 6.2013582,24 6,24 C 4.5355374,24 3.2850408,24.825936 2.59375,26 C 2.5518118,25.995606 2.5503971,26 2.5,26 C 1.1303481,26 1.2464803e-08,27.121623 0,28.5 C 0,29.878377 1.1208384,31.031251 2.5,31.03125 C 2.7816836,31.03125 3.0272391,30.931018 3.28125,30.84375 C 3.9926325,31.528098 4.9276926,32.000001 6,32 C 6.8370243,32 7.560292,31.68624 8.1875,31.25 C 9.3333877,32.292238 10.823979,33 12.5,33 C 12.853207,33 13.192065,32.961027 13.53125,32.90625 C 13.977666,33.54747 14.653533,34.031251 15.5,34.03125 C 16.530826,34.03125 17.373433,33.367087 17.75,32.46875 C 18.373193,33.350931 19.330545,34 20.5,34 C 21.150677,34.000001 21.73249,33.777305 22.25,33.46875 C 23.066996,34.371814 24.182089,35 25.5,35 C 26.565472,35 27.485213,34.556735 28.25,33.9375 C 29.260568,35.177959 30.779875,36 32.5,36 C 33.988643,36.000001 35.268742,35.332669 36.25,34.375 C 36.756443,34.743642 37.338826,35 38,35 C 39.032922,34.999999 39.89613,34.424806 40.4375,33.625 C 40.91824,33.836687 41.43499,34 42,34 C 43.074315,34 44.007294,33.532168 44.71875,32.84375 C 44.973581,32.93149 45.218501,33.03125 45.5,33.03125 C 46.879162,33.031251 48,31.878377 48,30.5 C 48.000001,29.121623 46.869652,28 45.5,28 C 45.437444,28 45.426697,28.024953 45.375,28.03125 C 45.021307,27.420342 44.494994,26.942614 43.875,26.59375 C 43.922736,26.399243 44,26.224865 44,26 C 44,24.635436 43.055421,23.547133 41.8125,23.1875 C 41.63756,22.358998 41.225102,21.644982 40.625,21.09375 C 40.846082,20.77843 41,20.422154 41,20 C 41,18.896903 40.108581,17.96875 39,17.96875 z " transform="translate(0,1)"/>
    <g id="g3333" transform="translate(0,2)">
      <path id="path3174" d="M 12.5,18.5 C 9.8486673,18.5 7.5995352,20.23612 6.8125,22.625 C 6.5463474,22.559933 6.2861078,22.5 6,22.5 C 4.5960395,22.5 3.3968547,23.36604 2.84375,24.5625 C 2.7326599,24.543076 2.6165753,24.5 2.5,24.5 C 1.4024473,24.5 0.50000001,25.394185 0.5,26.5 C 0.5,27.605816 1.4024472,28.531251 2.5,28.53125 C 2.8233237,28.53125 3.136302,28.45065 3.40625,28.3125 C 4.0451444,29.026455 4.9672496,29.500001 6,29.5 C 6.8535947,29.5 7.6122756,29.165925 8.21875,28.65625 C 9.3071867,29.777081 10.815437,30.5 12.5,30.5 C 12.913195,30.5 13.329041,30.454813 13.71875,30.375 C 14.042508,31.039477 14.716159,31.531251 15.5,31.53125 C 16.53411,31.53125 17.373877,30.704533 17.46875,29.6875 C 18.192123,30.186611 19.055293,30.5 20,30.5 C 20.761556,30.5 21.465242,30.272629 22.09375,29.9375 C 22.643509,30.299406 23.29306,30.5 24,30.5 C 24.761287,30.5 25.457534,30.258145 26.03125,29.84375 C 26.395332,30.252063 26.912742,30.53125 27.5,30.53125 C 28.597553,30.53125 29.500001,29.605816 29.5,28.5 C 29.5,27.394184 28.597553,26.499999 27.5,26.5 C 27.479381,26.5 27.457968,26.499371 27.4375,26.5 C 27.188535,24.818105 25.750767,23.5 24,23.5 C 23.912608,23.5 23.835785,23.524924 23.75,23.53125 C 22.946399,22.31727 21.563852,21.5 20,21.5 C 19.43911,21.5 18.901379,21.624303 18.40625,21.8125 C 18.11803,20.604658 17.09423,19.679072 15.84375,19.53125 C 14.887957,18.885353 13.739584,18.5 12.5,18.5 z " style="fill:url(#radialGradient2979);fill-opacity:1;stroke:#729fcf;stroke-width:1;stroke-linecap:round;stroke-linejoin:miter;stroke-miterlimit:4;stroke-dasharray:none;stroke-dashoffset:1.20000057;stroke-opacity:1"/>
      <path d="M 12.5,19.5 C 10.289984,19.5 8.4347227,20.954021 7.78125,22.9375 C 7.6118988,23.443648 7.0782847,23.730979 6.5625,23.59375 C 6.3049085,23.530776 6.1449285,23.5 6,23.5 C 5.0117756,23.5 4.1475338,24.140066 3.75,25 C 3.5544955,25.413194 3.1060715,25.643812 2.65625,25.5625 C 2.4130696,25.51998 2.3675385,25.5 2.5,25.5 C 1.9515286,25.5 1.5,25.944199 1.5,26.5 C 1.5,27.055802 1.9707183,27.53125 2.5,27.53125 C 2.6553148,27.53125 2.8076953,27.47268 2.9375,27.40625 C 3.3461105,27.192777 3.8473847,27.282749 4.15625,27.625 C 4.6209401,28.144284 5.2762808,28.500001 6,28.5 C 6.5898238,28.5 7.1073584,28.257496 7.5625,27.875 C 7.9664571,27.532477 8.566283,27.559741 8.9375,27.9375 C 9.8521189,28.87934 11.104663,29.5 12.5,29.5 C 12.839491,29.5 13.206548,29.4415 13.53125,29.375 C 13.981071,29.293688 14.429495,29.524306 14.625,29.9375 C 14.792925,30.282147 15.138996,30.53125 15.5,30.53125 C 15.995313,30.53125 16.420413,30.111922 16.46875,29.59375 C 16.501924,29.24042 16.71792,28.930352 17.037856,28.776783 C 17.357792,28.623214 17.73482,28.64863 18.03125,28.84375 C 18.608022,29.24171 19.278867,29.5 20,29.5 C 20.560338,29.5 21.105415,29.3083 21.625,29.03125 C 21.954249,28.861621 22.349897,28.885599 22.65625,29.09375 C 23.043841,29.348901 23.484296,29.5 24,29.5 C 24.547175,29.5 25.027146,29.327649 25.4375,29.03125 C 25.85175,28.724132 26.430756,28.777993 26.78125,29.15625 C 26.981042,29.380314 27.233148,29.53125 27.5,29.53125 C 28.029283,29.53125 28.500001,29.055801 28.5,28.5 C 28.5,27.944198 28.048471,27.5 27.5,27.5 C 27.458821,27.5 27.446899,27.500672 27.46875,27.5 C 26.962078,27.517073 26.521097,27.15627 26.4375,26.65625 C 26.259887,25.456376 25.24336,24.5 24,24.5 C 24.10482,24.5 24.048365,24.513857 23.8125,24.53125 C 23.454141,24.55679 23.109146,24.390241 22.90625,24.09375 C 22.281961,23.150653 21.21164,22.5 20,22.5 C 19.588471,22.5 19.156092,22.595646 18.75,22.75 C 18.484965,22.8437 18.192885,22.822826 17.943868,22.692389 C 17.694851,22.561952 17.511382,22.333728 17.4375,22.0625 C 17.247668,21.266971 16.544536,20.628868 15.71875,20.53125 C 15.562765,20.513831 15.412978,20.460336 15.28125,20.375 C 14.482152,19.834993 13.530068,19.5 12.5,19.5 z " id="path3313" style="fill:none;fill-opacity:1;stroke:white;stroke-width:1;stroke-linecap:round;stroke-linejoin:round;stroke-miterlimit:4;stroke-dasharray:none;stroke-dashoffset:1.20000057;stroke-opacity:1" inkscape:original="M 12.5 18.5 C 9.8486673 18.5 7.5995352 20.23612 6.8125 22.625 C 6.5463474 22.559933 6.2861078 22.5 6 22.5 C 4.5960395 22.5 3.3968547 23.36604 2.84375 24.5625 C 2.7326599 24.543076 2.6165753 24.5 2.5 24.5 C 1.4024473 24.5 0.50000001 25.394185 0.5 26.5 C 0.5 27.605816 1.4024472 28.531251 2.5 28.53125 C 2.8233237 28.53125 3.136302 28.45065 3.40625 28.3125 C 4.0451444 29.026455 4.9672496 29.500001 6 29.5 C 6.8535947 29.5 7.6122756 29.165925 8.21875 28.65625 C 9.3071867 29.777081 10.815437 30.5 12.5 30.5 C 12.913195 30.5 13.329041 30.454813 13.71875 30.375 C 14.042508 31.039477 14.716159 31.531251 15.5 31.53125 C 16.53411 31.53125 17.373877 30.704533 17.46875 29.6875 C 18.192123 30.186611 19.055293 30.5 20 30.5 C 20.761556 30.5 21.465242 30.272629 22.09375 29.9375 C 22.643509 30.299406 23.29306 30.5 24 30.5 C 24.761287 30.5 25.457534 30.258145 26.03125 29.84375 C 26.395332 30.252063 26.912742 30.53125 27.5 30.53125 C 28.597553 30.53125 29.500001 29.605816 29.5 28.5 C 29.5 27.394184 28.597553 26.499999 27.5 26.5 C 27.479381 26.5 27.457968 26.499371 27.4375 26.5 C 27.188535 24.818105 25.750767 23.5 24 23.5 C 23.912608 23.5 23.835785 23.524924 23.75 23.53125 C 22.946399 22.31727 21.563852 21.5 20 21.5 C 19.43911 21.5 18.901379 21.624303 18.40625 21.8125 C 18.11803 20.604658 17.09423 19.679072 15.84375 19.53125 C 14.887957 18.885353 13.739584 18.5 12.5 18.5 z " inkscape:radius="-1.0109413" sodipodi:type="inkscape:offset"/>
    </g>
    <path sodipodi:type="arc" style="color:black;fill:url(#radialGradient1906);fill-opacity:1;fill-rule:evenodd;stroke:none;stroke-width:1;stroke-linecap:round;stroke-linejoin:miter;marker:none;marker-start:none;marker-mid:none;marker-end:none;stroke-miterlimit:4;stroke-dasharray:none;stroke-dashoffset:0;stroke-opacity:1;visibility:visible;display:inline;overflow:visible" id="path4226" sodipodi:cx="23.142857" sodipodi:cy="24.285715" sodipodi:rx="23.142857" sodipodi:ry="23.142857" d="M 46.285713 24.285715 A 23.142857 23.142857 0 1 1  0,24.285715 A 23.142857 23.142857 0 1 1  46.285713 24.285715 z" transform="matrix(0.750039,0,0,0.75204,6.391761,5.314298)"/>
    <path sodipodi:type="star" style="opacity:0.66292138;color:black;fill:url(#radialGradient1908);fill-opacity:1;fill-rule:evenodd;stroke:none;stroke-width:1;stroke-linecap:round;stroke-linejoin:miter;marker:none;marker-start:none;marker-mid:none;marker-end:none;stroke-miterlimit:4;stroke-dasharray:none;stroke-dashoffset:0;stroke-opacity:1;visibility:visible;display:inline;overflow:visible" id="path5113" sodipodi:sides="11" sodipodi:cx="23.511301" sodipodi:cy="23.074486" sodipodi:r1="25.152658" sodipodi:r2="12.137954" sodipodi:arg1="0.52359878" sodipodi:arg2="0.80919811" inkscape:flatsided="false" inkscape:rounded="0" inkscape:randomized="0" d="M 45.294142,35.650815 L 31.887448,31.859136 L 35.036916,45.43106 L 25.808424,34.993091 L 21.120389,48.113251 L 19.000079,34.342973 L 7.9629591,42.845811 L 13.624016,30.11519 L -0.25798184,31.301114 L 11.387095,23.652033 L -0.9323434,17.144522 L 12.999525,17.005509 L 6.1539794,4.8706506 L 17.949369,12.285842 L 18.751129,-1.6236314 L 24.665087,10.991494 L 32.8596,-0.27643573 L 31.014486,13.53341 L 44.000052,8.4845125 L 34.981677,19.10455 L 48.63547,21.877674 L 35.307105,25.936117 L 45.294142,35.650815 z " transform="matrix(0.741704,-0.253089,0.252415,0.743682,0.700177,11.56434)"/>
    <path sodipodi:type="arc" style="color:black;fill:url(#radialGradient1929);fill-opacity:1;fill-rule:evenodd;stroke:#ff9e1a;stroke-width:1.64021099;stroke-linecap:butt;stroke-linejoin:round;marker:none;marker-start:none;marker-mid:none;marker-end:none;stroke-miterlimit:4;stroke-dasharray:none;stroke-dashoffset:0;stroke-opacity:1;visibility:visible;display:inline;overflow:visible" id="path1314" sodipodi:cx="23.071428" sodipodi:cy="23.142857" sodipodi:rx="22.142857" sodipodi:ry="22.142857" d="M 45.214285 23.142857 A 22.142857 22.142857 0 1 1  0.9285717,23.142857 A 22.142857 22.142857 0 1 1  45.214285 23.142857 z" transform="matrix(0.609677,0,0,0.609677,9.93387,9.890323)"/>
    <path sodipodi:type="arc" style="color:black;fill:url(#radialGradient1925);fill-opacity:1;fill-rule:evenodd;stroke:url(#linearGradient1927);stroke-width:1.77104032;stroke-linecap:butt;stroke-linejoin:round;marker:none;marker-start:none;marker-mid:none;marker-end:none;stroke-miterlimit:4;stroke-dasharray:none;stroke-dashoffset:0;stroke-opacity:1;visibility:visible;display:inline;overflow:visible" id="path2044" sodipodi:cx="23.071428" sodipodi:cy="23.142857" sodipodi:rx="22.142857" sodipodi:ry="22.142857" d="M 45.214285 23.142857 A 22.142857 22.142857 0 1 1  0.9285717,23.142857 A 22.142857 22.142857 0 1 1  45.214285 23.142857 z" transform="matrix(0.564516,0,0,0.564762,10.97581,10.93524)"/>
    <path style="opacity:0.73033711;color:black;fill:url(#radialGradient1919);fill-opacity:1;fill-rule:evenodd;stroke:none;stroke-width:1;stroke-linecap:butt;stroke-linejoin:round;marker:none;marker-start:none;marker-mid:none;marker-end:none;stroke-miterlimit:4;stroke-dashoffset:0;stroke-opacity:1;visibility:visible;display:inline;overflow:visible" d="M 35.875,21.494252 C 30.902329,17.62271 8.9953842,31.195695 12.50345,20.470666 C 14.310767,14.945242 19.415566,12.040646 23.691958,11.940786 C 29.171177,11.812838 34.217442,15.428485 35.875,21.494252 z " id="path2046" sodipodi:nodetypes="cssc"/>
    <path sodipodi:type="inkscape:offset" inkscape:radius="0.48462695" inkscape:original="M 20.5 7.5 C 19.402447 7.5 18.53125 8.3941846 18.53125 9.5 C 18.53125 9.627657 18.53981 9.753957 18.5625 9.875 C 18.095526 9.642848 17.556572 9.5 17 9.5 C 15.137671 9.5 13.6605 10.974462 13.5625 12.8125 C 13.256846 12.619442 12.887115 12.5 12.5 12.5 C 11.402447 12.5 10.53125 13.394185 10.53125 14.5 C 10.53125 15.605816 11.402447 16.5 12.5 16.5 C 13.323165 16.5 14.041774 16.00018 14.34375 15.28125 C 14.983645 16.025523 15.94222 16.46875 17 16.46875 C 17.738505 16.46875 18.435919 16.235802 19 15.84375 C 19.570218 16.250792 20.247148 16.5 21 16.5 C 21.971213 16.5 22.836098 16.080205 23.46875 15.4375 C 23.473276 15.432902 23.495499 15.442123 23.5 15.4375 C 23.654565 15.466937 23.805573 15.5 23.96875 15.5 C 25.359768 15.5 26.499999 14.379998 26.5 13 C 26.5 11.620002 25.359769 10.5 23.96875 10.5 C 23.805573 10.5 23.654565 10.533064 23.5 10.5625 C 23.495173 10.557538 23.473606 10.567434 23.46875 10.5625 C 23.17583 10.264886 22.851991 10.021342 22.46875 9.84375 C 22.487911 9.732153 22.5 9.617086 22.5 9.5 C 22.5 8.3941844 21.597553 7.4999999 20.5 7.5 z " style="fill:black;fill-opacity:1;stroke:none;stroke-width:1;stroke-linecap:round;stroke-linejoin:miter;stroke-miterlimit:4;stroke-dasharray:none;stroke-dashoffset:1.20000057;stroke-opacity:1;opacity:0.05" id="path2915" d="M 20.5,7 C 19.217034,7 18.209011,8.0268717 18.09375,9.28125 C 17.73449,9.1724797 17.39372,9 17,9 C 15.084142,9 13.58282,10.413614 13.21875,12.21875 C 12.978618,12.139467 12.766192,12 12.5,12 C 11.139227,12 10.03125,13.139648 10.03125,14.5 C 10.03125,15.860352 11.139228,17 12.5,17 C 13.31261,17 13.951264,16.52045 14.40625,15.90625 C 15.114361,16.525023 15.998296,16.96875 17,16.96875 C 17.730305,16.96875 18.408162,16.72094 19,16.375 C 19.588982,16.733822 20.251469,17 21,17 C 22.01301,17 22.899788,16.557858 23.59375,15.9375 C 23.708694,15.958554 23.816323,16 23.96875,16 C 25.619905,16 26.999999,14.646948 27,13 C 27,11.353052 25.619906,10 23.96875,10 C 23.816322,10 23.708693,10.041446 23.59375,10.0625 C 23.404091,9.8915141 23.193285,9.7585476 22.96875,9.625 C 22.971149,9.5827531 23,9.5436288 23,9.5 C 23,8.1305177 21.860772,6.9999999 20.5,7 z " transform="translate(0,1)"/>
    <g id="g3341" transform="translate(-1,-1)">
      <path id="path3252" d="M 21.5,8.5 C 20.402447,8.5 19.53125,9.3941846 19.53125,10.5 C 19.53125,10.627657 19.53981,10.753957 19.5625,10.875 C 19.095526,10.642848 18.556572,10.5 18,10.5 C 16.137671,10.5 14.6605,11.974462 14.5625,13.8125 C 14.256846,13.619442 13.887115,13.5 13.5,13.5 C 12.402447,13.5 11.53125,14.394185 11.53125,15.5 C 11.53125,16.605816 12.402447,17.5 13.5,17.5 C 14.323165,17.5 15.041774,17.00018 15.34375,16.28125 C 15.983645,17.025523 16.94222,17.46875 18,17.46875 C 18.738505,17.46875 19.435919,17.235802 20,16.84375 C 20.570218,17.250792 21.247148,17.5 22,17.5 C 22.971213,17.5 23.836098,17.080205 24.46875,16.4375 C 24.473276,16.432902 24.495499,16.442123 24.5,16.4375 C 24.654565,16.466937 24.805573,16.5 24.96875,16.5 C 26.359768,16.5 27.499999,15.379998 27.5,14 C 27.5,12.620002 26.359769,11.5 24.96875,11.5 C 24.805573,11.5 24.654565,11.533064 24.5,11.5625 C 24.495173,11.557538 24.473606,11.567434 24.46875,11.5625 C 24.17583,11.264886 23.851991,11.021342 23.46875,10.84375 C 23.487911,10.732153 23.5,10.617086 23.5,10.5 C 23.5,9.3941844 22.597553,8.4999999 21.5,8.5 z " style="fill:url(#radialGradient2003);fill-opacity:1.0;stroke:#729fcf;stroke-width:1;stroke-linecap:round;stroke-linejoin:miter;stroke-miterlimit:4;stroke-dasharray:none;stroke-dashoffset:1.20000057;stroke-opacity:1"/>
      <path transform="translate(2,2)" d="M 19.5,7.5 C 18.938603,7.5 18.53125,7.9126541 18.53125,8.5 C 18.53125,8.583528 18.523187,8.644488 18.53125,8.6875 C 18.597733,9.0540468 18.452226,9.426805 18.154998,9.6513767 C 17.857771,9.8759484 17.459442,9.9140888 17.125,9.75 C 16.784596,9.5807717 16.387666,9.4999999 16,9.5 C 14.658706,9.5 13.633915,10.535577 13.5625,11.875 C 13.547357,12.230658 13.341916,12.550621 13.024823,12.712403 C 12.70773,12.874186 12.328096,12.85273 12.03125,12.65625 C 11.874052,12.55696 11.684063,12.5 11.5,12.5 C 10.938603,12.5 10.53125,12.912655 10.53125,13.5 C 10.53125,14.087347 10.938603,14.5 11.5,14.5 C 11.923574,14.5 12.2888,14.260269 12.4375,13.90625 C 12.566052,13.589029 12.849741,13.361028 13.187189,13.303726 C 13.524637,13.246423 13.867688,13.367996 14.09375,13.625 C 14.542232,14.146637 15.217973,14.46875 16,14.46875 C 16.53092,14.46875 17.036056,14.310265 17.4375,14.03125 C 17.77582,13.796688 18.22418,13.796688 18.5625,14.03125 C 18.987104,14.334347 19.46499,14.5 20,14.5 C 20.686759,14.5 21.28212,14.225315 21.75,13.75 C 21.750103,13.749896 21.825067,13.722303 21.875,13.6875 C 21.89489,13.665744 21.915744,13.64489 21.9375,13.625 C 21.980078,13.595336 22.013378,13.574931 22.03125,13.5625 C 22.041281,13.555431 22.058294,13.534221 22.0625,13.53125 C 22.062788,13.53112 22.152479,13.520821 22.21875,13.5 C 22.239208,13.488849 22.260054,13.478426 22.28125,13.46875 C 22.282041,13.468602 22.395399,13.441482 22.46875,13.4375 C 22.511053,13.445184 22.552808,13.455623 22.59375,13.46875 C 22.607337,13.470953 22.657765,13.469011 22.65625,13.46875 C 22.666666,13.468585 22.677084,13.468585 22.6875,13.46875 C 22.859434,13.501495 22.938917,13.5 22.96875,13.5 C 23.82989,13.5 24.499999,12.836243 24.5,12 C 24.5,11.163758 23.829892,10.5 22.96875,10.5 C 22.938921,10.5 22.859442,10.498505 22.6875,10.53125 C 22.677084,10.531415 22.666666,10.531415 22.65625,10.53125 C 22.654759,10.531529 22.611583,10.528159 22.59375,10.53125 C 22.573688,10.534727 22.586809,10.559375 22.53125,10.5625 C 22.498152,10.564362 22.437928,10.537003 22.375,10.53125 C 22.338164,10.527882 22.281643,10.531328 22.28125,10.53125 C 22.281019,10.531204 22.236086,10.51595 22.1875,10.5 C 22.145197,10.492316 22.103442,10.481877 22.0625,10.46875 C 22.062552,10.468775 22.038757,10.442881 22.03125,10.4375 C 21.938491,10.388669 21.8541,10.325376 21.78125,10.25 C 21.778839,10.248288 21.75002,10.250021 21.75,10.25 C 21.523369,10.019738 21.325844,9.8720324 21.0625,9.75 C 20.656113,9.5639873 20.425382,9.1281622 20.5,8.6875 C 20.511728,8.6191922 20.5,8.5491389 20.5,8.5 C 20.5,7.9312514 20.061397,7.4999999 19.5,7.5 z " id="path3299" style="fill:none;fill-opacity:1;stroke:white;stroke-width:1;stroke-linecap:round;stroke-linejoin:miter;stroke-miterlimit:4;stroke-dasharray:none;stroke-dashoffset:1.20000057;stroke-opacity:1" inkscape:original="M 19.5 6.5 C 18.402447 6.5 17.53125 7.3941846 17.53125 8.5 C 17.53125 8.6276566 17.53981 8.7539566 17.5625 8.875 C 17.095526 8.6428485 16.556572 8.4999999 16 8.5 C 14.137671 8.5 12.6605 9.974462 12.5625 11.8125 C 12.256846 11.619442 11.887115 11.5 11.5 11.5 C 10.402447 11.5 9.53125 12.394185 9.53125 13.5 C 9.53125 14.605816 10.402447 15.5 11.5 15.5 C 12.323165 15.5 13.041774 15.00018 13.34375 14.28125 C 13.983645 15.025523 14.94222 15.46875 16 15.46875 C 16.738505 15.46875 17.435919 15.235802 18 14.84375 C 18.570218 15.250792 19.247148 15.5 20 15.5 C 20.971213 15.5 21.836098 15.080205 22.46875 14.4375 C 22.473276 14.432902 22.495499 14.442123 22.5 14.4375 C 22.654565 14.466937 22.805573 14.5 22.96875 14.5 C 24.359768 14.5 25.499999 13.379998 25.5 12 C 25.5 10.620002 24.359769 9.5 22.96875 9.5 C 22.805573 9.5 22.654565 9.533064 22.5 9.5625 C 22.495173 9.557538 22.473606 9.567434 22.46875 9.5625 C 22.17583 9.264886 21.851991 9.021342 21.46875 8.84375 C 21.487911 8.7321531 21.5 8.6170864 21.5 8.5 C 21.5 7.3941844 20.597553 6.4999999 19.5 6.5 z " inkscape:radius="-0.98714447" sodipodi:type="inkscape:offset"/>
    </g>
    <g id="g3098">
      <path sodipodi:nodetypes="csccccscscscssscscscscscscsssccsccsc" id="path3219" d="M 39,18.46875 C 38.173595,18.46875 37.5,19.166962 37.5,20 C 37.5,20.197846 37.556235,20.358064 37.625,20.53125 C 36.026411,20.701636 34.741539,21.937334 34.53125,23.53125 C 33.308684,23.693337 32.298651,24.476006 31.8125,25.5625 C 31.576112,25.595658 31.349609,25.653704 31.125,25.71875 C 30.687793,24.990958 29.91027,24.5 29,24.5 C 27.738095,24.5 26.700779,25.440798 26.53125,26.65625 C 26.202337,26.568672 25.856372,26.5 25.5,26.5 C 24.19328,26.5 23.042608,27.123703 22.3125,28.09375 C 21.811275,27.71574 21.175693,27.5 20.5,27.5 C 19.443006,27.5 18.532871,28.047171 18,28.875 C 17.735501,28.637795 17.381605,28.46875 17,28.46875 C 16.173595,28.46875 15.5,29.166962 15.5,30 C 15.5,30.833037 16.173594,31.5 17,31.5 C 17.232427,31.5 17.459913,31.43916 17.65625,31.34375 C 18.026664,32.576835 19.146791,33.5 20.5,33.5 C 21.177794,33.500001 21.810481,33.255144 22.3125,32.875 C 23.041696,33.855912 24.184715,34.5 25.5,34.5 C 26.620181,34.5 27.617384,34.024031 28.34375,33.28125 C 29.24258,34.61133 30.774997,35.5 32.5,35.5 C 33.990289,35.500001 35.302456,34.816645 36.21875,33.78125 C 36.67125,34.23375 37.31,34.5 38,34.5 C 39.011116,34.499999 39.88756,33.895497 40.28125,33.03125 C 40.787002,33.316797 41.378164,33.5 42,33.5 C 43.037532,33.5 43.954595,33.032217 44.59375,32.3125 C 44.865856,32.453479 45.173155,32.53125 45.5,32.53125 C 46.597553,32.531251 47.5,31.605816 47.5,30.5 C 47.500001,29.394185 46.597553,28.5 45.5,28.5 C 45.373115,28.5 45.245301,28.539575 45.125,28.5625 C 44.761543,27.77628 44.14348,27.150944 43.34375,26.8125 C 43.433344,26.554504 43.5,26.288584 43.5,26 C 43.5,24.770719 42.60081,23.772017 41.4375,23.5625 C 41.312758,22.54936 40.764951,21.680113 39.96875,21.125 C 40.287361,20.848182 40.5,20.456946 40.5,20 C 40.5,19.166962 39.826406,18.46875 39,18.46875 z " style="fill:url(#radialGradient3088);fill-opacity:1.0;stroke:#729fcf;stroke-width:1;stroke-linecap:round;stroke-linejoin:miter;stroke-miterlimit:4;stroke-dasharray:none;stroke-dashoffset:1.20000057;stroke-opacity:1"/>
      <path d="M 39,19.46875 C 38.732027,19.46875 38.5,19.701415 38.5,20 C 38.5,20.009977 38.471465,20.005679 38.53125,20.15625 C 38.654762,20.446285 38.633,20.777769 38.472629,21.049167 C 38.312257,21.320565 38.032389,21.499532 37.71875,21.53125 C 36.566823,21.654028 35.650482,22.51565 35.5,23.65625 C 35.438393,24.094196 35.094196,24.438393 34.65625,24.5 C 33.775377,24.616786 33.068305,25.187532 32.71875,25.96875 C 32.572931,26.278571 32.277574,26.491228 31.9375,26.53125 C 31.772462,26.5544 31.611174,26.596905 31.40625,26.65625 C 30.975455,26.781767 30.51406,26.602336 30.28125,26.21875 C 30.009886,25.767027 29.553778,25.5 29,25.5 C 28.230866,25.5 27.602761,26.044494 27.5,26.78125 C 27.465813,27.062439 27.312996,27.315581 27.080103,27.476815 C 26.847209,27.638049 26.556477,27.691979 26.28125,27.625 C 25.994853,27.548742 25.729006,27.5 25.5,27.5 C 24.508759,27.5 23.645666,27.954205 23.09375,28.6875 C 22.762807,29.11376 22.15174,29.197088 21.71875,28.875 C 21.394432,28.630408 20.964657,28.5 20.5,28.5 C 19.785164,28.5 19.206147,28.843256 18.84375,29.40625 C 18.689557,29.654462 18.43373,29.822023 18.144582,29.86419 C 17.855434,29.906358 17.562409,29.818838 17.34375,29.625 C 17.232196,29.524958 17.08881,29.46875 17,29.46875 C 16.732027,29.46875 16.5,29.701415 16.5,30 C 16.5,30.298584 16.707032,30.5 17,30.5 C 17.059414,30.5 17.144167,30.473743 17.21875,30.4375 C 17.481881,30.313879 17.786008,30.311967 18.050673,30.432269 C 18.315338,30.552571 18.513871,30.782966 18.59375,31.0625 C 18.84495,31.89873 19.597701,32.5 20.5,32.5 C 20.939017,32.500001 21.37299,32.35557 21.71875,32.09375 C 22.15174,31.771662 22.762807,31.85499 23.09375,32.28125 C 23.65097,33.03082 24.508384,33.5 25.5,33.5 C 26.339336,33.5 27.067744,33.163599 27.625,32.59375 C 27.831457,32.379109 28.123459,32.268636 28.420289,32.292867 C 28.717119,32.317098 28.987337,32.473467 29.15625,32.71875 C 29.877081,33.785429 31.115504,34.5 32.5,34.5 C 33.687212,34.500001 34.720292,33.970744 35.46875,33.125 C 35.651622,32.923894 35.909036,32.806682 36.180791,32.800774 C 36.452546,32.794866 36.714811,32.900782 36.90625,33.09375 C 37.16638,33.35388 37.565045,33.5 38,33.5 C 38.615957,33.499999 39.139125,33.142804 39.375,32.625 C 39.486553,32.364631 39.704136,32.164404 39.97286,32.074829 C 40.241583,31.985255 40.535787,32.014887 40.78125,32.15625 C 41.157071,32.368438 41.572894,32.5 42,32.5 C 42.73953,32.5 43.375621,32.183385 43.84375,31.65625 C 44.148949,31.30746 44.655052,31.216621 45.0625,31.4375 C 45.196127,31.506733 45.330427,31.53125 45.5,31.53125 C 46.040243,31.53125 46.5,31.066412 46.5,30.5 C 46.500001,29.933591 46.059063,29.5 45.5,29.5 C 45.579266,29.5 45.512058,29.493222 45.3125,29.53125 C 44.861622,29.619831 44.408956,29.387031 44.21875,28.96875 C 43.950911,28.389368 43.533658,27.957818 42.96875,27.71875 C 42.492972,27.520459 42.248469,26.990703 42.40625,26.5 C 42.476577,26.297486 42.5,26.135918 42.5,26 C 42.5,25.254196 41.960118,24.659145 41.25,24.53125 C 40.836437,24.445136 40.522844,24.106456 40.46875,23.6875 C 40.378624,22.955504 39.979148,22.336926 39.40625,21.9375 C 39.153922,21.764448 38.995619,21.484594 38.977294,21.179175 C 38.958969,20.873755 39.082674,20.576982 39.3125,20.375 C 39.446844,20.258279 39.5,20.149369 39.5,20 C 39.5,19.701415 39.267975,19.46875 39,19.46875 z " id="path3094" style="fill:none;fill-opacity:1;stroke:white;stroke-width:1;stroke-linecap:round;stroke-linejoin:miter;stroke-miterlimit:4;stroke-dasharray:none;stroke-dashoffset:1.20000057;stroke-opacity:1" inkscape:original="M 39 18.46875 C 38.173595 18.46875 37.5 19.166962 37.5 20 C 37.5 20.197846 37.556235 20.358064 37.625 20.53125 C 36.026411 20.701636 34.741539 21.937334 34.53125 23.53125 C 33.308684 23.693337 32.298651 24.476006 31.8125 25.5625 C 31.576112 25.595658 31.349609 25.653704 31.125 25.71875 C 30.687793 24.990958 29.91027 24.5 29 24.5 C 27.738095 24.5 26.700779 25.440798 26.53125 26.65625 C 26.202337 26.568672 25.856372 26.5 25.5 26.5 C 24.19328 26.5 23.042608 27.123703 22.3125 28.09375 C 21.811275 27.71574 21.175693 27.5 20.5 27.5 C 19.443006 27.5 18.532871 28.047171 18 28.875 C 17.735501 28.637795 17.381605 28.46875 17 28.46875 C 16.173595 28.46875 15.5 29.166962 15.5 30 C 15.5 30.833037 16.173594 31.5 17 31.5 C 17.232427 31.5 17.459913 31.43916 17.65625 31.34375 C 18.026664 32.576835 19.146791 33.5 20.5 33.5 C 21.177794 33.500001 21.810481 33.255144 22.3125 32.875 C 23.041696 33.855912 24.184715 34.5 25.5 34.5 C 26.620181 34.5 27.617384 34.024031 28.34375 33.28125 C 29.24258 34.61133 30.774997 35.5 32.5 35.5 C 33.990289 35.500001 35.302456 34.816645 36.21875 33.78125 C 36.67125 34.23375 37.31 34.5 38 34.5 C 39.011116 34.499999 39.88756 33.895497 40.28125 33.03125 C 40.787002 33.316797 41.378164 33.5 42 33.5 C 43.037532 33.5 43.954595 33.032217 44.59375 32.3125 C 44.865856 32.453479 45.173155 32.53125 45.5 32.53125 C 46.597553 32.531251 47.5 31.605816 47.5 30.5 C 47.500001 29.394185 46.597553 28.5 45.5 28.5 C 45.373115 28.5 45.245301 28.539575 45.125 28.5625 C 44.761543 27.77628 44.14348 27.150944 43.34375 26.8125 C 43.433344 26.554504 43.5 26.288584 43.5 26 C 43.5 24.770719 42.60081 23.772017 41.4375 23.5625 C 41.312758 22.54936 40.764951 21.680113 39.96875 21.125 C 40.287361 20.848182 40.5 20.456946 40.5 20 C 40.5 19.166962 39.826406 18.46875 39 18.46875 z " inkscape:radius="-0.99144125" sodipodi:type="inkscape:offset"/>
    </g>
  </g>
</svg>
