<?xml version="1.0" encoding="UTF-8" standalone="no"?>
<!-- Created with Inkscape (http://www.inkscape.org/) -->
<svg xmlns:dc="http://purl.org/dc/elements/1.1/" xmlns:cc="http://web.resource.org/cc/" xmlns:rdf="http://www.w3.org/1999/02/22-rdf-syntax-ns#" xmlns:svg="http://www.w3.org/2000/svg" xmlns="http://www.w3.org/2000/svg" xmlns:xlink="http://www.w3.org/1999/xlink" xmlns:sodipodi="http://sodipodi.sourceforge.net/DTD/sodipodi-0.dtd" xmlns:inkscape="http://www.inkscape.org/namespaces/inkscape" id="svg1" sodipodi:version="0.32" inkscape:version="0.44" width="48" height="48" sodipodi:docbase="/home/lapo/Icone/cvs/gnome-icon-theme/scalable/emblems" sodipodi:docname="emblem-favorite.svg" version="1.0" inkscape:output_extension="org.inkscape.output.svg.inkscape">
  <defs id="defs3">
    <linearGradient inkscape:collect="always" id="linearGradient2790">
      <stop style="stop-color:black;stop-opacity:1;" offset="0" id="stop2792"/>
      <stop style="stop-color:black;stop-opacity:0;" offset="1" id="stop2794"/>
    </linearGradient>
    <linearGradient inkscape:collect="always" id="linearGradient2780">
      <stop style="stop-color:white;stop-opacity:1;" offset="0" id="stop2782"/>
      <stop style="stop-color:white;stop-opacity:0;" offset="1" id="stop2784"/>
    </linearGradient>
    <linearGradient id="linearGradient6621">
      <stop style="stop-color:#f5a108;stop-opacity:0.0000000;" offset="0.0000000" id="stop6622"/>
      <stop style="stop-color:#fefdc3;stop-opacity:0.74251497;" offset="1.0000000" id="stop6623"/>
    </linearGradient>
    <linearGradient inkscape:collect="always" xlink:href="#linearGradient6621" id="linearGradient7881" x1="22.819513" y1="28.829224" x2="12.849945" y2="12.239423" gradientTransform="matrix(1.059395,0,0,0.544945,1.249822,2.738696)" gradientUnits="userSpaceOnUse"/>
    <linearGradient inkscape:collect="always" xlink:href="#linearGradient6621" id="linearGradient1697" x1="11.464835" y1="20.415981" x2="6.3578372" y2="6.1003184" gradientTransform="matrix(1.996051,0,0,1.070808,0.902744,-1.06494)" gradientUnits="userSpaceOnUse"/>
    <linearGradient inkscape:collect="always" xlink:href="#linearGradient6621" id="linearGradient121" gradientUnits="userSpaceOnUse" gradientTransform="matrix(2.174132,0,0,1.166342,-1.102204,-2.607882)" x1="18.711395" y1="34.807064" x2="11.413211" y2="31.452499"/>
    <linearGradient inkscape:collect="always" xlink:href="#linearGradient2780" id="linearGradient2786" x1="22.686586" y1="16.672918" x2="42.437912" y2="52.172916" gradientUnits="userSpaceOnUse"/>
    <radialGradient inkscape:collect="always" xlink:href="#linearGradient2790" id="radialGradient2796" cx="24.375" cy="37.75" fx="24.375" fy="37.75" r="17.375" gradientTransform="matrix(1,0,0,0.352518,0,24.44245)" gradientUnits="userSpaceOnUse"/>
  </defs>
  <path sodipodi:type="arc" style="opacity:0.42783502;color:black;fill:url(#radialGradient2796);fill-opacity:1;fill-rule:nonzero;stroke:none;stroke-width:1;stroke-linecap:butt;stroke-linejoin:miter;marker:none;marker-start:none;marker-mid:none;marker-end:none;stroke-miterlimit:4;stroke-dasharray:none;stroke-dashoffset:0;stroke-opacity:1;visibility:visible;display:inline;overflow:visible" id="path2788" sodipodi:cx="24.375" sodipodi:cy="37.75" sodipodi:rx="17.375" sodipodi:ry="6.125" d="M 41.75 37.75 A 17.375 6.125 0 1 1  7,37.75 A 17.375 6.125 0 1 1  41.75 37.75 z" transform="matrix(1,0,0,1.255102,0,-11.1926)"/>
  <path style="fill:#d4572d;fill-opacity:1;fill-rule:evenodd;stroke:none;stroke-width:1pt;stroke-linecap:butt;stroke-linejoin:miter;stroke-opacity:1" d="M 21.976188,38.81239 C 22.040597,38.715893 23.091289,40.055644 23.091289,40.055644 C 27.698215,35.045148 39.456811,25.683277 42.664501,17.875469 C 36.177606,25.067028 25.578821,36.636704 21.976188,38.81239 z " id="path5378" sodipodi:nodetypes="cccc"/>
  <path style="fill:url(#linearGradient7881);fill-opacity:1;fill-rule:evenodd;stroke:none;stroke-width:1pt;stroke-linecap:butt;stroke-linejoin:miter;stroke-opacity:1" d="M 14.037441,6.57951 C 8.6695505,6.3154034 6.1688035,9.762296 4.8160932,13.041288 C 3.4736979,17.359293 5.3712796,25.514988 14.670328,24.894537 C 19.974458,24.894537 22.082661,19.457349 24.874197,18.045886 C 27.411181,17.087036 27.610852,17.001219 30.291215,17.001219 C 34.016085,17.001219 40.752069,14.306632 40.752071,11.632973 C 39.607133,9.487524 36.567476,5.6668116 30.981913,6.3180075 C 27.426476,6.7316401 24.06282,9.272036 23.184185,10.536145 C 21.031824,8.638529 18.283585,6.57951 14.037441,6.57951 z " id="path7876" sodipodi:nodetypes="ccccccccc"/>
  <path style="fill:#c71807;fill-opacity:1;fill-rule:evenodd;stroke:#a40000;stroke-width:0.99999988;stroke-linecap:butt;stroke-linejoin:miter;stroke-miterlimit:4;stroke-dasharray:none;stroke-opacity:1" d="M 23.836561,8.277913 C 33.125234,-1.0068895 45.890047,7.5509517 45.806082,16.356414 C 45.729323,24.406138 39.591726,28.261251 24.172423,42.579301 C 8.0330559,29.259417 2.346578,26.187802 2.4305434,16.637074 C 2.5145087,6.7506217 13.442265,-0.6692067 23.836561,8.277913 z " id="path920" sodipodi:nodetypes="czczc"/>
  <path style="color:black;fill:url(#linearGradient121);fill-opacity:1;fill-rule:evenodd;stroke:none;stroke-width:1pt;stroke-linecap:butt;stroke-linejoin:miter;marker:none;marker-start:none;marker-mid:none;marker-end:none;stroke-miterlimit:4;stroke-dashoffset:0;stroke-opacity:1;visibility:visible;display:inline;overflow:visible;opacity:0.42783505" d="M 22.6479,39.178611 C 22.712194,39.082279 24.117293,40.301 24.117293,40.301 C 39.403252,26.397065 43.304223,23.69843 43.656451,18.159425 C 41.218171,23.676733 38.118762,25.374551 22.6479,39.178611 z " id="path921" sodipodi:nodetypes="cccc"/>
  <path style="fill:url(#linearGradient1697);fill-opacity:1;fill-rule:evenodd;stroke:none;stroke-width:1pt;stroke-linecap:butt;stroke-linejoin:miter;stroke-opacity:1" d="M 13.895669,6.9800034 C 8.1626319,6.9800034 5.0901634,12.680144 5.1115497,16.315556 C 5.1315858,19.721168 5.1869266,21.039867 7.7146345,24.56199 C 10.316652,28.187658 20.881766,22.407873 24.262186,18.801984 C 27.68564,15.150188 38.532606,15.911472 42.024487,12.203078 C 40.056808,9.7237229 37.887368,6.9590872 32.875572,6.9590872 C 27.892126,6.9590872 25.363722,10.3386 23.829402,11.728314 C 22.091684,10.042389 19.57203,6.9800034 13.895669,6.9800034 z " id="path922" sodipodi:nodetypes="czzzczcz"/>
  <path sodipodi:type="inkscape:offset" inkscape:radius="-1.1214175" inkscape:original="M 12.53125 4.375 C 6.7847092 5.233349 2.4899783 10.445968 2.4375 16.625 C 2.3535346 26.175728 8.0481335 29.273867 24.1875 42.59375 C 39.606803 28.2757 45.735739 24.393473 45.8125 16.34375 C 45.896465 7.5382877 33.132423 -1.0035526 23.84375 8.28125 C 19.945889 4.9260801 15.979174 3.8599906 12.53125 4.375 z " xlink:href="#path920" style="fill:none;fill-opacity:1;fill-rule:evenodd;stroke:url(#linearGradient2786);stroke-width:1;stroke-linecap:butt;stroke-linejoin:miter;stroke-miterlimit:4;stroke-dasharray:none;stroke-opacity:1;opacity:0.25257732" id="path2778" inkscape:href="#path920" d="M 15.125,5.40625 C 14.292459,5.3349802 13.4625,5.3529898 12.6875,5.46875 C 7.5162907,6.2411629 3.6106111,10.960183 3.5625,16.625 C 3.5224859,21.176443 4.7189028,23.929355 8.03125,27.4375 C 11.223523,30.818473 16.545751,34.868899 24.15625,41.125 C 31.439147,34.391508 36.678272,29.882267 39.9375,26.34375 C 43.319722,22.671698 44.651817,20.085759 44.6875,16.34375 C 44.724283,12.486256 41.828568,8.43623 37.84375,6.53125 C 33.858932,4.62627 28.96608,4.7232287 24.625,9.0625 C 24.214729,9.4642636 23.567271,9.491241 23.125,9.125 C 20.348667,6.7352099 17.622622,5.6200595 15.125,5.40625 z "/>
</svg>
