<?xml version="1.0" encoding="UTF-8" standalone="no"?>
<!-- Created with Inkscape (http://www.inkscape.org/) -->
<svg xmlns:dc="http://purl.org/dc/elements/1.1/" xmlns:cc="http://web.resource.org/cc/" xmlns:rdf="http://www.w3.org/1999/02/22-rdf-syntax-ns#" xmlns:svg="http://www.w3.org/2000/svg" xmlns="http://www.w3.org/2000/svg" xmlns:xlink="http://www.w3.org/1999/xlink" xmlns:sodipodi="http://sodipodi.sourceforge.net/DTD/sodipodi-0.dtd" xmlns:inkscape="http://www.inkscape.org/namespaces/inkscape" width="48" height="48" id="svg2" sodipodi:version="0.32" inkscape:version="0.45" sodipodi:docbase="/home/jimmac/src/cvs/gnome/gnome-icon-theme/scalable/devices" sodipodi:docname="input-tablet.svg" version="1.0" inkscape:output_extension="org.inkscape.output.svg.inkscape" inkscape:export-filename="/home/needcoffee/Desktop/grafiktablet48.png" inkscape:export-xdpi="90" inkscape:export-ydpi="90">
  <defs id="defs4">
    <linearGradient id="linearGradient5717">
      <stop style="stop-color:#ffffff;stop-opacity:1;" offset="0" id="stop5719"/>
      <stop style="stop-color:#d3d7cf;stop-opacity:1;" offset="1" id="stop5721"/>
    </linearGradient>
    <linearGradient id="linearGradient49731">
      <stop style="stop-color:#888a85;stop-opacity:0;" offset="0" id="stop49733"/>
      <stop id="stop51687" offset="1" style="stop-color:#888a85;stop-opacity:1;"/>
      <stop style="stop-color:#888a85;stop-opacity:1;" offset="1" id="stop49735"/>
    </linearGradient>
    <linearGradient id="linearGradient23236">
      <stop style="stop-color:#ffffff;stop-opacity:1;" offset="0" id="stop23238"/>
      <stop style="stop-color:#babdb6;stop-opacity:1;" offset="1" id="stop23240"/>
    </linearGradient>
    <linearGradient id="linearGradient16397">
      <stop style="stop-color:#888a85;stop-opacity:1;" offset="0" id="stop16399"/>
      <stop style="stop-color:#4a4b48;stop-opacity:1;" offset="1" id="stop16401"/>
    </linearGradient>
    <linearGradient id="linearGradient9508">
      <stop style="stop-color:#2e3436;stop-opacity:0.58152175;" offset="0" id="stop9510"/>
      <stop style="stop-color:#2e3436;stop-opacity:0;" offset="1" id="stop9512"/>
    </linearGradient>
    <linearGradient id="linearGradient4625">
      <stop style="stop-color:#eeeeec;stop-opacity:1;" offset="0" id="stop4627"/>
      <stop style="stop-color:#888a85;stop-opacity:1;" offset="1" id="stop4629"/>
    </linearGradient>
    <linearGradient id="linearGradient3648">
      <stop style="stop-color:#eeeeec;stop-opacity:1;" offset="0" id="stop3650"/>
      <stop id="stop26236" offset="0.79710144" style="stop-color:#abaca9;stop-opacity:1;"/>
      <stop style="stop-color:#d3d7cf;stop-opacity:1;" offset="1" id="stop3652"/>
    </linearGradient>
    <linearGradient inkscape:collect="always" xlink:href="#linearGradient4625" id="linearGradient2855" gradientUnits="userSpaceOnUse" gradientTransform="matrix(0.4305409,-0.5319753,0.4931292,0.4644567,18.912037,27.929845)" x1="1.5" y1="4.2648559" x2="1.5" y2="8"/>
    <linearGradient inkscape:collect="always" xlink:href="#linearGradient16397" id="linearGradient2857" gradientUnits="userSpaceOnUse" gradientTransform="matrix(0.4305409,-0.5319753,0.4931292,0.4644567,18.912037,27.929845)" x1="46.5" y1="4" x2="46.5" y2="8"/>
    <linearGradient inkscape:collect="always" xlink:href="#linearGradient3648" id="linearGradient2859" gradientUnits="userSpaceOnUse" gradientTransform="matrix(0.4305409,-0.5319753,0.4931292,0.4644567,18.912037,27.929845)" x1="24" y1="3.5" x2="24" y2="8.5"/>
    <linearGradient inkscape:collect="always" xlink:href="#linearGradient16397" id="linearGradient2861" gradientUnits="userSpaceOnUse" gradientTransform="matrix(0.4305409,-0.5319753,0.4931292,0.4644567,18.912037,27.929845)" x1="6.5" y1="3" x2="6.5" y2="9"/>
    <radialGradient inkscape:collect="always" xlink:href="#linearGradient23236" id="radialGradient2863" gradientUnits="userSpaceOnUse" gradientTransform="matrix(9.0783702,-4.3797969,0.7439951,1.45288,-269.26407,125.68742)" cx="31.332088" cy="19.154226" fx="31.332088" fy="19.154226" r="4.7440769"/>
    <linearGradient inkscape:collect="always" xlink:href="#linearGradient9508" id="linearGradient2779" gradientUnits="userSpaceOnUse" gradientTransform="matrix(0.9590929,0,0.3214425,-0.7915546,-11.000705,48.187691)" x1="26.32226" y1="19.01865" x2="49.73465" y2="3.5158892"/>
    <linearGradient inkscape:collect="always" xlink:href="#linearGradient23236" id="linearGradient2789" gradientUnits="userSpaceOnUse" gradientTransform="matrix(1.0241628,0,0,0.8416286,-1.542439,7.9398699)" x1="2.4415672" y1="37.205902" x2="2.4415672" y2="43"/>
    <linearGradient inkscape:collect="always" xlink:href="#linearGradient9508" id="linearGradient2793" gradientUnits="userSpaceOnUse" gradientTransform="matrix(1.0372217,0,0,0.779545,-2.1667285,10.874131)" x1="47.56905" y1="44.419655" x2="19.673504" y2="28.191383"/>
    <radialGradient inkscape:collect="always" xlink:href="#linearGradient49731" id="radialGradient2796" gradientUnits="userSpaceOnUse" gradientTransform="matrix(0.1141836,0.6773044,-0.4695753,4.7182095e-3,12.150142,6.6142102)" cx="6.5998492" cy="1.8850985" fx="6.5998492" fy="1.8850985" r="11.58128"/>
    <radialGradient inkscape:collect="always" xlink:href="#linearGradient5717" id="radialGradient5723" cx="7.6711912" cy="15.00725" fx="7.6711912" fy="15.00725" r="19.769346" gradientTransform="matrix(2.4700392,-1.0699269,0.8025708,1.8528194,-23.321333,5.90189)" gradientUnits="userSpaceOnUse"/>
    <linearGradient inkscape:collect="always" xlink:href="#linearGradient4625" id="linearGradient2756" gradientUnits="userSpaceOnUse" gradientTransform="matrix(0.4305409,-0.5319753,0.4931292,0.4644567,18.912037,27.929845)" x1="1.5" y1="4.2648559" x2="1.5" y2="8"/>
    <linearGradient inkscape:collect="always" xlink:href="#linearGradient16397" id="linearGradient2758" gradientUnits="userSpaceOnUse" gradientTransform="matrix(0.4305409,-0.5319753,0.4931292,0.4644567,18.912037,27.929845)" x1="46.5" y1="4" x2="46.5" y2="8"/>
    <linearGradient inkscape:collect="always" xlink:href="#linearGradient3648" id="linearGradient2760" gradientUnits="userSpaceOnUse" gradientTransform="matrix(0.4305409,-0.5319753,0.4931292,0.4644567,18.912037,27.929845)" x1="24" y1="3.5" x2="24" y2="8.5"/>
    <linearGradient inkscape:collect="always" xlink:href="#linearGradient16397" id="linearGradient2762" gradientUnits="userSpaceOnUse" gradientTransform="matrix(0.4305409,-0.5319753,0.4931292,0.4644567,18.912037,27.929845)" x1="6.5" y1="3" x2="6.5" y2="9"/>
    <radialGradient inkscape:collect="always" xlink:href="#linearGradient23236" id="radialGradient2764" gradientUnits="userSpaceOnUse" gradientTransform="matrix(9.0783702,-4.3797969,0.7439951,1.45288,-269.26407,125.68742)" cx="31.332088" cy="19.154226" fx="31.332088" fy="19.154226" r="4.7440769"/>
    <linearGradient inkscape:collect="always" xlink:href="#linearGradient9508" id="linearGradient4652" gradientUnits="userSpaceOnUse" gradientTransform="matrix(0.9557953,0,0.3203373,-0.7915548,-8.926721,48.1877)" x1="26.32226" y1="19.01865" x2="49.73465" y2="3.5158892"/>
    <radialGradient inkscape:collect="always" xlink:href="#linearGradient5717" id="radialGradient4658" gradientUnits="userSpaceOnUse" gradientTransform="matrix(2.4615467,-1.0699271,0.7998114,1.8528198,-21.204988,5.9018902)" cx="7.6711912" cy="15.00725" fx="7.6711912" fy="15.00725" r="19.769346"/>
    <linearGradient inkscape:collect="always" xlink:href="#linearGradient23236" id="linearGradient4661" gradientUnits="userSpaceOnUse" gradientTransform="matrix(1.0206415,0,0,0.8416288,0.4990254,7.9398705)" x1="2.4415672" y1="37.205902" x2="2.4415672" y2="43"/>
    <radialGradient inkscape:collect="always" xlink:href="#linearGradient49731" id="radialGradient4667" gradientUnits="userSpaceOnUse" gradientTransform="matrix(0.113791,0.6773045,-0.4679608,4.7182104e-3,14.144529,6.6142105)" cx="6.5998492" cy="1.8850985" fx="6.5998492" fy="1.8850985" r="11.58128"/>
    <filter inkscape:collect="always" x="-0.066309785" width="1.1326196" y="-0.16209375" height="1.3241875" id="filter5658">
      <feGaussianBlur inkscape:collect="always" stdDeviation="1.3985314" id="feGaussianBlur5660"/>
    </filter>
  </defs>
  <g inkscape:label="Ebene 1" inkscape:groupmode="layer" id="layer1">
    <path style="fill:none;fill-rule:evenodd;stroke:url(#radialGradient4667);stroke-width:0.99999994px;stroke-linecap:round;stroke-linejoin:round;stroke-opacity:1" d="M 13.91719,11.500001 C 11.738325,13.671032 28.288808,15.425275 29.441611,16.927577 C 32.396831,20.778743 13.808426,19.231703 10.240354,21.196732 C 5.5555129,23.067939 16.91313,22.897913 16.913132,26.522237" id="path46799" sodipodi:nodetypes="cscc"/>
    <path style="opacity:0.27058824;fill:#000000;fill-opacity:1;stroke:none;stroke-width:1;stroke-linecap:round;stroke-linejoin:round;stroke-miterlimit:4;stroke-dasharray:none;stroke-dashoffset:0;stroke-opacity:1;filter:url(#filter5658)" d="M 12.19393,28.500083 L 38.34636,28.500083 C 38.34636,28.500083 39.190322,28.471214 39.657664,29.48902 C 39.657664,29.48902 45.712165,43.506932 46.067164,44.310111 C 46.403002,45.069941 45.212186,45.755834 44.150175,45.755834 L 5.9180739,45.755834 C 4.8560623,45.755834 3.6652479,45.069941 4.0010855,44.310111 C 4.3560832,43.506932 10.882627,29.48902 10.882627,29.48902 C 11.194189,28.588698 12.19393,28.500083 12.19393,28.500083 z " id="path8537" sodipodi:nodetypes="ccccccccc"/>
    <path style="fill:url(#linearGradient4661);fill-opacity:1;stroke:none;stroke-width:1;stroke-linecap:round;stroke-linejoin:round;stroke-miterlimit:4;stroke-dasharray:none;stroke-dashoffset:0;stroke-opacity:1" d="M 12.448317,25.50009 L 37.030206,25.50009 C 37.030206,25.50009 37.823486,25.470418 38.262762,26.516464 C 38.262762,26.516464 44.055001,41.756232 44.386612,42.576578 C 44.700323,43.352646 43.587961,44.053197 42.595917,44.053197 L 6.8826065,44.053197 C 5.8905618,44.053197 4.7782002,43.352646 5.0919123,42.576578 C 5.4235223,41.756232 11.215761,26.516464 11.215761,26.516464 C 11.508612,25.591162 12.448317,25.50009 12.448317,25.50009 z " id="rect2676" sodipodi:nodetypes="ccccccccc"/>
    <path sodipodi:nodetypes="ccccccccc" id="path4736" d="M 12.448317,25.50009 L 37.030206,25.50009 C 37.030206,25.50009 37.823486,25.470418 38.262762,26.516464 C 38.262762,26.516464 44.055001,41.756232 44.386612,42.576578 C 44.700323,43.352646 43.587961,44.053197 42.595917,44.053197 L 6.8826065,44.053197 C 5.8905618,44.053197 4.7782002,43.352646 5.0919123,42.576578 C 5.4235223,41.756232 11.215761,26.516464 11.215761,26.516464 C 11.508612,25.591162 12.448317,25.50009 12.448317,25.50009 z " style="opacity:0.5;fill:url(#radialGradient4658);fill-opacity:1;stroke:none;stroke-width:1;stroke-linecap:round;stroke-linejoin:round;stroke-miterlimit:4;stroke-dasharray:none;stroke-dashoffset:0;stroke-opacity:1"/>
    <path sodipodi:nodetypes="ccccccccc" id="path5604" d="M 13.094744,26.000084 L 36.383778,26.000084 C 36.383778,26.000084 37.135337,25.972453 37.551509,26.94657 C 37.551509,26.94657 42.933566,41.674245 43.245923,42.433775 C 43.245923,42.433775 43.930498,43.500008 42.396914,43.500008 L 7.5172511,43.500008 C 5.3289587,43.500008 6.2325987,42.433775 6.2325987,42.433775 C 6.5449562,41.674245 11.927013,26.94657 11.927013,26.94657 C 12.204462,26.084894 13.094744,26.000084 13.094744,26.000084 z " style="fill:none;fill-opacity:1;stroke:#ffffff;stroke-width:1.19999993;stroke-linecap:round;stroke-linejoin:round;stroke-miterlimit:4;stroke-dasharray:none;stroke-dashoffset:0;stroke-opacity:1"/>
    <path sodipodi:nodetypes="ccccccccc" id="path7556" d="M 12.50006,25.520005 L 36.915824,25.520005 C 36.915824,25.520005 37.823486,25.724022 38.262762,26.755792 C 38.262762,26.755792 44.055001,41.787582 44.386612,42.596733 C 44.700323,43.36221 43.887239,44.500008 42.895195,44.500008 L 6.5206893,44.500008 C 5.5286448,44.500008 4.7782001,43.36221 5.0919123,42.596733 C 5.4235223,41.787582 11.215761,26.755792 11.215761,26.755792 C 11.508612,25.843118 12.50006,25.520005 12.50006,25.520005 z " style="fill:none;fill-opacity:1;stroke:#555753;stroke-width:1.03999984;stroke-linecap:round;stroke-linejoin:round;stroke-miterlimit:4;stroke-dasharray:none;stroke-dashoffset:0;stroke-opacity:1"/>
    <path style="fill:none;fill-opacity:1;stroke:#888a85;stroke-width:0.79999995;stroke-linecap:round;stroke-linejoin:round;stroke-miterlimit:4;stroke-dasharray:none;stroke-dashoffset:0;stroke-opacity:1" d="M 14.493184,28.485226 L 34.42442,28.485226 C 34.42442,28.485226 35.033532,28.471117 35.367676,29.099048 C 35.367675,29.099047 38.979365,37.989263 39.223628,38.466125 C 39.454709,38.917252 38.630464,39.327655 37.899724,39.327655 L 11.587102,39.327655 C 10.856361,39.327655 10.032115,38.917252 10.263196,38.466125 C 10.50746,37.989263 13.549927,29.099048 13.549927,29.099048 C 13.772689,28.543597 14.493184,28.485226 14.493184,28.485226 z " id="path41909" sodipodi:nodetypes="ccssccscc"/>
    <path style="opacity:0.2;fill:url(#linearGradient4652);fill-opacity:1;stroke:none;stroke-width:0.8599999;stroke-linecap:butt;stroke-linejoin:miter;stroke-miterlimit:1;stroke-dasharray:none;stroke-dashoffset:0;stroke-opacity:1" d="M 22.324354,33.133396 L 23.625318,34.852059 L 24.049546,35.377207 L 31.176567,39.244199 L 32.505814,39.626124 L 38.642971,42.681525 L 42.772119,42.681525 C 42.969129,42.515043 43.098578,42.323054 43.139782,42.108637 L 36.210734,38.647441 L 35.645097,38.074553 L 27.697903,34.422394 L 26.425219,34.11208 L 22.324354,33.133396 z " id="path23244"/>
    <g id="g2764" transform="matrix(1.1396241,0,0,1.1157384,-2.2076279,-0.6365627)">
      <path id="rect10493" d="M 40.070139,6.6188883 L 40.510236,6.0751053 C 40.746109,5.7836616 41.153494,5.7538826 41.423655,6.008336 L 41.92773,6.4831016 C 42.197891,6.7375551 42.225496,7.1770315 41.989624,7.4684754 L 41.549527,8.0122584 C 41.313654,8.3037022 40.906269,8.3334811 40.636107,8.0790276 L 40.132033,7.6042621 C 39.861871,7.3498086 39.834266,6.9103321 40.070139,6.6188883 z " style="fill:#888a85;fill-opacity:1;stroke:none;stroke-width:1;stroke-linecap:round;stroke-linejoin:round;stroke-miterlimit:4;stroke-dashoffset:0;stroke-opacity:1"/>
      <path sodipodi:nodetypes="ccccc" id="rect10499" d="M 22.270059,29.686394 L 23.89834,26.063844 L 25.870856,27.921671 L 22.763188,30.150849 L 22.270059,29.686394 z " style="fill:url(#linearGradient2756);fill-opacity:1;stroke:none;stroke-width:1;stroke-linecap:round;stroke-linejoin:round;stroke-miterlimit:4;stroke-dashoffset:0;stroke-opacity:1"/>
      <path style="fill:url(#linearGradient2758);fill-opacity:1;stroke:#babdb6;stroke-width:0.88682508;stroke-linecap:round;stroke-linejoin:round;stroke-miterlimit:4;stroke-dashoffset:0;stroke-opacity:1" d="M 40.070139,6.6188883 L 40.510236,6.0751053 C 40.746109,5.7836616 41.153494,5.7538826 41.423655,6.008336 L 41.92773,6.4831016 C 42.197891,6.7375551 42.225496,7.1770315 41.989624,7.4684754 L 41.549527,8.0122584 C 41.313654,8.3037022 40.906269,8.3334811 40.636107,8.0790276 L 40.132033,7.6042621 C 39.861871,7.3498086 39.834266,6.9103321 40.070139,6.6188883 z " id="path12476"/>
      <path sodipodi:nodetypes="ccccccc" id="rect10487" d="M 33.436616,19.110318 L 40.984536,9.7841254 C 41.574218,9.0555166 41.809727,8.2469255 41.508074,7.9628117 L 40.121147,6.6565272 C 39.819494,6.3724136 39.108572,6.7332326 38.51889,7.4618419 L 30.97097,16.788034 L 33.436616,19.110318 z " style="fill:url(#linearGradient2760);fill-opacity:1;stroke:none;stroke-width:1;stroke-linecap:round;stroke-linejoin:round;stroke-miterlimit:4;stroke-dashoffset:0;stroke-opacity:1"/>
      <path style="fill:none;fill-opacity:1;stroke:#ffffff;stroke-width:0.88682508;stroke-linecap:round;stroke-linejoin:round;stroke-miterlimit:4;stroke-dashoffset:0;stroke-opacity:1" d="M 33.436616,19.110318 L 40.984536,9.7841254 C 41.574218,9.0555166 41.504717,8.5083326 41.203064,8.2242188 L 39.816138,6.9179343 C 39.514485,6.6338207 39.108572,6.7332326 38.51889,7.4618419 L 30.97097,16.788034 L 33.436616,19.110318 z " id="path12478" sodipodi:nodetypes="ccccccc"/>
      <path style="fill:none;fill-opacity:1;stroke:#ffffff;stroke-width:0.88682508;stroke-linecap:round;stroke-linejoin:round;stroke-miterlimit:4;stroke-dashoffset:0;stroke-opacity:1" d="M 22.516623,29.918622 L 23.89834,26.063844 L 25.870856,27.921671 L 22.516623,29.918622 z " id="path12484" sodipodi:nodetypes="cccc"/>
      <path style="fill:url(#linearGradient2762);fill-opacity:1;stroke:none;stroke-width:1;stroke-linecap:round;stroke-linejoin:round;stroke-miterlimit:4;stroke-dashoffset:0;stroke-opacity:1" d="M 23.683069,26.329831 L 25.655586,28.187658 L 26.332691,27.887911 L 33.037369,20.14051 L 33.436616,19.110318 L 30.97097,16.788034 L 30.078594,17.353769 L 23.867045,25.565628 L 23.683069,26.329831 z " id="path10502" sodipodi:nodetypes="ccccccccc"/>
      <path sodipodi:nodetypes="ccccccccc" id="path12482" d="M 23.683069,26.329831 L 25.655586,28.187658 L 26.332691,27.887911 L 33.037369,20.14051 L 33.436616,19.110318 L 30.97097,16.788034 L 30.078594,17.353769 L 23.867045,25.565628 L 23.683069,26.329831 z " style="fill:none;fill-opacity:1;stroke:url(#radialGradient2764);stroke-width:0.88682508;stroke-linecap:round;stroke-linejoin:round;stroke-miterlimit:4;stroke-dashoffset:0;stroke-opacity:1"/>
      <path id="path10496" d="M 22.054788,29.952381 C 21.935958,30.099207 21.949979,30.322407 22.086082,30.450597 C 22.222186,30.578787 22.429088,30.563663 22.547917,30.416838 L 22.978458,29.884862 L 22.485328,29.420406 L 22.054788,29.952381 z " style="color:#000000;fill:#eeeeec;fill-opacity:1;fill-rule:evenodd;stroke:none;stroke-width:1px;stroke-linecap:butt;stroke-linejoin:miter;marker:none;marker-start:none;marker-mid:none;marker-end:none;stroke-miterlimit:4;stroke-dashoffset:0;stroke-opacity:1;visibility:visible;display:inline;overflow:visible;enable-background:accumulate"/>
      <path sodipodi:nodetypes="cccccccccccccccccc" id="path12486" d="M 22.057089,30.486421 L 25.565424,28.679253 L 26.663823,28.164647 L 33.449284,20.454604 L 33.956087,19.154341 L 41.572446,9.7435849 C 42.150022,9.0299337 42.40517,8.1272222 42.10509,7.7373334 L 42.499999,7.2493837 C 42.744281,6.9475499 42.665953,6.4347834 42.326763,6.1153159 L 41.707637,5.5321883 C 41.368448,5.2127208 40.886904,5.1981668 40.642622,5.5000012 C 40.642622,5.5000012 40.400983,5.798569 40.247712,5.9879507 C 39.849116,5.7197876 39.054392,6.1142952 38.476817,6.8279471 L 30.860457,16.238703 L 29.734528,16.955839 L 23.568192,25.249009 L 23.243701,26.492524 L 22.057089,30.486421 z " style="fill:none;fill-opacity:1;stroke:#2e3436;stroke-width:0.76266938;stroke-linecap:butt;stroke-linejoin:miter;stroke-miterlimit:1;stroke-dasharray:none;stroke-dashoffset:0;stroke-opacity:1"/>
    </g>
  </g>
</svg>
