<?xml version="1.0" encoding="UTF-8" standalone="no"?>
<!-- Created with Inkscape (http://www.inkscape.org/) -->
<svg xmlns:dc="http://purl.org/dc/elements/1.1/" xmlns:cc="http://web.resource.org/cc/" xmlns:rdf="http://www.w3.org/1999/02/22-rdf-syntax-ns#" xmlns:svg="http://www.w3.org/2000/svg" xmlns="http://www.w3.org/2000/svg" xmlns:xlink="http://www.w3.org/1999/xlink" xmlns:sodipodi="http://sodipodi.sourceforge.net/DTD/sodipodi-0.dtd" xmlns:inkscape="http://www.inkscape.org/namespaces/inkscape" width="48" height="48" id="svg2" sodipodi:version="0.32" inkscape:version="0.44" version="1.0" sodipodi:docbase="/home/lapo/Icone/cvs/gnome-icon-theme/scalable/devices" sodipodi:docname="media-tape.svg" inkscape:output_extension="org.inkscape.output.svg.inkscape">
  <defs id="defs4">
    <linearGradient inkscape:collect="always" id="linearGradient2870">
      <stop style="stop-color:#3465a4;stop-opacity:1" offset="0" id="stop2872"/>
      <stop style="stop-color:#204a87;stop-opacity:1" offset="1" id="stop2874"/>
    </linearGradient>
    <linearGradient id="linearGradient1970">
      <stop id="stop1972" offset="0" style="stop-color:#204a87;stop-opacity:1"/>
      <stop id="stop1974" offset="1" style="stop-color:#204a87;stop-opacity:0;"/>
    </linearGradient>
    <linearGradient id="linearGradient2975">
      <stop style="stop-color:#d3d7cf;stop-opacity:1" offset="0" id="stop2977"/>
      <stop style="stop-color:white;stop-opacity:1" offset="1" id="stop2979"/>
    </linearGradient>
    <linearGradient inkscape:collect="always" id="linearGradient2966">
      <stop style="stop-color:black;stop-opacity:1;" offset="0" id="stop2968"/>
      <stop style="stop-color:black;stop-opacity:0;" offset="1" id="stop2970"/>
    </linearGradient>
    <linearGradient inkscape:collect="always" id="linearGradient2949">
      <stop style="stop-color:#babdb6;stop-opacity:1" offset="0" id="stop2951"/>
      <stop style="stop-color:#555753;stop-opacity:1" offset="1" id="stop2954"/>
    </linearGradient>
    <linearGradient id="linearGradient2885">
      <stop style="stop-color:black;stop-opacity:0;" offset="0" id="stop2887"/>
      <stop id="stop2893" offset="0.5" style="stop-color:black;stop-opacity:1;"/>
      <stop style="stop-color:black;stop-opacity:0;" offset="1" id="stop2889"/>
    </linearGradient>
    <linearGradient inkscape:collect="always" id="linearGradient2871">
      <stop style="stop-color:black;stop-opacity:1;" offset="0" id="stop2873"/>
      <stop style="stop-color:black;stop-opacity:0;" offset="1" id="stop2875"/>
    </linearGradient>
    <linearGradient inkscape:collect="always" id="linearGradient2851">
      <stop style="stop-color:#204a87;stop-opacity:1;" offset="0" id="stop2853"/>
      <stop style="stop-color:#204a87;stop-opacity:0;" offset="1" id="stop2855"/>
    </linearGradient>
    <linearGradient inkscape:collect="always" id="linearGradient2843">
      <stop style="stop-color:white;stop-opacity:1;" offset="0" id="stop2845"/>
      <stop style="stop-color:white;stop-opacity:0;" offset="1" id="stop2847"/>
    </linearGradient>
    <linearGradient id="linearGradient3061">
      <stop style="stop-color:black;stop-opacity:1;" offset="0" id="stop3063"/>
      <stop id="stop3069" offset="0.5" style="stop-color:#474946;stop-opacity:1;"/>
      <stop style="stop-color:black;stop-opacity:1;" offset="1" id="stop3065"/>
    </linearGradient>
    <linearGradient inkscape:collect="always" id="linearGradient3053">
      <stop style="stop-color:white;stop-opacity:1;" offset="0" id="stop3055"/>
      <stop style="stop-color:white;stop-opacity:0;" offset="1" id="stop3057"/>
    </linearGradient>
    <linearGradient id="linearGradient3009">
      <stop id="stop3011" offset="0" style="stop-color:#3465a4;stop-opacity:1"/>
      <stop id="stop3013" offset="1" style="stop-color:#888a85;stop-opacity:1"/>
    </linearGradient>
    <linearGradient id="linearGradient2972">
      <stop style="stop-color:#3465a4;stop-opacity:1" offset="0" id="stop2974"/>
      <stop style="stop-color:#888a85;stop-opacity:1" offset="1" id="stop2976"/>
    </linearGradient>
    <linearGradient id="linearGradient2951">
      <stop style="stop-color:white;stop-opacity:0;" offset="0" id="stop2953"/>
      <stop id="stop1976" offset="0.2" style="stop-color:white;stop-opacity:1;"/>
      <stop style="stop-color:white;stop-opacity:1;" offset="0.5566265" id="stop1978"/>
      <stop style="stop-color:white;stop-opacity:0;" offset="1" id="stop2955"/>
    </linearGradient>
    <linearGradient id="linearGradient2941">
      <stop style="stop-color:#2e3436;stop-opacity:1" offset="0" id="stop2943"/>
      <stop style="stop-color:#eeeeec;stop-opacity:1" offset="1" id="stop2945"/>
    </linearGradient>
    <linearGradient inkscape:collect="always" id="linearGradient2931">
      <stop style="stop-color:white;stop-opacity:1;" offset="0" id="stop2933"/>
      <stop style="stop-color:white;stop-opacity:0;" offset="1" id="stop2935"/>
    </linearGradient>
    <linearGradient inkscape:collect="always" id="linearGradient2907">
      <stop style="stop-color:#555753;stop-opacity:1" offset="0" id="stop2909"/>
      <stop style="stop-color:#2e3436;stop-opacity:1" offset="1" id="stop2911"/>
    </linearGradient>
    <linearGradient inkscape:collect="always" id="linearGradient2899">
      <stop style="stop-color:#1a1a1a;stop-opacity:1;" offset="0" id="stop2901"/>
      <stop style="stop-color:#555753;stop-opacity:1" offset="1" id="stop2903"/>
    </linearGradient>
    <linearGradient inkscape:collect="always" xlink:href="#linearGradient2899" id="linearGradient2905" x1="90.598061" y1="12.11433" x2="65.869003" y2="10.434952" gradientUnits="userSpaceOnUse" gradientTransform="matrix(0.9984,0,0,1,-49.9128,0)"/>
    <radialGradient inkscape:collect="always" xlink:href="#linearGradient2907" id="radialGradient2913" cx="65.359207" cy="7.6079164" fx="65.359207" fy="7.6079164" r="19.032828" gradientTransform="matrix(1.978344,0,0,0.173638,-107.4175,7.676856)" gradientUnits="userSpaceOnUse"/>
    <linearGradient inkscape:collect="always" xlink:href="#linearGradient2931" id="linearGradient2937" x1="66.75" y1="55.5" x2="52.625" y2="-4.875" gradientUnits="userSpaceOnUse"/>
    <linearGradient inkscape:collect="always" xlink:href="#linearGradient2941" id="linearGradient2947" x1="87.1875" y1="24.746109" x2="87.1875" y2="29.582914" gradientUnits="userSpaceOnUse" gradientTransform="translate(-50,0)"/>
    <linearGradient inkscape:collect="always" xlink:href="#linearGradient1970" id="linearGradient2957" x1="79.3125" y1="20.309416" x2="80.6875" y2="22.875" gradientUnits="userSpaceOnUse" gradientTransform="translate(-50,0)"/>
    <linearGradient inkscape:collect="always" xlink:href="#linearGradient2972" id="linearGradient2985" gradientUnits="userSpaceOnUse" x1="70.216614" y1="8.8990822" x2="75.291542" y2="42.916157" gradientTransform="translate(-50,0)"/>
    <linearGradient inkscape:collect="always" xlink:href="#linearGradient3009" id="linearGradient2988" gradientUnits="userSpaceOnUse" x1="70.216614" y1="8.8990822" x2="75.291542" y2="42.916157" gradientTransform="translate(-50,0)"/>
    <linearGradient inkscape:collect="always" xlink:href="#linearGradient3053" id="linearGradient3059" x1="26.125" y1="25.907301" x2="26.125" y2="21.723757" gradientUnits="userSpaceOnUse"/>
    <linearGradient inkscape:collect="always" xlink:href="#linearGradient3061" id="linearGradient3067" x1="15.904867" y1="28.589727" x2="16.907635" y2="24.847351" gradientUnits="userSpaceOnUse"/>
    <linearGradient inkscape:collect="always" xlink:href="#linearGradient2843" id="linearGradient2849" x1="23.069899" y1="30.631689" x2="6.980577" y2="30.631689" gradientUnits="userSpaceOnUse"/>
    <linearGradient inkscape:collect="always" xlink:href="#linearGradient2851" id="linearGradient2857" x1="23" y1="23.5" x2="46.880234" y2="23.5" gradientUnits="userSpaceOnUse"/>
    <radialGradient inkscape:collect="always" xlink:href="#linearGradient2871" id="radialGradient2900" gradientUnits="userSpaceOnUse" gradientTransform="matrix(2,0,0,2,-10,-108)" cx="2" cy="36" fx="2" fy="36" r="2"/>
    <radialGradient inkscape:collect="always" xlink:href="#linearGradient2871" id="radialGradient2902" gradientUnits="userSpaceOnUse" gradientTransform="matrix(2,0,0,2,38,-36)" cx="2" cy="36" fx="2" fy="36" r="2"/>
    <linearGradient inkscape:collect="always" xlink:href="#linearGradient2885" id="linearGradient2904" gradientUnits="userSpaceOnUse" x1="14.0625" y1="32" x2="14.0625" y2="40.001007"/>
    <linearGradient inkscape:collect="always" xlink:href="#linearGradient2949" id="linearGradient2956" x1="16.4375" y1="28.703588" x2="16.4375" y2="25.648201" gradientUnits="userSpaceOnUse"/>
    <linearGradient inkscape:collect="always" xlink:href="#linearGradient2966" id="linearGradient2973" x1="17.9375" y1="29.124975" x2="17.4375" y2="25.249989" gradientUnits="userSpaceOnUse"/>
    <linearGradient inkscape:collect="always" xlink:href="#linearGradient2975" id="linearGradient2981" x1="17.0625" y1="25.373756" x2="17.0625" y2="28.593903" gradientUnits="userSpaceOnUse"/>
    <linearGradient inkscape:collect="always" xlink:href="#linearGradient2951" id="linearGradient1968" gradientUnits="userSpaceOnUse" x1="83.8125" y1="19.496916" x2="86.3125" y2="36" gradientTransform="translate(-50,0)"/>
    <linearGradient inkscape:collect="always" xlink:href="#linearGradient2870" id="linearGradient2876" x1="35.1875" y1="42.312241" x2="32.8125" y2="22.157804" gradientUnits="userSpaceOnUse"/>
  </defs>
  <g inkscape:label="Livello 1" inkscape:groupmode="layer" id="layer1">
    <path style="opacity:1;color:black;fill:url(#linearGradient2905);fill-opacity:1;fill-rule:nonzero;stroke:black;stroke-width:1.00000024;stroke-linecap:round;stroke-linejoin:round;marker:none;marker-start:none;marker-mid:none;marker-end:none;stroke-miterlimit:4;stroke-dasharray:none;stroke-dashoffset:1.20000057;stroke-opacity:1;visibility:visible;display:inline;overflow:visible" d="M 6.4968,7.5 L 4.5,9.5 L 4.5,25 L 43.5,25 L 43.5,9.5 L 43.4376,9.5 L 41.4408,7.5 L 6.4968,7.5 z " id="rect2853"/>
    <path style="opacity:1;color:black;fill:url(#radialGradient2913);fill-opacity:1;fill-rule:nonzero;stroke:none;stroke-width:1.00000024;stroke-linecap:round;stroke-linejoin:round;marker:none;marker-start:none;marker-mid:none;marker-end:none;stroke-miterlimit:4;stroke-dasharray:none;stroke-dashoffset:1.20000057;stroke-opacity:1;visibility:visible;display:inline;overflow:visible" d="M 6.616789,7.9946858 L 4.998544,9.7052704 L 5.005131,10.001073 L 43.058594,10 L 43.0642,9.7734375 L 41.39985,8 L 6.616789,7.9946858 z " id="path2862" sodipodi:nodetypes="ccccccc"/>
    <path sodipodi:type="inkscape:offset" inkscape:radius="-0.96875" inkscape:original="M 56.5 7.5 L 54.5 9.5 L 54.5 25 L 93.5625 25 L 93.5625 9.5 L 93.5 9.5 L 91.5 7.5 L 56.5 7.5 z " style="opacity:0.1;color:black;fill:none;fill-opacity:1;fill-rule:nonzero;stroke:white;stroke-width:1.00000024;stroke-linecap:round;stroke-linejoin:round;marker:none;marker-start:none;marker-mid:none;marker-end:none;stroke-miterlimit:4;stroke-dasharray:none;stroke-dashoffset:1.20000057;stroke-opacity:1;visibility:visible;display:inline;overflow:visible" id="path2919" d="M 56.90625,8.46875 L 55.46875,9.90625 L 55.46875,24.03125 L 92.59375,24.03125 L 92.59375,9.96875 L 91.09375,8.46875 L 56.90625,8.46875 z " transform="translate(-50,0)"/>
    <g id="g2895" style="opacity:0.7" transform="translate(0,-0.5)">
      <rect transform="scale(-1,-1)" ry="0.33333334" rx="0.25" y="-40" x="-6" height="8" width="4" id="rect2869" style="opacity:1;fill:url(#radialGradient2900);fill-opacity:1;stroke:none;stroke-width:1;stroke-linecap:square;stroke-linejoin:round;stroke-miterlimit:4;stroke-dasharray:none;stroke-dashoffset:1.20000057;stroke-opacity:1"/>
      <rect ry="0.33333334" rx="0.25" y="32" x="42" height="8" width="4" id="rect2879" style="opacity:1;fill:url(#radialGradient2902);fill-opacity:1;stroke:none;stroke-width:1;stroke-linecap:square;stroke-linejoin:round;stroke-miterlimit:4;stroke-dasharray:none;stroke-dashoffset:1.20000057;stroke-opacity:1"/>
      <rect y="32" x="6" height="8" width="36" id="rect2883" style="opacity:1;fill:url(#linearGradient2904);fill-opacity:1;stroke:none;stroke-width:1;stroke-linecap:square;stroke-linejoin:round;stroke-miterlimit:4;stroke-dasharray:none;stroke-dashoffset:1.20000057;stroke-opacity:1"/>
    </g>
    <path style="color:black;fill:url(#linearGradient2988);fill-opacity:1.0;fill-rule:nonzero;stroke:url(#linearGradient2876);stroke-width:1.00000072;stroke-linecap:round;stroke-linejoin:round;marker:none;marker-start:none;marker-mid:none;marker-end:none;stroke-miterlimit:4;stroke-dasharray:none;stroke-dashoffset:1.20000057;stroke-opacity:1;visibility:visible;display:inline;overflow:visible" d="M 6.5,11.5 L 6.5,16.5 L 4.5,16.5 L 4.5,36.46875 C 4.5,37.034799 4.9652,37.500001 5.53125,37.5 L 42.46875,37.5 C 43.0348,37.5 43.500002,37.034798 43.5,36.46875 L 43.5,16.5 L 42.5,16.5 L 42.5,11.5 C 42.489734,11.499692 42.479085,11.5 42.46875,11.5 L 6.5,11.5 z " id="rect1879"/>
    <path style="opacity:0.6;color:black;fill:none;fill-opacity:1;fill-rule:nonzero;stroke:url(#linearGradient2957);stroke-width:0.9999997;stroke-linecap:round;stroke-linejoin:round;marker:none;marker-start:none;marker-mid:none;marker-end:none;stroke-miterlimit:4;stroke-dashoffset:1.20000057;stroke-opacity:1;visibility:visible;display:inline;overflow:visible" d="M 8.5,35.5 L 8.5,17.500006 L 40.499973,17.500006 L 40.499973,35.5" id="rect2774" sodipodi:nodetypes="cccc"/>
    <rect style="opacity:1;color:black;fill:url(#linearGradient2947);fill-opacity:1;fill-rule:nonzero;stroke:none;stroke-width:0.99999976;stroke-linecap:round;stroke-linejoin:round;marker:none;marker-start:none;marker-mid:none;marker-end:none;stroke-miterlimit:4;stroke-dasharray:none;stroke-dashoffset:1.20000057;stroke-opacity:1;visibility:visible;display:inline;overflow:visible" id="rect2776" width="31.000013" height="6.0000124" x="8.9999847" y="24"/>
    <path style="opacity:1;color:black;fill:url(#linearGradient3067);fill-opacity:1.0;fill-rule:nonzero;stroke:none;stroke-width:0.94752491;stroke-linecap:round;stroke-linejoin:round;marker:none;marker-start:none;marker-mid:none;marker-end:none;stroke-miterlimit:4;stroke-dasharray:none;stroke-dashoffset:1.20000057;stroke-opacity:1;visibility:visible;display:inline;overflow:visible" d="M 9,24 L 9,30 L 25.34375,30 C 25.764262,28.994106 26.000001,27.895117 26,26.75 C 26,25.79336 25.829472,24.863923 25.53125,24 L 9,24 z " id="path2827"/>
    <path sodipodi:type="arc" style="opacity:1;color:black;fill:white;fill-opacity:1;fill-rule:nonzero;stroke:#d3d7cf;stroke-width:0.94752491;stroke-linecap:round;stroke-linejoin:round;marker:none;marker-start:none;marker-mid:none;marker-end:none;stroke-miterlimit:4;stroke-dasharray:none;stroke-dashoffset:1.20000057;stroke-opacity:1;visibility:visible;display:inline;overflow:visible" id="path2778" sodipodi:cx="32.109375" sodipodi:cy="27.046875" sodipodi:rx="3.796875" sodipodi:ry="3.546875" d="M 35.90625 27.046875 A 3.796875 3.546875 0 1 1  28.3125,27.046875 A 3.796875 3.546875 0 1 1  35.90625 27.046875 z" transform="matrix(1.053505,0,0,1.057278,-1.32736,-1.846054)"/>
    <path sodipodi:type="arc" style="opacity:1;color:black;fill:white;fill-opacity:1;fill-rule:nonzero;stroke:#d3d7cf;stroke-width:0.94752491;stroke-linecap:round;stroke-linejoin:round;marker:none;marker-start:none;marker-mid:none;marker-end:none;stroke-miterlimit:4;stroke-dasharray:none;stroke-dashoffset:1.20000057;stroke-opacity:1;visibility:visible;display:inline;overflow:visible" id="path2815" sodipodi:cx="32.109375" sodipodi:cy="27.046875" sodipodi:rx="3.796875" sodipodi:ry="3.546875" d="M 35.90625 27.046875 A 3.796875 3.546875 0 1 1  28.3125,27.046875 A 3.796875 3.546875 0 1 1  35.90625 27.046875 z" transform="matrix(1.053505,0,0,1.057278,-17.32736,-1.846054)"/>
    <path style="color:black;fill:url(#linearGradient2985);fill-opacity:1;fill-rule:nonzero;stroke:none;stroke-width:0.99999982;stroke-linecap:round;stroke-linejoin:round;marker:none;marker-start:none;marker-mid:none;marker-end:none;stroke-miterlimit:4;stroke-dasharray:none;stroke-dashoffset:1.20000057;stroke-opacity:1;visibility:visible;display:inline;overflow:visible" d="M 9,18 L 9,24 L 40,24 L 40,18 L 9,18 z M 9,30 L 9,37 L 40,37 L 40,30 L 9,30 z " id="rect2829"/>
    <path sodipodi:type="inkscape:offset" inkscape:radius="-1" inkscape:original="M 56.5 11.5 L 56.5 16.5 L 54.5 16.5 L 54.5 36.46875 C 54.5 37.034799 54.9652 37.500001 55.53125 37.5 L 92.46875 37.5 C 93.0348 37.5 93.500002 37.034798 93.5 36.46875 L 93.5 16.5 L 92.5 16.5 L 92.5 11.5 C 92.489734 11.499692 92.479085 11.5 92.46875 11.5 L 56.5 11.5 z " style="opacity:0.15;color:black;fill:none;fill-opacity:1;fill-rule:nonzero;stroke:url(#linearGradient2937);stroke-width:1;stroke-linecap:round;stroke-linejoin:miter;marker:none;marker-start:none;marker-mid:none;marker-end:none;stroke-miterlimit:4;stroke-dasharray:none;stroke-dashoffset:1.20000057;stroke-opacity:1;visibility:visible;display:inline;overflow:visible" id="path2838" d="M 57.5,12.5 L 57.5,16.5 C 57.499945,17.052262 57.052262,17.499945 56.5,17.5 L 55.5,17.5 L 55.5,36.46875 C 55.5,36.486908 55.513094,36.5 55.53125,36.5 L 92.46875,36.5 C 92.486907,36.5 92.5,36.486901 92.5,36.46875 L 92.5,17.5 C 91.947738,17.499945 91.500055,17.052262 91.5,16.5 L 91.5,12.5 L 57.5,12.5 z " transform="translate(-50,0)"/>
    <path style="fill:#204a87;fill-rule:evenodd;stroke:url(#linearGradient2857);stroke-width:1px;stroke-linecap:square;stroke-linejoin:miter;stroke-opacity:1;fill-opacity:1.0;opacity:0.4" d="M 9.5,23.5 L 39.5,23.5" id="path2990"/>
    <path style="fill:none;fill-rule:evenodd;stroke:url(#linearGradient2849);stroke-width:1px;stroke-linecap:square;stroke-linejoin:miter;stroke-opacity:1;fill-opacity:1.0;opacity:0.2" d="M 39.5,30.5 L 9.5,30.5" id="path2992"/>
    <path style="opacity:0.49729728;color:black;fill:url(#linearGradient3059);fill-opacity:1;fill-rule:nonzero;stroke:none;stroke-width:1;stroke-linecap:square;stroke-linejoin:round;marker:none;marker-start:none;marker-mid:none;marker-end:none;stroke-miterlimit:4;stroke-dashoffset:1.20000057;stroke-opacity:1;visibility:visible;display:inline;overflow:visible" d="M 9,24 L 40,24 L 40,27 C 27.589319,29.91851 19.498538,23.799598 9,27 L 9,24 z " id="rect3015" sodipodi:nodetypes="ccccc"/>
    <path style="color:black;fill:url(#linearGradient2956);fill-opacity:1.0;fill-rule:nonzero;stroke:url(#linearGradient2981);stroke-width:0.2;stroke-linecap:round;stroke-linejoin:round;marker:none;marker-start:none;marker-mid:none;marker-end:none;stroke-miterlimit:4;stroke-dasharray:none;stroke-dashoffset:1.20000057;stroke-opacity:1;visibility:visible;display:inline;overflow:visible" d="M 16 24.5 L 16 25.4375 C 15.852793 25.485503 15.716085 25.53898 15.59375 25.625 L 14.8125 25.1875 L 14.3125 26.0625 L 15.03125 26.46875 C 15.011257 26.560269 15 26.652966 15 26.75 C 15 26.847034 15.011257 26.939732 15.03125 27.03125 L 14.3125 27.4375 L 14.8125 28.3125 L 15.59375 27.875 C 15.716085 27.96102 15.852793 28.014497 16 28.0625 L 16 29 L 17 29 L 17 28.0625 C 17.147207 28.014497 17.283915 27.96102 17.40625 27.875 L 18.1875 28.3125 L 18.6875 27.4375 L 17.96875 27.03125 C 17.988743 26.939732 18 26.847034 18 26.75 C 18 26.652966 17.988743 26.560268 17.96875 26.46875 L 18.6875 26.0625 L 18.1875 25.1875 L 17.40625 25.625 C 17.283915 25.53898 17.147207 25.485503 17 25.4375 L 17 24.5 L 16 24.5 z M 32 24.5 L 32 25.4375 C 31.852793 25.485503 31.716085 25.53898 31.59375 25.625 L 30.8125 25.1875 L 30.3125 26.0625 L 31.03125 26.46875 C 31.011257 26.560269 31 26.652966 31 26.75 C 31 26.847034 31.011257 26.939732 31.03125 27.03125 L 30.3125 27.4375 L 30.8125 28.3125 L 31.59375 27.875 C 31.716085 27.96102 31.852793 28.014497 32 28.0625 L 32 29 L 33 29 L 33 28.0625 C 33.147207 28.014497 33.283915 27.96102 33.40625 27.875 L 34.1875 28.3125 L 34.6875 27.4375 L 33.96875 27.03125 C 33.988743 26.939732 34 26.847034 34 26.75 C 34 26.652966 33.988743 26.560268 33.96875 26.46875 L 34.6875 26.0625 L 34.1875 25.1875 L 33.40625 25.625 C 33.283915 25.53898 33.147207 25.485503 33 25.4375 L 33 24.5 L 32 24.5 z " id="path2780"/>
    <rect style="opacity:0.1;color:black;fill:white;fill-opacity:1;fill-rule:nonzero;stroke:none;stroke-width:1;stroke-linecap:square;stroke-linejoin:round;marker:none;marker-start:none;marker-mid:none;marker-end:none;stroke-miterlimit:4;stroke-dasharray:none;stroke-dashoffset:1.20000057;stroke-opacity:0.34117647;visibility:visible;display:inline;overflow:visible" id="rect3039" width="12" height="2" x="9" y="14" rx="1" ry="1"/>
    <path transform="scale(1.023758,0.976793)" style="font-size:10.77973175px;font-style:normal;font-weight:bold;opacity:0.6;fill:white;fill-opacity:1;stroke:none;stroke-width:1px;stroke-linecap:butt;stroke-linejoin:miter;stroke-opacity:1;font-family:Bitstream Vera Sans" d="M 11.585054,21.902882 C 11.492063,21.951131 11.395126,21.987537 11.294243,22.0121 C 11.193357,22.036663 11.088087,22.048945 10.978431,22.048945 C 10.651213,22.048945 10.391984,21.95771 10.200743,21.775241 C 10.0095,21.591894 9.9138794,21.343631 9.9138796,21.03045 C 9.9138794,20.716393 10.0095,20.46813 10.200743,20.285659 C 10.391984,20.102314 10.651213,20.010641 10.978431,20.010639 C 11.088087,20.010641 11.193357,20.022922 11.294243,20.047483 C 11.395126,20.072049 11.492063,20.108455 11.585054,20.156702 L 11.585054,20.56331 C 11.491186,20.499272 11.398635,20.452339 11.307402,20.422511 C 11.216166,20.392686 11.120106,20.377772 11.019223,20.377771 C 10.838507,20.377772 10.696392,20.435671 10.592876,20.551467 C 10.489359,20.667267 10.437601,20.826927 10.437602,21.03045 C 10.437601,21.233097 10.489359,21.392319 10.592876,21.508116 C 10.696392,21.623914 10.838507,21.681813 11.019223,21.681813 C 11.120106,21.681813 11.216166,21.6669 11.307402,21.637073 C 11.398635,21.607246 11.491186,21.560313 11.585054,21.496273 L 11.585054,21.902882 M 13.079899,20.938338 C 13.038667,20.919039 12.997436,20.905003 12.956206,20.896229 C 12.915851,20.886581 12.875059,20.881756 12.833829,20.881755 C 12.712767,20.881756 12.619339,20.920794 12.553545,20.998868 C 12.488628,21.076068 12.456169,21.187041 12.45617,21.331787 L 12.45617,22.010784 L 11.985083,22.010784 L 11.985083,20.536993 L 12.45617,20.536993 L 12.45617,20.779116 C 12.5167,20.682619 12.586003,20.612438 12.66408,20.568574 C 12.743032,20.523835 12.837337,20.501465 12.946995,20.501464 C 12.962784,20.501465 12.979891,20.502343 12.998315,20.504096 C 13.016736,20.504974 13.043492,20.507606 13.078584,20.511991 L 13.079899,20.938338 M 14.018126,20.83833 C 13.913731,20.838332 13.833901,20.876054 13.778634,20.951497 C 13.724244,21.026064 13.697049,21.133967 13.69705,21.275204 C 13.697049,21.416443 13.724244,21.524784 13.778634,21.600228 C 13.833901,21.674795 13.913731,21.712079 14.018126,21.712078 C 14.120764,21.712079 14.199278,21.674795 14.253669,21.600228 C 14.308058,21.524784 14.335253,21.416443 14.335254,21.275204 C 14.335253,21.133967 14.308058,21.026064 14.253669,20.951497 C 14.199278,20.876054 14.120764,20.838332 14.018126,20.83833 M 14.018126,20.501464 C 14.271652,20.501465 14.469473,20.569891 14.61159,20.706742 C 14.754581,20.843595 14.826077,21.033082 14.826079,21.275204 C 14.826077,21.517328 14.754581,21.706815 14.61159,21.843667 C 14.469473,21.980519 14.271652,22.048945 14.018126,22.048945 C 13.76372,22.048945 13.564583,21.980519 13.420714,21.843667 C 13.277721,21.706815 13.206224,21.517328 13.206224,21.275204 C 13.206224,21.033082 13.277721,20.843595 13.420714,20.706742 C 13.564583,20.569891 13.76372,20.501465 14.018126,20.501464 M 16.320925,20.583049 L 16.320925,20.940969 C 16.220039,20.898862 16.122664,20.867281 16.028798,20.846226 C 15.934931,20.825173 15.846328,20.814646 15.762989,20.814644 C 15.673509,20.814646 15.606837,20.82605 15.562975,20.848857 C 15.519989,20.87079 15.498496,20.905003 15.498497,20.951497 C 15.498496,20.98922 15.514725,21.018169 15.547184,21.038345 C 15.580519,21.058523 15.639734,21.073436 15.724829,21.083085 L 15.80773,21.094928 C 16.048974,21.125633 16.211266,21.176075 16.294607,21.246255 C 16.377945,21.316436 16.419615,21.426532 16.419616,21.576542 C 16.419615,21.733571 16.361716,21.851562 16.245919,21.930515 C 16.13012,22.009468 15.957301,22.048945 15.727461,22.048945 C 15.630084,22.048945 15.5292,22.041049 15.424807,22.025259 C 15.32129,22.010346 15.214704,21.987537 15.105047,21.956833 L 15.105047,21.598912 C 15.198913,21.64453 15.294973,21.678743 15.393226,21.701551 C 15.492355,21.72436 15.592801,21.735764 15.694563,21.735764 C 15.786675,21.735764 15.855978,21.723044 15.902473,21.697603 C 15.948967,21.672163 15.972214,21.634441 15.972215,21.584437 C 15.972214,21.542329 15.955985,21.511187 15.923527,21.491009 C 15.891945,21.469956 15.828344,21.453727 15.732724,21.442322 L 15.649823,21.431795 C 15.440158,21.405478 15.293218,21.35679 15.209002,21.285731 C 15.124785,21.214674 15.082677,21.106772 15.082677,20.962024 C 15.082677,20.805873 15.136189,20.690075 15.243215,20.61463 C 15.35024,20.539187 15.514287,20.501465 15.735356,20.501464 C 15.822203,20.501465 15.913438,20.508045 16.00906,20.521202 C 16.10468,20.534362 16.208635,20.554978 16.320925,20.583049 M 17.926305,20.583049 L 17.926305,20.940969 C 17.825419,20.898862 17.728044,20.867281 17.634178,20.846226 C 17.540311,20.825173 17.451708,20.814646 17.36837,20.814644 C 17.278889,20.814646 17.212217,20.82605 17.168355,20.848857 C 17.125369,20.87079 17.103876,20.905003 17.103877,20.951497 C 17.103876,20.98922 17.120105,21.018169 17.152564,21.038345 C 17.185899,21.058523 17.245114,21.073436 17.330209,21.083085 L 17.41311,21.094928 C 17.654354,21.125633 17.816646,21.176075 17.899987,21.246255 C 17.983325,21.316436 18.024995,21.426532 18.024996,21.576542 C 18.024995,21.733571 17.967096,21.851562 17.851299,21.930515 C 17.7355,22.009468 17.562681,22.048945 17.332841,22.048945 C 17.235464,22.048945 17.13458,22.041049 17.030187,22.025259 C 16.92667,22.010346 16.820084,21.987537 16.710427,21.956833 L 16.710427,21.598912 C 16.804293,21.64453 16.900353,21.678743 16.998606,21.701551 C 17.097735,21.72436 17.198181,21.735764 17.299943,21.735764 C 17.392055,21.735764 17.461358,21.723044 17.507853,21.697603 C 17.554347,21.672163 17.577594,21.634441 17.577595,21.584437 C 17.577594,21.542329 17.561365,21.511187 17.528908,21.491009 C 17.497325,21.469956 17.433724,21.453727 17.338104,21.442322 L 17.255203,21.431795 C 17.045539,21.405478 16.898598,21.35679 16.814382,21.285731 C 16.730165,21.214674 16.688057,21.106772 16.688057,20.962024 C 16.688057,20.805873 16.741569,20.690075 16.848595,20.61463 C 16.95562,20.539187 17.119667,20.501465 17.340736,20.501464 C 17.427583,20.501465 17.518818,20.508045 17.61444,20.521202 C 17.71006,20.534362 17.814015,20.554978 17.926305,20.583049 M 19.064546,20.046168 L 19.618533,20.046168 L 20.065934,20.746218 L 20.513335,20.046168 L 21.068639,20.046168 L 20.3199,21.183092 L 20.3199,22.010784 L 19.813284,22.010784 L 19.813284,21.183092 L 19.064546,20.046168 M 21.723949,20.83833 C 21.619555,20.838332 21.539725,20.876054 21.484458,20.951497 C 21.430068,21.026064 21.402873,21.133967 21.402873,21.275204 C 21.402873,21.416443 21.430068,21.524784 21.484458,21.600228 C 21.539725,21.674795 21.619555,21.712079 21.723949,21.712078 C 21.826587,21.712079 21.905102,21.674795 21.959493,21.600228 C 22.013882,21.524784 22.041077,21.416443 22.041078,21.275204 C 22.041077,21.133967 22.013882,21.026064 21.959493,20.951497 C 21.905102,20.876054 21.826587,20.838332 21.723949,20.83833 M 21.723949,20.501464 C 21.977475,20.501465 22.175297,20.569891 22.317414,20.706742 C 22.460405,20.843595 22.531901,21.033082 22.531903,21.275204 C 22.531901,21.517328 22.460405,21.706815 22.317414,21.843667 C 22.175297,21.980519 21.977475,22.048945 21.723949,22.048945 C 21.469544,22.048945 21.270407,21.980519 21.126538,21.843667 C 20.983544,21.706815 20.912048,21.517328 20.912048,21.275204 C 20.912048,21.033082 20.983544,20.843595 21.126538,20.706742 C 21.270407,20.569891 21.469544,20.501465 21.723949,20.501464 M 22.859558,21.437058 L 22.859558,20.536993 L 23.333277,20.536993 L 23.333277,20.684372 C 23.333276,20.764203 23.332837,20.864649 23.331961,20.98571 C 23.331083,21.105895 23.330644,21.186164 23.330645,21.226517 C 23.330644,21.344947 23.333715,21.430479 23.339856,21.483114 C 23.345996,21.534873 23.356523,21.572595 23.371437,21.59628 C 23.390736,21.626985 23.415738,21.650671 23.446443,21.667338 C 23.478023,21.684006 23.513991,21.69234 23.554345,21.69234 C 23.652597,21.69234 23.729796,21.654618 23.785941,21.579174 C 23.842084,21.50373 23.870157,21.398898 23.870158,21.264677 L 23.870158,20.536993 L 24.341245,20.536993 L 24.341245,22.010784 L 23.870158,22.010784 L 23.870158,21.797611 C 23.799099,21.883582 23.723655,21.947183 23.643826,21.988414 C 23.564872,22.028768 23.477585,22.048945 23.381964,22.048945 C 23.211776,22.048945 23.081942,21.996748 22.992462,21.892354 C 22.903859,21.787961 22.859558,21.636196 22.859558,21.437058 M 25.891358,20.938338 C 25.850126,20.919039 25.808895,20.905003 25.767665,20.896229 C 25.72731,20.886581 25.686518,20.881756 25.645288,20.881755 C 25.524225,20.881756 25.430798,20.920794 25.365004,20.998868 C 25.300086,21.076068 25.267628,21.187041 25.267629,21.331787 L 25.267629,22.010784 L 24.796542,22.010784 L 24.796542,20.536993 L 25.267629,20.536993 L 25.267629,20.779116 C 25.328159,20.682619 25.397462,20.612438 25.475539,20.568574 C 25.554491,20.523835 25.648796,20.501465 25.758454,20.501464 C 25.774243,20.501465 25.79135,20.502343 25.809773,20.504096 C 25.828195,20.504974 25.854951,20.507606 25.890042,20.511991 L 25.891358,20.938338 M 27.086181,20.046168 L 28.453386,20.046168 L 28.453386,20.42909 L 27.592797,20.42909 L 27.592797,20.794906 L 28.402066,20.794906 L 28.402066,21.177829 L 27.592797,21.177829 L 27.592797,22.010784 L 27.086181,22.010784 L 27.086181,20.046168 M 28.907366,20.536993 L 29.378453,20.536993 L 29.378453,22.010784 L 28.907366,22.010784 L 28.907366,20.536993 M 28.907366,19.963267 L 29.378453,19.963267 L 29.378453,20.347505 L 28.907366,20.347505 L 28.907366,19.963267 M 31.315437,21.11335 L 31.315437,22.010784 L 30.841718,22.010784 L 30.841718,21.864721 L 30.841718,21.323892 C 30.841717,21.196691 30.838647,21.108965 30.832507,21.060715 C 30.827242,21.012467 30.817593,20.976938 30.803558,20.954128 C 30.785134,20.923425 30.760132,20.89974 30.728552,20.883071 C 30.69697,20.865527 30.661002,20.856754 30.62065,20.856753 C 30.522396,20.856754 30.445197,20.894915 30.389054,20.971235 C 30.332909,21.04668 30.304837,21.151512 30.304837,21.285731 L 30.304837,22.010784 L 29.83375,22.010784 L 29.83375,20.536993 L 30.304837,20.536993 L 30.304837,20.752798 C 30.375894,20.666828 30.451338,20.603666 30.531169,20.56331 C 30.610999,20.522081 30.699163,20.501465 30.795662,20.501464 C 30.965849,20.501465 31.094806,20.553662 31.182533,20.658054 C 31.271134,20.762449 31.315435,20.914214 31.315437,21.11335 M 32.757647,21.760766 C 32.692729,21.846737 32.621233,21.9099 32.543158,21.950253 C 32.465081,21.990607 32.374724,22.010784 32.272085,22.010784 C 32.092247,22.010784 31.943552,21.940165 31.826,21.798927 C 31.708448,21.656811 31.649672,21.476097 31.649672,21.256782 C 31.649672,21.036591 31.708448,20.856315 31.826,20.715953 C 31.943552,20.574716 32.092247,20.504097 32.272085,20.504096 C 32.374724,20.504097 32.465081,20.524274 32.543158,20.564626 C 32.621233,20.604982 32.692729,20.668583 32.757647,20.75543 L 32.757647,20.536993 L 33.231366,20.536993 L 33.231366,21.862089 C 33.231364,22.098948 33.156359,22.279663 33.006349,22.404234 C 32.857214,22.529681 32.640532,22.592405 32.356302,22.592405 C 32.264189,22.592405 32.175148,22.585387 32.089177,22.571351 C 32.003206,22.557315 31.916796,22.535822 31.829948,22.506873 L 31.829948,22.139741 C 31.91241,22.187113 31.993117,22.222203 32.072071,22.245012 C 32.151023,22.268697 32.230415,22.28054 32.310246,22.280541 C 32.464642,22.28054 32.577808,22.246766 32.649744,22.179217 C 32.721678,22.111669 32.757646,22.005959 32.757647,21.862089 L 32.757647,21.760766 M 32.447098,20.843594 C 32.349722,20.843595 32.273839,20.879563 32.21945,20.951497 C 32.165059,21.023433 32.137864,21.125194 32.137865,21.256782 C 32.137864,21.39188 32.164182,21.494519 32.216818,21.564699 C 32.269453,21.634003 32.346213,21.668654 32.447098,21.668654 C 32.54535,21.668654 32.621671,21.632687 32.676062,21.560751 C 32.730451,21.488817 32.757646,21.387494 32.757647,21.256782 C 32.757646,21.125194 32.730451,21.023433 32.676062,20.951497 C 32.621671,20.879563 32.54535,20.843595 32.447098,20.843594 M 35.157821,21.269941 L 35.157821,21.404161 L 34.056425,21.404161 C 34.067829,21.514696 34.107744,21.597597 34.176171,21.652863 C 34.244596,21.708131 34.340217,21.735764 34.463034,21.735764 C 34.562163,21.735764 34.663486,21.72129 34.767003,21.69234 C 34.871395,21.662514 34.97842,21.617773 35.088079,21.55812 L 35.088079,21.921304 C 34.976666,21.963412 34.865254,21.994994 34.753844,22.016048 C 34.642431,22.037979 34.53102,22.048945 34.419609,22.048945 C 34.152923,22.048945 33.945452,21.981396 33.797196,21.846298 C 33.649816,21.710324 33.576127,21.519959 33.576127,21.275204 C 33.576127,21.034837 33.6485,20.845788 33.793248,20.708058 C 33.938872,20.57033 34.138887,20.501465 34.393292,20.501464 C 34.624886,20.501465 34.809987,20.571207 34.948595,20.71069 C 35.088077,20.850175 35.157819,21.036591 35.157821,21.269941 M 34.673575,21.11335 C 34.673574,21.023871 34.647256,20.951936 34.594622,20.897545 C 34.542863,20.842279 34.474876,20.814646 34.39066,20.814644 C 34.299424,20.814646 34.225296,20.840525 34.168275,20.892282 C 34.111253,20.943164 34.075724,21.016853 34.061689,21.11335 L 34.673575,21.11335 M 36.607926,20.938338 C 36.566694,20.919039 36.525463,20.905003 36.484233,20.896229 C 36.443878,20.886581 36.403086,20.881756 36.361856,20.881755 C 36.240793,20.881756 36.147366,20.920794 36.081572,20.998868 C 36.016654,21.076068 35.984196,21.187041 35.984197,21.331787 L 35.984197,22.010784 L 35.51311,22.010784 L 35.51311,20.536993 L 35.984197,20.536993 L 35.984197,20.779116 C 36.044727,20.682619 36.11403,20.612438 36.192107,20.568574 C 36.271059,20.523835 36.365364,20.501465 36.475022,20.501464 C 36.490811,20.501465 36.507918,20.502343 36.526341,20.504096 C 36.544763,20.504974 36.571519,20.507606 36.60661,20.511991 L 36.607926,20.938338 M 37.996186,20.583049 L 37.996186,20.940969 C 37.8953,20.898862 37.797925,20.867281 37.704059,20.846226 C 37.610192,20.825173 37.521589,20.814646 37.43825,20.814644 C 37.34877,20.814646 37.282098,20.82605 37.238236,20.848857 C 37.19525,20.87079 37.173757,20.905003 37.173758,20.951497 C 37.173757,20.98922 37.189986,21.018169 37.222445,21.038345 C 37.25578,21.058523 37.314995,21.073436 37.40009,21.083085 L 37.482991,21.094928 C 37.724235,21.125633 37.886527,21.176075 37.969868,21.246255 C 38.053206,21.316436 38.094876,21.426532 38.094877,21.576542 C 38.094876,21.733571 38.036977,21.851562 37.92118,21.930515 C 37.805381,22.009468 37.632562,22.048945 37.402722,22.048945 C 37.305345,22.048945 37.204461,22.041049 37.100068,22.025259 C 36.996551,22.010346 36.889965,21.987537 36.780308,21.956833 L 36.780308,21.598912 C 36.874174,21.64453 36.970234,21.678743 37.068487,21.701551 C 37.167616,21.72436 37.268062,21.735764 37.369824,21.735764 C 37.461936,21.735764 37.531239,21.723044 37.577734,21.697603 C 37.624228,21.672163 37.647475,21.634441 37.647476,21.584437 C 37.647475,21.542329 37.631246,21.511187 37.598788,21.491009 C 37.567206,21.469956 37.503605,21.453727 37.407985,21.442322 L 37.325084,21.431795 C 37.115419,21.405478 36.968479,21.35679 36.884263,21.285731 C 36.800046,21.214674 36.757938,21.106772 36.757938,20.962024 C 36.757938,20.805873 36.81145,20.690075 36.918476,20.61463 C 37.025501,20.539187 37.189548,20.501465 37.410617,20.501464 C 37.497464,20.501465 37.588699,20.508045 37.684321,20.521202 C 37.779941,20.534362 37.883896,20.554978 37.996186,20.583049" id="text3043"/>
    <path transform="scale(0.853817,1.171211)" style="font-size:14.05452347px;font-style:italic;font-weight:bold;opacity:0.6;fill:white;fill-opacity:1;stroke:none;stroke-width:1px;stroke-linecap:butt;stroke-linejoin:miter;stroke-opacity:1;font-family:Bitstream Vera Sans" d="M 17.844898,27.88487 L 16.933894,28.938273 L 17.637306,28.938273 L 17.844898,27.88487 M 17.827742,27.32214 L 18.579192,27.32214 L 18.261799,28.938273 L 18.62723,28.938273 L 18.536301,29.416937 L 18.17087,29.416937 L 18.079941,29.883591 L 17.453733,29.883591 L 17.546377,29.416937 L 16.393467,29.416937 L 16.504984,28.850775 L 17.827742,27.32214 M 21.042851,28.281183 C 21.137781,28.163377 21.245295,28.07302 21.365392,28.010112 C 21.486628,27.947207 21.612441,27.915754 21.742833,27.915752 C 21.914394,27.915754 22.049357,27.963219 22.147724,28.05815 C 22.247227,28.15194 22.296981,28.281184 22.296984,28.445884 C 22.296981,28.480199 22.294122,28.519658 22.288406,28.564263 C 22.283828,28.607728 22.276393,28.657481 22.266103,28.713524 L 22.037923,29.883591 L 21.418577,29.883591 L 21.612444,28.881657 L 21.617591,28.855922 C 21.647326,28.714097 21.662195,28.623168 21.662198,28.583136 C 21.662195,28.52023 21.643895,28.470477 21.607297,28.433875 C 21.571838,28.397276 21.523228,28.378976 21.461468,28.378974 C 21.343658,28.378976 21.243579,28.427586 21.161231,28.524804 C 21.080021,28.620881 21.02169,28.758704 20.986235,28.938273 L 20.800946,29.883591 L 20.1816,29.883591 L 20.378899,28.881657 C 20.396054,28.795876 20.408063,28.731254 20.414927,28.68779 C 20.421788,28.643184 20.425219,28.6083 20.425221,28.583136 C 20.425219,28.519086 20.407491,28.469333 20.372036,28.433875 C 20.336578,28.397276 20.287397,28.378976 20.224491,28.378974 C 20.111258,28.378976 20.011751,28.429301 19.92597,28.529951 C 19.841331,28.629459 19.782427,28.765566 19.749259,28.938273 L 19.56397,29.883591 L 18.948055,29.883591 L 19.322064,27.962074 L 19.939695,27.962074 L 19.883079,28.243439 C 19.979154,28.134783 20.08152,28.053005 20.190178,27.998102 C 20.298834,27.943204 20.412066,27.915754 20.529875,27.915752 C 20.662549,27.915754 20.776353,27.950066 20.871287,28.01869 C 20.966217,28.086174 21.023405,28.173671 21.042851,28.281183 M 24.707459,28.281183 C 24.802388,28.163377 24.909902,28.07302 25.029999,28.010112 C 25.151235,27.947207 25.277048,27.915754 25.40744,27.915752 C 25.579001,27.915754 25.713964,27.963219 25.812331,28.05815 C 25.911834,28.15194 25.961588,28.281184 25.961591,28.445884 C 25.961588,28.480199 25.958729,28.519658 25.953013,28.564263 C 25.948435,28.607728 25.941,28.657481 25.93071,28.713524 L 25.70253,29.883591 L 25.083184,29.883591 L 25.277051,28.881657 L 25.282198,28.855922 C 25.311933,28.714097 25.326802,28.623168 25.326805,28.583136 C 25.326802,28.52023 25.308502,28.470477 25.271904,28.433875 C 25.236445,28.397276 25.187835,28.378976 25.126075,28.378974 C 25.008265,28.378976 24.908186,28.427586 24.825838,28.524804 C 24.744628,28.620881 24.686297,28.758704 24.650842,28.938273 L 24.465553,29.883591 L 23.846207,29.883591 L 24.043506,28.881657 C 24.060661,28.795876 24.07267,28.731254 24.079534,28.68779 C 24.086395,28.643184 24.089827,28.6083 24.089828,28.583136 C 24.089827,28.519086 24.072098,28.469333 24.036643,28.433875 C 24.001185,28.397276 23.952004,28.378976 23.889098,28.378974 C 23.775865,28.378976 23.676358,28.429301 23.590577,28.529951 C 23.505938,28.629459 23.447034,28.765566 23.413866,28.938273 L 23.228577,29.883591 L 22.612662,29.883591 L 22.986672,27.962074 L 23.604302,27.962074 L 23.547686,28.243439 C 23.643761,28.134783 23.746127,28.053005 23.854785,27.998102 C 23.963441,27.943204 24.076673,27.915754 24.194482,27.915752 C 24.327156,27.915754 24.440961,27.950066 24.535895,28.01869 C 24.630824,28.086174 24.688012,28.173671 24.707459,28.281183" id="text3047"/>
    <rect style="opacity:0.3;color:black;fill:white;fill-opacity:1;fill-rule:nonzero;stroke:none;stroke-width:1;stroke-linecap:square;stroke-linejoin:round;marker:none;marker-start:none;marker-mid:none;marker-end:none;stroke-miterlimit:4;stroke-dasharray:none;stroke-dashoffset:1.20000057;stroke-opacity:0.34117647;visibility:visible;display:inline;overflow:visible" id="rect3051" width="3" height="3" x="10" y="32"/>
    <g id="g2993" style="opacity:0.4">
      <path sodipodi:nodetypes="ccc" id="path3026" d="M 35,13 L 35,16 C 37.5,16 37.5,13 35,13 z " style="opacity:1;color:black;fill:white;fill-opacity:1;fill-rule:nonzero;stroke:none;stroke-width:1;stroke-linecap:square;stroke-linejoin:round;marker:none;marker-start:none;marker-mid:none;marker-end:none;stroke-miterlimit:4;stroke-dashoffset:1.20000057;stroke-opacity:0.34117647;visibility:visible;display:inline;overflow:visible"/>
      <path sodipodi:nodetypes="ccccc" id="path3031" d="M 39,14 C 39.005065,12.999891 41,13 41,13 L 41,16 L 39,16 C 42,15 39,14.906385 39,14 z " style="opacity:1;color:black;fill:white;fill-opacity:1;fill-rule:nonzero;stroke:none;stroke-width:1;stroke-linecap:square;stroke-linejoin:round;marker:none;marker-start:none;marker-mid:none;marker-end:none;stroke-miterlimit:4;stroke-dashoffset:1.20000057;stroke-opacity:0.34117647;visibility:visible;display:inline;overflow:visible"/>
      <path sodipodi:nodetypes="ccc" id="path2859" d="M 37,13 L 37,16 C 39.5,16 39.5,13 37,13 z " style="opacity:1;color:black;fill:white;fill-opacity:1;fill-rule:nonzero;stroke:none;stroke-width:1;stroke-linecap:square;stroke-linejoin:round;marker:none;marker-start:none;marker-mid:none;marker-end:none;stroke-miterlimit:4;stroke-dashoffset:1.20000057;stroke-opacity:0.34117647;visibility:visible;display:inline;overflow:visible"/>
    </g>
    <g id="g2962" style="opacity:0.1;fill-opacity:1.0;stroke:url(#linearGradient2973)">
      <path transform="matrix(0.731214,0,0,0.733036,9.021239,6.923655)" d="M 35.90625 27.046875 A 3.796875 3.546875 0 1 1  28.3125,27.046875 A 3.796875 3.546875 0 1 1  35.90625 27.046875 z" sodipodi:ry="3.546875" sodipodi:rx="3.796875" sodipodi:cy="27.046875" sodipodi:cx="32.109375" id="path2958" style="opacity:1;color:black;fill:none;fill-opacity:1.0;fill-rule:nonzero;stroke:url(#linearGradient2973);stroke-width:0.4097665;stroke-linecap:butt;stroke-linejoin:round;marker:none;marker-start:none;marker-mid:none;marker-end:none;stroke-miterlimit:4;stroke-dasharray:0.40976651, 0.81953301;stroke-dashoffset:0;stroke-opacity:1;visibility:visible;display:inline;overflow:visible" sodipodi:type="arc"/>
      <path transform="matrix(0.731214,0,0,0.733036,-6.97876,6.923655)" d="M 35.90625 27.046875 A 3.796875 3.546875 0 1 1  28.3125,27.046875 A 3.796875 3.546875 0 1 1  35.90625 27.046875 z" sodipodi:ry="3.546875" sodipodi:rx="3.796875" sodipodi:cy="27.046875" sodipodi:cx="32.109375" id="path2960" style="opacity:1;color:black;fill:none;fill-opacity:1.0;fill-rule:nonzero;stroke:url(#linearGradient2973);stroke-width:0.4097665;stroke-linecap:butt;stroke-linejoin:round;marker:none;marker-start:none;marker-mid:none;marker-end:none;stroke-miterlimit:4;stroke-dasharray:0.40976651, 0.81953301;stroke-dashoffset:0;stroke-opacity:1;visibility:visible;display:inline;overflow:visible" sodipodi:type="arc"/>
    </g>
    <path style="opacity:0.3;color:black;fill:none;fill-opacity:1;fill-rule:nonzero;stroke:url(#linearGradient1968);stroke-width:0.9999997;stroke-linecap:round;stroke-linejoin:round;marker:none;marker-start:none;marker-mid:none;marker-end:none;stroke-miterlimit:4;stroke-dashoffset:1.20000057;stroke-opacity:1;visibility:visible;display:inline;overflow:visible" d="M 8.5,17.500006 L 40.499973,17.500006 L 40.499973,35.5" id="path1966" sodipodi:nodetypes="ccc"/>
  </g>
</svg>
