<?xml version="1.0" encoding="UTF-8" standalone="no"?>
<!-- Created with Inkscape (http://www.inkscape.org/) -->
<svg xmlns:dc="http://purl.org/dc/elements/1.1/" xmlns:cc="http://web.resource.org/cc/" xmlns:rdf="http://www.w3.org/1999/02/22-rdf-syntax-ns#" xmlns:svg="http://www.w3.org/2000/svg" xmlns="http://www.w3.org/2000/svg" xmlns:xlink="http://www.w3.org/1999/xlink" xmlns:sodipodi="http://sodipodi.sourceforge.net/DTD/sodipodi-0.dtd" xmlns:inkscape="http://www.inkscape.org/namespaces/inkscape" width="48px" height="48px" id="svg1306" sodipodi:version="0.32" inkscape:version="0.44" sodipodi:docbase="/home/lapo/Icone/cvs/gnome-icon-theme/scalable/status" sodipodi:docname="weather-severe-alert.svg" inkscape:output_extension="org.inkscape.output.svg.inkscape">
  <defs id="defs1308">
    <linearGradient inkscape:collect="always" id="linearGradient2940">
      <stop style="stop-color:#888a85;stop-opacity:1;" offset="0" id="stop2942"/>
      <stop style="stop-color:#888a85;stop-opacity:0;" offset="1" id="stop2944"/>
    </linearGradient>
    <linearGradient inkscape:collect="always" xlink:href="#linearGradient2940" id="linearGradient2946" x1="24.518503" y1="22.428678" x2="33.601199" y2="22.428678" gradientUnits="userSpaceOnUse"/>
    <linearGradient inkscape:collect="always" id="linearGradient2948">
      <stop style="stop-color:#888a85;stop-opacity:1;" offset="0" id="stop2950"/>
      <stop style="stop-color:#888a85;stop-opacity:0;" offset="1" id="stop2952"/>
    </linearGradient>
    <linearGradient inkscape:collect="always" xlink:href="#linearGradient2948" id="linearGradient2954" x1="18.991407" y1="27.180725" x2="20.316456" y2="23.61031" gradientUnits="userSpaceOnUse" gradientTransform="translate(-1.5,-0.625)"/>
    <linearGradient id="linearGradient2851">
      <stop id="stop2853" offset="0" style="stop-color:#babdb6;stop-opacity:1"/>
      <stop style="stop-color:#babdb6;stop-opacity:1;" offset="0.26506025" id="stop2855"/>
      <stop id="stop2857" offset="1" style="stop-color:#555753;stop-opacity:1"/>
    </linearGradient>
    <linearGradient inkscape:collect="always" id="linearGradient3123">
      <stop style="stop-color:black;stop-opacity:1;" offset="0" id="stop3125"/>
      <stop style="stop-color:black;stop-opacity:0;" offset="1" id="stop3127"/>
    </linearGradient>
    <radialGradient inkscape:collect="always" xlink:href="#linearGradient2851" id="radialGradient3080" cx="20.387419" cy="17.105022" fx="20.387419" fy="17.105022" r="24" gradientTransform="matrix(1.941537,0,0,0.691557,-19.95792,7.170901)" gradientUnits="userSpaceOnUse"/>
    <radialGradient inkscape:collect="always" xlink:href="#linearGradient3123" id="radialGradient3129" cx="24.000002" cy="25.344858" fx="24.000002" fy="25.344858" r="24" gradientTransform="matrix(1.194997,0,0,0.484904,-4.679924,11.44763)" gradientUnits="userSpaceOnUse"/>
    <linearGradient id="linearGradient6525" gradientUnits="userSpaceOnUse" x1="4.1914001" y1="11.1133" x2="47.319698" y2="56.052299">
      <stop offset="0" style="stop-color:#ffffff;stop-opacity:1;" id="stop6529"/>
      <stop offset="1" style="stop-color:#ffffff;stop-opacity:0.34020618;" id="stop6531"/>
    </linearGradient>
    <linearGradient id="linearGradient5048">
      <stop id="stop5050" offset="0" style="stop-color:black;stop-opacity:0;"/>
      <stop style="stop-color:black;stop-opacity:1;" offset="0.5" id="stop5056"/>
      <stop id="stop5052" offset="1" style="stop-color:black;stop-opacity:0;"/>
    </linearGradient>
    <linearGradient id="linearGradient5060" inkscape:collect="always">
      <stop id="stop5062" offset="0" style="stop-color:black;stop-opacity:1;"/>
      <stop id="stop5064" offset="1" style="stop-color:black;stop-opacity:0;"/>
    </linearGradient>
    <linearGradient inkscape:collect="always" xlink:href="#linearGradient5048" id="linearGradient2161" gradientUnits="userSpaceOnUse" gradientTransform="matrix(2.774389,0,0,1.969706,-1892.179,-872.8854)" x1="302.85715" y1="366.64789" x2="302.85715" y2="609.50507"/>
    <radialGradient inkscape:collect="always" xlink:href="#linearGradient5060" id="radialGradient2163" gradientUnits="userSpaceOnUse" gradientTransform="matrix(2.774389,0,0,1.969706,-1891.633,-872.8854)" cx="605.71429" cy="486.64789" fx="605.71429" fy="486.64789" r="117.14286"/>
    <radialGradient inkscape:collect="always" xlink:href="#linearGradient5060" id="radialGradient2165" gradientUnits="userSpaceOnUse" gradientTransform="matrix(-2.774389,0,0,1.969706,112.7623,-872.8854)" cx="605.71429" cy="486.64789" fx="605.71429" fy="486.64789" r="117.14286"/>
    <linearGradient inkscape:collect="always" xlink:href="#linearGradient5048" id="linearGradient2167" gradientUnits="userSpaceOnUse" gradientTransform="matrix(2.774389,0,0,1.969706,-1892.179,-872.8854)" x1="302.85715" y1="366.64789" x2="302.85715" y2="609.50507"/>
    <radialGradient inkscape:collect="always" xlink:href="#linearGradient5060" id="radialGradient2169" gradientUnits="userSpaceOnUse" gradientTransform="matrix(2.774389,0,0,1.969706,-1891.633,-872.8854)" cx="605.71429" cy="486.64789" fx="605.71429" fy="486.64789" r="117.14286"/>
    <radialGradient inkscape:collect="always" xlink:href="#linearGradient5060" id="radialGradient2171" gradientUnits="userSpaceOnUse" gradientTransform="matrix(-2.774389,0,0,1.969706,112.7623,-872.8854)" cx="605.71429" cy="486.64789" fx="605.71429" fy="486.64789" r="117.14286"/>
    <linearGradient inkscape:collect="always" xlink:href="#linearGradient6525" id="linearGradient2173" gradientUnits="userSpaceOnUse" gradientTransform="matrix(0.513828,0,-2.236678e-3,0.597575,15.06491,14.34464)" x1="8.5469341" y1="30.281681" x2="30.85088" y2="48.301884"/>
  </defs>
  <g id="layer1" inkscape:label="Layer 1" inkscape:groupmode="layer">
    <path sodipodi:type="inkscape:offset" inkscape:radius="0.49410588" inkscape:original="M 27 11.5 C 25.619997 11.5 24.5 12.619997 24.5 14 C 24.5 14.183237 24.525021 14.359194 24.5625 14.53125 C 21.248692 14.683188 18.391149 16.518951 16.8125 19.21875 C 16.163117 18.76344 15.352746 18.5 14.5 18.5 C 14.154227 18.5 13.820085 18.573642 13.5 18.65625 C 13.504018 18.604511 13.5 18.552765 13.5 18.5 C 13.5 17.395997 12.604003 16.5 11.5 16.5 C 10.395997 16.5 9.4999998 17.395996 9.5 18.5 C 9.5 19.455653 10.165989 20.27106 11.0625 20.46875 C 10.712418 21.063082 10.5 21.760776 10.5 22.5 C 10.5 22.70146 10.533709 22.900261 10.5625 23.09375 C 9.9602283 22.730458 9.2541665 22.5 8.5 22.5 C 6.8835526 22.5 5.5056469 23.462793 4.875 24.84375 C 4.4167467 24.323207 3.7474993 24 3 24 C 1.6200014 24 0.49999998 25.120005 0.5 26.5 C 0.5 27.879994 1.6200014 29 3 29 C 3.7474993 29 4.4167467 28.676793 4.875 28.15625 C 5.505647 29.537206 6.8835529 30.499999 8.5 30.5 C 9.3765388 30.5 10.184417 30.197486 10.84375 29.71875 C 11.550079 31.623343 13.350649 33 15.5 33 C 16.919591 33 18.183331 32.388645 19.09375 31.4375 C 20.717472 32.732721 22.763047 33.5 25 33.5 C 27.934178 33.5 30.569428 32.154918 32.3125 30.0625 C 33.289388 30.950443 34.576875 31.5 36 31.5 C 37.549626 31.5 38.937507 30.844777 39.9375 29.8125 C 40.516678 30.236992 41.227414 30.5 42 30.5 C 43.086749 30.5 44.04538 29.996717 44.6875 29.21875 C 44.941606 29.686327 45.43075 30 46 30 C 46.827999 30 47.500002 29.328003 47.5 28.5 C 47.5 27.671996 46.827998 27.000001 46 27 C 45.8275 27 45.654292 27.040082 45.5 27.09375 C 45.500816 27.062682 45.5 27.031264 45.5 27 C 45.5 25.067993 43.931997 23.5 42 23.5 C 41.64465 23.5 41.29198 23.557651 40.96875 23.65625 C 40.261246 22.164952 38.891932 21.042815 37.25 20.65625 C 37.401875 20.297374 37.5 19.914001 37.5 19.5 C 37.5 17.843997 36.156003 16.5 34.5 16.5 C 33.52101 16.5 32.641436 16.961292 32.09375 17.6875 C 31.254049 16.746697 30.21396 15.985374 29.0625 15.4375 C 29.340986 15.034361 29.5 14.526701 29.5 14 C 29.5 12.619997 28.380002 11.5 27 11.5 z " style="opacity:0.4;fill:url(#radialGradient3129);fill-opacity:1.0;stroke:none;stroke-width:1;stroke-linecap:round;stroke-linejoin:miter;stroke-miterlimit:4;stroke-dasharray:none;stroke-dashoffset:1.20000057;stroke-opacity:1" id="path3113" d="M 27,11 C 25.352656,11 24,12.352656 24,14 C 24,14.046313 24.028848,14.079998 24.03125,14.125 C 20.934234,14.427317 18.268841,16.112104 16.65625,18.59375 C 16.006617,18.239183 15.282322,18 14.5,18 C 14.292036,18 14.124896,18.061474 13.9375,18.09375 C 13.736624,16.919945 12.728639,16 11.5,16 C 10.128657,16 8.9999998,17.128655 9,18.5 C 9,19.472692 9.5849886,20.304447 10.40625,20.71875 C 10.190761,21.210421 10.056183,21.746483 10.03125,22.3125 C 9.5500036,22.128963 9.0482675,22 8.5,22 C 6.8856991,22 5.5076389,22.873832 4.71875,24.15625 C 4.2220002,23.793149 3.658547,23.5 3,23.5 C 1.3526576,23.5 -2.387456e-08,24.852661 0,26.5 C 0,28.147338 1.3526574,29.5 3,29.5 C 3.658547,29.5 4.2220002,29.206851 4.71875,28.84375 C 5.507639,30.126167 6.8856995,30.999999 8.5,31 C 9.2982101,31 10.012358,30.740585 10.65625,30.375 C 11.548154,32.189142 13.341338,33.5 15.5,33.5 C 16.907152,33.5 18.127882,32.900586 19.09375,32.03125 C 20.751175,33.254647 22.78471,34 25,34 C 27.92617,34 30.545933,32.696246 32.375,30.6875 C 33.385251,31.471869 34.620867,32 36,32 C 37.550792,32 38.908192,31.341916 39.96875,30.375 C 40.568608,30.741907 41.240931,31 42,31 C 43.038042,31 43.918439,30.525733 44.625,29.875 C 44.986081,30.24032 45.448989,30.5 46,30.5 C 47.09534,30.5 48.000003,29.595346 48,28.5 C 48,27.404654 47.095339,26.500001 46,26.5 C 45.963489,26.5 45.941612,26.529027 45.90625,26.53125 C 45.664459,24.560223 44.034388,23 42,23 C 41.730971,23 41.473144,23.073607 41.21875,23.125 C 40.484022,21.798621 39.279092,20.813255 37.8125,20.34375 C 37.889819,20.067532 38,19.809778 38,19.5 C 38,17.576656 36.423344,16 34.5,16 C 33.565899,16 32.757348,16.428943 32.125,17.03125 C 31.412251,16.308542 30.587282,15.728941 29.6875,15.25 C 29.863684,14.860731 30,14.445177 30,14 C 30,12.352656 28.647343,11 27,11 z "/>
    <path style="fill:url(#radialGradient3080);fill-opacity:1.0;stroke:#555753;stroke-width:1;stroke-linecap:round;stroke-linejoin:miter;stroke-miterlimit:4;stroke-dasharray:none;stroke-dashoffset:1.20000057;stroke-opacity:1" d="M 27 9.5 C 25.619997 9.5 24.5 10.619997 24.5 12 C 24.5 12.183237 24.525021 12.359194 24.5625 12.53125 C 21.248692 12.683188 18.391149 14.518951 16.8125 17.21875 C 16.163117 16.76344 15.352746 16.5 14.5 16.5 C 14.154227 16.5 13.820085 16.573642 13.5 16.65625 C 13.504018 16.604511 13.5 16.552765 13.5 16.5 C 13.5 15.395997 12.604003 14.5 11.5 14.5 C 10.395997 14.5 9.4999998 15.395996 9.5 16.5 C 9.5 17.455653 10.165989 18.27106 11.0625 18.46875 C 10.712418 19.063082 10.5 19.760776 10.5 20.5 C 10.5 20.70146 10.533709 20.900261 10.5625 21.09375 C 9.9602283 20.730458 9.2541665 20.5 8.5 20.5 C 6.8835526 20.5 5.5056469 21.462793 4.875 22.84375 C 4.4167467 22.323207 3.7474993 22 3 22 C 1.6200014 22 0.49999998 23.120005 0.5 24.5 C 0.5 25.879994 1.6200014 27 3 27 C 3.7474993 27 4.4167467 26.676793 4.875 26.15625 C 5.505647 27.537206 6.8835529 28.499999 8.5 28.5 C 9.3765388 28.5 10.184417 28.197486 10.84375 27.71875 C 11.550079 29.623343 13.350649 31 15.5 31 C 16.919591 31 18.183331 30.388645 19.09375 29.4375 C 20.717472 30.732721 22.763047 31.5 25 31.5 C 27.934178 31.5 30.569428 30.154918 32.3125 28.0625 C 33.289388 28.950443 34.576875 29.5 36 29.5 C 37.549626 29.5 38.937507 28.844777 39.9375 27.8125 C 40.516678 28.236992 41.227414 28.5 42 28.5 C 43.086749 28.5 44.04538 27.996717 44.6875 27.21875 C 44.941606 27.686327 45.43075 28 46 28 C 46.827999 28 47.500002 27.328003 47.5 26.5 C 47.5 25.671996 46.827998 25.000001 46 25 C 45.8275 25 45.654292 25.040082 45.5 25.09375 C 45.500816 25.062682 45.5 25.031264 45.5 25 C 45.5 23.067993 43.931997 21.5 42 21.5 C 41.64465 21.5 41.29198 21.557651 40.96875 21.65625 C 40.261246 20.164952 38.891932 19.042815 37.25 18.65625 C 37.401875 18.297374 37.5 17.914001 37.5 17.5 C 37.5 15.843997 36.156003 14.5 34.5 14.5 C 33.52101 14.5 32.641436 14.961292 32.09375 15.6875 C 31.254049 14.746697 30.21396 13.985374 29.0625 13.4375 C 29.340986 13.034361 29.5 12.526701 29.5 12 C 29.5 10.619997 28.380002 9.4999998 27 9.5 z " id="path2077"/>
    <path sodipodi:type="inkscape:offset" inkscape:radius="-0.99151278" inkscape:original="M 27 9.5 C 25.619997 9.5 24.5 10.619997 24.5 12 C 24.5 12.183237 24.525021 12.359194 24.5625 12.53125 C 21.248692 12.683188 18.391149 14.518951 16.8125 17.21875 C 16.163117 16.76344 15.352746 16.5 14.5 16.5 C 14.154227 16.5 13.820085 16.573642 13.5 16.65625 C 13.504018 16.604511 13.5 16.552765 13.5 16.5 C 13.5 15.395997 12.604003 14.5 11.5 14.5 C 10.395997 14.5 9.4999998 15.395996 9.5 16.5 C 9.5 17.455653 10.165989 18.27106 11.0625 18.46875 C 10.712418 19.063082 10.5 19.760776 10.5 20.5 C 10.5 20.70146 10.533709 20.900261 10.5625 21.09375 C 9.9602283 20.730458 9.2541665 20.5 8.5 20.5 C 6.8835526 20.5 5.5056469 21.462793 4.875 22.84375 C 4.4167467 22.323207 3.7474993 22 3 22 C 1.6200014 22 0.49999998 23.120005 0.5 24.5 C 0.5 25.879994 1.6200014 27 3 27 C 3.7474993 27 4.4167467 26.676793 4.875 26.15625 C 5.505647 27.537206 6.8835529 28.499999 8.5 28.5 C 9.3765388 28.5 10.184417 28.197486 10.84375 27.71875 C 11.550079 29.623343 13.350649 31 15.5 31 C 16.919591 31 18.183331 30.388645 19.09375 29.4375 C 20.717472 30.732721 22.763047 31.5 25 31.5 C 27.934178 31.5 30.569428 30.154918 32.3125 28.0625 C 33.289388 28.950443 34.576875 29.5 36 29.5 C 37.549626 29.5 38.937507 28.844777 39.9375 27.8125 C 40.516678 28.236992 41.227414 28.5 42 28.5 C 43.086749 28.5 44.04538 27.996717 44.6875 27.21875 C 44.941606 27.686327 45.43075 28 46 28 C 46.827999 28 47.500002 27.328003 47.5 26.5 C 47.5 25.671996 46.827998 25.000001 46 25 C 45.8275 25 45.654292 25.040082 45.5 25.09375 C 45.500816 25.062682 45.5 25.031264 45.5 25 C 45.5 23.067993 43.931997 21.5 42 21.5 C 41.64465 21.5 41.29198 21.557651 40.96875 21.65625 C 40.261246 20.164952 38.891932 19.042815 37.25 18.65625 C 37.401875 18.297374 37.5 17.914001 37.5 17.5 C 37.5 15.843997 36.156003 14.5 34.5 14.5 C 33.52101 14.5 32.641436 14.961292 32.09375 15.6875 C 31.254049 14.746697 30.21396 13.985374 29.0625 13.4375 C 29.340986 13.034361 29.5 12.526701 29.5 12 C 29.5 10.619997 28.380002 9.4999998 27 9.5 z " style="fill:none;fill-opacity:1;stroke:#babdb6;stroke-width:1;stroke-linecap:round;stroke-linejoin:miter;stroke-miterlimit:4;stroke-dasharray:none;stroke-dashoffset:1.20000057;stroke-opacity:1" id="path3072" d="M 27,10.5 C 26.156465,10.5 25.5,11.156465 25.5,12 C 25.5,12.092976 25.50416,12.188136 25.53125,12.3125 C 25.599662,12.602706 25.53386,12.908291 25.352069,13.14462 C 25.170277,13.380949 24.891794,13.522934 24.59375,13.53125 C 21.61892,13.667646 19.070587,15.299957 17.65625,17.71875 C 17.516359,17.9526 17.286398,18.118576 17.020389,18.177689 C 16.75438,18.236802 16.475767,18.183842 16.25,18.03125 C 15.770897,17.695331 15.14854,17.5 14.5,17.5 C 14.295007,17.5 14.046475,17.548485 13.75,17.625 C 13.439105,17.709891 13.106348,17.638402 12.857752,17.433311 C 12.609157,17.22822 12.475736,16.915112 12.5,16.59375 C 12.496116,16.643763 12.5,16.6031 12.5,16.5 C 12.5,15.932464 12.067536,15.5 11.5,15.5 C 10.932464,15.5 10.5,15.932463 10.5,16.5 C 10.5,16.995 10.843784,17.403534 11.28125,17.5 C 11.587691,17.572738 11.841354,17.786727 11.964676,18.076534 C 12.087998,18.366341 12.066313,18.6975 11.90625,18.96875 C 11.639373,19.421825 11.5,19.950719 11.5,20.5 C 11.5,20.590858 11.500429,20.730366 11.53125,20.9375 C 11.582904,21.310754 11.418541,21.681032 11.107069,21.893098 C 10.795598,22.105164 10.390845,22.122369 10.0625,21.9375 C 9.5949003,21.655443 9.0521757,21.5 8.5,21.5 C 7.2772644,21.5 6.2575344,22.207058 5.78125,23.25 C 5.6442521,23.560787 5.3577227,23.779837 5.0218842,23.83053 C 4.6860457,23.881222 4.3476268,23.756504 4.125,23.5 C 3.8486099,23.186041 3.4616896,23 3,23 C 2.156475,23 1.5,23.656478 1.5,24.5 C 1.5,25.34352 2.1564755,26 3,26 C 3.4616896,26 3.8486099,25.813959 4.125,25.5 C 4.3476268,25.243496 4.6860457,25.118778 5.0218842,25.16947 C 5.3577227,25.220163 5.6442521,25.439213 5.78125,25.75 C 6.2575344,26.792941 7.2772644,27.499999 8.5,27.5 C 9.1484093,27.5 9.7415688,27.275418 10.25,26.90625 C 10.503337,26.716531 10.832019,26.659142 11.134657,26.751787 C 11.437295,26.844431 11.677528,27.075977 11.78125,27.375 C 12.350723,28.910566 13.774024,30 15.5,30 C 16.634924,30 17.634751,29.523362 18.375,28.75 C 18.729708,28.372638 19.315078,28.331798 19.71875,28.65625 C 21.174345,29.817358 22.989774,30.5 25,30.5 C 27.631159,30.5 30.000233,29.312877 31.5625,27.4375 C 31.735815,27.237408 31.98194,27.11492 32.246071,27.097312 C 32.510201,27.079703 32.770408,27.168435 32.96875,27.34375 C 33.77545,28.077001 34.832131,28.5 36,28.5 C 37.270134,28.5 38.391865,27.97858 39.21875,27.125 C 39.561188,26.756403 40.125391,26.702669 40.53125,27 C 40.955984,27.311297 41.452438,27.5 42,27.5 C 42.78063,27.5 43.470137,27.159989 43.9375,26.59375 C 44.147434,26.344364 44.46653,26.214088 44.791018,26.245289 C 45.115506,26.276489 45.403932,26.465181 45.5625,26.75 C 45.650536,26.911994 45.794985,27 46,27 C 46.29153,27 46.500001,26.791531 46.5,26.5 C 46.5,26.208466 46.291531,26 46,26 C 45.981092,26 45.894002,26.002901 45.8125,26.03125 C 45.504461,26.136774 45.164246,26.084347 44.902267,25.890981 C 44.640288,25.697616 44.489934,25.387956 44.5,25.0625 C 44.4999,25.066314 44.5,25.048517 44.5,25 C 44.5,23.604463 43.395528,22.5 42,22.5 C 41.75189,22.5 41.483882,22.522406 41.25,22.59375 C 40.78506,22.74199 40.281376,22.529913 40.0625,22.09375 C 39.484792,20.87604 38.376244,19.941656 37.03125,19.625 C 36.748638,19.557964 36.509627,19.370391 36.377332,19.111815 C 36.245038,18.85324 36.232763,18.549662 36.34375,18.28125 C 36.45659,18.014613 36.5,17.757331 36.5,17.5 C 36.5,16.380466 35.619534,15.5 34.5,15.5 C 33.832472,15.5 33.236937,15.801337 32.875,16.28125 C 32.696154,16.518055 32.420653,16.662315 32.124147,16.674417 C 31.827641,16.686519 31.5413,16.565192 31.34375,16.34375 C 30.597946,15.508149 29.663841,14.838039 28.625,14.34375 C 28.361992,14.216445 28.16852,13.979622 28.096235,13.696507 C 28.02395,13.413391 28.080212,13.112806 28.25,12.875 C 28.407563,12.64691 28.5,12.327139 28.5,12 C 28.5,11.156466 27.843533,10.5 27,10.5 z "/>
    <path style="opacity:1;color:black;fill:url(#linearGradient2954);fill-opacity:1;fill-rule:nonzero;stroke:none;stroke-width:1;stroke-linecap:butt;stroke-linejoin:miter;marker:none;marker-start:none;marker-mid:none;marker-end:none;stroke-miterlimit:4;stroke-dasharray:none;stroke-dashoffset:0;stroke-opacity:1;visibility:visible;display:inline;overflow:visible" d="M 13.076999,24.88047 C 14.182509,25.19633 17.625382,24.24875 17.625382,24.24875 C 17.625382,24.24875 19.504749,26.254461 21.352529,26.522941 C 23.20031,26.791422 25.016504,25.322674 25.016504,25.322674 C 25.016504,25.322674 23.184517,26.459769 21.352529,25.891222 C 19.520542,25.322674 17.688554,23.048482 17.688554,23.048482 C 17.688554,23.048482 15.019538,24.390887 13.898235,24.375094 C 12.776932,24.359301 13.203343,22.98531 13.203343,22.98531 C 13.203343,22.98531 11.971489,24.564609 13.076999,24.88047 z " id="path2045" sodipodi:nodetypes="ccscscscs"/>
    <path style="opacity:1;color:black;fill:white;fill-opacity:0.36979167;fill-rule:nonzero;stroke:none;stroke-width:1;stroke-linecap:butt;stroke-linejoin:miter;marker:none;marker-start:none;marker-mid:none;marker-end:none;stroke-miterlimit:4;stroke-dasharray:none;stroke-dashoffset:0;stroke-opacity:1;visibility:visible;display:inline;overflow:visible" d="M 26.813077,16.783748 C 28.675301,16.382086 30.371066,16.895951 31.762825,19.081845 C 31.762825,19.081845 31.055718,16.827942 29.818281,16.253418 C 28.580844,15.678894 26.813077,16.783748 26.813077,16.783748 z " id="path2047" sodipodi:nodetypes="ccsc"/>
    <path sodipodi:nodetypes="ccsc" id="path2934" d="M 18.025683,19.506745 C 19.068498,18.297967 20.302976,17.979504 21.887488,19.287026 C 21.887488,19.287026 20.71217,17.605939 19.74672,17.660869 C 18.781268,17.715799 18.025683,19.506745 18.025683,19.506745 z " style="opacity:1;color:black;fill:white;fill-opacity:0.453125;fill-rule:nonzero;stroke:none;stroke-width:1;stroke-linecap:butt;stroke-linejoin:miter;marker:none;marker-start:none;marker-mid:none;marker-end:none;stroke-miterlimit:4;stroke-dasharray:none;stroke-dashoffset:0;stroke-opacity:1;visibility:visible;display:inline;overflow:visible"/>
    <path sodipodi:nodetypes="ccsc" id="path2936" d="M 39.243071,23.027281 C 38.433229,24.751626 36.996328,25.788444 34.414227,25.569627 C 34.414227,25.569627 36.635242,26.374098 37.842453,25.738511 C 39.049663,25.102924 39.243071,23.027281 39.243071,23.027281 z " style="opacity:1;color:black;fill:#838383;fill-opacity:1;fill-rule:nonzero;stroke:none;stroke-width:1;stroke-linecap:butt;stroke-linejoin:miter;marker:none;marker-start:none;marker-mid:none;marker-end:none;stroke-miterlimit:4;stroke-dasharray:none;stroke-dashoffset:0;stroke-opacity:1;visibility:visible;display:inline;overflow:visible"/>
    <path sodipodi:nodetypes="ccscscscs" id="path2938" d="M 32.931167,22.548546 C 32.146407,22.772763 30.078902,22.288342 30.078902,22.288342 C 30.078902,22.288342 29.058528,23.586634 27.056679,23.714475 C 25.733929,23.798947 24.518503,21.607578 24.518503,21.607578 C 24.518503,21.607578 26.069937,23.4814 27.370397,23.07781 C 28.670856,22.674219 29.657597,21.248086 29.657597,21.248086 C 29.657597,21.248086 31.552232,22.201009 32.348203,22.189798 C 33.144174,22.178588 33.594403,21.1405 33.594403,21.1405 C 33.594403,21.1405 33.715927,22.324328 32.931167,22.548546 z " style="opacity:1;color:black;fill:url(#linearGradient2946);fill-opacity:1.0;fill-rule:nonzero;stroke:none;stroke-width:1;stroke-linecap:butt;stroke-linejoin:miter;marker:none;marker-start:none;marker-mid:none;marker-end:none;stroke-miterlimit:4;stroke-dasharray:none;stroke-dashoffset:0;stroke-opacity:1;visibility:visible;display:inline;overflow:visible"/>
    <g id="g2146" transform="translate(8,2)">
      <g style="display:inline" transform="matrix(1.071946e-2,0,0,9.024553e-3,35.41685,39.41802)" id="g6707">
        <rect style="opacity:0.40206185;color:black;fill:url(#linearGradient2161);fill-opacity:1;fill-rule:nonzero;stroke:none;stroke-width:1;stroke-linecap:round;stroke-linejoin:miter;marker:none;marker-start:none;marker-mid:none;marker-end:none;stroke-miterlimit:4;stroke-dasharray:none;stroke-dashoffset:0;stroke-opacity:1;visibility:visible;display:inline;overflow:visible" id="rect6709" width="1339.6335" height="478.35718" x="-1559.2523" y="-150.69685"/>
        <path style="opacity:0.40206185;color:black;fill:url(#radialGradient2163);fill-opacity:1;fill-rule:nonzero;stroke:none;stroke-width:1;stroke-linecap:round;stroke-linejoin:miter;marker:none;marker-start:none;marker-mid:none;marker-end:none;stroke-miterlimit:4;stroke-dasharray:none;stroke-dashoffset:0;stroke-opacity:1;visibility:visible;display:inline;overflow:visible" d="M -219.61876,-150.68038 C -219.61876,-150.68038 -219.61876,327.65041 -219.61876,327.65041 C -76.744594,328.55086 125.78146,220.48075 125.78138,88.454235 C 125.78138,-43.572302 -33.655436,-150.68036 -219.61876,-150.68038 z " id="path6711" sodipodi:nodetypes="cccc"/>
        <path sodipodi:nodetypes="cccc" id="path6713" d="M -1559.2523,-150.68038 C -1559.2523,-150.68038 -1559.2523,327.65041 -1559.2523,327.65041 C -1702.1265,328.55086 -1904.6525,220.48075 -1904.6525,88.454235 C -1904.6525,-43.572302 -1745.2157,-150.68036 -1559.2523,-150.68038 z " style="opacity:0.40206185;color:black;fill:url(#radialGradient2165);fill-opacity:1;fill-rule:nonzero;stroke:none;stroke-width:1;stroke-linecap:round;stroke-linejoin:miter;marker:none;marker-start:none;marker-mid:none;marker-end:none;stroke-miterlimit:4;stroke-dasharray:none;stroke-dashoffset:0;stroke-opacity:1;visibility:visible;display:inline;overflow:visible"/>
      </g>
      <g id="g3952" transform="matrix(1.071946e-2,0,0,9.024553e-3,35.41685,39.41802)" style="display:inline">
        <rect y="-150.69685" x="-1559.2523" height="478.35718" width="1339.6335" id="rect3954" style="opacity:0.40206185;color:black;fill:url(#linearGradient2167);fill-opacity:1;fill-rule:nonzero;stroke:none;stroke-width:1;stroke-linecap:round;stroke-linejoin:miter;marker:none;marker-start:none;marker-mid:none;marker-end:none;stroke-miterlimit:4;stroke-dasharray:none;stroke-dashoffset:0;stroke-opacity:1;visibility:visible;display:inline;overflow:visible"/>
        <path sodipodi:nodetypes="cccc" id="path3956" d="M -219.61876,-150.68038 C -219.61876,-150.68038 -219.61876,327.65041 -219.61876,327.65041 C -76.744594,328.55086 125.78146,220.48075 125.78138,88.454235 C 125.78138,-43.572302 -33.655436,-150.68036 -219.61876,-150.68038 z " style="opacity:0.40206185;color:black;fill:url(#radialGradient2169);fill-opacity:1;fill-rule:nonzero;stroke:none;stroke-width:1;stroke-linecap:round;stroke-linejoin:miter;marker:none;marker-start:none;marker-mid:none;marker-end:none;stroke-miterlimit:4;stroke-dasharray:none;stroke-dashoffset:0;stroke-opacity:1;visibility:visible;display:inline;overflow:visible"/>
        <path style="opacity:0.40206185;color:black;fill:url(#radialGradient2171);fill-opacity:1;fill-rule:nonzero;stroke:none;stroke-width:1;stroke-linecap:round;stroke-linejoin:miter;marker:none;marker-start:none;marker-mid:none;marker-end:none;stroke-miterlimit:4;stroke-dasharray:none;stroke-dashoffset:0;stroke-opacity:1;visibility:visible;display:inline;overflow:visible" d="M -1559.2523,-150.68038 C -1559.2523,-150.68038 -1559.2523,327.65041 -1559.2523,327.65041 C -1702.1265,328.55086 -1904.6525,220.48075 -1904.6525,88.454235 C -1904.6525,-43.572302 -1745.2157,-150.68036 -1559.2523,-150.68038 z " id="path3958" sodipodi:nodetypes="cccc"/>
      </g>
      <path style="fill:#f57900;fill-opacity:1;fill-rule:nonzero;stroke:#ce5c00;stroke-width:1.00000095;stroke-miterlimit:4;stroke-dasharray:none;stroke-opacity:1" d="M 34.129575,38.746844 L 26.907802,24.192027 C 26.700226,23.787726 26.324626,23.563115 25.906319,23.563115 C 25.488012,23.563115 25.110483,23.832648 24.899754,24.236948 L 17.73176,38.791768 C 17.563035,39.151146 17.561107,39.645291 17.768859,40.004669 C 17.976611,40.364047 18.310556,40.543736 18.728863,40.543736 L 33.118628,40.543736 C 33.536935,40.543736 33.914288,40.319125 34.083014,39.959746 C 34.293568,39.600368 34.29532,39.151146 34.129575,38.746844 z " id="path6485" inkscape:r_cx="true" inkscape:r_cy="true"/>
      <path inkscape:r_cy="true" inkscape:r_cx="true" id="path6496" d="M 20.651604,37.942797 C 20.542454,38.13588 20.650222,38.290346 20.83086,38.290346 L 31.018845,38.290346 C 31.199484,38.290346 31.308481,38.13588 31.200866,37.942797 L 26.075469,27.670808 C 25.967853,27.477726 25.823344,27.477726 25.75032,27.670808 L 20.651604,37.942797 z " style="fill:#fcaf3e;fill-rule:nonzero;stroke:none;stroke-miterlimit:4"/>
      <path style="opacity:0.5;fill:none;fill-opacity:1;fill-rule:nonzero;stroke:url(#linearGradient2173);stroke-width:1.00000095;stroke-miterlimit:4;stroke-dasharray:none;stroke-opacity:1" d="M 32.6289,38.067594 L 26.60991,25.529232 C 26.364213,25.00794 26.276088,24.528189 25.9027,24.528189 C 25.581556,24.528189 25.413525,25.084268 25.181451,25.576325 L 19.101492,38.042444 C 18.770216,38.72129 18.547223,39.085739 18.706677,39.384525 C 18.866129,39.683312 19.133358,39.47954 19.889813,39.49903 L 31.852565,39.561529 C 32.556811,39.571274 33.152948,39.761219 33.282525,39.462432 C 33.444214,39.163645 32.93794,38.676592 32.6289,38.067594 z " id="path1325" sodipodi:nodetypes="ccsccscccc" inkscape:r_cx="true" inkscape:r_cy="true"/>
      <g style="fill:#121312;fill-opacity:1;fill-rule:nonzero;stroke:black;stroke-width:2.45324564;stroke-miterlimit:4" transform="matrix(0.339351,0,0,0.370268,17.78706,23.64564)" id="g6498" inkscape:r_cx="true" inkscape:r_cy="true">
        <path style="fill:#121312;fill-opacity:1;stroke:none" d="M 22.810356,35.833787 C 21.482134,35.130969 21.104052,33.568631 21.940765,32.24041 C 22.841841,30.810018 24.340642,30.377046 25.771035,31.133927 C 27.201427,31.890808 27.43953,33.242849 26.640625,34.727304 C 25.803912,36.055525 24.240748,36.590668 22.810356,35.833787 L 22.810356,35.833787 z M 23.428093,28.231254 L 21.248844,19.696786 L 27.332546,19.816143 L 25.023066,28.08366 L 23.428093,28.231254 z " id="path6500" inkscape:r_cx="true" inkscape:r_cy="true" sodipodi:nodetypes="csscccccccc"/>
      </g>
    </g>
  </g>
</svg>
