<?xml version="1.0" encoding="UTF-8" standalone="no"?>
<!-- Created with Inkscape (http://www.inkscape.org/) -->
<svg xmlns:dc="http://purl.org/dc/elements/1.1/" xmlns:cc="http://web.resource.org/cc/" xmlns:rdf="http://www.w3.org/1999/02/22-rdf-syntax-ns#" xmlns:svg="http://www.w3.org/2000/svg" xmlns="http://www.w3.org/2000/svg" xmlns:xlink="http://www.w3.org/1999/xlink" xmlns:sodipodi="http://sodipodi.sourceforge.net/DTD/sodipodi-0.dtd" xmlns:inkscape="http://www.inkscape.org/namespaces/inkscape" width="48px" height="48px" id="svg4289" sodipodi:version="0.32" inkscape:version="0.43+0.44pre0" sodipodi:docbase="/home/andreas/project/gnome-icon-theme/scalable/categories" sodipodi:docname="preferences-desktop-accessability.svg" inkscape:export-filename="/home/andreas/project/gnome-icon-theme/scalable/categories/preferences-desktop-accessability.png" inkscape:export-xdpi="90" inkscape:export-ydpi="90">
  <defs id="defs4291">
    <linearGradient id="linearGradient7668">
      <stop style="stop-color:#92b4da;stop-opacity:1" offset="0" id="stop7670"/>
      <stop style="stop-color:#5e91c8;stop-opacity:1" offset="1" id="stop7672"/>
    </linearGradient>
    <linearGradient id="linearGradient5048">
      <stop style="stop-color:black;stop-opacity:0;" offset="0" id="stop5050"/>
      <stop id="stop5056" offset="0.5" style="stop-color:black;stop-opacity:1;"/>
      <stop style="stop-color:black;stop-opacity:0;" offset="1" id="stop5052"/>
    </linearGradient>
    <linearGradient inkscape:collect="always" xlink:href="#linearGradient7668" id="linearGradient7674" x1="19.0625" y1="8.875" x2="29" y2="22.5" gradientUnits="userSpaceOnUse"/>
  </defs>
  <g id="layer1" inkscape:label="Layer 1" inkscape:groupmode="layer">
    <path style="opacity:0.2;fill:#2e3436;fill-opacity:1;stroke:none;stroke-width:0.99999994;stroke-linecap:round;stroke-linejoin:miter;stroke-miterlimit:4;stroke-dasharray:none;stroke-opacity:1" d="M 20.75,4 C 17.640376,4 15.9375,6.453502 15.9375,8.9375 L 15.9375,30.9375 L 26.90625,30.9375 L 34.46875,38.125 L 40,34.625 L 37.84375,31.21875 L 35.5625,32.84375 L 28.6875,25.9375 L 20.9375,25.875 L 20.9375,23.9375 L 28,23.9375 L 28,18.9375 L 20.9375,18.9375 L 20.96875,13.875 C 23.947211,13.837934 25.875,11.654225 25.875,8.9375 C 25.875,6.238625 23.796496,4 20.75,4 z M 15,20.75 C 10.470558,22.561068 6.8749999,26.880676 6.9374999,32.71875 C 7.0126552,39.738945 13.012884,46.20337 20.1875,46.0625 C 26.491285,45.937501 29.885238,42.806562 32.15625,39.09375 L 28.5,35.53125 C 27.094531,38.6034 23.660991,40.96875 20,40.96875 C 15.032003,40.968751 11.8125,36.01666 11.8125,32.84375 C 11.8125,30.242002 13.164217,28.049875 15,26.4375 L 15,20.75 z " id="path8564" sodipodi:nodetypes="cccccccccccccccszcssccsscc"/>
    <path style="opacity:1;fill:#558bc5;fill-opacity:1;stroke:#13396e;stroke-width:0.99999994;stroke-linecap:round;stroke-linejoin:miter;stroke-miterlimit:4;stroke-dasharray:none;stroke-opacity:1" d="M 15.5,20.500001 C 11.345558,22.623569 8.5000001,26.880956 8.5,31.78153 C 8.5,38.802126 14.324001,44.500004 21.5,44.500002 C 26.241285,44.500002 30.385238,42.006444 32.65625,38.293632 L 29.6875,35.3586 C 28.282031,38.430752 25.160991,40.586626 21.5,40.586626 C 16.532003,40.586626 12.5,36.64194 12.5,31.78153 C 12.5,29.179781 13.664217,26.851229 15.5,25.238854 L 15.5,20.500001 z " id="path6720"/>
    <path style="opacity:0.45;fill:none;fill-opacity:1;stroke:white;stroke-width:0.9999997;stroke-linecap:round;stroke-linejoin:miter;stroke-miterlimit:4;stroke-dasharray:none;stroke-opacity:1" d="M 14.5,22.187489 C 11.475025,24.294764 9.5000001,28.019494 9.5,31.897107 C 9.5,38.301891 14.876001,43.49998 21.5,43.499979 C 25.608129,43.499979 29.211633,41.500531 31.375,38.453938 L 29.90625,37.094227 C 28.128645,39.778233 25.038613,41.566167 21.5,41.566167 C 15.980001,41.566168 11.5,37.234426 11.5,31.897107 C 11.5,29.197433 12.652799,26.762596 14.5,25.007902 L 14.5,22.187489 z " id="path6724" sodipodi:nodetypes="cssccsscc" inkscape:export-xdpi="90" inkscape:export-ydpi="90"/>
    <path style="opacity:1;fill:url(#linearGradient7674);fill-opacity:1.0;stroke:#204a87;stroke-width:1;stroke-linecap:round;stroke-linejoin:round;stroke-miterlimit:4;stroke-dasharray:none;stroke-opacity:1" d="M 22,3.5 C 19.516004,3.5 17.5,5.5160022 17.5,8 L 17.5,29.486739 L 28.483185,29.486739 L 35.467774,36.5 L 40.5,33.553046 L 38.954219,31.045781 L 36.505362,32.46875 L 29.487976,25.513261 L 21.486607,25.513261 L 21.486607,22.5 L 28.5,22.5 L 28.5,18.5 L 21.486607,18.5 L 21.531382,12.5 C 24.509845,12.462934 26.5,10.716725 26.5,8 C 26.5,5.3011255 24.483996,3.4999999 22,3.5 z " id="path5642" sodipodi:nodetypes="ccccccccccccccczc"/>
    <path style="opacity:0.3;fill:none;fill-opacity:1;stroke:white;stroke-width:1;stroke-linecap:round;stroke-linejoin:miter;stroke-miterlimit:4;stroke-dasharray:none;stroke-opacity:1" d="M 22,4.5 C 20.067999,4.5 18.5,6.0680004 18.5,8 L 18.5,28.5 L 28.885684,28.5 L 35.59467,35.266735 L 39.081758,33.221288 L 38.567227,32.420781 L 36.286612,33.682138 L 29.122462,26.5 L 20.512627,26.5 L 20.512627,21.5 L 27.506631,21.5 L 27.506631,19.499365 L 20.5,19.499365 L 20.51046,11.517857 C 24.361651,11.523809 25.5,9.9940741 25.5,8 C 25.5,5.9961 23.932001,4.4999999 22,4.5 z " id="path5661" sodipodi:nodetypes="cccccccccccccccsc"/>
  </g>
</svg>
