<?xml version="1.0" encoding="UTF-8" standalone="no"?>
<!-- Created with Inkscape (http://www.inkscape.org/) -->
<svg xmlns:dc="http://purl.org/dc/elements/1.1/" xmlns:cc="http://web.resource.org/cc/" xmlns:rdf="http://www.w3.org/1999/02/22-rdf-syntax-ns#" xmlns:svg="http://www.w3.org/2000/svg" xmlns="http://www.w3.org/2000/svg" xmlns:xlink="http://www.w3.org/1999/xlink" xmlns:sodipodi="http://sodipodi.sourceforge.net/DTD/sodipodi-0.dtd" xmlns:inkscape="http://www.inkscape.org/namespaces/inkscape" width="48" height="48" id="svg1307" sodipodi:version="0.32" inkscape:version="0.44" version="1.0" sodipodi:docbase="/home/lapo/Icone/cvs/gnome-icon-theme/scalable/status" sodipodi:docname="appointment-soon.svg" inkscape:output_extension="org.inkscape.output.svg.inkscape">
  <defs id="defs1309">
    <linearGradient inkscape:collect="always" id="linearGradient2789">
      <stop style="stop-color:white;stop-opacity:1;" offset="0" id="stop2791"/>
      <stop style="stop-color:white;stop-opacity:0;" offset="1" id="stop2793"/>
    </linearGradient>
    <linearGradient inkscape:collect="always" id="linearGradient4493">
      <stop style="stop-color:black;stop-opacity:1;" offset="0" id="stop4495"/>
      <stop style="stop-color:black;stop-opacity:0;" offset="1" id="stop4497"/>
    </linearGradient>
    <radialGradient inkscape:collect="always" xlink:href="#linearGradient4493" id="radialGradient4499" cx="16" cy="27.875" fx="16" fy="27.875" r="12.125" gradientTransform="matrix(1.773196,0,0,0.618557,-4.871134,23.25774)" gradientUnits="userSpaceOnUse"/>
    <linearGradient id="linearGradient2322">
      <stop style="stop-color:white;stop-opacity:1;" offset="0" id="stop2324"/>
      <stop style="stop-color:#c1c7bc;stop-opacity:1;" offset="1" id="stop2326"/>
    </linearGradient>
    <linearGradient id="linearGradient2276">
      <stop style="stop-color:#f57900;stop-opacity:1;" offset="0" id="stop2278"/>
      <stop style="stop-color:#fcaf3e;stop-opacity:1;" offset="1" id="stop2280"/>
    </linearGradient>
    <radialGradient inkscape:collect="always" xlink:href="#linearGradient2276" id="radialGradient2284" cx="10.5" cy="10.498917" fx="10.5" fy="10.498917" r="10.495841" gradientTransform="matrix(2.147084,4.691471e-7,-4.692465e-7,2.147071,1.426465,0.43105)" gradientUnits="userSpaceOnUse"/>
    <linearGradient inkscape:collect="always" xlink:href="#linearGradient2276" id="linearGradient2296" x1="7.2744212" y1="7.1350532" x2="9.814188" y2="5.6588697" gradientUnits="userSpaceOnUse" gradientTransform="matrix(2.742212,0,0,2.838566,-4.403543,-5.255819)"/>
    <linearGradient inkscape:collect="always" xlink:href="#linearGradient2789" id="linearGradient2797" x1="25.593685" y1="20.92672" x2="26.1399" y2="51.027462" gradientUnits="userSpaceOnUse"/>
    <radialGradient inkscape:collect="always" xlink:href="#linearGradient2322" id="radialGradient2806" cx="23.965719" cy="24.92437" fx="23.965719" fy="24.92437" r="17.709194" gradientTransform="matrix(1.06539,0,0,1.065439,-1.567128,-7.700173)" gradientUnits="userSpaceOnUse"/>
  </defs>
  <g id="layer1" inkscape:label="Layer 1" inkscape:groupmode="layer">
    <path sodipodi:type="arc" style="opacity:0.65979381;color:black;fill:url(#radialGradient4499);fill-opacity:1;fill-rule:nonzero;stroke:none;stroke-width:1;stroke-linecap:butt;stroke-linejoin:miter;marker:none;marker-start:none;marker-mid:none;marker-end:none;stroke-miterlimit:4;stroke-dasharray:none;stroke-dashoffset:0;stroke-opacity:1;visibility:visible;display:inline;overflow:visible" id="path4491" sodipodi:cx="16" sodipodi:cy="27.875" sodipodi:rx="12.125" sodipodi:ry="3.5" d="M 45.000003,40.5 C 45.000004,44.642135 35.374125,48 23.500002,48 C 11.625879,48 2.0000005,44.642135 2.0000005,40.5 C 2.0000005,36.357864 11.625879,33 23.500002,33 C 35.374125,33 45.000004,36.357864 45.000004,40.5 L 45.000003,40.5 z "/>
    <path sodipodi:type="arc" style="opacity:1;fill:url(#radialGradient2806);fill-opacity:1.0;stroke:#babdb6;stroke-width:1.00000048;stroke-linecap:round;stroke-linejoin:round;stroke-miterlimit:4;stroke-dasharray:none;stroke-opacity:1" id="path2286" sodipodi:cx="8.6624146" sodipodi:cy="10.078017" sodipodi:rx="6.4298334" sodipodi:ry="7.0996075" d="M 41.17491,22.980241 C 41.17491,32.485067 33.470092,40.190252 23.965716,40.190252 C 14.46134,40.190252 6.7565222,32.485067 6.7565222,22.980241 C 6.7565222,13.475414 14.46134,5.7702302 23.965716,5.7702302 C 33.470092,5.7702302 41.17491,13.475414 41.17491,22.980241 L 41.17491,22.980241 z "/>
    <path style="opacity:0.11855672;fill:black;fill-opacity:1;stroke:none;stroke-width:1.00000048;stroke-linecap:round;stroke-linejoin:round;stroke-miterlimit:4;stroke-dasharray:none;stroke-opacity:1" d="M 23.96875,5.3393085 C 14.464374,5.3393085 6.75,13.021982 6.75,22.52681 C 6.75,22.912451 6.7875273,23.303738 6.8125,23.68306 C 7.4129186,14.722893 14.856864,7.6518085 23.96875,7.6518085 C 33.080637,7.6518085 40.524581,14.722894 41.125,23.68306 C 41.149973,23.303738 41.1875,22.912451 41.1875,22.52681 C 41.1875,13.021983 33.473127,5.3393084 23.96875,5.3393085 z " id="path2799"/>
    <path style="opacity:1;fill:url(#radialGradient2284);fill-opacity:1;stroke:#ce5c00;stroke-width:1.00000107;stroke-linecap:round;stroke-linejoin:round;stroke-miterlimit:4;stroke-dasharray:none;stroke-opacity:1" d="M 23.165684,1.5068059 C 11.702548,1.9429331 2.5000026,11.407295 2.5000026,22.975303 C 2.5000026,34.820942 12.123906,44.443799 23.97084,44.443799 C 35.817772,44.443799 45.441678,34.820946 45.441678,22.975303 C 45.441678,11.129661 35.817772,1.5068058 23.97084,1.5068059 C 23.693177,1.5068059 23.440799,1.4963388 23.165684,1.5068059 z M 23.098587,5.8005051 C 23.391363,5.7856631 23.674395,5.8005051 23.97084,5.8005051 C 33.457129,5.8005051 41.14751,13.49846 41.14751,22.975303 C 41.14751,32.452145 33.457129,40.150099 23.97084,40.150099 C 14.48455,40.150099 6.7941703,32.452145 6.7941703,22.975303 C 6.7941703,13.79461 14.022552,6.2606052 23.098587,5.8005051 z " id="path1391"/>
    <path style="fill:url(#linearGradient2296);fill-opacity:1;fill-rule:evenodd;stroke:#ce5c00;stroke-width:1;stroke-linecap:butt;stroke-linejoin:miter;stroke-opacity:1;stroke-miterlimit:4;stroke-dasharray:none" d="M 24.493279,24.492024 L 24.498392,8.5427514 C 19.056113,8.7363025 15.099477,10.659248 11.948663,14.987783 L 24.493279,24.492024 z " id="path2288" sodipodi:nodetypes="cccc"/>
    <path sodipodi:type="arc" style="opacity:0.51030928;color:black;fill:none;fill-opacity:1;fill-rule:evenodd;stroke:url(#linearGradient2797);stroke-width:0.97099239;stroke-linecap:round;stroke-linejoin:round;marker:none;marker-start:none;marker-mid:none;marker-end:none;stroke-miterlimit:4;stroke-dasharray:none;stroke-dashoffset:0;stroke-opacity:1;visibility:visible;display:inline;overflow:visible" id="path2787" sodipodi:cx="23.5" sodipodi:cy="24.75" sodipodi:rx="19.875" sodipodi:ry="19.875" d="M 43.375 24.75 A 19.875 19.875 0 1 1  3.625,24.75 A 19.875 19.875 0 1 1  43.375 24.75 z" transform="matrix(1.029875,0,0,1.029875,-0.233294,-2.458137)"/>
    <path style="fill:#555753;fill-opacity:1;fill-rule:evenodd;stroke:#2e3436;stroke-width:1;stroke-linecap:round;stroke-linejoin:round;stroke-opacity:1;stroke-miterlimit:4;stroke-dasharray:none" d="M 11.623626,14.879722 L 23.204863,26.812341 L 35.561623,25.437341 L 24.3617,23.762517 L 11.623626,14.879722 z " id="path2312" sodipodi:nodetypes="ccccc"/>
    <path sodipodi:type="arc" style="opacity:1;color:black;fill:#555753;fill-opacity:1;fill-rule:evenodd;stroke:#2e3436;stroke-width:1;stroke-linecap:round;stroke-linejoin:round;marker:none;marker-start:none;marker-mid:none;marker-end:none;stroke-miterlimit:4;stroke-dasharray:none;stroke-dashoffset:0;stroke-opacity:1;visibility:visible;display:inline;overflow:visible" id="path2785" sodipodi:cx="23.5625" sodipodi:cy="25.0625" sodipodi:rx="2.6875" sodipodi:ry="2.6875" d="M 26.25 25.0625 A 2.6875 2.6875 0 1 1  20.875,25.0625 A 2.6875 2.6875 0 1 1  26.25 25.0625 z"/>
    <path sodipodi:type="arc" style="opacity:0.47422683;color:black;fill:white;fill-opacity:1;fill-rule:evenodd;stroke:none;stroke-width:1;stroke-linecap:round;stroke-linejoin:round;marker:none;marker-start:none;marker-mid:none;marker-end:none;stroke-miterlimit:4;stroke-dasharray:none;stroke-dashoffset:0;stroke-opacity:1;visibility:visible;display:inline;overflow:visible" id="path2808" sodipodi:cx="22.25" sodipodi:cy="23.65625" sodipodi:rx="1.25" sodipodi:ry="1.25" d="M 23.5 23.65625 A 1.25 1.25 0 1 1  21,23.65625 A 1.25 1.25 0 1 1  23.5 23.65625 z" transform="matrix(-0.6,0,0,-0.6,36.49775,38.66472)"/>
  </g>
</svg>
