<?xml version="1.0" encoding="UTF-8" standalone="no"?>
<!-- Created with Inkscape (http://www.inkscape.org/) -->
<svg xmlns:dc="http://purl.org/dc/elements/1.1/" xmlns:cc="http://web.resource.org/cc/" xmlns:rdf="http://www.w3.org/1999/02/22-rdf-syntax-ns#" xmlns:svg="http://www.w3.org/2000/svg" xmlns="http://www.w3.org/2000/svg" xmlns:xlink="http://www.w3.org/1999/xlink" xmlns:sodipodi="http://sodipodi.sourceforge.net/DTD/sodipodi-0.dtd" xmlns:inkscape="http://www.inkscape.org/namespaces/inkscape" width="48px" height="48px" id="svg1306" sodipodi:version="0.32" inkscape:version="0.44" sodipodi:docbase="/home/lapo/Icone/cvs/gnome-icon-theme/scalable/status" sodipodi:docname="weather-clear-night.svg" inkscape:output_extension="org.inkscape.output.svg.inkscape">
  <defs id="defs1308">
    <linearGradient id="linearGradient5199">
      <stop style="stop-color:#7e7878;stop-opacity:0.09708738;" offset="0" id="stop5201"/>
      <stop style="stop-color:#7e7878;stop-opacity:1;" offset="1" id="stop5203"/>
    </linearGradient>
    <linearGradient inkscape:collect="always" id="linearGradient5191">
      <stop style="stop-color:#dadad9;stop-opacity:1;" offset="0" id="stop5193"/>
      <stop style="stop-color:#dadad9;stop-opacity:0;" offset="1" id="stop5195"/>
    </linearGradient>
    <linearGradient inkscape:collect="always" id="linearGradient5164">
      <stop style="stop-color:white;stop-opacity:1;" offset="0" id="stop5166"/>
      <stop style="stop-color:white;stop-opacity:0;" offset="1" id="stop5168"/>
    </linearGradient>
    <linearGradient id="linearGradient5154">
      <stop style="stop-color:#d9d8d6;stop-opacity:1;" offset="0" id="stop5156"/>
      <stop style="stop-color:#b5b4b0;stop-opacity:1;" offset="1" id="stop5158"/>
    </linearGradient>
    <linearGradient inkscape:collect="always" id="linearGradient5138">
      <stop style="stop-color:white;stop-opacity:1;" offset="0" id="stop5140"/>
      <stop style="stop-color:white;stop-opacity:0;" offset="1" id="stop5142"/>
    </linearGradient>
    <radialGradient inkscape:collect="always" xlink:href="#linearGradient5138" id="radialGradient5144" cx="23.071428" cy="11.011853" fx="23.071428" fy="11.011853" r="22.856438" gradientUnits="userSpaceOnUse" gradientTransform="matrix(3.373032,-2.744236e-17,2.744127e-17,3.373032,-54.74925,-26.13148)"/>
    <radialGradient inkscape:collect="always" xlink:href="#linearGradient5154" id="radialGradient5160" cx="23.071428" cy="6.8925552" fx="23.071428" fy="6.8925552" r="22.812966" gradientUnits="userSpaceOnUse" gradientTransform="matrix(1.440625,4.174343e-16,-4.174186e-16,1.440625,-10.16586,-3.037035)"/>
    <radialGradient inkscape:collect="always" xlink:href="#linearGradient5164" id="radialGradient5170" cx="23.688078" cy="23.42804" fx="23.688078" fy="23.42804" r="22.45064" gradientUnits="userSpaceOnUse"/>
    <radialGradient inkscape:collect="always" xlink:href="#linearGradient5191" id="radialGradient5197" cx="22.288452" cy="34.537094" fx="22.288452" fy="34.537094" r="9.9375" gradientTransform="matrix(1.498147,2.619729e-16,-1.977154e-16,1.130677,-11.10293,-5.288817)" gradientUnits="userSpaceOnUse"/>
    <radialGradient inkscape:collect="always" xlink:href="#linearGradient5199" id="radialGradient5205" cx="24.125" cy="9.7349367" fx="24.125" fy="9.7349367" r="15.75" gradientTransform="matrix(1.652014,3.935566e-16,-2.592475e-16,1.088231,-15.72984,3.156134)" gradientUnits="userSpaceOnUse"/>
  </defs>
  <g id="layer1" inkscape:label="Layer 1" inkscape:groupmode="layer">
    <path sodipodi:type="arc" style="opacity:1;color:black;fill:url(#radialGradient5170);fill-opacity:1;fill-rule:evenodd;stroke:none;stroke-width:1;stroke-linecap:round;stroke-linejoin:round;marker:none;marker-start:none;marker-mid:none;marker-end:none;stroke-miterlimit:4;stroke-dasharray:none;stroke-dashoffset:0;stroke-opacity:1;visibility:visible;display:inline;overflow:visible" id="path5162" sodipodi:cx="23.688078" sodipodi:cy="23.42804" sodipodi:rx="22.45064" sodipodi:ry="22.45064" d="M 46.138718 23.42804 A 22.45064 22.45064 0 1 1  1.2374382,23.42804 A 22.45064 22.45064 0 1 1  46.138718 23.42804 z" transform="translate(-0.146446,0.103554)"/>
    <path sodipodi:type="arc" style="opacity:1;color:black;fill:url(#radialGradient5160);fill-opacity:1.0;fill-rule:evenodd;stroke:#888a85;stroke-width:1.34021831;stroke-linecap:butt;stroke-linejoin:round;marker:none;marker-start:none;marker-mid:none;marker-end:none;stroke-miterlimit:4;stroke-dasharray:none;stroke-dashoffset:0;stroke-opacity:1;visibility:visible;display:inline;overflow:visible" id="path1314" sodipodi:cx="23.071428" sodipodi:cy="23.142857" sodipodi:rx="22.142857" sodipodi:ry="22.142857" d="M 45.214285 23.142857 A 22.142857 22.142857 0 1 1  0.9285717,23.142857 A 22.142857 22.142857 0 1 1  45.214285 23.142857 z" transform="matrix(0.746154,0,0,0.74614,6.850475,6.75386)"/>
    <path style="opacity:0.33146069;color:black;fill:url(#radialGradient5205);fill-opacity:1.0;fill-rule:evenodd;stroke:none;stroke-width:1;stroke-linecap:round;stroke-linejoin:round;marker:none;marker-start:none;marker-mid:none;marker-end:none;stroke-miterlimit:4;stroke-dasharray:none;stroke-dashoffset:0;stroke-opacity:1;visibility:visible;display:inline;overflow:visible" d="M 10.875,25 C 10.875,25 13.46875,26.21875 13.5,27.125 C 13.53125,28.03125 11.1875,27.4375 11,28.625 C 10.8125,29.8125 11.28125,31.84375 12.75,31.875 C 14.21875,31.90625 14.59375,29.4375 16.875,28.75 C 19.15625,28.0625 20.875,30.21875 21.875,29.125 C 22.875,28.03125 20.71875,26.5 20.875,24.375 C 21.03125,22.25 21.40625,22.65625 22.5,21.9375 C 23.59375,21.21875 24.002992,23.659882 25.25,21.5 C 26.455084,19.412734 22.71875,20.15625 22.875,18.75 C 23.03125,17.34375 23.96875,15.78125 25.875,15.875 C 27.78125,15.96875 30.5,19.125 30.5,19.125 C 31.711141,20.290263 30.538624,22.551401 31.125,24.125 C 31.813739,25.973301 33.708333,25.867429 35,25.875 C 35,25.875 33.09375,23.71875 33.375,22.375 C 33.65625,21.03125 34.75,19.6875 36.125,20.5 C 37.5,21.3125 38.875,25.625 38.875,25.625 L 39.875,21.25 L 37.75,16 C 37.75,16 34.71875,17.0625 31.375,16.375 C 28.03125,15.6875 27.6875,13.09375 24.375,13.25 C 21.0625,13.40625 20.75,16.71875 18.125,17 C 15.5,17.28125 14.75,15.84375 13.875,14.375 C 13,12.90625 14.625,11.125 14.625,11.125 L 8.375,19.625 L 10.875,25 z " id="path5152" sodipodi:nodetypes="cssssssszsscscsscccssssccc"/>
    <path sodipodi:type="arc" style="opacity:0.80898876;color:black;fill:none;fill-opacity:1.0;fill-rule:evenodd;stroke:url(#radialGradient5144);stroke-width:1.42716217;stroke-linecap:butt;stroke-linejoin:round;marker:none;marker-start:none;marker-mid:none;marker-end:none;stroke-miterlimit:4;stroke-dasharray:none;stroke-dashoffset:0;stroke-opacity:1;visibility:visible;display:inline;overflow:visible" id="path2044" sodipodi:cx="23.071428" sodipodi:cy="23.142857" sodipodi:rx="22.142857" sodipodi:ry="22.142857" d="M 45.214285 23.142857 A 22.142857 22.142857 0 1 1  0.9285717,23.142857 A 22.142857 22.142857 0 1 1  45.214285 23.142857 z" transform="matrix(0.700698,0,0,0.700684,7.903204,7.809815)"/>
    <path style="opacity:0.64606742;color:black;fill:url(#radialGradient5197);fill-opacity:1.0;fill-rule:evenodd;stroke:none;stroke-width:1;stroke-linecap:round;stroke-linejoin:round;marker:none;marker-start:none;marker-mid:none;marker-end:none;stroke-miterlimit:4;stroke-dasharray:none;stroke-dashoffset:0;stroke-opacity:1;visibility:visible;display:inline;overflow:visible" d="M 22.625,27 C 23.007135,28.589327 23.502663,29.611683 24,30.625 C 25.554528,30.484056 26.793411,29.711822 28,28.875 C 27.277042,30.383785 26.42809,31.808575 25.352252,33.082107 C 27.618218,33.963392 29.71881,33.769756 31.75,33.125 C 30.324705,34.318408 28.943255,35.239638 26.036612,35.521447 C 28.13482,36.154537 30.460391,36.883084 33.375,36 C 30.698118,37.546397 27.887042,38.71705 24.625,38.625 L 27.853553,38.579505 L 21.375,38.875 L 18,38.25 L 18.125,36.75 C 16.713692,36.907149 15.144785,36.118708 13.625,35.625 C 14.9905,35.019375 16.457606,34.540757 17.375,33.375 C 15.599574,33.025426 14.752843,31.747157 13.5,30.875 C 15.166662,31.12503 16.709775,32.116351 18.5,31.625 C 17.564728,29.041667 17.676825,26.458333 17.375,23.875 C 18.395975,26.083333 19.060572,28.291667 20.5,30.5 C 21.460276,29.774233 22.135647,28.549883 22.625,27 z " id="path5150" sodipodi:nodetypes="ccccccccccccccccccc"/>
    <path sodipodi:type="arc" style="opacity:0.33146067;color:black;fill:#bbbbb8;fill-opacity:1;fill-rule:evenodd;stroke:#888984;stroke-width:1.15470052;stroke-linecap:round;stroke-linejoin:round;marker:none;marker-start:none;marker-mid:none;marker-end:none;stroke-miterlimit:4;stroke-dasharray:none;stroke-dashoffset:0;stroke-opacity:1;visibility:visible;display:inline;overflow:visible" id="path4263" sodipodi:cx="21.625" sodipodi:cy="34.5" sodipodi:rx="2.25" sodipodi:ry="2.25" d="M 23.875 34.5 A 2.25 2.25 0 1 1  19.375,34.5 A 2.25 2.25 0 1 1  23.875 34.5 z" transform="matrix(1,0,0,0.75,0,8.769607)"/>
    <path sodipodi:type="arc" style="opacity:0.71910112;color:black;fill:#b2afad;fill-opacity:1;fill-rule:evenodd;stroke:none;stroke-width:1;stroke-linecap:round;stroke-linejoin:round;marker:none;marker-start:none;marker-mid:none;marker-end:none;stroke-miterlimit:4;stroke-dasharray:none;stroke-dashoffset:0;stroke-opacity:1;visibility:visible;display:inline;overflow:visible" id="path5207" sodipodi:cx="22.375" sodipodi:cy="21.75" sodipodi:rx="2.625" sodipodi:ry="2.3125" d="M 25 21.75 A 2.625 2.3125 0 1 1  19.75,21.75 A 2.625 2.3125 0 1 1  25 21.75 z"/>
    <path d="M 25 21.75 A 2.625 2.3125 0 1 1  19.75,21.75 A 2.625 2.3125 0 1 1  25 21.75 z" sodipodi:ry="2.3125" sodipodi:rx="2.625" sodipodi:cy="21.75" sodipodi:cx="22.375" id="path5209" style="opacity:0.71910113;color:black;fill:#b2afad;fill-opacity:1;fill-rule:evenodd;stroke:none;stroke-width:1;stroke-linecap:round;stroke-linejoin:round;marker:none;marker-start:none;marker-mid:none;marker-end:none;stroke-miterlimit:4;stroke-dasharray:none;stroke-dashoffset:0;stroke-opacity:1;visibility:visible;display:inline;overflow:visible" sodipodi:type="arc" transform="matrix(1.22619,0,0,1.22619,-10.09226,-10.31771)"/>
    <path transform="matrix(1.060177,0.61609,-0.61609,1.060177,4.459731,-11.05444)" sodipodi:type="arc" style="opacity:0.71910113;color:black;fill:#b2afad;fill-opacity:1;fill-rule:evenodd;stroke:none;stroke-width:1;stroke-linecap:round;stroke-linejoin:round;marker:none;marker-start:none;marker-mid:none;marker-end:none;stroke-miterlimit:4;stroke-dasharray:none;stroke-dashoffset:0;stroke-opacity:1;visibility:visible;display:inline;overflow:visible" id="path5211" sodipodi:cx="22.375" sodipodi:cy="21.75" sodipodi:rx="2.625" sodipodi:ry="2.3125" d="M 25 21.75 A 2.625 2.3125 0 1 1  19.75,21.75 A 2.625 2.3125 0 1 1  25 21.75 z"/>
    <path transform="matrix(0.398445,0.375367,-0.217478,0.387667,31.50244,6.347965)" sodipodi:type="arc" style="opacity:0.71910113;color:black;fill:#dfdedc;fill-opacity:1;fill-rule:evenodd;stroke:none;stroke-width:1;stroke-linecap:round;stroke-linejoin:round;marker:none;marker-start:none;marker-mid:none;marker-end:none;stroke-miterlimit:4;stroke-dasharray:none;stroke-dashoffset:0;stroke-opacity:1;visibility:visible;display:inline;overflow:visible" id="path5213" sodipodi:cx="22.375" sodipodi:cy="21.75" sodipodi:rx="2.625" sodipodi:ry="2.3125" d="M 25 21.75 A 2.625 2.3125 0 1 1  19.75,21.75 A 2.625 2.3125 0 1 1  25 21.75 z"/>
    <path d="M 25 21.75 A 2.625 2.3125 0 1 1  19.75,21.75 A 2.625 2.3125 0 1 1  25 21.75 z" sodipodi:ry="2.3125" sodipodi:rx="2.625" sodipodi:cy="21.75" sodipodi:cx="22.375" id="path5215" style="opacity:0.71910113;color:black;fill:#dfdedc;fill-opacity:1;fill-rule:evenodd;stroke:none;stroke-width:1;stroke-linecap:round;stroke-linejoin:round;marker:none;marker-start:none;marker-mid:none;marker-end:none;stroke-miterlimit:4;stroke-dasharray:none;stroke-dashoffset:0;stroke-opacity:1;visibility:visible;display:inline;overflow:visible" sodipodi:type="arc" transform="matrix(-9.424576e-2,0.266814,-0.228734,-2.18427e-2,38.6609,29.47153)" inkscape:transform-center-y="1.5541817" inkscape:transform-center-x="2.0330157"/>
    <path inkscape:transform-center-x="-0.61605544" inkscape:transform-center-y="2.5542712" transform="matrix(0.211478,0.199229,-0.115428,0.205758,34.19839,11.49557)" sodipodi:type="arc" style="opacity:0.71910113;color:black;fill:#dfdedc;fill-opacity:1;fill-rule:evenodd;stroke:none;stroke-width:1;stroke-linecap:round;stroke-linejoin:round;marker:none;marker-start:none;marker-mid:none;marker-end:none;stroke-miterlimit:4;stroke-dasharray:none;stroke-dashoffset:0;stroke-opacity:1;visibility:visible;display:inline;overflow:visible" id="path5217" sodipodi:cx="22.375" sodipodi:cy="21.75" sodipodi:rx="2.625" sodipodi:ry="2.3125" d="M 25 21.75 A 2.625 2.3125 0 1 1  19.75,21.75 A 2.625 2.3125 0 1 1  25 21.75 z"/>
    <path d="M 25 21.75 A 2.625 2.3125 0 1 1  19.75,21.75 A 2.625 2.3125 0 1 1  25 21.75 z" sodipodi:ry="2.3125" sodipodi:rx="2.625" sodipodi:cy="21.75" sodipodi:cx="22.375" id="path5219" style="opacity:0.71910113;color:black;fill:#f7f7f6;fill-opacity:1;fill-rule:evenodd;stroke:none;stroke-width:1;stroke-linecap:round;stroke-linejoin:round;marker:none;marker-start:none;marker-mid:none;marker-end:none;stroke-miterlimit:4;stroke-dasharray:none;stroke-dashoffset:0;stroke-opacity:1;visibility:visible;display:inline;overflow:visible" sodipodi:type="arc" transform="matrix(0.502196,-0.217849,0.270291,0.352881,2.662133,8.622118)"/>
    <path transform="matrix(0.301729,-0.130888,0.162396,0.212018,12.27059,8.635285)" sodipodi:type="arc" style="opacity:0.71910113;color:black;fill:#f7f7f6;fill-opacity:1;fill-rule:evenodd;stroke:none;stroke-width:1;stroke-linecap:round;stroke-linejoin:round;marker:none;marker-start:none;marker-mid:none;marker-end:none;stroke-miterlimit:4;stroke-dasharray:none;stroke-dashoffset:0;stroke-opacity:1;visibility:visible;display:inline;overflow:visible" id="path5221" sodipodi:cx="22.375" sodipodi:cy="21.75" sodipodi:rx="2.625" sodipodi:ry="2.3125" d="M 25 21.75 A 2.625 2.3125 0 1 1  19.75,21.75 A 2.625 2.3125 0 1 1  25 21.75 z" inkscape:transform-center-x="2.2304367"/>
    <path inkscape:transform-center-x="1.5718105" d="M 25 21.75 A 2.625 2.3125 0 1 1  19.75,21.75 A 2.625 2.3125 0 1 1  25 21.75 z" sodipodi:ry="2.3125" sodipodi:rx="2.625" sodipodi:cy="21.75" sodipodi:cx="22.375" id="path5223" style="opacity:0.71910113;color:black;fill:#f7f7f6;fill-opacity:1;fill-rule:evenodd;stroke:none;stroke-width:1;stroke-linecap:round;stroke-linejoin:round;marker:none;marker-start:none;marker-mid:none;marker-end:none;stroke-miterlimit:4;stroke-dasharray:none;stroke-dashoffset:0;stroke-opacity:1;visibility:visible;display:inline;overflow:visible" sodipodi:type="arc" transform="matrix(0.212633,-9.223866e-2,0.114443,0.149412,14.87145,10.98834)"/>
  </g>
</svg>
