<?xml version="1.0" encoding="UTF-8" standalone="no"?>
<!-- Created with Inkscape (http://www.inkscape.org/) -->
<svg xmlns:dc="http://purl.org/dc/elements/1.1/" xmlns:cc="http://web.resource.org/cc/" xmlns:rdf="http://www.w3.org/1999/02/22-rdf-syntax-ns#" xmlns:svg="http://www.w3.org/2000/svg" xmlns="http://www.w3.org/2000/svg" xmlns:xlink="http://www.w3.org/1999/xlink" xmlns:sodipodi="http://sodipodi.sourceforge.net/DTD/sodipodi-0.dtd" xmlns:inkscape="http://www.inkscape.org/namespaces/inkscape" id="svg1" sodipodi:version="0.32" inkscape:version="0.44" width="32.000000px" height="32.000000px" sodipodi:docbase="/home/lapo/Icone/cvs/gnome-icon-theme/scalable/emblems" sodipodi:docname="emblem-special.svg" inkscape:output_extension="org.inkscape.output.svg.inkscape">
  <defs id="defs3">
    <linearGradient id="linearGradient2509">
      <stop id="stop2511" offset="0.0000000" style="stop-color:#ffd486;stop-opacity:1.0000000;"/>
      <stop id="stop2513" offset="1.0000000" style="stop-color:#d38700;stop-opacity:1.0000000;"/>
    </linearGradient>
    <linearGradient gradientUnits="userSpaceOnUse" y2="48.716526" x2="40.463882" y1="13.703138" x1="17.126085" id="linearGradient2517" xlink:href="#linearGradient2509" inkscape:collect="always"/>
  </defs>
  <path sodipodi:type="arc" style="fill:#000000;fill-opacity:0.098039217;fill-rule:evenodd;stroke:none;stroke-width:2.5000000;stroke-linecap:butt;stroke-linejoin:miter;stroke-miterlimit:4.0000000;stroke-opacity:1.0000000" id="path2157" sodipodi:cx="29.392656" sodipodi:cy="29.207693" sodipodi:rx="29.010935" sodipodi:ry="29.010935" d="M 58.403591 29.207693 A 29.010935 29.010935 0 1 1  0.38172150,29.207693 A 29.010935 29.010935 0 1 1  58.403591 29.207693 z" transform="matrix(0.474879,0.000000,0.000000,0.474879,3.122290,3.180454)"/>
  <path sodipodi:type="arc" style="fill:#000000;fill-opacity:0.098039217;fill-rule:evenodd;stroke:none;stroke-width:2.5000000;stroke-linecap:butt;stroke-linejoin:miter;stroke-miterlimit:4.0000000;stroke-opacity:1.0000000" id="path2156" sodipodi:cx="29.392656" sodipodi:cy="29.207693" sodipodi:rx="29.010935" sodipodi:ry="29.010935" d="M 58.403591 29.207693 A 29.010935 29.010935 0 1 1  0.38172150,29.207693 A 29.010935 29.010935 0 1 1  58.403591 29.207693 z" transform="matrix(0.474879,0.000000,0.000000,0.474879,2.512690,2.745024)"/>
  <path sodipodi:type="arc" style="fill:#000000;fill-opacity:0.098039217;fill-rule:evenodd;stroke:none;stroke-width:2.5000000;stroke-linecap:butt;stroke-linejoin:miter;stroke-miterlimit:4.0000000;stroke-opacity:1.0000000" id="path2155" sodipodi:cx="29.392656" sodipodi:cy="29.207693" sodipodi:rx="29.010935" sodipodi:ry="29.010935" d="M 58.403591 29.207693 A 29.010935 29.010935 0 1 1  0.38172150,29.207693 A 29.010935 29.010935 0 1 1  58.403591 29.207693 z" transform="matrix(0.474879,0.000000,0.000000,0.474879,1.990170,2.396674)"/>
  <path sodipodi:type="arc" style="stroke-dasharray:none;stroke-opacity:1.0000000;stroke-miterlimit:4.0000000;stroke-linejoin:miter;stroke-linecap:butt;stroke-width:2.1745276;stroke:#5b2219;fill-rule:evenodd;fill-opacity:1.0000000;fill:#feb32e" id="path907" sodipodi:cx="29.392656" sodipodi:cy="29.207693" sodipodi:rx="29.010935" sodipodi:ry="29.010935" d="M 58.403591 29.207693 A 29.010935 29.010935 0 1 1  0.38172150,29.207693 A 29.010935 29.010935 0 1 1  58.403591 29.207693 z" transform="matrix(0.459870,0.000000,0.000000,0.459870,1.891210,2.169424)"/>
  <path sodipodi:type="arc" style="fill:none;fill-opacity:1.0000000;fill-rule:evenodd;stroke:url(#linearGradient2517);stroke-width:2.4093129;stroke-linecap:round;stroke-linejoin:round;stroke-miterlimit:4.0000000;stroke-dashoffset:0.0000000;stroke-opacity:1.0000000;stroke-dasharray:none" id="path1552" sodipodi:cx="29.774380" sodipodi:cy="30.352861" sodipodi:rx="24.175779" sodipodi:ry="24.175779" d="M 53.950159 30.352861 A 24.175779 24.175779 0 1 1  5.5986004,30.352861 A 24.175779 24.175779 0 1 1  53.950159 30.352861 z" transform="matrix(0.510519,0.000000,0.000000,0.510519,0.315780,0.161334)"/>
  <path d="M 21.831922,24.310214 L 15.446230,20.265387 L 9.0283023,24.255216 L 10.901874,16.932141 L 5.1240724,12.061254 L 12.667696,11.580172 L 15.514745,4.5799698 L 18.303390,11.605719 L 25.840764,12.150243 L 20.020618,16.973477 L 21.831922,24.310214 z " inkscape:randomized="0.0000000" inkscape:rounded="0.0000000" inkscape:flatsided="false" sodipodi:arg2="1.5753294" sodipodi:arg1="0.94677327" sodipodi:r2="4.7940569" sodipodi:r1="10.891510" sodipodi:cy="15.471379" sodipodi:cx="15.467961" sodipodi:sides="5" id="path2491" style="color:#000000;fill:#ffffff;fill-opacity:1.0000000;fill-rule:evenodd;stroke:none;stroke-width:4.0000000;stroke-linecap:round;stroke-linejoin:round;stroke-miterlimit:4.0000000;stroke-dashoffset:0.0000000;stroke-opacity:1.0000000;marker:none;marker-start:none;marker-mid:none;marker-end:none;visibility:visible;display:inline;overflow:visible" sodipodi:type="star"/>
</svg>
