<?xml version="1.0" encoding="UTF-8" standalone="no"?>
<!-- Created with Inkscape (http://www.inkscape.org/) -->

<svg
   xmlns:dc="http://purl.org/dc/elements/1.1/"
   xmlns:cc="http://creativecommons.org/ns#"
   xmlns:rdf="http://www.w3.org/1999/02/22-rdf-syntax-ns#"
   xmlns:svg="http://www.w3.org/2000/svg"
   xmlns="http://www.w3.org/2000/svg"
   xmlns:sodipodi="http://sodipodi.sourceforge.net/DTD/sodipodi-0.dtd"
   xmlns:inkscape="http://www.inkscape.org/namespaces/inkscape"
   width="16px"
   height="16px"
   id="svg2385"
   sodipodi:version="0.32"
   inkscape:version="0.48.2 r9819"
   sodipodi:docname="attach_info.svg"
   inkscape:output_extension="org.inkscape.output.svg.inkscape"
   version="1.1">
  <defs
     id="defs2387">
    <inkscape:perspective
       sodipodi:type="inkscape:persp3d"
       inkscape:vp_x="0 : 8 : 1"
       inkscape:vp_y="0 : 1000 : 0"
       inkscape:vp_z="16 : 8 : 1"
       inkscape:persp3d-origin="8 : 5.3333333 : 1"
       id="perspective2393" />
  </defs>
  <sodipodi:namedview
     id="base"
     pagecolor="#ffffff"
     bordercolor="#666666"
     borderopacity="1.0"
     inkscape:pageopacity="0.0"
     inkscape:pageshadow="2"
     inkscape:zoom="21.17189"
     inkscape:cx="9.9094852"
     inkscape:cy="6.6284807"
     inkscape:current-layer="layer1"
     showgrid="true"
     inkscape:grid-bbox="true"
     inkscape:document-units="px"
     gridtolerance="3"
     guidetolerance="3"
     inkscape:window-width="1920"
     inkscape:window-height="1144"
     inkscape:window-x="-4"
     inkscape:window-y="-4"
     inkscape:snap-bbox="true"
     inkscape:object-paths="false"
     inkscape:object-nodes="false"
     inkscape:snap-nodes="true"
     inkscape:window-maximized="1"
     inkscape:snap-global="true"
     inkscape:snap-grids="true"
     inkscape:snap-to-guides="false">
    <inkscape:grid
       type="xygrid"
       id="grid3169"
       visible="true"
       enabled="true" />
  </sodipodi:namedview>
  <metadata
     id="metadata2390">
    <rdf:RDF>
      <cc:Work
         rdf:about="">
        <dc:format>image/svg+xml</dc:format>
        <dc:type
           rdf:resource="http://purl.org/dc/dcmitype/StillImage" />
        <dc:title></dc:title>
      </cc:Work>
    </rdf:RDF>
  </metadata>
  <g
     id="layer1"
     inkscape:label="Layer 1"
     inkscape:groupmode="layer">
    <rect
       style="opacity:0;fill:#ffffff;fill-opacity:1;fill-rule:evenodd;stroke:none;stroke-width:1;stroke-miterlimit:4;stroke-dasharray:none;stroke-opacity:1"
       id="rect3254"
       width="16"
       height="16"
       x="0"
       y="0"
       ry="0" />
    <path
       inkscape:connector-curvature="0"
       id="path2996"
       style="font-size:18.13624001px;font-style:normal;font-variant:normal;font-weight:600;font-stretch:normal;line-height:125%;letter-spacing:0px;word-spacing:0px;fill:#87aade;fill-opacity:1;stroke:#000000;stroke-width:0.5;stroke-miterlimit:4;font-family:Bookman Old Style;-inkscape-font-specification:Bookman Old Style Semi-Bold"
       d="M 7.9509543,0.75000084 C 8.3996335,0.7500138 8.7818993,0.9079383 9.0977527,1.2237747 9.4135971,1.5396361 9.5715215,1.9219019 9.5715266,2.3705731 9.5715215,2.8251707 9.4135971,3.2103883 9.0977527,3.526227 8.7818993,3.8420862 8.3996335,4.0000106 7.9509543,4.0000009 7.5022684,4.0000106 7.1200026,3.8420862 6.804156,3.526227 6.4883048,3.2103883 6.3303803,2.8281226 6.3303821,2.3794287 6.3303803,1.9366612 6.4927326,1.5543954 6.8174393,1.2326303 7.1421416,0.9108902 7.5199795,0.7500138 7.9509543,0.75000084 z m 1.434605,3.94959136 0,6.5442778 c -4.9e-6,0.3129 0.017706,0.504771 0.053133,0.575613 0.035417,0.07085 0.098882,0.125456 0.1903951,0.163829 0.091503,0.03838 0.2966567,0.05756 0.6154646,0.05756 l 0.478201,0 0,1.709128 -5.4727529,0 0,-1.709128 0.4693461,0 c 0.3069922,2e-6 0.5032908,-0.01623 0.5888964,-0.04871 0.085602,-0.03247 0.1490672,-0.08708 0.1903951,-0.163828 0.041324,-0.07675 0.061987,-0.230243 0.061989,-0.460491 l 0,-4.2241141 -1.3106267,0 0,-1.6648502 C 5.7163937,5.4552771 6.1636003,5.4050955 6.5916219,5.3283388 7.0196394,5.2515989 7.4019052,5.1600912 7.7384203,5.0538156 7.9568547,4.9829797 8.2254738,4.8649053 8.5442786,4.6995922 z" />
  </g>
</svg>
