<?xml version="1.0" encoding="utf-8"?>
<!-- Svg Vector Icons : http://www.onlinewebfonts.com/icon -->
<!DOCTYPE svg PUBLIC "-//W3C//DTD SVG 1.1//EN" "http://www.w3.org/Graphics/SVG/1.1/DTD/svg11.dtd">
<svg version="1.1" xmlns="http://www.w3.org/2000/svg" xmlns:xlink="http://www.w3.org/1999/xlink" x="0px" y="0px" viewBox="0 0 1000 1000" enable-background="new 0 0 1000 1000" xml:space="preserve">
<metadata> Svg Vector Icons : http://www.onlinewebfonts.com/icon </metadata>
<g><g transform="matrix(1 0 0 -1 0 1008)"><path d="M587.5,998L351.3,683l236.2-315H500L307.5,621.8L115,368H27.5l236.3,315L27.5,998H115l192.5-253.8L500,998H587.5z M972.5,18v70H766.4c137.4,122.5,206.1,210,206.1,262.5c0,44.1-15.2,81.3-45.7,111.8C896.3,492.8,859.1,508,815,508c-66.8,0-121.9-33.1-165.3-99.2l58.3-38.9C737.9,415.3,773.5,438,815,438c24.6,0,45.4-8.4,62.2-25.3c16.9-16.9,25.3-37.6,25.3-62.2c0-15.6-18.8-43.9-56.4-85.1c-37.6-41.2-72.6-76.3-105-105.5c-32.4-29.2-60.3-53.5-83.6-72.9V18H972.5z"/></g></g>
</svg>