<svg xmlns="http://www.w3.org/2000/svg" width="16" height="16"><text xml:space="preserve" style="font-size:4px;font-style:normal;font-variant:normal;font-weight:400;font-stretch:normal;fill:#000;fill-opacity:1;stroke:none;stroke-width:1px;stroke-linecap:butt;stroke-linejoin:miter;stroke-opacity:1;font-family:Webdings;-inkscape-font-specification:Webdings" x="24.358" y="10"/><text xml:space="preserve" style="font-size:4px;font-style:normal;font-variant:normal;font-weight:400;font-stretch:normal;fill:#000;fill-opacity:1;stroke:none;stroke-width:1px;stroke-linecap:butt;stroke-linejoin:miter;stroke-opacity:1;font-family:Webdings;-inkscape-font-specification:Webdings" x="20.328" y="1.94"><tspan x="20.328" y="1.94" style="stroke:#000;stroke-opacity:1;fill:none"></tspan></text><text xml:space="preserve" style="font-size:4px;font-style:normal;font-variant:normal;font-weight:400;font-stretch:normal;fill:#000;fill-opacity:1;stroke:none;stroke-width:1px;stroke-linecap:butt;stroke-linejoin:miter;stroke-opacity:1;font-family:Webdings;-inkscape-font-specification:Webdings" x="20" y="6.512"/><path style="opacity:1;fill:none;fill-opacity:.62389377;fill-rule:nonzero;stroke:#2a60ae;stroke-width:.22924073;stroke-linejoin:miter;stroke-miterlimit:4;stroke-dasharray:none;stroke-opacity:1" d="m20 4-2.853-2.073 1.09-3.354h3.526l1.09 3.354L20 4z" transform="matrix(2.17867 0 0 -2.18356 -35.55 10.47)"/><path style="opacity:1;fill:none;fill-opacity:.62389377;fill-rule:nonzero;stroke:#2a60ae;stroke-width:.36054602;stroke-linejoin:miter;stroke-miterlimit:4;stroke-dasharray:none;stroke-opacity:1" d="m20 4-2.853-2.073 1.09-3.354h3.526l1.09 3.354L20 4z" transform="matrix(1.38612 0 0 -1.38745 -19.7 9.581)"/><path style="opacity:1;fill:none;fill-opacity:.62389377;fill-rule:nonzero;stroke:#2a60ae;stroke-width:.73049408;stroke-linejoin:miter;stroke-miterlimit:4;stroke-dasharray:none;stroke-opacity:1" d="m20 4-2.853-2.073 1.09-3.354h3.526l1.09 3.354L20 4z" transform="matrix(.68539 0 0 -.68355 -5.685 8.9)"/><path style="opacity:1;fill:none;fill-opacity:.62389377000000001;fill-rule:nonzero;stroke:#2a60ae;stroke-width:.09164659;stroke-linejoin:miter;stroke-miterlimit:4;stroke-dasharray:none;stroke-opacity:1" d="m20 4-.034-2.954-2.82.881 2.8-.945-1.71-2.41L20 .944l1.763-2.37-1.709 2.41 2.8.944-2.82-.88L20 4z" transform="matrix(2.7243 0 0 -2.73145 -46.463 11.176)"/></svg>