<svg xmlns="http://www.w3.org/2000/svg" width="16" height="16"><path style="fill:#000;fill-opacity:1;fill-rule:nonzero;stroke:none;stroke-width:.5;stroke-linejoin:miter;stroke-miterlimit:4;stroke-dasharray:none;stroke-dashoffset:0;stroke-opacity:1" d="M0 0h14v14H0z" transform="translate(1 1)"/><path style="fill:#87aade;fill-opacity:1;fill-rule:nonzero;stroke:none;stroke-width:.5;stroke-linejoin:miter;stroke-miterlimit:4;stroke-dasharray:none;stroke-dashoffset:0;stroke-opacity:1" d="M.5.5h13v13H.5z" transform="translate(1 1)"/><path d="M.24 9.25h13.25M4.75.49v13.009M.245 4.75h13.246M9.25.5v13.01" style="fill:none;fill-rule:evenodd;stroke:#000;stroke-width:.5;stroke-linecap:butt;stroke-linejoin:miter;stroke-miterlimit:4;stroke-dasharray:none;stroke-opacity:1" transform="translate(1 1)"/><g style="fill:#fff"><path d="m6.342 13.768 2.793-.558 5.587-5.587-2.235-2.235L6.9 10.975l-.558 2.793Z" style="fill:#fff;fill-opacity:1;fill-rule:evenodd;stroke:#000;stroke-width:.41936961;stroke-linecap:butt;stroke-linejoin:miter;stroke-miterlimit:4;stroke-dasharray:none;stroke-opacity:1" transform="scale(1 1.4215) rotate(45 14.445 9.248)"/><path d="M9.275 13.07c-.54-1-1.267-1.769-2.235-2.235l5.447-5.447 2.235 2.235-5.447 5.447Z" style="fill:#fff;fill-opacity:1;fill-rule:nonzero;stroke:#000;stroke-width:.41936961;stroke-miterlimit:4;stroke-dashoffset:0;stroke-opacity:1" transform="scale(1 1.4215) rotate(45 14.445 9.248)"/><path d="m6.385 13.725 1.268-.227c-.238-.438-.563-.803-1.04-1.041l-.228 1.268z" style="fill:#fff;fill-opacity:1;fill-rule:evenodd;stroke:#000;stroke-width:.20968482;stroke-linecap:butt;stroke-linejoin:miter;stroke-miterlimit:4;stroke-dasharray:none;stroke-opacity:1" transform="scale(1 1.4215) rotate(45 14.445 9.248)"/><path d="m8.258 11.532 5.192-5.181M8.902 12.325l5.327-5.327" style="fill:#fff;stroke:#000;stroke-width:.20968482;stroke-linecap:butt;stroke-linejoin:miter;stroke-miterlimit:4;stroke-dasharray:none;stroke-opacity:1" transform="scale(1 1.4215) rotate(45 14.445 9.248)"/></g></svg>