<svg xmlns="http://www.w3.org/2000/svg" width="16" height="16"><defs><filter id="a" x="-.233" width="1.466" y="-.216" height="1.431"><feGaussianBlur stdDeviation=".16"/></filter></defs><path style="opacity:1;fill:#d5e5ff;fill-opacity:1;fill-rule:nonzero;stroke:#000;stroke-width:.5;stroke-linejoin:miter;stroke-miterlimit:4;stroke-dasharray:none;stroke-opacity:1" d="M1.25 5.25h7.5v10.5h-7.5z"/><path d="M10.133 9.973c-.075.087-.132.18-.213.263-.079.08-.172.145-.255.219l.765 1.315 2.848 2.98.977-1.007-2.847-2.937-1.275-.833z" style="fill:#000;fill-opacity:1;fill-rule:nonzero;stroke:none;stroke-width:.50000006;stroke-miterlimit:4;stroke-opacity:1"/><path transform="matrix(.70071 -.71344 .69148 .7224 0 0)" style="fill:#000;fill-opacity:1;fill-rule:nonzero;stroke:none;stroke-width:.5;stroke-miterlimit:4;stroke-dasharray:none;stroke-opacity:1" d="M-.95 19.46h2.072v.691H-.95z"/><path style="fill:gray;fill-opacity:1;fill-rule:nonzero;stroke:none;stroke-width:.5;stroke-linejoin:miter;stroke-miterlimit:4;stroke-dasharray:none;stroke-opacity:1" d="M3 7h3v1H3zM3 9h4v1H3zM3 11h4v1H3z"/><path transform="matrix(1.06653 -1.0544 1.05218 1.06734 -60.34 20.945)" d="M42 24.5a3.5 3.5 0 1 1-7 0 3.5 3.5 0 1 1 7 0z" style="opacity:.45;fill:#3d6ea2;fill-opacity:1;fill-rule:nonzero;stroke:#000;stroke-width:.33349881;stroke-miterlimit:4;stroke-dasharray:none;stroke-opacity:1"/><path transform="matrix(1.54664 -1.52905 1.40849 1.42878 -87.575 28.62)" d="M38.65 23.892a.825.892 0 1 1-1.65 0 .825.892 0 1 1 1.65 0z" style="opacity:.28458497;fill:#dbcfe8;fill-opacity:1;fill-rule:nonzero;stroke:none;stroke-width:.5;stroke-miterlimit:4;stroke-dasharray:none;stroke-opacity:1;filter:url(#a)"/><path transform="matrix(1.06653 -1.0544 1.05218 1.06734 -60.34 20.945)" d="M42 24.5a3.5 3.5 0 1 1-7 0 3.5 3.5 0 1 1 7 0z" style="fill:none;fill-opacity:1;fill-rule:nonzero;stroke:#000;stroke-width:.33349884;stroke-miterlimit:4;stroke-dasharray:none;stroke-opacity:1"/><path style="fill:gray;fill-opacity:1;fill-rule:nonzero;stroke:none;stroke-width:.5;stroke-linejoin:miter;stroke-miterlimit:4;stroke-dasharray:none;stroke-opacity:1" d="M3 13h4v1H3z"/></svg>