<?xml version="1.0" encoding="UTF-8" standalone="no"?>
<!-- Created with Inkscape (http://www.inkscape.org/) -->

<svg
   xmlns:dc="http://purl.org/dc/elements/1.1/"
   xmlns:cc="http://creativecommons.org/ns#"
   xmlns:rdf="http://www.w3.org/1999/02/22-rdf-syntax-ns#"
   xmlns:svg="http://www.w3.org/2000/svg"
   xmlns="http://www.w3.org/2000/svg"
   xmlns:sodipodi="http://sodipodi.sourceforge.net/DTD/sodipodi-0.dtd"
   xmlns:inkscape="http://www.inkscape.org/namespaces/inkscape"
   width="16px"
   height="16px"
   id="svg2385"
   sodipodi:version="0.32"
   inkscape:version="0.92.4 5da689c313, 2019-01-14"
   sodipodi:docname="edit_sub_02.svg"
   inkscape:output_extension="org.inkscape.output.svg.inkscape"
   version="1.1">
  <defs
     id="defs2387">
    <inkscape:perspective
       sodipodi:type="inkscape:persp3d"
       inkscape:vp_x="0 : 8 : 1"
       inkscape:vp_y="0 : 1000 : 0"
       inkscape:vp_z="16 : 8 : 1"
       inkscape:persp3d-origin="8 : 5.3333333 : 1"
       id="perspective2393" />
  </defs>
  <sodipodi:namedview
     id="base"
     pagecolor="#ffffff"
     bordercolor="#666666"
     borderopacity="1.0"
     inkscape:pageopacity="0.0"
     inkscape:pageshadow="2"
     inkscape:zoom="29.495372"
     inkscape:cx="8.7801236"
     inkscape:cy="7.6077035"
     inkscape:current-layer="layer1"
     showgrid="true"
     inkscape:grid-bbox="true"
     inkscape:document-units="px"
     gridtolerance="7"
     guidetolerance="3"
     inkscape:window-width="1366"
     inkscape:window-height="721"
     inkscape:window-x="0"
     inkscape:window-y="0"
     inkscape:snap-bbox="true"
     inkscape:object-paths="true"
     inkscape:object-nodes="true"
     showguides="true"
     inkscape:guide-bbox="true"
     inkscape:window-maximized="1">
    <inkscape:grid
       type="xygrid"
       id="grid3169"
       visible="true"
       enabled="true" />
  </sodipodi:namedview>
  <metadata
     id="metadata2390">
    <rdf:RDF>
      <cc:Work
         rdf:about="">
        <dc:format>image/svg+xml</dc:format>
        <dc:type
           rdf:resource="http://purl.org/dc/dcmitype/StillImage" />
        <dc:title></dc:title>
      </cc:Work>
    </rdf:RDF>
  </metadata>
  <g
     id="layer1"
     inkscape:label="Layer 1"
     inkscape:groupmode="layer">
    <rect
       style="opacity:0;fill:#ffffff;fill-opacity:1;fill-rule:evenodd;stroke:none;stroke-width:1;stroke-miterlimit:4;stroke-dasharray:none;stroke-opacity:1"
       id="rect3254"
       width="16"
       height="16"
       x="0"
       y="0"
       ry="0" />
    <g
       aria-label="x"
       style="font-style:normal;font-variant:normal;font-weight:normal;font-stretch:normal;font-size:17.89349174px;line-height:1.25;font-family:FreeSerif;-inkscape-font-specification:FreeSerif;letter-spacing:0px;word-spacing:0px;fill:#000000;fill-opacity:1;stroke:none;stroke-width:0.44733727"
       id="text3936"
       transform="translate(0.9520384,-3.079165)">
      <path
         d="M 5.1813582,8.639544 Q 5.3781866,8.3353546 5.646589,7.9774848 5.9149913,7.6017214 6.0402458,7.4227865 6.1833937,7.2259581 6.2728612,7.0291297 6.3802221,6.8323013 6.3802221,6.6891534 q 0,-0.3399764 -0.7157397,-0.3936569 V 6.0270942 h 2.8271717 v 0.2684023 q -0.912568,0.035787 -1.4493728,0.7873137 l -1.4851598,2.147219 2.2903669,3.5071248 q 0.3936569,0.590485 0.7157397,0.840994 0.3399764,0.232615 0.7515267,0.232615 v 0.268402 H 5.7181629 v -0.268402 q 0.4473373,-0.03579 0.5725918,-0.107361 0.1431479,-0.08947 0.1431479,-0.322083 0,-0.161041 -0.107361,-0.322083 L 4.6982339,10.554148 3.284648,12.755047 q -0.3578698,0.554698 -0.3578698,0.733633 0,0.322083 0.7157397,0.322083 v 0.268402 H 1.0479616 v -0.268402 q 0.4473373,-0.03579 0.6799527,-0.196828 0.2505088,-0.161042 0.6262722,-0.71574 L 4.3940445,9.9457689 2.7120563,7.3691061 Q 2.3899735,6.8680883 2.1215711,6.6354729 1.8710622,6.4028575 1.6921273,6.349177 1.5310859,6.2954965 1.173216,6.2954965 V 6.0270942 H 4.8771688 V 6.2954965 Q 4.1077487,6.31339 4.1077487,6.6891534 q 0,0.3578698 0.8231006,1.5925207 z"
         style="stroke-width:0.44733727"
         id="path3961"
         inkscape:connector-curvature="0" />
    </g>
    <g
       aria-label="2"
       style="font-style:normal;font-variant:normal;font-weight:normal;font-stretch:normal;font-size:17.89349174px;line-height:1.25;font-family:FreeSerif;-inkscape-font-specification:FreeSerif;letter-spacing:0px;word-spacing:0px;fill:#000000;fill-opacity:1;stroke:none;stroke-width:0.44733727"
       id="text3936-0"
       transform="matrix(0.77284349,0,0,0.77284349,2.4205709,7.1859841)">
      <path
         d="m 9.8188287,3.2990352 q 0.058154,-0.2675077 0.1163077,-0.4652307 0.058154,-0.1977231 0.2442466,-0.5699077 0.197723,-0.3838154 0.430338,-0.6280615 0.244246,-0.2558769 0.662954,-0.4536 0.430338,-0.19772309 0.965354,-0.19772309 0.9072,0 1.52363,0.59316919 0.628062,0.5931692 0.628062,1.4654769 0,1.3142769 -1.488739,2.8727999 l -1.953969,2.0470153 h 2.779754 q 0.395446,0 0.581538,-0.1279385 0.197723,-0.1395692 0.523385,-0.6396923 l 0.1512,0.058154 -0.639692,1.5934153 H 9.8071979 V 8.7073427 L 11.877475,6.5091274 q 1.512,-1.6050461 1.512,-3.0239999 0,-0.7327384 -0.4536,-1.1863384 -0.4536,-0.4536 -1.186339,-0.4536 -0.6048,0 -0.976984,0.3372923 -0.360554,0.3256615 -0.709477,1.1747076 z"
         style="font-size:64.99999762%;baseline-shift:super"
         id="path3964"
         inkscape:connector-curvature="0" />
    </g>
  </g>
</svg>
