<?xml version="1.0" encoding="utf-8"?>
<!-- Svg Vector Icons : http://www.onlinewebfonts.com/icon -->
<!DOCTYPE svg PUBLIC "-//W3C//DTD SVG 1.1//EN" "http://www.w3.org/Graphics/SVG/1.1/DTD/svg11.dtd">
<svg version="1.1" xmlns="http://www.w3.org/2000/svg" xmlns:xlink="http://www.w3.org/1999/xlink" x="0px" y="0px" viewBox="0 0 1000 1000" enable-background="new 0 0 1000 1000" xml:space="preserve">
<metadata> Svg Vector Icons : http://www.onlinewebfonts.com/icon </metadata>
<g><g transform="matrix(1 0 0 -1 0 1008)"><path d="M972.5,578v-70h-315v69c23.3,19.4,51.2,43.7,83.6,72.9c32.4,29.2,67.4,64.3,105,105.5c37.6,41.2,56.4,69.5,56.4,85.1c0,24.6-8.4,45.4-25.3,62.2C860.4,919.6,839.6,928,815,928c-41.5,0-77.1-22.7-106.9-68.1l-58.3,38.9C693.1,964.9,748.2,998,815,998c44.1,0,81.3-15.2,111.8-45.7c30.5-30.5,45.7-67.7,45.7-111.8c0-52.5-68.7-140-206.1-262.5H972.5z M351.3,333l236.2,315H500L307.5,394.3L115,648H27.5l236.3-315L27.5,18H115l192.5,253.8L500,18h87.5L351.3,333z"/></g></g>
</svg>