<?xml version="1.0" encoding="utf-8"?>
<!-- Svg Vector Icons : http://www.onlinewebfonts.com/icon -->
<!DOCTYPE svg PUBLIC "-//W3C//DTD SVG 1.1//EN" "http://www.w3.org/Graphics/SVG/1.1/DTD/svg11.dtd">
<svg version="1.1" xmlns="http://www.w3.org/2000/svg" xmlns:xlink="http://www.w3.org/1999/xlink" x="0px" y="0px" viewBox="0 0 1000 1000" enable-background="new 0 0 1000 1000" xml:space="preserve">
<metadata> Svg Vector Icons : http://www.onlinewebfonts.com/icon </metadata>
<g><path d="M972.5,500c5.1,0,9.3,1.6,12.6,4.9c3.3,3.3,4.9,7.5,4.9,12.6v35c0,5.1-1.6,9.3-4.9,12.6c-3.3,3.3-7.5,4.9-12.6,4.9h-945c-5.1,0-9.3-1.6-12.6-4.9c-3.3-3.3-4.9-7.5-4.9-12.6v-35c0-5.1,1.6-9.3,4.9-12.6c3.3-3.3,7.5-4.9,12.6-4.9H972.5z M274.1,465c-10.2-12.7-19.5-27.3-27.9-43.8c-17.5-35.4-26.3-69.6-26.3-102.8c0-66,24.4-122.3,73.3-169C341.8,103.1,413.4,80,508.2,80c18.2,0,48.7,3.5,91.3,10.4c24.1,4.4,56.4,13.1,96.8,26.3c3.6,13.9,7.5,35.4,11.5,64.5c5.1,44.8,7.6,78.2,7.6,100.1c0,6.6-0.9,14.8-2.7,24.6l-6.6,1.6l-45.9-3.3l-7.6-1.1c-18.2-54.3-37-91.7-56.3-112.1c-32.1-33.2-70.4-49.8-114.9-49.8c-41.6,0-74.8,10.8-99.5,32.3c-24.4,21.1-36.6,47.8-36.6,79.9c0,26.6,12,52.1,36.1,76.6c24.1,24.5,74.9,48,152.6,70.6c25.2,7.3,56.7,19.3,94.6,36.1c21.1,10.2,38.5,19.7,51.9,28.4H274.1L274.1,465z M551.4,605h224.8c2.6,14.2,3.8,31,3.8,50.3c0,40.5-7.5,79.1-22.4,115.9c-8.4,20.1-21.3,39-38.9,56.9c-13.5,12.7-33.4,27.5-59.6,44.3c-29.2,17.5-57.1,29.5-83.7,36.1c-29.2,7.7-66.2,11.5-111,11.5c-41.6,0-77.1-4.2-106.6-12.6l-76.6-21.8c-20.8-5.8-33.9-10.9-39.4-15.3c-2.9-2.9-4.3-6.9-4.3-12v-7.1c0-39.4-0.4-67.8-1.1-85.3c-0.4-10.9-0.4-23.3,0-37.2l1.1-20.2v-24.1l55.8-1.1c5.5,12.4,10.9,25.4,16.4,38.8c5.5,13.5,9.6,23.7,12.3,30.7s5,11.9,6.9,14.8c12.7,20.8,27.3,37.9,43.7,51.4c15.7,13.1,34.8,23.5,57.4,31.1c21.5,8,45.6,12,72.2,12c23.3,0,48.7-4.9,76-14.8c28.1-9.5,50.3-25.2,66.7-47c17.1-22.3,25.7-45.8,25.7-70.6c0-30.6-14.8-59.2-44.3-85.9C613.9,633.2,588.9,620.2,551.4,605L551.4,605z"/></g>
</svg>