<?xml version="1.0" encoding="iso-8859-1"?>
<!-- Generator: Adobe Illustrator 19.0.0, SVG Export Plug-In . SVG Version: 6.00 Build 0)  -->
<svg version="1.1" id="Capa_1" xmlns="http://www.w3.org/2000/svg" xmlns:xlink="http://www.w3.org/1999/xlink" x="0px" y="0px"
	 viewBox="0 0 512.005 512.005" style="enable-background:new 0 0 512.005 512.005;" xml:space="preserve">
<path style="fill:#2196F3;" d="M507.328,215.186l-234.667-160c-4.873-3.311-11.507-2.045-14.817,2.828
	c-1.199,1.765-1.841,3.849-1.844,5.983v96.213C91.947,166.994,2.133,329.341,0,447.463v0.533c0,5.891,4.776,10.667,10.667,10.667
	l0,0c5.825,0.001,10.573-4.672,10.667-10.496v-0.619C22.528,418.898,134.656,295.314,256,288.317v95.68
	c0.007,5.891,4.788,10.661,10.679,10.655c2.134-0.002,4.218-0.645,5.983-1.844l234.667-160c4.866-3.321,6.119-9.957,2.798-14.823
	C509.376,216.885,508.427,215.936,507.328,215.186z"/>
<path d="M10.667,458.663L10.667,458.663C4.776,458.663,0,453.888,0,447.997v-0.533c2.133-118.123,91.947-280.469,256-287.232V63.997
	c0.003-3.956,2.196-7.586,5.696-9.429c3.501-1.811,7.711-1.574,10.987,0.619l234.667,160c4.866,3.321,6.119,9.957,2.798,14.823
	c-0.75,1.099-1.699,2.048-2.798,2.798l-234.667,160c-4.865,3.323-11.502,2.072-14.824-2.792c-1.211-1.773-1.859-3.871-1.858-6.018
	v-95.68C134.677,295.314,22.528,418.898,21.333,447.549v0.619C21.24,453.992,16.492,458.664,10.667,458.663z M277.333,84.178v86.485
	c0,5.891-4.776,10.667-10.667,10.667c-133.696,0-216.043,111.936-238.933,214.208c45.355-56,139.989-128.875,238.933-128.875
	c5.891,0,10.667,4.776,10.667,10.667v86.485l205.056-139.819L277.333,84.178z"/>
<g>
</g>
<g>
</g>
<g>
</g>
<g>
</g>
<g>
</g>
<g>
</g>
<g>
</g>
<g>
</g>
<g>
</g>
<g>
</g>
<g>
</g>
<g>
</g>
<g>
</g>
<g>
</g>
<g>
</g>
</svg>
