<?xml version="1.0" encoding="UTF-8" standalone="no"?>
<!-- Created with Inkscape (http://www.inkscape.org/) -->

<svg
   xmlns:dc="http://purl.org/dc/elements/1.1/"
   xmlns:cc="http://creativecommons.org/ns#"
   xmlns:rdf="http://www.w3.org/1999/02/22-rdf-syntax-ns#"
   xmlns:svg="http://www.w3.org/2000/svg"
   xmlns="http://www.w3.org/2000/svg"
   xmlns:sodipodi="http://sodipodi.sourceforge.net/DTD/sodipodi-0.dtd"
   xmlns:inkscape="http://www.inkscape.org/namespaces/inkscape"
   width="16px"
   height="16px"
   id="svg2385"
   sodipodi:version="0.32"
   inkscape:version="0.91 r13725"
   sodipodi:docname="edit_fixBreakSymbol.svg"
   inkscape:output_extension="org.inkscape.output.svg.inkscape"
   version="1.1">
  <defs
     id="defs2387">
    <inkscape:perspective
       sodipodi:type="inkscape:persp3d"
       inkscape:vp_x="0 : 8 : 1"
       inkscape:vp_y="0 : 1000 : 0"
       inkscape:vp_z="16 : 8 : 1"
       inkscape:persp3d-origin="8 : 5.3333333 : 1"
       id="perspective2393" />
  </defs>
  <sodipodi:namedview
     id="base"
     pagecolor="#ffffff"
     bordercolor="#666666"
     borderopacity="1.0"
     inkscape:pageopacity="0.0"
     inkscape:pageshadow="2"
     inkscape:zoom="26.89369"
     inkscape:cx="19.941523"
     inkscape:cy="9.5151599"
     inkscape:current-layer="layer1"
     showgrid="true"
     inkscape:grid-bbox="true"
     inkscape:document-units="px"
     gridtolerance="7"
     guidetolerance="3"
     inkscape:window-width="1920"
     inkscape:window-height="1024"
     inkscape:window-x="-3"
     inkscape:window-y="-5"
     inkscape:snap-bbox="true"
     inkscape:object-paths="true"
     inkscape:object-nodes="true"
     inkscape:bbox-nodes="true"
     inkscape:bbox-paths="true"
     inkscape:snap-nodes="true"
     inkscape:window-maximized="1">
    <inkscape:grid
       type="xygrid"
       id="grid3169"
       visible="true"
       enabled="true" />
  </sodipodi:namedview>
  <metadata
     id="metadata2390">
    <rdf:RDF>
      <cc:Work
         rdf:about="">
        <dc:format>image/svg+xml</dc:format>
        <dc:type
           rdf:resource="http://purl.org/dc/dcmitype/StillImage" />
        <dc:title></dc:title>
      </cc:Work>
    </rdf:RDF>
  </metadata>
  <g
     id="layer1"
     inkscape:label="Layer 1"
     inkscape:groupmode="layer">
    <rect
       style="opacity:0;fill:#ffffff;fill-opacity:1;fill-rule:evenodd;stroke:none;stroke-width:1;stroke-miterlimit:4;stroke-dasharray:none;stroke-opacity:1"
       id="rect3254"
       width="16"
       height="16"
       x="0"
       y="0"
       ry="0" />
    <path
       style="font-style:normal;font-variant:normal;font-weight:normal;font-stretch:normal;font-size:13.66852093px;font-family:'Times New Roman';-inkscape-font-specification:'Times New Roman';fill:#000000;fill-opacity:1;stroke:none;stroke-width:1px;stroke-linecap:butt;stroke-linejoin:miter;stroke-opacity:1"
       d="m 13.00197,7.3592885 0,8.1407115 -0.481149,0 0,-4.117631 C 11.924194,11.357149 11.439837,11.259458 11.06775,11.089266 10.698868,10.91908 10.416594,10.660645 10.220927,10.313961 10.028467,9.9641309 9.9322352,9.5733263 9.9322352,9.1415464 c 0,-0.3214636 0.0401,-0.586202 0.1202898,-0.7942157 0.08019,-0.2111553 0.206893,-0.4112849 0.380107,-0.6003894 0.176421,-0.1922447 0.35605,-0.3403721 0.538888,-0.4443826 0.182835,-0.1039982 0.392937,-0.176486 0.630305,-0.2174638 C 11.909759,7.0283714 12.424589,7.0000071 13.146314,7 l 2.117058,0 0,0.2080088 -0.211706,0 c -0.189256,6.2e-6 -0.187388,0.02837 -0.283613,0.085095 -0.09623,0.056736 -0.168407,0.1386785 -0.216517,0.2458287 -0.03529,0.078797 -0.05293,0.2883815 -0.05293,0.628754 l 0,7.3323135 -0.476337,0 0,-8.1407116 -1.020302,0"
       id="text2388"
       inkscape:connector-curvature="0"
       sodipodi:nodetypes="ccccccsccccscccccscccc" />
    <g
       id="g4549"
       transform="translate(0.4999233,-2)">
      <path
         sodipodi:nodetypes="czzc"
         inkscape:connector-curvature="0"
         id="path4137"
         d="M 6.0000767,3 6,7 C 6,8 6,8 5,8 L 1,8"
         style="fill:none;fill-rule:evenodd;stroke:#000000;stroke-width:1px;stroke-linecap:butt;stroke-linejoin:miter;stroke-opacity:1" />
      <path
         inkscape:connector-curvature="0"
         id="path4547"
         d="M 3,6.5 0,8 3,9.5 Z"
         style="fill:#000000;fill-rule:evenodd;stroke:none;stroke-width:1px;stroke-linecap:butt;stroke-linejoin:miter;stroke-opacity:1" />
    </g>
    <path
       style="fill:none;fill-rule:evenodd;stroke:#87aade;stroke-width:1px;stroke-linecap:butt;stroke-linejoin:miter;stroke-opacity:1"
       d="M 2,14 14,2"
       id="path4553"
       inkscape:connector-curvature="0"
       sodipodi:nodetypes="cc" />
  </g>
</svg>
