<?xml version="1.0" encoding="UTF-8" standalone="no"?>
<!-- Created with Inkscape (http://www.inkscape.org/) -->
<svg
   xmlns:dc="http://purl.org/dc/elements/1.1/"
   xmlns:cc="http://creativecommons.org/ns#"
   xmlns:rdf="http://www.w3.org/1999/02/22-rdf-syntax-ns#"
   xmlns:svg="http://www.w3.org/2000/svg"
   xmlns="http://www.w3.org/2000/svg"
   xmlns:sodipodi="http://sodipodi.sourceforge.net/DTD/sodipodi-0.dtd"
   xmlns:inkscape="http://www.inkscape.org/namespaces/inkscape"
   width="16px"
   height="16px"
   id="svg2385"
   sodipodi:version="0.32"
   inkscape:version="0.46"
   sodipodi:docname="edit_showformatting.svg"
   inkscape:output_extension="org.inkscape.output.svg.inkscape">
  <defs
     id="defs2387">
    <inkscape:perspective
       sodipodi:type="inkscape:persp3d"
       inkscape:vp_x="0 : 8 : 1"
       inkscape:vp_y="0 : 1000 : 0"
       inkscape:vp_z="16 : 8 : 1"
       inkscape:persp3d-origin="8 : 5.3333333 : 1"
       id="perspective2393" />
  </defs>
  <sodipodi:namedview
     id="base"
     pagecolor="#ffffff"
     bordercolor="#666666"
     borderopacity="1.0"
     inkscape:pageopacity="0.0"
     inkscape:pageshadow="2"
     inkscape:zoom="29.256478"
     inkscape:cx="8.3643383"
     inkscape:cy="8.3260504"
     inkscape:current-layer="layer1"
     showgrid="true"
     inkscape:grid-bbox="true"
     inkscape:document-units="px"
     gridtolerance="7"
     guidetolerance="3"
     inkscape:window-width="1024"
     inkscape:window-height="718"
     inkscape:window-x="0"
     inkscape:window-y="0"
     inkscape:snap-bbox="true"
     inkscape:object-paths="true"
     inkscape:object-nodes="true">
    <inkscape:grid
       type="xygrid"
       id="grid3169"
       visible="true"
       enabled="true" />
  </sodipodi:namedview>
  <metadata
     id="metadata2390">
    <rdf:RDF>
      <cc:Work
         rdf:about="">
        <dc:format>image/svg+xml</dc:format>
        <dc:type
           rdf:resource="http://purl.org/dc/dcmitype/StillImage" />
      </cc:Work>
    </rdf:RDF>
  </metadata>
  <g
     id="layer1"
     inkscape:label="Layer 1"
     inkscape:groupmode="layer">
    <rect
       style="opacity:0;fill:#ffffff;fill-opacity:1;fill-rule:evenodd;stroke:none;stroke-width:1;stroke-miterlimit:4;stroke-dasharray:none;stroke-opacity:1"
       id="rect3254"
       width="16"
       height="16"
       x="0"
       y="0"
       ry="0" />
    <path
       style="font-size:13.66852093px;font-style:normal;font-variant:normal;font-weight:normal;font-stretch:normal;fill:#000000;fill-opacity:1;stroke:none;stroke-width:1px;stroke-linecap:butt;stroke-linejoin:miter;stroke-opacity:1;font-family:Times New Roman;-inkscape-font-specification:Times New Roman"
       d="M 7.8631813,2.5072299 L 7.8631813,14 L 7.195773,14 L 7.195773,8.1868741 C 6.368184,8.1512819 5.6963271,8.013351 5.1802001,7.773081 C 4.6685194,7.5328176 4.2769736,7.1679681 4.0055616,6.6785315 C 3.7385981,6.1846542 3.6051166,5.6329306 3.6051166,5.023359 C 3.6051166,4.5695279 3.6607339,4.1957796 3.7719687,3.9021132 C 3.8832031,3.6040116 4.0589538,3.3214757 4.2992212,3.0545047 C 4.5439366,2.7831003 4.7931021,2.5739792 5.0467185,2.4271409 C 5.3003319,2.2803199 5.5917665,2.1779841 5.9210233,2.1201331 C 6.3481618,2.0400532 7.0622879,2.0000087 8.0634037,1.9999997 L 11,1.9999997 L 11,2.2936593 L 10.70634,2.2936593 C 10.44382,2.293668 10.245822,2.3337125 10.112347,2.4137928 C 9.978859,2.4938903 9.8787479,2.6095743 9.8120133,2.7608451 C 9.7630639,2.8720879 9.7385923,3.167972 9.7385984,3.648498 L 9.7385984,14 L 9.0778643,14 L 9.0778643,2.5072299 L 7.8631813,2.5072299"
       id="text2388" />
  </g>
</svg>
