<?xml version="1.0" encoding="UTF-8" standalone="no"?>
<!-- Created with Inkscape (http://www.inkscape.org/) -->
<svg
   xmlns:dc="http://purl.org/dc/elements/1.1/"
   xmlns:cc="http://creativecommons.org/ns#"
   xmlns:rdf="http://www.w3.org/1999/02/22-rdf-syntax-ns#"
   xmlns:svg="http://www.w3.org/2000/svg"
   xmlns="http://www.w3.org/2000/svg"
   xmlns:sodipodi="http://sodipodi.sourceforge.net/DTD/sodipodi-0.dtd"
   xmlns:inkscape="http://www.inkscape.org/namespaces/inkscape"
   width="16px"
   height="16px"
   id="svg2385"
   sodipodi:version="0.32"
   inkscape:version="0.46"
   sodipodi:docname="edit_bold.svg"
   inkscape:output_extension="org.inkscape.output.svg.inkscape">
  <defs
     id="defs2387">
    <inkscape:perspective
       sodipodi:type="inkscape:persp3d"
       inkscape:vp_x="0 : 8 : 1"
       inkscape:vp_y="0 : 1000 : 0"
       inkscape:vp_z="16 : 8 : 1"
       inkscape:persp3d-origin="8 : 5.3333333 : 1"
       id="perspective2393" />
  </defs>
  <sodipodi:namedview
     id="base"
     pagecolor="#ffffff"
     bordercolor="#666666"
     borderopacity="1.0"
     inkscape:pageopacity="0.0"
     inkscape:pageshadow="2"
     inkscape:zoom="29.256478"
     inkscape:cx="7.9579309"
     inkscape:cy="8.3260504"
     inkscape:current-layer="layer1"
     showgrid="true"
     inkscape:grid-bbox="true"
     inkscape:document-units="px"
     gridtolerance="7"
     guidetolerance="3"
     inkscape:window-width="1024"
     inkscape:window-height="718"
     inkscape:window-x="0"
     inkscape:window-y="0"
     inkscape:snap-bbox="true"
     inkscape:object-paths="true"
     inkscape:object-nodes="true">
    <inkscape:grid
       type="xygrid"
       id="grid3169"
       visible="true"
       enabled="true" />
  </sodipodi:namedview>
  <metadata
     id="metadata2390">
    <rdf:RDF>
      <cc:Work
         rdf:about="">
        <dc:format>image/svg+xml</dc:format>
        <dc:type
           rdf:resource="http://purl.org/dc/dcmitype/StillImage" />
      </cc:Work>
    </rdf:RDF>
  </metadata>
  <g
     id="layer1"
     inkscape:label="Layer 1"
     inkscape:groupmode="layer">
    <rect
       style="opacity:0;fill:#ffffff;fill-opacity:1;fill-rule:evenodd;stroke:none;stroke-width:1;stroke-miterlimit:4;stroke-dasharray:none;stroke-opacity:1"
       id="rect3254"
       width="16"
       height="16"
       x="0"
       y="0"
       ry="0" />
    <path
       style="font-size:28px;font-style:normal;font-weight:normal;fill:#000000;fill-opacity:1;stroke:none;stroke-width:1px;stroke-linecap:butt;stroke-linejoin:miter;stroke-opacity:1;font-family:Century"
       d="M 10.12576,7.6371679 C 11.264389,7.9026607 12.063799,8.2241944 12.523987,8.6017697 C 13.184741,9.1386476 13.515124,9.834812 13.515136,10.690265 C 13.515124,11.592923 13.152293,12.339234 12.426641,12.929203 C 11.535777,13.643067 10.240795,14 8.5416913,14 L 2.4443465,14 L 2.4443465,13.672565 C 2.9989177,13.672566 3.3735486,13.622418 3.5682402,13.522124 C 3.7688286,13.41593 3.9074714,13.280236 3.9841695,13.115043 C 4.0667633,12.949853 4.1080612,12.542773 4.1080633,11.893805 L 4.1080633,4.1061947 C 4.1080612,3.4572376 4.0667633,3.0501585 3.9841695,2.8849557 C 3.9074714,2.7138757 3.7688286,2.5781824 3.5682402,2.4778761 C 3.367649,2.3775928 2.9930181,2.3274453 2.4443465,2.3274337 L 2.4443465,2 L 8.1965586,2 C 9.5711825,2.000012 10.544626,2.1239057 11.116906,2.3716813 C 11.689168,2.6135807 12.140495,2.979362 12.470889,3.4690265 C 12.801262,3.9528123 12.966454,4.469036 12.966465,5.017699 C 12.966454,5.5958785 12.757015,6.1121021 12.338146,6.5663715 C 11.919256,7.0147562 11.181794,7.3716879 10.12576,7.6371679 M 6.9045233,7.3982298 C 7.7422757,7.3982365 8.3587943,7.3038413 8.7540807,7.115044 C 9.1552536,6.9262606 9.4620382,6.6607741 9.6744348,6.3185839 C 9.8868159,5.9764091 9.9930105,5.5398313 9.9930185,5.0088495 C 9.9930105,4.4778855 9.8868159,4.0442576 9.6744348,3.7079646 C 9.4679379,3.3657923 9.1700028,3.1062055 8.7806294,2.9292035 C 8.3912425,2.7522236 7.7658745,2.666678 6.9045233,2.6725663 L 6.9045233,7.3982298 M 6.9045233,8.0884953 L 6.9045233,11.938053 L 6.8956738,12.380531 C 6.8956689,12.699116 6.9753149,12.941004 7.1346116,13.106194 C 7.2997983,13.265486 7.5416861,13.345132 7.8602754,13.345131 C 8.3322456,13.345132 8.7658735,13.241888 9.1611604,13.035398 C 9.5623325,12.823009 9.8691176,12.519175 10.081513,12.123893 C 10.293891,11.722715 10.400085,11.277289 10.400093,10.78761 C 10.400085,10.227142 10.270294,9.7256677 10.010717,9.2831857 C 9.7511233,8.8348132 9.394191,8.5221291 8.9399215,8.3451325 C 8.4856378,8.1681472 7.8071723,8.0826015 6.9045233,8.0884953"
       id="text2385" />
  </g>
</svg>
