<svg xmlns="http://www.w3.org/2000/svg" width="16" height="16"><path d="m5.75 5.75-4.5-4.5" style="fill:none;stroke:#000;stroke-width:.49999997;stroke-linecap:butt;stroke-linejoin:miter;stroke-miterlimit:4;stroke-opacity:1;stroke-dasharray:none" transform="translate(1 1)"/><g transform="translate(1 1)"><rect style="color:#000;fill:#000;fill-opacity:1;fill-rule:nonzero;stroke:none;stroke-width:.5;marker:none;visibility:visible;display:inline;overflow:visible;enable-background:accumulate" width=".5" height="3" x="1" y="1" ry="0"/><rect style="color:#000;fill:#000;fill-opacity:1;fill-rule:nonzero;stroke:none;stroke-width:.5;marker:none;visibility:visible;display:inline;overflow:visible;enable-background:accumulate" width=".5" height="3" x="-1.5" y="1" ry="0" transform="rotate(-90)"/></g><g transform="rotate(180 4 4)"><rect style="color:#000;fill:#000;fill-opacity:1;fill-rule:nonzero;stroke:none;stroke-width:.5;marker:none;visibility:visible;display:inline;overflow:visible;enable-background:accumulate" width=".5" height="3" x="1" y="1" ry="0"/><rect style="color:#000;fill:#000;fill-opacity:1;fill-rule:nonzero;stroke:none;stroke-width:.5;marker:none;visibility:visible;display:inline;overflow:visible;enable-background:accumulate" width=".5" height="3" x="-1.5" y="1" ry="0" transform="rotate(-90)"/></g><path d="m5.75 5.75-4.5-4.5" style="fill:none;stroke:#000;stroke-width:.49999997;stroke-linecap:butt;stroke-linejoin:miter;stroke-miterlimit:4;stroke-opacity:1;stroke-dasharray:none" transform="matrix(-1 0 0 1 15 1)"/><g transform="matrix(-1 0 0 1 15 1)"><rect style="color:#000;fill:#000;fill-opacity:1;fill-rule:nonzero;stroke:none;stroke-width:.5;marker:none;visibility:visible;display:inline;overflow:visible;enable-background:accumulate" width=".5" height="3" x="1" y="1" ry="0"/><rect style="color:#000;fill:#000;fill-opacity:1;fill-rule:nonzero;stroke:none;stroke-width:.5;marker:none;visibility:visible;display:inline;overflow:visible;enable-background:accumulate" width=".5" height="3" x="-1.5" y="1" ry="0" transform="rotate(-90)"/></g><g transform="matrix(1 0 0 -1 8 8)"><rect style="color:#000;fill:#000;fill-opacity:1;fill-rule:nonzero;stroke:none;stroke-width:.5;marker:none;visibility:visible;display:inline;overflow:visible;enable-background:accumulate" width=".5" height="3" x="1" y="1" ry="0"/><rect style="color:#000;fill:#000;fill-opacity:1;fill-rule:nonzero;stroke:none;stroke-width:.5;marker:none;visibility:visible;display:inline;overflow:visible;enable-background:accumulate" width=".5" height="3" x="-1.5" y="1" ry="0" transform="rotate(-90)"/></g><path d="m5.75 5.75-4.5-4.5" style="fill:none;stroke:#000;stroke-width:.49999997;stroke-linecap:butt;stroke-linejoin:miter;stroke-miterlimit:4;stroke-opacity:1;stroke-dasharray:none" transform="matrix(1 0 0 -1 1 15)"/><g transform="matrix(1 0 0 -1 1 15)"><rect style="color:#000;fill:#000;fill-opacity:1;fill-rule:nonzero;stroke:none;stroke-width:.5;marker:none;visibility:visible;display:inline;overflow:visible;enable-background:accumulate" width=".5" height="3" x="1" y="1" ry="0"/><rect style="color:#000;fill:#000;fill-opacity:1;fill-rule:nonzero;stroke:none;stroke-width:.5;marker:none;visibility:visible;display:inline;overflow:visible;enable-background:accumulate" width=".5" height="3" x="-1.5" y="1" ry="0" transform="rotate(-90)"/></g><g transform="matrix(-1 0 0 1 8 8)"><rect style="color:#000;fill:#000;fill-opacity:1;fill-rule:nonzero;stroke:none;stroke-width:.5;marker:none;visibility:visible;display:inline;overflow:visible;enable-background:accumulate" width=".5" height="3" x="1" y="1" ry="0"/><rect style="color:#000;fill:#000;fill-opacity:1;fill-rule:nonzero;stroke:none;stroke-width:.5;marker:none;visibility:visible;display:inline;overflow:visible;enable-background:accumulate" width=".5" height="3" x="-1.5" y="1" ry="0" transform="rotate(-90)"/></g><path d="m5.75 5.75-4.5-4.5" style="fill:none;stroke:#000;stroke-width:.49999997;stroke-linecap:butt;stroke-linejoin:miter;stroke-miterlimit:4;stroke-opacity:1;stroke-dasharray:none" transform="rotate(180 7.5 7.5)"/><g transform="rotate(180 7.5 7.5)"><rect style="color:#000;fill:#000;fill-opacity:1;fill-rule:nonzero;stroke:none;stroke-width:.5;marker:none;visibility:visible;display:inline;overflow:visible;enable-background:accumulate" width=".5" height="3" x="1" y="1" ry="0"/><rect style="color:#000;fill:#000;fill-opacity:1;fill-rule:nonzero;stroke:none;stroke-width:.5;marker:none;visibility:visible;display:inline;overflow:visible;enable-background:accumulate" width=".5" height="3" x="-1.5" y="1" ry="0" transform="rotate(-90)"/></g><g transform="translate(8 8)"><rect style="color:#000;fill:#000;fill-opacity:1;fill-rule:nonzero;stroke:none;stroke-width:.5;marker:none;visibility:visible;display:inline;overflow:visible;enable-background:accumulate" width=".5" height="3" x="1" y="1" ry="0"/><rect style="color:#000;fill:#000;fill-opacity:1;fill-rule:nonzero;stroke:none;stroke-width:.5;marker:none;visibility:visible;display:inline;overflow:visible;enable-background:accumulate" width=".5" height="3" x="-1.5" y="1" ry="0" transform="rotate(-90)"/></g></svg>