<svg xmlns="http://www.w3.org/2000/svg" width="16" height="16"><path style="fill:#000;fill-opacity:1;fill-rule:nonzero;stroke:none;stroke-width:.5;stroke-linejoin:miter;stroke-miterlimit:4;stroke-dasharray:none;stroke-dashoffset:0;stroke-opacity:1" d="M0 0h14v14H0z" transform="translate(1.01 1)"/><path style="fill:#87aade;fill-opacity:1;fill-rule:nonzero;stroke:none;stroke-width:.5;stroke-linejoin:miter;stroke-miterlimit:4;stroke-dasharray:none;stroke-dashoffset:0;stroke-opacity:1" d="M.5.5h13v13H.5z" transform="translate(1.01 1)"/><path style="fill:#c83737;fill-opacity:1;fill-rule:nonzero;stroke:none;stroke-width:.5;stroke-linejoin:miter;stroke-miterlimit:4;stroke-dasharray:none;stroke-dashoffset:0;stroke-opacity:1" d="M.5 4.75h13v4.5H.5z" transform="translate(1.01 1)"/><path d="M.24 9.25h13.25M4.75.49v13.009M.245 4.75h13.246M9.25.25v13.01" style="fill:none;fill-rule:evenodd;stroke:#000;stroke-width:.5;stroke-linecap:butt;stroke-linejoin:miter;stroke-miterlimit:4;stroke-dasharray:none;stroke-opacity:1" transform="translate(1.01 1)"/><path style="fill:#e6e6e6;fill-opacity:1;fill-rule:nonzero;stroke:none;stroke-width:.5;stroke-linejoin:miter;stroke-miterlimit:4;stroke-dasharray:none;stroke-dashoffset:0;stroke-opacity:1" transform="rotate(-45)" d="M-4.414 15.213h9v3h-9z"/><path style="fill:#e6e6e6;fill-opacity:1;fill-rule:nonzero;stroke:none;stroke-width:.5;stroke-linejoin:miter;stroke-miterlimit:4;stroke-dasharray:none;stroke-dashoffset:0;stroke-opacity:1" transform="rotate(-45)" d="M-1.414 12.213h3v9h-3z"/><path style="fill:#a00;fill-opacity:1;fill-rule:nonzero;stroke:none;stroke-width:.5;stroke-linejoin:miter;stroke-miterlimit:4;stroke-dasharray:none;stroke-dashoffset:0;stroke-opacity:1" transform="rotate(-45)" d="M-.414 13.213h1v7h-1z"/><path style="fill:#a00;fill-opacity:1;fill-rule:nonzero;stroke:none;stroke-width:.5;stroke-linejoin:miter;stroke-miterlimit:4;stroke-dasharray:none;stroke-dashoffset:0;stroke-opacity:1" transform="rotate(-45)" d="M-3.414 16.213h7v1h-7z"/></svg>