<?xml version="1.0" encoding="UTF-8" standalone="no"?>
<!-- Created with Inkscape (http://www.inkscape.org/) -->

<svg
   xmlns:dc="http://purl.org/dc/elements/1.1/"
   xmlns:cc="http://creativecommons.org/ns#"
   xmlns:rdf="http://www.w3.org/1999/02/22-rdf-syntax-ns#"
   xmlns:svg="http://www.w3.org/2000/svg"
   xmlns="http://www.w3.org/2000/svg"
   xmlns:sodipodi="http://sodipodi.sourceforge.net/DTD/sodipodi-0.dtd"
   xmlns:inkscape="http://www.inkscape.org/namespaces/inkscape"
   width="16px"
   height="16px"
   id="svg2385"
   sodipodi:version="0.32"
   inkscape:version="0.92.4 5da689c313, 2019-01-14"
   sodipodi:docname="edit_strikeout_02.svg"
   inkscape:output_extension="org.inkscape.output.svg.inkscape"
   version="1.1">
  <defs
     id="defs2387">
    <inkscape:perspective
       sodipodi:type="inkscape:persp3d"
       inkscape:vp_x="0 : 8 : 1"
       inkscape:vp_y="0 : 1000 : 0"
       inkscape:vp_z="16 : 8 : 1"
       inkscape:persp3d-origin="8 : 5.3333333 : 1"
       id="perspective2393" />
  </defs>
  <sodipodi:namedview
     id="base"
     pagecolor="#ffffff"
     bordercolor="#666666"
     borderopacity="1.0"
     inkscape:pageopacity="0.0"
     inkscape:pageshadow="2"
     inkscape:zoom="20.165353"
     inkscape:cx="10.81782"
     inkscape:cy="11.683246"
     inkscape:current-layer="layer1"
     showgrid="false"
     inkscape:grid-bbox="true"
     inkscape:document-units="px"
     gridtolerance="7"
     guidetolerance="3"
     inkscape:window-width="1366"
     inkscape:window-height="721"
     inkscape:window-x="0"
     inkscape:window-y="0"
     inkscape:snap-bbox="true"
     inkscape:object-paths="true"
     inkscape:object-nodes="true"
     showguides="true"
     inkscape:guide-bbox="true"
     inkscape:window-maximized="1">
    <inkscape:grid
       type="xygrid"
       id="grid3169"
       visible="true"
       enabled="true" />
  </sodipodi:namedview>
  <metadata
     id="metadata2390">
    <rdf:RDF>
      <cc:Work
         rdf:about="">
        <dc:format>image/svg+xml</dc:format>
        <dc:type
           rdf:resource="http://purl.org/dc/dcmitype/StillImage" />
      </cc:Work>
    </rdf:RDF>
  </metadata>
  <g
     id="layer1"
     inkscape:label="Layer 1"
     inkscape:groupmode="layer">
    <rect
       style="opacity:0;fill:#ffffff;fill-opacity:1;fill-rule:evenodd;stroke:none;stroke-width:1;stroke-miterlimit:4;stroke-dasharray:none;stroke-opacity:1"
       id="rect3254"
       width="16"
       height="16"
       x="0"
       y="0"
       ry="0" />
    <rect
       style="opacity:1;fill:#000000;fill-opacity:1;fill-rule:nonzero;stroke:none;stroke-width:0.51887453;stroke-miterlimit:4;stroke-dasharray:none;stroke-opacity:1"
       id="rect2439"
       width="14"
       height="1"
       x="1"
       y="8" />
    <path
       style="font-style:normal;font-variant:normal;font-weight:normal;font-stretch:normal;font-size:17.53043556px;line-height:1.25;font-family:FreeSerif;-inkscape-font-specification:FreeSerif;letter-spacing:0px;word-spacing:0px;fill:#000000;fill-opacity:1;stroke:none;stroke-width:0.43826088"
       d="m 7.6054667,1.9472656 c -0.818087,0 -1.53095,0.2788698 -2.1386718,0.8398438 -0.5960348,0.549287 -0.8945313,1.2680412 -0.8945313,2.15625 0,0.6661565 0.1924554,1.251367 0.578125,1.7539062 0.2461441,0.3207332 0.5337667,0.5924707 0.8417969,0.8417969 H 9.531248 C 9.2622739,7.370061 8.9735722,7.2011306 8.656248,7.03125 7.7329784,6.5170239 7.0731358,6.0496367 6.6757792,5.6289062 6.2784227,5.2081758 6.0800761,4.7624001 6.0800761,4.2949219 c 0,-0.4791653 0.1688908,-0.8699673 0.5078125,-1.1738281 0.3389217,-0.3038609 0.7768531,-0.4550782 1.3144531,-0.4550782 0.7012174,0 1.3394485,0.245476 1.9121094,0.7363282 0.5843509,0.4908522 1.0163919,1.2488915 1.2968789,2.2773437 h 0.4375 L 11.164064,1.9472656 h -0.36914 c -0.07012,0.3973566 -0.256687,0.5957032 -0.560549,0.5957032 -0.11687,-1e-7 -0.4624974,-0.1001499 -1.0351583,-0.2988282 -0.5726609,-0.1986782 -1.1028978,-0.296875 -1.59375,-0.296875 z m 1.4316406,7.5136719 c 0.195221,0.1616369 0.3836279,0.3284473 0.5488282,0.5136719 0.3856704,0.4207306 0.5781265,0.9057916 0.5781265,1.4550786 0,0.584348 -0.1983471,1.063517 -0.5957047,1.4375 -0.3973565,0.362295 -0.9177642,0.544921 -1.5605468,0.544921 -0.7830262,0 -1.4605422,-0.251367 -2.0332032,-0.753906 C 5.4019465,12.155664 4.8992123,11.372107 4.4667949,10.308594 H 4.0644511 l 0.5253906,3.716797 h 0.3847656 c 0.011687,-0.163618 0.064708,-0.299115 0.1582032,-0.404297 0.093496,-0.11687 0.2054278,-0.173828 0.3339844,-0.173828 0.1402434,0 0.5074807,0.0982 1.1035156,0.296875 0.6077217,0.198678 1.2047146,0.298828 1.7890625,0.298828 1.0050782,0 1.851487,-0.304388 2.54102,-0.91211 0.689529,-0.619408 1.035156,-1.379401 1.035156,-2.279297 0,-0.494413 -0.129728,-0.9560648 -0.369141,-1.3906245 z"
       id="path2684"
       inkscape:connector-curvature="0" />
  </g>
</svg>
