<?xml version="1.0" encoding="UTF-8" standalone="no"?>
<!-- Created with Inkscape (http://www.inkscape.org/) -->
<svg
   xmlns:dc="http://purl.org/dc/elements/1.1/"
   xmlns:cc="http://creativecommons.org/ns#"
   xmlns:rdf="http://www.w3.org/1999/02/22-rdf-syntax-ns#"
   xmlns:svg="http://www.w3.org/2000/svg"
   xmlns="http://www.w3.org/2000/svg"
   xmlns:sodipodi="http://sodipodi.sourceforge.net/DTD/sodipodi-0.dtd"
   xmlns:inkscape="http://www.inkscape.org/namespaces/inkscape"
   width="16px"
   height="16px"
   id="svg2385"
   sodipodi:version="0.32"
   inkscape:version="0.46"
   sodipodi:docname="edit_underline.svg"
   inkscape:output_extension="org.inkscape.output.svg.inkscape">
  <defs
     id="defs2387">
    <inkscape:perspective
       sodipodi:type="inkscape:persp3d"
       inkscape:vp_x="0 : 8 : 1"
       inkscape:vp_y="0 : 1000 : 0"
       inkscape:vp_z="16 : 8 : 1"
       inkscape:persp3d-origin="8 : 5.3333333 : 1"
       id="perspective2393" />
  </defs>
  <sodipodi:namedview
     id="base"
     pagecolor="#ffffff"
     bordercolor="#666666"
     borderopacity="1.0"
     inkscape:pageopacity="0.0"
     inkscape:pageshadow="2"
     inkscape:zoom="26.049989"
     inkscape:cx="4.8881778"
     inkscape:cy="6.3947099"
     inkscape:current-layer="layer1"
     showgrid="true"
     inkscape:grid-bbox="true"
     inkscape:document-units="px"
     gridtolerance="7"
     guidetolerance="3"
     inkscape:window-width="1024"
     inkscape:window-height="718"
     inkscape:window-x="0"
     inkscape:window-y="0"
     inkscape:snap-bbox="true"
     inkscape:object-paths="true"
     inkscape:object-nodes="true"
     showguides="true"
     inkscape:guide-bbox="true">
    <inkscape:grid
       type="xygrid"
       id="grid3169"
       visible="true"
       enabled="true" />
  </sodipodi:namedview>
  <metadata
     id="metadata2390">
    <rdf:RDF>
      <cc:Work
         rdf:about="">
        <dc:format>image/svg+xml</dc:format>
        <dc:type
           rdf:resource="http://purl.org/dc/dcmitype/StillImage" />
      </cc:Work>
    </rdf:RDF>
  </metadata>
  <g
     id="layer1"
     inkscape:label="Layer 1"
     inkscape:groupmode="layer">
    <rect
       style="opacity:0;fill:#ffffff;fill-opacity:1;fill-rule:evenodd;stroke:none;stroke-width:1;stroke-miterlimit:4;stroke-dasharray:none;stroke-opacity:1"
       id="rect3254"
       width="16"
       height="16"
       x="0"
       y="0"
       ry="0" />
    <path
       style="font-size:28px;font-style:normal;font-weight:normal;fill:#000000;fill-opacity:1;stroke:none;stroke-width:1px;stroke-linecap:butt;stroke-linejoin:miter;stroke-opacity:1;font-family:Century"
       d="M 9.6020965,2.3224334 L 9.6020965,2 L 13.627508,2 L 13.627508,2.3224334 L 13.199808,2.3224334 C 12.75253,2.3224449 12.408692,2.5170666 12.168296,2.9062993 C 12.050878,3.0864079 11.992174,3.5046995 11.992185,4.1611752 L 11.992185,8.9541042 C 11.992174,10.139269 11.877562,11.060091 11.648349,11.716575 C 11.424704,12.367252 10.980233,12.92788 10.314931,13.398456 C 9.6552015,13.863225 8.7550764,14.095609 7.6145509,14.095609 C 6.3733779,14.095609 5.4313212,13.87194 4.7883778,13.424599 C 4.1454275,12.97726 3.6897739,12.375967 3.4214156,11.620716 C 3.2425066,11.103663 3.1530531,10.133458 3.1530549,8.7101005 L 3.1530549,4.0914599 C 3.1530531,3.365269 3.0552135,2.8888813 2.8595354,2.6622956 C 2.6694453,2.4357322 2.3591536,2.3224449 1.9286593,2.3224334 L 1.5009595,2.3224334 L 1.5009595,2 L 6.4153142,2 L 6.4153142,2.3224334 L 5.9792281,2.3224334 C 5.5095929,2.3224449 5.1741424,2.4763994 4.9728757,2.7842975 C 4.833101,2.9934542 4.7632155,3.4291746 4.7632189,4.0914599 L 4.7632189,9.2416799 C 4.7632155,9.7006433 4.8023513,10.226413 4.8806267,10.818989 C 4.9644857,11.411573 5.1126431,11.873435 5.325099,12.204582 C 5.5375471,12.53573 5.8422479,12.808782 6.2392026,13.023737 C 6.6417383,13.238693 7.1337323,13.34617 7.7151862,13.34617 C 8.4587619,13.34617 9.1240724,13.177691 9.7111175,12.840733 C 10.29815,12.503778 10.697895,12.073867 10.910356,11.551 C 11.128388,11.022328 11.23741,10.130554 11.23742,8.8756744 L 11.23742,4.0914599 C 11.23741,3.3536498 11.15914,2.8917862 11.002604,2.7058677 C 10.784552,2.4502562 10.460284,2.3224449 10.029798,2.3224334 L 9.6020965,2.3224334"
       id="text2435" />
    <rect
       style="opacity:1;fill:#000000;fill-opacity:1;fill-rule:nonzero;stroke:none;stroke-width:0.5;stroke-miterlimit:4;stroke-dasharray:none;stroke-opacity:1"
       id="rect2439"
       width="13"
       height="1"
       x="1"
       y="15" />
  </g>
</svg>
