<?xml version="1.0" encoding="UTF-8" standalone="no"?>
<!-- Created with Inkscape (http://www.inkscape.org/) -->
<svg
   xmlns:dc="http://purl.org/dc/elements/1.1/"
   xmlns:cc="http://creativecommons.org/ns#"
   xmlns:rdf="http://www.w3.org/1999/02/22-rdf-syntax-ns#"
   xmlns:svg="http://www.w3.org/2000/svg"
   xmlns="http://www.w3.org/2000/svg"
   xmlns:sodipodi="http://sodipodi.sourceforge.net/DTD/sodipodi-0.dtd"
   xmlns:inkscape="http://www.inkscape.org/namespaces/inkscape"
   width="16px"
   height="16px"
   id="svg2385"
   sodipodi:version="0.32"
   inkscape:version="0.46"
   sodipodi:docname="edit_code.svg"
   inkscape:output_extension="org.inkscape.output.svg.inkscape">
  <defs
     id="defs2387">
    <inkscape:perspective
       sodipodi:type="inkscape:persp3d"
       inkscape:vp_x="0 : 8 : 1"
       inkscape:vp_y="0 : 1000 : 0"
       inkscape:vp_z="16 : 8 : 1"
       inkscape:persp3d-origin="8 : 5.3333333 : 1"
       id="perspective2393" />
  </defs>
  <sodipodi:namedview
     id="base"
     pagecolor="#ffffff"
     bordercolor="#666666"
     borderopacity="1.0"
     inkscape:pageopacity="0.0"
     inkscape:pageshadow="2"
     inkscape:zoom="6.7898799"
     inkscape:cx="2.7170246"
     inkscape:cy="2.4517902"
     inkscape:current-layer="layer1"
     showgrid="true"
     inkscape:grid-bbox="true"
     inkscape:document-units="px"
     gridtolerance="7"
     guidetolerance="3"
     inkscape:window-width="1024"
     inkscape:window-height="718"
     inkscape:window-x="0"
     inkscape:window-y="0"
     inkscape:snap-bbox="true"
     inkscape:object-paths="true"
     inkscape:object-nodes="true"
     showguides="true"
     inkscape:guide-bbox="true">
    <inkscape:grid
       type="xygrid"
       id="grid3169"
       visible="true"
       enabled="true" />
  </sodipodi:namedview>
  <metadata
     id="metadata2390">
    <rdf:RDF>
      <cc:Work
         rdf:about="">
        <dc:format>image/svg+xml</dc:format>
        <dc:type
           rdf:resource="http://purl.org/dc/dcmitype/StillImage" />
      </cc:Work>
    </rdf:RDF>
  </metadata>
  <g
     id="layer1"
     inkscape:label="Layer 1"
     inkscape:groupmode="layer">
    <path
       style="opacity:0;fill:#ffffff;fill-opacity:1;fill-rule:evenodd;stroke:none;stroke-width:1;stroke-miterlimit:4;stroke-opacity:1"
       d="M 0,0 L 16,0 L 16,16 L 0,16 L 0,0 z"
       id="rect3254" />
    <path
       style="font-size:3.99999976px;font-style:normal;font-variant:normal;font-weight:normal;font-stretch:normal;fill:#000000;fill-opacity:1;stroke:none;stroke-width:1px;stroke-linecap:butt;stroke-linejoin:miter;stroke-opacity:1;font-family:Times New Roman;-inkscape-font-specification:Times New Roman"
       d="M 5.9999996,13.083007 L 5.9999996,13.997069 L 5.6064449,13.997069 C 4.5527289,13.997067 3.8460239,13.840492 3.4863279,13.527343 C 3.1308554,13.21419 2.9531212,12.590005 2.9531248,11.654784 L 2.9531248,10.137694 C 2.9531212,9.4986995 2.8388635,9.0564799 2.6103514,8.8110344 C 2.3818327,8.565595 1.9671197,8.4428738 1.3662108,8.4428704 L 0.97900385,8.4428704 L 0.97900385,7.5351556 L 1.3662108,7.5351556 C 1.9713514,7.53516 2.3860645,7.4145546 2.6103514,7.1733392 C 2.8388635,6.9279015 2.9531212,6.4899137 2.9531248,5.8593745 L 2.9531248,4.3359371 C 2.9531212,3.4007243 3.1308554,2.7786546 3.4863279,2.4697263 C 3.8460239,2.156585 4.5527289,2.0000096 5.6064449,1.9999998 L 5.9999996,1.9999998 L 5.9999996,2.9077145 L 5.568359,2.9077145 C 4.9716737,2.9077235 4.5823512,3.0008224 4.4003903,3.1870114 C 4.2184193,3.3732178 4.1274363,3.7646562 4.1274411,4.3613277 L 4.1274411,5.9355464 C 4.1274363,6.5999396 4.0301057,7.082361 3.8354489,7.3828119 C 3.645015,7.6832718 3.3170531,7.8863966 2.8515623,7.9921868 C 3.3212849,8.1064484 3.6513626,8.313805 3.8417966,8.6142571 C 4.0322216,8.9147158 4.1274363,9.3950212 4.1274411,10.055175 L 4.1274411,11.629394 C 4.1274363,12.226073 4.2184193,12.617511 4.4003903,12.80371 C 4.5823512,12.989907 4.9716737,13.083006 5.568359,13.083007 L 5.9999996,13.083007"
       id="text2410" />
    <path
       transform="scale(-1,1)"
       style="font-size:3.99999976px;font-style:normal;font-variant:normal;font-weight:normal;font-stretch:normal;fill:#000000;fill-opacity:1;stroke:none;stroke-width:1px;stroke-linecap:butt;stroke-linejoin:miter;stroke-opacity:1;font-family:Times New Roman;-inkscape-font-specification:Times New Roman"
       d="M -9.9790044,13.085936 L -9.9790044,13.999999 L -10.372559,13.999999 C -11.426275,13.999997 -12.13298,13.843421 -12.492676,13.530272 C -12.848149,13.21712 -13.025883,12.592934 -13.025879,11.657714 L -13.025879,10.140624 C -13.025883,9.5016292 -13.14014,9.0594096 -13.368653,8.8139641 C -13.597171,8.5685247 -14.011884,8.4458035 -14.612793,8.4458001 L -15,8.4458001 L -15,7.5380853 L -14.612793,7.5380853 C -14.007653,7.5380896 -13.592939,7.4174843 -13.368653,7.1762689 C -13.14014,6.9308312 -13.025883,6.4928434 -13.025879,5.8623042 L -13.025879,4.3388668 C -13.025883,3.403654 -12.848149,2.7815843 -12.492676,2.472656 C -12.13298,2.1595147 -11.426275,2.0029393 -10.372559,2.0029295 L -9.9790044,2.0029295 L -9.9790044,2.9106442 L -10.410645,2.9106442 C -11.00733,2.9106532 -11.396653,3.0037521 -11.578614,3.1899411 C -11.760585,3.3761475 -11.851568,3.7675859 -11.851563,4.3642574 L -11.851563,5.938476 C -11.851568,6.6028693 -11.948898,7.0852907 -12.143555,7.3857416 C -12.333989,7.6862015 -12.661951,7.8893262 -13.127442,7.9951165 C -12.657719,8.1093781 -12.327641,8.3167346 -12.137207,8.6171868 C -11.946782,8.9176455 -11.851568,9.3979509 -11.851563,10.058105 L -11.851563,11.632323 C -11.851568,12.229003 -11.760585,12.620441 -11.578614,12.80664 C -11.396653,12.992836 -11.00733,13.085935 -10.410645,13.085936 L -9.9790044,13.085936"
       id="text2414" />
  </g>
</svg>
