<?xml version="1.0" encoding="UTF-8" standalone="no"?>
<!-- Created with Inkscape (http://www.inkscape.org/) -->
<svg
   xmlns:dc="http://purl.org/dc/elements/1.1/"
   xmlns:cc="http://creativecommons.org/ns#"
   xmlns:rdf="http://www.w3.org/1999/02/22-rdf-syntax-ns#"
   xmlns:svg="http://www.w3.org/2000/svg"
   xmlns="http://www.w3.org/2000/svg"
   xmlns:sodipodi="http://sodipodi.sourceforge.net/DTD/sodipodi-0.dtd"
   xmlns:inkscape="http://www.inkscape.org/namespaces/inkscape"
   width="16px"
   height="16px"
   id="svg2385"
   sodipodi:version="0.32"
   inkscape:version="0.46"
   sodipodi:docname="edit_italic.svg"
   inkscape:output_extension="org.inkscape.output.svg.inkscape">
  <defs
     id="defs2387">
    <inkscape:perspective
       sodipodi:type="inkscape:persp3d"
       inkscape:vp_x="0 : 8 : 1"
       inkscape:vp_y="0 : 1000 : 0"
       inkscape:vp_z="16 : 8 : 1"
       inkscape:persp3d-origin="8 : 5.3333333 : 1"
       id="perspective2393" />
  </defs>
  <sodipodi:namedview
     id="base"
     pagecolor="#ffffff"
     bordercolor="#666666"
     borderopacity="1.0"
     inkscape:pageopacity="0.0"
     inkscape:pageshadow="2"
     inkscape:zoom="29.256478"
     inkscape:cx="7.8236479"
     inkscape:cy="8.3260504"
     inkscape:current-layer="layer1"
     showgrid="true"
     inkscape:grid-bbox="true"
     inkscape:document-units="px"
     gridtolerance="7"
     guidetolerance="3"
     inkscape:window-width="1024"
     inkscape:window-height="718"
     inkscape:window-x="0"
     inkscape:window-y="0"
     inkscape:snap-bbox="true"
     inkscape:object-paths="true"
     inkscape:object-nodes="true">
    <inkscape:grid
       type="xygrid"
       id="grid3169"
       visible="true"
       enabled="true" />
  </sodipodi:namedview>
  <metadata
     id="metadata2390">
    <rdf:RDF>
      <cc:Work
         rdf:about="">
        <dc:format>image/svg+xml</dc:format>
        <dc:type
           rdf:resource="http://purl.org/dc/dcmitype/StillImage" />
      </cc:Work>
    </rdf:RDF>
  </metadata>
  <g
     id="layer1"
     inkscape:label="Layer 1"
     inkscape:groupmode="layer">
    <rect
       style="opacity:0;fill:#ffffff;fill-opacity:1;fill-rule:evenodd;stroke:none;stroke-width:1;stroke-miterlimit:4;stroke-dasharray:none;stroke-opacity:1"
       id="rect3254"
       width="16"
       height="16"
       x="0"
       y="0"
       ry="0" />
    <path
       style="font-size:28px;font-style:normal;font-weight:normal;fill:#000000;fill-opacity:1;stroke:none;stroke-width:1px;stroke-linecap:butt;stroke-linejoin:miter;stroke-opacity:1;font-family:Century"
       d="M 8.649968,13.672566 L 8.5526236,14 L 3.6145702,14 L 3.7384642,13.672566 C 4.2340385,13.660766 4.561472,13.61947 4.7207648,13.548673 C 4.9803506,13.448378 5.1720915,13.309735 5.2959864,13.132743 C 5.490675,12.855458 5.6912649,12.359883 5.8977558,11.646018 L 7.986252,4.4070797 C 8.1632391,3.80532 8.2517344,3.3510431 8.251738,3.0442478 C 8.2517344,2.8908665 8.213386,2.7610731 8.1366939,2.6548672 C 8.0599936,2.5486839 7.9419998,2.4690381 7.7827116,2.4159291 C 7.6293163,2.3569438 7.325481,2.3274453 6.8712075,2.3274337 L 6.9774016,2 L 11.614578,2 L 11.517233,2.3274337 C 11.139644,2.3215456 10.859408,2.3628434 10.676525,2.4513274 C 10.411031,2.569333 10.207492,2.7374744 10.065905,2.9557523 C 9.9302051,3.1740521 9.7532143,3.6578275 9.5349306,4.4070797 L 7.455278,11.646018 C 7.2664841,12.312686 7.1720895,12.737464 7.1720922,12.920354 C 7.1720895,13.067847 7.2074872,13.194691 7.2782873,13.300886 C 7.3549795,13.401181 7.4729742,13.480826 7.6322696,13.539823 C 7.7974572,13.592921 8.1366903,13.637169 8.649968,13.672566"
       id="text2410" />
  </g>
</svg>
