<svg xmlns="http://www.w3.org/2000/svg" width="16" height="16"><path style="fill:#000;fill-opacity:1;fill-rule:nonzero;stroke:none;stroke-width:.5;stroke-linejoin:miter;stroke-miterlimit:4;stroke-dasharray:none;stroke-dashoffset:0;stroke-opacity:1" d="M1 1h14v14H1z"/><path style="fill:#87aade;fill-opacity:1;fill-rule:nonzero;stroke:none;stroke-width:.5;stroke-linejoin:miter;stroke-miterlimit:4;stroke-dasharray:none;stroke-dashoffset:0;stroke-opacity:1" d="M1.5 1.5h13v13h-13z"/><path style="fill:none;fill-rule:evenodd;stroke:#000;stroke-width:.5;stroke-linecap:square;stroke-linejoin:miter;stroke-miterlimit:4;stroke-dasharray:none;stroke-opacity:1" d="M.267 10.25H15.71M5.75.295v15.433M.267 5.75H15.71"/><path style="fill:none;fill-rule:evenodd;stroke:#000;stroke-width:.49999997;stroke-linecap:square;stroke-linejoin:miter;stroke-miterlimit:4;stroke-dasharray:none;stroke-opacity:1" d="M10.25.267v15.462"/><path style="fill:#87aade;fill-opacity:1;fill-rule:nonzero;stroke:none;stroke-width:.5;stroke-linejoin:miter;stroke-miterlimit:4;stroke-dasharray:none;stroke-dashoffset:0;stroke-opacity:1" d="M5 2h6v1H5zM5 4h6v1H5zM5 11h6v1H5zM5 13h6v1H5z"/><path style="fill:#87aade;fill-opacity:1;fill-rule:nonzero;stroke:none;stroke-width:.5;stroke-linejoin:miter;stroke-miterlimit:4;stroke-dasharray:none;stroke-dashoffset:0;stroke-opacity:1" transform="rotate(-90)" d="M-11 2h6v1h-6zM-11 4h6v1h-6zM-11 11h6v1h-6zM-11 13h6v1h-6zM-11 7.5h6v1h-6z"/><path style="fill:#87aade;fill-opacity:1;fill-rule:nonzero;stroke:none;stroke-width:.5;stroke-linejoin:miter;stroke-miterlimit:4;stroke-dasharray:none;stroke-dashoffset:0;stroke-opacity:1" d="M5 7.5h6v1H5z"/></svg>