<?xml version="1.0" encoding="UTF-8" standalone="no"?>
<!-- Created with Inkscape (http://www.inkscape.org/) -->

<svg
   xmlns:dc="http://purl.org/dc/elements/1.1/"
   xmlns:cc="http://creativecommons.org/ns#"
   xmlns:rdf="http://www.w3.org/1999/02/22-rdf-syntax-ns#"
   xmlns:svg="http://www.w3.org/2000/svg"
   xmlns="http://www.w3.org/2000/svg"
   xmlns:sodipodi="http://sodipodi.sourceforge.net/DTD/sodipodi-0.dtd"
   xmlns:inkscape="http://www.inkscape.org/namespaces/inkscape"
   width="16px"
   height="16px"
   id="svg2385"
   sodipodi:version="0.32"
   inkscape:version="0.47 r22583"
   sodipodi:docname="find_in_base.svg"
   inkscape:output_extension="org.inkscape.output.svg.inkscape"
   version="1.1">
  <defs
     id="defs2387">
    <inkscape:perspective
       sodipodi:type="inkscape:persp3d"
       inkscape:vp_x="0 : 8 : 1"
       inkscape:vp_y="0 : 1000 : 0"
       inkscape:vp_z="16 : 8 : 1"
       inkscape:persp3d-origin="8 : 5.3333333 : 1"
       id="perspective2393" />
    <filter
       inkscape:collect="always"
       id="filter3287"
       x="-0.23324579"
       width="1.4664916"
       y="-0.21568978"
       height="1.4313796">
      <feGaussianBlur
         inkscape:collect="always"
         stdDeviation="0.16033254"
         id="feGaussianBlur3289" />
    </filter>
    <inkscape:perspective
       id="perspective2989"
       inkscape:persp3d-origin="0.5 : 0.33333333 : 1"
       inkscape:vp_z="1 : 0.5 : 1"
       inkscape:vp_y="0 : 1000 : 0"
       inkscape:vp_x="0 : 0.5 : 1"
       sodipodi:type="inkscape:persp3d" />
  </defs>
  <sodipodi:namedview
     id="base"
     pagecolor="#ffffff"
     bordercolor="#666666"
     borderopacity="1.0"
     inkscape:pageopacity="0.0"
     inkscape:pageshadow="2"
     inkscape:zoom="11.6998"
     inkscape:cx="11.340575"
     inkscape:cy="3.7434132"
     inkscape:current-layer="layer1"
     showgrid="true"
     inkscape:grid-bbox="true"
     inkscape:document-units="px"
     gridtolerance="17"
     guidetolerance="3"
     inkscape:window-width="1016"
     inkscape:window-height="711"
     inkscape:window-x="0"
     inkscape:window-y="0"
     inkscape:snap-bbox="true"
     inkscape:object-paths="true"
     inkscape:object-nodes="true"
     inkscape:snap-nodes="true"
     objecttolerance="26"
     inkscape:bbox-paths="false"
     inkscape:bbox-nodes="false"
     inkscape:window-maximized="1">
    <inkscape:grid
       type="xygrid"
       id="grid3169"
       visible="true"
       enabled="true" />
  </sodipodi:namedview>
  <metadata
     id="metadata2390">
    <rdf:RDF>
      <cc:Work
         rdf:about="">
        <dc:format>image/svg+xml</dc:format>
        <dc:type
           rdf:resource="http://purl.org/dc/dcmitype/StillImage" />
        <dc:title></dc:title>
      </cc:Work>
    </rdf:RDF>
  </metadata>
  <g
     id="layer1"
     inkscape:label="Layer 1"
     inkscape:groupmode="layer">
    <g
       id="g4373"
       transform="translate(6,0)">
      <path
         transform="matrix(0.87764615,0,0.00826619,1.031499,-22.477637,-8.9505463)"
         d="m 29.622498,22 c 0,0.552285 -2.15407,1 -4.811249,1 C 22.154069,23 20,22.552285 20,22 c 0,-0.552285 2.154069,-1 4.811249,-1 2.657179,0 4.811249,0.447715 4.811249,1 z"
         sodipodi:ry="1"
         sodipodi:rx="4.8112488"
         sodipodi:cy="22"
         sodipodi:cx="24.811249"
         id="path3183"
         style="fill:#87aade;fill-opacity:1;fill-rule:nonzero;stroke:#000000;stroke-width:0.52550364;stroke-miterlimit:4;stroke-opacity:1;stroke-dasharray:none"
         sodipodi:type="arc" />
      <rect
         y="11.402765"
         x="-4.7263212"
         height="2.3351038"
         width="8.428627"
         id="rect3192"
         style="fill:#87aade;fill-opacity:1;fill-rule:nonzero;stroke:none" />
      <path
         transform="matrix(0.87764615,0,0.00826619,1.031499,-22.461092,-11.426143)"
         d="m 29.622498,22 c 0,0.552285 -2.15407,1 -4.811249,1 C 22.154069,23 20,22.552285 20,22 c 0,-0.552285 2.154069,-1 4.811249,-1 2.657179,0 4.811249,0.447715 4.811249,1 z"
         sodipodi:ry="1"
         sodipodi:rx="4.8112488"
         sodipodi:cy="22"
         sodipodi:cx="24.811249"
         id="path3181"
         style="fill:#87aade;fill-opacity:1;fill-rule:nonzero;stroke:#000000;stroke-width:0.52550364;stroke-miterlimit:4;stroke-opacity:1;stroke-dasharray:none"
         sodipodi:type="arc" />
      <rect
         y="8.9084063"
         x="-4.7428613"
         height="2.3351038"
         width="8.428627"
         id="rect3190"
         style="fill:#87aade;fill-opacity:1;fill-rule:nonzero;stroke:none" />
      <path
         transform="matrix(0.87764615,0,0.00826619,1.031499,-22.461092,-13.901741)"
         d="m 29.622498,22 c 0,0.552285 -2.15407,1 -4.811249,1 C 22.154069,23 20,22.552285 20,22 c 0,-0.552285 2.154069,-1 4.811249,-1 2.657179,0 4.811249,0.447715 4.811249,1 z"
         sodipodi:ry="1"
         sodipodi:rx="4.8112488"
         sodipodi:cy="22"
         sodipodi:cx="24.811249"
         id="path3179"
         style="fill:#87aade;fill-opacity:1;fill-rule:nonzero;stroke:#000000;stroke-width:0.52550364;stroke-miterlimit:4;stroke-opacity:1;stroke-dasharray:none"
         sodipodi:type="arc" />
      <rect
         y="6.4426513"
         x="-4.7570524"
         height="2.3351038"
         width="8.428627"
         id="rect3185"
         style="fill:#87aade;fill-opacity:1;fill-rule:nonzero;stroke:none" />
      <path
         sodipodi:nodetypes="cccc"
         id="rect3187"
         d="m -4.7428608,13.73616 0,-7.2395534 8.4451652,0 0,7.2395534"
         style="fill:none;stroke:#000000;stroke-width:0.49999994;stroke-miterlimit:4;stroke-opacity:1" />
      <path
         transform="matrix(0.87764615,0,0.00826619,1.031499,-22.47763,-16.377337)"
         d="m 29.622498,22 c 0,0.552285 -2.15407,1 -4.811249,1 C 22.154069,23 20,22.552285 20,22 c 0,-0.552285 2.154069,-1 4.811249,-1 2.657179,0 4.811249,0.447715 4.811249,1 z"
         sodipodi:ry="1"
         sodipodi:rx="4.8112488"
         sodipodi:cy="22"
         sodipodi:cx="24.811249"
         id="path3173"
         style="fill:#87aade;fill-opacity:1;fill-rule:nonzero;stroke:#000000;stroke-width:0.52550364;stroke-miterlimit:4;stroke-opacity:1;stroke-dasharray:none"
         sodipodi:type="arc" />
    </g>
    <path
       style="fill:#000000;fill-opacity:1;fill-rule:nonzero;stroke:none;stroke-width:0.50000006;stroke-miterlimit:4;stroke-opacity:1"
       d="M 10.999243,10.221217 C 10.91724,10.316458 10.85501,10.419289 10.765859,10.51006 C 10.679381,10.59811 10.576274,10.669701 10.485799,10.750762 L 11.325981,12.194975 L 14.453324,15.468525 L 15.526889,14.361295 L 12.399546,11.135885 L 10.999243,10.221217 z"
       id="path3341" />
    <path
       sodipodi:type="arc"
       style="opacity:0.45;fill:#3d6ea2;fill-opacity:1;fill-rule:nonzero;stroke:#000000;stroke-width:0.30775019999999997;stroke-miterlimit:4;stroke-dasharray:none;stroke-opacity:1"
       id="path3343"
       sodipodi:cx="38.5"
       sodipodi:cy="24.5"
       sodipodi:rx="3.5"
       sodipodi:ry="3.5"
       d="M 42,24.5 A 3.5,3.5 0 1 1 35,24.5 A 3.5,3.5 0 1 1 42,24.5 z"
       transform="matrix(1.1388737,-1.1595665,1.12355,1.1737914,-64.531318,22.300693)" />
    <rect
       style="fill:#000000;fill-opacity:1;fill-rule:nonzero;stroke:none;stroke-width:0.5;stroke-miterlimit:4;stroke-dasharray:none;stroke-opacity:1"
       id="rect3345"
       width="2.2754321"
       height="0.75878036"
       x="-0.63063383"
       y="20.766859"
       transform="matrix(0.7007123,-0.7134439,0.6914775,0.722398,0,0)" />
    <path
       sodipodi:type="arc"
       style="opacity:0.28458497;fill:#dbcfe8;fill-opacity:1;fill-rule:nonzero;stroke:none;stroke-width:0.5;stroke-miterlimit:4;stroke-dasharray:none;stroke-opacity:1;filter:url(#filter3287)"
       id="path3347"
       sodipodi:cx="37.824879"
       sodipodi:cy="23.892017"
       sodipodi:rx="0.82487684"
       sodipodi:ry="0.89201748"
       d="M 38.649756,23.892017 A 0.82487684,0.89201748 0 1 1 37.000002,23.892017 A 0.82487684,0.89201748 0 1 1 38.649756,23.892017 z"
       transform="matrix(1.6515492,-1.681557,1.5040269,1.5712819,-93.613901,30.742347)" />
    <path
       sodipodi:type="arc"
       style="fill:none;fill-opacity:1;fill-rule:nonzero;stroke:#000000;stroke-width:0.30775023;stroke-miterlimit:4;stroke-dasharray:none;stroke-opacity:1"
       id="path3349"
       sodipodi:cx="38.5"
       sodipodi:cy="24.5"
       sodipodi:rx="3.5"
       sodipodi:ry="3.5"
       d="M 42,24.5 A 3.5,3.5 0 1 1 35,24.5 A 3.5,3.5 0 1 1 42,24.5 z"
       transform="matrix(1.1388737,-1.1595665,1.12355,1.1737914,-64.531316,22.300693)" />
  </g>
</svg>
