<svg xmlns="http://www.w3.org/2000/svg" width="16" height="16"><path d="M2 1h8l3 3v11H2V1z" style="fill:#87aade;fill-opacity:1;fill-rule:nonzero;stroke:#000;stroke-width:.52098560000000005;stroke-miterlimit:4;stroke-dashoffset:0;stroke-opacity:1" transform="matrix(.95424 0 0 .96523 .35 .28)"/><path d="M10 1.25v2.732h2.75" style="fill:#a9bed4;fill-opacity:1;fill-rule:evenodd;stroke:#000;stroke-width:.52098560000000005;stroke-linecap:butt;stroke-linejoin:miter;stroke-miterlimit:4;stroke-dasharray:none;stroke-opacity:1" transform="matrix(.95424 0 0 .96523 .35 .28)"/><path d="m6.342 13.768 2.793-.558 5.587-5.587-2.235-2.235L6.9 10.975l-.558 2.793z" style="fill:#f0eca2;fill-opacity:1;fill-rule:evenodd;stroke:#000;stroke-width:.41936961;stroke-linecap:butt;stroke-linejoin:miter;stroke-miterlimit:4;stroke-opacity:1;stroke-dasharray:none" transform="scale(1 1.4215) rotate(45 14.463 9.184)"/><path d="M9.275 13.07c-.54-1-1.267-1.769-2.235-2.235l5.447-5.447 2.235 2.235-5.447 5.447z" style="fill:#9999f3;fill-opacity:1;fill-rule:nonzero;stroke:#000;stroke-width:.41936961;stroke-miterlimit:4;stroke-opacity:1;stroke-dashoffset:0" transform="scale(1 1.4215) rotate(45 14.463 9.184)"/><path d="m6.385 13.725 1.268-.227c-.238-.438-.563-.803-1.04-1.041l-.228 1.268z" style="fill:#9292ec;fill-opacity:1;fill-rule:evenodd;stroke:#000;stroke-width:.20968482;stroke-linecap:butt;stroke-linejoin:miter;stroke-miterlimit:4;stroke-opacity:1;stroke-dasharray:none" transform="scale(1 1.4215) rotate(45 14.463 9.184)"/><path d="m8.258 11.532 5.192-5.181M8.902 12.325l5.327-5.327" style="fill:none;stroke:#000;stroke-width:.20968482;stroke-linecap:butt;stroke-linejoin:miter;stroke-miterlimit:4;stroke-opacity:1;stroke-dasharray:none" transform="scale(1 1.4215) rotate(45 14.463 9.184)"/></svg>