<?xml version="1.0" encoding="utf-8"?>
<!-- Generator: Adobe Illustrator 18.1.1, SVG Export Plug-In . SVG Version: 6.00 Build 0)  -->
<svg xmlns="http://www.w3.org/2000/svg" xmlns:xlink="http://www.w3.org/1999/xlink" version="1.1" id="Layer_1" x="0px" y="0px" viewBox="0 0 48 48" enable-background="new 0 0 48 48" xml:space="preserve">
  <path fill="#7986CB" d="M15.4,34.1L24,37l8.6-2.9c1.9-0.6,3-2.6,2.6-4.6L33,20H15l-2.2,9.5C12.3,31.5,13.5,33.5,15.4,34.1z"/>
  <path fill="#9FA8DA" d="M29,30l-3-3h-4l-3,3v7c0,1.1,0.9,2,2,2h6c1.1,0,2-0.9,2-2V30z"/>
  <g>
	<path fill="#3949AB" d="M31,7c-0.5,0-1,0.4-1,1c0,0,0,0,0,0c-0.4,0-0.8,0.2-0.9,0.6c-0.2,0.5,0,1.1,0.6,1.3   C30,10.1,40,14.4,40,32.4V37c0,0.6,0.4,1,1,1s1-0.4,1-1v-4.6c0-14.4-6.1-20.7-9.5-23.1C35.9,10.3,44,14.7,44,34c0,0.6,0.4,1,1,1   s1-0.4,1-1C46,7.7,31.6,7,31,7z"/>
	<path fill="#3949AB" d="M29.5,10.1c-0.5-0.3-1.1-0.1-1.3,0.4c-0.3,0.5-0.1,1.1,0.4,1.4c0.1,0,7.5,4.3,7.5,20.1v8c0,0.6,0.4,1,1,1   s1-0.4,1-1v-8C38,14.9,29.8,10.3,29.5,10.1z"/>
	<path fill="#3949AB" d="M18.4,9.9c0.5-0.2,0.8-0.8,0.6-1.3C18.8,8.2,18.4,8,18,8c0,0,0,0,0,0c0-0.6-0.5-1-1-1C16.4,7,2,7.7,2,34   c0,0.6,0.4,1,1,1s1-0.4,1-1c0-19.6,8.1-23.8,11.6-24.7C12.2,11.6,6,17.9,6,32.4V37c0,0.6,0.4,1,1,1s1-0.4,1-1v-4.6   C8,14.4,18,10.1,18.4,9.9z"/>
	<path fill="#3949AB" d="M18.5,10.1C18.2,10.3,10,14.9,10,32v8c0,0.6,0.4,1,1,1s1-0.4,1-1v-8c0-15.8,7.4-20.1,7.5-20.1   c0.5-0.3,0.7-0.9,0.4-1.4C19.6,10,19,9.9,18.5,10.1z"/>
</g>
  <rect x="13" y="21" fill="#607D8B" width="0" height="0"/>
  <rect x="13" y="20" fill="#607D8B" width="0" height="1"/>
  <rect x="9" y="13" fill="#607D8B" width="0" height="0"/>
  <path fill="#1A237E" d="M25,24.9c0,0,0.2,1.3,0.6,1.7s3.3,2.5,5.9-0.9c1.2-1.5,0.6-3.8,0.6-3.8S29.4,24.1,25,24.9z"/>
  <path fill="#1A237E" d="M15.8,21.8c0,0-0.6,2.3,0.6,3.8c2.6,3.4,5.5,1.4,5.9,0.9c0.4-0.4,0.6-1.7,0.6-1.7  C18.6,24.1,15.8,21.8,15.8,21.8z"/>
  <ellipse fill="#9FA8DA" cx="24" cy="15" rx="12" ry="10"/>
  <ellipse fill="#7986CB" cx="24" cy="13.8" rx="10" ry="7.8"/>
  <ellipse fill="#C5CAE9" cx="24.2" cy="12.2" rx="8" ry="6.2"/>
</svg>
