<?xml version="1.0" encoding="utf-8"?>
<!-- Generator: Adobe Illustrator 18.1.1, SVG Export Plug-In . SVG Version: 6.00 Build 0)  -->
<svg xmlns="http://www.w3.org/2000/svg" xmlns:xlink="http://www.w3.org/1999/xlink" version="1.1" id="Layer_1" x="0px" y="0px" viewBox="0 0 48 48" enable-background="new 0 0 48 48" xml:space="preserve">
  <path fill="#FFB300" d="M40,28c0,6-10.1,16-16,16V6c11.8,0,16,4,16,4V28z"/>
  <path fill="#FFC107" d="M8,28c0,6,10.1,16,16,16V6C12.2,6,8,10,8,10V28z"/>
  <g>
	<path fill="#694A14" d="M34,23c0,0-2.3-3.5-7-4c0,0,1.6-2.8,4-2C34.4,18.1,34,23,34,23z"/>
	<path fill="#694A14" d="M24,30.6c5.5,0,8,2.9,8,2.9S29.9,27,24,27s-8,6.5-8,6.5S18.5,30.6,24,30.6z"/>
	<path fill="#694A14" d="M14,23c0,0,2.3-3.5,7-4c0,0-1.6-2.8-4-2C13.6,18.1,14,23,14,23z"/>
</g>
  <g>
	<path fill="#7B1FA2" d="M45,21c0,4.3-3,5-3,5v4c0,0,3-1.2,3-5S45,21,45,21z"/>
	<path fill="#7B1FA2" d="M3,21c0,4.3,2,5,2,5v4c0,0-2-1.2-2-5S3,21,3,21z"/>
</g>
  <g>
	<path fill="#BA68C8" d="M45,25c0,0-1.1-4-5-4v-4c3.9,0,5,4,5,4V25z"/>
	<path fill="#BA68C8" d="M3,25c0,0,1.1-4,5-4v-4c-3.9,0-5,4-5,4V25z"/>
</g>
</svg>
