<?xml version="1.0" encoding="utf-8"?>
<!-- Generator: Adobe Illustrator 18.1.1, SVG Export Plug-In . SVG Version: 6.00 Build 0)  -->
<svg xmlns="http://www.w3.org/2000/svg" xmlns:xlink="http://www.w3.org/1999/xlink" version="1.1" id="Layer_1" x="0px" y="0px" viewBox="0 0 48 48" enable-background="new 0 0 48 48" xml:space="preserve">
  <circle fill="#455A64" cx="24" cy="28" r="14"/>
  <path fill="#455A64" d="M42.7,9.3c3.7,3.7,4.4,9,1.5,11.9s-8.2,2.2-11.9-1.5s-4.4-9-1.5-11.9S39,5.6,42.7,9.3z"/>
  <path fill="#455A64" d="M5.3,9.3c-3.7,3.7-4.4,9-1.5,11.9s8.2,2.2,11.9-1.5s4.4-9,1.5-11.9S9,5.6,5.3,9.3z"/>
  <path fill="#FFE0B2" d="M35.2,30.6c-1.1-1.1-2-0.9-3.1-0.3c1.2-2.6,2-6,2-7.6c0-2.8-2.3-5-5-5c-2.8,0-5,2.3-5,5l0,0c0-2.8-2.3-5-5-5  c-2.8,0-5,2.3-5,5c0,1.6,0.8,5,2,7.6c-1.2-0.6-2.1-0.7-3.1,0.3c-2.5,2.5,4.2,10.4,11.2,10.4S37.8,33.1,35.2,30.6z"/>
  <ellipse fill="#263238" cx="24.3" cy="34.4" rx="2.8" ry="2"/>
  <ellipse fill="#263238" cx="27" cy="28" rx="1" ry="3"/>
  <ellipse fill="#263238" cx="21" cy="28" rx="1" ry="3"/>
  <ellipse fill="#607D8B" cx="24" cy="34.2" rx="1.2" ry="0.9"/>
</svg>
