<?xml version="1.0" encoding="utf-8"?>
<!-- Generator: Adobe Illustrator 15.0.0, SVG Export Plug-In . SVG Version: 6.00 Build 0)  -->
<!DOCTYPE svg PUBLIC "-//W3C//DTD SVG 1.1//EN" "http://www.w3.org/Graphics/SVG/1.1/DTD/svg11.dtd">
<svg xmlns="http://www.w3.org/2000/svg" xmlns:xlink="http://www.w3.org/1999/xlink" version="1.1" id="Слой_1" x="0px" y="0px" width="48px" height="48px" viewBox="0 0 48 48" enable-background="new 0 0 48 48" xml:space="preserve">
  <g>
	<rect x="34" y="15" fill="#455A64" width="3" height="2"/>
	<path fill="#455A64" d="M41,19H30c0,0,0-2,2-2s5,0,7,0S41,19,41,19z"/>
</g>
  <path fill="#E1BEE7" d="M20,35H8c-0.553,0-1-0.447-1-1v-3c0-0.553,0.447-1,1-1h12c0.553,0,1,0.447,1,1v3C21,34.553,20.553,35,20,35z  "/>
  <path fill="#FF9800" d="M9,42H4V18h5v15h30l0,0h5v9h-5v-4H9V42z"/>
  <path fill="#BA68C8" d="M19,24c0.542,1.876,1.163,6,1.163,6h-5c-1.657,0-2.329-1.111-3-3l-1.858-6.502  C9.742,18.749,11.219,17,12.828,17H14c1.656,0,3.408,1.211,4,3L19,24z"/>
  <path fill="#9C27B0" d="M44,26.696C44,25.134,42.872,24,41.317,24H19v9h25V26.696z"/>
  <g>
	<path fill="#FFB74D" d="M12.5,7c2.485,0,4.5,2.016,4.5,4.5c0,2.485-2.015,4.5-4.5,4.5S8,13.985,8,11.5C8,9.016,10.015,7,12.5,7"/>
	<path fill="#FFB74D" d="M22.172,25h-5.594l-1.27-5.55c-0.375-1.047-1.206-1.82-2.484-1.386C11.547,18.498,11.553,20.036,12,21   l1.769,5.9c0.103,0.258,0.263,0.48,0.46,0.657c0.3,0.268,0.687,0.428,1.104,0.442h6.84c0,0,1.375,0.063,1.375-1.469   S22.172,25,22.172,25z"/>
</g>
  <rect x="27" y="6" fill="#546E7A" width="17" height="10"/>
  <rect x="29" y="8" fill="#BBDEFB" width="13" height="6"/>
</svg>
