<?xml version="1.0" encoding="utf-8"?>
<!-- Generator: Adobe Illustrator 18.1.1, SVG Export Plug-In . SVG Version: 6.00 Build 0)  -->
<svg xmlns="http://www.w3.org/2000/svg" xmlns:xlink="http://www.w3.org/1999/xlink" version="1.0" id="Layer_1" x="0px" y="0px" viewBox="0 0 48 48" enable-background="new 0 0 48 48" xml:space="preserve">
  <g>
	<rect x="5" y="34" fill="#546E7A" width="6" height="3"/>
	<rect x="37" y="34" fill="#546E7A" width="6" height="3"/>
</g>
  <path fill="#78909C" d="M44,35H4c-2.2,0-4-1.8-4-4V17c0-2.2,1.8-4,4-4h40c2.2,0,4,1.8,4,4v14C48,33.2,46.2,35,44,35z"/>
  <g>
	<rect x="5" y="19" fill="#37474F" width="2" height="2"/>
	<rect x="5" y="23" fill="#37474F" width="2" height="2"/>
	<rect x="5" y="27" fill="#37474F" width="2" height="2"/>
	<rect x="9" y="19" fill="#37474F" width="2" height="2"/>
	<rect x="9" y="23" fill="#37474F" width="2" height="2"/>
	<rect x="9" y="27" fill="#37474F" width="2" height="2"/>
	<rect x="13" y="19" fill="#37474F" width="2" height="2"/>
	<rect x="13" y="23" fill="#37474F" width="2" height="2"/>
	<rect x="13" y="27" fill="#37474F" width="2" height="2"/>
	<rect x="17" y="19" fill="#37474F" width="2" height="2"/>
	<rect x="17" y="23" fill="#37474F" width="2" height="2"/>
	<rect x="17" y="27" fill="#37474F" width="2" height="2"/>
	<rect x="21" y="19" fill="#37474F" width="2" height="2"/>
	<rect x="21" y="23" fill="#37474F" width="2" height="2"/>
	<rect x="21" y="27" fill="#37474F" width="2" height="2"/>
</g>
  <circle fill="#37474F" cx="37" cy="24" r="8"/>
  <circle fill="#AA00FF" cx="37" cy="24" r="6"/>
  <g>
	<path fill="#EA80FC" d="M40.7,21.7c-1-1.1-2.3-1.7-3.7-1.7s-2.8,0.6-3.7,1.7c-0.4,0.4-0.3,1,0.1,1.4c0.4,0.4,1,0.3,1.4-0.1   c1.2-1.3,3.3-1.3,4.5,0c0.2,0.2,0.5,0.3,0.7,0.3c0.2,0,0.5-0.1,0.7-0.3C41.1,22.7,41.1,22.1,40.7,21.7z"/>
</g>
</svg>
