<?xml version="1.0" encoding="utf-8"?>
<!-- Generator: Adobe Illustrator 18.1.1, SVG Export Plug-In . SVG Version: 6.00 Build 0)  -->
<svg xmlns="http://www.w3.org/2000/svg" xmlns:xlink="http://www.w3.org/1999/xlink" version="1.0" id="Layer_1" x="0px" y="0px" viewBox="0 0 48 48" enable-background="new 0 0 48 48" xml:space="preserve">
  <g>
	<circle fill="#37474F" cx="33" cy="16" r="6"/>
	<circle fill="#37474F" cx="15" cy="16" r="6"/>
	<g>
		<path fill="#37474F" d="M46.7,25l-15.3,3H16.7L1.4,25l4.3-7.9c1.1-1.9,3.1-3.1,5.3-3.1h26.2c2.2,0,4.2,1.2,5.3,3.1L46.7,25z"/>
		<circle fill="#37474F" cx="38" cy="30" r="10"/>
		<circle fill="#37474F" cx="10" cy="30" r="10"/>
		<circle fill="#37474F" cx="24" cy="28" r="5"/>
	</g>
</g>
  <circle fill="#546E7A" cx="24" cy="28" r="2"/>
  <g>
	<circle fill="#AA00FF" cx="38" cy="30" r="7"/>
	<circle fill="#AA00FF" cx="10" cy="30" r="7"/>
</g>
  <g>
	<path fill="#CE93D8" d="M41.7,27.7c-1-1.1-2.3-1.7-3.7-1.7s-2.8,0.6-3.7,1.7c-0.4,0.4-0.3,1,0.1,1.4c0.4,0.4,1,0.3,1.4-0.1   c1.2-1.3,3.3-1.3,4.5,0c0.2,0.2,0.5,0.3,0.7,0.3c0.2,0,0.5-0.1,0.7-0.3C42.1,28.7,42.1,28.1,41.7,27.7z"/>
	<path fill="#CE93D8" d="M10,26c-1.4,0-2.8,0.6-3.7,1.7c-0.4,0.4-0.3,1,0.1,1.4c0.4,0.4,1,0.3,1.4-0.1c1.2-1.3,3.3-1.3,4.5,0   c0.2,0.2,0.5,0.3,0.7,0.3c0.2,0,0.5-0.1,0.7-0.3c0.4-0.4,0.4-1,0.1-1.4C12.8,26.6,11.4,26,10,26z"/>
</g>
</svg>
