<?xml version="1.0" encoding="utf-8"?>
<!-- Generator: Adobe Illustrator 18.1.1, SVG Export Plug-In . SVG Version: 6.00 Build 0)  -->
<svg xmlns="http://www.w3.org/2000/svg" xmlns:xlink="http://www.w3.org/1999/xlink" version="1.1" id="Layer_1" x="0px" y="0px" viewBox="0 0 48 48" enable-background="new 0 0 48 48" xml:space="preserve">
  <path fill="#1565C0" d="M32,5c7.7,0,10,10.6,10,19c0,8.1-3.1,15-8,15s-6-4.4-6-8c0-3.8,1-7.8,1-11c0-4.8-3-6-3-9S28.1,5,32,5z"/>
  <path fill="#E39F00" d="M31,16.9l-1.7,1.1c4,5.8,12.1,7.8,12.4,7.9l0.5-1.9C42.1,24,34.5,22.1,31,16.9z"/>
  <path fill="#FFC107" d="M41.7,16.3c-0.5-0.3-1.1-0.1-1.4,0.4c0,0.1-3.9,7.3-10.7,8.3c-0.5,0.1-0.9,0.6-0.8,1.1  c0.1,0.5,0.5,0.8,1,0.8c0,0,0.1,0,0.2,0c7.7-1.2,11.9-9.1,12.1-9.4C42.3,17.2,42.2,16.6,41.7,16.3z"/>
  <path fill="#90CAF9" d="M32,4c-4.5,0-7,3.6-7,7c0,3,3,5.2,3,9c0,4.8-1,7.3-1,11c0,6.3,2.6,9,7,9c5.8,0,9-7.8,9-16  C43,14.3,40.1,4,32,4z M41,23.1C40.9,28,38.9,30,36.2,30c-6.9,0-4.2-6.8-4.2-8.9c0-5.9-3-8.6-3-11.5c0-1.6,1.1-3.6,3.9-3.6  C40,7,40.9,18.9,41,23.1z"/>
  <path fill="#1565C0" d="M22,14c0,3-3,4.2-3,9c0,3.2,1,7.2,1,11c0,3.6-1.1,8-6,8s-8-6.9-8-15C6,18.6,8.3,8,16,8C19.9,8,22,11,22,14z"/>
  <path fill="#E39F00" d="M17,19.9l1.7,1.1c-4,5.8-12.1,7.8-12.4,7.9L5.8,27C5.9,27,13.5,25.1,17,19.9z"/>
  <path fill="#FFC107" d="M6.3,19.3c0.5-0.3,1.1-0.1,1.4,0.4c0,0.1,3.9,7.3,10.7,8.3c0.5,0.1,0.9,0.6,0.8,1.1c-0.1,0.5-0.5,0.8-1,0.8  c0,0-0.1,0-0.2,0C10.3,28.9,6.1,21,5.9,20.7C5.7,20.2,5.8,19.6,6.3,19.3z"/>
  <path fill="#90CAF9" d="M5,27c0,8.2,3.2,16,9,16c4.4,0,7-2.8,7-9c0-3.6-1-6.2-1-11c0-3.8,3-6,3-9c0-3.4-2.5-7-7-7C7.9,7,5,17.3,5,27  z M15.1,9.1c2.7,0,3.9,2,3.9,3.6c0,2.9-3,5.6-3,11.5c0,2,2.7,8.9-4.2,8.9c-2.6,0-4.7-2-4.8-6.9C7.1,21.9,8,10,15.1,9.1z"/>
</svg>
