<?xml version="1.0" encoding="utf-8"?>
<!-- Generator: Adobe Illustrator 18.1.1, SVG Export Plug-In . SVG Version: 6.00 Build 0)  -->
<svg xmlns="http://www.w3.org/2000/svg" xmlns:xlink="http://www.w3.org/1999/xlink" version="1.1" id="Layer_1" x="0px" y="0px" viewBox="0 0 48 48" enable-background="new 0 0 48 48" xml:space="preserve">
  <path fill="#795548" d="M9.9,40.5l1.8,2.7c0.5,0.8,1.6,1,2.4,0.5l3.9-2.8c0.5-0.3,0.7-0.9,0.6-1.5l-0.3-1.6l2.8-2.4l3-0.4  c0,0,3.5-2.1,7.9-6.3c3.6-3.6,5-6.5,5.7-8c0.2-0.5,0.1-1.1-0.3-1.5l-1-1.1l-0.8-0.3c0.1,0.2-4.2,1.5-7.3,4.5  c-3.1,3-5.1,4.7-11.8,9.9C15.3,33.2,9.9,40.5,9.9,40.5z"/>
  <path fill="#EF6C00" d="M28.4,14.8c-0.9,0.9-2.1,2.4-2.1,2.4c-7.3,5.1-13.4,1-14.1,0.4C11.5,16.8,7.8,13,7.8,13  c-2.7,2.7-2.4,4.7-1.9,5.9c-0.5,1-3.6,3.4-5.4,4.7c-0.6,0.5-0.7,1.3-0.2,2c1.6,2,4.7,6.2,5.5,7.7c0.6,6.2,4.1,7.3,4.1,7.3  s1-0.1,3.8-1.7c1.3-0.7,4.2-3.6,6-4.9c5.2-4.2,7.7-5.2,11.3-8.9c4-4,4.8-7.4,4.8-7.4C36.3,16.5,32.4,11.2,28.4,14.8z"/>
  <g>
	<path fill="#D46000" d="M5.8,33.2c0.6,6.2,4.1,7.3,4.1,7.3s1-0.1,3.8-1.7c0.7-0.3,1.7-1.2,2.8-2.2C16.2,34.6,10.3,31.3,5.8,33.2z"/>
	<path fill="#D46000" d="M28.4,14.8c-0.9,0.9-2.1,2.4-2.1,2.4c-0.9,4.7,4.3,8.2,4.7,7.8c4-4,4.8-7.4,4.8-7.4   C36.3,16.5,32.4,11.2,28.4,14.8z"/>
</g>
  <path fill="#F44336" d="M46.4,20.2c0.4-0.9,0.6-1.8,0.6-2.7c0-3.1-2.2-5.7-5.1-6.4C41.2,8.2,38.6,6,35.5,6c-0.9,0-1.9,0.2-2.7,0.6  c-1.2-1-2.7-1.6-4.3-1.6c-3.4,0-6.1,2.7-6.2,2.8l1.4,1.4c0,0,2.2-2.2,4.8-2.2c1.3,0,2.5,0.5,3.3,1.5l0.6,0.6l0.7-0.4  C33.8,8.2,34.7,8,35.5,8c2.3,0,4.3,1.8,4.5,4.1l0.1,0.8l0.8,0.1c2.3,0.2,4.1,2.2,4.1,4.5c0,0.8-0.2,1.7-0.7,2.4l-0.4,0.7l0.6,0.6  c1,0.9,1.5,2.1,1.5,3.3c0,2.6-2.2,4.8-2.2,4.8l0.7,0.7l0.7,0.7c0.1-0.1,2.8-2.8,2.8-6.2C48,22.9,47.4,21.4,46.4,20.2z"/>
  <g>
	<circle fill="#263238" cx="23.2" cy="21.7" r="1.2"/>
	<circle fill="#263238" cx="18.6" cy="22" r="1.2"/>
	<circle fill="#263238" cx="9.7" cy="19.3" r="1.2"/>
	<circle fill="#263238" cx="13.7" cy="21.5" r="1.2"/>
</g>
  <g>
	<path fill="#FF9800" d="M23.8,21.5L23,19c-0.1-0.3-0.4-0.5-0.7-0.4c-0.3,0.1-0.5,0.4-0.4,0.7l0.8,2.5c0.1,0.2,0.3,0.4,0.6,0.4   c0.1,0,0.1,0,0.2,0C23.7,22.1,23.9,21.8,23.8,21.5z"/>
	<path fill="#FF9800" d="M18.6,19.1c-0.3,0-0.6,0.3-0.6,0.6V22c0,0.3,0.3,0.6,0.6,0.6s0.6-0.3,0.6-0.6v-2.3   C19.2,19.4,19,19.1,18.6,19.1z"/>
	<path fill="#FF9800" d="M15.1,18.5c-0.3-0.1-0.6,0-0.8,0.3l-1.2,2.5c-0.1,0.3,0,0.6,0.3,0.8c0.1,0,0.2,0.1,0.2,0.1   c0.2,0,0.4-0.1,0.5-0.3l1.2-2.5C15.5,18.9,15.4,18.6,15.1,18.5z"/>
	<path fill="#FF9800" d="M11.5,16.8l-2.2,2.1c-0.2,0.2-0.2,0.6,0,0.8c0.1,0.1,0.3,0.2,0.4,0.2c0.1,0,0.3-0.1,0.4-0.2l2.2-2.1   c0.2-0.2,0.2-0.6,0-0.8C12.1,16.6,11.7,16.6,11.5,16.8z"/>
</g>
</svg>
