<?xml version="1.0" encoding="utf-8"?>
<!-- Generator: Adobe Illustrator 18.1.1, SVG Export Plug-In . SVG Version: 6.00 Build 0)  -->
<svg xmlns="http://www.w3.org/2000/svg" xmlns:xlink="http://www.w3.org/1999/xlink" version="1.1" id="Layer_1" x="0px" y="0px" viewBox="0 0 48 48" enable-background="new 0 0 48 48" xml:space="preserve">
  <path fill="#BBDEFB" d="M43,24c0-0.7,0.4-1.3,0.9-1.7C43.1,12.1,34.5,4,24,4c-5,0-9.5,1.8-13,4.8c0,0.1,0,0.1,0,0.2c0,1.1-0.9,2-2,2  c-0.1,0-0.1,0-0.2,0C5.8,14.5,4,19,4,24c0,8.2,4.9,15.2,12,18.3c0.3-0.2,0.7-0.3,1-0.3c0.9,0,1.6,0.5,1.9,1.3  c1.6,0.4,3.4,0.7,5.1,0.7c10.5,0,19.1-8.1,19.9-18.3C43.4,25.3,43,24.7,43,24z"/>
  <g>
	<path fill="#1E88E5" d="M22.1,33.1c-0.6-0.9-0.6-2.2-0.2-3.1c-0.5,0-1.1,0.2-1.5,0.5c-1.4,0.9-1.9,2.9-0.8,4.3   c0.9,1.4,2.9,1.9,4.3,0.8c0.5-0.3,0.8-0.8,1.1-1.2C23.9,34.5,22.7,34,22.1,33.1z"/>
	<path fill="#1E88E5" d="M13.5,27.3c-0.3-0.8-0.2-1.7,0.3-2.3c-0.3,0-0.8,0-1.2,0.2c-1.2,0.5-1.8,1.8-1.4,2.9   c0.5,1.2,1.8,1.8,2.9,1.4c0.5-0.2,0.8-0.5,0.9-0.8C14.4,28.7,13.8,28.1,13.5,27.3z"/>
	<path fill="#1E88E5" d="M19.5,16c0.3-1.3,1.3-2.1,2.5-2.3c-0.4-0.3-0.6-0.5-1.1-0.6c-1.6-0.4-3.4,0.6-3.8,2.3s0.6,3.4,2.3,3.8   c0.4,0.1,0.9,0.1,1.3,0C19.6,18.4,19.1,17.1,19.5,16z"/>
</g>
  <path fill="#1E88E5" d="M43,24c0-0.7,0.4-1.3,0.9-1.7C43.1,12.1,34.5,4,24,4c0,0,3.7,2.1,6.6,7c0.1,0,0.2,0,0.4,0c1.7,0,3,1.3,3,3  c0,0.9-0.4,1.7-1.1,2.3c0.2,0.6,0.3,1.1,0.5,1.7c0.9,0.2,1.6,1,1.6,2c0,0.8-0.4,1.4-1.1,1.8C34,22.5,34,23.2,34,24  c0,5.5-1.5,9.8-3.3,12.9c0.2,0.3,0.3,0.7,0.3,1.1c0,1.1-0.9,2-2,2c-0.2,0-0.3,0-0.5-0.1C26.2,42.7,24,44,24,44  c10.5,0,19.1-8.1,19.9-18.3C43.4,25.3,43,24.7,43,24z M37.5,33c-0.4,0-0.7-0.1-1-0.2c0.9-0.4,1.5-1.3,1.5-2.3c0-1-0.6-1.9-1.5-2.3  c0.3-0.1,0.6-0.2,1-0.2c1.4,0,2.5,1.1,2.5,2.5C40,31.9,38.9,33,37.5,33z"/>
</svg>
