<?xml version="1.0" encoding="utf-8"?>
<!-- Generator: Adobe Illustrator 15.0.0, SVG Export Plug-In . SVG Version: 6.00 Build 0)  -->
<!DOCTYPE svg PUBLIC "-//W3C//DTD SVG 1.1//EN" "http://www.w3.org/Graphics/SVG/1.1/DTD/svg11.dtd">
<svg xmlns="http://www.w3.org/2000/svg" xmlns:xlink="http://www.w3.org/1999/xlink" version="1.1" id="Слой_1" x="0px" y="0px" width="48px" height="48px" viewBox="0 0 48 48" enable-background="new 0 0 48 48" xml:space="preserve">
  <path fill="#4CAF50" d="M8,9h22c2.209,0,4,1.791,4,4v22c0,2.209-1.791,4-4,4H8c-2.209,0-4-1.791-4-4V13C4,10.791,5.791,9,8,9"/>
  <polygon fill="#388E3C" points="44,35 34,29 34,19 44,13 "/>
  <path fill="#FFEB3B" d="M26.84,30.521l1.905-3.518l-2.329-1.938C26.465,24.717,26.5,24.363,26.5,24c0-0.383-0.038-0.756-0.093-1.122  l2.314-1.955L26.79,17.42l-2.887,0.914c-0.675-0.585-1.455-1.048-2.309-1.363L21,14h-4l-0.594,2.971  c-0.872,0.321-1.666,0.799-2.351,1.4l-2.896-0.893l-1.905,3.518l2.329,1.938C11.535,23.283,11.5,23.637,11.5,24  c0,0.382,0.038,0.755,0.093,1.122l-2.315,1.955l1.932,3.503l2.887-0.914c0.676,0.585,1.456,1.048,2.311,1.363L17,34h4l0.594-2.971  c0.872-0.321,1.666-0.798,2.351-1.4L26.84,30.521z M23,24c0,2.208-1.791,4-4,4s-4-1.792-4-4s1.791-4,4-4S23,21.792,23,24z"/>
</svg>
