<?xml version="1.0"?>
<svg xmlns="http://www.w3.org/2000/svg" viewBox="0 0 32 32" enable-background="new 0 0 32 32">
  <path d="M 3.71875 2.28125 L 2.28125 3.71875 L 28.28125 29.71875 L 29.71875 28.28125 L 21.15625 19.71875 C 21.382962 19.429037 21.62625 19.15125 21.90625 18.90625 C 23.80625 17.20625 25 14.69375 25 12.09375 C 25 6.79375 20.4 2.4875 15 3.1875 C 12.386588 3.5042772 10.059731 5.0522358 8.59375 7.15625 L 3.71875 2.28125 z M 15.96875 5.0625 C 19.824951 5.0284424 23 8.15625 23 12.09375 C 23 14.09375 22.09375 16.00625 20.59375 17.40625 C 20.285477 17.675989 20.017132 17.989088 19.75 18.3125 L 9.96875 8.53125 C 11.066108 6.666826 12.974243 5.3227076 15.1875 5.09375 C 15.45 5.0625 15.71167 5.0647705 15.96875 5.0625 z M 7.09375 11 C 6.79375 14 7.8875 16.9125 10.1875 18.8125 C 11.2875 19.8125 12 21.1875 12 22.6875 L 12 24 L 12 28 L 14.28125 28 C 14.628312 28.596878 15.263455 29 16 29 C 16.736545 29 17.371688 28.596878 17.71875 28 L 20 28 L 20 24 L 18 22 L 14 22 C 13.8 20.2 12.9 18.5125 11.5 17.3125 C 10.2 16.2125 9.39375 14.7 9.09375 13 L 7.09375 11 z M 14 24 L 18 24 L 18 26 L 14 26 L 14 24 z"/>
</svg>
