<?xml version="1.0"?>
<svg xmlns="http://www.w3.org/2000/svg" viewBox="0 0 32 32" enable-background="new 0 0 32 32">
  <path style="text-indent:0;text-align:start;line-height:normal;text-transform:none;block-progression:tb;-inkscape-font-specification:Bitstream Vera Sans" d="M 6 4 C 4.8954305 4 4 4.8954305 4 6 C 4 6.7396043 4.4031044 7.3727074 5 7.71875 L 5 8 C 5 9.657353 6.0017463 11.080423 7.4375 11.6875 C 7.1956181 12.691176 7.0481699 13.758827 7.03125 14.875 C 6.8184331 14.94584 6.6174315 14.95691 6.40625 15.0625 C 5.9199435 15.305653 5.4027593 15.631981 5.09375 16.25 L 4.9375 16.5625 L 5.03125 16.90625 C 5.151667 17.448126 5.3734139 18.153688 5.78125 18.8125 C 6.0913293 19.313397 6.5802214 19.743292 7.1875 20.0625 C 7.7089053 21.953511 8.8589598 23.816169 10.375 25.28125 C 11.985735 26.837843 13.94596 28 16 28 C 18.064141 28 20.017432 26.817041 21.625 25.25 C 23.147084 23.766288 24.326032 21.892447 24.84375 20.03125 C 25.4408 19.681331 25.909227 19.230654 26.21875 18.71875 C 26.620253 18.054726 26.848333 17.354376 26.96875 16.8125 L 27.0625 16.46875 L 26.90625 16.15625 C 26.587303 15.518355 26.034512 15.220272 25.5625 15 C 25.343581 14.897838 25.175659 14.851531 24.96875 14.78125 C 24.951349 13.702001 24.805387 12.667128 24.5625 11.6875 C 25.998254 11.080423 27 9.657353 27 8 L 27 7.71875 C 27.596896 7.3727074 28 6.7396043 28 6 C 28 4.8954305 27.104569 4 26 4 C 24.895431 4 24 4.8954305 24 6 C 24 6.7396043 24.403104 7.3727074 25 7.71875 L 25 8 C 25 8.8376209 24.589994 9.4701156 23.9375 9.78125 C 22.463221 6.3345205 19.539554 4 16 4 C 13.431481 4 11.129837 5.2482905 9.53125 7.25 C 8.9333098 7.9987251 8.4235454 8.8429135 8.03125 9.78125 C 7.3941531 9.4653783 7 8.8264118 7 8 L 7 7.71875 C 7.5968956 7.3727074 8 6.7396043 8 6 C 8 4.8954305 7.1045695 4 6 4 z M 16 6 C 19.862963 6 23 9.7093567 23 15 L 23 15.5 L 23 16.25 L 23.71875 16.46875 C 24.062703 16.56702 24.440762 16.682772 24.71875 16.8125 C 24.80429 16.85242 24.78765 16.83741 24.84375 16.875 C 24.75133 17.145397 24.683273 17.404827 24.53125 17.65625 C 24.282753 18.067226 23.979178 18.340274 23.6875 18.4375 L 23 18.6875 L 23 19.34375 C 22.646702 20.767353 21.598276 22.498214 20.25 23.8125 C 18.882568 25.145459 17.235859 26 16 26 C 14.75404 26 13.114265 25.162157 11.75 23.84375 C 10.419796 22.558259 9.3669918 20.868634 9 19.40625 L 9 19.34375 L 9 18.625 L 8.25 18.4375 C 7.9924032 18.373101 7.7109139 18.141188 7.46875 17.75 C 7.3206012 17.510683 7.2483333 17.236844 7.15625 16.96875 C 7.221486 16.91791 7.209571 16.89521 7.3125 16.84375 C 7.5761935 16.711903 7.9250439 16.626779 8.15625 16.59375 L 9 16.46875 L 9 15.59375 L 9 15.09375 C 9 12.394899 9.8173374 10.098291 11.09375 8.5 C 12.370163 6.9017095 14.068519 6 16 6 z M 12.5 13 C 11.63542 13 10.980652 13.573914 10.59375 14.21875 C 10.206848 14.863586 10 15.647512 10 16.5 C 10 17.352488 10.206848 18.136414 10.59375 18.78125 C 10.980652 19.426086 11.63542 20 12.5 20 C 13.36458 20 14.019348 19.426086 14.40625 18.78125 C 14.793152 18.136414 15 17.352488 15 16.5 C 15 15.647512 14.793152 14.863586 14.40625 14.21875 C 14.019348 13.573914 13.36458 13 12.5 13 z M 19.5 13 C 18.63542 13 17.980652 13.573914 17.59375 14.21875 C 17.206848 14.863586 17 15.647512 17 16.5 C 17 17.352488 17.206848 18.136414 17.59375 18.78125 C 17.980652 19.426086 18.63542 20 19.5 20 C 20.36458 20 21.019348 19.426086 21.40625 18.78125 C 21.793152 18.136414 22 17.352488 22 16.5 C 22 15.647512 21.793152 14.863586 21.40625 14.21875 C 21.019348 13.573914 20.36458 13 19.5 13 z M 12.5 15 C 12.46385 15 12.56276 14.99 12.71875 15.25 C 12.874742 15.509986 13 15.971776 13 16.5 C 13 17.028224 12.874742 17.490014 12.71875 17.75 C 12.562758 18.009986 12.463847 18 12.5 18 C 12.53615 18 12.43724 18.01 12.28125 17.75 C 12.125258 17.490014 12 17.028224 12 16.5 C 12 15.971776 12.125258 15.509986 12.28125 15.25 C 12.437242 14.990014 12.536153 15 12.5 15 z M 19.5 15 C 19.46385 15 19.56276 14.99 19.71875 15.25 C 19.874742 15.509986 20 15.971776 20 16.5 C 20 17.028224 19.874742 17.490014 19.71875 17.75 C 19.562758 18.009986 19.463847 18 19.5 18 C 19.53615 18 19.43724 18.01 19.28125 17.75 C 19.125258 17.490014 19 17.028224 19 16.5 C 19 15.971776 19.125258 15.509986 19.28125 15.25 C 19.437242 14.990014 19.536153 15 19.5 15 z M 14 21 L 14 23 L 18 23 L 18 21 L 14 21 z"/>
</svg>
