<?xml version="1.0"?>
<svg xmlns="http://www.w3.org/2000/svg" viewBox="0 0 32 32" enable-background="new 0 0 32 32">
  <path style="text-indent:0;text-align:start;line-height:normal;text-transform:none;block-progression:tb;-inkscape-font-specification:Bitstream Vera Sans" d="M 9 6 C 6.2504209 6 4 8.2504209 4 11 C 4 12.515649 4.7069761 13.862268 5.78125 14.78125 C 3.5446928 15.954168 2 18.315468 2 21 L 4 21 C 4 18.245455 6.2454545 16 9 16 C 10.38315 16 11.49995 16.475788 12.375 17.34375 C 12.142188 17.849705 12 18.409829 12 19 C 12 20.114227 12.475261 21.116062 13.21875 21.84375 C 11.887962 22.745561 11 24.284091 11 26 L 13 26 C 13 24.345455 14.345455 23 16 23 C 17.654545 23 19 24.345455 19 26 L 21 26 C 21 24.284091 20.112038 22.745561 18.78125 21.84375 C 19.524739 21.116062 20 20.114227 20 19 C 20 18.409829 19.857812 17.849705 19.625 17.34375 C 20.50005 16.475788 21.61685 16 23 16 C 25.754545 16 28 18.245455 28 21 L 30 21 C 30 18.315468 28.455307 15.954168 26.21875 14.78125 C 27.293024 13.862268 28 12.515649 28 11 C 28 8.2504209 25.749579 6 23 6 C 20.250421 6 18 8.2504209 18 11 C 18 12.515649 18.706976 13.862268 19.78125 14.78125 C 19.267556 15.05267 18.803301 15.416624 18.375 15.8125 C 17.70618 15.309727 16.894765 15 16 15 C 15.105235 15 14.29382 15.309727 13.625 15.8125 C 13.196699 15.416624 12.732444 15.05267 12.21875 14.78125 C 13.293024 13.862268 14 12.515649 14 11 C 14 8.2504209 11.749579 6 9 6 z M 9 8 C 10.668699 8 12 9.3313011 12 11 C 12 12.668699 10.668699 14 9 14 C 7.3313011 14 6 12.668699 6 11 C 6 9.3313011 7.3313011 8 9 8 z M 23 8 C 24.668699 8 26 9.3313011 26 11 C 26 12.668699 24.668699 14 23 14 C 21.331301 14 20 12.668699 20 11 C 20 9.3313011 21.331301 8 23 8 z M 16 17 C 17.116414 17 18 17.883586 18 19 C 18 20.116414 17.116414 21 16 21 C 14.883586 21 14 20.116414 14 19 C 14 17.883586 14.883586 17 16 17 z" color="#000" overflow="visible" enable-background="accumulate" font-family="Bitstream Vera Sans"/>
</svg>
