<?xml version="1.0"?>
<svg xmlns="http://www.w3.org/2000/svg" viewBox="0 0 32 32" enable-background="new 0 0 32 32">
  <path style="text-indent:0;text-align:start;line-height:normal;text-transform:none;block-progression:tb;-inkscape-font-specification:Bitstream Vera Sans" d="M 13.1875 4 C 12.32123 4 11.582182 4.4758279 11.0625 5.0625 C 10.542818 5.6491721 10.168479 6.364722 9.84375 7.15625 C 9.3285166 8.4121314 8.98596 9.8345526 8.6875 11.15625 C 7.471082 11.43962 6.2640356 11.76284 5.28125 12.1875 C 4.721945 12.429175 4.2297429 12.711486 3.8125 13.0625 C 3.3952571 13.413514 3 13.909659 3 14.59375 C 3 15.590046 3.7184446 16.244167 4.5 16.71875 C 5.195811 17.141267 6.0794444 17.515683 7.09375 17.8125 C 7.206349 18.250712 7.4143058 18.648778 7.6875 19.03125 C 7.9699129 19.426628 8.3926073 19.759758 8.875 20 C 9.3010375 21.677433 10.081972 23.465729 11.1875 24.96875 C 12.400145 26.617402 14.011111 28 16 28 C 17.988889 28 19.599855 26.617402 20.8125 24.96875 C 21.909944 23.47672 22.665174 21.698298 23.09375 20.03125 C 23.577202 19.805262 23.989686 19.490277 24.28125 19.09375 C 24.562877 18.710738 24.78717 18.273889 24.90625 17.8125 C 25.920556 17.515683 26.804189 17.141267 27.5 16.71875 C 28.281555 16.244167 29 15.590046 29 14.59375 C 29 13.909659 28.604743 13.413514 28.1875 13.0625 C 27.770257 12.711486 27.278055 12.429175 26.71875 12.1875 C 25.735964 11.76284 24.528918 11.43962 23.3125 11.15625 C 22.959715 9.7869011 22.597375 8.3528118 22.09375 7.09375 C 21.782864 6.3165352 21.414562 5.6077507 20.90625 5.03125 C 20.397938 4.4547493 19.662897 4 18.8125 4 C 18.141288 4 17.58125 4.11875 17.15625 4.21875 C 16.73125 4.31875 16.428788 4.40625 16 4.40625 C 15.571212 4.40625 15.291995 4.31984 14.875 4.21875 C 14.458005 4.1176602 13.898611 4 13.1875 4 z M 13.1875 6 C 13.676389 6 13.998245 6.05734 14.40625 6.15625 C 14.814255 6.25516 15.328788 6.40625 16 6.40625 C 16.671212 6.40625 17.2 6.2875 17.625 6.1875 C 18.05 6.0875 18.383712 6 18.8125 6 C 19.012103 6 19.145812 6.048376 19.40625 6.34375 C 19.666688 6.6391243 19.954636 7.1834648 20.21875 7.84375 C 20.702202 9.052379 21.084776 10.694374 21.5 12.25 C 21.287711 12.33939 21.007459 12.437876 20.53125 12.53125 C 19.364033 12.760116 17.65098 12.90625 16 12.90625 C 14.34902 12.90625 12.654544 12.759873 11.5 12.53125 C 11.000927 12.432424 10.678333 12.343673 10.46875 12.25 C 10.801795 10.790378 11.180393 9.1423244 11.6875 7.90625 C 11.962771 7.235278 12.282182 6.6914529 12.5625 6.375 C 12.842818 6.0585471 13.00377 6 13.1875 6 z M 8.59375 13.25 C 8.6051249 13.269437 8.6127156 13.294253 8.625 13.3125 C 8.8321861 13.620257 9.0893016 13.796791 9.34375 13.9375 C 9.8526468 14.218918 10.439772 14.364311 11.125 14.5 C 12.495456 14.771377 14.25098 14.90625 16 14.90625 C 17.74902 14.90625 19.523467 14.771134 20.90625 14.5 C 21.597642 14.364433 22.206247 14.224885 22.71875 13.9375 C 22.975001 13.793808 23.234028 13.61442 23.4375 13.28125 C 23.442207 13.273542 23.433005 13.257916 23.4375 13.25 C 24.36145 13.491382 25.25261 13.748813 25.90625 14.03125 C 26.359445 14.227075 26.732868 14.447889 26.90625 14.59375 C 26.944394 14.625839 26.951556 14.607793 26.96875 14.625 C 26.914074 14.698426 26.77596 14.844703 26.46875 15.03125 C 25.95343 15.344167 25.092348 15.68421 24.03125 15.96875 C 21.909053 16.537831 18.968033 16.90625 16 16.90625 C 13.031967 16.90625 10.090947 16.537831 7.96875 15.96875 C 6.9076516 15.68421 6.0465696 15.344167 5.53125 15.03125 C 5.2240402 14.844703 5.0859262 14.698426 5.03125 14.625 C 5.0484443 14.607793 5.055606 14.625839 5.09375 14.59375 C 5.2671321 14.447889 5.640555 14.227075 6.09375 14.03125 C 6.7543413 13.745809 7.6586847 13.49321 8.59375 13.25 z M 21.4375 18.5625 L 21.3125 19.09375 C 20.995929 20.586155 20.231105 22.404902 19.21875 23.78125 C 18.206395 25.157598 17.011111 26 16 26 L 16 24 L 17 22 L 16 20 L 21.4375 18.5625 z" color="#000" overflow="visible" enable-background="accumulate" font-family="Bitstream Vera Sans"/>
</svg>
