<?xml version="1.0"?>
<svg xmlns="http://www.w3.org/2000/svg" viewBox="0 0 32 32" enable-background="new 0 0 32 32">
  <path style="text-indent:0;text-align:start;line-height:normal;text-transform:none;block-progression:tb;-inkscape-font-specification:Bitstream Vera Sans" d="M 15.90625 2.90625 C 12.338301 2.90625 10.242248 4.7168297 9.25 6.5 C 8.4423101 7.9515007 8.2892584 9.1695497 8.25 9.65625 C 6.8636944 10.55026 6 11.980803 6 13.40625 C 6 14.898558 6.577035 15.957784 7.3125 16.5625 C 8.0220767 17.14593 8.6820778 17.409409 9.28125 17.90625 C 9.28572 17.90995 9.27679 17.93377 9.28125 17.9375 C 10.195382 18.907174 10.803574 21.457341 11.46875 23.875 C 11.80307 25.090125 12.157803 26.273664 12.8125 27.25 C 13.467197 28.226336 14.56875 29 15.90625 29 C 17.285417 29 18.385122 28.161253 19.09375 27.125 C 19.802378 26.088747 20.263238 24.813371 20.65625 23.53125 C 21.049262 22.249129 21.362795 20.952189 21.6875 19.90625 C 22.012205 18.860311 22.414642 18.069794 22.5625 17.9375 L 22.59375 17.9375 C 23.135815 17.434154 23.779608 17.213242 24.53125 16.625 C 25.282892 16.036758 25.90625 14.953781 25.90625 13.40625 C 25.90625 12.55625 25.603038 11.693109 25.125 10.9375 C 24.778964 10.390541 24.195054 10.027706 23.625 9.65625 C 23.579432 9.1788457 23.427792 7.9566376 22.59375 6.5 C 21.575478 4.7216097 19.474199 2.90625 15.90625 2.90625 z M 15.90625 4.90625 C 18.838301 4.90625 20.118272 6.1783903 20.875 7.5 C 21.631728 8.8216097 21.6875 10.15625 21.6875 10.15625 L 21.71875 10.8125 L 22.34375 11.03125 C 22.732349 11.180711 23.140538 11.561859 23.4375 12.03125 C 23.734462 12.500641 23.90625 13.05625 23.90625 13.40625 C 23.90625 14.558719 23.710858 14.719492 23.3125 15.03125 C 22.914142 15.343008 22.076685 15.672096 21.21875 16.46875 C 20.416608 17.186456 20.13467 18.174064 19.78125 19.3125 C 19.42783 20.450936 19.088238 21.732121 18.71875 22.9375 C 18.349262 24.142879 17.931997 25.276878 17.4375 26 C 16.943003 26.723122 16.527083 27 15.90625 27 C 15.24375 27 14.920303 26.751789 14.5 26.125 C 14.079697 25.498211 13.69068 24.491125 13.375 23.34375 C 12.74364 21.048999 12.396427 18.242203 10.71875 16.5 L 10.6875 16.46875 L 10.65625 16.4375 C 9.7719905 15.671142 8.952035 15.320284 8.5625 15 C 8.172965 14.679716 8 14.513942 8 13.40625 C 8 12.650694 8.6216279 11.447874 9.59375 11.03125 L 10.1875 10.78125 L 10.1875 10.125 C 10.1875 10.125 10.26725 8.8168297 11 7.5 C 11.732752 6.1831703 12.974199 4.90625 15.90625 4.90625 z M 14.09375 9.03125 C 13.714062 9.1296875 13.4125 9.64375 13.1875 10.09375 C 12.7875 10.89375 12.29375 11.50625 11.59375 11.90625 C 11.09375 12.20625 10.5125 12.2875 10.3125 12.6875 C 9.9125 13.6875 10.7875 14.59375 11.6875 14.59375 C 13.1875 14.59375 14.0875 13.30625 14.6875 11.90625 C 14.8875 11.20625 15.4 9.49375 14.5 9.09375 C 14.35 9.01875 14.220313 8.9984375 14.09375 9.03125 z M 17.625 9.03125 C 17.556055 9.0396484 17.48125 9.05625 17.40625 9.09375 C 16.50625 9.49375 16.9875 11.20625 17.1875 11.90625 C 17.7875 13.30625 18.6875 14.59375 20.1875 14.59375 C 21.0875 14.59375 21.99375 13.6875 21.59375 12.6875 C 21.29375 12.1875 20.8125 12.10625 20.3125 11.90625 C 19.6125 11.50625 18.9875 10.89375 18.6875 10.09375 C 18.425 9.56875 18.107617 8.9724609 17.625 9.03125 z M 15.90625 13 C 15.60625 13 14.1875 15.6875 14.6875 15.6875 C 15.2875 15.6875 15.60625 15.09375 15.90625 15.09375 C 16.20625 15.09375 16.69375 15.6875 17.09375 15.6875 C 17.69375 15.6875 16.30625 13 15.90625 13 z M 16 16.59375 C 14.8 16.59375 14.3125 17.2125 14.3125 17.8125 C 14.3125 18.2125 14.80625 20.1875 14.90625 21.6875 C 14.90625 23.2875 15.4 25 16 25 C 16.7 25 16.99375 23.6 17.09375 22 C 17.19375 19.9 17.7875 18.70625 17.6875 17.90625 C 17.6875 17.50625 17.2 16.59375 16 16.59375 z" color="#000" overflow="visible" enable-background="accumulate" font-family="Bitstream Vera Sans"/>
</svg>
