<?xml version="1.0"?>
<svg xmlns="http://www.w3.org/2000/svg" viewBox="0 0 32 32" enable-background="new 0 0 32 32">
  <path style="text-indent:0;text-align:start;line-height:normal;text-transform:none;block-progression:tb;-inkscape-font-specification:Bitstream Vera Sans" d="M 8.5 7 C 4.9444444 7 2 9.9444444 2 13.5 C 2 16.031579 4.09375 17.90625 4.09375 17.90625 L 13.28125 27.09375 L 14 27.8125 L 14.71875 27.09375 L 17.90625 23.90625 L 21.28125 27.3125 L 22 28 L 22.71875 27.3125 L 28.46875 21.53125 C 28.46875 21.53125 28.49885 21.5009 28.5 21.5 C 28.55743 21.45519 30 20.330079 30 18.5 C 30 16.198225 28.212885 14.303414 25.96875 14.0625 C 25.995736 13.88439 26 13.691667 26 13.5 C 26 9.9444444 23.055556 7 19.5 7 C 16.639522 7 14.814694 8.6467196 14 9.46875 C 13.185306 8.6467196 11.360478 7 8.5 7 z M 8.5 9 C 10.877778 9 13.25 11.46875 13.25 11.46875 L 14 12.3125 L 14.75 11.46875 C 14.75 11.46875 17.122222 9 19.5 9 C 21.944444 9 24 11.055556 24 13.5 C 24 13.663929 23.923155 13.984349 23.8125 14.3125 C 23.010913 14.613409 22.423144 15.074423 22 15.46875 C 21.32297 14.837826 20.239974 14 18.5 14 C 16.038596 14 14 16.038596 14 18.5 C 14 20.330079 15.442567 21.455194 15.5 21.5 C 15.5011 21.500896 15.53125 21.53125 15.53125 21.53125 L 16.5 22.5 L 14 24.96875 L 5.59375 16.59375 L 5.5 16.5 C 5.5 16.5 4 14.768421 4 13.5 C 4 11.055556 6.0555556 9 8.5 9 z M 18.5 16 C 19.768421 16 21.25 17.46875 21.25 17.46875 L 22 18.3125 L 22.75 17.46875 C 22.75 17.46875 24.231579 16 25.5 16 C 26.838596 16 28 17.161404 28 18.5 C 28 19.033333 27.125 20.0625 27.125 20.0625 L 27.09375 20.0625 L 27.09375 20.09375 L 22 25.1875 L 16.90625 20.09375 L 16.90625 20.0625 L 16.875 20.0625 C 16.875 20.0625 16 19.033333 16 18.5 C 16 17.161404 17.161404 16 18.5 16 z" color="#000" overflow="visible" enable-background="accumulate" font-family="Bitstream Vera Sans"/>
</svg>
