<?xml version="1.0"?>
<svg xmlns="http://www.w3.org/2000/svg" viewBox="0 0 32 32" enable-background="new 0 0 32 32">
  <path style="text-indent:0;text-align:start;line-height:normal;text-transform:none;block-progression:tb;-inkscape-font-specification:Bitstream Vera Sans" d="M 2 8 L 2 9 L 2 23 L 2 24 L 3 24 L 23 24 L 24 24 L 24 23 L 24 20.625 L 28.5625 22.90625 L 30 23.625 L 30 22 L 30 10 L 30 8.375 L 28.5625 9.09375 L 24 11.375 L 24 9 L 24 8 L 23 8 L 3 8 L 2 8 z M 4 10 L 22 10 L 22 12.375 L 22 13 L 22 19 L 22 19.625 L 22 22 L 4 22 L 4 10 z M 12 11 L 10.1875 11.8125 L 10.65625 12.8125 C 10.342543 13.045458 10.0511 13.315902 9.8125 13.625 L 8.8125 13.1875 L 8 15 L 9.03125 15.46875 C 9.005533 15.646353 9 15.815117 9 16 C 9 16.179633 9.0391731 16.357661 9.0625 16.53125 L 8 17 L 8.8125 18.8125 L 9.8125 18.34375 C 10.049297 18.662626 10.337374 18.950703 10.65625 19.1875 L 10.1875 20.1875 L 12 21 L 12.46875 19.9375 C 12.642339 19.960827 12.820367 20 13 20 C 13.179633 20 13.357661 19.960827 13.53125 19.9375 L 14 21 L 15.8125 20.1875 L 15.34375 19.1875 C 15.657457 18.954542 15.9489 18.684098 16.1875 18.375 L 17.1875 18.8125 L 18 17 L 16.96875 16.53125 C 16.994467 16.353647 17 16.184883 17 16 C 17 15.820367 16.960827 15.642339 16.9375 15.46875 L 18 15 L 17.1875 13.1875 L 16.1875 13.65625 C 15.950703 13.337374 15.662626 13.049297 15.34375 12.8125 L 15.8125 11.8125 L 14 11 L 13.53125 12.0625 C 13.357661 12.039173 13.179633 12 13 12 C 12.820367 12 12.642339 12.039173 12.46875 12.0625 L 12 11 z M 28 11.625 L 28 20.375 L 24 18.375 L 24 13.625 L 28 11.625 z M 13 14 C 14.116414 14 15 14.883586 15 16 C 15 17.116414 14.116414 18 13 18 C 11.883586 18 11 17.116414 11 16 C 11 14.883586 11.883586 14 13 14 z"/>
</svg>
