<?xml version="1.0"?>
<svg xmlns="http://www.w3.org/2000/svg" viewBox="0 0 32 32" enable-background="new 0 0 32 32">
  <path style="text-indent:0;text-align:start;line-height:normal;text-transform:none;block-progression:tb;-inkscape-font-specification:Bitstream Vera Sans" d="M 1 5 L 2 7 L 2 9.71875 C 2 9.71875 1.971866 9.9519156 1.8125 10.1875 C 1.6531341 10.423084 1.5166667 10.59375 1 10.59375 L 0 10.59375 L 0 11.59375 C 0 12.310417 0.29826374 12.7617 0.71875 13.21875 C 1.1392363 13.6758 1.7733796 14.09375 2.59375 14.09375 C 2.9270833 14.09375 3.2063685 14.359079 3.0625 14.71875 L 3.0625 14.75 L 3.0625 14.78125 L 0.15625 23.1875 L 0.15625 23.21875 C -0.40907394 25.056053 0.77351062 26.991598 2.65625 27.28125 L 7.25 28 L 7.25 27.96875 C 8.8468324 28.241075 10.332742 27.186194 10.75 25.65625 L 10.78125 25.65625 L 10.78125 25.625 L 12.0625 20.21875 L 12.09375 20.1875 L 12.09375 20.15625 C 12.116734 20.018344 12.156944 20 12.3125 20 L 13.1875 20 L 15 20 C 17.209804 20 19 18.209804 19 16 L 19 14 L 27.5 14 L 28.125 14 L 28.40625 13.4375 L 29.625 11 L 31 11 L 32 11 L 32 10 L 32 7 L 32 6 L 31 6 L 30 6 L 30 5 L 28 5 L 28 6 L 4 6 L 3 5 L 1 5 z M 4 8 L 8 8 L 8 9 L 14 9 L 14 8 L 30 8 L 30 9 L 29 9 L 16 9 L 16 11 L 27.375 11 L 26.875 12 L 13 12 L 12.125 12 L 12 12.875 L 11.375 18.34375 C 10.777606 18.638405 10.294946 19.098515 10.15625 19.78125 L 10.125 19.78125 L 10.125 19.84375 L 8.8125 25.15625 C 8.6225716 25.784002 8.1703734 26.136091 7.59375 26.03125 L 7.5625 26 L 2.9375 25.3125 C 2.2202394 25.202152 1.8278239 24.543947 2.0625 23.78125 L 4.9375 15.46875 L 4.9375 15.4375 C 5.5606738 13.816841 4.2661996 12.115203 2.625 12.09375 C 2.9805893 11.860158 3.2824058 11.587965 3.46875 11.3125 C 3.8843841 10.698084 4 10.0625 4 10.0625 L 4 10 L 4 9.90625 L 4 8 z M 14.3125 14 L 17 14 L 17 16 C 17 17.190196 16.190196 18 15 18 L 13.40625 18 L 13.65625 16.09375 C 13.742167 16.158558 13.820787 16.25869 13.90625 16.3125 C 14.775767 16.859974 15.65625 17 15.65625 17 L 15.9375 15 C 15.9375 15 15.449233 14.92753 14.96875 14.625 C 14.710905 14.462653 14.473149 14.280644 14.3125 14 z" color="#000" overflow="visible" enable-background="accumulate" font-family="Bitstream Vera Sans"/>
</svg>
