<?xml version="1.0"?>
<svg xmlns="http://www.w3.org/2000/svg" viewBox="0 0 32 32" enable-background="new 0 0 32 32">
  <path style="text-indent:0;text-align:start;line-height:normal;text-transform:none;block-progression:tb;-inkscape-font-specification:Bitstream Vera Sans" d="M 15.09375 3 C 10.588022 3.4505728 7 7.2920635 7 12 L 7 14 L 6.90625 14 C 6.30625 14 5.90625 14.49375 5.90625 15.09375 L 6.3125 19.09375 C 6.4125 19.59375 6.8125 20 7.3125 20 L 7.40625 20 C 7.8964162 21.817658 8.65625 23.03125 8.65625 23.03125 C 8.65625 23.03125 9.5580371 24.488841 10.875 25.9375 C 12.191963 27.386159 13.888889 29 16 29 C 18.1 29 19.77601 27.391909 21.09375 25.96875 C 22.37935 24.580302 23.238111 23.285151 23.28125 23.21875 C 23.282075 23.217475 23.29518 23.17343 23.3125 23.15625 C 23.3456 23.11275 23.785513 22.554068 24.1875 21.5625 C 24.361186 21.134074 24.517153 20.589065 24.65625 20 C 25.125467 19.966904 25.49815 19.57175 25.59375 19.09375 L 26 15.09375 C 26.1 14.49375 25.6 14 25 14 L 25 12 C 25 7.3079365 21.502812 3.4484451 16.90625 3 L 16.84375 3 L 16.8125 3 L 16 3 L 15.1875 3 L 15.15625 3 L 15.09375 3 z M 20.25 6.375 C 21.942899 7.6466668 23 9.6670186 23 12 L 23 14.46875 L 22.1875 16 L 21.9375 16 C 21.730722 15.125166 21.079047 14.408485 20.25 14.09375 C 20.716535 14.100639 21.75 14.1875 21.75 14.1875 L 21.84375 13.1875 C 21.84375 13.1875 20.754167 13.09375 20.1875 13.09375 C 18.76369 13.09375 17.584491 13.216564 16.5625 14.125 L 17.21875 14.875 C 17.002684 15.131996 16.857841 15.456882 16.75 15.78125 C 16.49963 15.711538 16.250779 15.6875 16 15.6875 C 15.748632 15.6875 15.491016 15.70803 15.25 15.78125 C 15.142159 15.456882 14.997316 15.131996 14.78125 14.875 L 15.4375 14.125 C 14.415509 13.216564 13.23631 13.09375 11.8125 13.09375 C 11.245833 13.09375 10.15625 13.1875 10.15625 13.1875 L 10.25 14.1875 C 10.25 14.1875 11.19729 14.106408 11.6875 14.09375 C 10.88912 14.421606 10.293344 15.139709 10.09375 16 L 9.8125 16 L 9 14.46875 L 9 12 C 9 9.7326387 10.057913 7.7484169 11.6875 6.46875 C 12.487597 6.234055 13.689904 7.8125 16.09375 7.8125 C 18.257812 7.8125 19.450378 6.5227539 20.25 6.375 z M 12.6875 14.90625 C 13.632306 14.90625 14.40625 15.648944 14.40625 16.59375 C 14.40625 17.538557 13.632306 18.3125 12.6875 18.3125 C 11.742693 18.3125 11 17.538557 11 16.59375 C 11 15.648944 11.742693 14.90625 12.6875 14.90625 z M 19.3125 14.90625 C 20.257307 14.90625 21 15.648944 21 16.59375 C 21 17.538557 20.257307 18.3125 19.3125 18.3125 C 18.367694 18.3125 17.59375 17.538557 17.59375 16.59375 C 17.59375 15.648944 18.367694 14.90625 19.3125 14.90625 z M 12.3125 15.40625 C 11.9125 15.50625 11.70625 15.79375 11.90625 16.09375 C 11.90625 16.49375 12.3125 16.90625 12.8125 16.90625 C 13.3125 16.90625 13.6875 16.49375 13.6875 16.09375 C 13.6875 15.79375 13.39375 15.50625 13.09375 15.40625 C 13.09375 15.50625 13.1875 15.5875 13.1875 15.6875 C 13.1875 15.8875 12.9875 16.09375 12.6875 16.09375 C 12.3875 16.09375 12.1875 15.8875 12.1875 15.6875 C 12.1875 15.5875 12.2125 15.50625 12.3125 15.40625 z M 18.90625 15.40625 C 18.60625 15.50625 18.3125 15.79375 18.3125 16.09375 C 18.3125 16.49375 18.6875 16.90625 19.1875 16.90625 C 19.6875 16.90625 20.09375 16.49375 20.09375 16.09375 C 20.29375 15.79375 20.0875 15.50625 19.6875 15.40625 C 19.7875 15.50625 19.8125 15.5875 19.8125 15.6875 C 19.8125 15.8875 19.6125 16.09375 19.3125 16.09375 C 19.0125 16.09375 18.8125 15.8875 18.8125 15.6875 C 18.8125 15.5875 18.90625 15.50625 18.90625 15.40625 z M 9 16.625 L 9.0625 16.75 A 0.50005 0.50005 0 0 0 9.5 17 L 10.0625 17 C 10.263496 18.29081 11.344822 19.3125 12.6875 19.3125 C 14.096076 19.3125 15.256705 18.193947 15.375 16.8125 C 15.555628 16.734208 15.764842 16.6875 16 16.6875 C 16.208219 16.6875 16.411509 16.740483 16.625 16.8125 C 16.743295 18.193947 17.903924 19.3125 19.3125 19.3125 C 20.655178 19.3125 21.736504 18.29081 21.9375 17 L 22.5 17 A 0.50005 0.50005 0 0 0 22.9375 16.75 L 23 16.625 L 23 17.09375 C 23 18.754861 22.645074 19.992151 22.3125 20.8125 C 21.979926 21.632849 21.71875 21.96875 21.71875 21.96875 L 21.6875 22.03125 L 21.65625 22.0625 C 21.65625 22.0625 21.041331 23.019658 20.125 24.09375 L 19.5 22.1875 L 17.3125 21.5 C 17.3125 21.5 16.9 22.3125 16 22.3125 C 15.1 22.3125 14.6875 21.5 14.6875 21.5 L 12.5 22.1875 L 11.90625 24 C 10.986606 22.912283 10.34375 21.96875 10.34375 21.96875 C 10.34375 21.96875 9 19.760417 9 17.09375 L 9 16.625 z M 13.5 23.3125 L 16 23.6875 L 18.3125 23.3125 L 19.25 25.03125 C 18.760481 25.509349 18.228518 25.942737 17.71875 26.28125 C 17.397034 25.937182 18.164024 24.976524 18 24.8125 C 17.8 24.6125 16.5 25 16 25 C 15.5 25 14.2 24.6125 14 24.8125 C 13.835 24.9775 14.681688 25.942691 14.3125 26.28125 C 13.816268 25.938774 13.293699 25.479007 12.8125 25 L 13.5 23.3125 z"/>
</svg>
