<?xml version="1.0"?>
<svg xmlns="http://www.w3.org/2000/svg" viewBox="0 0 32 32" enable-background="new 0 0 32 32">
  <path style="text-indent:0;text-align:start;line-height:normal;text-transform:none;block-progression:tb;-inkscape-font-specification:Bitstream Vera Sans" d="M 21.03125 4 C 20.293727 4.0167231 19.51607 4.0858633 18.71875 4.21875 C 15.529469 4.7502968 11.96092 6.2796754 9.09375 9.09375 C 6.2775138 11.963123 4.7499821 15.549327 4.21875 18.75 C 3.6875179 21.950673 3.9979653 24.810465 5.59375 26.40625 C 7.1844107 27.996911 10.045949 28.330998 13.25 27.8125 C 16.454051 27.294002 20.036021 25.776479 22.90625 22.90625 C 25.727468 20.085032 27.249872 16.514055 27.78125 13.3125 C 28.312628 10.110945 28.006191 7.2306454 26.4375 5.59375 L 26.40625 5.59375 L 26.40625 5.5625 C 25.590307 4.7805545 24.44268 4.3370584 23.125 4.125 C 22.46616 4.0189708 21.768773 3.9832769 21.03125 4 z M 21.03125 6.03125 C 21.662478 6.0307856 22.25884 6.0685292 22.78125 6.15625 C 23.808312 6.3287098 24.577716 6.6396364 24.96875 7 C 24.97555 7.00623 24.99347 7.024995 25 7.03125 C 25.72236 7.8157061 26.277139 10.200548 25.8125 13 C 25.343878 15.823445 23.978782 19.021218 21.5 21.5 C 18.970229 24.029771 15.758449 25.387248 12.9375 25.84375 C 10.116551 26.300252 7.7093393 25.709339 7 25 C 6.2957847 24.295785 5.7187321 21.886827 6.1875 19.0625 C 6.6562679 16.238173 8.0162362 13.030627 10.5 10.5 C 13.03283 8.0140746 16.220531 6.6559532 19.03125 6.1875 C 19.73393 6.0703867 20.400022 6.0317144 21.03125 6.03125 z M 21.28125 9.28125 L 19 11.5625 L 17.21875 9.78125 L 15.78125 11.21875 L 17.5625 13 L 16 14.5625 L 14.21875 12.78125 L 12.78125 14.21875 L 14.5625 16 L 13 17.5625 L 11.21875 15.78125 L 9.78125 17.21875 L 11.5625 19 L 9.28125 21.28125 L 10.71875 22.71875 L 13 20.4375 L 14.78125 22.21875 L 16.21875 20.78125 L 14.4375 19 L 16 17.4375 L 17.78125 19.21875 L 19.21875 17.78125 L 17.4375 16 L 19 14.4375 L 20.78125 16.21875 L 22.21875 14.78125 L 20.4375 13 L 22.71875 10.71875 L 21.28125 9.28125 z" color="#000" overflow="visible" enable-background="accumulate" font-family="Bitstream Vera Sans"/>
</svg>
