<?xml version="1.0"?>
<svg xmlns="http://www.w3.org/2000/svg" viewBox="0 0 32 32" enable-background="new 0 0 32 32">
  <path style="text-indent:0;text-align:start;line-height:normal;text-transform:none;block-progression:tb;-inkscape-font-specification:Bitstream Vera Sans" d="M 20.40625 3.1875 L 15.03125 7.21875 L 11.65625 4.25 L 10.34375 5.75 L 12.90625 8 L 5 8 L 4 8 L 4 9 L 4 25 L 4 26 L 5 26 L 6 26 L 6 27 L 8 27 L 8 26 L 24 26 L 24 27 L 26 27 L 26 26 L 27 26 L 28 26 L 28 25 L 28 9 L 28 8 L 27 8 L 17.34375 8 L 21.59375 4.8125 L 20.40625 3.1875 z M 6 10 L 26 10 L 26 24 L 6 24 L 6 10 z M 7 11 L 7 12 L 7 22 L 7 23 L 8 23 L 21 23 L 22 23 L 22 22 L 22 12 L 22 11 L 21 11 L 8 11 L 7 11 z M 9 13 L 20 13 L 20 21 L 9 21 L 9 13 z M 24 13 C 23.447715 13 23 13.447715 23 14 C 23 14.552285 23.447715 15 24 15 C 24.552285 15 25 14.552285 25 14 C 25 13.447715 24.552285 13 24 13 z M 24 16 C 23.447715 16 23 16.447715 23 17 C 23 17.552285 23.447715 18 24 18 C 24.552285 18 25 17.552285 25 17 C 25 16.447715 24.552285 16 24 16 z M 24 19 C 23.447715 19 23 19.447715 23 20 C 23 20.552285 23.447715 21 24 21 C 24.552285 21 25 20.552285 25 20 C 25 19.447715 24.552285 19 24 19 z"/>
</svg>
