<?xml version="1.0"?>
<svg xmlns="http://www.w3.org/2000/svg" viewBox="0 0 32 32" enable-background="new 0 0 32 32">
  <path style="text-indent:0;text-align:start;line-height:normal;text-transform:none;block-progression:tb;-inkscape-font-specification:Bitstream Vera Sans" d="M 16.3125 2.21875 C 15.776496 2.2607416 15.236614 2.4228276 14.71875 2.71875 L 14.6875 2.75 L 14.65625 2.75 L 14.5625 2.71875 L 14.53125 2.6875 L 14.5 2.6875 C 11.697327 1.4863546 8.4297819 4.0463915 9.125 7.15625 L 9.125 7.25 L 9.09375 7.28125 L 9.0625 7.3125 L 9.0625 7.34375 C 8.7612819 7.6826204 8.5339758 8.0507938 8.375 8.4375 C 6.2447638 8.7632344 4.6096906 10.854764 5.125 13.15625 L 5.125 13.25 L 5.09375 13.28125 L 5.0625 13.3125 L 5.0625 13.34375 C 3.3539363 15.265884 4.0224965 18.194853 6.03125 19.375 C 6.1229591 21.097766 6.8065267 22.377036 7.78125 23.1875 C 8.827426 24.057376 10.06722 24.464099 11.1875 24.84375 C 12.30778 25.223401 13.293789 25.592407 13.9375 26.15625 C 14.420283 26.579132 14.789542 27.081196 14.9375 27.96875 C 14.986819 28.264601 15 28.609067 15 29 L 17 29 C 17 27.867398 17.454073 27.061092 18.28125 26.21875 C 19.108427 25.376408 20.323116 24.596003 21.59375 23.6875 C 22.864384 22.778997 24.205138 21.759442 25.25 20.375 C 26.264766 19.030435 26.960844 17.308408 27 15.1875 C 28.266728 13.671386 28.31744 11.226613 26.65625 9.75 L 26.625 9.71875 L 26.59375 9.6875 L 26.59375 9.65625 L 26.59375 9.625 C 26.890309 7.252532 24.98094 5.3501151 22.84375 5.21875 C 22.131353 5.174962 21.409236 5.3241868 20.71875 5.71875 L 20.6875 5.75 L 20.65625 5.75 L 20.59375 5.75 C 20.397737 3.7947013 18.713791 2.3336945 16.84375 2.21875 C 16.665651 2.207803 16.491168 2.2047528 16.3125 2.21875 z M 16.8125 4.21875 C 17.550764 4.2493897 18.191968 4.6903538 18.46875 5.375 C 17.215646 5.5237522 16.09235 6.2885102 15.46875 7.375 C 15.323524 7.328153 15.160812 7.3125 15 7.3125 C 14.171573 7.3125 13.5 7.9840729 13.5 8.8125 C 13.5 9.6409271 14.171573 10.3125 15 10.3125 C 15.020506 10.3125 15.042194 10.313315 15.0625 10.3125 L 14.9375 10.5 L 14.96875 10.53125 C 14.206525 11.493414 14.001602 12.668809 14.21875 13.75 C 13.927625 13.585586 13.671826 13.348131 13.46875 13 L 13.15625 12.5 L 12.90625 12.09375 L 12.46875 12 L 11.875 11.90625 L 11.8125 11.90625 L 11.78125 11.90625 C 10.153287 11.770586 9.4680274 9.8875316 10.5625 8.65625 L 10.90625 8.3125 L 11.28125 7.9375 L 11.1875 7.4375 L 11.09375 6.84375 L 11.09375 6.78125 L 11.0625 6.75 C 10.651139 5.1045553 12.351249 3.945178 13.71875 4.53125 L 14.25 4.78125 L 14.75 5.03125 L 15.21875 4.75 L 15.6875 4.46875 C 15.6971 4.46324 15.70909 4.47408 15.71875 4.46875 C 16.076631 4.2710448 16.45999 4.20412 16.8125 4.21875 z M 22.78125 7.1875 C 23.85031 7.224885 24.747191 8.147468 24.59375 9.375 L 24.625 9.375 L 24.5 9.9375 L 24.40625 10.5 L 24.875 10.875 L 25.34375 11.25 L 25.375 11.28125 C 26.556243 12.375982 26.057376 14.230021 24.4375 14.5 L 23.84375 14.625 L 23.25 14.71875 L 23.0625 15.28125 L 22.875 15.84375 L 22.84375 15.875 C 22.528303 16.63245 21.920123 16.967705 21.25 17 C 20.565843 17.03297 19.88132 16.721997 19.46875 16 L 19.15625 15.5 L 18.90625 15.09375 L 18.46875 15 L 17.875 14.90625 L 17.8125 14.90625 L 17.78125 14.90625 C 16.153287 14.770586 15.468027 12.887532 16.5625 11.65625 L 16.625 11.59375 L 16.65625 11.5 L 16.96875 11 L 17.15625 10.6875 L 17.09375 10.34375 L 17 9.75 L 16.96875 9.71875 L 16.96875 9.6875 C 16.622909 8.0274626 18.150086 6.8408208 19.65625 7.5 C 19.6665 7.50448 19.67726 7.49534 19.6875 7.5 L 20.25 7.78125 L 20.75 8.03125 L 21.21875 7.75 L 21.6875 7.46875 C 21.6971 7.46324 21.70909 7.47408 21.71875 7.46875 C 22.069389 7.2750454 22.434447 7.1753723 22.78125 7.1875 z M 21 10.3125 C 20.171573 10.3125 19.5 10.984073 19.5 11.8125 C 19.5 12.640927 20.171573 13.3125 21 13.3125 C 21.828427 13.3125 22.5 12.640927 22.5 11.8125 C 22.5 10.984073 21.828427 10.3125 21 10.3125 z M 8.15625 10.5625 C 8.3575207 11.79584 9.0976016 12.924999 10.25 13.5 C 9.7988215 13.758619 9.5 14.255173 9.5 14.8125 C 9.5 15.640927 10.171573 16.3125 11 16.3125 C 11.79433 16.3125 12.447829 15.687364 12.5 14.90625 C 13.319708 15.671688 14.390634 16.070782 15.46875 15.96875 C 15.595885 16.080519 15.732123 16.186869 15.875 16.28125 C 15.666579 16.885752 15.208835 17.330516 14.4375 17.5 L 13.84375 17.625 L 13.25 17.71875 L 13.0625 18.28125 L 12.875 18.84375 L 12.84375 18.875 C 12.528303 19.63245 11.920123 19.967705 11.25 20 C 10.565843 20.032971 9.8813197 19.721997 9.46875 19 L 9.15625 18.5 L 8.90625 18.09375 L 8.46875 18 L 7.875 17.90625 L 7.8125 17.90625 L 7.78125 17.90625 C 6.1532866 17.770586 5.4680274 15.887532 6.5625 14.65625 L 6.90625 14.3125 L 7.28125 13.9375 L 7.1875 13.4375 L 7.09375 12.84375 L 7.09375 12.78125 L 7.0625 12.75 C 6.8030611 11.712245 7.33316 10.887933 8.15625 10.5625 z M 24.875 16.4375 C 24.665689 17.511704 24.213421 18.376592 23.625 19.15625 C 22.794862 20.256183 21.635616 21.183503 20.40625 22.0625 C 19.459677 22.7393 18.472711 23.405557 17.59375 24.15625 C 17.869916 23.225404 18.213575 22.501013 18.5625 21.875 C 18.959216 21.163246 19.389802 20.549489 19.75 19.875 C 19.919718 19.557195 20.070523 19.21208 20.1875 18.84375 C 20.582401 18.951211 20.973662 19.019342 21.375 19 C 22.765843 18.93297 24.128566 18.070749 24.71875 16.5625 L 24.75 16.53125 L 24.75 16.5 L 24.78125 16.46875 C 24.814318 16.462849 24.842385 16.444177 24.875 16.4375 z M 17.71875 17 L 17.75 17 C 17.925613 17.303166 18.142078 17.57586 18.375 17.8125 C 18.331753 18.194423 18.219451 18.526568 18 18.9375 C 17.722698 19.456761 17.265784 20.061754 16.8125 20.875 C 16.577109 21.297319 16.344457 21.769276 16.125 22.3125 C 15.839469 21.07627 15.561395 20.004677 15.34375 19.3125 C 16.492172 18.903909 17.313337 18.018683 17.71875 17 z M 8.3125 20.71875 C 9.1330159 21.597125 10.266576 22.053418 11.375 22 C 12.222888 21.959137 13.060418 21.598116 13.71875 21 C 13.961917 21.869727 14.230593 22.848762 14.46875 24.09375 C 13.609875 23.557656 12.672046 23.22879 11.8125 22.9375 C 10.68278 22.554651 9.672574 22.189499 9.03125 21.65625 C 8.7217164 21.398879 8.4893328 21.109096 8.3125 20.71875 z" color="#000" overflow="visible" enable-background="accumulate" font-family="Bitstream Vera Sans"/>
</svg>
