<?xml version="1.0"?>
<svg xmlns="http://www.w3.org/2000/svg" viewBox="0 0 32 32" enable-background="new 0 0 32 32">
  <path style="text-indent:0;text-align:start;line-height:normal;text-transform:none;block-progression:tb;-inkscape-font-specification:Bitstream Vera Sans" d="M 12.5 5 L 12.1875 5.40625 L 11 7 L 6 7 L 5 7 L 5 8 L 5 12 C 2.7901961 12 1 13.790196 1 16 C 1 18.209804 2.7901961 20 5 20 L 5 24 L 5 25 L 6 25 L 13 25 C 13 27.209804 14.790196 29 17 29 C 19.209804 29 21 27.209804 21 25 L 28 25 L 29 25 L 29 24 L 29 8 L 29 7 L 28 7 L 23 7 L 21.8125 5.40625 L 21.5 5 L 21 5 L 13 5 L 12.5 5 z M 13.5 7 L 20.5 7 L 21.6875 8.59375 L 22 9 L 22.5 9 L 27 9 L 27 23 L 20 23 L 19 23 L 19 24 L 19 25 C 19 26.190196 18.190196 27 17 27 C 15.809804 27 15 26.190196 15 25 L 15 24 L 15 23 L 14 23 L 7 23 L 7 19 L 7 18 L 6 18 L 5 18 C 3.8098039 18 3 17.190196 3 16 C 3 14.809804 3.8098039 14 5 14 L 6 14 L 7 14 L 7 13 L 7 9 L 11.5 9 L 12 9 L 12.3125 8.59375 L 13.5 7 z M 9 10 C 8.4477153 10 8 10.447715 8 11 C 8 11.552285 8.4477153 12 9 12 C 9.5522847 12 10 11.552285 10 11 C 10 10.447715 9.5522847 10 9 10 z M 17 11 C 14.250421 11 12 13.250421 12 16 C 12 18.749579 14.250421 21 17 21 C 19.749579 21 22 18.749579 22 16 C 22 13.250421 19.749579 11 17 11 z M 17 13 C 18.668699 13 20 14.331301 20 16 C 20 17.668699 18.668699 19 17 19 C 15.331301 19 14 17.668699 14 16 C 14 14.331301 15.331301 13 17 13 z" color="#000" overflow="visible" enable-background="accumulate" font-family="Bitstream Vera Sans"/>
</svg>
