<?xml version="1.0"?>
<svg xmlns="http://www.w3.org/2000/svg" viewBox="0 0 32 32" enable-background="new 0 0 32 32">
  <path style="text-indent:0;text-align:start;line-height:normal;text-transform:none;block-progression:tb;-inkscape-font-specification:Bitstream Vera Sans" d="M 16 4 C 11.833333 4 5.84375 5 5.84375 5 L 5 5.15625 L 5 6 L 5 19 C 5 20.416667 5.8119691 21.624469 6.84375 22.65625 C 7.8755309 23.688031 9.207966 24.56853 10.5 25.34375 C 13.084068 26.894191 15.625 27.9375 15.625 27.9375 L 16 28.0625 L 16.375 27.9375 C 16.375 27.9375 18.915932 26.894191 21.5 25.34375 C 22.792034 24.56853 24.124469 23.688031 25.15625 22.65625 C 26.188031 21.624469 27 20.416667 27 19 L 27 6 L 27 5.15625 L 26.15625 5 C 26.15625 5 20.166667 4 16 4 z M 16 6 C 19.370938 6 23.831176 6.6909796 25 6.875 L 25 19 C 25 19.583333 24.561969 20.375531 23.71875 21.21875 C 22.875531 22.061969 21.707966 22.93147 20.5 23.65625 C 18.270382 24.994021 16.333919 25.738377 16 25.875 C 15.666081 25.738377 13.729618 24.994021 11.5 23.65625 C 10.292034 22.93147 9.1244691 22.061969 8.28125 21.21875 C 7.4380309 20.375531 7 19.583333 7 19 L 7 6.875 C 8.1688238 6.6909796 12.629062 6 16 6 z M 10 13 L 10 15 L 15 15 L 15 13 L 10 13 z M 17 13 L 17 15 L 22 15 L 22 13 L 17 13 z M 12.78125 17.375 L 11.21875 18.625 C 11.21875 18.625 13.044444 21 16 21 C 18.955556 21 20.78125 18.625 20.78125 18.625 L 19.21875 17.375 C 19.21875 17.375 17.844444 19 16 19 C 14.155556 19 12.78125 17.375 12.78125 17.375 z" color="#000" overflow="visible" enable-background="accumulate" font-family="Bitstream Vera Sans"/>
</svg>
