<?xml version="1.0"?>
<svg xmlns="http://www.w3.org/2000/svg" viewBox="0 0 32 32" enable-background="new 0 0 32 32">
  <path style="text-indent:0;text-align:start;line-height:normal;text-transform:none;block-progression:tb;-inkscape-font-specification:Bitstream Vera Sans" d="M 2 5 L 2 6 L 2 26 L 2 27 L 3 27 L 29 27 L 30 27 L 30 26 L 30 6 L 30 5 L 29 5 L 3 5 L 2 5 z M 4 7 L 28 7 L 28 25 L 4 25 L 4 7 z M 5 8 L 5 10 L 7 10 L 7 8 L 5 8 z M 9 8 L 9 10 L 11 10 L 11 8 L 9 8 z M 13 8 L 13 10 L 15 10 L 15 8 L 13 8 z M 17 8 L 17 10 L 19 10 L 19 8 L 17 8 z M 21 8 L 21 10 L 23 10 L 23 8 L 21 8 z M 25 8 L 25 10 L 27 10 L 27 8 L 25 8 z M 9.84375 12 L 9.71875 12.84375 L 9.21875 15.84375 L 9.03125 17 L 10.1875 17 L 11.5 17 C 11.716667 17 12 17.283333 12 17.5 C 12 17.716667 11.716667 18 11.5 18 L 9 18 L 9 20 L 11.5 20 C 12.883333 20 14 18.883333 14 17.5 C 14 16.116667 12.883333 15 11.5 15 L 11.375 15 L 11.5625 14 L 14 14 L 14 12 L 10.6875 12 L 9.84375 12 z M 16 14 L 16 15 L 16 20 L 18 20 L 18 16 L 19 16 L 19 20 L 21 20 L 21 16 L 22 16 L 22 20 L 24 20 L 24 16 C 24 15.477778 23.814531 14.939531 23.4375 14.5625 C 23.060469 14.185469 22.522222 14 22 14 L 21 14 C 20.654901 14 20.307947 14.086255 20 14.25 C 19.692053 14.086255 19.345099 14 19 14 L 17 14 L 16 14 z M 5 22 L 5 24 L 7 24 L 7 22 L 5 22 z M 9 22 L 9 24 L 11 24 L 11 22 L 9 22 z M 13 22 L 13 24 L 15 24 L 15 22 L 13 22 z M 17 22 L 17 24 L 19 24 L 19 22 L 17 22 z M 21 22 L 21 24 L 23 24 L 23 22 L 21 22 z M 25 22 L 25 24 L 27 24 L 27 22 L 25 22 z"/>
</svg>
