<?xml version="1.0"?>
<svg xmlns="http://www.w3.org/2000/svg" viewBox="0 0 32 32" enable-background="new 0 0 32 32">
  <path style="text-indent:0;text-align:start;line-height:normal;text-transform:none;block-progression:tb;-inkscape-font-specification:Bitstream Vera Sans" d="M 6 4 L 6 6 L 9 6 L 9 10 C 9 12.531059 10.375512 14.770064 12.40625 16 C 10.375512 17.229936 9 19.468941 9 22 L 9 26 L 6 26 L 6 28 L 26 28 L 26 26 L 23 26 L 23 22 C 23 19.468941 21.624488 17.229936 19.59375 16 C 21.624488 14.770064 23 12.531059 23 10 L 23 6 L 26 6 L 26 4 L 6 4 z M 11 6 L 21 6 L 21 9 L 11 9 L 11 6 z M 11.09375 11 L 20.90625 11 C 20.438796 13.275124 18.410227 15 16 15 C 13.589773 15 11.561204 13.275124 11.09375 11 z M 16 17 C 18.754545 17 21 19.245455 21 22 L 21 23.5 C 20.510902 22.910911 19.970475 22.359523 19.4375 21.875 C 17.988841 20.558037 16.53125 19.65625 16.53125 19.65625 L 16 19.3125 L 15.46875 19.65625 C 15.46875 19.65625 14.011159 20.558037 12.5625 21.875 C 12.029525 22.359523 11.489098 22.910911 11 23.5 L 11 22 C 11 19.245455 13.245455 17 16 17 z M 16 21.75 C 16.381306 22.005022 17.025315 22.432104 18.0625 23.375 C 18.957172 24.188338 19.764497 25.172933 20.1875 26 L 11.8125 26 C 12.235503 25.172933 13.042828 24.188338 13.9375 23.375 C 14.974685 22.432104 15.618694 22.005022 16 21.75 z" color="#000" overflow="visible" enable-background="accumulate" font-family="Bitstream Vera Sans"/>
</svg>
