<?xml version="1.0"?>
<svg xmlns="http://www.w3.org/2000/svg" viewBox="0 0 32 32" enable-background="new 0 0 32 32">
  <path style="text-indent:0;text-align:start;line-height:normal;text-transform:none;block-progression:tb;-inkscape-font-specification:Bitstream Vera Sans" d="M 9.25 4.03125 C 8.9264219 4.0545654 8.6085359 4.1064005 8.3125 4.15625 C 7.2270349 4.3390314 6.3503855 4.6742955 5.6875 5.25 C 5.434484 5.3883103 5.1783042 5.5716958 4.96875 5.78125 C 4.1990589 6.5509411 3.9374204 7.6513507 4 8.78125 C 4.06258 9.9111493 4.4401016 11.126101 5.03125 12.4375 C 6.2135476 15.060298 8.350668 18.006918 11.15625 20.8125 C 13.961831 23.618081 16.908453 25.755203 19.53125 26.9375 C 20.842649 27.528649 22.0576 27.906171 23.1875 27.96875 C 24.317399 28.03133 25.417809 27.769691 26.1875 27 C 26.343136 26.844364 26.47792 26.64925 26.59375 26.46875 L 26.71875 26.59375 C 27.396783 25.915717 27.71526 24.958727 27.90625 23.78125 C 28.09724 22.603773 28.104008 21.204454 27.84375 19.65625 C 27.690066 18.74203 27.447358 17.770802 27.09375 16.78125 C 27.581838 15.314731 28.64825 10.838232 24.90625 7.1875 C 22.648126 4.9844519 20.118697 4.4796099 18.15625 4.53125 C 16.926499 4.5636098 15.960612 4.8182051 15.375 5 C 14.37734 4.6446374 13.393935 4.3696385 12.46875 4.21875 C 11.30161 4.0284011 10.220734 3.9613037 9.25 4.03125 z M 12.65625 6.3125 C 15.264856 6.837262 18.326345 8.1879597 21.09375 11 C 23.890399 13.841757 25.256783 16.945237 25.78125 19.5625 C 24.554006 17.131091 22.605059 14.480059 20.0625 11.9375 C 17.607616 9.4826165 15.019627 7.5467706 12.65625 6.3125 z M 18.5625 6.46875 C 20.0153 6.4998928 21.803536 6.9699128 23.5 8.625 C 25.295931 10.377127 25.727258 12.281138 25.6875 13.78125 C 24.873962 12.362979 23.837413 10.952734 22.5 9.59375 C 21.229871 8.3031346 19.901179 7.2688464 18.5625 6.46875 z M 7.34375 6.8125 C 7.4978399 6.7999895 7.6828934 6.8018602 7.875 6.8125 C 8.6434261 6.8550592 9.6858715 7.134305 10.84375 7.65625 C 13.159507 8.7001408 15.964068 10.682817 18.625 13.34375 C 21.285933 16.004683 23.299859 18.840493 24.34375 21.15625 C 24.865694 22.314129 25.144941 23.356574 25.1875 24.125 C 25.23006 24.893427 25.046292 25.297458 24.78125 25.5625 C 24.516207 25.827542 24.080926 26.01131 23.3125 25.96875 C 22.544074 25.92619 21.501628 25.646945 20.34375 25.125 C 18.027993 24.08111 15.223433 22.067183 12.5625 19.40625 C 9.9015674 16.745317 7.9188908 13.940757 6.875 11.625 C 6.3530549 10.467121 6.0738091 9.4559261 6.03125 8.6875 C 5.9886908 7.9190738 6.1412077 7.4525423 6.40625 7.1875 C 6.6050317 6.9887183 6.8814802 6.8500316 7.34375 6.8125 z M 12.5 10.6875 C 12.061976 10.743261 11.627935 10.934566 11.28125 11.28125 C 10.819003 11.743497 10.661375 12.366313 10.6875 12.9375 C 10.71363 13.508687 10.897751 14.104031 11.15625 14.6875 C 11.673248 15.854439 12.563436 17.063437 13.75 18.25 C 14.936563 19.436564 16.176811 20.358002 17.34375 20.875 C 17.927219 21.133499 18.491313 21.317624 19.0625 21.34375 C 19.633688 21.36988 20.256504 21.180997 20.71875 20.71875 C 21.180997 20.256504 21.338626 19.633688 21.3125 19.0625 C 21.28637 18.491313 21.133499 17.927219 20.875 17.34375 C 20.358002 16.176811 19.436564 14.936563 18.25 13.75 C 17.063437 12.563436 15.854439 11.673248 14.6875 11.15625 C 14.104031 10.897751 13.508687 10.713626 12.9375 10.6875 C 12.794703 10.680967 12.646008 10.668913 12.5 10.6875 z M 12.6875 12.6875 C 12.65476 12.72023 12.66617 12.6779 12.875 12.6875 C 13.083832 12.6971 13.447729 12.779451 13.875 12.96875 C 14.729543 13.347345 15.804661 14.117161 16.84375 15.15625 C 17.88284 16.19534 18.652655 17.301707 19.03125 18.15625 C 19.220548 18.583521 19.302949 18.947418 19.3125 19.15625 C 19.3221 19.365083 19.27977 19.345235 19.3125 19.3125 C 19.34523 19.27977 19.33383 19.3221 19.125 19.3125 C 18.916168 19.3029 18.583521 19.220548 18.15625 19.03125 C 17.301707 18.652655 16.195339 17.88284 15.15625 16.84375 C 14.11716 15.804661 13.347345 14.729543 12.96875 13.875 C 12.779452 13.447729 12.697051 13.083833 12.6875 12.875 C 12.6779 12.666168 12.72023 12.654766 12.6875 12.6875 z" color="#000" overflow="visible" enable-background="accumulate" font-family="Bitstream Vera Sans"/>
</svg>
