<?xml version="1.0"?>
<svg xmlns="http://www.w3.org/2000/svg" viewBox="0 0 32 32" enable-background="new 0 0 32 32">
  <path style="text-indent:0;text-align:start;line-height:normal;text-transform:none;block-progression:tb;-inkscape-font-specification:Bitstream Vera Sans" d="M 2 5.53125 L 2 7 L 2 25 L 2 26.5 L 3.375 25.9375 C 3.375 25.9375 8.0646091 24 16 24 C 23.935391 24 28.625 25.9375 28.625 25.9375 L 30 26.5 L 30 25 L 30 7 L 30 5.53125 L 28.625 6.0625 C 28.625 6.0625 23.833333 8 16 8 C 8.1666667 8 3.375 6.0625 3.375 6.0625 L 2 5.53125 z M 4 8.34375 C 4.9930448 8.6774912 6.9567679 9.2777295 10 9.65625 L 10 22.34375 C 6.9392788 22.721483 4.9890423 23.319595 4 23.65625 L 4 8.34375 z M 28 8.34375 L 28 23.65625 C 27.010958 23.319595 25.060721 22.721483 22 22.34375 L 22 9.65625 C 25.043232 9.2777295 27.006955 8.6774912 28 8.34375 z M 12 9.84375 C 13.208497 9.9381897 14.519521 10 16 10 C 17.480479 10 18.791503 9.9381897 20 9.84375 L 20 22.15625 C 18.794768 22.063398 17.48298 22 16 22 C 14.51702 22 13.205232 22.063398 12 22.15625 L 12 9.84375 z" color="#000" overflow="visible" enable-background="accumulate" font-family="Bitstream Vera Sans"/>
</svg>
