<?xml version="1.0"?>
<svg xmlns="http://www.w3.org/2000/svg" viewBox="0 0 32 32" enable-background="new 0 0 32 32">
  <path style="text-indent:0;text-align:start;line-height:normal;text-transform:none;block-progression:tb;-inkscape-font-specification:Bitstream Vera Sans" d="M 16 5 C 10.101613 5 5.2642126 9.7181294 5.03125 15.5625 C 3.6459247 16.715412 2.5504198 17.832536 1.84375 18.96875 C 1.1195209 20.133197 0.75616995 21.433533 1.28125 22.59375 C 1.28729 22.60802 1.306247 22.61089 1.3125 22.625 C 1.7545059 23.622509 2.7072424 24.23263 3.8125 24.53125 C 4.9333928 24.834094 6.2911647 24.881717 7.8125 24.75 C 8.2323208 24.713652 8.6795016 24.659092 9.125 24.59375 C 10.985663 26.068639 13.422619 27 16 27 C 21.835608 27 26.641223 22.383009 26.96875 16.625 C 27.307929 16.344291 27.63621 16.061273 27.9375 15.78125 C 29.056861 14.740903 29.909208 13.725612 30.4375 12.6875 C 30.965792 11.649388 31.186203 10.481565 30.71875 9.46875 C 30.186117 8.3273935 28.989825 7.710465 27.625 7.4375 C 26.306892 7.1738784 24.739075 7.184989 22.9375 7.46875 C 21.027228 5.9287575 18.611398 5 16 5 z M 16 7 C 19.057401 7 21.773737 8.5174673 23.4375 10.875 C 23.418869 10.912136 23.43057 10.926162 23.40625 10.96875 C 23.171163 11.380438 22.677109 11.935163 22 12.53125 C 20.645783 13.723424 18.521172 15.072366 16 16.1875 C 13.474679 17.304469 11.040909 18.010773 9.25 18.21875 C 8.4177806 18.315395 7.7399881 18.275452 7.28125 18.1875 C 7.1095712 17.484637 7 16.803236 7 16 C 7 11.045455 11.045455 7 16 7 z M 25.21875 9.28125 C 26.001267 9.2558375 26.701741 9.2965981 27.25 9.40625 C 28.260175 9.608285 28.738883 9.9538565 28.90625 10.3125 C 29.038797 10.599685 29.021708 11.063112 28.65625 11.78125 C 28.290792 12.499388 27.568139 13.377847 26.5625 14.3125 C 24.551222 16.181805 21.403136 18.212742 17.6875 19.875 C 13.974937 21.535884 10.357329 22.513435 7.625 22.75 C 6.2588353 22.868283 5.1197322 22.803406 4.34375 22.59375 C 3.5677678 22.384094 3.2420907 22.08926 3.125 21.8125 L 3.125 21.78125 L 3.09375 21.78125 C 2.93873 21.449064 2.9867095 20.906786 3.53125 20.03125 C 3.8139922 19.576645 4.2330236 19.071331 4.75 18.53125 C 4.7697089 18.585442 4.7877278 18.633647 4.8125 18.6875 C 4.8187608 18.691662 4.809323 18.71151 4.8125 18.71875 C 4.81597 18.72665 4.80895 18.74218 4.8125 18.75 C 5.163539 19.523275 5.9348755 19.942161 6.71875 20.125 C 7.5250964 20.313081 8.4267045 20.308512 9.46875 20.1875 C 11.552841 19.945477 14.137821 19.183031 16.8125 18 C 19.491328 16.815134 21.741717 15.414076 23.3125 14.03125 C 24.097891 13.339837 24.719462 12.678937 25.125 11.96875 C 25.504307 11.3045 25.696275 10.503629 25.4375 9.75 C 25.421103 9.7352205 25.413765 9.7114018 25.40625 9.6875 C 25.39464 9.657086 25.4195 9.624041 25.40625 9.59375 L 25.375 9.625 C 25.330014 9.5021895 25.281064 9.3874396 25.21875 9.28125 z M 24.6875 18.34375 C 23.648153 22.165095 20.141391 25 16 25 C 14.564913 25 13.164494 24.612473 11.9375 24 C 14.002634 23.479864 16.229697 22.734411 18.5 21.71875 L 18.65625 21.65625 C 20.890634 20.646527 22.934033 19.526104 24.6875 18.34375 z" color="#000" overflow="visible" enable-background="accumulate" font-family="Bitstream Vera Sans"/>
</svg>
