<?xml version="1.0"?>
<svg xmlns="http://www.w3.org/2000/svg" viewBox="0 0 32 32" enable-background="new 0 0 32 32">
  <path style="text-indent:0;text-align:start;line-height:normal;text-transform:none;block-progression:tb;-inkscape-font-specification:Bitstream Vera Sans" d="M 0 8 L 0 9 L 0 23 L 0 24 L 1 24 L 2 24 L 2 25 L 6 25 L 6 24 L 26 24 L 26 25 L 30 25 L 30 24 L 31 24 L 32 24 L 32 23 L 32 9 L 32 8 L 31 8 L 1 8 L 0 8 z M 2 10 L 30 10 L 30 22 L 2 22 L 2 10 z M 23 11 C 20.250421 11 18 13.250421 18 16 C 18 18.749579 20.250421 21 23 21 C 25.749579 21 28 18.749579 28 16 C 28 13.250421 25.749579 11 23 11 z M 4 13 L 4 15 L 6 15 L 6 13 L 4 13 z M 8 13 L 8 15 L 10 15 L 10 13 L 8 13 z M 12 13 L 12 15 L 14 15 L 14 13 L 12 13 z M 23 13 C 24.668699 13 26 14.331301 26 16 C 26 17.668699 24.668699 19 23 19 C 21.331301 19 20 17.668699 20 16 C 20 14.331301 21.331301 13 23 13 z M 4 17 L 4 19 L 6 19 L 6 17 L 4 17 z M 8 17 L 8 19 L 10 19 L 10 17 L 8 17 z M 12 17 L 12 19 L 14 19 L 14 17 L 12 17 z"/>
</svg>
