<?xml version="1.0"?>
<svg xmlns="http://www.w3.org/2000/svg" viewBox="0 0 32 32" enable-background="new 0 0 32 32">
  <path style="text-indent:0;text-align:start;line-height:normal;text-transform:none;block-progression:tb;-inkscape-font-specification:Bitstream Vera Sans" d="M 11.1875 5 L 10.96875 5.65625 L 8.0625 13.65625 L 8 13.8125 L 8 14 L 8 15 L 10 15 L 10 14.15625 L 10.40625 13 L 13.59375 13 L 14 14.15625 L 14 15 L 16 15 L 16 14 L 16 13.8125 L 15.9375 13.65625 L 13.03125 5.65625 L 12.8125 5 L 12.09375 5 L 11.90625 5 L 11.1875 5 z M 16 5 L 16 6 L 16 6.1875 L 16.0625 6.34375 L 18.96875 14.34375 L 19.1875 15 L 19.90625 15 L 20.09375 15 L 20.8125 15 L 21.03125 14.34375 L 23.9375 6.34375 L 24 6.1875 L 24 6 L 24 5 L 22 5 L 22 5.84375 L 20 11.34375 L 18 5.84375 L 18 5 L 16 5 z M 12 8.65625 L 12.84375 11 L 11.15625 11 L 12 8.65625 z M 4 17 L 4 18 L 4 26 L 4 27 L 5 27 L 27 27 L 28 27 L 28 26 L 28 18 L 28 17 L 27 17 L 5 17 L 4 17 z M 6 19 L 26 19 L 26 25 L 6 25 L 6 19 z M 9 21 C 8.4477153 21 8 21.447715 8 22 C 8 22.552285 8.4477153 23 9 23 C 9.5522847 23 10 22.552285 10 22 C 10 21.447715 9.5522847 21 9 21 z M 12 21 L 12 23 L 20 23 L 20 21 L 12 21 z M 23 21 C 22.447715 21 22 21.447715 22 22 C 22 22.552285 22.447715 23 23 23 C 23.552285 23 24 22.552285 24 22 C 24 21.447715 23.552285 21 23 21 z"/>
</svg>
