<?xml version="1.0"?>
<svg xmlns="http://www.w3.org/2000/svg" viewBox="0 0 32 32" enable-background="new 0 0 32 32">
  <path style="text-indent:0;text-align:start;line-height:normal;text-transform:none;block-progression:tb;-inkscape-font-specification:Bitstream Vera Sans" d="M 3 5 L 3 6 L 3 20 L 3 21 L 4 21 L 6.59375 21 L 6.5 22 L 7.5 22.09375 L 9.78125 22.34375 L 9.625 23.21875 L 9.4375 24.1875 L 10.40625 24.375 L 26.125 27.375 L 27.09375 27.5625 L 27.28125 26.59375 L 29.96875 12.78125 L 30.1875 11.8125 L 29.1875 11.625 L 25.8125 10.96875 L 26 9 L 26.09375 8.03125 L 25.125 7.90625 L 21 7.40625 L 21 6 L 21 5 L 20 5 L 4 5 L 3 5 z M 5 7 L 19 7 L 19 19 L 5 19 L 5 7 z M 12 9 C 10.35499 9 9 10.35499 9 12 C 9 12.672519 9.2135817 13.309696 9.59375 13.8125 C 8.6234905 14.542241 8 15.691936 8 17 L 10 17 C 10 15.809804 10.809804 15 12 15 C 13.190196 15 14 15.809804 14 17 L 16 17 C 16 15.691936 15.37651 14.542241 14.40625 13.8125 C 14.786418 13.309696 15 12.672519 15 12 C 15 10.35499 13.64501 9 12 9 z M 21 9.40625 L 23.90625 9.78125 L 22.6875 21.6875 L 16.28125 21 L 20 21 L 21 21 L 21 20 L 21 9.40625 z M 12 11 C 12.564128 11 13 11.435872 13 12 C 13 12.564128 12.564128 13 12 13 C 11.435872 13 11 12.564128 11 12 C 11 11.435872 11.435872 11 12 11 z M 25.59375 12.96875 L 27.84375 13.40625 L 25.5 25.21875 L 11.78125 22.59375 L 11.78125 22.53125 L 23.5 23.78125 L 24.5 23.90625 L 24.59375 22.90625 L 25.59375 12.96875 z" color="#000" overflow="visible" enable-background="accumulate" font-family="Bitstream Vera Sans"/>
</svg>
