<?xml version="1.0"?>
<svg xmlns="http://www.w3.org/2000/svg" viewBox="0 0 32 32" enable-background="new 0 0 32 32">
  <path style="text-indent:0;text-align:start;line-height:normal;text-transform:none;block-progression:tb;-inkscape-font-specification:Bitstream Vera Sans" d="M 19.5 3 C 14.26514 3 10 7.2651394 10 12.5 C 10 14.749977 10.810825 16.807458 12.125 18.4375 L 3.28125 27.28125 L 4.71875 28.71875 L 13.5625 19.875 C 15.192542 21.189175 17.250023 22 19.5 22 C 24.73486 22 29 17.73486 29 12.5 C 29 7.2651394 24.73486 3 19.5 3 z M 19.5 5 C 23.550296 5 26.838677 8.1780719 27 12.1875 L 26.8125 11.9375 C 26.8125 11.9375 24.169106 8 19.5 8 C 14.830894 8 12.1875 11.9375 12.1875 11.9375 L 12 12.1875 C 12.161323 8.1780719 15.449704 5 19.5 5 z M 19.5 10 C 22.382363 10 24.002826 11.749571 24.625 12.5 C 24.002826 13.250429 22.382363 15 19.5 15 C 16.617637 15 14.997174 13.250429 14.375 12.5 C 14.997174 11.749571 16.617637 10 19.5 10 z M 19.5 10.5 C 18.4 10.5 17.5 11.4 17.5 12.5 C 17.5 13.6 18.4 14.5 19.5 14.5 C 20.6 14.5 21.5 13.6 21.5 12.5 C 21.5 12.3 21.50625 12.10625 21.40625 11.90625 C 21.20625 12.30625 20.9 12.5 20.5 12.5 C 19.9 12.5 19.5 12.1 19.5 11.5 C 19.5 11.1 19.69375 10.79375 20.09375 10.59375 C 19.89375 10.49375 19.7 10.5 19.5 10.5 z M 12 12.8125 L 12.1875 13.0625 C 12.1875 13.0625 14.830894 17 19.5 17 C 24.169106 17 26.8125 13.0625 26.8125 13.0625 L 27 12.8125 C 26.838677 16.821928 23.550296 20 19.5 20 C 15.449704 20 12.161323 16.821928 12 12.8125 z" color="#000" overflow="visible" enable-background="accumulate" font-family="Bitstream Vera Sans"/>
</svg>
