<?xml version="1.0"?>
<svg xmlns="http://www.w3.org/2000/svg" viewBox="0 0 32 32" enable-background="new 0 0 32 32">
  <path style="text-indent:0;text-align:start;line-height:normal;text-transform:none;block-progression:tb;-inkscape-font-specification:Bitstream Vera Sans" d="M 16 3 C 8.8545455 3 3 8.8545455 3 16 C 3 23.145455 8.8545455 29 16 29 C 23.145455 29 29 23.145455 29 16 C 29 8.8545455 23.145455 3 16 3 z M 16 5 C 22.054545 5 27 9.9454545 27 16 C 27 22.054545 22.054545 27 16 27 C 9.9454545 27 5 22.054545 5 16 C 5 9.9454545 9.9454545 5 16 5 z M 16 7 C 11.054545 7 7 11.054545 7 16 C 7 20.945455 11.054545 25 16 25 C 20.945455 25 25 20.945455 25 16 C 25 11.054545 20.945455 7 16 7 z M 16 9 C 19.854545 9 23 12.145455 23 16 C 23 19.854545 19.854545 23 16 23 C 12.145455 23 9 19.854545 9 16 C 9 12.145455 12.145455 9 16 9 z M 16 11 C 13.2 11 11 13.2 11 16 C 11 18.8 13.2 21 16 21 C 18.8 21 21 18.8 21 16 C 21 13.2 18.8 11 16 11 z M 16.09375 11.6875 L 17.09375 14.40625 L 20 14.40625 L 17.59375 16.3125 L 18.5 19.3125 L 16 17.5 L 13.59375 19.3125 L 14.59375 16.3125 L 12.1875 14.40625 L 15.1875 14.40625 L 16.09375 11.6875 z" color="#000" overflow="visible" enable-background="accumulate" font-family="Bitstream Vera Sans"/>
</svg>
