<?xml version="1.0"?>
<svg xmlns="http://www.w3.org/2000/svg" viewBox="0 0 32 32" enable-background="new 0 0 32 32">
  <path style="text-indent:0;text-align:start;line-height:normal;text-transform:none;block-progression:tb;-inkscape-font-specification:Bitstream Vera Sans" d="M 23 4 L 23 5.59375 L 21.90625 4.5 L 20.5 5.90625 L 21.59375 7 L 20 7 L 20 9 L 21.59375 9 L 20.5 10.09375 L 21.90625 11.5 L 23 10.40625 L 23 12 L 25 12 L 25 10.40625 L 26.09375 11.5 L 27.5 10.09375 L 26.40625 9 L 28 9 L 28 7 L 26.40625 7 L 27.5 5.90625 L 26.09375 4.5 L 25 5.59375 L 25 4 L 23 4 z M 24 6 C 25.1 6 26 6.9 26 8 C 26 9.1 25.1 10 24 10 C 22.9 10 22 9.1 22 8 C 22 6.9 22.9 6 24 6 z M 13 10 C 9.698136 10 7 12.698136 7 16 C 7 17.983743 7.9751342 19.750036 9.46875 20.84375 C 6.8243111 22.146755 5 24.843686 5 28 L 7 28 C 7 24.629915 9.6299145 22 13 22 C 16.370085 22 19 24.629915 19 28 L 21 28 C 21 24.843686 19.175689 22.146755 16.53125 20.84375 C 18.024866 19.750036 19 17.983743 19 16 C 19 12.698136 16.301864 10 13 10 z M 13 12 C 15.220984 12 17 13.779016 17 16 C 17 18.220984 15.220984 20 13 20 C 10.779016 20 9 18.220984 9 16 C 9 13.779016 10.779016 12 13 12 z" color="#000" overflow="visible" enable-background="accumulate" font-family="Bitstream Vera Sans"/>
</svg>
