<?xml version="1.0"?>
<svg xmlns="http://www.w3.org/2000/svg" viewBox="0 0 32 32" enable-background="new 0 0 32 32">
  <path d="M 16 4 C 13.595455 4 11.394207 4.7355948 9.75 5.96875 C 9.6853776 6.0172168 9.6254245 6.0748495 9.5625 6.125 C 8.9866178 6.3323818 6.9334563 7.1653842 4.84375 9.3125 C 2.4034589 11.819832 0 16.12193 0 23 L 2 23 C 2 16.57807 4.1715411 12.886418 6.28125 10.71875 C 6.5638204 10.428417 6.8514037 10.173363 7.125 9.9375 C 7.0569592 10.282475 7 10.638377 7 11 C 7 11.073775 7.0283092 11.145606 7.03125 11.21875 C 6.5825189 11.770004 5.8881077 12.742469 5.1875 14.21875 C 4.0780778 16.556461 3 20.102632 3 25 L 5 25 C 5 20.397368 6.0094222 17.149789 7 15.0625 C 7.2476445 14.540678 7.4936057 14.091982 7.71875 13.71875 C 7.9154832 14.079617 8.1413098 14.42612 8.40625 14.75 L 7.125 20.6875 L 7.125 20.71875 L 7.125 20.75 C 6.8553896 22.367662 7.7480925 24.020198 9.375 24.5625 L 13 25.71875 L 13 27 L 13 28 L 14 28 L 18 28 L 19 28 L 19 27 L 19 25.71875 L 22.625 24.5625 C 24.251907 24.020198 25.14461 22.367662 24.875 20.75 L 24.875 20.71875 L 24.875 20.6875 L 23.5625 14.6875 C 23.823048 14.356775 24.020087 13.998263 24.21875 13.625 C 24.46306 14.020753 24.726602 14.486412 25 15.0625 C 25.990578 17.149789 27 20.397368 27 25 L 29 25 C 29 20.102632 27.921922 16.556461 26.8125 14.21875 C 26.111892 12.742469 25.417481 11.770004 24.96875 11.21875 C 24.973133 11.175408 24.996458 11.137433 25 11.09375 C 25.034153 10.71807 25.018848 10.357934 24.96875 10 C 25.216481 10.218202 25.461864 10.454807 25.71875 10.71875 C 27.828459 12.886418 30 16.57807 30 23 L 32 23 C 32 16.12193 29.596541 11.819832 27.15625 9.3125 C 25.287385 7.392292 23.390731 6.5053661 22.59375 6.1875 C 22.50672 6.1182173 22.433927 6.0346774 22.34375 5.96875 C 20.657721 4.736107 18.404545 4 16 4 z M 16 6 C 18.329072 6 20 7.4664111 20 9 C 20 10.533589 18.329072 12 16 12 C 13.670928 12 12 10.533589 12 9 C 12 7.4664111 13.670928 6 16 6 z M 21.9375 8.21875 C 22.715078 9.0244514 23.087667 9.9419134 23 10.90625 C 22.87469 12.451734 22.095322 13.666979 20.84375 14.5625 C 19.592178 15.458021 17.863008 16 16 16 C 14.004545 16 12.193293 15.379345 10.9375 14.4375 C 9.6817069 13.495655 9 12.286364 9 11 C 9 10.056746 9.3718419 9.1603132 10.0625 8.375 C 10.032327 8.5808868 10 8.785009 10 9 C 10 11.884689 12.806224 14 16 14 C 19.193776 14 22 11.884689 22 9 C 22 8.7289009 21.982686 8.4731019 21.9375 8.21875 z M 21.875 16.25 L 22.90625 21.0625 C 23.035005 21.83503 22.75138 22.394632 22 22.65625 C 21.9905 22.65955 21.97844 22.65305 21.96875 22.65625 L 19 23.625 L 19 23 L 19 22.65625 L 18.8125 22.40625 L 17.3125 20.40625 L 17 20 L 16.5 20 L 15.5 20 L 15 20 L 14.6875 20.40625 L 13.1875 22.40625 L 13 22.65625 L 13 23 L 13 23.625 L 10.03125 22.65625 C 10.02155 22.65305 10.00954 22.65955 10 22.65625 C 9.2486199 22.394632 8.964995 21.83503 9.09375 21.0625 L 10.125 16.28125 C 10.236443 16.356378 10.352948 16.429246 10.46875 16.5 C 10.918122 17.634976 11.715311 19 13 19 C 14.032806 19 14.669365 18.432296 15.03125 17.96875 C 15.34564 17.99465 15.677439 18 16 18 C 16.32614 18 16.649224 17.964863 16.96875 17.9375 C 17.326817 18.404017 17.951419 19 19 19 C 20.294453 19 21.083937 17.608752 21.53125 16.46875 C 21.646586 16.396489 21.763563 16.327006 21.875 16.25 z M 16 22 L 17 23.34375 L 17 26 L 15 26 L 15 23.34375 L 16 22 z"/>
</svg>
