<?xml version="1.0"?>
<svg xmlns="http://www.w3.org/2000/svg" viewBox="0 0 32 32" enable-background="new 0 0 32 32">
  <path d="M 9 4 C 6.2545455 4 4 6.2545455 4 9 L 4 23 C 4 25.745455 6.2545455 28 9 28 L 23 28 C 25.745455 28 28 25.745455 28 23 L 28 9 C 28 6.2545455 25.745455 4 23 4 L 9 4 z M 9 6 L 23 6 C 24.654545 6 26 7.3454545 26 9 L 26 23 C 26 24.654545 24.654545 26 23 26 L 9 26 C 7.3454545 26 6 24.654545 6 23 L 6 9 C 6 7.3454545 7.3454545 6 9 6 z M 17.6875 11.3125 C 17.1875 11.4125 16.7125 11.69375 16.3125 12.09375 C 15.9125 12.49375 15.70625 13 15.90625 13.5 C 16.40625 13.5 16.9125 13.2125 17.3125 12.8125 C 17.6125 12.4125 17.7875 11.9125 17.6875 11.3125 z M 14.40625 13.59375 C 13.70625 13.59375 13 13.9875 12.5 14.6875 C 11.8 15.7875 11.9 17.80625 13 19.40625 C 13.4 20.10625 13.89375 20.6875 14.59375 20.6875 C 15.19375 20.6875 15.2875 20.3125 16.1875 20.3125 C 16.9875 20.3125 17.2125 20.6875 17.8125 20.6875 C 18.4125 20.6875 19.00625 19.9125 19.40625 19.3125 C 19.60625 18.9125 19.69375 18.6875 20.09375 18.1875 C 18.49375 17.5875 18.2125 15.4 19.8125 14.5 C 19.3125 14 18.6 13.59375 18 13.59375 C 17.1 13.59375 16.7875 14 16.1875 14 C 15.5875 14 15.10625 13.59375 14.40625 13.59375 z"/>
</svg>
