<?xml version="1.0"?>
<svg xmlns="http://www.w3.org/2000/svg" viewBox="0 0 32 32" enable-background="new 0 0 32 32">
  <path style="text-indent:0;text-align:start;line-height:normal;text-transform:none;block-progression:tb;-inkscape-font-specification:Bitstream Vera Sans" d="M 16 4 C 15.204762 4 14.429255 4.10429 13.75 4.53125 C 13.070745 4.95821 12.62634 5.7124988 12.4375 6.59375 A 1.0001 1.0001 0 0 0 12.40625 6.6875 C 12.40625 6.6875 12.083628 9.9082095 12.03125 15 L 11 15 L 11 12.5 C 11 11.116667 9.8833333 10 8.5 10 C 7.1166667 10 6 11.116667 6 12.5 L 6 16 C 6 18.209804 7.7901961 20 10 20 L 12.15625 20 C 12.300928 21.984289 12.5 23.861369 12.5 24.90625 L 14.5 24.90625 C 14.5 22.830811 14 18.972557 14 16.1875 C 14 10.452814 14.40362 6.9611682 14.40625 6.9375 L 14.40625 6.90625 C 14.510349 6.5121075 14.637974 6.3284519 14.8125 6.21875 C 15.008245 6.09571 15.395238 6 16 6 C 16.67619 6 17.028795 6.067878 17.125 6.125 C 17.21444 6.178106 17.344388 6.3689373 17.5 6.96875 C 17.5095 7.0747486 18 12.426971 18 16.40625 C 18 19.187884 17.627272 23.910418 17.3125 26 L 7 26 L 7 28 L 25 28 L 25 26 L 19.375 26 C 19.7101 23.628327 19.971124 19.770533 20 17 L 22 17 C 24.209804 17 26 15.209804 26 13 L 26 9.5 C 26 8.1166667 24.883333 7 23.5 7 C 22.116667 7 21 8.1166667 21 9.5 L 21 12 L 19.875 12 C 19.726896 9.1667784 19.5 6.71875 19.5 6.71875 A 1.0001 1.0001 0 0 0 19.46875 6.5625 C 19.239964 5.590158 18.828795 4.8241281 18.125 4.40625 C 17.421205 3.9883719 16.72381 4 16 4 z M 23.5 9 C 23.716667 9 24 9.2833333 24 9.5 L 24 13 C 24 14.190196 23.190196 15 22 15 L 19.96875 15 C 19.961464 14.665889 19.980152 14.337972 19.96875 14 L 22 14 A 1.0001 1.0001 0 0 0 23 13 L 23 9.5 C 23 9.2833333 23.283333 9 23.5 9 z M 8.5 12 C 8.7166667 12 9 12.283333 9 12.5 L 9 16 A 1.0001 1.0001 0 0 0 10 17 L 12.03125 17 C 12.039284 17.327821 12.046615 17.660836 12.0625 18 L 10 18 C 8.8098039 18 8 17.190196 8 16 L 8 12.5 C 8 12.283333 8.2833333 12 8.5 12 z" color="#000" overflow="visible" enable-background="accumulate" font-family="Bitstream Vera Sans"/>
</svg>
