<?xml version="1.0"?>
<svg xmlns="http://www.w3.org/2000/svg" viewBox="0 0 32 32" enable-background="new 0 0 32 32">
  <path style="text-indent:0;text-align:start;line-height:normal;text-transform:none;block-progression:tb;-inkscape-font-specification:Bitstream Vera Sans" d="M 16 6 C 14.392308 6 12.988693 6.7719457 12.03125 7.96875 L 12 8 L 10.5 10 L 3 10 L 2 10 L 2 11 L 2 25 L 2 26 L 3 26 L 23 26 L 24 26 L 24 25 L 24 22.75 L 27.5 24.84375 L 27.71875 25 L 28 25 L 29 25 L 30 25 L 30 24 L 30 12 L 30 11 L 29 11 L 28 11 L 27.71875 11 L 27.5 11.15625 L 24 13.25 L 24 11 L 24 10 L 24 7 L 24 6 L 23 6 L 16 6 z M 25 6 L 25 8 L 29 8 L 29 6 L 25 6 z M 16 8 L 22 8 L 22 10 L 13 10 L 13.59375 9.21875 C 14.236307 8.4155543 15.007692 8 16 8 z M 4 12 L 22 12 L 22 14.4375 L 22 15 L 22 21 L 22 21.5625 L 22 24 L 4 24 L 4 12 z M 28 13.15625 L 28 22.84375 L 24 20.46875 L 24 15.53125 L 28 13.15625 z M 6 14 L 6 15 L 6 19 L 6 20 L 7 20 L 13 20 L 14 20 L 14 19 L 14 15 L 14 14 L 13 14 L 7 14 L 6 14 z M 8 16 L 12 16 L 12 18 L 8 18 L 8 16 z" color="#000" overflow="visible" enable-background="accumulate" font-family="Bitstream Vera Sans"/>
</svg>
