<?xml version="1.0"?>
<svg xmlns="http://www.w3.org/2000/svg" viewBox="0 0 32 32" enable-background="new 0 0 32 32">
  <path style="text-indent:0;text-align:start;line-height:normal;text-transform:none;block-progression:tb;-inkscape-font-specification:Bitstream Vera Sans" d="M 17.75 2.8125 L 16.9375 3.03125 C 16.9375 3.03125 12.772222 4.1256549 9.90625 5.5 C 9.89771 5.50409 9.883515 5.4959 9.875 5.5 C 7.0293129 6.7706794 3.4375 9.15625 3.4375 9.15625 L 2.75 9.625 L 3.09375 10.40625 C 3.09375 10.40625 5.7549906 16.368888 6.96875 19 C 6.97408 19.01154 6.994731 19.01984 7 19.03125 C 7.3772437 19.873154 8.0693421 20.346818 8.8125 20.71875 C 8.8939146 21.419702 9.1892564 22.111612 9.53125 22.75 C 10.086017 23.785565 10.854824 24.770121 11.65625 25.65625 C 13.259102 27.428509 14.96875 28.78125 14.96875 28.78125 L 15.28125 29.03125 L 15.6875 29 C 15.6875 29 17.855226 28.823296 20.1875 28.25 C 21.353637 27.963352 22.583378 27.581142 23.625 27.03125 C 24.666622 26.481358 25.622337 25.748458 25.96875 24.59375 C 26.863478 21.611325 28.96875 14.90625 28.96875 14.90625 L 29.21875 14.09375 L 28.4375 13.71875 C 28.4375 13.71875 24.528239 11.763477 21.34375 10.6875 C 20.033251 7.7766795 18.09375 3.5625 18.09375 3.5625 L 17.75 2.8125 z M 16.65625 5.25 C 16.929902 5.8373185 17.957892 8.0430311 18.84375 9.96875 C 15.987427 9.2849954 13.03125 8.90625 13.03125 8.90625 L 12.1875 8.8125 L 11.9375 9.59375 C 11.9375 9.59375 11.595799 10.665429 11.53125 10.875 L 8.4375 12.96875 L 9.5625 14.625 L 10.625 13.90625 C 10.044653 15.796334 9.7034432 16.918448 9.1875 18.625 C 9.0038943 18.488576 8.87097 18.35518 8.8125 18.21875 L 8.8125 18.1875 C 7.7354026 15.853789 5.721799 11.415889 5.28125 10.4375 C 5.9661635 9.9906114 8.4660348 8.3137068 10.71875 7.3125 C 12.947344 6.2394731 15.844413 5.4729617 16.65625 5.25 z M 13.59375 11.03125 C 14.672405 11.183499 17.919189 11.635222 20.40625 12.4375 C 23.043356 13.288179 26.01978 14.783171 26.78125 15.15625 C 26.506399 16.033879 25.248152 20.030384 24.34375 23 L 24.03125 24 C 23.927663 24.345292 23.492753 24.824892 22.6875 25.25 C 21.882247 25.675108 20.790113 26.049148 19.71875 26.3125 C 17.767986 26.792017 16.228304 26.907994 15.90625 26.9375 C 15.634861 26.715008 14.481853 25.778207 13.15625 24.3125 C 12.420176 23.498629 11.710858 22.583185 11.28125 21.78125 C 10.851642 20.979315 10.738698 20.350173 10.84375 20 C 11.663352 17.267993 13.286493 12.026784 13.59375 11.03125 z M 14.40625 15.84375 L 13.8125 17.75 L 17.59375 18.96875 L 18.1875 17.03125 L 14.40625 15.84375 z M 19.71875 17.4375 L 19.09375 19.34375 L 22.78125 20.5625 L 23.40625 18.65625 L 19.71875 17.4375 z M 15.625 19.96875 L 13.75 20.65625 C 13.75 20.65625 14.582207 22.953335 16.96875 23.625 L 16.96875 23.65625 C 16.99023 23.66345 17.00983 23.64945 17.03125 23.65625 C 19.362445 24.394045 21.375 22.90625 21.375 22.90625 L 20.21875 21.28125 C 20.21875 21.28125 18.866331 22.163777 17.625 21.75 L 17.59375 21.75 L 17.5625 21.71875 C 16.207001 21.36204 15.625 19.96875 15.625 19.96875 z" color="#000" overflow="visible" enable-background="accumulate" font-family="Bitstream Vera Sans"/>
</svg>
