<?xml version="1.0"?>
<svg xmlns="http://www.w3.org/2000/svg" viewBox="0 0 32 32" enable-background="new 0 0 32 32">
  <path d="M 3 6 L 3 7 L 3 25 L 3 26 L 4 26 L 28 26 L 29 26 L 29 25 L 29 7 L 29 6 L 28 6 L 4 6 L 3 6 z M 5 8 L 8.25 8 L 9.59375 10 L 8.25 12 L 5 12 L 5 8 z M 10.65625 8 L 13.0625 8 L 14.40625 10 L 13.0625 12 L 10.65625 12 L 11.625 10.5625 L 12 10 L 11.625 9.4375 L 10.65625 8 z M 15.46875 8 L 17.84375 8 L 19.1875 10 L 17.84375 12 L 15.46875 12 L 16.4375 10.5625 L 16.8125 10 L 16.4375 9.4375 L 15.46875 8 z M 20.25 8 L 22.65625 8 L 24 10 L 22.65625 12 L 20.25 12 L 21.21875 10.5625 L 21.59375 10 L 21.21875 9.4375 L 20.25 8 z M 25.0625 8 L 27 8 L 27 12 L 25.0625 12 L 26.03125 10.5625 L 26.40625 10 L 26.03125 9.4375 L 25.0625 8 z M 7 9 C 6.4477153 9 6 9.4477153 6 10 C 6 10.552285 6.4477153 11 7 11 C 7.5522847 11 8 10.552285 8 10 C 8 9.4477153 7.5522847 9 7 9 z M 5 14 L 27 14 L 27 24 L 5 24 L 5 14 z"/>
</svg>
