<?xml version="1.0"?>
<svg xmlns="http://www.w3.org/2000/svg" viewBox="0 0 32 32" enable-background="new 0 0 32 32">
  <path style="text-indent:0;text-align:start;line-height:normal;text-transform:none;block-progression:tb;-inkscape-font-specification:Bitstream Vera Sans" d="M 25 3 C 24.447715 3 24 3.4477153 24 4 C 24 4.5522847 24.447715 5 25 5 C 25.552285 5 26 4.5522847 26 4 C 26 3.4477153 25.552285 3 25 3 z M 16 5 C 15.447715 5 15 5.4477153 15 6 C 15 6.5522847 15.447715 7 16 7 C 16.552285 7 17 6.5522847 17 6 C 17 5.4477153 16.552285 5 16 5 z M 23 5 C 22.447715 5 22 5.4477153 22 6 C 22 6.5522847 22.447715 7 23 7 C 23.552285 7 24 6.5522847 24 6 C 24 5.4477153 23.552285 5 23 5 z M 20.78125 6.78125 L 14.28125 13.28125 L 15.71875 14.71875 L 22.21875 8.21875 L 20.78125 6.78125 z M 14 7 C 13.447715 7 13 7.4477153 13 8 C 13 8.5522847 13.447715 9 14 9 C 14.552285 9 15 8.5522847 15 8 C 15 7.4477153 14.552285 7 14 7 z M 27 8 C 26.447715 8 26 8.4477153 26 9 C 26 9.5522847 26.447715 10 27 10 C 27.552285 10 28 9.5522847 28 9 C 28 8.4477153 27.552285 8 27 8 z M 12 8.59375 L 5.40625 15.1875 C 2.2358607 18.357889 2.2358607 23.423361 5.40625 26.59375 C 8.5766393 29.764139 13.642111 29.764139 16.8125 26.59375 L 22.21875 21.21875 L 20.78125 19.78125 L 15.40625 25.1875 C 12.976639 27.617111 9.2421107 27.617111 6.8125 25.1875 C 4.3828893 22.757889 4.3828893 19.023361 6.8125 16.59375 L 13.40625 10 L 12 8.59375 z M 25 10 C 24.447715 10 24 10.447715 24 11 C 24 11.552285 24.447715 12 25 12 C 25.552285 12 26 11.552285 26 11 C 26 10.447715 25.552285 10 25 10 z M 22.6875 11.90625 L 17.28125 17.28125 L 18.71875 18.71875 L 24.09375 13.3125 L 22.6875 11.90625 z M 27 14 C 26.447715 14 26 14.447715 26 15 C 26 15.552285 26.447715 16 27 16 C 27.552285 16 28 15.552285 28 15 C 28 14.447715 27.552285 14 27 14 z M 25 16 C 24.447715 16 24 16.447715 24 17 C 24 17.552285 24.447715 18 25 18 C 25.552285 18 26 17.552285 26 17 C 26 16.447715 25.552285 16 25 16 z M 10.71875 16.09375 L 10.53125 16.15625 L 8.75 16.875 L 8.375 17 L 8.1875 17.375 L 7.28125 19.28125 L 7.125 19.59375 L 7.25 19.96875 L 7.4375 20.6875 L 7.21875 21.15625 L 7.0625 21.46875 L 7.125 21.78125 C 7.222772 22.270109 7.4190117 22.668332 7.59375 23.03125 C 7.7684883 23.394168 7.9375 23.6875 7.9375 23.6875 L 8.09375 23.96875 L 8.375 24.09375 L 9.6875 24.71875 L 10.03125 24.875 L 10.40625 24.75 L 11.0625 24.53125 L 11.90625 24.6875 L 12.34375 24.75 L 12.6875 24.5 L 14.6875 23 L 14.84375 22.90625 L 14.9375 22.75 C 14.9375 22.75 15.139933 22.428652 15.375 22 C 15.610067 21.571348 15.908516 21.077885 16 20.4375 L 16.03125 20.15625 L 15.9375 19.90625 L 14.9375 17.5 L 14.5 16.53125 L 13.65625 16.9375 C 13.62823 16.92034 13.62288 16.92618 13.59375 16.90625 C 13.441376 16.801994 13.415663 16.640817 13.46875 16.90625 L 13.3125 16.09375 L 12.5 16.09375 L 10.90625 16.09375 L 10.71875 16.09375 z M 23 18 C 22.447715 18 22 18.447715 22 19 C 22 19.552285 22.447715 20 23 20 C 23.552285 20 24 19.552285 24 19 C 24 18.447715 23.552285 18 23 18 z M 11.09375 18.09375 L 11.9375 18.09375 C 12.120395 18.297232 12.302587 18.448809 12.46875 18.5625 C 12.791376 18.783244 13.09375 18.90625 13.09375 18.90625 L 13.28125 19 L 13.375 19 L 13.90625 20.34375 C 13.84797 20.510122 13.77318 20.761039 13.625 21.03125 C 13.483553 21.289183 13.434565 21.407507 13.375 21.5 L 11.84375 22.65625 L 11.1875 22.53125 L 10.9375 22.46875 L 10.6875 22.5625 L 10.15625 22.71875 L 9.53125 22.4375 C 9.4776842 22.334644 9.4501308 22.312291 9.375 22.15625 C 9.2803145 21.959596 9.2466644 21.842486 9.1875 21.6875 L 9.40625 21.25 L 9.5625 20.90625 L 9.46875 20.53125 L 9.25 19.78125 L 9.84375 18.59375 L 11.09375 18.09375 z"/>
</svg>
