<?xml version="1.0"?>
<svg xmlns="http://www.w3.org/2000/svg" viewBox="0 0 32 32" enable-background="new 0 0 32 32">
  <path style="text-indent:0;text-align:start;line-height:normal;text-transform:none;block-progression:tb;-inkscape-font-specification:Bitstream Vera Sans" d="M 22.25 1.9375 C 20.791597 1.9474919 19.295727 2.5968693 17.90625 3.90625 C 17.390791 3.6266925 16.817245 3.46875 16.25 3.46875 C 15.359835 3.46875 14.458027 3.8232233 13.78125 4.5 L 12.46875 5.8125 C 11.317759 5.8593827 10.163504 6.3052463 9.28125 7.1875 L 8.59375 7.90625 L 4 12.5 L 3.28125 13.1875 L 4 13.90625 L 5.9375 15.84375 L 2.28125 19.5 L 1.59375 20.1875 L 2.28125 20.90625 L 11.09375 29.71875 L 11.8125 30.40625 L 12.5 29.71875 L 16.1875 26 L 18.09375 27.90625 L 18.8125 28.625 L 19.5 27.90625 L 24.8125 22.59375 C 25.672166 21.734084 26.123954 20.642573 26.1875 19.53125 L 27.5 18.21875 C 28.609913 17.108837 28.772845 15.415915 28.0625 14.09375 C 29.54026 12.489052 30.20769 10.738686 30.03125 9.0625 C 29.848172 7.3232544 28.861722 5.7760031 27.5 4.46875 C 26.160703 3.1830244 24.633709 2.1827715 22.90625 1.96875 C 22.690318 1.9419973 22.468812 1.9360009 22.25 1.9375 z M 22.25 3.9375 C 22.388243 3.9391212 22.519057 3.9517527 22.65625 3.96875 C 23.753791 4.1047285 24.933047 4.7919756 26.09375 5.90625 C 27.232028 6.9989969 27.914328 8.1704956 28.03125 9.28125 C 28.148172 10.392004 27.771043 11.559051 26.46875 12.90625 C 25.132081 14.234206 24.028902 14.572718 22.9375 14.4375 C 21.839959 14.301521 20.660703 13.583024 19.5 12.46875 L 19.375 12.34375 C 18.31419 11.286234 17.652174 10.185408 17.53125 9.125 C 17.405171 8.0193885 17.746956 6.8467935 19.09375 5.5 C 20.272195 4.3215557 21.282296 3.9261515 22.25 3.9375 z M 16.25 5.40625 C 16.359154 5.40625 16.454248 5.4380213 16.5625 5.46875 C 16.2216 5.9832691 15.95712 6.502726 15.78125 7.03125 C 15.471347 6.7528791 15.130825 6.5320642 14.78125 6.34375 L 14.96875 6.15625 L 15.21875 5.90625 C 15.541974 5.5830267 15.895987 5.40625 16.25 5.40625 z M 21.40625 5.40625 L 19.3125 7.5 L 24.59375 12.8125 L 26.6875 10.6875 C 26.6875 10.6875 25.69375 8.7 24.59375 7.5 C 23.49375 6.3 21.40625 5.40625 21.40625 5.40625 z M 12.65625 7.75 C 13.340352 7.75 14.024455 8.0244551 14.59375 8.59375 L 15.59375 9.59375 C 15.856111 11.23322 16.802155 12.666319 18.09375 13.90625 C 19.367048 15.128617 20.813922 16.099011 22.4375 16.375 L 23.15625 17.0625 L 23.40625 17.3125 C 24.54484 18.45109 24.54484 20.04891 23.40625 21.1875 L 23.15625 21.4375 L 21.4375 23.15625 L 20.25 22 L 21.3125 20.90625 L 19.90625 19.5 L 15.8125 23.59375 A 1.0001 1.0001 0 0 0 15.1875 24.1875 A 1.0001 1.0001 0 0 0 15.15625 24.28125 L 14.09375 25.34375 C 13.859154 24.706057 13.501744 24.001744 12.90625 23.40625 C 12.368033 22.868033 11.717682 22.518232 11.125 22.28125 L 12.5 20.90625 L 11.09375 19.5 L 9.71875 20.875 C 9.4817676 20.282318 9.131967 19.631967 8.59375 19.09375 C 7.9982559 18.498256 7.2939429 18.140846 6.65625 17.90625 L 7.78125 16.78125 A 1.0001 1.0001 0 0 0 7.84375 16.75 L 7.9375 16.6875 A 1.0001 1.0001 0 0 0 8.21875 16.40625 A 1.0001 1.0001 0 0 0 8.28125 16.3125 L 12.5 12.09375 L 11.09375 10.6875 L 10 11.78125 L 8.8125 10.5 L 10.71875 8.59375 C 11.288045 8.0244551 11.972148 7.75 12.65625 7.75 z M 7.375 11.9375 L 8.59375 13.1875 L 7.34375 14.4375 L 6.125 13.1875 L 7.375 11.9375 z M 14.4375 14 L 12.6875 15.78125 L 16.21875 19.3125 L 17.96875 17.53125 L 14.4375 14 z M 26.53125 15.4375 C 26.661639 15.896838 26.516634 16.358366 26.09375 16.78125 L 25.6875 17.1875 C 25.508801 16.827694 25.307451 16.472691 25.03125 16.15625 C 25.532384 15.989685 26.037804 15.75457 26.53125 15.4375 z M 5 19.5625 C 5.4192418 19.642536 6.5877664 19.900267 7.1875 20.5 C 7.7178282 21.030328 7.968575 21.957783 8.09375 22.5 L 7.40625 23.1875 L 4.40625 20.1875 L 5 19.5625 z M 18.8125 23.40625 L 20.03125 24.5625 L 18.8125 25.8125 L 17.625 24.625 L 18.8125 23.40625 z M 9.5 23.90625 C 10.042217 24.031425 10.969672 24.282172 11.5 24.8125 C 12.099733 25.412233 12.357464 26.580758 12.4375 27 L 11.8125 27.59375 L 8.8125 24.59375 L 9.5 23.90625 z"/>
</svg>
