<?xml version="1.0"?>
<svg xmlns="http://www.w3.org/2000/svg" viewBox="0 0 32 32" enable-background="new 0 0 32 32">
  <path style="text-indent:0;text-align:start;line-height:normal;text-transform:none;block-progression:tb;-inkscape-font-specification:Bitstream Vera Sans" d="M 25 5 C 23.895431 5 23 5.8954305 23 7 C 23 7.7396043 23.403104 8.3727074 24 8.71875 L 24 11 L 26 11 L 26 8.71875 C 26.596896 8.3727074 27 7.7396043 27 7 C 27 5.8954305 26.104569 5 25 5 z M 4 12 L 4 14 L 6.40625 14 L 8 18 L 10 18 L 22 18 L 24 18 L 25.59375 14 L 28 14 L 28 12 L 4 12 z M 8.40625 14 L 23.59375 14 L 22.8125 16 L 9.1875 16 L 8.40625 14 z M 6 19 C 3.8027056 19 2 20.802706 2 23 C 2 25.197294 3.8027056 27 6 27 C 8.1972944 27 10 25.197294 10 23 C 10 20.802706 8.1972944 19 6 19 z M 16 19 C 13.802706 19 12 20.802706 12 23 C 12 25.197294 13.802706 27 16 27 C 18.197294 27 20 25.197294 20 23 C 20 20.802706 18.197294 19 16 19 z M 26 19 C 23.802706 19 22 20.802706 22 23 C 22 25.197294 23.802706 27 26 27 C 28.197294 27 30 25.197294 30 23 C 30 20.802706 28.197294 19 26 19 z M 6 21 C 7.116414 21 8 21.883586 8 23 C 8 24.116414 7.116414 25 6 25 C 4.883586 25 4 24.116414 4 23 C 4 21.883586 4.883586 21 6 21 z M 16 21 C 17.116414 21 18 21.883586 18 23 C 18 24.116414 17.116414 25 16 25 C 14.883586 25 14 24.116414 14 23 C 14 21.883586 14.883586 21 16 21 z M 26 21 C 27.116414 21 28 21.883586 28 23 C 28 24.116414 27.116414 25 26 25 C 24.883586 25 24 24.116414 24 23 C 24 21.883586 24.883586 21 26 21 z"/>
</svg>
