<?xml version="1.0"?>
<svg xmlns="http://www.w3.org/2000/svg" viewBox="0 0 32 32" enable-background="new 0 0 32 32">
  <path style="text-indent:0;text-align:start;line-height:normal;text-transform:none;block-progression:tb;-inkscape-font-specification:Bitstream Vera Sans" d="M 16 4.0625 L 16 5.5 L 16 9.5 L 16 10.1875 L 16 19.03125 C 15.159224 18.390056 14.132511 18 13 18 C 10.250421 18 8 20.250421 8 23 C 8 25.749579 10.250421 28 13 28 C 15.749579 28 18 25.749579 18 23 L 18 10.9375 L 24.65625 13.4375 L 26 13.9375 L 26 12.5 L 26 8.5 L 26 7.8125 L 25.34375 7.5625 L 17.34375 4.5625 L 16 4.0625 z M 18 6.9375 L 24 9.1875 L 24 11.0625 L 18 8.8125 L 18 6.9375 z M 13 20 C 14.668699 20 16 21.331301 16 23 C 16 24.668699 14.668699 26 13 26 C 11.331301 26 10 24.668699 10 23 C 10 21.331301 11.331301 20 13 20 z" color="#000" overflow="visible" enable-background="accumulate" font-family="Bitstream Vera Sans"/>
</svg>
