<?xml version="1.0"?>
<svg xmlns="http://www.w3.org/2000/svg" viewBox="0 0 32 32" enable-background="new 0 0 32 32">
  <path style="text-indent:0;text-align:start;line-height:normal;text-transform:none;block-progression:tb;-inkscape-font-specification:Bitstream Vera Sans" d="M 4 7 L 4 8 L 4 22 L 4 23 L 5 23 L 27 23 L 28 23 L 28 22 L 28 8 L 28 7 L 27 7 L 5 7 L 4 7 z M 6 9 L 26 9 L 26 21 L 6 21 L 6 9 z M 13.09375 11 C 10.89375 11 9.09375 12.8 9.09375 15 C 9.09375 16 9.4 16.89375 10 17.59375 C 9.8 17.29375 9.8125 17.00625 9.8125 16.90625 C 9.8125 16.60625 9.90625 16.3125 9.90625 16.3125 L 11.59375 16.3125 C 11.59375 16.3125 11.5 17.3125 12.5 17.3125 C 13.2 17.3125 13.8125 17.10625 13.8125 16.40625 C 13.8125 15.40625 10.59375 16 10.59375 14 C 10.59375 12.1 12.09375 11.59375 14.09375 11.59375 C 14.79375 11.59375 15.2875 11.8 15.6875 12 C 14.9875 11.4 14.09375 11 13.09375 11 z M 17.1875 11.90625 L 16.9375 14.25 C 16.867582 13.527253 16.531089 12.916479 16.09375 12.40625 C 16.19375 12.60625 16.3125 12.8 16.3125 13 C 16.3125 13.3 16.1875 13.59375 16.1875 13.59375 L 14.40625 13.59375 C 14.40625 13.19375 14.19375 12.6875 13.59375 12.6875 C 13.19375 12.6875 12.5 12.89375 12.5 13.59375 C 12.5 14.69375 15.8125 14.10625 15.8125 15.90625 C 15.8125 17.00625 14.7875 18.59375 12.1875 18.59375 C 11.3875 18.59375 10.9 18.5125 10.5 18.3125 C 11.2 18.8125 12.00625 19.09375 12.90625 19.09375 C 14.67109 19.09375 16.16021 17.93771 16.6875 16.34375 L 16.5 18 L 19.59375 18 C 21.49375 18 23 16.8125 23 14.3125 C 23 12.0125 20.40625 11.90625 20.40625 11.90625 L 17.1875 11.90625 z M 18.8125 13.09375 L 19.6875 13.09375 C 19.6875 13.09375 21.3125 13.1875 21.3125 14.6875 C 21.3125 16.5875 19.3125 16.90625 19.3125 16.90625 L 18.3125 16.90625 L 18.8125 13.09375 z M 10 24 L 10 26 L 22 26 L 22 24 L 10 24 z" color="#000" overflow="visible" enable-background="accumulate" font-family="Bitstream Vera Sans"/>
</svg>
