<?xml version="1.0"?>
<svg xmlns="http://www.w3.org/2000/svg" viewBox="0 0 32 32" enable-background="new 0 0 32 32">
  <path style="text-indent:0;text-align:start;line-height:normal;text-transform:none;block-progression:tb;-inkscape-font-specification:Bitstream Vera Sans" d="M 18.8125 2.90625 C 17.492659 2.90625 16.384035 3.426434 15.59375 3.90625 C 15.198607 4.146158 14.877969 4.359922 14.65625 4.53125 C 14.604742 4.5710497 14.595305 4.6188696 14.5625 4.65625 C 14.59337 4.645467 14.63622 4.635817 14.6875 4.625 C 14.73878 4.614183 14.907031 4.59375 14.90625 4.59375 L 14.90625 6.59375 C 14.907031 6.59375 15.040523 6.604979 15.09375 6.59375 C 15.14698 6.582521 15.216791 6.54285 15.25 6.53125 C 15.31642 6.50805 15.34309 6.485267 15.375 6.46875 C 15.43881 6.435716 15.47233 6.424913 15.5 6.40625 C 15.55533 6.368923 15.58829 6.340865 15.625 6.3125 C 15.69842 6.25577 15.779609 6.198711 15.875 6.125 C 16.065781 5.977578 16.320143 5.778842 16.625 5.59375 C 17.234715 5.223566 18.032341 4.90625 18.8125 4.90625 C 19.545833 4.90625 20.334309 5.2195859 20.84375 5.65625 L 21.40625 6.125 L 22 5.75 C 22.281423 5.581146 22.698611 5.5 23.1875 5.5 C 24.720833 5.5 25.917432 6.5503194 26.21875 7.90625 L 26.375 8.53125 L 26.96875 8.6875 C 28.290227 8.9811615 29.40625 10.278728 29.40625 11.6875 C 29.40625 12.065278 29.245425 12.573939 29.0625 13.03125 L 28.875 13.5625 L 29.1875 14 C 29.6995 14.682667 30 15.360417 30 16.09375 C 30 17.808902 28.69375 19.18125 28.59375 19.28125 L 30 20.71875 C 30.1 20.61875 32 18.778598 32 16.09375 C 32 15.01251 31.599652 14.081818 31.0625 13.25 C 31.224461 12.785534 31.40625 12.300591 31.40625 11.6875 C 31.40625 9.5055633 29.948263 7.6418539 27.96875 6.9375 C 27.284687 4.9700813 25.445116 3.5 23.1875 3.5 C 22.699082 3.5 22.200112 3.7023998 21.6875 3.875 C 20.858816 3.305426 19.886346 2.90625 18.8125 2.90625 z M 6.03125 8.8125 L 5.34375 9.28125 C 3.6028376 10.472401 3.2810083 11.902116 3.375 13.0625 C 3.0644214 13.341595 1.4219314 14.835026 0.6875 15.40625 L 0.625 15.4375 L 0.59375 15.5 C 0.28661516 15.807135 0.08678163 16.180747 0.03125 16.625 C -0.01937346 17.029988 0.1578437 17.498661 0.46875 17.875 L 0.40625 17.90625 C 0.42831531 17.93567 0.47683112 17.969084 0.5 18 C 1.3942155 19.193227 3.0079035 21.382006 3.46875 22.09375 C 3.6796856 23.868327 4.2716209 25.105809 4.90625 25.84375 C 5.3361769 26.343665 5.5544545 26.375009 5.84375 26.53125 C 5.84839 26.53375 5.8392 26.56007 5.84375 26.5625 L 7.0625 28.4375 L 7.625 29.34375 L 8.5 28.71875 L 12.28125 25.90625 L 12.9375 25.4375 L 12.625 24.71875 L 12.40625 24.21875 L 13.28125 23.53125 L 14.78125 23.6875 L 15.125 23.71875 L 15.40625 23.5625 C 15.40625 23.5625 17.825362 22.102653 20.40625 19.625 L 20.40625 19.59375 C 23.178494 16.821506 23.96875 13.96875 23.96875 13.96875 L 24.09375 13.46875 L 23.78125 13.0625 L 22.8125 11.90625 L 22.78125 11.875 C 22.679651 11.592394 22.599848 11.321809 22.40625 11 C 22.121672 10.526959 21.760056 10.028831 21.21875 9.625 C 20.677444 9.2211686 19.915601 8.9208521 19.09375 9.03125 C 18.28479 9.1399162 17.501388 9.6120313 16.78125 10.40625 C 16.76977 10.41891 16.76145 10.42468 16.75 10.4375 L 15.625 11.5625 C 13.889866 12.763746 12.360052 12.889909 11.15625 12.6875 C 10.554349 12.586295 10.02741 12.394562 9.65625 12.21875 C 9.2850903 12.042938 8.9875105 11.800011 9.09375 11.90625 L 9.0625 11.875 L 6.59375 9.40625 L 6.03125 8.8125 z M 19.375 11 C 19.600024 10.96977 19.753806 11.03508 20 11.21875 C 20.246194 11.402419 20.531453 11.719916 20.71875 12.03125 C 20.906047 12.342584 21.022084 12.677503 21.03125 12.71875 L 21.0625 12.96875 L 21.21875 13.125 L 21.84375 13.90625 C 21.653713 14.481711 21.040921 16.146579 19 18.1875 C 16.691061 20.404081 14.781779 21.571311 14.59375 21.6875 L 13.09375 21.5 L 12.71875 21.46875 L 12.375 21.71875 L 10.59375 23.125 L 9.96875 23.59375 L 10.28125 24.28125 L 10.46875 24.75 L 8.15625 26.46875 L 7.53125 25.46875 L 7.34375 25.15625 L 7.03125 25.0625 C 7.03125 25.0625 6.8040166 25.02502 6.40625 24.5625 C 6.0084834 24.099981 5.5414227 23.247073 5.40625 21.625 L 5.375 21.375 L 5.25 21.15625 C 4.6742732 20.235087 3.0162692 18.072749 2.09375 16.84375 C 3.1404776 16.000901 4.96875 14.34375 4.96875 14.34375 L 5.46875 13.875 L 5.25 13.25 C 5.1202089 12.90389 5.1874729 12.289294 5.90625 11.53125 L 7.6875 13.3125 C 7.8406198 13.465619 7.9782131 13.57685 8.15625 13.6875 L 7.125 15.5 L 8.875 16.5 L 10.0625 14.46875 C 10.306591 14.536189 10.535059 14.609601 10.8125 14.65625 C 10.873696 14.66654 10.937235 14.678633 11 14.6875 L 11.21875 16.5 L 13.1875 16.28125 L 13.03125 14.6875 C 13.485471 14.629466 13.955989 14.527844 14.4375 14.375 L 15.21875 15.875 L 17 14.9375 L 16.25 13.53125 C 16.424719 13.426603 16.606458 13.33976 16.78125 13.21875 L 16.84375 13.15625 L 16.90625 13.09375 L 18.21875 11.8125 L 18.21875 11.78125 L 18.25 11.78125 C 18.7703 11.198514 19.149976 11.030227 19.375 11 z" color="#000" overflow="visible" enable-background="accumulate" font-family="Bitstream Vera Sans"/>
</svg>
