<?xml version="1.0"?>
<svg xmlns="http://www.w3.org/2000/svg" viewBox="0 0 32 32" enable-background="new 0 0 32 32">
  <path style="text-indent:0;text-align:start;line-height:normal;text-transform:none;block-progression:tb;-inkscape-font-specification:Bitstream Vera Sans" d="M 11 4 C 7.1545455 4 4 7.1545455 4 11 L 4 27 L 4 28 L 5 28 L 17 28 L 18 28 L 18 27 L 18 20 L 19 20 L 19 21 L 20 21 L 27 21 L 28 21 L 28 20 L 28 14 L 28 13 L 27 13 L 20 13 L 19 13 L 19 14 L 18 14 L 18 11 C 18 7.1545455 14.845455 4 11 4 z M 11 6 C 13.754545 6 16 8.2454545 16 11 L 16 26 L 6 26 L 6 11 C 6 8.2454545 8.2454545 6 11 6 z M 11 7 C 8.8027056 7 7 8.8027056 7 11 C 7 13.197294 8.8027056 15 11 15 C 13.197294 15 15 13.197294 15 11 C 15 8.8027056 13.197294 7 11 7 z M 11 9 C 12.116414 9 13 9.883586 13 11 C 13 12.116414 12.116414 13 11 13 C 9.883586 13 9 12.116414 9 11 C 9 9.883586 9.883586 9 11 9 z M 21 15 L 26 15 L 26 19 L 21 19 L 21 15 z M 18 16 L 19 16 L 19 18 L 18 18 L 18 16 z M 13 22 C 12.447715 22 12 22.447715 12 23 C 12 23.552285 12.447715 24 13 24 C 13.552285 24 14 23.552285 14 23 C 14 22.447715 13.552285 22 13 22 z" color="#000" overflow="visible" enable-background="accumulate" font-family="Bitstream Vera Sans"/>
</svg>
