<?xml version="1.0" encoding="UTF-8" standalone="no"?>
<svg xmlns="http://www.w3.org/2000/svg" xmlns:xlink="http://www.w3.org/1999/xlink" xmlns:sketch="http://www.bohemiancoding.com/sketch/ns" width="60px" height="60px" viewBox="0 0 60 60" version="1.1">
  <!-- Generator: Sketch 3.2.2 (9983) - http://www.bohemiancoding.com/sketch -->
  <title>Browsertool</title>
  <desc>Created with Sketch.</desc>
  <g id="colored" stroke="none" stroke-width="1" fill="none" fill-rule="evenodd" sketch:type="MSPage">
        <g id="Tech_sliced" sketch:type="MSLayerGroup" transform="translate(-720.000000, 0.000000)"/>
        <g id="Tech" sketch:type="MSLayerGroup" transform="translate(-718.000000, 7.000000)" stroke="#314E55" stroke-width="2">
            <g id="Browsertool" transform="translate(720.000000, 0.000000)" sketch:type="MSShapeGroup">
                <rect id="Rectangle-435" stroke-linecap="round" fill="#EAEAEA" x="0" y="8" width="56" height="38"/>
                <rect id="Rectangle-436" stroke-linecap="round" fill="#F58CAC" x="0" y="0" width="56" height="8"/>
                <circle id="Oval-475" stroke-linecap="round" cx="4" cy="4" r="1"/>
                <circle id="Oval-476" stroke-linecap="round" cx="9" cy="4" r="1"/>
                <circle id="Oval-477" stroke-linecap="round" cx="14" cy="4" r="1"/>
                <path d="M29.1983922,26.0456821 C32.5913836,25.0882585 35.0780433,21.9697165 35.0780433,18.2703839 C35.0780433,15.1705221 33.332003,12.4784699 30.7697535,11.1240584 L30.7697535,11.1240584 L30.7697535,19.3474563 L23.2302465,19.3474563 L23.2302465,11.1240584 C20.667997,12.4784699 18.9219567,15.1705221 18.9219567,18.2703839 C18.9219567,22.1601851 21.6712712,25.4078495 25.3326879,26.1761648 L24.3073189,44.1201225 L30.2312173,44.1201225 L29.1983922,26.0456821 Z" id="Oval-478" stroke-linecap="square" stroke-linejoin="round" fill="#5ECC66" transform="translate(27.000000, 27.622090) rotate(-315.000000) translate(-27.000000, -27.622090) "/>
            </g>
        </g>
    </g>
</svg>
