<?xml version="1.0" encoding="UTF-8" standalone="no"?>
<svg xmlns="http://www.w3.org/2000/svg" xmlns:xlink="http://www.w3.org/1999/xlink" xmlns:sketch="http://www.bohemiancoding.com/sketch/ns" width="60px" height="60px" viewBox="0 0 60 60" version="1.1">
  <!-- Generator: Sketch 3.2.2 (9983) - http://www.bohemiancoding.com/sketch -->
  <title>Skype</title>
  <desc>Created with Sketch.</desc>
  <g id="colored" stroke="none" stroke-width="1" fill="none" fill-rule="evenodd" sketch:type="MSPage">
        <g id="Brands_sliced" sketch:type="MSLayerGroup" transform="translate(-360.000000, 0.000000)"/>
        <g id="Brands" sketch:type="MSLayerGroup" transform="translate(-356.000000, 4.000000)" stroke="#314E55" stroke-width="2" fill="#81A4E3">
            <g id="Skype" transform="translate(361.000000, 3.000000)" sketch:type="MSShapeGroup">
                <path d="M43.8673249,43.5140612 C37.336119,50.5839954 28.4774202,46.019964 28.4774202,46.019964 C22.2144123,46.6461482 17.2935609,44.7664296 17.2935609,44.7664296 C6.19832347,41.4559326 3.33560063,31.1664554 3.33560063,31.1664554 C0.741075857,24.3635532 2.26164229,19.0858817 2.26164229,19.0858817 C-2.12281306,10.6726249 4.05157286,4.23004094 4.05157286,4.23004094 C11.4783271,-3.28533531 20.3370259,2.08329034 20.3370259,2.08329034 C33.669968,0.113783665 40.7387362,8.61566237 40.7387362,8.61566237 C48.9712507,16.6697669 46.466514,28.2127785 46.466514,28.2127785 C49.9519228,37.4306294 43.8673249,43.5140612 43.8673249,43.5140612 L43.8673249,43.5140612 Z M19.8892517,14.2443235 C26.4729312,10.8207169 29.4464315,15.3066211 29.4464315,15.3066211 C32.8105681,20.2799461 35.0132905,18.2498033 35.0132905,18.2498033 C38.494035,15.1958436 34.3696151,11.5518482 34.3696151,11.5518482 C28.0494694,5.65965325 17.8521125,9.26166988 17.8521125,9.26166988 C10.1909764,11.8352052 11.8526384,18.9074716 11.8526384,18.9074716 C14.1568096,25.2824231 24.4404563,26.0846851 24.4404563,26.0846851 C30.5483757,26.5674416 30.6020153,29.943239 30.6020153,29.943239 C30.8702134,33.6945137 24.762294,34.3883305 24.762294,34.3883305 C19.4986154,34.1236306 18.4059998,31.8696008 18.4059998,31.8696008 C16.0983304,28.8168072 15.4721462,28.1696336 14.0355374,28.132319 C10.4265243,28.0378667 10.8218249,31.9383994 10.8218249,31.9383994 C12.5884339,39.3301714 22.8347661,39.1575917 22.8347661,39.1575917 C37.0306064,40.0146595 37.7803949,30.3700238 37.7803949,30.3700238 C38.4240703,23.7280404 30.0131457,21.317756 30.0131457,21.317756 C24.0125055,20.2461298 20.5830685,18.6392736 20.5830685,18.6392736 C16.9962108,16.6033004 19.8892517,14.2443235 19.8892517,14.2443235 L19.8892517,14.2443235 Z" id="Shape"/>
            </g>
        </g>
    </g>
</svg>
