<?xml version="1.0" encoding="UTF-8" standalone="no"?>
<svg xmlns="http://www.w3.org/2000/svg" xmlns:xlink="http://www.w3.org/1999/xlink" xmlns:sketch="http://www.bohemiancoding.com/sketch/ns" width="60px" height="60px" viewBox="0 0 60 60" version="1.1">
  <!-- Generator: Sketch 3.2.2 (9983) - http://www.bohemiancoding.com/sketch -->
  <title>Gentleman</title>
  <desc>Created with Sketch.</desc>
  <g id="colored" stroke="none" stroke-width="1" fill="none" fill-rule="evenodd" sketch:type="MSPage">
        <g id="Care_sliced" sketch:type="MSLayerGroup" transform="translate(-240.000000, 0.000000)"/>
        <g id="Care" sketch:type="MSLayerGroup" transform="translate(-237.000000, -4.000000)" stroke="#314E55" stroke-width="2" stroke-linejoin="round">
            <g id="Gentleman" transform="translate(242.000000, 11.000000)" sketch:type="MSShapeGroup">
                <path d="M0,30.7891494 C0,28.69646 1.70530025,27 3.79717514,27 L50.2028249,27 C52.2999468,27 54,28.6965942 54,30.7891494 L54,31.2108506 C54,33.30354 52.3073653,34.8063714 50.2247996,34.5754966 C50.2247996,34.5754966 34.6691071,32.7289481 27,32.7289481 C19.3308929,32.7289481 3.7508631,34.578155 3.7508631,34.578155 C1.67931861,34.8111335 0,33.3034058 0,31.2108506 L0,30.7891494 Z" id="Rectangle-1355" stroke-linecap="round" fill="#D26CBA"/>
                <path d="M13.5285605,6.60015299 C13.7889293,2.95498915 16.9572171,0 20.6113335,0 L33.3886665,0 C37.0400052,0 40.2102549,2.94356912 40.4714395,6.60015299 L42,28 L12,28 L13.5285605,6.60015299 Z" id="Rectangle-1356" stroke-linecap="round" fill="#D26CBA"/>
                <circle id="Oval-1072" stroke-linecap="round" fill="#73C9C9" cx="34" cy="43" r="5"/>
                <circle id="Oval-1072" stroke-linecap="round" fill="#73C9C9" cx="20" cy="43" r="5"/>
                <path d="M25,41 L28,41" id="Line" stroke-linecap="square"/>
            </g>
        </g>
    </g>
</svg>
