<?xml version="1.0" encoding="UTF-8" standalone="no"?>
<svg xmlns="http://www.w3.org/2000/svg" xmlns:xlink="http://www.w3.org/1999/xlink" xmlns:sketch="http://www.bohemiancoding.com/sketch/ns" width="60px" height="60px" viewBox="0 0 60 60" version="1.1">
  <!-- Generator: Sketch 3.2.2 (9983) - http://www.bohemiancoding.com/sketch -->
  <title>SDcard</title>
  <desc>Created with Sketch.</desc>
  <g id="colored" stroke="none" stroke-width="1" fill="none" fill-rule="evenodd" sketch:type="MSPage">
        <g id="Tech_sliced" sketch:type="MSLayerGroup" transform="translate(0.000000, -120.000000)"/>
        <g id="Tech" sketch:type="MSLayerGroup" transform="translate(2.000000, -113.000000)" stroke-width="2">
            <g id="SDcard" transform="translate(7.000000, 118.000000)" sketch:type="MSShapeGroup">
                <path d="M0,7 L7.74223461,0 L40,0 L40,50 L0,50 L0,7 Z" id="Rectangle-518" stroke="#314E55" fill="#73C9C9"/>
                <path d="M6,7.99999999 L6,13.536771" id="Line" stroke="#535353" stroke-linecap="square"/>
                <path d="M18,4.99999999 L18,10.757397" id="Line-162" stroke="#314E55" stroke-linecap="square"/>
                <path d="M10,4.99999999 L10,10.757397" id="Line-162" stroke="#314E55" stroke-linecap="square"/>
                <path d="M26,4.99999999 L26,10.757397" id="Line-162" stroke="#314E55" stroke-linecap="square"/>
                <path d="M22,4.99999999 L22,10.757397" id="Line-163" stroke="#314E55" stroke-linecap="square"/>
                <path d="M14,4.99999999 L14,10.757397" id="Line-163" stroke="#314E55" stroke-linecap="square"/>
                <path d="M30,4.99999999 L30,10.757397" id="Line-163" stroke="#314E55" stroke-linecap="square"/>
                <path d="M34,4.99999999 L34,10.757397" id="Line-163" stroke="#314E55" stroke-linecap="square"/>
                <rect id="Rectangle-519" stroke="#314E55" stroke-linecap="square" fill="#EAEAEA" x="7" y="25" width="27" height="20" rx="2"/>
                <path d="M11,29 L21,29" id="Line" stroke="#314E55" stroke-linecap="square"/>
                <path d="M11,33 L26,33" id="Line" stroke="#314E55" stroke-linecap="square"/>
                <path d="M11,37 L26,37" id="Line-164" stroke="#314E55" stroke-linecap="square"/>
                <path d="M11,41 L26,41" id="Line-164" stroke="#314E55" stroke-linecap="square"/>
            </g>
        </g>
    </g>
</svg>
