<?xml version="1.0" encoding="UTF-8" standalone="no"?>
<svg xmlns="http://www.w3.org/2000/svg" xmlns:xlink="http://www.w3.org/1999/xlink" xmlns:sketch="http://www.bohemiancoding.com/sketch/ns" width="60px" height="60px" viewBox="0 0 60 60" version="1.1">
  <!-- Generator: Sketch 3.2.2 (9983) - http://www.bohemiancoding.com/sketch -->
  <title>RAM</title>
  <desc>Created with Sketch.</desc>
  <g id="colored" stroke="none" stroke-width="1" fill="none" fill-rule="evenodd" sketch:type="MSPage">
        <g id="Tech_sliced" sketch:type="MSLayerGroup" transform="translate(-480.000000, -120.000000)"/>
        <g id="Tech" sketch:type="MSLayerGroup" transform="translate(-478.000000, -113.000000)" stroke="#314E55" stroke-width="2">
            <g id="RAM" transform="translate(508.000000, 143.000000) rotate(-45.000000) translate(-508.000000, -143.000000) translate(477.000000, 133.000000)" sketch:type="MSShapeGroup">
                <rect id="Rectangle-529" fill="#E5D85A" x="1" y="0" width="60" height="17"/>
                <rect id="Rectangle-530" fill="#F28544" x="6" y="3.06839067" width="5" height="10.9316093" rx="2"/>
                <rect id="Rectangle-530" fill="#F28544" x="24" y="3.06839067" width="5" height="10.9316093" rx="2"/>
                <rect id="Rectangle-530" fill="#F28544" x="42" y="3.06839067" width="5" height="10.9316093" rx="2"/>
                <rect id="Rectangle-530" fill="#F28544" x="15" y="3.06839067" width="5" height="10.9316093" rx="2"/>
                <rect id="Rectangle-530" fill="#F28544" x="33" y="3.06839067" width="5" height="10.9316093" rx="2"/>
                <rect id="Rectangle-530" fill="#F28544" x="51" y="3.06839067" width="5" height="10.9316093" rx="2"/>
                <path d="M1,16.5 L1,20" id="Line" stroke-linecap="square"/>
                <path d="M5,17.375 L5,20" id="Line-165" stroke-linecap="square"/>
                <path d="M37,17.375 L37,20" id="Line-165" stroke-linecap="square"/>
                <path d="M17,17.375 L17,20" id="Line-165" stroke-linecap="square"/>
                <path d="M49,17.375 L49,20" id="Line-165" stroke-linecap="square"/>
                <path d="M9,17.375 L9,20" id="Line-166" stroke-linecap="square"/>
                <path d="M41,17.375 L41,20" id="Line-166" stroke-linecap="square"/>
                <path d="M21,17.375 L21,20" id="Line-166" stroke-linecap="square"/>
                <path d="M53,17.375 L53,20" id="Line-166" stroke-linecap="square"/>
                <path d="M13,17.375 L13,20" id="Line-167" stroke-linecap="square"/>
                <path d="M45,17.375 L45,20" id="Line-167" stroke-linecap="square"/>
                <path d="M25,17.375 L25,20" id="Line-167" stroke-linecap="square"/>
                <path d="M57,17.375 L57,20" id="Line-167" stroke-linecap="square"/>
                <path d="M61,16.5 L61,20" id="Line" stroke-linecap="square"/>
                <rect id="Rectangle-536" x="29" y="17" width="4" height="3"/>
            </g>
        </g>
    </g>
</svg>
