<?xml version="1.0" encoding="UTF-8" standalone="no"?>
<svg xmlns="http://www.w3.org/2000/svg" xmlns:xlink="http://www.w3.org/1999/xlink" xmlns:sketch="http://www.bohemiancoding.com/sketch/ns" width="60px" height="60px" viewBox="0 0 60 60" version="1.1">
  <!-- Generator: Sketch 3.2.2 (9983) - http://www.bohemiancoding.com/sketch -->
  <title>Twitter</title>
  <desc>Created with Sketch.</desc>
  <g id="colored" stroke="none" stroke-width="1" fill="none" fill-rule="evenodd" sketch:type="MSPage">
        <g id="Brands_sliced" sketch:type="MSLayerGroup"/>
        <g id="Brands" sketch:type="MSLayerGroup" transform="translate(4.000000, 4.000000)" stroke="#314E55" stroke-width="2" fill="#73C9C9" stroke-linecap="round" stroke-linejoin="round">
            <g id="Twitter" transform="translate(0.000000, 7.000000)" sketch:type="MSShapeGroup">
                <path d="M45.710328,7.26461023 C45.710328,7.26461023 49.7891594,6.93752192 51.4260032,5.69777149 C51.4260032,5.69777149 51.0336919,7.12495455 46.1255745,11.6404882 C46.1255745,11.6404882 47.7781108,36.0055044 22.5977549,41.9727222 C22.5977549,41.9727222 9.82771721,44.7413348 0.573996756,37.6789225 C0.573996756,37.6789225 10.2610704,39.4282937 15.711181,33.3103948 C15.711181,33.3103948 8.68096083,33.3826727 6.45746056,26.1034266 C6.45746056,26.1034266 9.11189981,26.6853253 10.6895952,25.9576457 C10.6895952,25.9576457 2.72627742,24.2817775 2.86992375,15.4724441 C2.86992375,15.4724441 5.02220441,17.0748093 6.95841203,16.7832475 C6.95841203,16.7832475 -0.214247369,10.5930706 4.23275317,2.87770677 C4.23275317,2.87770677 13.8437788,14.411551 25.7555598,13.7267481 C25.5479366,12.9010645 25.4356751,12.0361793 25.4356751,11.141893 C25.4356751,5.40743468 30.0190793,0.755920455 35.6719848,0.755920455 C38.5280117,0.755920455 41.1112314,1.94421879 42.9689767,3.85897169 C44.330599,3.88224763 47.1310988,3.63601262 49.9279773,1.60365494 C49.9279773,1.60487999 50.0885232,3.82589534 45.710328,7.26461023 L45.710328,7.26461023 Z" id="Shape"/>
            </g>
        </g>
    </g>
</svg>
