<?xml version="1.0" encoding="UTF-8" standalone="no"?>
<svg xmlns="http://www.w3.org/2000/svg" xmlns:xlink="http://www.w3.org/1999/xlink" xmlns:sketch="http://www.bohemiancoding.com/sketch/ns" width="60px" height="60px" viewBox="0 0 60 60" version="1.1">
  <!-- Generator: Sketch 3.2.2 (9983) - http://www.bohemiancoding.com/sketch -->
  <title>Testtube</title>
  <desc>Created with Sketch.</desc>
  <g id="colored" stroke="none" stroke-width="1" fill="none" fill-rule="evenodd" sketch:type="MSPage">
        <g id="Science_sliced" sketch:type="MSLayerGroup" transform="translate(-240.000000, 0.000000)"/>
        <g id="Science" sketch:type="MSLayerGroup" transform="translate(-236.000000, 2.000000)" stroke="#314E55" stroke-width="2">
            <g id="Testtube" transform="translate(238.000000, 9.000000)" sketch:type="MSShapeGroup">
                <path d="M5,8 L5,35.4951209 C5,38.5353817 7.46861471,41 10.5,41 L10.5,41 C13.5375661,41 16,38.5465967 16,35.4951209 L16,8 L5,8 Z" id="Rectangle-28" stroke-linecap="round" stroke-linejoin="round" fill="#73C9C9"/>
                <path d="M5,1 L5,8 L16,8 L16,1 L5,1 Z" id="Rectangle-31" stroke-linecap="round" stroke-linejoin="round" transform="translate(10.500000, 4.500000) scale(-1, -1) translate(-10.500000, -4.500000) "/>
                <path d="M23,8 L23,35.4951209 C23,38.5353817 25.4686147,41 28.5,41 L28.5,41 C31.5375661,41 34,38.5465967 34,35.4951209 L34,8 L23,8 Z" id="Rectangle-33" stroke-linecap="round" stroke-linejoin="round" fill="#F28544"/>
                <path d="M23,1 L23,8 L34,8 L34,1 L23,1 Z" id="Rectangle-32" stroke-linecap="round" stroke-linejoin="round" transform="translate(28.500000, 4.500000) scale(-1, -1) translate(-28.500000, -4.500000) "/>
                <path d="M41,8 L41,35.4951209 C41,38.5353817 43.4686147,41 46.5,41 L46.5,41 C49.5375661,41 52,38.5465967 52,35.4951209 L52,8 L41,8 Z" id="Rectangle-35" stroke-linecap="round" stroke-linejoin="round" fill="#81A4E3"/>
                <path d="M41,1 L41,8 L52,8 L52,1 L41,1 Z" id="Rectangle-34" stroke-linecap="round" stroke-linejoin="round" transform="translate(46.500000, 4.500000) scale(-1, -1) translate(-46.500000, -4.500000) "/>
                <path d="M0,17 L4.5,17" id="Line" stroke-linecap="square"/>
                <path d="M52,17 L56,17" id="Line-46" stroke-linecap="square"/>
                <path d="M16,17 L23,17" id="Line-44" stroke-linecap="square"/>
                <path d="M3,1 L18,1" id="Line-47" stroke-linecap="square"/>
                <path d="M21,1 L36,1" id="Line-48" stroke-linecap="square"/>
                <path d="M39,1 L54,1" id="Line-49" stroke-linecap="square"/>
                <path d="M34,17 L41,17" id="Line-45" stroke-linecap="square"/>
            </g>
        </g>
    </g>
</svg>
