<?xml version="1.0" encoding="UTF-8" standalone="no"?>
<svg xmlns="http://www.w3.org/2000/svg" xmlns:xlink="http://www.w3.org/1999/xlink" xmlns:sketch="http://www.bohemiancoding.com/sketch/ns" width="60px" height="60px" viewBox="0 0 60 60" version="1.1">
  <!-- Generator: Sketch 3.2.2 (9983) - http://www.bohemiancoding.com/sketch -->
  <title>Analyzeloop</title>
  <desc>Created with Sketch.</desc>
  <g id="colored" stroke="none" stroke-width="1" fill="none" fill-rule="evenodd" sketch:type="MSPage">
        <g id="Science_sliced" sketch:type="MSLayerGroup" transform="translate(-480.000000, 0.000000)"/>
        <g id="Science" sketch:type="MSLayerGroup" transform="translate(-476.000000, 2.000000)" stroke="#314E55" stroke-width="2">
            <g id="Analyzeloop" transform="translate(479.000000, 2.000000)" sketch:type="MSShapeGroup">
                <path d="M35.5,35 C45.1649831,35 53,27.1649831 53,17.5 C53,7.83501688 45.1649831,0 35.5,0 C25.8350169,0 18,7.83501688 18,17.5 C18,27.1649831 25.8350169,35 35.5,35 Z M35.5,31 C42.9558441,31 49,24.9558441 49,17.5 C49,10.0441559 42.9558441,4 35.5,4 C28.0441559,4 22,10.0441559 22,17.5 C22,24.9558441 28.0441559,31 35.5,31 Z" id="Oval-96" stroke-linecap="round" stroke-linejoin="round" fill="#81A4E3"/>
                <g id="Line-+-Rectangle-35" transform="translate(12.500000, 41.500000) rotate(-315.000000) translate(-12.500000, -41.500000) translate(10.000000, 27.000000)">
                    <path d="M2.29289322,-0.485281374 L2.6267789,16.6461814" id="Line" stroke-linecap="square"/>
                    <rect id="Rectangle-35" stroke-linecap="round" stroke-linejoin="round" fill="#F28544" x="1.42108547e-14" y="17" width="5" height="12"/>
                </g>
                <path d="M31.7844788,10.7399648 C31.7844788,10.7399648 35.518712,7.78566639 38.1031323,10.2915023 C40.6875526,12.7973383 40.9457583,11.076164 40.9457583,11.076164" id="Path-103" stroke-linecap="round"/>
                <path d="M45.8914592,16.8539155 C45.8914592,16.8539155 41.6697667,18.452191 41.7424425,21.2664557" id="Path-104" stroke-linecap="round"/>
                <path d="M26.2510778,16.7430993 C26.2510778,16.7430993 30.5566723,18.706526 30.1418888,23.0227561" id="Path-105" stroke-linecap="round"/>
                <path d="M33.2474474,26.6270002 C33.2474474,26.6270002 38.0357743,24.0089009 36.2023367,20.7568092" id="Path-106" stroke-linecap="round"/>
            </g>
        </g>
    </g>
</svg>
