<?xml version="1.0" encoding="UTF-8" standalone="no"?>
<svg xmlns="http://www.w3.org/2000/svg" xmlns:xlink="http://www.w3.org/1999/xlink" xmlns:sketch="http://www.bohemiancoding.com/sketch/ns" width="60px" height="60px" viewBox="0 0 60 60" version="1.1">
  <!-- Generator: Sketch 3.2.2 (9983) - http://www.bohemiancoding.com/sketch -->
  <title>Moviescene</title>
  <desc>Created with Sketch.</desc>
  <g id="colored" stroke="none" stroke-width="1" fill="none" fill-rule="evenodd" sketch:type="MSPage">
        <g id="Photo_sliced" sketch:type="MSLayerGroup" transform="translate(-720.000000, 0.000000)"/>
        <g id="Photo" sketch:type="MSLayerGroup" transform="translate(-714.000000, 3.000000)" stroke="#314E55" stroke-width="2" stroke-linejoin="round">
            <g id="Moviescene" transform="translate(717.000000, 5.000000)" sketch:type="MSShapeGroup">
                <rect id="Rectangle-2541" stroke-linecap="round" fill="#E9E7D1" x="2" y="25" width="50" height="23"/>
                <rect id="Rectangle-2541" stroke-linecap="round" fill="#73C9C9" x="2" y="17" width="50" height="8"/>
                <path d="M6,17 L8.5,25" id="Path-5681" stroke-linecap="round" fill="#D8D8D8"/>
                <path d="M16,17 L18.5,25" id="Path-5682" stroke-linecap="round" fill="#D8D8D8"/>
                <path d="M26,17 L28.5,25" id="Path-5683" stroke-linecap="round" fill="#D8D8D8"/>
                <path d="M36,17 L38.5,25" id="Path-5684" stroke-linecap="round" fill="#D8D8D8"/>
                <g id="Group" transform="translate(26.109702, 7.560702) rotate(-5.000000) translate(-26.109702, -7.560702) translate(0.609702, 3.060702)" stroke-linecap="round">
                    <rect id="Rectangle-2542" fill="#F28544" x="1" y="1.53210777e-12" width="50" height="8"/>
                    <path d="M5,3.36086714e-12 L7.5,8" id="Path-5686"/>
                    <path d="M15,6.78568313e-13 L17.5,8" id="Path-5687"/>
                    <path d="M25,1.61914926e-12 L27.5,8" id="Path-5688"/>
                    <path d="M35,2.56061838e-12 L37.5,8" id="Path-5689"/>
                    <path d="M45,3.50119933e-12 L47.5,8" id="Path-5690"/>
                </g>
                <path d="M46,17 L48.5,25" id="Path-5685" stroke-linecap="round" fill="#D8D8D8"/>
                <path d="M6,29 L25,29" id="Line" stroke-linecap="square" fill="#D8D8D8"/>
                <path d="M6,32 L25,32" id="Line" stroke-linecap="square" fill="#D8D8D8"/>
                <path d="M6,40 L48,40" id="Line" stroke-linecap="square"/>
                <path d="M12,40 L12,44" id="Line" stroke-linecap="square"/>
                <path d="M22,40 L22,44" id="Line-417" stroke-linecap="square"/>
                <path d="M32,40 L32,44" id="Line-418" stroke-linecap="square"/>
                <path d="M42,40 L42,44" id="Line-419" stroke-linecap="square"/>
            </g>
        </g>
    </g>
</svg>
