<?xml version="1.0" encoding="UTF-8" standalone="no"?>
<svg xmlns="http://www.w3.org/2000/svg" xmlns:xlink="http://www.w3.org/1999/xlink" xmlns:sketch="http://www.bohemiancoding.com/sketch/ns" width="60px" height="60px" viewBox="0 0 60 60" version="1.1">
  <!-- Generator: Sketch 3.2.2 (9983) - http://www.bohemiancoding.com/sketch -->
  <title>Browsercode</title>
  <desc>Created with Sketch.</desc>
  <g id="colored" stroke="none" stroke-width="1" fill="none" fill-rule="evenodd" sketch:type="MSPage">
        <g id="Tech_sliced" sketch:type="MSLayerGroup" transform="translate(-840.000000, 0.000000)"/>
        <g id="Tech" sketch:type="MSLayerGroup" transform="translate(-838.000000, 7.000000)" stroke-linecap="round" stroke="#314E55" stroke-width="2">
            <g id="Browsercode" transform="translate(840.000000, 0.000000)" sketch:type="MSShapeGroup">
                <rect id="Rectangle-435" fill="#EAEAEA" x="0" y="8" width="56" height="38"/>
                <rect id="Rectangle-436" fill="#F28544" x="0" y="0" width="56" height="8"/>
                <circle id="Oval-475" cx="4" cy="4" r="1"/>
                <circle id="Oval-476" cx="9" cy="4" r="1"/>
                <circle id="Oval-477" cx="14" cy="4" r="1"/>
                <rect id="Rectangle-459" x="7" y="14" width="8" height="11" rx="2"/>
                <rect id="Rectangle-459" x="29.0018986" y="14" width="8" height="11" rx="2"/>
                <rect id="Rectangle-459" x="36.0037973" y="29.992017" width="8" height="11" rx="2"/>
                <rect id="Rectangle-459" x="7" y="29.992017" width="8" height="11" rx="2"/>
                <path d="M21.0018986,14 C22.1054196,14 23,14.9001762 23,15.992017 L23,25.007983" id="Rectangle-459"/>
                <path d="M28.0037973,29.992017 C29.1073182,29.992017 30.0018986,30.8921932 30.0018986,31.984034 L30.0018986,41" id="Rectangle-459"/>
                <path d="M21.0018986,29.992017 C22.1054196,29.992017 23,30.8921932 23,31.984034 L23,41" id="Rectangle-459"/>
                <path d="M43.0037973,14 C44.1073182,14 45.0018986,14.9001762 45.0018986,15.992017 L45.0018986,25.007983" id="Rectangle-459"/>
            </g>
        </g>
    </g>
</svg>
