<?xml version="1.0" encoding="UTF-8" standalone="no"?>
<svg xmlns="http://www.w3.org/2000/svg" xmlns:xlink="http://www.w3.org/1999/xlink" xmlns:sketch="http://www.bohemiancoding.com/sketch/ns" width="60px" height="60px" viewBox="0 0 60 60" version="1.1">
  <!-- Generator: Sketch 3.2.2 (9983) - http://www.bohemiancoding.com/sketch -->
  <title>Solarsystem</title>
  <desc>Created with Sketch.</desc>
  <g id="colored" stroke="none" stroke-width="1" fill="none" fill-rule="evenodd" sketch:type="MSPage">
        <g id="Science_sliced" sketch:type="MSLayerGroup"/>
        <g id="Science" sketch:type="MSLayerGroup" transform="translate(4.000000, 2.000000)" stroke-linecap="round" stroke="#314E55" stroke-width="2">
            <g id="Solarsystem" transform="translate(0.000000, 2.000000)" sketch:type="MSShapeGroup">
                <path d="M43.1094143,42.830573 C47.3708904,38.4989388 50,32.5565001 50,26 C50,12.745166 39.254834,2 26,2 C12.745166,2 2,12.745166 2,26 C2,39.254834 12.745166,50 26,50 C29.0761058,50 31.8407372,49.4934031 34.5072847,48.4537478" id="Oval-88" stroke-linejoin="round"/>
                <path d="M37.6021977,16.4919886 C34.8512638,13.1390899 30.6754375,11 26,11 C17.7157288,11 11,17.7157288 11,26 C11,34.2842712 17.7157288,41 26,41 C34.2842712,41 41,34.2842712 41,26 C41,25.1914643 40.9369865,24.8213916 40.8138298,24.0475237" id="Oval-89" stroke-linejoin="round"/>
                <circle id="Oval-92" stroke-linejoin="round" fill="#A07FD6" cx="39" cy="46" r="5"/>
                <circle id="Oval-95" stroke-linejoin="round" fill="#5ECC66" cx="39.5" cy="20.5" r="3.5"/>
                <circle id="Oval-90" stroke-linejoin="round" fill="#E5D85A" cx="26" cy="26" r="7"/>
                <path d="M45.5,6.5 L51.5,0.5" id="Line"/>
                <path d="M0.5,51.5 L6.5,45.5" id="Line-43"/>
            </g>
        </g>
    </g>
</svg>
