<?xml version="1.0" encoding="UTF-8" standalone="no"?>
<svg xmlns="http://www.w3.org/2000/svg" xmlns:xlink="http://www.w3.org/1999/xlink" xmlns:sketch="http://www.bohemiancoding.com/sketch/ns" width="60px" height="60px" viewBox="0 0 60 60" version="1.1">
  <!-- Generator: Sketch 3.2.2 (9983) - http://www.bohemiancoding.com/sketch -->
  <title>Groom</title>
  <desc>Created with Sketch.</desc>
  <g id="colored" stroke="none" stroke-width="1" fill="none" fill-rule="evenodd" sketch:type="MSPage">
        <g id="Care_sliced" sketch:type="MSLayerGroup"/>
        <g id="Care" sketch:type="MSLayerGroup" transform="translate(3.000000, -4.000000)" stroke="#314E55" stroke-width="2" stroke-linecap="round" stroke-linejoin="round">
            <g id="Groom" transform="translate(0.000000, 10.000000)" sketch:type="MSShapeGroup">
                <rect id="Rectangle-1231" fill="#EA86A5" x="21" y="7" width="14" height="15" rx="4"/>
                <path d="M35,11.0000202 C35,8.79087006 36.6653879,6.36556651 38.7301809,5.5789787 L47.4584961,2.25390625 C52.1758384,0.456823451 56,3.08458631 56,8.15426949 L56,20.8457305 C56,25.9014939 52.1726947,28.5419789 47.4584961,26.7460938 L38.7301809,23.4210213 C36.6700589,22.6362129 35,20.2055487 35,17.9999798 L35,11.0000202 Z" id="Rectangle-1232" fill="#EA86A5"/>
                <path d="M0,11.0000202 C0,8.79087006 1.66538792,6.36556651 3.73018091,5.5789787 L12.4584961,2.25390625 C17.1758384,0.456823451 21,3.08458631 21,8.15426949 L21,20.8457305 C21,25.9014939 17.1726947,28.5419789 12.4584961,26.7460938 L3.73018091,23.4210213 C1.67005888,22.6362129 0,20.2055487 0,17.9999798 L0,11.0000202 Z" id="Rectangle-1232" fill="#EA86A5" transform="translate(10.500000, 14.500753) scale(-1, 1) translate(-10.500000, -14.500753) "/>
                <path d="M35,13.2335965 C35,13.2335965 37.2239263,9.78674297 41.4264115,11.8436732" id="Path-2390"/>
                <path d="M14,13.2335965 C14,13.2335965 16.2239263,9.78674297 20.4264115,11.8436732" id="Path-2390" transform="translate(17.213206, 12.211268) scale(-1, 1) translate(-17.213206, -12.211268) "/>
                <path d="M35,18 C35,18 37.2239263,14.5531465 41.4264115,16.6100767" id="Path-2390" transform="translate(38.213206, 16.977671) scale(1, -1) translate(-38.213206, -16.977671) "/>
                <path d="M14,18.0446575 C14,18.0446575 16.2239263,14.5978039 20.4264115,16.6547342" id="Path-2390" transform="translate(17.213206, 17.022329) scale(-1, -1) translate(-17.213206, -17.022329) "/>
                <path d="M33.301659,7.79905443 L22.6735802,20.7740828" id="Path-2394"/>
                <circle id="Oval-1003" fill="#D8D8D8" cx="20" cy="36.5472087" r="5"/>
                <circle id="Oval-1003" fill="#D8D8D8" cx="33.4264115" cy="42.5472087" r="5"/>
                <ellipse id="Oval-1004" cx="20" cy="36.5472087" rx="1" ry="1"/>
                <ellipse id="Oval-1004" cx="33.4264115" cy="42.5472087" rx="1" ry="1"/>
            </g>
        </g>
    </g>
</svg>
