<?xml version="1.0" encoding="UTF-8" standalone="no"?>
<svg xmlns="http://www.w3.org/2000/svg" xmlns:xlink="http://www.w3.org/1999/xlink" xmlns:sketch="http://www.bohemiancoding.com/sketch/ns" width="60px" height="60px" viewBox="0 0 60 60" version="1.1">
  <!-- Generator: Sketch 3.2.2 (9983) - http://www.bohemiancoding.com/sketch -->
  <title>Comb</title>
  <desc>Created with Sketch.</desc>
  <g id="colored" stroke="none" stroke-width="1" fill="none" fill-rule="evenodd" sketch:type="MSPage">
        <g id="Care_sliced" sketch:type="MSLayerGroup" transform="translate(-840.000000, 0.000000)"/>
        <g id="Care" sketch:type="MSLayerGroup" transform="translate(-837.000000, -4.000000)" stroke="#314E55" stroke-width="2" stroke-linejoin="round">
            <g id="Comb" transform="translate(867.362175, 34.362175) rotate(-45.000000) translate(-867.362175, -34.362175) translate(855.862175, 4.362175)" sketch:type="MSShapeGroup">
                <rect id="Rectangle-1234" stroke-linecap="round" fill="#DBCF56" x="4" y="1" width="19" height="57" rx="3"/>
                <path d="M22,7 L10,7" id="Line" stroke-linecap="square"/>
                <path d="M22,12 L10,12" id="Line" stroke-linecap="square"/>
                <path d="M22,17 L10,17" id="Line" stroke-linecap="square"/>
                <path d="M22,22 L10,22" id="Line" stroke-linecap="square"/>
                <path d="M22,27 L10,27" id="Line" stroke-linecap="square"/>
                <path d="M22,32 L10,32" id="Line-279" stroke-linecap="square"/>
                <path d="M22,37 L10,37" id="Line-275" stroke-linecap="square"/>
                <path d="M22,42 L10,42" id="Line-276" stroke-linecap="square"/>
                <path d="M22,47 L10,47" id="Line-277" stroke-linecap="square"/>
                <path d="M22,52 L10,52" id="Line-278" stroke-linecap="square"/>
                <rect id="Rectangle-1235" stroke-linecap="round" x="5.68434189e-13" y="1.25055521e-12" width="5" height="59"/>
            </g>
        </g>
    </g>
</svg>
