<?xml version="1.0" encoding="UTF-8" standalone="no"?>
<svg xmlns="http://www.w3.org/2000/svg" xmlns:xlink="http://www.w3.org/1999/xlink" xmlns:sketch="http://www.bohemiancoding.com/sketch/ns" width="60px" height="60px" viewBox="0 0 60 60" version="1.1">
  <!-- Generator: Sketch 3.2.2 (9983) - http://www.bohemiancoding.com/sketch -->
  <title>POS</title>
  <desc>Created with Sketch.</desc>
  <g id="colored" stroke="none" stroke-width="1" fill="none" fill-rule="evenodd" sketch:type="MSPage">
        <g id="Marketing_sliced" sketch:type="MSLayerGroup" transform="translate(-360.000000, -120.000000)"/>
        <g id="Marketing" sketch:type="MSLayerGroup" transform="translate(-352.000000, -120.000000)" stroke="#314E55" stroke-width="2" stroke-linejoin="round">
            <g id="POS" transform="translate(355.000000, 127.000000)" sketch:type="MSShapeGroup">
                <rect id="Rectangle-1604" stroke-linecap="round" fill="#D8D8D8" x="0" y="0" width="30" height="45"/>
                <path d="M33,0 L33,45.011364" id="Line" stroke-linecap="round"/>
                <rect id="Rectangle-1605" stroke-linecap="round" fill="#D8D8D8" x="36" y="22" width="19" height="26"/>
                <rect id="Rectangle-1606" stroke-linecap="round" fill="#D8D8D8" x="4" y="7" width="22" height="8"/>
                <rect id="Rectangle-1607" stroke-linecap="round" fill="#D8D8D8" x="48" y="28" width="1" height="1"/>
                <path d="M41,27 L41,32" id="Line" stroke-linecap="square"/>
                <path d="M41,35 L41,38" id="Line" stroke-linecap="square"/>
                <rect id="Rectangle-1608" stroke-linecap="round" fill="#D8D8D8" x="5" y="18" width="4" height="4"/>
                <rect id="Rectangle-1609" stroke-linecap="round" fill="#D8D8D8" x="13" y="18" width="4" height="4"/>
                <rect id="Rectangle-1610" stroke-linecap="round" fill="#D8D8D8" x="21" y="18" width="4" height="4"/>
                <rect id="Rectangle-1613" stroke-linecap="round" fill="#D8D8D8" x="5" y="26" width="4" height="4"/>
                <rect id="Rectangle-1611" stroke-linecap="round" fill="#D8D8D8" x="13" y="26" width="4" height="4"/>
                <rect id="Rectangle-1612" stroke-linecap="round" fill="#D8D8D8" x="21" y="26" width="4" height="4"/>
                <rect id="Rectangle-1616" stroke-linecap="round" fill="#D8D8D8" x="5" y="34" width="4" height="4"/>
                <rect id="Rectangle-1614" stroke-linecap="round" fill="#D8D8D8" x="13" y="34" width="4" height="4"/>
                <rect id="Rectangle-1615" stroke-linecap="round" fill="#D8D8D8" x="21" y="34" width="4" height="4"/>
            </g>
        </g>
    </g>
</svg>
