<?xml version="1.0" encoding="UTF-8" standalone="no"?>
<svg xmlns="http://www.w3.org/2000/svg" xmlns:xlink="http://www.w3.org/1999/xlink" xmlns:sketch="http://www.bohemiancoding.com/sketch/ns" width="60px" height="60px" viewBox="0 0 60 60" version="1.1">
  <!-- Generator: Sketch 3.2.2 (9983) - http://www.bohemiancoding.com/sketch -->
  <title>Movierollsmall</title>
  <desc>Created with Sketch.</desc>
  <g id="colored" stroke="none" stroke-width="1" fill="none" fill-rule="evenodd" sketch:type="MSPage">
        <g id="Photo_sliced" sketch:type="MSLayerGroup" transform="translate(-600.000000, 0.000000)"/>
        <g id="Photo" sketch:type="MSLayerGroup" transform="translate(-594.000000, 3.000000)" stroke="#314E55" stroke-width="2" stroke-linecap="round" stroke-linejoin="round">
            <g id="Movierollsmall" transform="translate(597.000000, 7.000000)" sketch:type="MSShapeGroup">
                <path d="M20.5,41 C31.8218374,41 41,31.8218374 41,20.5 C41,9.17816263 31.8218374,0 20.5,0 C9.17816263,0 0,9.17816263 0,20.5 C0,31.8218374 9.17816263,41 20.5,41 Z M20.5,11 C22.4329966,11 24,9.43299662 24,7.5 C24,5.56700338 22.4329966,4 20.5,4 C18.5670034,4 17,5.56700338 17,7.5 C17,9.43299662 18.5670034,11 20.5,11 Z M27.9437984,14.5972539 C29.1602726,16.0994745 31.3642101,16.3311176 32.8664306,15.1146434 C34.3686512,13.8981692 34.6002943,11.6942317 33.3838201,10.1920112 C32.1673459,8.68979069 29.9634084,8.45814752 28.4611879,9.67462171 C26.9589674,10.8910959 26.7273242,13.0950334 27.9437984,14.5972539 Z M29.7637676,22.6054435 C29.328938,24.4888975 30.5032801,26.3682377 32.3867342,26.8030674 C34.2701882,27.237897 36.1495285,26.0635549 36.5843581,24.1801008 C37.0191877,22.2966468 35.8448456,20.4173065 33.9613915,19.9824769 C32.0779375,19.5476473 30.1985973,20.7219894 29.7637676,22.6054435 Z M24.6061896,29.0668161 C22.8688237,29.9141861 22.1473395,32.0095284 22.9947094,33.7468943 C23.8420794,35.4842602 25.9374218,36.2057444 27.6747876,35.3583744 C29.4121535,34.5110045 30.1336377,32.4156621 29.2862678,30.6782963 C28.4388978,28.9409304 26.3435555,28.2194462 24.6061896,29.0668161 Z M16.3938104,29.0668161 C14.6564445,28.2194462 12.5611022,28.9409304 11.7137322,30.6782963 C10.8663623,32.4156621 11.5878465,34.5110045 13.3252124,35.3583744 C15.0625782,36.2057444 17.1579206,35.4842602 18.0052906,33.7468943 C18.8526605,32.0095284 18.1311763,29.9141861 16.3938104,29.0668161 Z M11.2362324,22.6054435 C10.8014027,20.7219894 8.9220625,19.5476473 7.03860845,19.9824769 C5.15515441,20.4173065 3.98081229,22.2966468 4.41564191,24.1801008 C4.85047154,26.0635549 6.72981179,27.237897 8.61326583,26.8030674 C10.4967199,26.3682377 11.671062,24.4888975 11.2362324,22.6054435 Z M13.0562016,14.5972539 C14.2726758,13.0950334 14.0410326,10.8910959 12.5388121,9.67462171 C11.0365916,8.45814752 8.83265405,8.68979069 7.61617986,10.1920112 C6.39970567,11.6942317 6.63134884,13.8981692 8.13356936,15.1146434 C9.63578988,16.3311176 11.8397274,16.0994745 13.0562016,14.5972539 Z" id="Oval-1869" fill="#E4AD40"/>
                <path d="M38.5,31.5 C38.5,31.5 42,42 51,41" id="Path-5680"/>
            </g>
        </g>
    </g>
</svg>
