<?xml version="1.0" encoding="UTF-8" standalone="no"?>
<svg xmlns="http://www.w3.org/2000/svg" xmlns:xlink="http://www.w3.org/1999/xlink" xmlns:sketch="http://www.bohemiancoding.com/sketch/ns" width="60px" height="60px" viewBox="0 0 60 60" version="1.1">
  <!-- Generator: Sketch 3.2.2 (9983) - http://www.bohemiancoding.com/sketch -->
  <title>Spaceship</title>
  <desc>Created with Sketch.</desc>
  <g id="colored" stroke="none" stroke-width="1" fill="none" fill-rule="evenodd" sketch:type="MSPage">
        <g id="Science_sliced" sketch:type="MSLayerGroup" transform="translate(-360.000000, 0.000000)"/>
        <g id="Science" sketch:type="MSLayerGroup" transform="translate(-356.000000, 2.000000)" stroke="#314E55" stroke-width="2" stroke-linecap="round" stroke-linejoin="round">
            <g id="Spaceship" transform="translate(363.000000, 3.000000)" sketch:type="MSShapeGroup">
                <rect id="Rectangle-34" fill="#C4D455" x="17" y="0" width="13" height="46"/>
                <polygon id="Triangle-6" fill="#D8D8D8" points="17.5 46 21 53 14 53 "/>
                <polygon id="Triangle-7" fill="#D8D8D8" points="29.5 46 33 53 26 53 "/>
                <path d="M17.0802249,42.0114964 L0.321008484,42.0114964 L16.8766554,27.4558495 L17.0802249,42.0114964 Z" id="Path-100" fill="#E5D85A"/>
                <path d="M47.0802249,42.0114964 L30.3210085,42.0114964 L46.8766554,27.4558495 L47.0802249,42.0114964 Z" id="Path-101" fill="#E5D85A" transform="translate(38.500000, 34.500000) scale(-1, 1) translate(-38.500000, -34.500000) "/>
                <path d="M27,7.5 C27,5.56700338 25.4329966,4 23.5,4 C21.5670034,4 20,5.56700338 20,7.5 C20,9.43299662 27,9.43299662 27,7.5 Z" id="Oval-95" fill="#D26CBA"/>
            </g>
        </g>
    </g>
</svg>
