<?xml version="1.0" encoding="UTF-8" standalone="no"?>
<svg xmlns="http://www.w3.org/2000/svg" xmlns:xlink="http://www.w3.org/1999/xlink" xmlns:sketch="http://www.bohemiancoding.com/sketch/ns" width="60px" height="60px" viewBox="0 0 60 60" version="1.1">
  <!-- Generator: Sketch 3.2.2 (9983) - http://www.bohemiancoding.com/sketch -->
  <title>Billpaid</title>
  <desc>Created with Sketch.</desc>
  <g id="colored" stroke="none" stroke-width="1" fill="none" fill-rule="evenodd" sketch:type="MSPage">
        <g id="Marketing_sliced" sketch:type="MSLayerGroup" transform="translate(-600.000000, -120.000000)"/>
        <g id="Marketing" sketch:type="MSLayerGroup" transform="translate(-592.000000, -120.000000)" stroke="#314E55" stroke-width="2" stroke-linecap="round" stroke-linejoin="round">
            <g id="Billpaid" transform="translate(603.000000, 126.000000)" sketch:type="MSShapeGroup">
                <path d="M19.5,6 L22.5,0 L25.5,6 L25.5,6 L28.5,0 L31.5,6 L34.5,0 L37.5,6 L38,6 L38,50 L0,50 L0,6 L0.5,6 L3.5,0 L6.5,6 L6.5,6 L9.5,0 L12.5,6 L15.5,0 L18.5,6 L19.5,6 Z" id="Triangle-45" fill="#EAEAEA"/>
                <path d="M18,18 L32,18" id="Line"/>
                <path d="M18,23 L32,23" id="Line"/>
                <path d="M18,28 L32,28" id="Line"/>
                <path d="M18,33 L32,33" id="Line"/>
                <path d="M4.80704028,30.5158397 L9.07007623,32.5567267 L13.333113,20.8023597" id="Path-3636"/>
                <rect id="Rectangle-1622" fill="#D8D8D8" x="17" y="37" width="16" height="6"/>
            </g>
        </g>
    </g>
</svg>
