<?xml version="1.0" encoding="UTF-8" standalone="no"?>
<svg xmlns="http://www.w3.org/2000/svg" xmlns:xlink="http://www.w3.org/1999/xlink" xmlns:sketch="http://www.bohemiancoding.com/sketch/ns" width="60px" height="60px" viewBox="0 0 60 60" version="1.1">
  <!-- Generator: Sketch 3.2.2 (9983) - http://www.bohemiancoding.com/sketch -->
  <title>Weddingday</title>
  <desc>Created with Sketch.</desc>
  <g id="colored" stroke="none" stroke-width="1" fill="none" fill-rule="evenodd" sketch:type="MSPage">
        <g id="Holidays_sliced" sketch:type="MSLayerGroup" transform="translate(-240.000000, 0.000000)"/>
        <g id="Holidays" sketch:type="MSLayerGroup" transform="translate(-235.000000, 3.000000)" stroke="#314E55" stroke-width="2" stroke-linecap="round" stroke-linejoin="round">
            <g id="Weddingday" transform="translate(241.000000, 7.000000)" sketch:type="MSShapeGroup">
                <path d="M19,4 L29,4 L29,4.99781374 C29,7.77101511 31.2385763,10 34,10 C36.7558048,10 39,7.76044493 39,4.99781374 L39,4 L44.997385,4 C46.6556835,4 48,5.34230941 48,7.0065012 L48,40.9934988 C48,42.6539436 46.6661074,44 44.997385,44 L3.00261497,44 C1.34431651,44 0,42.6576906 0,40.9934988 L0,7.0065012 C0,5.34605644 1.33389258,4 3.00261497,4 L9,4 L9,4.99781374 C9,7.77101511 11.2385763,10 14,10 C16.7558048,10 19,7.76044493 19,4.99781374 L19,4 Z" id="Rectangle-1907" fill="#81A4E3"/>
                <rect id="Rectangle-1911" fill="#D8D8D8" x="12" y="0" width="4" height="7" rx="3"/>
                <rect id="Rectangle-1912" fill="#D8D8D8" x="32" y="0" width="4" height="7" rx="3"/>
                <rect id="Rectangle-1910" fill="#D8D8D8" x="4" y="14" width="40" height="27"/>
                <path d="M18.9914244,20.7429055 C16.4134132,21.7325112 15.4466498,25.4605926 16.8320979,29.0698082 C18.2160101,32.675023 23.8586375,35.3105831 23.8586375,35.3105831 C23.8586375,35.3105831 29.7839899,32.675023 31.1679021,29.0698082 C32.5533502,25.4605926 31.5865868,21.7325112 29.0085756,20.7429055 C27.3859347,20.120032 25.5117266,20.7305046 24,22.1684737 C24,22.1684737 20.6140653,20.120032 18.9914244,20.7429055 Z" id="Oval-1691" fill="#E65F58"/>
            </g>
        </g>
    </g>
</svg>
