<?xml version="1.0" encoding="UTF-8" standalone="no"?>
<svg xmlns="http://www.w3.org/2000/svg" xmlns:xlink="http://www.w3.org/1999/xlink" xmlns:sketch="http://www.bohemiancoding.com/sketch/ns" width="60px" height="60px" viewBox="0 0 60 60" version="1.1">
  <!-- Generator: Sketch 3.2.2 (9983) - http://www.bohemiancoding.com/sketch -->
  <title>Hearts</title>
  <desc>Created with Sketch.</desc>
  <g id="colored" stroke="none" stroke-width="1" fill="none" fill-rule="evenodd" sketch:type="MSPage">
        <g id="Holidays_sliced" sketch:type="MSLayerGroup" transform="translate(-120.000000, 0.000000)"/>
        <g id="Holidays" sketch:type="MSLayerGroup" transform="translate(-115.000000, 3.000000)" stroke="#314E55" stroke-width="2" stroke-linecap="round" stroke-linejoin="round">
            <g id="Hearts" transform="translate(116.000000, 0.000000)" sketch:type="MSShapeGroup">
                <path d="M40.0497458,40.78164 C44.1950002,37.571933 49.0759317,33.2646519 51.3789493,29.2757084 C56.003041,21.2665467 54.9344372,11.9926435 48.9921559,8.56186582 C44.2390377,5.81765173 37.8074066,7.64314493 33.057096,12.5825376 C28.3067855,7.64314493 21.8751543,5.81765173 17.1220361,8.56186582 C11.5060028,11.8042842 10.2431806,20.2658331 14.0249591,27.9462713" id="Oval-1692" fill="#73C9C9" transform="translate(33.057096, 24.032496) rotate(24.000000) translate(-33.057096, -24.032496) "/>
                <path d="M7.22453172,19.6567982 C2.14506398,22.5894302 1.23162041,30.5167717 5.18429842,37.3630108 C8.9606641,43.903868 20.8458355,51.4460537 20.8458355,51.4460537 C20.8458355,51.4460537 32.7310085,43.903868 36.5073741,37.3630108 C40.4600522,30.5167717 39.5466086,22.5894302 34.4671409,19.6567982 C30.4041708,17.3110413 24.9064063,18.8714747 20.8458363,23.0936723 C16.7852662,18.8714747 11.2875018,17.3110413 7.22453172,19.6567982 Z" id="Oval-1692" fill="#E65F58" transform="translate(20.845836, 35.004988) rotate(-7.000000) translate(-20.845836, -35.004988) "/>
            </g>
        </g>
    </g>
</svg>
