<?xml version="1.0" encoding="UTF-8" standalone="no"?>
<svg xmlns="http://www.w3.org/2000/svg" xmlns:xlink="http://www.w3.org/1999/xlink" xmlns:sketch="http://www.bohemiancoding.com/sketch/ns" width="60px" height="60px" viewBox="0 0 60 60" version="1.1">
  <!-- Generator: Sketch 3.2.2 (9983) - http://www.bohemiancoding.com/sketch -->
  <title>Paperdesk</title>
  <desc>Created with Sketch.</desc>
  <g id="colored" stroke="none" stroke-width="1" fill="none" fill-rule="evenodd" sketch:type="MSPage">
        <g id="Marketing_sliced" sketch:type="MSLayerGroup" transform="translate(-480.000000, 0.000000)"/>
        <g id="Marketing" sketch:type="MSLayerGroup" transform="translate(-472.000000, 0.000000)" stroke="#314E55" stroke-width="2" stroke-linejoin="round">
            <g id="Papersdesk" transform="translate(475.000000, 6.000000)" sketch:type="MSShapeGroup">
                <rect id="Rectangle-1493" stroke-linecap="round" fill="#C59981" x="0" y="29" width="55" height="20"/>
                <path d="M20,34 L35,34" id="Line" stroke-linecap="square"/>
                <rect id="Rectangle-1494" stroke-linecap="round" fill="#EAEAEA" x="10" y="9" width="24" height="20"/>
                <path d="M37,6 L37,28.8266802 L13,28.8266802" id="Rectangle-1494" stroke-linecap="round" transform="translate(25.000000, 17.413340) scale(1, -1) translate(-25.000000, -17.413340) "/>
                <path d="M40,3 L40,28.9098058 L16,28.9098058" id="Rectangle-1494" stroke-linecap="round" transform="translate(28.000000, 15.954903) scale(1, -1) translate(-28.000000, -15.954903) "/>
                <path d="M43,0 L43,28.8638468 L19,28.8638468" id="Rectangle-1494" stroke-linecap="round" transform="translate(31.000000, 14.431923) scale(1, -1) translate(-31.000000, -14.431923) "/>
                <path d="M54.9083136,28.8929167 L50.2690171,19.7056894" id="Path-3383" stroke-linecap="round"/>
                <path d="M4.63929653,28.8929167 L0,19.7056894" id="Path-3383" stroke-linecap="round" transform="translate(2.319648, 24.299303) scale(-1, 1) translate(-2.319648, -24.299303) "/>
            </g>
        </g>
    </g>
</svg>
