<?xml version="1.0" encoding="UTF-8" standalone="no"?>
<svg xmlns="http://www.w3.org/2000/svg" xmlns:xlink="http://www.w3.org/1999/xlink" xmlns:sketch="http://www.bohemiancoding.com/sketch/ns" width="60px" height="60px" viewBox="0 0 60 60" version="1.1">
  <!-- Generator: Sketch 3.2.2 (9983) - http://www.bohemiancoding.com/sketch -->
  <title>Negativephoto</title>
  <desc>Created with Sketch.</desc>
  <g id="colored" stroke="none" stroke-width="1" fill="none" fill-rule="evenodd" sketch:type="MSPage">
        <g id="Photo_sliced" sketch:type="MSLayerGroup" transform="translate(-480.000000, 0.000000)"/>
        <g id="Photo" sketch:type="MSLayerGroup" transform="translate(-474.000000, 3.000000)" stroke="#314E55" stroke-width="2" stroke-linejoin="round">
            <g id="Negativephoto" transform="translate(482.000000, 1.000000)" sketch:type="MSShapeGroup">
                <rect id="Rectangle-2537" stroke-linecap="round" fill="#D8D8D8" x="36" y="0" width="8" height="53"/>
                <rect id="Rectangle-2537" stroke-linecap="round" fill="#D8D8D8" x="0" y="0" width="8" height="53"/>
                <path d="M40,4 L40,7" id="Line" stroke-linecap="square" fill="#D8D8D8"/>
                <path d="M4,4 L4,7" id="Line" stroke-linecap="square" fill="#D8D8D8"/>
                <path d="M40,11 L40,14" id="Line" stroke-linecap="square" fill="#D8D8D8"/>
                <path d="M4,11 L4,14" id="Line" stroke-linecap="square" fill="#D8D8D8"/>
                <path d="M40,18 L40,21" id="Line" stroke-linecap="square" fill="#D8D8D8"/>
                <path d="M4,18 L4,21" id="Line" stroke-linecap="square" fill="#D8D8D8"/>
                <path d="M40,25 L40,28" id="Line" stroke-linecap="square" fill="#D8D8D8"/>
                <path d="M4,25 L4,28" id="Line" stroke-linecap="square" fill="#D8D8D8"/>
                <path d="M40,32 L40,35" id="Line" stroke-linecap="square" fill="#D8D8D8"/>
                <path d="M4,32 L4,35" id="Line" stroke-linecap="square" fill="#D8D8D8"/>
                <path d="M40,39 L40,42" id="Line" stroke-linecap="square" fill="#D8D8D8"/>
                <path d="M4,39 L4,42" id="Line" stroke-linecap="square" fill="#D8D8D8"/>
                <path d="M40,46 L40,49" id="Line" stroke-linecap="square" fill="#D8D8D8"/>
                <path d="M4,46 L4,49" id="Line" stroke-linecap="square" fill="#D8D8D8"/>
                <rect id="Rectangle-2537" stroke-linecap="round" fill="#C59981" x="8" y="2" width="28" height="24"/>
                <rect id="Rectangle-2537" stroke-linecap="round" fill="#C59981" x="8" y="26" width="28" height="24"/>
            </g>
        </g>
    </g>
</svg>
