<?xml version="1.0" encoding="UTF-8" standalone="no"?>
<svg xmlns="http://www.w3.org/2000/svg" xmlns:xlink="http://www.w3.org/1999/xlink" xmlns:sketch="http://www.bohemiancoding.com/sketch/ns" width="60px" height="60px" viewBox="0 0 60 60" version="1.1">
  <!-- Generator: Sketch 3.2.2 (9983) - http://www.bohemiancoding.com/sketch -->
  <title>Noshave</title>
  <desc>Created with Sketch.</desc>
  <g id="colored" stroke="none" stroke-width="1" fill="none" fill-rule="evenodd" sketch:type="MSPage">
        <g id="Care_sliced" sketch:type="MSLayerGroup" transform="translate(-360.000000, 0.000000)"/>
        <g id="Care" sketch:type="MSLayerGroup" transform="translate(-357.000000, -4.000000)" stroke="#314E55" stroke-width="2" stroke-linecap="round" stroke-linejoin="round">
            <g id="Noshave" transform="translate(360.000000, 14.000000)" sketch:type="MSShapeGroup">
                <path d="M26.9398157,3.26078281 C28.4099299,2.20771931 29.9775226,1.28207619 31.626447,0.5 C34.7561752,4.57629227 39.6788042,7.2040195 45.2151718,7.2040195 C48.2728602,7.2040195 51.1433425,6.40249482 53.6279732,4.99809084 C51.1044869,11.3076015 44.9349926,15.764839 37.7244547,15.764839 C33.6368155,15.764839 29.88374,14.3324019 26.9398157,11.9421154 C23.9958914,14.3324019 20.2428158,15.764839 16.1551766,15.764839 C8.94463872,15.764839 2.77514441,11.3076015 0.251658105,4.99809084 C2.73628888,6.40249482 5.60677116,7.2040195 8.66445956,7.2040195 C14.2008271,7.2040195 19.1234561,4.57629227 22.2531843,0.5 C23.9021088,1.28207619 25.4697014,2.20771931 26.9398157,3.26078281 Z" id="Oval-1007" fill="#C59981"/>
                <path d="M31.7150897,20.4819196 C35.1342088,22.2610767 39.5068372,23.5731206 44.4184404,24.2094017 L44.4184404,24.2094017 C44.5624268,25.0507566 44.6372089,25.9134779 44.6372089,26.7923939 C44.6372089,35.8239879 36.7407615,43.1455414 27,43.1455414 C17.2592385,43.1455414 9.36279107,35.8239879 9.36279107,26.7923939 C9.36279107,25.9134779 9.43757317,25.0507566 9.58155964,24.2094017 L9.58155964,24.2094017 C14.4931628,23.5731206 18.8657912,22.2610767 22.2849103,20.4819196 C23.330626,21.958758 25.052732,22.9227914 27,22.9227914 C28.947268,22.9227914 30.669374,21.958758 31.7150897,20.4819196 Z" id="Oval-1007" fill="#C59981"/>
                <path d="M24,18 L30,18" id="Line"/>
            </g>
        </g>
    </g>
</svg>
