<?xml version="1.0" encoding="utf-8"?>
<!-- Generator: Adobe Illustrator 18.1.1, SVG Export Plug-In . SVG Version: 6.00 Build 0)  -->
<svg xmlns="http://www.w3.org/2000/svg" xmlns:xlink="http://www.w3.org/1999/xlink" version="1.1" id="Layer_1" x="0px" y="0px" viewBox="0 0 650 650" enable-background="new 0 0 650 650" xml:space="preserve">
  <path id="cloud" fill="#4A4A4A" d="M161.1,287.3c0,0-12.6-83.5,48-108.8c78.2-32.7,126.4,44.5,126.4,44.5s32.5-43.9,78.4-22.2  c64.4,30.4,36.3,86.6,36.3,86.6s49.4-13.3,67.9,24.6c16,32.8-1.2,60.9-1.2,60.9s69.1-0.4,69.1,55c0,32.3-31.7,44.4-46.8,46.8  c-20.8,3.3-371,9.4-401.4,0c-30.4-9.4-73.7-35.1-73.7-97.1C64,287.3,161.1,287.3,161.1,287.3z"/>
</svg>
