<?xml version="1.0" encoding="utf-8"?>
<!-- Generator: Adobe Illustrator 18.1.1, SVG Export Plug-In . SVG Version: 6.00 Build 0)  -->
<svg xmlns="http://www.w3.org/2000/svg" xmlns:xlink="http://www.w3.org/1999/xlink" version="1.1" id="Layer_1" x="0px" y="0px" viewBox="0 0 650 650" enable-background="new 0 0 650 650" xml:space="preserve">
  <g id="sunmark">
	<rect x="315.1" y="43.8" fill="#4A4A4A" width="19.8" height="176.8"/>
	<rect x="315.1" y="429.4" fill="#4A4A4A" width="19.8" height="176.8"/>
	<rect x="43.8" y="315.1" fill="#4A4A4A" width="176.8" height="19.8"/>
	<rect x="429.4" y="315.1" fill="#4A4A4A" width="176.8" height="19.8"/>
	
		<rect x="132.6" y="189.5" transform="matrix(0.7071 0.7071 -0.7071 0.7071 199.4702 -82.623)" fill="#4A4A4A" width="133.6" height="19.8"/>
	
		<rect x="383.7" y="440.6" transform="matrix(0.7071 0.7071 -0.7071 0.7071 450.5304 -186.6157)" fill="#4A4A4A" width="133.6" height="19.8"/>
	
		<rect x="440.6" y="132.6" transform="matrix(0.7071 0.7071 -0.7071 0.7071 273.0035 -260.1497)" fill="#4A4A4A" width="19.8" height="133.6"/>
	
		<rect x="189.5" y="383.7" transform="matrix(0.7071 0.7071 -0.7071 0.7071 376.9964 -9.0889)" fill="#4A4A4A" width="19.8" height="133.6"/>
	
		<rect x="216.4" y="166.7" transform="matrix(0.3617 0.9323 -0.9323 0.3617 335.3482 -136.5945)" fill="#4A4A4A" width="102.1" height="19.8"/>
	
		<rect x="331.5" y="463.5" transform="matrix(0.3617 0.9323 -0.9323 0.3617 685.5408 -54.5008)" fill="#4A4A4A" width="102.1" height="19.8"/>
	
		<rect x="257.5" y="422.4" transform="matrix(0.9323 0.3617 -0.3617 0.9323 189.3342 -64.6773)" fill="#4A4A4A" width="19.8" height="102.1"/>
	
		<rect x="372.7" y="125.6" transform="matrix(0.9323 0.3617 -0.3617 0.9323 89.7804 -126.4196)" fill="#4A4A4A" width="19.8" height="102.1"/>
	
		<rect x="126.3" y="255.1" transform="matrix(0.9277 0.3732 -0.3732 0.9277 111.7191 -47.0345)" fill="#4A4A4A" width="102.1" height="19.8"/>
	
		<rect x="421.6" y="373.9" transform="matrix(0.9277 0.3732 -0.3732 0.9277 177.4038 -148.6775)" fill="#4A4A4A" width="102.1" height="19.8"/>
	
		<rect x="464.2" y="217.7" transform="matrix(0.3501 0.9367 -0.9367 0.3501 559.783 -269.4782)" fill="#4A4A4A" width="19.8" height="102.1"/>
	
		<rect x="166" y="329.1" transform="matrix(0.3501 0.9367 -0.9367 0.3501 470.3944 82.2769)" fill="#4A4A4A" width="19.8" height="102.1"/>
	<path fill="#4A4A4A" d="M325,240.9c-46.4,0-84.1,37.6-84.1,84.1s37.6,84.1,84.1,84.1s84.1-37.6,84.1-84.1S371.4,240.9,325,240.9z    M325,388.7c-35.2,0-63.7-28.5-63.7-63.7c0-35.2,28.5-63.7,63.7-63.7c35.2,0,63.7,28.5,63.7,63.7   C388.7,360.2,360.2,388.7,325,388.7z"/>
</g>
</svg>
