<?xml version="1.0" encoding="utf-8"?>
<!-- Generator: Adobe Illustrator 18.1.1, SVG Export Plug-In . SVG Version: 6.00 Build 0)  -->
<svg xmlns="http://www.w3.org/2000/svg" xmlns:xlink="http://www.w3.org/1999/xlink" version="1.1" id="Layer_1" x="0px" y="0px" viewBox="0 0 650 650" enable-background="new 0 0 650 650" xml:space="preserve">
  <g>
	<path fill="#4A4A4A" d="M272.3,149.8c-104.9,0-189.9,67.7-189.9,151.2c0,39.1,18.6,74.7,49.1,101.5c-6.7,17.8-20.8,39.1-49.1,60.4   c0,0,76.1-3,104.1-27c25.8,10.4,54.9,16.3,85.7,16.3c104.9,0,189.9-67.7,189.9-151.2S377.1,149.8,272.3,149.8z"/>
	<path fill="#4A4A4A" d="M535.3,460.2c12.4-14.2,19.7-31.2,19.7-49.5c0-36.8-29.3-68.4-71.2-82.1c-2.8,14.6-7.9,28.9-15.1,42.5   c-11.1,20.9-26.9,39.7-47,55.6c-22.3,17.7-48.5,31-77.1,39.4c21.6,20.7,55,34,92.5,34c24.6,0,47.4-5.7,66.3-15.5   c22.3,12.3,64.3,13.9,64.3,13.9C549.7,485.2,540.2,471.7,535.3,460.2z"/>
</g>
</svg>
