<?xml version="1.0" encoding="utf-8"?>
<!-- Generator: Adobe Illustrator 18.1.1, SVG Export Plug-In . SVG Version: 6.00 Build 0)  -->
<svg xmlns="http://www.w3.org/2000/svg" xmlns:xlink="http://www.w3.org/1999/xlink" version="1.1" id="Layer_1" x="0px" y="0px" viewBox="0 0 650 650" enable-background="new 0 0 650 650" xml:space="preserve">
  <path id="eye" fill="#4A4A4A" d="M578.7,315.7c-1.2-1.3-28.8-32.4-73.7-63.7c-60-41.9-122.2-64.1-180-64.1S204.9,210.1,145,252  c-44.9,31.4-72.5,62.4-73.7,63.7l-8.2,9.3l8.2,9.3c1.2,1.3,28.8,32.4,73.7,63.7c60,41.9,122.2,64.1,180,64.1s120.1-22.1,180-64.1  c44.9-31.4,72.5-62.4,73.7-63.7l8.2-9.3L578.7,315.7z M325,388.9c-35.3,0-64-28.6-64-64c0-34.4,27.1-62.4,61.2-63.9  c-3.4,5.5-5.4,12-5.4,18.9c0,19.9,16.1,36.1,36.1,36.1c12.9,0,24.2-6.8,30.6-17c3.5,7.9,5.5,16.7,5.5,25.9  C389,360.3,360.3,388.9,325,388.9z M101.2,325c20.7-20.6,75.7-70.5,145.6-95c-27.4,22.6-44.8,56.7-44.8,95  c0,38.2,17.4,72.3,44.7,94.9c-33.5-11.7-62.8-28.9-85-44.4C133.6,355.9,112.4,336.2,101.2,325z M403.3,420  c27.4-22.6,44.8-56.7,44.8-95c0-38.2-17.4-72.3-44.7-94.9c33.5,11.7,62.8,28.9,85,44.4c28,19.5,49.2,39.3,60.4,50.4  C528.1,345.6,473.1,395.5,403.3,420z"/>
</svg>
