<?xml version="1.0" encoding="utf-8"?>
<!-- Generator: Adobe Illustrator 18.1.1, SVG Export Plug-In . SVG Version: 6.00 Build 0)  -->
<svg xmlns="http://www.w3.org/2000/svg" xmlns:xlink="http://www.w3.org/1999/xlink" version="1.1" id="Layer_1" x="0px" y="0px" viewBox="0 0 650 650" enable-background="new 0 0 650 650" xml:space="preserve">
  <path id="microphone" fill="#4A4A4A" d="M500,307.8h-21.5c1-5.4,1.7-10.7,2.2-16.1h-52.1c-0.7,5.3-1.6,10.7-2.7,16.1h-34.3v-42.4  h-38.7c-5.1,0-9.2-4.2-9.2-9.2v0c0-5.1,4.2-9.2,9.2-9.2h38.7v-11.5h-38.7c-5.1,0-9.2-4.2-9.2-9.2c0-5.1,4.2-9.2,9.2-9.2h38.7v-11.5  h-38.7c-5.1,0-9.2-4.2-9.2-9.2s4.2-9.2,9.2-9.2h38.7v-11.5h-38.7c-5.1,0-9.2-4.2-9.2-9.2c0-5.1,4.2-9.2,9.2-9.2h38.7  c-0.3-30.7-25.5-55.8-56.3-55.8h-20.5c-31,0-56.4,25.4-56.4,56.4v150.3h-34.3c-1.1-5.4-2-10.8-2.7-16.1h-53.1  c0.5,5.3,1.2,10.7,2.2,16.1H150v27h27.5c19.8,59.3,67.1,113.7,120.8,124v48.7h-57.1v41.4h167.7v-41.4h-57.1v-48.7  c53.7-10.3,100.3-64.7,119.9-124H500V307.8z M325,409.8c-57.1,0.1-83.1-35.9-93.3-75h26.6v1.6c0,31,25.4,56.4,56.4,56.4h20.5  c31,0,56.4-25.4,56.4-56.4v-1.6h26.6C408.9,374.9,380.9,409.7,325,409.8z"/>
</svg>
