<?xml version="1.0" encoding="utf-8"?>
<!-- Generator: Adobe Illustrator 18.1.1, SVG Export Plug-In . SVG Version: 6.00 Build 0)  -->
<svg xmlns="http://www.w3.org/2000/svg" xmlns:xlink="http://www.w3.org/1999/xlink" version="1.1" id="Layer_1" x="0px" y="0px" viewBox="0 0 650 650" enable-background="new 0 0 650 650" xml:space="preserve">
  <g id="sync">
	<path fill="#4A4A4A" d="M381,106.7c-58.3-15.6-119.2-7.6-171.5,22.6s-89.7,78.9-105.3,137.2c-11.6,43.3-10.2,88,3.7,129.5L73,416.2   l104,28.3l27.5-104.2l-37.8,21.8c-15.9-67,13-139.5,75.7-175.7c47.3-27.3,103-27.6,148.9-5.8l65.2-37.6   C434.2,126.5,408.6,114.2,381,106.7z"/>
	<path fill="#4A4A4A" d="M577,231.3L473,203l-27.5,104.2l32.8-18.9c15.8,67-13.2,139.2-75.8,175.3c-49.5,28.6-108.1,27.6-155.2,2.6   l-64,36.9c23.6,18.4,50.9,32.1,80.7,40.1c58.3,15.6,119.2,7.6,171.5-22.6c52.3-30.2,89.7-78.9,105.3-137.2   c11.6-43.2,10.2-87.8-3.6-129.2L577,231.3z"/>
</g>
</svg>
