<?xml version="1.0" encoding="utf-8"?>
<!-- Generator: Adobe Illustrator 18.1.1, SVG Export Plug-In . SVG Version: 6.00 Build 0)  -->
<svg xmlns="http://www.w3.org/2000/svg" xmlns:xlink="http://www.w3.org/1999/xlink" version="1.1" id="Layer_1" x="0px" y="0px" viewBox="0 0 650 650" enable-background="new 0 0 650 650" xml:space="preserve">
  <g>
	<path fill="#4A4A4A" d="M235,244.8l-82.4,252.4l3,2.7l4.6,3.9l121.4-144c-4.3-7.4-3.8-17.1,2.1-24.1c7.5-8.9,20.7-10,29.6-2.5   c8.9,7.5,10,20.7,2.5,29.6c-5.9,7-15.3,9.1-23.4,6.1l-121.4,144l4.6,3.9l3.2,2.5l234.8-123.9c-25.6-83.4,46.7-141.6,46.7-141.6   L366.8,175C366.8,175,321.5,256,235,244.8z"/>
	
		<rect x="374.3" y="165.3" transform="matrix(-0.7645 -0.6446 0.6446 -0.7645 648.3901 611.9304)" fill="#4A4A4A" width="123.2" height="44.5"/>
</g>
</svg>
