<?xml version="1.0" encoding="utf-8"?>
<!-- Generator: Adobe Illustrator 18.1.1, SVG Export Plug-In . SVG Version: 6.00 Build 0)  -->
<svg xmlns="http://www.w3.org/2000/svg" xmlns:xlink="http://www.w3.org/1999/xlink" version="1.1" id="Layer_1" x="0px" y="0px" viewBox="0 0 650 650" enable-background="new 0 0 650 650" xml:space="preserve">
  <g>
	<path id="gear_1_" fill="#4A4A4A" d="M250.1,434.6c0,20.8-16.9,37.7-37.7,37.7s-37.7-16.9-37.7-37.7c0-20.8,16.9-37.7,37.7-37.7   S250.1,413.8,250.1,434.6z M363.8,460.1v-51.1l-45.6-7.7c-2-6.3-4.5-12.4-7.6-18.2l26.8-37.7l-36.1-36.1l-37.8,26.9   c-5.7-3-11.7-5.5-17.9-7.4l-7.6-45.2h-51.1l-7.6,45.2c-6.3,2-12.4,4.5-18.1,7.5l-37.6-26.7l-36.1,36.1l26.7,37.6   c-3,5.7-5.5,11.8-7.5,18.1L61,409.1v51.1l45.6,7.7c1.9,6.2,4.4,12.2,7.4,17.9l-26.9,37.8l36.1,36.1l37.7-26.8   c5.8,3,11.8,5.6,18.2,7.6l7.8,46h51.1l7.8-46c6.2-2,12.2-4.5,17.9-7.4l37.9,26.9l36.1-36.1l-26.9-37.9c3-5.7,5.5-11.8,7.5-18   L363.8,460.1z"/>
	<path id="gear_2_" fill="#4A4A4A" d="M309.2,163c0,13.7-11.1,24.8-24.8,24.8c-13.7,0-24.8-11.1-24.8-24.8   c0-13.7,11.1-24.8,24.8-24.8C298.1,138.2,309.2,149.3,309.2,163z M384,179.8v-33.6l-30-5.1c-1.3-4.2-3-8.2-5-12l17.6-24.8   l-23.7-23.7l-24.8,17.7c-3.8-2-7.7-3.6-11.8-4.9l-5-29.8h-33.6l-5,29.8c-4.2,1.3-8.1,3-11.9,4.9L226,80.8l-23.7,23.7l17.6,24.7   c-2,3.8-3.6,7.8-4.9,11.9l-30,5.1v33.6l30,5.1c1.3,4.1,2.9,8,4.9,11.8l-17.7,24.8l23.7,23.7l24.8-17.6c3.8,2,7.8,3.7,11.9,5   l5.1,30.3h33.6l5.1-30.3c4.1-1.3,8.1-2.9,11.8-4.9l24.9,17.7l23.7-23.7l-17.7-24.9c2-3.8,3.6-7.7,4.9-11.9L384,179.8z"/>
	<path id="gear_3_" fill="#4A4A4A" d="M514.2,365.7c0,13.7-11.1,24.8-24.8,24.8c-13.7,0-24.8-11.1-24.8-24.8   c0-13.7,11.1-24.8,24.8-24.8C503.1,340.9,514.2,352,514.2,365.7z M589,382.5v-33.6l-30-5.1c-1.3-4.2-3-8.2-5-12l17.6-24.8   l-23.7-23.7L523,301c-3.8-2-7.7-3.6-11.8-4.9l-5-29.8h-33.6l-5,29.8c-4.2,1.3-8.1,3-11.9,4.9L431,283.5l-23.7,23.7l17.6,24.7   c-2,3.8-3.6,7.8-4.9,11.9l-30,5.1v33.6l30,5.1c1.3,4.1,2.9,8,4.9,11.8L407,424.2l23.7,23.7l24.8-17.6c3.8,2,7.8,3.7,11.9,5   l5.1,30.3h33.6l5.1-30.3c4.1-1.3,8.1-2.9,11.8-4.9l24.9,17.7l23.7-23.7l-17.7-24.9c2-3.8,3.6-7.7,4.9-11.9L589,382.5z"/>
</g>
</svg>
