<?xml version="1.0" encoding="utf-8"?>
<!-- Generator: Adobe Illustrator 18.1.1, SVG Export Plug-In . SVG Version: 6.00 Build 0)  -->
<svg xmlns="http://www.w3.org/2000/svg" xmlns:xlink="http://www.w3.org/1999/xlink" version="1.1" id="Layer_1" x="0px" y="0px" viewBox="0 0 650 650" enable-background="new 0 0 650 650" xml:space="preserve">
  <g id="tools">
	<path fill="#4A4A4A" d="M240,78.2c-34.8,16.9-46.7,35.2-50.1,40.2c-2.3,0.2-8.6-2.9-10.4-1.2l-57,57c-4,4,0.6,15.2,0.6,15.2   L106,201.9c-2.8-2.8-7.2-3.2-9.9-0.9l-45.3,27.8c-5.3,3.2-7.6,10-4.5,13.2c0,0,0.1,0.1,0.1,0.1l74.4,74.4c0,0,0.1,0.1,0.1,0.1   c3.2,3.1,10,0.8,13.2-4.5l27.8-45.3c2.3-2.7,2-7.1-0.9-9.9l14.3-18.9c3,0.3,9.4-4.1,9.4-4.1l31.3,14.1l146.7,146.7l13.8,30.4   c0.5,2.6,1.6,5.2,3.3,7.3l0.1,0.3l0.1-0.1c0.3,0.4,0.7,0.8,1.1,1.2l139.7,139.7c6.5,6.5,17.1,6.5,23.6,0l37.9-37.9   c6.5-6.5,6.5-17.1,0-23.6L442.6,372.4c-0.4-0.4-0.9-0.8-1.4-1.2l0.1-0.1l-0.4-0.2c-2.1-1.6-4.4-2.6-6.8-3.1l-30.3-13.5l-147-147   l-14.3-31.8c0.2-0.3,0.6-0.7,0.6-0.7s11.2-29.4,30-44.5c30.5-24.3,88-10.6,88-10.6l10.7-6.3C371.8,113.4,294.8,51.6,240,78.2z"/>
	<path fill="#4A4A4A" d="M476.7,248.4c35.8,12.7,83,3.3,109.3-22.9c0,0,22.7-53.1,18.7-85.1l-54.6,54.1l-55.9-9.5l-8.8-56l54.5-53.9   c-31.5-4.7-86.2,18-86.2,18c-26,26-35,73.1-22.6,109L160.9,472.2l-54,23.6l-3.3,15.5l19.9,19.9l24.4,24.4l19.9,19.9l15.5-3.3   l23.6-54L476.7,248.4z M176.1,530.3l-11.5,3.1c-2.9,0.8-6.1-0.1-8.3-2.2l-8.4-8.4c-2.2-2.2-3-5.3-2.2-8.3l3.1-11.5   c0.8-2.9,3.1-5.2,6-6l11.5-3.1c2.9-0.8,6.1,0.1,8.3,2.2l8.4,8.4c2.2,2.2,3,5.3,2.2,8.3l-3.1,11.5   C181.4,527.2,179.1,529.5,176.1,530.3z"/>
</g>
</svg>
