<?xml version="1.0" encoding="utf-8"?>
<!-- Generator: Adobe Illustrator 18.1.1, SVG Export Plug-In . SVG Version: 6.00 Build 0)  -->
<svg xmlns="http://www.w3.org/2000/svg" xmlns:xlink="http://www.w3.org/1999/xlink" version="1.1" id="Layer_1" x="0px" y="0px" viewBox="0 0 650 650" enable-background="new 0 0 650 650" xml:space="preserve">
  <g>
	<path fill="#4A4A4A" d="M455.5,289.6C446,157.7,381,130.3,346.2,125.2c0-0.4,0.1-0.7,0.1-1.1c0-9.3-9.8-16.9-21.9-16.9   s-21.9,7.6-21.9,16.9c0,0.6,0.1,1.3,0.1,1.9c-34.6,6.3-99.4,35.3-109.4,163.5c-4.8,61.5-88.4,94.3-88.4,194.3h219.6h220.9   C545.2,383.9,460,351.2,455.5,289.6z"/>
	<path fill="#4A4A4A" d="M324.4,542.7c25.8,0,46.7-20.9,46.7-46.7h-93.5C277.6,521.8,298.6,542.7,324.4,542.7z"/>
</g>
</svg>
