<?xml version="1.0" encoding="utf-8"?>
<!-- Generator: Adobe Illustrator 18.1.1, SVG Export Plug-In . SVG Version: 6.00 Build 0)  -->
<svg xmlns="http://www.w3.org/2000/svg" xmlns:xlink="http://www.w3.org/1999/xlink" version="1.1" id="Layer_1" x="0px" y="0px" viewBox="0 0 650 650" enable-background="new 0 0 650 650" xml:space="preserve">
  <g>
	<path fill="#4A4A4A" d="M325,503.9c-47.8,0-92.7-18.6-126.5-52.4c-33.8-33.8-52.4-78.7-52.4-126.5s18.6-92.7,52.4-126.5   c33.8-33.8,78.7-52.4,126.5-52.4s92.7,18.6,126.5,52.4c33.8,33.8,52.4,78.7,52.4,126.5s-18.6,92.7-52.4,126.5   C417.7,485.3,372.8,503.9,325,503.9z M325,173.4c-40.5,0-78.5,15.8-107.2,44.4c-28.6,28.6-44.4,66.7-44.4,107.2   s15.8,78.5,44.4,107.2c28.6,28.6,66.7,44.4,107.2,44.4s78.5-15.8,107.2-44.4c28.6-28.6,44.4-66.7,44.4-107.2s-15.8-78.5-44.4-107.2   C403.5,189.2,365.5,173.4,325,173.4z"/>
	<polygon fill="#4A4A4A" points="400,406.2 333.8,339.3 333.8,209.6 314.4,209.6 314.9,347.4 385.8,416.4  "/>
</g>
</svg>
