<?xml version="1.0" encoding="utf-8"?>
<!-- Generator: Adobe Illustrator 18.1.1, SVG Export Plug-In . SVG Version: 6.00 Build 0)  -->
<svg xmlns="http://www.w3.org/2000/svg" xmlns:xlink="http://www.w3.org/1999/xlink" version="1.1" id="Layer_1" x="0px" y="0px" viewBox="0 0 650 650" enable-background="new 0 0 650 650" xml:space="preserve">
  <path fill="#4A4A4A" d="M125.8,100.2c-35.3,35.3-45.1,82.8-21.9,106c17.6,17.6,49.2,16.2,78.8-0.9l43.8,23.1l2.1-2.1l149.7,149.7  c0.7,11.1,7.1,24.3,18.1,35.3l4.1-4.1l8.6,8.6l-3.8,3.8l33,33l3.8-3.8l7.9,7.9l-4,4l7.7,7.7l-7.8,7.8l-7.7-7.7l-46.6,46.6l24.5,24.5  l8.1-8.1l6.9,6.9l7.1-7.1l11,11l-7.1,7.1l6.9,6.9l-8.1,8.1l19.9,19.9l46.6-46.6l-7.7-7.7l7.8-7.8l7.7,7.7l4-4l6,6  c3.3,3.3,13.2-1.2,22.2-10.1s13.4-18.8,10.1-22.2l-83.2-83.2l3.8-3.8l-33-33l-3.8,3.8l-8.6-8.6l4.1-4.1c-11-11-24.2-17.4-35.3-18.1  L252,202.9l2.1-2.1l-23.1-43.8c17.1-29.6,18.5-61.2,0.9-78.8C208.6,55,161.1,64.8,125.8,100.2z M205.3,141.9  c-7.8,7.8-17.9,11.5-26.9,10.8c0.8,9-3,19.1-10.8,26.9c-12.6,12.6-31.2,14.6-41.4,4.3c-10.2-10.2-8.3-28.8,4.3-41.4  c7.8-7.8,17.9-11.6,26.9-10.8c-0.8-9,3-19.1,10.8-26.9c12.6-12.6,31.2-14.6,41.4-4.3C219.8,110.7,217.9,129.3,205.3,141.9z"/>
</svg>
