<?xml version="1.0" encoding="utf-8"?>
<!-- Generator: Adobe Illustrator 18.1.1, SVG Export Plug-In . SVG Version: 6.00 Build 0)  -->
<svg xmlns="http://www.w3.org/2000/svg" xmlns:xlink="http://www.w3.org/1999/xlink" version="1.1" id="Layer_1" x="0px" y="0px" viewBox="0 0 48 48" enable-background="new 0 0 48 48" xml:space="preserve">
  <path fill="#FFA726" d="M5.1,28.6l9.2-3l2.1-8.6l-3.9-0.8c-0.6-0.1-1.1-0.1-1.7,0.1l-3.7,1.3c-1.2,0.4-2,1.6-2,2.9V28.6z"/>
  <path fill="#FFB74D" d="M35.8,30.9l-9.4,9.4c-3.6,3.6-9.5,3.6-13.1,0l-6.5-6.5c-2.4-2.4-2.4-6.3,0-8.7l13.1-13.1  c1.2-1.2,3.2-1.2,4.4,0c1.2,1.2,1.4,2,2.2,2.2c0.6,0.2,2-0.2,3.5,1.3c1.5,1.5,1,3,1.5,3.6c0.5,0.5,1.8,1.2,2.3,2.3  c0.5,1.1,0.1,2.3,0.6,3.3s1.8,1.6,2.2,2.9C36.9,28.4,36.9,29.8,35.8,30.9z"/>
  <path fill="#F44336" d="M43.4,18.2c0.4-0.9,0.6-1.8,0.6-2.7c0-3.1-2.2-5.7-5.1-6.4C38.2,6.2,35.6,4,32.5,4c-0.9,0-1.9,0.2-2.7,0.6  c-1.2-1-2.7-1.6-4.3-1.6c-3.4,0-6.1,2.7-6.2,2.8l1.4,1.4c0,0,2.2-2.2,4.8-2.2c1.3,0,2.5,0.5,3.3,1.5l0.6,0.6l0.7-0.4  C30.8,6.2,31.7,6,32.5,6c2.3,0,4.3,1.8,4.5,4.1l0.1,0.8l0.8,0.1c2.3,0.2,4.1,2.2,4.1,4.5c0,0.8-0.2,1.7-0.7,2.4l-0.4,0.7l0.6,0.6  c1,0.9,1.5,2.1,1.5,3.3c0,2.6-2.2,4.8-2.2,4.8l0.7,0.7l0.7,0.7c0.1-0.1,2.8-2.8,2.8-6.2C45,20.9,44.4,19.4,43.4,18.2z"/>
</svg>
