<?xml version="1.0" encoding="utf-8"?><!-- Generator: Adobe Illustrator 18.1.1, SVG Export Plug-In . SVG Version: 6.00 Build 0)  --><svg xmlns="http://www.w3.org/2000/svg" xmlns:xlink="http://www.w3.org/1999/xlink" version="1.1" id="Layer_1" x="0px" y="0px" viewBox="0 0 48 48" enable-background="new 0 0 48 48" xml:space="preserve">
<path fill="#607D8B" d="M24,5C16.6,5,9,13.7,9,21.1S16.6,43,24,43s15-14.9,15-21.9S31.4,5,24,5z"/>
<path fill="#E1F5FE" d="M31.8,25.8c-0.7,0.7-1.6,3.1-2.2,4.6c-1.9,4.6-2.4,10-5.6,10s-3.7-5.4-5.6-10c-0.6-1.5-1.5-3.8-2.2-4.6  c-1.9-1.8-4-1.6-4-5.2c0-1.6,1-3.7,2.9-4.4c0.7-4.9,5-8.4,8.8-8.4s8.1,3.7,9,8.4c1.8,0.7,2.9,2.8,2.9,4.4  C35.8,24.1,33.7,24,31.8,25.8z"/>
<g>
	<path fill="#263238" d="M25.8,24c0.9,0-1.2-4.3-1.8-4.3c-0.4,0-2.5,4.3-1.8,4.3c0.9,0,1.3-0.9,1.8-0.9C24.4,23.1,25.2,24,25.8,24z"/>
	<path fill="#263238" d="M21.5,27.4c0,0.6,0.7,3.7,0.9,6c0,2.5,0.7,5.2,1.6,5.2c1,0,1.5-2.2,1.6-4.7c0.1-3.2,1-5.2,0.9-6.3   c0-0.6-0.7-2.1-2.7-2.1S21.5,26.4,21.5,27.4z"/>
	<path fill="#263238" d="M30.5,22.4c1.3,0,2.8-1.5,2.1-2.9c-0.4-0.7-1.2-0.9-1.9-1.3c-1-0.6-1.9-1.6-2.4-2.8c-0.4-0.9-1-2.1-1.9-1.6   c-1.3,0.6-0.6,3.2-0.3,4.4C26.8,20.3,28.1,22.4,30.5,22.4z"/>
	<path fill="#263238" d="M17.5,22.4c-1.3,0-2.8-1.5-2.1-2.9c0.3-0.6,1.2-0.7,1.9-1.2c1-0.6,1.8-1.6,2.4-2.8c0.4-0.9,1-2.1,1.9-1.6   c1.3,0.6,0.6,3.2,0.3,4.4C21.2,20.3,19.9,22.4,17.5,22.4z"/>
</g>
</svg>