<?xml version="1.0" encoding="utf-8"?>
<!-- Generator: Adobe Illustrator 18.1.1, SVG Export Plug-In . SVG Version: 6.00 Build 0)  -->
<svg xmlns="http://www.w3.org/2000/svg" xmlns:xlink="http://www.w3.org/1999/xlink" version="1.1" id="Layer_1" x="0px" y="0px" viewBox="0 0 48 48" enable-background="new 0 0 48 48" xml:space="preserve">
  <g>
	<path fill="#455A64" d="M18,24.9c1.2,1.4,3,2.1,4.8,2.1c0.9,0-1.2-2.2-1.6-5.4L18,24.9z"/>
	<polygon fill="#455A64" points="43,14 42,13 40,13 40,14  "/>
	<polygon fill="#455A64" points="14,14 13,13 11,13 11,14  "/>
	<rect x="17" y="14" fill="#455A64" width="6" height="3"/>
	<path fill="#455A64" d="M43,22H13v-5h31v4C44,21.6,43.6,22,43,22z"/>
	<rect x="43" y="15" fill="#455A64" width="2" height="6"/>
	<path fill="#455A64" d="M28,20c-0.6,0-1,0.4-1,1v4c0,1.7-1.3,3-3,3h-5c-0.6,0-1,0.4-1,1s0.4,1,1,1h5c2.8,0,5-2.2,5-5v-4   C29,20.4,28.6,20,28,20z"/>
</g>
  <path fill="#90A4AE" d="M13.5,19l0.5-1h27h2c0.6,0,1-0.4,1-1v-3H23v1c0,1.1-0.9,2-2,2h-2c-1.1,0-2-0.9-2-2v-1h-6.5  C9.1,14,8,15.1,8,16.5l0,0.9c0,0.8-0.3,1.5-0.9,1.9C6.4,19.8,5.6,20,5,20c0,0.7,0.8,2,2,2h0c1.4,0,2.4,1.4,1.9,2.7L5.1,35.9  c-0.6,1.7,0.5,3.5,2.3,3.8l6.1,0.9c1.4,0.2,2.8-0.7,3.2-2.1l1.8-7.2c0.2-0.7,0.8-1.3,1.6-1.3h0l1-8h14l1.2-1.6  c0.4-0.6,0.9-1,1.5-1.4H13.5z"/>
  <path fill="#455A64" d="M15.7,20c-2.3,0-3.9,1-3.9,1L6.4,36.9c-0.2,0.6,0.2,1.2,0.8,1.3l6.5,1.1c0.5,0.1,1-0.2,1.1-0.7L19.2,21  C19.2,21,18,20,15.7,20z M10.9,36.9c-0.5,0-1-0.4-1-1s0.4-1,1-1c0.5,0,1,0.4,1,1S11.4,36.9,10.9,36.9z M10.9,36.3  c-0.2,0-0.4-0.2-0.4-0.4s0.2-0.4,0.4-0.4c0.2,0,0.4,0.2,0.4,0.4S11.1,36.3,10.9,36.3z M15.3,23.2c-0.5,0-1-0.4-1-1s0.4-1,1-1  s1,0.4,1,1S15.9,23.2,15.3,23.2z M15.3,22.6c-0.2,0-0.4-0.2-0.4-0.4s0.2-0.4,0.4-0.4s0.4,0.2,0.4,0.4S15.5,22.6,15.3,22.6z"/>
</svg>
