<?xml version="1.0" encoding="utf-8"?>
<!-- Generator: Adobe Illustrator 18.1.1, SVG Export Plug-In . SVG Version: 6.00 Build 0)  -->
<svg xmlns="http://www.w3.org/2000/svg" xmlns:xlink="http://www.w3.org/1999/xlink" version="1.1" id="Layer_1" x="0px" y="0px" viewBox="0 0 48 48" enable-background="new 0 0 48 48" xml:space="preserve">
  <g>
	<path fill="#3F51B5" d="M45,8H3v32h42V8z M22,38v-4h4v4H22z M30,38v-4h4v4H30z M38,38v-4h4v4H38z M14,38v-4h4v4H14z M6,38v-4h4v4H6   z M22,14v-4h4v4H22z M30,14v-4h4v4H30z M38,14v-4h4v4H38z M14,14v-4h4v4H14z M6,14v-4h4v4H6z"/>
</g>
  <g>
	<path fill="#C5CAE9" d="M10.2,23.2l0.5-4.4h4.8v1.4h-3.4l-0.2,1.8c0.1,0,0.6-0.3,1.3-0.3c2.6,0,2.6,2.4,2.6,2.9   c0,1.7-1.2,2.9-2.9,2.9c-2,0-2.9-1.5-2.9-2.5h1.7c0,0.5,0.4,1.1,1.2,1.1c1.2,0,1.2-1.4,1.2-1.6c0-1.5-1.1-1.5-1.4-1.5   c-0.8,0-1.1,0.4-1.1,0.5L10.2,23.2z"/>
	<path fill="#C5CAE9" d="M20.5,21l0.1,0.7c0.2-0.3,0.8-0.8,1.8-0.8c1.1,0,1.5,0.6,1.7,1c0.2-0.3,0.7-1,1.9-1c1.7,0,2,1.3,2,2.4v4.1   h-1.7v-4.1c0-0.4-0.1-1-1-1c-0.7,0-1,0.5-1.1,0.7v4.4h-1.7v-4c0-0.7-0.2-1.1-1-1.1c-0.6,0-0.9,0.4-1,0.6v4.5h-1.7V21H20.5z"/>
	<path fill="#C5CAE9" d="M29.3,19.4c0-0.3,0.1-0.9,1-0.9c0.1,0,1,0.1,1,0.9c0,0.3-0.2,0.9-1,0.9C29.5,20.3,29.3,19.6,29.3,19.4z    M31.2,27.4h-1.7V21h1.7V27.4z"/>
	<path fill="#C5CAE9" d="M34.1,21l0.1,0.7c0.2-0.3,0.8-0.9,1.8-0.9c1.9,0,2,1.7,2,2.4v4h-1.7v-4.1c0-0.2,0-1-1-1   c-0.7,0-1,0.4-1.1,0.6v4.5h-1.7V21H34.1z"/>
</g>
</svg>
