<?xml version="1.0" encoding="utf-8"?>
<!-- Generator: Adobe Illustrator 18.1.1, SVG Export Plug-In . SVG Version: 6.00 Build 0)  -->
<svg xmlns="http://www.w3.org/2000/svg" xmlns:xlink="http://www.w3.org/1999/xlink" version="1.1" id="Layer_1" x="0px" y="0px" viewBox="0 0 48 48" enable-background="new 0 0 48 48" xml:space="preserve">
  <g>
	<circle fill="#283593" cx="32" cy="15" r="6"/>
	<circle fill="#283593" cx="16" cy="15" r="6"/>
	<g>
		<path fill="#283593" d="M45.7,24l-15.3,3H17.7L2.4,24l4.3-7.9c1.1-1.9,3.1-3.1,5.3-3.1h24.2c2.2,0,4.2,1.2,5.3,3.1L45.7,24z"/>
		<circle fill="#283593" cx="37" cy="29" r="10"/>
		<circle fill="#283593" cx="11" cy="29" r="10"/>
		<circle fill="#283593" cx="24" cy="27" r="5"/>
	</g>
</g>
  <circle fill="#5C6BC0" cx="24" cy="27" r="2"/>
  <g>
	<circle fill="#2196F3" cx="37" cy="29" r="7"/>
	<circle fill="#2196F3" cx="11" cy="29" r="7"/>
</g>
  <g>
	<path fill="#90CAF9" d="M40.7,26.7c-1-1.1-2.3-1.7-3.7-1.7s-2.8,0.6-3.7,1.7c-0.4,0.4-0.3,1,0.1,1.4c0.4,0.4,1,0.3,1.4-0.1   c1.2-1.3,3.3-1.3,4.5,0c0.2,0.2,0.5,0.3,0.7,0.3c0.2,0,0.5-0.1,0.7-0.3C41.1,27.7,41.1,27.1,40.7,26.7z"/>
	<path fill="#90CAF9" d="M11,25c-1.4,0-2.8,0.6-3.7,1.7c-0.4,0.4-0.3,1,0.1,1.4c0.4,0.4,1,0.3,1.4-0.1c1.2-1.3,3.3-1.3,4.5,0   c0.2,0.2,0.5,0.3,0.7,0.3c0.2,0,0.5-0.1,0.7-0.3c0.4-0.4,0.4-1,0.1-1.4C13.8,25.6,12.4,25,11,25z"/>
</g>
</svg>
