<?xml version="1.0" encoding="utf-8"?><!-- Generator: Adobe Illustrator 18.1.1, SVG Export Plug-In . SVG Version: 6.00 Build 0)  --><svg xmlns="http://www.w3.org/2000/svg" xmlns:xlink="http://www.w3.org/1999/xlink" version="1.1" id="Layer_1" x="0px" y="0px" viewBox="0 0 48 48" enable-background="new 0 0 48 48" xml:space="preserve">
<polygon fill="#EA80FC" points="31.3,8.5 34.4,3.9 35.4,9.3 40.4,7 38.3,12.2 43.8,13 39.2,16.2 43.4,19.8 37.9,20 39.4,25.3   34.6,22.5 33,27.8 30.5,22.9 26.3,26.5 26.9,21 21.4,21.7 24.9,17.4 19.9,15.1 25.1,13.3 22.2,8.6 27.5,10 27.6,4.5 "/>
<polygon fill="#D500F9" points="31.6,11.6 33.4,8.9 34,12.1 36.9,10.7 35.7,13.8 38.9,14.2 36.2,16.1 38.7,18.2 35.4,18.4   36.3,21.5 33.5,19.8 32.6,22.9 31.1,20 28.7,22.2 29,18.9 25.8,19.4 27.8,16.8 24.9,15.5 28,14.4 26.2,11.7 29.4,12.5 29.4,9.2 "/>
<polygon fill="#D500F9" points="39,35 40.5,38.5 44,40 40.5,41.5 39,45 37.5,41.5 34,40 37.5,38.5 "/>
<polygon fill="#D500F9" points="30,31 30.9,33.1 33,34 30.9,34.9 30,37 29.1,34.9 27,34 29.1,33.1 "/>
<path fill="#607D8B" d="M5,44.4L3.6,43c-0.8-0.8-0.8-2,0-2.8l17.7-17.7l4.2,4.2L7.8,44.4C7,45.2,5.8,45.2,5,44.4z"/>
<path fill="#FFC107" d="M32.9,13.7l1.4,1.4c0.8,0.8,0.8,2,0,2.8l-8.8,8.8l-4.2-4.2l8.8-8.8C30.8,12.9,32.1,12.9,32.9,13.7z"/>
<rect x="13.1" y="20.2" transform="matrix(0.7071 0.7071 -0.7071 0.7071 27.2089 -0.1942)" fill="#90A4AE" width="1.4" height="25"/>
<rect x="26.4" y="13.3" transform="matrix(0.7071 0.7071 -0.7071 0.7071 21.7297 -13.4221)" fill="#FFD54F" width="1.4" height="12.4"/>
</svg>