<?xml version="1.0" encoding="utf-8"?><!-- Generator: Adobe Illustrator 18.1.1, SVG Export Plug-In . SVG Version: 6.00 Build 0)  --><svg xmlns="http://www.w3.org/2000/svg" xmlns:xlink="http://www.w3.org/1999/xlink" version="1.1" id="Layer_1" x="0px" y="0px" viewBox="0 0 48 48" enable-background="new 0 0 48 48" xml:space="preserve">
<g>
	<g>
		<circle fill="#5E35B1" cx="13.7" cy="29.3" r="2.7"/>
	</g>
	<g>
		<circle fill="#5E35B1" cx="34.3" cy="29.3" r="2.7"/>
	</g>
</g>
<path fill="#9575CD" d="M35,23.4c0-9.3-22-6.1-22,0c0,1.3,0,7.3,0,8.6c0,6.1,4.9,11,11,11s11-4.9,11-11C35,30.7,35,24.7,35,23.4z"/>
<polygon fill="#4527A0" points="34,25.5 37,25.5 37,28.6 34,30.6 "/>
<polygon fill="#4527A0" points="14,25.5 11,25.5 11,28.6 14,30.6 "/>
<path fill="#5E35B1" d="M14,21.2c-0.7,0.7-1,1.4-1,2.2c0,1.3,0,7.3,0,8.6c0,6.1,4.9,11,11,11c0-2.7,2.4-2.1,2.4-3.5  c0-0.9-4.9-0.5-4.9-1.4c0-1.4,2.7-1.1,5-1.1c0.6,0,0.8-0.9,0-0.9c-3,0-1.3-2,0-3.5c0.8-2.2,6.1-2.6,8.5-0.5c0-1.3,0-7.3,0-8.6  c0-0.8-0.2-1.6-0.5-2.2H14z"/>
<ellipse fill="#673AB7" cx="24" cy="22" rx="21" ry="7"/>
<path fill="#673AB7" d="M29.5,4c-2.1,0-3.2,1.1-5.5,1.1S20.8,4,18.5,4c-4.1,0-6,9.6-7.5,15.7c0,3.7,8.2,4,13,4s13-0.1,13-4  C35.2,13.2,33.6,4,29.5,4z"/>
<path fill="#7654B0" d="M24,18.7c-3.9,0-10-0.2-12.2-2.2c-0.3,1.1-0.6,2.2-0.8,3.2c0,3.7,8.2,4,13,4s13-0.1,13-4  c-0.3-1-0.6-2.1-0.9-3.1C33.9,18.6,27.9,18.7,24,18.7z"/>
</svg>