<?xml version="1.0" encoding="utf-8"?><!-- Generator: Adobe Illustrator 18.1.1, SVG Export Plug-In . SVG Version: 6.00 Build 0)  --><svg xmlns="http://www.w3.org/2000/svg" xmlns:xlink="http://www.w3.org/1999/xlink" version="1.1" id="Layer_1" x="0px" y="0px" viewBox="0 0 48 48" enable-background="new 0 0 48 48" xml:space="preserve">
<path fill="#00BCD4" d="M41.7,26.6c0,0-8.6-0.5-14.2-6.1S21.4,6.3,21.4,6.3s8.2-3.1,15.7,4.5S41.7,26.6,41.7,26.6z"/>
<path fill="#607D8B" d="M42.3,42.9c-3,3-13-3.6-23.3-13.9S2.1,8.7,5.1,5.7S22,2.5,33.7,14.3S45.3,39.9,42.3,42.9z"/>
<ellipse transform="matrix(0.7071 0.7071 -0.7071 0.7071 24.1558 -9.565)" fill="#78909C" cx="23.6" cy="24.4" rx="26.3" ry="8.8"/>
<ellipse transform="matrix(0.7071 0.7071 -0.7071 0.7071 24.2629 -9.3065)" fill="#26C6DA" cx="23.4" cy="24.6" rx="14.3" ry="4.8"/>
<ellipse transform="matrix(0.7071 0.7071 -0.7071 0.7071 22.3891 -13.8302)" fill="#26C6DA" cx="27.9" cy="20.1" rx="1.6" ry="0.5"/>
<ellipse transform="matrix(0.7071 0.7071 -0.7071 0.7071 26.2437 -4.5243)" fill="#26C6DA" cx="18.6" cy="29.4" rx="1.6" ry="0.5"/>
<ellipse transform="matrix(0.7071 0.7071 -0.7071 0.7071 39.0508 -15.2805)" fill="#26C6DA" cx="38" cy="39.5" rx="1.6" ry="0.5"/>
<ellipse transform="matrix(0.7071 0.7071 -0.7071 0.7071 10.3575 -3.3953)" fill="#26C6DA" cx="9.3" cy="10.8" rx="1.6" ry="0.5"/>
<ellipse transform="matrix(0.7071 0.7071 -0.7071 0.7071 13.4044 -9.2001)" fill="#26C6DA" cx="17.8" cy="11.6" rx="1.6" ry="0.5"/>
<ellipse transform="matrix(0.7071 0.7071 -0.7071 0.7071 33.5672 -17.5518)" fill="#26C6DA" cx="38" cy="31.7" rx="1.6" ry="0.5"/>
<ellipse transform="matrix(0.7071 0.7071 -0.7071 0.7071 16.2954 -2.2207)" fill="#26C6DA" cx="10.8" cy="18.6" rx="1.6" ry="0.5"/>
<ellipse transform="matrix(0.7071 0.7071 -0.7071 0.7071 36.4582 -10.5724)" fill="#26C6DA" cx="31" cy="38.7" rx="1.6" ry="0.5"/>
<ellipse transform="matrix(0.7071 0.7071 -0.7071 0.7071 23.716 -10.6267)" fill="#B2EBF2" cx="24.7" cy="23.3" rx="8.7" ry="2.9"/>
</svg>