<?xml version="1.0" encoding="utf-8"?>
<!-- Generator: Adobe Illustrator 18.1.1, SVG Export Plug-In . SVG Version: 6.00 Build 0)  -->
<svg xmlns="http://www.w3.org/2000/svg" xmlns:xlink="http://www.w3.org/1999/xlink" version="1.0" id="Layer_1" x="0px" y="0px" viewBox="0 0 48 48" enable-background="new 0 0 48 48" xml:space="preserve">
  <path fill="#8CBCD6" d="M40,41H8c-2.2,0-4-1.8-4-4V11c0-2.2,1.8-4,4-4h32c2.2,0,4,1.8,4,4v26C44,39.2,42.2,41,40,41z"/>
  <circle fill="#B3DDF5" cx="35" cy="16" r="3"/>
  <polygon fill="#9AC9E3" points="20,16 9,32 31,32 "/>
  <polygon fill="#B3DDF5" points="31,22 23,32 39,32 "/>
  <circle fill="#F44336" cx="38" cy="38" r="10"/>
  <g>
	<rect x="36.5" y="32" transform="matrix(-0.7071 0.7071 -0.7071 -0.7071 91.7401 38)" fill="#FFFFFF" width="3" height="12"/>
	<rect x="36.5" y="32" transform="matrix(-0.7071 -0.7071 0.7071 -0.7071 38 91.7401)" fill="#FFFFFF" width="3" height="12"/>
</g>
</svg>
