<?xml version="1.0" encoding="utf-8"?><!-- Generator: Adobe Illustrator 18.1.1, SVG Export Plug-In . SVG Version: 6.00 Build 0)  --><svg xmlns="http://www.w3.org/2000/svg" xmlns:xlink="http://www.w3.org/1999/xlink" version="1.1" id="Layer_1" x="0px" y="0px" viewBox="0 0 48 48" enable-background="new 0 0 48 48" xml:space="preserve">
<path fill="#A1C2BA" d="M24,44c-6.9,0-7.1-6.5-8.6-8.3C13.6,34,5,30.7,5,22.3C5,13.9,8.5,4,24,4s19,10,19,18.3S34.4,34,32.6,35.7  C31.1,37.5,30.9,44,24,44z"/>
<path fill="#5D736D" d="M25,34.2c0,0.8,0.5,0.8,1,0.8s1,0,1-0.8c0-1.2-2-3.6-2-3.1C25,31.6,25,33,25,34.2z"/>
<path fill="#003B3D" d="M26.3,28.7c0.3,0.3,6,1.1,9.2-2.1c3.2-3.2,2.5-8.8,2.1-9.2c-0.4-0.4-6-1.1-9.2,2.1S26,28.4,26.3,28.7z"/>
<path fill="#5D736D" d="M23,31.1c0-0.5-2,1.9-2,3.1c0,0.8,0.5,0.8,1,0.8s1,0,1-0.8C23,33,23,31.6,23,31.1z"/>
<path fill="#003B3D" d="M19.6,19.5c-3.2-3.2-8.8-2.5-9.2-2.1c-0.4,0.4-1.1,6,2.1,9.2s8.9,2.4,9.2,2.1C22,28.4,22.8,22.7,19.6,19.5z"/>
<g>
	<path fill="#006064" d="M33.7,19.4c-0.2,0-2.3,0.5-3.6,1.7c-1.2,1.2-1.8,3.3-1.8,3.6c-0.1,0.5,0.2,1.1,0.7,1.2c0.1,0,0.2,0,0.2,0   c0.5,0,0.9-0.3,1-0.8c0.1-0.5,0.6-1.9,1.3-2.6c0.7-0.7,2.1-1.1,2.6-1.2c0.5-0.1,0.9-0.6,0.8-1.2C34.8,19.6,34.2,19.3,33.7,19.4z"/>
	<path fill="#006064" d="M17.9,21.1c-1.2-1.2-3.4-1.7-3.6-1.7c-0.5-0.1-1.1,0.2-1.2,0.8c-0.1,0.5,0.2,1.1,0.8,1.2   c0.5,0.1,1.9,0.5,2.6,1.2c0.7,0.7,1.2,2.1,1.3,2.6c0.1,0.5,0.5,0.8,1,0.8c0.1,0,0.2,0,0.2,0c0.5-0.1,0.9-0.7,0.7-1.2   C19.7,24.4,19.1,22.3,17.9,21.1z"/>
</g>
</svg>