<?xml version="1.0" encoding="utf-8"?><!-- Generator: Adobe Illustrator 18.1.1, SVG Export Plug-In . SVG Version: 6.00 Build 0)  --><svg xmlns="http://www.w3.org/2000/svg" xmlns:xlink="http://www.w3.org/1999/xlink" version="1.1" id="Layer_1" x="0px" y="0px" viewBox="0 0 48 48" enable-background="new 0 0 48 48" xml:space="preserve">
<rect x="29" y="12.9" fill="#BF360C" width="10" height="11.2"/>
<path fill="#3F51B5" d="M44,31v12H24V31c0-6.9,6.9-8.1,6.9-8.1h6.3C37.1,22.9,44,24.1,44,31z"/>
<path fill="#FF9800" d="M34,26.3c-2.4,0-3-3.3-3-3.3v-3.9h6V23C37,23,36.4,26.3,34,26.3z"/>
<path fill="#FFB74D" d="M40,11.3c0-5.1-12-3.3-12,0c0,0.7,0,4,0,4.7c0,3.3,2.7,6,6,6s6-2.7,6-6C40,15.3,40,12,40,11.3z"/>
<path fill="#FF5722" d="M34,5c-3.8,0-9,2.7-9,17l4,1.5V15l7-4l3,3v9.5l4-2.5c0-5.3-0.2-15-6.6-15l-0.6-1H34z"/>
<path fill="#FFB74D" d="M34,27c-2.7,0-3-4-3-4s0.9,3,3,3c2.1,0,3-3,3-3S36.7,27,34,27z"/>
<circle fill="#784719" cx="36.5" cy="16.6" r="0.6"/>
<circle fill="#784719" cx="31.5" cy="16.5" r="0.6"/>
<path fill="#FF9800" d="M14,26.6c-3.2,0-3-3.6-3-3.6v-3.6h6V23C17,23,17.2,26.6,14,26.6z"/>
<g>
	<circle fill="#FFA726" cx="19.5" cy="15.5" r="1.5"/>
	<circle fill="#FFA726" cx="8.5" cy="15.5" r="1.5"/>
</g>
<path fill="#FFB74D" d="M20,11.3c0-5.1-12-3.3-12,0c0,0.7,0,4,0,4.7c0,3.3,2.7,6,6,6s6-2.7,6-6C20,15.3,20,12,20,11.3z"/>
<path fill="#424242" d="M14,5c-4.3,0-7,3.4-7,7.7C7,13.3,7,15,7,15l1.4,0.5V12l8.4-2.8l2.8,2.8v3.5L21,15c0,0,0-1.7,0-2.3  c0-2.8-0.7-5.6-4.2-6.3L16.1,5H14z"/>
<g>
	<circle fill="#784719" cx="16.5" cy="15.5" r="0.6"/>
	<circle fill="#784719" cx="11.5" cy="15.5" r="0.6"/>
</g>
<g>
	<path fill="#009688" d="M17,22.9c0,0-0.4,2.1-3,2.1s-3-2.1-3-2.1S4,24.1,4,31v12h20V31C24,24.1,17,22.9,17,22.9z"/>
</g>
<path fill="#FF9800" d="M24,40c-2.2,0-2-2-2-2v-2.8h4V38C26,38,26.2,40,24,40z"/>
<g>
	<circle fill="#FFA726" cx="28" cy="32.1" r="1"/>
	<circle fill="#FFA726" cx="20" cy="32.1" r="1"/>
</g>
<path fill="#FFB74D" d="M28,30c0-3.4-8-2.2-8,0c0,0.5,0,2.6,0,3.1c0,2.2,1.8,4,4,4s4-1.8,4-4C28,32.6,28,30.4,28,30z"/>
<path fill="#FF5722" d="M24,25.1c-3,0-5,2.5-5,5.5c0,0.4,0,1.6,0,1.6l1,0.4v-2.5l6-2l2,2v2.5l1-0.4c0,0,0-1.2,0-1.6c0-2-0.5-4-3-4.5  l-0.5-1H24z"/>
<g>
	<circle fill="#784719" cx="25.5" cy="32.5" r="0.5"/>
	<circle fill="#784719" cx="22.5" cy="32.5" r="0.5"/>
</g>
<g>
	<path fill="#00BCD4" d="M26,37.3c0,0-0.3,1.7-2,1.7s-2-1.7-2-1.7s-5,0.9-5,5.7h14C31,38.2,26,37.3,26,37.3z"/>
</g>
</svg>