<?xml version="1.0" encoding="utf-8"?>
<!-- Generator: Adobe Illustrator 15.0.0, SVG Export Plug-In . SVG Version: 6.00 Build 0)  -->
<!DOCTYPE svg PUBLIC "-//W3C//DTD SVG 1.1//EN" "http://www.w3.org/Graphics/SVG/1.1/DTD/svg11.dtd">
<svg xmlns="http://www.w3.org/2000/svg" xmlns:xlink="http://www.w3.org/1999/xlink" version="1.1" id="Слой_1" x="0px" y="0px" width="48px" height="48px" viewBox="0 0 48 48" enable-background="new 0 0 48 48" xml:space="preserve">
  <g>
	<rect x="21" y="31" fill="#455A64" width="6" height="5"/>
	<path fill="#455A64" d="M35,37H13c0,0,0-2,2-2s16,0,18,0S35,37,35,37z"/>
</g>
  <rect x="6" y="11" fill="#546E7A" width="36" height="21"/>
  <rect x="8" y="13" fill="#BBDEFB" width="32" height="17"/>
  <g>
	<path fill="#1E88E5" d="M30.598,17h-4.771L24.8,26c0,0,2.103,0,4.565,0c2.849,0,5.028-1.802,5.028-5.37   C34.394,17.069,30.598,17,30.598,17z M29.01,24c-1.072,0-1.359,0-1.359,0l0.658-5h1.222c1.188,0.063,2.438,0.179,2.438,2.125   C31.969,23.57,30.082,24,29.01,24z"/>
	<g>
		<path fill="#1E88E5" d="M14.561,24.553c0-0.504,0.115-0.953,0.115-0.953h2.802c0,0-0.2,1.627,1.482,1.627    c1.181,0,2.132-0.393,2.132-1.456c0-1.599-5.186-0.59-5.186-3.813c0-2.995,2.47-3.921,5.577-3.921c1.188,0,1.979,0.24,2.501,0.57    c-1.128-0.965-2.603-1.55-4.211-1.55c-3.593,0-6.501,2.909-6.501,6.5c0,1.563,0.554,2.997,1.474,4.119    C14.532,25.201,14.561,24.753,14.561,24.553z"/>
		<path fill="#1E88E5" d="M24.716,17.337c0.219,0.36,0.271,0.711,0.271,0.913c0,0.56-0.14,1.037-0.14,1.037h-2.86    c0-0.673-0.334-1.402-1.262-1.402c-0.67,0-1.706,0.307-1.706,1.373c0,1.707,5.237,0.758,5.237,3.697    c0,1.795-1.542,4.261-5.718,4.261c-1.24,0-2.096-0.192-2.684-0.475c1.09,0.823,2.443,1.315,3.919,1.315    c3.591,0,6.499-2.909,6.499-6.5C26.272,19.945,25.686,18.472,24.716,17.337z"/>
	</g>
</g>
</svg>
