<?xml version="1.0" encoding="utf-8"?><!-- Generator: Adobe Illustrator 15.0.0, SVG Export Plug-In . SVG Version: 6.00 Build 0)  --><!DOCTYPE svg PUBLIC "-//W3C//DTD SVG 1.1//EN" "http://www.w3.org/Graphics/SVG/1.1/DTD/svg11.dtd"><svg xmlns="http://www.w3.org/2000/svg" xmlns:xlink="http://www.w3.org/1999/xlink" version="1.1" id="Слой_1" x="0px" y="0px" width="48px" height="48px" viewBox="0 0 48 48" enable-background="new 0 0 48 48" xml:space="preserve">
<g>
	
		<rect x="11.169" y="11" transform="matrix(0.5145 0.8575 -0.8575 0.5145 18.5435 -8.7513)" fill="#546E7A" width="11.662" height="2"/>
	
		<rect x="22.5" y="8.55" transform="matrix(0.7071 0.7071 -0.7071 0.7071 16.4289 -12.663)" fill="#546E7A" width="2" height="9.899"/>
</g>
<rect x="5" y="16" fill="#CFD8DC" width="38" height="26"/>
<path fill="#37474F" d="M32,36c-0.27,0.993-1.014,1.676-2,2c0,0-4.5,1-9.5,1S11,38,11,38c-0.929-0.278-1.691-0.936-2-2c0,0-1-3-1-7  s1-7,1-7c0.296-1.041,0.928-1.615,2-2c0,0,4.5-1,9.5-1s9.5,1,9.5,1c1.086,0.322,1.813,0.938,2,2c0,0,1,3,1,7S32,36,32,36z"/>
<circle fill="#FF1744" cx="38" cy="22" r="2"/>
<g>
	<rect x="35.084" y="32" fill="#90A4AE" width="5.916" height="2"/>
	<rect x="35.084" y="28" fill="#90A4AE" width="5.916" height="2"/>
	<rect x="35.084" y="36" fill="#90A4AE" width="5.916" height="2"/>
</g>
</svg>