<?xml version="1.0" encoding="utf-8"?><!-- Generator: Adobe Illustrator 15.0.0, SVG Export Plug-In . SVG Version: 6.00 Build 0)  --><!DOCTYPE svg PUBLIC "-//W3C//DTD SVG 1.1//EN" "http://www.w3.org/Graphics/SVG/1.1/DTD/svg11.dtd"><svg xmlns="http://www.w3.org/2000/svg" xmlns:xlink="http://www.w3.org/1999/xlink" version="1.1" id="Слой_1" x="0px" y="0px" width="48px" height="48px" viewBox="0 0 48 48" enable-background="new 0 0 48 48" xml:space="preserve">
<path fill="#B0BEC5" d="M44,40c0,1.104-0.896,2-2,2H6c-1.104,0-2-0.896-2-2V27c0-1.104,0.896-2,2-2h36c1.104,0,2,0.896,2,2V40z"/>
<g>
	<polyline fill="none" stroke="#2196F3" stroke-width="2" stroke-linejoin="round" stroke-miterlimit="10" points="22.053,21    22.053,13.223 17.886,7 16.219,7 12.053,13.223 12.053,21  "/>
	<polyline fill="none" stroke="#2196F3" stroke-width="2" stroke-linejoin="round" stroke-miterlimit="10" points="26,7 26,14.222    30.167,20 31.834,20 36,14.222 36,7  "/>
	
		<line fill="none" stroke="#2196F3" stroke-width="2" stroke-linejoin="round" stroke-miterlimit="10" x1="12.053" y1="16" x2="22.053" y2="16"/>
</g>
<rect x="14" y="28" fill="#263238" width="18" height="6"/>
<g>
	<circle fill="#455A64" cx="38" cy="31" r="3"/>
	<circle fill="#455A64" cx="9" cy="31" r="2"/>
	<rect x="12" y="37" fill="#455A64" width="4" height="2"/>
	<rect x="18" y="37" fill="#455A64" width="4" height="2"/>
	<rect x="24" y="37" fill="#455A64" width="4" height="2"/>
	<rect x="30" y="37" fill="#455A64" width="4" height="2"/>
</g>
<rect x="16" y="30" fill="#CDDC39" width="9" height="2"/>
</svg>