<?xml version="1.0" encoding="utf-8"?><!-- Generator: Adobe Illustrator 15.0.0, SVG Export Plug-In . SVG Version: 6.00 Build 0)  --><!DOCTYPE svg PUBLIC "-//W3C//DTD SVG 1.1//EN" "http://www.w3.org/Graphics/SVG/1.1/DTD/svg11.dtd"><svg xmlns="http://www.w3.org/2000/svg" xmlns:xlink="http://www.w3.org/1999/xlink" version="1.1" id="Слой_1" x="0px" y="0px" width="48px" height="48px" viewBox="0 0 48 48" enable-background="new 0 0 48 48" xml:space="preserve">
<path fill="#BF360C" d="M35.996,18c0,0-0.748-1-3-1c-2.25,0-3,1-3,1v-7.001h6V18z"/>
<g>
	<path fill="none" stroke="#E64A19" stroke-width="2" d="M11.997,28c0,0-1.458,4-5,4s-3.208-5.792-1-8"/>
	<path fill="#E64A19" d="M5.583,21.586C6.363,20.805,8.997,20,8.997,20s0.195,3.633-0.586,4.414c-0.781,0.781-2.047,0.781-2.828,0   C4.801,23.633,4.801,22.367,5.583,21.586z"/>
	<path fill="#D84315" d="M27.996,21h-5c0,0-2.969-5.269-3.297-5.887c0.016-0.223-2.203-0.821-2.839-0.863   c-1.126-0.074-0.272,2.653,0.233,3.381l3.781,5.594c0.12,0.196,0.809,0.776,1.405,0.775h5.715c1,0,2-0.353,2-1.499   S28.996,21,27.996,21z"/>
	<path fill="#D84315" d="M17.497,12h-3.999v2.999c0,0-0.125,2.001,1.958,2.001c2.084,0,2.041-2.001,2.041-2.001V12z"/>
</g>
<g>
	<polygon fill="#FF5722" points="13.997,46 12.497,45 10.997,46 10.997,29 14.997,30  "/>
	<path fill="#FF5722" d="M17.497,14.074v0.925c0,0,0.043,2.001-2.041,2.001c-2.083,0-1.958-2.001-1.958-2.001v-0.954   c-0.029,0.001-0.063,0.003-0.091,0.005c-0.919-0.405-6.406-2.049-6.406-2.049l0.005-5c0.001-0.999-0.352-2-1.498-2.001   c-1.146-0.001-1.5,0.998-1.502,1.998L4,12.714c-0.001,0.596,0.576,1.285,0.773,1.406l6.224,3.048c0,3.022,0,12.832,0,12.832h9   c0,0,0-9,0-13C19.997,15,19.671,14.282,17.497,14.074z"/>
	<path fill="#FF5722" d="M15.497,13c-2.481,0-4.5-2.02-4.5-4.501c0-2.483,2.02-4.499,4.5-4.499c2.481,0,4.5,2.016,4.5,4.499   C19.997,10.98,17.979,13,15.497,13"/>
	<path fill="#FF5722" d="M12.858,5.585C13.232,5.875,12.81,7,12.078,7C11.53,7,9.993,6.234,9.997,3   C10.436,4.828,12.773,5.528,12.858,5.585"/>
	<path fill="#FF5722" d="M18.135,5.585C17.761,5.875,18.184,7,18.916,7C19.463,7,21,6.234,20.997,3   C20.558,4.828,18.22,5.528,18.135,5.585"/>
	<polygon fill="#FF5722" points="18.542,44 17.421,42.588 15.687,43.079 19.104,32.484 21.988,35.136  "/>
	<polygon fill="#FF5722" points="21.988,33.563 21.988,35.136 19.954,37.271 14.997,27.595 18.558,25.771  "/>
</g>
<g>
	<path fill="#FFB74D" d="M21.69,25.148c0,0-1.083-0.477-0.542-1.541c0.496-0.975,1.542-0.459,1.542-0.459L25.998,24l1-2l1.997,1.949   L26.998,27h-1L21.69,25.148z"/>
	<polygon fill="#FFB74D" points="36.996,46 39.996,46 36.996,34 32.996,34  "/>
	<polygon fill="#FFB74D" points="29.08,35 29.996,46 32.996,46 32.996,35  "/>
	<path fill="#FFB74D" d="M44.305,25.148c0,0,1.084-0.477,0.542-1.541c-0.496-0.975-1.542-0.459-1.542-0.459L39.996,24l-1-2   L37,23.949L38.996,27h1L44.305,25.148z"/>
	<path fill="#FFB74D" d="M32.996,17c-2.207,0-4-1.795-4-4c0-2.206,1.793-4,4-4s4,1.794,4,4C36.996,15.205,35.203,17,32.996,17"/>
</g>
<path fill="#3F51B5" d="M38.996,22c-1-2-1-4-6-4s-5,2-6,4l2,2l-2,10.939c0,0-0.095,2.061,6,2.061c6.096,0,6-2.061,6-2.061l-2-10.939  L38.996,22z"/>
<path fill="#37474F" d="M15.497,4c-1.556,0-2.93,0.794-3.738,1.998c0.379-0.068,0.883-0.057,1.022-0.051  c1.84-0.104,2.78,1.651,2.78,1.651s0.98-1.877,3.083-1.877c0.134,0,0.255-0.001,0.365-0.001C18.185,4.681,16.925,4,15.497,4z"/>
<path fill="#FF5722" d="M32.996,7c-2.604,0-6,2.073-6,8.891l3,2.109v-5l5-3l1,2v6l3-2.109c0-1.789-0.285-8-4.572-8L33.996,7H32.996z  "/>
<path fill="#FF9800" d="M32.999,17c-0.531,0-1.037-0.109-1.501-0.298v1.853c0,0,0.084,1.445,1.498,1.445s1.502-1.445,1.502-1.445  v-1.852C34.034,16.891,33.529,17,32.999,17z"/>
</svg>