<?xml version="1.0" encoding="utf-8"?><!-- Generator: Adobe Illustrator 18.1.1, SVG Export Plug-In . SVG Version: 6.00 Build 0)  --><svg xmlns="http://www.w3.org/2000/svg" xmlns:xlink="http://www.w3.org/1999/xlink" version="1.1" id="Layer_1" x="0px" y="0px" viewBox="0 0 48 48" enable-background="new 0 0 48 48" xml:space="preserve">
<path fill="#FF8F00" d="M27.7,17.5c1.3,3.7-2.7,12.1-6.3,13.4L13,7.5c7.3-2.6,10.8-1.1,10.8-1.1L27.7,17.5z"/>
<path fill="#FFA000" d="M8,24.7c1.3,3.7,9.8,7.6,13.4,6.3L13,7.5c-7.3,2.6-9,6-9,6L8,24.7z"/>
<g>
	<path fill="#693D14" d="M22.9,15.8c0,0-2.2-1.6-5.2-0.9c0,0,0.3-2.1,2-2.1C22.1,12.7,22.9,15.8,22.9,15.8z"/>
	<path fill="#693D14" d="M18.5,22.7c3.4-1.2,5.6,0,5.6,0s-2.8-3.6-6.4-2.3c-3.6,1.3-3.5,5.8-3.5,5.8S15.1,23.9,18.5,22.7z"/>
	<path fill="#693D14" d="M10.6,20.2c0,0,0.6-2.7,3.4-4c0,0-1.6-1.4-2.9-0.3C9.3,17.3,10.6,20.2,10.6,20.2z"/>
</g>
<path fill="#FFB300" d="M40.4,33.9c-1.2,4.2-10.2,9.1-14.3,7.9l7.6-26.4c8.2,2.4,10.3,6,10.3,6L40.4,33.9z"/>
<path fill="#FFC107" d="M18.2,27.5C17,31.7,22,40.7,26.1,41.8l7.6-26.4C25.5,13.1,21.8,15,21.8,15L18.2,27.5z"/>
<g>
	<path fill="#694A14" d="M38.3,28.1c0,0-1.5-2.1-5.3-2.6c0,0,1.5-1.5,3.3-1C38.4,25.1,38.3,28.1,38.3,28.1z"/>
	<path fill="#694A14" d="M23.1,23.7c0,0,2.4-1,5.8,0.6c0,0-0.5-2.1-2.3-2.6C24.6,21.1,23.1,23.7,23.1,23.7z"/>
	<path fill="#694A14" d="M28.9,32c-4.3-1.2-5.6-4.1-5.6-4.1s0.2,5.6,4.8,6.9c4.6,1.3,7.7-3.3,7.7-3.3S33.2,33.3,28.9,32z"/>
</g>
</svg>