<?xml version="1.0" encoding="utf-8"?><!-- Generator: Adobe Illustrator 18.1.1, SVG Export Plug-In . SVG Version: 6.00 Build 0)  --><svg xmlns="http://www.w3.org/2000/svg" xmlns:xlink="http://www.w3.org/1999/xlink" version="1.1" id="Layer_1" x="0px" y="0px" viewBox="0 0 48 48" enable-background="new 0 0 48 48" xml:space="preserve">
<path fill="#D32F2F" d="M24,4C12.9,4,4,12.9,4,24s8.9,20,20,20s20-8.9,20-20S35.1,4,24,4z"/>
<g>
	<path fill="#E53935" d="M9.9,9.9c-1.2,1.2-2.2,2.5-3,3.9L24,24L13.7,6.9C12.3,7.7,11,8.7,9.9,9.9z"/>
	<path fill="#E53935" d="M24,24l10.3,17.1c1.4-0.8,2.7-1.8,3.9-3s2.2-2.5,3-3.9L24,24z"/>
</g>
<path fill="#CFD8DC" d="M24,40c-8.8,0-16-7.2-16-16S15.2,8,24,8s16,7.2,16,16S32.8,40,24,40z"/>
<g>
	<path fill="#FAFAFA" d="M24,24l-8.2-13.7c-1.1,0.7-2.1,1.4-3.1,2.4s-1.7,2-2.4,3.1L24,24z"/>
	<path fill="#FAFAFA" d="M35.3,35.3c0.9-0.9,1.7-2,2.4-3.1L24,24l8.2,13.7C33.3,37,34.4,36.3,35.3,35.3z"/>
</g>
<path fill="#D32F2F" d="M24,12c-6.7,0-12,5.3-12,12s5.3,12,12,12s12-5.3,12-12S30.7,12,24,12z"/>
<g>
	<path fill="#E53935" d="M32.5,32.5c0.7-0.7,1.3-1.5,1.8-2.3L24,24l6.2,10.3C31,33.8,31.8,33.2,32.5,32.5z"/>
	<path fill="#E53935" d="M24,24l-6.2-10.3c-0.8,0.5-1.6,1.1-2.3,1.8s-1.3,1.5-1.8,2.3L24,24z"/>
</g>
<path fill="#1565C0" d="M24,32c-4.4,0-8-3.6-8-8s3.6-8,8-8s8,3.6,8,8S28.4,32,24,32z"/>
<g>
	<path fill="#2F76C7" d="M29.7,29.7c0.5-0.5,0.9-1,1.2-1.5L24,24l4.1,6.9C28.7,30.5,29.2,30.1,29.7,29.7z"/>
	<path fill="#2F76C7" d="M24,24l-4.1-6.9c-0.6,0.3-1.1,0.7-1.5,1.2c-0.5,0.5-0.9,1-1.2,1.5L24,24z"/>
</g>
<polygon fill="#CFD8DC" points="19.6,30.1 21.3,24.7 16.9,21.2 22.4,21.2 24,16.3 25.7,21.2 31.3,21.2 26.9,24.7 28.5,30 24,26.8   "/>
</svg>