<?xml version="1.0" encoding="iso-8859-1"?>
<!-- Generator: Adobe Illustrator 18.0.0, SVG Export Plug-In . SVG Version: 6.00 Build 0)  -->
<!DOCTYPE svg PUBLIC "-//W3C//DTD SVG 1.1//EN" "http://www.w3.org/Graphics/SVG/1.1/DTD/svg11.dtd">
<svg xmlns="http://www.w3.org/2000/svg" xmlns:xlink="http://www.w3.org/1999/xlink" version="1.1" id="Capa_1" x="0px" y="0px" viewBox="0 0 218.598 218.598" style="enable-background:new 0 0 218.598 218.598;" xml:space="preserve">
  <g>
	<path style="fill:none;stroke:#000000;stroke-width:15;stroke-linecap:round;stroke-linejoin:round;stroke-miterlimit:10;" d="   M134.284,96.725V21.213c0-7.538-6.115-13.713-13.72-13.713c-7.586,0-13.713,6.175-13.713,13.713v75.512"/>
	<path style="fill:none;stroke:#000000;stroke-width:15;stroke-linecap:round;stroke-linejoin:round;stroke-miterlimit:10;" d="   M161.719,105.88v-75.5c0-7.598-6.116-13.714-13.709-13.714c-7.559,0-13.725,6.116-13.725,13.714v66.345"/>
	<path style="fill:none;stroke:#000000;stroke-width:15;stroke-linecap:round;stroke-linejoin:round;stroke-miterlimit:10;" d="   M106.852,96.725V39.537c0-7.595-6.162-13.723-13.709-13.723c-7.6,0-13.715,6.128-13.715,13.723v80.063L60.875,94.219   c-5.492-8.435-16.218-11.303-24.074-6.432c-7.824,4.958-9.744,15.754-4.334,24.22c0,0,45.187,99.091,91.721,99.091   c55.646,0,65.014-49.335,65.014-64.069V57.806c0-7.542-6.184-13.714-13.768-13.714c-7.541,0-13.715,6.172-13.715,13.714v48.074"/>
</g>
  <g>
</g>
  <g>
</g>
  <g>
</g>
  <g>
</g>
  <g>
</g>
  <g>
</g>
  <g>
</g>
  <g>
</g>
  <g>
</g>
  <g>
</g>
  <g>
</g>
  <g>
</g>
  <g>
</g>
  <g>
</g>
  <g>
</g>
</svg>
