<?xml version="1.0" encoding="iso-8859-1"?>
<!-- Generator: Adobe Illustrator 18.0.0, SVG Export Plug-In . SVG Version: 6.00 Build 0)  -->
<!DOCTYPE svg PUBLIC "-//W3C//DTD SVG 1.1//EN" "http://www.w3.org/Graphics/SVG/1.1/DTD/svg11.dtd">
<svg xmlns="http://www.w3.org/2000/svg" xmlns:xlink="http://www.w3.org/1999/xlink" version="1.1" id="Capa_1" x="0px" y="0px" viewBox="0 0 228.804 228.804" style="enable-background:new 0 0 228.804 228.804;" xml:space="preserve">
  <g>
	<path style="fill:none;stroke:#000000;stroke-width:15;stroke-linecap:round;stroke-linejoin:round;stroke-miterlimit:10;" d="   M163.763,221.304c16.451,0,28.648-7.957,28.648-24.42c0-8.323-4.482-16.279-14.037-31.334v0.022c0,0-18.521-29.457-33.648-44.041   c-10.611-10.189-27.783-10.137-27.783-10.137v0.023h-5.08c0,0-16.451-0.056-27.748,10.113   c-15.637,14.092-33.674,44.041-33.674,44.041c-9.522,15.051-14.047,23.007-14.047,31.344c0,16.431,12.236,24.388,28.658,24.388   H163.763z"/>
	<g>
		<path style="fill:none;stroke:#000000;stroke-width:15;stroke-linecap:round;stroke-linejoin:round;stroke-miterlimit:10;" d="    M78.2,78.231c12.539,0,22.689-15.833,22.689-35.37C100.89,23.33,90.74,7.5,78.2,7.5c-12.523,0-22.688,15.83-22.688,35.361    C55.513,62.398,65.677,78.231,78.2,78.231L78.2,78.231z"/>
		<path style="fill:none;stroke:#000000;stroke-width:15;stroke-linecap:round;stroke-linejoin:round;stroke-miterlimit:10;" d="    M43.917,128.676c9.223-4.288,11.326-19.401,4.693-33.785c-6.652-14.398-19.51-22.606-28.76-18.349    c-9.24,4.275-11.334,19.404-4.709,33.792C21.794,124.724,34.658,132.924,43.917,128.676L43.917,128.676z"/>
		<path style="fill:none;stroke:#000000;stroke-width:15;stroke-linecap:round;stroke-linejoin:round;stroke-miterlimit:10;" d="    M150.593,78.231c12.529,0,22.68-15.833,22.68-35.37c0-19.531-10.15-35.361-22.68-35.361c-12.541,0-22.707,15.83-22.707,35.361    C127.886,62.398,138.052,78.231,150.593,78.231L150.593,78.231z"/>
		<path style="fill:none;stroke:#000000;stroke-width:15;stroke-linecap:round;stroke-linejoin:round;stroke-miterlimit:10;" d="    M208.952,76.542c-9.238-4.28-22.094,3.95-28.752,18.349c-6.666,14.384-4.541,29.497,4.691,33.785    c9.26,4.249,22.121-3.952,28.766-18.342C220.292,95.946,218.189,80.817,208.952,76.542L208.952,76.542z"/>
	</g>
</g>
  <g>
</g>
  <g>
</g>
  <g>
</g>
  <g>
</g>
  <g>
</g>
  <g>
</g>
  <g>
</g>
  <g>
</g>
  <g>
</g>
  <g>
</g>
  <g>
</g>
  <g>
</g>
  <g>
</g>
  <g>
</g>
  <g>
</g>
</svg>
