<?xml version="1.0" encoding="iso-8859-1"?>
<!-- Generator: Adobe Illustrator 18.0.0, SVG Export Plug-In . SVG Version: 6.00 Build 0)  -->
<!DOCTYPE svg PUBLIC "-//W3C//DTD SVG 1.1//EN" "http://www.w3.org/Graphics/SVG/1.1/DTD/svg11.dtd">
<svg xmlns="http://www.w3.org/2000/svg" xmlns:xlink="http://www.w3.org/1999/xlink" version="1.1" id="Capa_1" x="0px" y="0px" viewBox="0 0 232.395 232.395" style="enable-background:new 0 0 232.395 232.395;" xml:space="preserve">
  <g>
	<path style="fill:none;stroke:#000000;stroke-width:15;stroke-linecap:round;stroke-linejoin:round;stroke-miterlimit:10;" d="   M69.359,94.514c-17.197-6.281-29.477-22.784-29.477-42.148C39.883,27.591,59.975,7.5,84.756,7.5   c24.768,0,44.859,20.091,44.859,44.866c0,19.361-12.283,35.866-29.467,42.148"/>
	<g>
		<path style="fill:none;stroke:#000000;stroke-width:15;stroke-linecap:round;stroke-linejoin:round;stroke-miterlimit:10;" d="    M192.512,106.15c0-8.505-6.893-15.393-15.391-15.393c-8.5,0-15.393,6.888-15.393,15.393c0-8.505-6.893-15.393-15.393-15.393    c-8.498,0-15.407,6.888-15.407,15.393c0-8.505-6.885-15.393-15.39-15.393c-8.496,0-15.391,6.888-15.391,15.393V52.366    c0-8.507-6.895-15.402-15.393-15.402c-8.496,0-15.404,6.896-15.404,15.402v110.956l0,0l0,0c0,34.014,27.577,61.572,61.577,61.572    c34.018,0,61.583-27.559,61.583-61.572l0,0l0,0V106.15z"/>
		
			<line style="fill:none;stroke:#000000;stroke-width:15;stroke-linecap:round;stroke-linejoin:round;stroke-miterlimit:10;" x1="100.148" y1="106.15" x2="100.148" y2="122.602"/>
		
			<line style="fill:none;stroke:#000000;stroke-width:15;stroke-linecap:round;stroke-linejoin:round;stroke-miterlimit:10;" x1="130.929" y1="106.15" x2="130.929" y2="122.602"/>
		
			<line style="fill:none;stroke:#000000;stroke-width:15;stroke-linecap:round;stroke-linejoin:round;stroke-miterlimit:10;" x1="161.729" y1="106.15" x2="161.729" y2="122.602"/>
	</g>
</g>
  <g>
</g>
  <g>
</g>
  <g>
</g>
  <g>
</g>
  <g>
</g>
  <g>
</g>
  <g>
</g>
  <g>
</g>
  <g>
</g>
  <g>
</g>
  <g>
</g>
  <g>
</g>
  <g>
</g>
  <g>
</g>
  <g>
</g>
</svg>
