<?xml version="1.0" encoding="iso-8859-1"?>
<!-- Generator: Adobe Illustrator 18.0.0, SVG Export Plug-In . SVG Version: 6.00 Build 0)  -->
<!DOCTYPE svg PUBLIC "-//W3C//DTD SVG 1.1//EN" "http://www.w3.org/Graphics/SVG/1.1/DTD/svg11.dtd">
<svg xmlns="http://www.w3.org/2000/svg" xmlns:xlink="http://www.w3.org/1999/xlink" version="1.1" id="Capa_1" x="0px" y="0px" viewBox="0 0 262.02 262.02" style="enable-background:new 0 0 262.02 262.02;" xml:space="preserve">
  <g>
	<g>
		<path style="fill:none;stroke:#000000;stroke-width:15;stroke-linecap:round;stroke-linejoin:round;stroke-miterlimit:10;" d="    M154.115,30.705c0,12.816-10.381,23.199-23.201,23.199c-12.81,0-23.203-10.383-23.203-23.199c0-12.82,10.393-23.205,23.203-23.205    C143.734,7.5,154.115,17.885,154.115,30.705z"/>
		<path style="fill:none;stroke:#000000;stroke-width:15;stroke-linecap:round;stroke-linejoin:round;stroke-miterlimit:10;" d="    M108.744,169.203c-7.104-3.779-11.96-11.273-11.96-19.846V98.873c0-12.352,10.1-22.459,22.456-22.459h23.54    c12.351,0,22.457,10.107,22.457,22.459v50.484c0,8.572-4.859,16.066-11.964,19.846"/>
		
			<line style="fill:none;stroke:#000000;stroke-width:15;stroke-linecap:round;stroke-linejoin:round;stroke-miterlimit:10;" x1="108.749" y1="254.52" x2="108.749" y2="169.203"/>
		
			<line style="fill:none;stroke:#000000;stroke-width:15;stroke-linecap:round;stroke-linejoin:round;stroke-miterlimit:10;" x1="153.268" y1="254.52" x2="153.268" y2="169.203"/>
	</g>
</g>
  <g>
</g>
  <g>
</g>
  <g>
</g>
  <g>
</g>
  <g>
</g>
  <g>
</g>
  <g>
</g>
  <g>
</g>
  <g>
</g>
  <g>
</g>
  <g>
</g>
  <g>
</g>
  <g>
</g>
  <g>
</g>
  <g>
</g>
</svg>
