<?xml version="1.0" encoding="iso-8859-1"?>
<!-- Generator: Adobe Illustrator 18.0.0, SVG Export Plug-In . SVG Version: 6.00 Build 0)  -->
<!DOCTYPE svg PUBLIC "-//W3C//DTD SVG 1.1//EN" "http://www.w3.org/Graphics/SVG/1.1/DTD/svg11.dtd">
<svg xmlns="http://www.w3.org/2000/svg" xmlns:xlink="http://www.w3.org/1999/xlink" version="1.1" id="Capa_1" x="0px" y="0px" viewBox="0 0 235.281 235.281" style="enable-background:new 0 0 235.281 235.281;" xml:space="preserve">
  <g>
	<path style="fill:none;stroke:#000000;stroke-width:15;stroke-linecap:round;stroke-linejoin:round;stroke-miterlimit:10;" d="   M33.562,56.115C-1.19,90.87-1.186,146.467,33.568,181.21c34.751,34.751,90.342,34.751,125.093,0c5.563-5.563,5.571-15.27,0-20.831   c-2.786-2.788-7.432-3.583-9.741-4.183c-1.866-0.483-6.883-1.39-9.67-4.166c-5.566-5.563-5.594-15.309-0.033-20.88l12.494-12.485   c19.473-19.481,19.473-50.024-0.01-69.509C121.124,18.582,68.312,21.36,33.562,56.115L33.562,56.115z"/>
	<path style="fill:none;stroke:#000000;stroke-width:15;stroke-linecap:round;stroke-linejoin:round;stroke-miterlimit:10;" d="   M60.327,151.663c-4.998,5.01-13.738,5.01-18.752,0c-5.008-5.007-5.008-13.742,0-18.753c5.012-5.006,13.744-4.999,18.758,0.011   C65.343,137.928,65.343,146.656,60.327,151.663L60.327,151.663z"/>
	<path style="fill:none;stroke:#000000;stroke-width:15;stroke-linecap:round;stroke-linejoin:round;stroke-miterlimit:10;" d="   M54.066,107.898c-5.006,5.007-13.744,5.007-18.759,0c-5.003-5.007-5.003-13.742,0.011-18.752   c5.004-5.018,13.742-5.018,18.748-0.007C59.079,94.155,59.079,102.891,54.066,107.898L54.066,107.898z"/>
	<path style="fill:none;stroke:#000000;stroke-width:15;stroke-linecap:round;stroke-linejoin:round;stroke-miterlimit:10;" d="   M85.342,76.616c-5.009,5.009-13.745,5.009-18.751,0c-5.011-5.001-5.011-13.738,0.006-18.753c5.008-5.006,13.746-5.006,18.745,0   C90.358,62.874,90.358,71.609,85.342,76.616L85.342,76.616z"/>
	<path style="fill:none;stroke:#000000;stroke-width:15;stroke-linecap:round;stroke-linejoin:round;stroke-miterlimit:10;" d="   M129.148,82.855c-5.008,5.006-13.769,5.037-18.785,0.03c-5.006-5.017-4.975-13.778,0.031-18.784c4.984-4.983,13.746-5.015,18.754,0   C134.163,69.107,134.122,77.868,129.148,82.855L129.148,82.855z"/>
	<g>
		<path style="fill:none;stroke:#000000;stroke-width:15;stroke-linecap:round;stroke-linejoin:round;stroke-miterlimit:10;" d="    M218.583,161.265c0.484-5.11,1.484-11.432,1.548-25.92c0.144-29.176-5.46-118.02-11.345-117.931    c-5.883,0.081-12.32,89.114-12.463,118.29c-0.064,14.486,0.872,20.771,1.316,25.891"/>
		<path style="fill:none;stroke:#000000;stroke-width:15;stroke-linecap:round;stroke-linejoin:round;stroke-miterlimit:10;" d="    M208.728,161.527c-10.563,0.112-19.182,5.994-19.244,15.849c-0.111,15.276,14.172,16.539,15.498,38.309    c0.598,9.838,22.633-15.445,22.799-38.705C227.844,167.131,219.3,161.427,208.728,161.527z"/>
	</g>
</g>
  <g>
</g>
  <g>
</g>
  <g>
</g>
  <g>
</g>
  <g>
</g>
  <g>
</g>
  <g>
</g>
  <g>
</g>
  <g>
</g>
  <g>
</g>
  <g>
</g>
  <g>
</g>
  <g>
</g>
  <g>
</g>
  <g>
</g>
</svg>
