<?xml version="1.0" encoding="iso-8859-1"?>
<!-- Generator: Adobe Illustrator 18.0.0, SVG Export Plug-In . SVG Version: 6.00 Build 0)  -->
<!DOCTYPE svg PUBLIC "-//W3C//DTD SVG 1.1//EN" "http://www.w3.org/Graphics/SVG/1.1/DTD/svg11.dtd">
<svg xmlns="http://www.w3.org/2000/svg" xmlns:xlink="http://www.w3.org/1999/xlink" version="1.1" id="Capa_1" x="0px" y="0px" viewBox="0 0 221.719 221.719" style="enable-background:new 0 0 221.719 221.719;" xml:space="preserve">
  <path style="fill:none;stroke:#000000;stroke-width:15;stroke-linecap:round;stroke-linejoin:round;stroke-miterlimit:10;" d="  M173.702,176.023l-4.602-7.685c-7.716-12.72-20.114-30.422-33.766-24.747l-8.168,3.502c-5.943,2.459-21.03,14.184-38.111-22.392  c-16.412-35.149,4.471-40.204,10.413-42.649l8.199-3.453c13.633-5.7,10.079-27.103,6.405-41.532l-2.189-8.72  c-3.748-14.41-9.512-24.975-23.104-19.273c0,0-29.902,11.742-39.995,31.722c-12.164,23.979-9.684,56.86,7.499,97.681  c17.039,40.836,38.75,65.659,64.408,73.804c21.283,6.76,50.648-6.318,50.648-6.318C184.897,200.252,181.43,188.784,173.702,176.023z  "/>
  <g>
</g>
  <g>
</g>
  <g>
</g>
  <g>
</g>
  <g>
</g>
  <g>
</g>
  <g>
</g>
  <g>
</g>
  <g>
</g>
  <g>
</g>
  <g>
</g>
  <g>
</g>
  <g>
</g>
  <g>
</g>
  <g>
</g>
</svg>
