<?xml version="1.0" encoding="iso-8859-1"?>
<!-- Generator: Adobe Illustrator 18.0.0, SVG Export Plug-In . SVG Version: 6.00 Build 0)  -->
<!DOCTYPE svg PUBLIC "-//W3C//DTD SVG 1.1//EN" "http://www.w3.org/Graphics/SVG/1.1/DTD/svg11.dtd">
<svg xmlns="http://www.w3.org/2000/svg" xmlns:xlink="http://www.w3.org/1999/xlink" version="1.1" id="Capa_1" x="0px" y="0px" viewBox="0 0 215.137 215.137" style="enable-background:new 0 0 215.137 215.137;" xml:space="preserve">
  <g>
	<path style="fill:none;stroke:#000000;stroke-width:15;stroke-linecap:round;stroke-linejoin:round;stroke-miterlimit:10;" d="   M133.303,188.956c-11.54,11.541-27.483,18.681-45.096,18.681c-35.213,0-63.765-28.56-63.765-63.768   c0-17.615,7.137-33.559,18.675-45.099"/>
	
		<polyline style="fill:none;stroke:#000000;stroke-width:15;stroke-linecap:round;stroke-linejoin:round;stroke-miterlimit:10;" points="   190.694,174.706 164.09,174.706 149.094,133.1 85.982,133.1 85.982,53.779  "/>
	
		<line style="fill:none;stroke:#000000;stroke-width:15;stroke-linecap:round;stroke-linejoin:round;stroke-miterlimit:10;" x1="145.131" y1="84.424" x2="85.982" y2="84.424"/>
	<path style="stroke:#000000;stroke-miterlimit:10;" d="M104.485,18.715c0,10.069-8.157,18.224-18.221,18.224   c-10.063,0-18.219-8.154-18.219-18.224C68.046,8.661,76.202,0.5,86.265,0.5C96.328,0.5,104.485,8.661,104.485,18.715z"/>
</g>
  <g>
</g>
  <g>
</g>
  <g>
</g>
  <g>
</g>
  <g>
</g>
  <g>
</g>
  <g>
</g>
  <g>
</g>
  <g>
</g>
  <g>
</g>
  <g>
</g>
  <g>
</g>
  <g>
</g>
  <g>
</g>
  <g>
</g>
</svg>
