<?xml version="1.0" encoding="iso-8859-1"?>
<!-- Generator: Adobe Illustrator 18.0.0, SVG Export Plug-In . SVG Version: 6.00 Build 0)  -->
<!DOCTYPE svg PUBLIC "-//W3C//DTD SVG 1.1//EN" "http://www.w3.org/Graphics/SVG/1.1/DTD/svg11.dtd">
<svg xmlns="http://www.w3.org/2000/svg" xmlns:xlink="http://www.w3.org/1999/xlink" version="1.1" id="Capa_1" x="0px" y="0px" viewBox="0 0 264.734 264.734" style="enable-background:new 0 0 264.734 264.734;" xml:space="preserve">
  <g>
	
		<line style="fill:none;stroke:#000000;stroke-width:15;stroke-linecap:round;stroke-linejoin:round;stroke-miterlimit:10;" x1="34.143" y1="60.355" x2="194.012" y2="60.355"/>
	
		<line style="fill:none;stroke:#000000;stroke-width:15;stroke-linecap:round;stroke-linejoin:round;stroke-miterlimit:10;" x1="53.887" y1="164.011" x2="174.264" y2="164.011"/>
	
		<line style="fill:none;stroke:#000000;stroke-width:15;stroke-linecap:round;stroke-linejoin:round;stroke-miterlimit:10;" x1="53.887" y1="198.558" x2="174.264" y2="198.558"/>
	
		<polyline style="fill:none;stroke:#000000;stroke-width:15;stroke-linecap:round;stroke-linejoin:round;stroke-miterlimit:10;" points="   7.5,220.622 7.5,25.828 220.65,25.828 220.65,220.622  "/>
	
		<line style="fill:none;stroke:#000000;stroke-width:15;stroke-linecap:round;stroke-linejoin:round;stroke-miterlimit:10;" x1="238.941" y1="238.907" x2="25.783" y2="238.907"/>
	<g>
		
			<polyline style="fill:none;stroke:#000000;stroke-width:15;stroke-linecap:round;stroke-linejoin:round;stroke-miterlimit:10;" points="    257.234,220.622 257.234,60.593 220.65,60.593 220.65,220.622   "/>
		<path style="fill:none;stroke:#000000;stroke-width:15;stroke-linecap:round;stroke-linejoin:round;stroke-miterlimit:10;" d="    M220.65,220.622c0,10.093,8.189,18.285,18.291,18.285c10.104,0,18.293-8.192,18.293-18.285"/>
	</g>
	<g>
		<path style="fill:none;stroke:#000000;stroke-width:15;stroke-linecap:round;stroke-linejoin:round;stroke-miterlimit:10;" d="    M7.5,220.622c0,10.093,8.182,18.285,18.283,18.285"/>
	</g>
	<g>
		<path style="stroke:#000000;stroke-width:0.5;stroke-miterlimit:10;" d="M42.82,102.703l5.781,19.809l5.258-18.412    c0.563-1.933,0.984-3.245,1.252-3.952c0.27-0.704,0.775-1.378,1.525-2.01c0.744-0.642,1.764-0.961,3.064-0.961    c1.328,0,2.359,0.319,3.106,0.961c0.744,0.632,1.27,1.326,1.574,2.074c0.307,0.757,0.727,2.047,1.266,3.888l5.264,18.412    l5.844-19.809c0.393-1.431,0.701-2.471,0.947-3.106c0.232-0.644,0.637-1.206,1.197-1.685c0.564-0.485,1.375-0.735,2.434-0.735    c1.061,0,1.982,0.381,2.762,1.112c0.777,0.736,1.168,1.601,1.168,2.591c0,0.908-0.332,2.287-1.006,4.129l-7.242,21.234    c-0.625,1.806-1.115,3.106-1.465,3.9c-0.342,0.807-0.887,1.515-1.639,2.145c-0.738,0.624-1.764,0.94-3.064,0.94    c-1.342,0-2.402-0.332-3.164-1.008c-0.771-0.674-1.336-1.491-1.705-2.464c-0.369-0.977-0.775-2.241-1.201-3.797l-5.074-17.282    l-4.9,17.282c-0.65,2.393-1.359,4.211-2.107,5.425c-0.764,1.226-2.092,1.844-3.996,1.844c-0.977,0-1.803-0.189-2.484-0.573    c-0.682-0.378-1.254-0.921-1.707-1.628c-0.451-0.698-0.859-1.523-1.209-2.5c-0.336-0.955-0.607-1.716-0.807-2.284l-7.172-21.234    c-0.715-1.995-1.072-3.365-1.072-4.129c0-0.943,0.381-1.799,1.139-2.554c0.758-0.762,1.686-1.149,2.787-1.149    c1.475,0,2.471,0.421,2.994,1.246C41.68,99.26,42.23,100.686,42.82,102.703z"/>
		<path style="stroke:#000000;stroke-width:0.5;stroke-miterlimit:10;" d="M96.893,102.703l5.775,19.809l5.262-18.412    c0.563-1.933,0.984-3.245,1.252-3.952c0.27-0.704,0.783-1.378,1.525-2.01c0.744-0.642,1.775-0.961,3.07-0.961    c1.318,0,2.35,0.319,3.1,0.961c0.752,0.632,1.273,1.326,1.57,2.074c0.307,0.757,0.734,2.047,1.275,3.888l5.26,18.412l5.842-19.809    c0.389-1.431,0.707-2.471,0.941-3.106c0.234-0.644,0.641-1.206,1.201-1.685c0.566-0.485,1.377-0.735,2.438-0.735    c1.061,0,1.982,0.381,2.758,1.112c0.781,0.736,1.178,1.601,1.178,2.591c0,0.908-0.342,2.287-1.016,4.129l-7.24,21.234    c-0.623,1.806-1.117,3.106-1.459,3.9c-0.348,0.807-0.895,1.515-1.643,2.145c-0.744,0.624-1.766,0.94-3.064,0.94    c-1.348,0-2.404-0.332-3.168-1.008c-0.775-0.674-1.338-1.491-1.705-2.464c-0.369-0.977-0.766-2.241-1.205-3.797l-5.063-17.282    l-4.904,17.282c-0.648,2.393-1.355,4.211-2.109,5.425c-0.764,1.226-2.092,1.844-4,1.844c-0.977,0-1.799-0.189-2.484-0.573    c-0.678-0.378-1.248-0.921-1.699-1.628c-0.451-0.698-0.855-1.523-1.205-2.5c-0.35-0.955-0.619-1.716-0.809-2.284l-7.186-21.234    c-0.713-1.995-1.066-3.365-1.066-4.129c0-0.943,0.385-1.799,1.137-2.554c0.762-0.762,1.691-1.149,2.797-1.149    c1.469,0,2.469,0.421,2.982,1.246C95.756,99.26,96.305,100.686,96.893,102.703z"/>
		<path style="stroke:#000000;stroke-width:0.5;stroke-miterlimit:10;" d="M150.957,102.703l5.783,19.809l5.264-18.412    c0.555-1.933,0.979-3.245,1.246-3.952c0.277-0.704,0.781-1.378,1.529-2.01c0.748-0.642,1.768-0.961,3.066-0.961    c1.316,0,2.354,0.319,3.102,0.961c0.746,0.632,1.275,1.326,1.58,2.074c0.301,0.757,0.721,2.047,1.266,3.888l5.256,18.412    l5.85-19.809c0.385-1.431,0.703-2.471,0.936-3.106c0.24-0.644,0.645-1.206,1.205-1.685c0.559-0.485,1.375-0.735,2.438-0.735    c1.061,0,1.979,0.381,2.754,1.112c0.783,0.736,1.178,1.601,1.178,2.591c0,0.908-0.346,2.287-1.01,4.129l-7.242,21.234    c-0.623,1.806-1.115,3.106-1.463,3.9c-0.35,0.807-0.889,1.515-1.639,2.145c-0.75,0.624-1.771,0.94-3.066,0.94    c-1.342,0-2.396-0.332-3.174-1.008c-0.76-0.674-1.33-1.491-1.699-2.464c-0.375-0.977-0.77-2.241-1.201-3.797l-5.068-17.282    l-4.898,17.282c-0.658,2.393-1.359,4.211-2.107,5.425c-0.764,1.226-2.096,1.844-4.006,1.844c-0.971,0-1.803-0.189-2.477-0.573    c-0.686-0.378-1.252-0.921-1.707-1.628c-0.455-0.698-0.859-1.523-1.205-2.5c-0.348-0.955-0.615-1.716-0.813-2.284l-7.176-21.234    c-0.713-1.995-1.072-3.365-1.072-4.129c0-0.943,0.381-1.799,1.137-2.554c0.762-0.762,1.686-1.149,2.793-1.149    c1.473,0,2.469,0.421,2.982,1.246C149.814,99.26,150.379,100.686,150.957,102.703z"/>
	</g>
</g>
  <g>
</g>
  <g>
</g>
  <g>
</g>
  <g>
</g>
  <g>
</g>
  <g>
</g>
  <g>
</g>
  <g>
</g>
  <g>
</g>
  <g>
</g>
  <g>
</g>
  <g>
</g>
  <g>
</g>
  <g>
</g>
  <g>
</g>
</svg>
