<?xml version="1.0" encoding="iso-8859-1"?>
<!-- Generator: Adobe Illustrator 18.0.0, SVG Export Plug-In . SVG Version: 6.00 Build 0)  -->
<!DOCTYPE svg PUBLIC "-//W3C//DTD SVG 1.1//EN" "http://www.w3.org/Graphics/SVG/1.1/DTD/svg11.dtd">
<svg xmlns="http://www.w3.org/2000/svg" xmlns:xlink="http://www.w3.org/1999/xlink" version="1.1" id="Capa_1" x="0px" y="0px" viewBox="0 0 233.183 233.183" style="enable-background:new 0 0 233.183 233.183;" xml:space="preserve">
  <g>
	<g>
		<g>
			<path style="fill:none;stroke:#000000;stroke-width:15;stroke-linecap:round;stroke-linejoin:round;stroke-miterlimit:10;" d="     M93.625,57.317c0,23.789-19.279,43.063-43.057,43.063C26.781,100.38,7.5,81.106,7.5,57.317c0-23.785,19.281-43.064,43.068-43.064     C74.346,14.253,93.625,33.532,93.625,57.317z"/>
			
				<line style="fill:none;stroke:#000000;stroke-width:15;stroke-linecap:round;stroke-linejoin:round;stroke-miterlimit:10;" x1="81.012" y1="87.77" x2="107.523" y2="114.278"/>
		</g>
		<g>
			<g>
				<path style="fill:none;stroke:#000000;stroke-width:15;stroke-linecap:round;stroke-linejoin:round;stroke-miterlimit:10;" d="      M209.731,48.748c0,18.383-14.889,33.273-33.277,33.273c-18.373,0-33.28-14.891-33.28-33.273      c0-18.389,14.908-33.283,33.28-33.283C194.842,15.465,209.731,30.359,209.731,48.748z"/>
				<path style="fill:none;stroke:#000000;stroke-width:15;stroke-linecap:round;stroke-linejoin:round;stroke-miterlimit:10;" d="      M127.501,218.93v-72.408c0-17.717,14.486-32.213,32.209-32.213h33.763c17.715,0,32.21,14.496,32.21,32.213v72.408"/>
			</g>
		</g>
	</g>
</g>
  <g>
</g>
  <g>
</g>
  <g>
</g>
  <g>
</g>
  <g>
</g>
  <g>
</g>
  <g>
</g>
  <g>
</g>
  <g>
</g>
  <g>
</g>
  <g>
</g>
  <g>
</g>
  <g>
</g>
  <g>
</g>
  <g>
</g>
</svg>
