<?xml version="1.0" encoding="iso-8859-1"?>
<!-- Generator: Adobe Illustrator 18.0.0, SVG Export Plug-In . SVG Version: 6.00 Build 0)  -->
<!DOCTYPE svg PUBLIC "-//W3C//DTD SVG 1.1//EN" "http://www.w3.org/Graphics/SVG/1.1/DTD/svg11.dtd">
<svg xmlns="http://www.w3.org/2000/svg" xmlns:xlink="http://www.w3.org/1999/xlink" version="1.1" id="Capa_1" x="0px" y="0px" viewBox="0 0 227.216 227.216" style="enable-background:new 0 0 227.216 227.216;" xml:space="preserve">
  <g>
	<path style="fill:none;stroke:#000000;stroke-width:15;stroke-linecap:round;stroke-linejoin:round;stroke-miterlimit:10;" d="   M86.691,113.61c0,19.529-15.838,35.365-35.361,35.365c-19.543,0-35.373-15.836-35.373-35.365c0-19.537,15.83-35.366,35.373-35.366   C70.853,78.244,86.691,94.073,86.691,113.61z"/>
	<path style="fill:none;stroke:#000000;stroke-width:15;stroke-linecap:round;stroke-linejoin:round;stroke-miterlimit:10;" d="   M211.259,42.865c0,19.543-15.831,35.379-35.362,35.379c-19.542,0-35.367-15.836-35.367-35.379   c0-19.528,15.825-35.365,35.367-35.365C195.428,7.5,211.259,23.337,211.259,42.865z"/>
	<path style="fill:none;stroke:#000000;stroke-width:15;stroke-linecap:round;stroke-linejoin:round;stroke-miterlimit:10;" d="   M211.259,184.351c0,19.531-15.831,35.365-35.362,35.365c-19.542,0-35.367-15.834-35.367-35.365   c0-19.54,15.825-35.375,35.367-35.375C195.428,148.976,211.259,164.811,211.259,184.351z"/>
	
		<line style="fill:none;stroke:#000000;stroke-width:15;stroke-linecap:round;stroke-linejoin:round;stroke-miterlimit:10;" x1="82.079" y1="96.147" x2="145.145" y2="60.329"/>
	
		<line style="fill:none;stroke:#000000;stroke-width:15;stroke-linecap:round;stroke-linejoin:round;stroke-miterlimit:10;" x1="82.072" y1="131.071" x2="145.145" y2="166.883"/>
</g>
  <g>
</g>
  <g>
</g>
  <g>
</g>
  <g>
</g>
  <g>
</g>
  <g>
</g>
  <g>
</g>
  <g>
</g>
  <g>
</g>
  <g>
</g>
  <g>
</g>
  <g>
</g>
  <g>
</g>
  <g>
</g>
  <g>
</g>
</svg>
