<?xml version="1.0" encoding="utf-8"?>
<!-- Generator: Adobe Illustrator 18.1.1, SVG Export Plug-In . SVG Version: 6.00 Build 0)  -->
<svg xmlns="http://www.w3.org/2000/svg" xmlns:xlink="http://www.w3.org/1999/xlink" version="1.1" id="Layer_1" x="0px" y="0px" viewBox="0 0 32 32" enable-background="new 0 0 32 32" xml:space="preserve">
  <polyline fill="none" stroke="#000000" stroke-width="2" stroke-miterlimit="10" points="17.4,21 21.3,26.9 22.7,23.6 26.3,23.6   22.6,18 "/>
  <polyline fill="none" stroke="#000000" stroke-width="2" stroke-miterlimit="10" points="14.6,21 10.7,26.9 9.3,23.6 5.7,23.6   9.4,18 "/>
  <path fill="none" stroke="#000000" stroke-width="2" stroke-miterlimit="10" d="M17.2,4.4L19,5.7L21.2,6c0.9,0.1,1.6,0.8,1.7,1.7  l0.4,2.2l1.3,1.8c0.5,0.7,0.5,1.7,0,2.5L23.3,16L23,18.2c-0.1,0.9-0.8,1.6-1.7,1.7L19,20.3l-1.8,1.3c-0.7,0.5-1.7,0.5-2.5,0L13,20.3  L10.8,20c-0.9-0.1-1.6-0.8-1.7-1.7L8.7,16l-1.3-1.8c-0.5-0.7-0.5-1.7,0-2.5L8.7,10L9,7.8C9.2,6.9,9.9,6.2,10.8,6L13,5.7l1.8-1.3  C15.5,3.9,16.5,3.9,17.2,4.4z"/>
</svg>
