<?xml version="1.0" encoding="iso-8859-1"?>
<!-- Generator: Adobe Illustrator 19.0.1, SVG Export Plug-In . SVG Version: 6.00 Build 0)  -->
<svg xmlns="http://www.w3.org/2000/svg" xmlns:xlink="http://www.w3.org/1999/xlink" version="1.1" id="Layer_1" x="0px" y="0px" viewBox="0 0 32 32" style="enable-background:new 0 0 32 32;" xml:space="preserve">
  <path style="fill:none;stroke:#000000;stroke-width:2;stroke-miterlimit:10;" d="M27,25H5c-1.105,0-2-0.895-2-2V9  c0-1.105,0.895-2,2-2h22c1.105,0,2,0.895,2,2v14C29,24.105,28.105,25,27,25z"/>
  <path style="fill:none;stroke:#000000;stroke-width:2;stroke-miterlimit:10;" d="M16,20.463C17.062,21.416,18.461,22,20,22  c3.314,0,6-2.686,6-6s-2.686-6-6-6c-1.539,0-2.938,0.584-4,1.537"/>
  <circle style="fill:none;stroke:#000000;stroke-width:2;stroke-miterlimit:10;" cx="12" cy="16" r="6"/>
  <g>
	<path d="M16.461,20c0.519-0.577,0.925-1.255,1.19-2h-3.303c0.265,0.745,0.672,1.423,1.19,2H16.461z"/>
	<path d="M14,16c0,0.342,0.037,0.674,0.092,1h3.815C17.963,16.674,18,16.342,18,16s-0.037-0.674-0.092-1h-3.815   C14.037,15.326,14,15.658,14,16z"/>
	<path d="M15.539,12c-0.519,0.577-0.925,1.255-1.19,2h3.303c-0.265-0.745-0.672-1.423-1.19-2H15.539z"/>
</g>
</svg>
