<?xml version="1.0" encoding="utf-8"?>
<!-- Generator: Adobe Illustrator 18.1.1, SVG Export Plug-In . SVG Version: 6.00 Build 0)  -->
<svg xmlns="http://www.w3.org/2000/svg" xmlns:xlink="http://www.w3.org/1999/xlink" version="1.1" id="Layer_1" x="0px" y="0px" viewBox="0 0 32 32" enable-background="new 0 0 32 32" xml:space="preserve">
  <path fill="none" stroke="#000000" stroke-width="2" stroke-miterlimit="10" d="M29,16C29,16,29,16,29,16c0-3.3-2.7-6-6-6  c-0.1,0-0.2,0-0.3,0c-0.9-2.9-3.5-5-6.7-5c-3.9,0-7,3.1-7,7c-1.9,0-3.5,1.3-3.9,3.1C2.8,15.5,1,17.5,1,20c0,2.8,2.2,5,5,5  s17.9,0,20,0c2.8,0,5-2.2,5-5C31,18.4,30.2,16.9,29,16z"/>
  <line fill="none" stroke="#000000" stroke-width="2" stroke-miterlimit="10" x1="16" y1="13.4" x2="16" y2="22"/>
  <polyline fill="none" stroke="#000000" stroke-width="2" stroke-miterlimit="10" points="20,17 16,13 12,17 "/>
</svg>
