<?xml version="1.0" encoding="iso-8859-1"?>
<!-- Generator: Adobe Illustrator 19.0.1, SVG Export Plug-In . SVG Version: 6.00 Build 0)  -->
<svg xmlns="http://www.w3.org/2000/svg" xmlns:xlink="http://www.w3.org/1999/xlink" version="1.1" id="Layer_1" x="0px" y="0px" viewBox="0 0 32 32" style="enable-background:new 0 0 32 32;" xml:space="preserve">
  <path style="fill:none;stroke:#000000;stroke-width:2;stroke-miterlimit:10;" d="M27,25H5c-1.105,0-2-0.895-2-2V9  c0-1.105,0.895-2,2-2h22c1.105,0,2,0.895,2,2v14C29,24.105,28.105,25,27,25z"/>
  <path d="M15.175,13.25L13.8,16.962l-1.375-3.712H10.5v5.225L8.575,13.25H7.062L5,18.75h1.238l0.413-1.237h2.338L9.4,18.75h2.337  v-4.125l1.513,4.125h1.1l1.513-3.987v3.987h1.1v-5.5H15.175z M7.062,16.275L7.75,14.35l0.688,1.925H7.062z"/>
  <path d="M24.938,16L27,13.25h-1.513l-1.375,1.65l-1.1-1.65h-4.538v5.5h4.4l1.375-1.788l1.375,1.788H27L24.938,16z M22.188,17.65  h-2.612v-1.1h2.475v-1.1h-2.475v-0.962h2.75l1.1,1.513L22.188,17.65z"/>
</svg>
