<?xml version="1.0" encoding="iso-8859-1"?>
<!-- Generator: Adobe Illustrator 19.0.1, SVG Export Plug-In . SVG Version: 6.00 Build 0)  -->
<svg xmlns="http://www.w3.org/2000/svg" xmlns:xlink="http://www.w3.org/1999/xlink" version="1.1" id="Layer_1" x="0px" y="0px" viewBox="0 0 32 32" style="enable-background:new 0 0 32 32;" xml:space="preserve">
  <path style="fill:none;stroke:#000000;stroke-width:2;stroke-miterlimit:10;" d="M27,25H5c-1.105,0-2-0.895-2-2V9  c0-1.105,0.895-2,2-2h22c1.105,0,2,0.895,2,2v14C29,24.105,28.105,25,27,25z"/>
  <g>
	<path d="M9.287,16.338L8.67,13.206c0,0-0.278-0.68-1.003-0.68c-0.725,0-2.834,0-2.834,0S8.446,13.629,9.287,16.338z"/>
	<polygon points="12.782,19.414 14.614,19.414 15.722,12.51 13.868,12.51  "/>
	<path d="M11.184,12.51l-1.676,4.917c0,0-0.096-0.419-0.137-0.679c-0.955-2.14-2.504-2.924-2.504-2.924l1.471,5.59v-0.001h2.018   l2.788-6.903H11.184z"/>
	<path d="M18.321,14.487c0-0.4,0.318-0.698,1.229-0.698c0.593,0,1.271,0.446,1.271,0.446l0.297-1.525c0,0-0.868-0.339-1.717-0.339   c-1.926,0-2.921,0.953-2.921,2.159c0,2.181,2.54,1.883,2.54,3.004c0,0.191-0.148,0.635-1.206,0.635   c-1.06,0-1.759-0.403-1.759-0.403l-0.317,1.463c0,0,0.678,0.401,1.991,0.401c1.312,0,3.134-1.016,3.134-2.477   C20.863,15.396,18.321,15.27,18.321,14.487z"/>
	<path d="M25.748,12.51h-1.927l-3.007,6.903h1.819l0.377-0.985h2.293l0.197,0.985h1.667L25.748,12.51z M23.518,17.109l0.996-2.608   l0.523,2.608H23.518z"/>
</g>
</svg>
