<?xml version="1.0" encoding="iso-8859-1"?>
<!-- Generator: Adobe Illustrator 19.0.1, SVG Export Plug-In . SVG Version: 6.00 Build 0)  -->
<svg xmlns="http://www.w3.org/2000/svg" xmlns:xlink="http://www.w3.org/1999/xlink" version="1.1" id="Layer_1" x="0px" y="0px" viewBox="0 0 32 32" style="enable-background:new 0 0 32 32;" xml:space="preserve">
  <circle style="fill:none;stroke:#000000;stroke-width:2;stroke-miterlimit:10;" cx="22" cy="24" r="2"/>
  <circle style="fill:none;stroke:#000000;stroke-width:2;stroke-miterlimit:10;" cx="13" cy="24" r="2"/>
  <path d="M25.658,10l-2.422,9H10.781L8.159,8.515C7.937,7.625,7.137,7,6.219,7H4C3.448,7,3,7.448,3,8c0,0.552,0.448,1,1,1h2.219  l2.621,10.485C9.063,20.375,9.863,21,10.781,21h12.455c0.902,0,1.692-0.604,1.93-1.474L27.764,10H25.658z"/>
  <line style="fill:none;stroke:#000000;stroke-width:2;stroke-miterlimit:10;" x1="17" y1="7" x2="17" y2="13"/>
  <polygon points="21,12 17,16 13,12 "/>
</svg>
