<?xml version="1.0" encoding="utf-8"?>
<!-- Generator: Adobe Illustrator 18.0.0, SVG Export Plug-In . SVG Version: 6.00 Build 0)  -->
<svg xmlns="http://www.w3.org/2000/svg" xmlns:xlink="http://www.w3.org/1999/xlink" version="1.1" id="Layer_1" x="0px" y="0px" viewBox="0 0 32 32" enable-background="new 0 0 32 32" xml:space="preserve">
  <path fill="none" stroke="#000000" stroke-width="2" stroke-miterlimit="10" d="M16,5L16,5c1.1,0,2,0.9,2,2v4h-4V7  C14,5.9,14.9,5,16,5z"/>
  <polygon fill="none" stroke="#000000" stroke-width="2" stroke-miterlimit="10" points="18,9 24,10 24,6 18,7 "/>
  <path fill="none" stroke="#000000" stroke-width="2" stroke-miterlimit="10" d="M18,11h-4c0,0-3,2-3,4v12h10V15C21,13,18,11,18,11z"/>
  <path fill="none" stroke="#000000" stroke-width="2" stroke-miterlimit="10" d="M8,11L8,11c0-2.2,1.8-4,4-4h2"/>
  <line fill="none" stroke="#000000" stroke-width="2" stroke-miterlimit="10" x1="14" y1="18" x2="18" y2="18"/>
</svg>
