<?xml version="1.0" encoding="iso-8859-1"?>
<!-- Generator: Adobe Illustrator 19.0.1, SVG Export Plug-In . SVG Version: 6.00 Build 0)  -->
<svg xmlns="http://www.w3.org/2000/svg" xmlns:xlink="http://www.w3.org/1999/xlink" version="1.1" id="Layer_1" x="0px" y="0px" viewBox="0 0 32 32" style="enable-background:new 0 0 32 32;" xml:space="preserve">
  <polyline style="fill:none;stroke:#000000;stroke-width:2;stroke-miterlimit:10;" points="26,14 26,27 6,27 6,14 "/>
  <rect x="5" y="10" style="fill:none;stroke:#000000;stroke-width:2;stroke-miterlimit:10;" width="22" height="4"/>
  <path style="fill:none;stroke:#000000;stroke-width:2;stroke-miterlimit:10;" d="M16,10c0,0,2.895,0,4,0s2-0.895,2-2s-0.895-2-2-2  C17.625,6,16,10,16,10z"/>
  <path style="fill:none;stroke:#000000;stroke-width:2;stroke-miterlimit:10;" d="M16,10c0,0-2.895,0-4,0s-2-0.895-2-2s0.895-2,2-2  C14.375,6,16,10,16,10z"/>
  <line style="fill:none;stroke:#000000;stroke-width:2;stroke-miterlimit:10;" x1="16" y1="27" x2="16" y2="16"/>
  <line style="fill:none;stroke:#000000;stroke-width:2;stroke-miterlimit:10;" x1="16" y1="14" x2="16" y2="12"/>
</svg>
