<?xml version="1.0" encoding="utf-8"?>
<!-- Generator: Adobe Illustrator 18.1.1, SVG Export Plug-In . SVG Version: 6.00 Build 0)  -->
<svg xmlns="http://www.w3.org/2000/svg" xmlns:xlink="http://www.w3.org/1999/xlink" version="1.1" id="Layer_1" x="0px" y="0px" viewBox="0 0 32 32" enable-background="new 0 0 32 32" xml:space="preserve">
  <polygon fill="none" stroke="#000000" stroke-width="2" stroke-miterlimit="10" points="5,4 5,28 14,28 14,24 18,24 18,28 27,28   27,4 "/>
  <line fill="none" stroke="#000000" stroke-width="2" stroke-miterlimit="10" x1="14" y1="20" x2="18" y2="20"/>
  <line fill="none" stroke="#000000" stroke-width="2" stroke-miterlimit="10" x1="14" y1="16" x2="18" y2="16"/>
  <line fill="none" stroke="#000000" stroke-width="2" stroke-miterlimit="10" x1="20" y1="24" x2="24" y2="24"/>
  <line fill="none" stroke="#000000" stroke-width="2" stroke-miterlimit="10" x1="20" y1="20" x2="24" y2="20"/>
  <line fill="none" stroke="#000000" stroke-width="2" stroke-miterlimit="10" x1="20" y1="16" x2="24" y2="16"/>
  <line fill="none" stroke="#000000" stroke-width="2" stroke-miterlimit="10" x1="8" y1="24" x2="12" y2="24"/>
  <line fill="none" stroke="#000000" stroke-width="2" stroke-miterlimit="10" x1="8" y1="20" x2="12" y2="20"/>
  <line fill="none" stroke="#000000" stroke-width="2" stroke-miterlimit="10" x1="8" y1="16" x2="12" y2="16"/>
  <line fill="none" stroke="#000000" stroke-width="2" stroke-miterlimit="10" x1="14" y1="12" x2="18" y2="12"/>
  <line fill="none" stroke="#000000" stroke-width="2" stroke-miterlimit="10" x1="20" y1="12" x2="24" y2="12"/>
  <line fill="none" stroke="#000000" stroke-width="2" stroke-miterlimit="10" x1="8" y1="12" x2="12" y2="12"/>
  <line fill="none" stroke="#000000" stroke-width="2" stroke-miterlimit="10" x1="14" y1="8" x2="18" y2="8"/>
  <line fill="none" stroke="#000000" stroke-width="2" stroke-miterlimit="10" x1="20" y1="8" x2="24" y2="8"/>
  <line fill="none" stroke="#000000" stroke-width="2" stroke-miterlimit="10" x1="8" y1="8" x2="12" y2="8"/>
</svg>
