<?xml version="1.0" encoding="iso-8859-1"?>
<!-- Generator: Adobe Illustrator 18.1.1, SVG Export Plug-In . SVG Version: 6.00 Build 0)  -->
<svg xmlns="http://www.w3.org/2000/svg" xmlns:xlink="http://www.w3.org/1999/xlink" version="1.1" id="Layer_1" x="0px" y="0px" viewBox="0 0 32 32" style="enable-background:new 0 0 32 32;" xml:space="preserve">
  <polyline style="fill:none;stroke:#000000;stroke-width:2;stroke-miterlimit:10;" points="6,28 6,5 26,5 26,19 6,19 "/>
  <rect x="22" y="5" width="4" height="4"/>
  <rect x="19" y="15" width="3" height="4"/>
  <rect x="19" y="9" width="3" height="3"/>
  <rect x="13" y="15" width="3" height="4"/>
  <rect x="13" y="9" width="3" height="3"/>
  <rect x="6" y="15" width="4" height="4"/>
  <rect x="6" y="9" width="4" height="3"/>
  <rect x="22" y="12" width="4" height="3"/>
  <rect x="16" y="12" width="3" height="3"/>
  <rect x="10" y="12" width="3" height="3"/>
  <rect x="16" y="5" width="3" height="4"/>
  <rect x="10" y="5" width="3" height="4"/>
</svg>
