<?xml version="1.0" encoding="utf-8"?>
<!-- Generator: Adobe Illustrator 18.1.1, SVG Export Plug-In . SVG Version: 6.00 Build 0)  -->
<svg xmlns="http://www.w3.org/2000/svg" xmlns:xlink="http://www.w3.org/1999/xlink" version="1.1" id="Layer_1" x="0px" y="0px" viewBox="0 0 32 32" enable-background="new 0 0 32 32" xml:space="preserve">
  <path fill="none" stroke="#000000" stroke-width="2" stroke-miterlimit="10" d="M22.2,12.8l-3-3l5-5C23.3,4.3,22.2,4,21,4  c-3.9,0-7,3.1-7,7c0,0.4,0,0.8,0.1,1.2c-2.9,2.9-8.3,8.3-8.9,8.9c-1.6,1.6-1.6,4.1,0,5.7c1.6,1.6,4.1,1.6,5.7,0c0.6-0.6,6-6,8.9-8.9  C20.2,18,20.6,18,21,18c3.9,0,7-3.1,7-7c0-1.2-0.3-2.3-0.8-3.2L22.2,12.8z"/>
</svg>
