<?xml version="1.0" encoding="utf-8"?>
<!-- Generator: Adobe Illustrator 18.1.1, SVG Export Plug-In . SVG Version: 6.00 Build 0)  -->
<svg xmlns="http://www.w3.org/2000/svg" xmlns:xlink="http://www.w3.org/1999/xlink" version="1.1" id="Layer_1" x="0px" y="0px" viewBox="0 0 32 32" enable-background="new 0 0 32 32" xml:space="preserve">
  <path fill="none" stroke="#000000" stroke-width="2" stroke-miterlimit="10" d="M25,26H7c-1.7,0-3-1.3-3-3V6h18v7"/>
  <path fill="none" stroke="#000000" stroke-width="2" stroke-miterlimit="10" d="M25,26L25,26c-1.7,0-3-1.3-3-3V13h6v10  C28,24.7,26.7,26,25,26z"/>
  <rect x="8" y="10" fill="none" stroke="#000000" stroke-width="2" stroke-miterlimit="10" width="10" height="3"/>
  <line fill="none" stroke="#000000" stroke-width="2" stroke-miterlimit="10" x1="7" y1="16" x2="12" y2="16"/>
  <line fill="none" stroke="#000000" stroke-width="2" stroke-miterlimit="10" x1="14" y1="16" x2="19" y2="16"/>
  <line fill="none" stroke="#000000" stroke-width="2" stroke-miterlimit="10" x1="7" y1="19" x2="12" y2="19"/>
  <line fill="none" stroke="#000000" stroke-width="2" stroke-miterlimit="10" x1="14" y1="19" x2="19" y2="19"/>
  <line fill="none" stroke="#000000" stroke-width="2" stroke-miterlimit="10" x1="7" y1="22" x2="12" y2="22"/>
  <line fill="none" stroke="#000000" stroke-width="2" stroke-miterlimit="10" x1="14" y1="22" x2="19" y2="22"/>
</svg>
