<?xml version="1.0" encoding="utf-8"?>
<!-- Generator: Adobe Illustrator 18.1.1, SVG Export Plug-In . SVG Version: 6.00 Build 0)  -->
<svg xmlns="http://www.w3.org/2000/svg" xmlns:xlink="http://www.w3.org/1999/xlink" version="1.1" id="Layer_1" x="0px" y="0px" viewBox="0 0 32 32" enable-background="new 0 0 32 32" xml:space="preserve">
  <circle cx="12.5" cy="17.5" r="1.5"/>
  <circle cx="19.5" cy="17.5" r="1.5"/>
  <path fill="none" stroke="#000000" stroke-width="2" stroke-miterlimit="10" d="M25,15C25,15,25,15,25,15c-0.6-4.5-4.4-8-9-8  s-8.4,3.5-8.9,8c0,0,0,0-0.1,0c-1.1,0-2,0.9-2,2c0,1.1,0.9,2,2,2c0,0,0,0,0.1,0c0.5,4.5,4.3,8,8.9,8s8.4-3.5,8.9-8c0,0,0,0,0.1,0  c1.1,0,2-0.9,2-2C27,15.9,26.1,15,25,15z"/>
  <path fill="none" stroke="#000000" stroke-width="2" stroke-miterlimit="10" d="M16,7c0-1.4-1.3-3-4-3"/>
  <path fill="none" stroke="#000000" stroke-width="2" stroke-miterlimit="10" d="M17,7c0-0.6,0.4-2,2-2"/>
</svg>
