<?xml version="1.0" encoding="iso-8859-1"?>
<!-- Generator: Adobe Illustrator 18.0.0, SVG Export Plug-In . SVG Version: 6.00 Build 0)  -->
<!DOCTYPE svg PUBLIC "-//W3C//DTD SVG 1.1//EN" "http://www.w3.org/Graphics/SVG/1.1/DTD/svg11.dtd">
<svg xmlns="http://www.w3.org/2000/svg" xmlns:xlink="http://www.w3.org/1999/xlink" version="1.1" id="Capa_1" x="0px" y="0px" viewBox="0 0 238.75 238.75" style="enable-background:new 0 0 238.75 238.75;" xml:space="preserve">
  <g>
	<g>
		
			<line style="fill:none;stroke:#000000;stroke-width:15;stroke-linecap:round;stroke-linejoin:round;stroke-miterlimit:10;" x1="115.154" y1="145.97" x2="115.154" y2="101.159"/>
		
			<line style="fill:none;stroke:#000000;stroke-width:15;stroke-linecap:round;stroke-linejoin:round;stroke-miterlimit:10;" x1="115.154" y1="145.97" x2="156.619" y2="145.97"/>
	</g>
	<g>
		<path style="fill:none;stroke:#000000;stroke-width:15;stroke-linecap:round;stroke-linejoin:round;stroke-miterlimit:10;" d="    M207.621,143.001c0,48.743-39.516,88.249-88.24,88.249c-48.736,0-88.252-39.506-88.252-88.249    c0-48.73,39.516-88.247,88.252-88.247C168.105,54.754,207.621,94.271,207.621,143.001z"/>
		<path style="fill:none;stroke:#000000;stroke-width:15;stroke-linecap:round;stroke-linejoin:round;stroke-miterlimit:10;" d="    M179.543,140.855c0,33.225-26.941,60.168-60.162,60.168c-33.242,0-60.174-26.943-60.174-60.168    c0-33.231,26.932-60.171,60.174-60.171C152.602,80.684,179.543,107.624,179.543,140.855z"/>
		<path style="fill:none;stroke:#000000;stroke-width:15;stroke-linecap:round;stroke-linejoin:round;stroke-miterlimit:10;" d="    M95.748,31.129c0-13.058,10.574-23.629,23.633-23.629c13.039,0,23.621,10.571,23.621,23.629c0,13.051-10.582,23.625-23.621,23.625    C106.322,54.754,95.748,44.18,95.748,31.129z"/>
		
			<line style="fill:none;stroke:#000000;stroke-width:15;stroke-linecap:round;stroke-linejoin:round;stroke-miterlimit:10;" x1="181.504" y1="80.328" x2="196.855" y2="64.965"/>
		
			<line style="fill:none;stroke:#000000;stroke-width:15;stroke-linecap:round;stroke-linejoin:round;stroke-miterlimit:10;" x1="189.182" y1="57.303" x2="204.531" y2="72.661"/>
	</g>
</g>
  <g>
</g>
  <g>
</g>
  <g>
</g>
  <g>
</g>
  <g>
</g>
  <g>
</g>
  <g>
</g>
  <g>
</g>
  <g>
</g>
  <g>
</g>
  <g>
</g>
  <g>
</g>
  <g>
</g>
  <g>
</g>
  <g>
</g>
</svg>
