<?xml version="1.0" encoding="iso-8859-1"?>
<!-- Generator: Adobe Illustrator 18.0.0, SVG Export Plug-In . SVG Version: 6.00 Build 0)  -->
<!DOCTYPE svg PUBLIC "-//W3C//DTD SVG 1.1//EN" "http://www.w3.org/Graphics/SVG/1.1/DTD/svg11.dtd">
<svg xmlns="http://www.w3.org/2000/svg" xmlns:xlink="http://www.w3.org/1999/xlink" version="1.1" id="Capa_1" x="0px" y="0px" viewBox="0 0 279.626 279.626" style="enable-background:new 0 0 279.626 279.626;" xml:space="preserve">
  <g>
	<g>
		
			<polygon style="fill:none;stroke:#000000;stroke-width:15;stroke-linecap:round;stroke-linejoin:round;stroke-miterlimit:10;" points="    124.6,97.438 84.528,137.514 44.448,97.438 84.528,57.36   "/>
		
			<polygon style="fill:none;stroke:#000000;stroke-width:15;stroke-linecap:round;stroke-linejoin:round;stroke-miterlimit:10;" points="    67.614,154.426 47.579,174.461 7.5,134.389 27.538,114.348   "/>
		
			<rect x="41.862" y="113.983" transform="matrix(0.707 0.7072 -0.7072 0.707 105.4792 -2.7198)" style="fill:none;stroke:#000000;stroke-width:15;stroke-linecap:round;stroke-linejoin:round;stroke-miterlimit:10;" width="28.321" height="23.899"/>
		<g>
			<path style="fill:none;stroke:#000000;stroke-width:15;stroke-linecap:round;stroke-linejoin:round;stroke-miterlimit:10;" d="     M144.644,77.393l20.038-20.034c-22.146-22.138-58.023-22.129-80.154,0.001l20.03,20.033"/>
		</g>
		<g>
			<path style="fill:none;stroke:#000000;stroke-width:15;stroke-linecap:round;stroke-linejoin:round;stroke-miterlimit:10;" d="     M144.644,77.393c-11.061-11.064-29.019-11.064-40.086,0L124.6,97.438"/>
		</g>
		
			<polyline style="fill:none;stroke:#000000;stroke-width:15;stroke-linecap:round;stroke-linejoin:round;stroke-miterlimit:10;" points="    183.913,168.012 225.837,209.944 199.121,236.66 157.19,194.733   "/>
		
			<polyline style="fill:none;stroke:#000000;stroke-width:15;stroke-linecap:round;stroke-linejoin:round;stroke-miterlimit:10;" points="    126.018,163.557 92.249,129.788 118.967,103.071 153.982,138.084   "/>
	</g>
	<path style="fill:none;stroke:#000000;stroke-width:15;stroke-linecap:round;stroke-linejoin:round;stroke-miterlimit:10;" d="   M264.463,87.246l-30.834,30.832l-23.394-6.27l-6.27-23.395l30.829-30.838L206.2,49.92l-38.063,38.057l7.665,28.6L89.32,203.055   c-8.191,8.189-8.193,21.474,0.004,29.664c8.184,8.197,21.471,8.197,29.666,0l86.479-86.469l28.589,7.658l38.067-38.063   L264.463,87.246z"/>
</g>
  <g>
</g>
  <g>
</g>
  <g>
</g>
  <g>
</g>
  <g>
</g>
  <g>
</g>
  <g>
</g>
  <g>
</g>
  <g>
</g>
  <g>
</g>
  <g>
</g>
  <g>
</g>
  <g>
</g>
  <g>
</g>
  <g>
</g>
</svg>
