<?xml version="1.0" encoding="iso-8859-1"?>
<!-- Generator: Adobe Illustrator 18.0.0, SVG Export Plug-In . SVG Version: 6.00 Build 0)  -->
<!DOCTYPE svg PUBLIC "-//W3C//DTD SVG 1.1//EN" "http://www.w3.org/Graphics/SVG/1.1/DTD/svg11.dtd">
<svg xmlns="http://www.w3.org/2000/svg" xmlns:xlink="http://www.w3.org/1999/xlink" version="1.1" id="Capa_1" x="0px" y="0px" viewBox="0 0 240.048 240.048" style="enable-background:new 0 0 240.048 240.048;" xml:space="preserve">
  <g>
	<g>
		<path style="fill:none;stroke:#000000;stroke-width:15;stroke-linecap:round;stroke-linejoin:round;stroke-miterlimit:10;" d="    M145.226,192.45c3.287-0.5,6.446-2.018,8.979-4.551c6.295-6.291,6.313-16.514,0.012-22.814c6.301,6.301,16.51,6.301,22.803,0    c6.297-6.291,6.314-16.502,0.011-22.807l0.892,0.891c6.291,6.291,16.511,6.291,22.816,0.02c6.301-6.305,6.31-16.543,0-22.826    l-57.912-57.92"/>
		<path style="fill:none;stroke:#000000;stroke-width:15;stroke-linecap:round;stroke-linejoin:round;stroke-miterlimit:10;" d="    M120.03,39.649l-2.376-2.369l0,0l0,0c-25.204-25.221-66.059-25.207-91.249,0c-25.206,25.193-25.207,66.039,0,91.244l0,0l0,0    l4.237,4.238"/>
		
			<line style="fill:none;stroke:#000000;stroke-width:15;stroke-linecap:round;stroke-linejoin:round;stroke-miterlimit:10;" x1="177.031" y1="142.278" x2="144.641" y2="109.897"/>
		
			<line style="fill:none;stroke:#000000;stroke-width:15;stroke-linecap:round;stroke-linejoin:round;stroke-miterlimit:10;" x1="154.216" y1="165.084" x2="121.839" y2="132.707"/>
	</g>
	<g>
		<path style="fill:none;stroke:#000000;stroke-width:15;stroke-linecap:round;stroke-linejoin:round;stroke-miterlimit:10;" d="    M50.571,109.096l-15.539,15.531c-6.302,6.311-6.301,16.521,0.001,22.803c6.304,6.307,16.515,6.314,22.807,0.014l15.556-15.547    c6.274-6.305,6.284-16.506-0.021-22.805C67.082,102.788,56.871,102.797,50.571,109.096z"/>
		<path style="fill:none;stroke:#000000;stroke-width:15;stroke-linecap:round;stroke-linejoin:round;stroke-miterlimit:10;" d="    M142.826,62.442l-34.221,34.236c-6.295,6.291-16.514,6.285-22.807,0c-6.305-6.307-6.293-16.502,0.008-22.809l20.924-20.941    l15.674-15.662c25.213-25.213,66.039-25.211,91.239-0.01c25.196,25.215,25.216,66.066,0,91.273l0,0l0,0l-9.406,9.404"/>
		<path style="fill:none;stroke:#000000;stroke-width:15;stroke-linecap:round;stroke-linejoin:round;stroke-miterlimit:10;" d="    M72.271,133.008l-15.543,15.545c-6.305,6.303-6.305,16.512,0.001,22.805c6.296,6.293,16.502,6.293,22.797-0.014l15.563-15.529    c6.283-6.295,6.283-16.516-0.001-22.807C88.773,126.715,78.578,126.704,72.271,133.008z"/>
		<path style="fill:none;stroke:#000000;stroke-width:15;stroke-linecap:round;stroke-linejoin:round;stroke-miterlimit:10;" d="    M96.189,154.717l-15.546,15.529c-6.3,6.307-6.3,16.504-0.009,22.797c6.308,6.324,16.513,6.324,22.807,0l15.558-15.539    c6.292-6.303,6.293-16.512-0.012-22.803C112.685,148.395,102.495,148.409,96.189,154.717z"/>
		<path style="fill:none;stroke:#000000;stroke-width:15;stroke-linecap:round;stroke-linejoin:round;stroke-miterlimit:10;" d="    M117.882,178.62l-15.542,15.543c-6.306,6.303-6.306,16.504,0,22.805c6.281,6.299,16.502,6.297,22.796,0.01l15.555-15.572    c6.293-6.285,6.293-16.49-0.001-22.787C134.384,172.323,124.188,172.313,117.882,178.62z"/>
	</g>
</g>
  <g>
</g>
  <g>
</g>
  <g>
</g>
  <g>
</g>
  <g>
</g>
  <g>
</g>
  <g>
</g>
  <g>
</g>
  <g>
</g>
  <g>
</g>
  <g>
</g>
  <g>
</g>
  <g>
</g>
  <g>
</g>
  <g>
</g>
</svg>
