<?xml version="1.0" encoding="iso-8859-1"?>
<!-- Generator: Adobe Illustrator 18.0.0, SVG Export Plug-In . SVG Version: 6.00 Build 0)  -->
<!DOCTYPE svg PUBLIC "-//W3C//DTD SVG 1.1//EN" "http://www.w3.org/Graphics/SVG/1.1/DTD/svg11.dtd">
<svg xmlns="http://www.w3.org/2000/svg" xmlns:xlink="http://www.w3.org/1999/xlink" version="1.1" id="Capa_1" x="0px" y="0px" viewBox="0 0 241.931 241.931" style="enable-background:new 0 0 241.931 241.931;" xml:space="preserve">
  <g>
	<g>
		
			<polyline style="fill:none;stroke:#000000;stroke-width:15;stroke-linecap:round;stroke-linejoin:round;stroke-miterlimit:10;" points="    77.175,147.186 77.175,234.431 120.968,212.542 164.754,234.431 164.754,147.186   "/>
	</g>
	<g>
		
			<polygon style="fill:none;stroke:#000000;stroke-width:15;stroke-linecap:round;stroke-linejoin:round;stroke-miterlimit:10;" points="    120.968,20.726 148.026,7.5 162.149,34.115 191.818,39.316 187.598,69.139 208.545,90.79 187.598,112.438 191.818,142.274     162.149,147.477 148.026,174.086 120.968,160.851 93.905,174.086 79.788,147.477 50.114,142.274 54.333,112.438 33.385,90.79     54.333,69.139 50.114,39.316 79.788,34.115 93.905,7.5   "/>
		<path style="fill:none;stroke:#000000;stroke-width:15;stroke-linecap:round;stroke-linejoin:round;stroke-miterlimit:10;" d="    M164.754,90.79c0,24.197-19.604,43.796-43.786,43.796c-24.187,0-43.793-19.599-43.793-43.796c0-24.18,19.606-43.785,43.793-43.785    C145.151,47.005,164.754,66.61,164.754,90.79z"/>
		<g>
			
				<polyline style="fill:none;stroke:#000000;stroke-width:15;stroke-linecap:round;stroke-linejoin:round;stroke-miterlimit:10;" points="     100.372,90.798 114.105,104.516 141.56,77.066    "/>
		</g>
	</g>
</g>
  <g>
</g>
  <g>
</g>
  <g>
</g>
  <g>
</g>
  <g>
</g>
  <g>
</g>
  <g>
</g>
  <g>
</g>
  <g>
</g>
  <g>
</g>
  <g>
</g>
  <g>
</g>
  <g>
</g>
  <g>
</g>
  <g>
</g>
</svg>
