<?xml version="1.0" encoding="iso-8859-1"?>
<!-- Generator: Adobe Illustrator 18.0.0, SVG Export Plug-In . SVG Version: 6.00 Build 0)  -->
<!DOCTYPE svg PUBLIC "-//W3C//DTD SVG 1.1//EN" "http://www.w3.org/Graphics/SVG/1.1/DTD/svg11.dtd">
<svg xmlns="http://www.w3.org/2000/svg" xmlns:xlink="http://www.w3.org/1999/xlink" version="1.1" id="Capa_1" x="0px" y="0px" viewBox="0 0 302.986 302.986" style="enable-background:new 0 0 302.986 302.986;" xml:space="preserve">
  <g>
	<path style="fill:none;stroke:#000000;stroke-width:15;stroke-linecap:round;stroke-linejoin:round;stroke-miterlimit:10;" d="   M283.885,72.907l-0.003-0.007c-14.214-14.212-36.514-15.327-52.036-3.429c-1.376,1.052-2.714,2.164-3.972,3.42l-0.003,0.009   l-45.908,45.913c-15.467,15.465-15.467,40.539,0,56.006l0.006,0.007c0.922,0.918,1.882,1.775,2.861,2.581   c0.049,0.041,0.092,0.092,0.139,0.133c13.942,11.37,33.795,11.781,48.203,1.324c1.674-1.212,3.301-2.529,4.805-4.038h0.004   l45.91-45.912C299.352,113.444,299.352,88.368,283.885,72.907z"/>
	<path style="fill:none;stroke:#000000;stroke-width:15;stroke-linecap:round;stroke-linejoin:round;stroke-miterlimit:10;" d="   M121.016,128.159c-11.404-11.407-28.023-14.369-42.173-8.959c-5.041,1.931-9.776,4.896-13.838,8.955v0.009l-45.909,45.9   c-15.461,15.477-15.461,40.546,0,56.02c11.436,11.436,28.125,14.395,42.297,8.91c4.999-1.922,9.682-4.877,13.713-8.903l0.008-0.014   l45.902-45.903c15.457-15.47,15.457-40.543,0-56.011V128.159z"/>
</g>
  <g>
</g>
  <g>
</g>
  <g>
</g>
  <g>
</g>
  <g>
</g>
  <g>
</g>
  <g>
</g>
  <g>
</g>
  <g>
</g>
  <g>
</g>
  <g>
</g>
  <g>
</g>
  <g>
</g>
  <g>
</g>
  <g>
</g>
</svg>
