<?xml version="1.0" encoding="iso-8859-1"?>
<!-- Generator: Adobe Illustrator 18.0.0, SVG Export Plug-In . SVG Version: 6.00 Build 0)  -->
<!DOCTYPE svg PUBLIC "-//W3C//DTD SVG 1.1//EN" "http://www.w3.org/Graphics/SVG/1.1/DTD/svg11.dtd">
<svg xmlns="http://www.w3.org/2000/svg" xmlns:xlink="http://www.w3.org/1999/xlink" version="1.1" id="Capa_1" x="0px" y="0px" viewBox="0 0 282.013 282.013" style="enable-background:new 0 0 282.013 282.013;" xml:space="preserve">
  <g>
	<g>
		
			<polyline style="fill:none;stroke:#000000;stroke-width:15;stroke-linecap:round;stroke-linejoin:round;stroke-miterlimit:10;" points="    7.5,166.947 35.997,166.947 117.718,248.677 220.741,248.677   "/>
		<path style="fill:none;stroke:#000000;stroke-width:15;stroke-linecap:round;stroke-linejoin:round;stroke-miterlimit:10;" d="    M220.741,248.677c6.225,0,11.275-5.045,11.269-11.273c0-6.227-5.246-10.379-11.269-11.269l-89.405-12.381l-35.849-35.846"/>
		<path style="fill:none;stroke:#000000;stroke-width:15;stroke-linecap:round;stroke-linejoin:round;stroke-miterlimit:10;" d="    M95.487,177.908c-4.185-4.195-4.185-10.982,0-15.175c4.191-4.188,10.991-4.188,15.17,0"/>
		<path style="fill:none;stroke:#000000;stroke-width:15;stroke-linecap:round;stroke-linejoin:round;stroke-miterlimit:10;" d="    M136.406,188.481c4.807,4.796,12.588,4.796,17.395,0c4.799-4.808,4.806-12.598,0-17.404l-70.687-70.687H7.5"/>
		
			<line style="fill:none;stroke:#000000;stroke-width:15;stroke-linecap:round;stroke-linejoin:round;stroke-miterlimit:10;" x1="136.406" y1="188.481" x2="110.657" y2="162.733"/>
	</g>
	<path style="fill:none;stroke:#000000;stroke-width:15;stroke-linecap:round;stroke-linejoin:round;stroke-miterlimit:10;" d="   M195.078,151.788c-36.235-32.045-59.909-53.643-59.909-80.146c0-21.568,16.738-38.306,38.305-38.306   c11.874,0,23.708,5.575,31.363,14.631c7.656-9.056,19.505-14.631,31.371-14.631c21.568,0,38.305,16.737,38.305,38.306   c0,26.504-23.672,48.102-59.907,80.146l-9.768,9.731L195.078,151.788z"/>
</g>
  <g>
</g>
  <g>
</g>
  <g>
</g>
  <g>
</g>
  <g>
</g>
  <g>
</g>
  <g>
</g>
  <g>
</g>
  <g>
</g>
  <g>
</g>
  <g>
</g>
  <g>
</g>
  <g>
</g>
  <g>
</g>
  <g>
</g>
</svg>
