<?xml version="1.0" encoding="iso-8859-1"?>
<!-- Generator: Adobe Illustrator 18.0.0, SVG Export Plug-In . SVG Version: 6.00 Build 0)  -->
<!DOCTYPE svg PUBLIC "-//W3C//DTD SVG 1.1//EN" "http://www.w3.org/Graphics/SVG/1.1/DTD/svg11.dtd">
<svg xmlns="http://www.w3.org/2000/svg" xmlns:xlink="http://www.w3.org/1999/xlink" version="1.1" id="Capa_1" x="0px" y="0px" viewBox="0 0 334.623 334.623" style="enable-background:new 0 0 334.623 334.623;" xml:space="preserve">
  <g>
	<path style="fill:none;stroke:#000000;stroke-width:15;stroke-linecap:round;stroke-linejoin:round;stroke-miterlimit:10;" d="   M106.094,207.08c0,19.166-15.547,34.711-34.719,34.711s-34.711-15.545-34.711-34.711c0-19.175,15.539-34.709,34.711-34.709   S106.094,187.905,106.094,207.08z"/>
	<path style="fill:none;stroke:#000000;stroke-width:15;stroke-linecap:round;stroke-linejoin:round;stroke-miterlimit:10;" d="   M291.816,207.08c0,19.166-15.547,34.711-34.711,34.711c-19.18,0-34.711-15.545-34.711-34.711c0-19.175,15.531-34.709,34.711-34.709   C276.27,172.371,291.816,187.905,291.816,207.08z"/>
	
		<line style="fill:none;stroke:#000000;stroke-width:15;stroke-linecap:round;stroke-linejoin:round;stroke-miterlimit:10;" x1="223.775" y1="216.719" x2="104.707" y2="216.719"/>
	
		<polyline style="fill:none;stroke:#000000;stroke-width:15;stroke-linecap:round;stroke-linejoin:round;stroke-miterlimit:10;" points="   38.053,216.719 7.5,216.719 7.5,146.824 316.679,146.824 327.123,216.719 290.443,216.719  "/>
	
		<polygon style="fill:none;stroke:#000000;stroke-width:15;stroke-linecap:round;stroke-linejoin:round;stroke-miterlimit:10;" points="   247.875,146.824 63.248,146.824 84.129,92.832 204.506,92.832  "/>
	
		<line style="fill:none;stroke:#000000;stroke-width:15;stroke-linecap:round;stroke-linejoin:round;stroke-miterlimit:10;" x1="172.129" y1="175.738" x2="190.684" y2="175.738"/>
	
		<line style="fill:none;stroke:#000000;stroke-width:15;stroke-linecap:round;stroke-linejoin:round;stroke-miterlimit:10;" x1="143.686" y1="92.832" x2="143.686" y2="216.719"/>
</g>
  <g>
</g>
  <g>
</g>
  <g>
</g>
  <g>
</g>
  <g>
</g>
  <g>
</g>
  <g>
</g>
  <g>
</g>
  <g>
</g>
  <g>
</g>
  <g>
</g>
  <g>
</g>
  <g>
</g>
  <g>
</g>
  <g>
</g>
</svg>
