<?xml version="1.0" encoding="iso-8859-1"?>
<!-- Generator: Adobe Illustrator 18.0.0, SVG Export Plug-In . SVG Version: 6.00 Build 0)  -->
<!DOCTYPE svg PUBLIC "-//W3C//DTD SVG 1.1//EN" "http://www.w3.org/Graphics/SVG/1.1/DTD/svg11.dtd">
<svg xmlns="http://www.w3.org/2000/svg" xmlns:xlink="http://www.w3.org/1999/xlink" version="1.1" id="Capa_1" x="0px" y="0px" viewBox="0 0 214.272 214.272" style="enable-background:new 0 0 214.272 214.272;" xml:space="preserve">
  <g>
	<path style="fill:none;stroke:#000000;stroke-width:15;stroke-linecap:round;stroke-linejoin:round;stroke-miterlimit:10;" d="   M146.811,67.603c7.127,7.13,18.681,7.123,25.807,0c7.127-7.124,7.127-18.677,0-25.806c-7.126-7.131-18.68-7.131-25.807,0   C139.684,48.926,139.684,60.479,146.811,67.603z"/>
	<path style="fill:none;stroke:#000000;stroke-width:15;stroke-linecap:round;stroke-linejoin:round;stroke-miterlimit:10;" d="   M7.5,179.757v26.871h26.875l85.5-85.431c22.475,11.3,50.577,7.564,69.337-11.197c23.413-23.413,23.413-61.375,0-84.793   c-23.418-23.415-61.383-23.421-84.801-0.006C85.745,43.876,81.959,71.787,93.054,94.201l-31.803,31.801H34.375v26.876"/>
	
		<polyline style="fill:none;stroke:#000000;stroke-width:15;stroke-linecap:round;stroke-linejoin:round;stroke-miterlimit:10;" points="   7.5,179.757 7.5,152.877 34.375,152.877  "/>
</g>
  <g>
</g>
  <g>
</g>
  <g>
</g>
  <g>
</g>
  <g>
</g>
  <g>
</g>
  <g>
</g>
  <g>
</g>
  <g>
</g>
  <g>
</g>
  <g>
</g>
  <g>
</g>
  <g>
</g>
  <g>
</g>
  <g>
</g>
</svg>
