<?xml version="1.0" encoding="iso-8859-1"?>
<!-- Generator: Adobe Illustrator 18.0.0, SVG Export Plug-In . SVG Version: 6.00 Build 0)  -->
<!DOCTYPE svg PUBLIC "-//W3C//DTD SVG 1.1//EN" "http://www.w3.org/Graphics/SVG/1.1/DTD/svg11.dtd">
<svg xmlns="http://www.w3.org/2000/svg" xmlns:xlink="http://www.w3.org/1999/xlink" version="1.1" id="Capa_1" x="0px" y="0px" viewBox="0 0 227.214 227.214" style="enable-background:new 0 0 227.214 227.214;" xml:space="preserve">
  <g>
	<path style="fill:none;stroke:#000000;stroke-width:15;stroke-linecap:round;stroke-linejoin:round;stroke-miterlimit:10;" d="   M167.843,76.683c0.264-1.829,0.402-3.695,0.402-5.601c0-16.012-9.491-29.822-23.148-36.105C142.993,19.459,129.701,7.5,113.608,7.5   c-16.097,0-29.384,11.959-31.489,27.477c-13.668,6.283-23.15,20.094-23.15,36.105c0,1.905,0.143,3.771,0.4,5.601   c-15.018,8.034-25.234,23.864-25.234,42.083c0,26.34,21.342,47.683,47.686,47.683c12.209,0,51.365,0,63.574,0   c26.342,0,47.686-21.343,47.686-47.683C193.08,100.547,182.863,84.717,167.843,76.683z"/>
	<g>
		
			<polyline style="fill:none;stroke:#000000;stroke-width:15;stroke-linecap:round;stroke-linejoin:round;stroke-miterlimit:10;" points="    101.306,166.448 101.306,219.714 125.906,219.714 125.906,166.448   "/>
	</g>
</g>
  <g>
</g>
  <g>
</g>
  <g>
</g>
  <g>
</g>
  <g>
</g>
  <g>
</g>
  <g>
</g>
  <g>
</g>
  <g>
</g>
  <g>
</g>
  <g>
</g>
  <g>
</g>
  <g>
</g>
  <g>
</g>
  <g>
</g>
</svg>
