<?xml version="1.0" encoding="iso-8859-1"?>
<!-- Generator: Adobe Illustrator 18.0.0, SVG Export Plug-In . SVG Version: 6.00 Build 0)  -->
<!DOCTYPE svg PUBLIC "-//W3C//DTD SVG 1.1//EN" "http://www.w3.org/Graphics/SVG/1.1/DTD/svg11.dtd">
<svg xmlns="http://www.w3.org/2000/svg" xmlns:xlink="http://www.w3.org/1999/xlink" version="1.1" id="Capa_1" x="0px" y="0px" viewBox="0 0 231.949 231.949" style="enable-background:new 0 0 231.949 231.949;" xml:space="preserve">
  <g>
	<path style="fill:none;stroke:#000000;stroke-width:15;stroke-linecap:round;stroke-linejoin:round;stroke-miterlimit:10;" d="   M136.77,58.532l31.139-17.115l0.08,30.564c15.912,8.117,28.308,22.118,34.313,39.146h22.148v36.327h-19.4   c-3.797,20.214-16.273,37.353-33.41,47.424v26.928h-35.494l0.064-17.31H77.572l-0.012,17.31H39.83v-28.351   C20.395,180.999,7.5,159.225,7.5,134.425c0-31.902,21.318-58.826,50.486-67.298"/>
	<path style="fill:none;stroke:#000000;stroke-width:15;stroke-linecap:round;stroke-linejoin:round;stroke-miterlimit:10;" d="   M137.402,51.404c0,22.786-18.473,41.26-41.26,41.26c-22.785,0-41.264-18.474-41.264-41.26c0-22.789,18.479-41.26,41.264-41.26   C118.93,10.144,137.402,28.615,137.402,51.404z"/>
	
		<line style="fill:none;stroke:#000000;stroke-width:15;stroke-linecap:round;stroke-linejoin:round;stroke-miterlimit:10;" x1="54.879" y1="92.664" x2="137.402" y2="92.664"/>
</g>
  <g>
</g>
  <g>
</g>
  <g>
</g>
  <g>
</g>
  <g>
</g>
  <g>
</g>
  <g>
</g>
  <g>
</g>
  <g>
</g>
  <g>
</g>
  <g>
</g>
  <g>
</g>
  <g>
</g>
  <g>
</g>
  <g>
</g>
</svg>
