<?xml version="1.0" encoding="iso-8859-1"?>
<!-- Generator: Adobe Illustrator 18.0.0, SVG Export Plug-In . SVG Version: 6.00 Build 0)  -->
<!DOCTYPE svg PUBLIC "-//W3C//DTD SVG 1.1//EN" "http://www.w3.org/Graphics/SVG/1.1/DTD/svg11.dtd">
<svg xmlns="http://www.w3.org/2000/svg" xmlns:xlink="http://www.w3.org/1999/xlink" version="1.1" id="Capa_1" x="0px" y="0px" viewBox="0 0 229.018 229.018" style="enable-background:new 0 0 229.018 229.018;" xml:space="preserve">
  <g>
	<g>
		<path style="fill:none;stroke:#000000;stroke-width:15;stroke-linecap:round;stroke-linejoin:round;stroke-miterlimit:10;" d="    M114.512,59.243c-28.531,0-51.748,23.221-51.748,51.748c0,11.681,3.834,22.706,11.07,31.895c1.56,1.985,3.262,3.956,5.059,6.04    c5.833,6.769,12.436,14.439,15.035,23.955c0.365,1.355,0.85,3.852,0.785,9.874v4.526h39.272v-4.526    c-0.04-5.673,0.428-8.072,0.789-9.385c2.611-9.44,9.594-17.635,15.739-24.863c1.682-1.976,3.271-3.835,4.664-5.607    c7.244-9.19,11.077-20.221,11.077-31.908C166.254,82.464,143.043,59.243,114.512,59.243z"/>
		
			<line style="fill:none;stroke:#000000;stroke-width:15;stroke-linecap:round;stroke-linejoin:round;stroke-miterlimit:10;" x1="94.713" y1="204.41" x2="133.984" y2="204.41"/>
		
			<line style="fill:none;stroke:#000000;stroke-width:15;stroke-linecap:round;stroke-linejoin:round;stroke-miterlimit:10;" x1="104.531" y1="221.518" x2="124.166" y2="221.518"/>
	</g>
	
		<line style="fill:none;stroke:#000000;stroke-width:15;stroke-linecap:round;stroke-linejoin:round;stroke-miterlimit:10;" x1="192.127" y1="110.991" x2="218" y2="110.991"/>
	
		<line style="fill:none;stroke:#000000;stroke-width:15;stroke-linecap:round;stroke-linejoin:round;stroke-miterlimit:10;" x1="11.018" y1="110.991" x2="36.894" y2="110.991"/>
	
		<line style="fill:none;stroke:#000000;stroke-width:15;stroke-linecap:round;stroke-linejoin:round;stroke-miterlimit:10;" x1="114.51" y1="7.5" x2="114.51" y2="33.381"/>
	
		<line style="fill:none;stroke:#000000;stroke-width:15;stroke-linecap:round;stroke-linejoin:round;stroke-miterlimit:10;" x1="169.389" y1="165.872" x2="187.685" y2="184.173"/>
	
		<line style="fill:none;stroke:#000000;stroke-width:15;stroke-linecap:round;stroke-linejoin:round;stroke-miterlimit:10;" x1="41.332" y1="37.811" x2="59.621" y2="56.105"/>
	
		<line style="fill:none;stroke:#000000;stroke-width:15;stroke-linecap:round;stroke-linejoin:round;stroke-miterlimit:10;" x1="59.629" y1="165.872" x2="41.332" y2="184.173"/>
	
		<line style="fill:none;stroke:#000000;stroke-width:15;stroke-linecap:round;stroke-linejoin:round;stroke-miterlimit:10;" x1="187.685" y1="37.811" x2="169.393" y2="56.105"/>
</g>
  <g>
</g>
  <g>
</g>
  <g>
</g>
  <g>
</g>
  <g>
</g>
  <g>
</g>
  <g>
</g>
  <g>
</g>
  <g>
</g>
  <g>
</g>
  <g>
</g>
  <g>
</g>
  <g>
</g>
  <g>
</g>
  <g>
</g>
</svg>
