<?xml version="1.0" encoding="iso-8859-1"?>
<!-- Generator: Adobe Illustrator 18.0.0, SVG Export Plug-In . SVG Version: 6.00 Build 0)  -->
<!DOCTYPE svg PUBLIC "-//W3C//DTD SVG 1.1//EN" "http://www.w3.org/Graphics/SVG/1.1/DTD/svg11.dtd">
<svg xmlns="http://www.w3.org/2000/svg" xmlns:xlink="http://www.w3.org/1999/xlink" version="1.1" id="Capa_1" x="0px" y="0px" viewBox="0 0 243.722 243.722" style="enable-background:new 0 0 243.722 243.722;" xml:space="preserve">
  <g>
	
		<polyline style="fill:none;stroke:#000000;stroke-width:15;stroke-linecap:round;stroke-linejoin:round;stroke-miterlimit:10;" points="   7.5,201.79 7.5,128.508 87.324,128.508 87.324,201.79  "/>
	
		<polygon style="fill:none;stroke:#000000;stroke-width:15;stroke-linecap:round;stroke-linejoin:round;stroke-miterlimit:10;" points="   105.49,58.691 28.605,58.691 7.5,128.508 105.49,128.508  "/>
	
		<rect x="43.176" y="24.247" style="fill:none;stroke:#000000;stroke-width:15;stroke-linecap:round;stroke-linejoin:round;stroke-miterlimit:10;" width="44.148" height="34.444"/>
	
		<line style="fill:none;stroke:#000000;stroke-width:15;stroke-linecap:round;stroke-linejoin:round;stroke-miterlimit:10;" x1="32.133" y1="24.247" x2="98.361" y2="24.247"/>
	
		<polyline style="fill:none;stroke:#000000;stroke-width:15;stroke-linecap:round;stroke-linejoin:round;stroke-miterlimit:10;" points="   236.219,201.79 236.219,128.508 156.398,128.508 156.398,201.79  "/>
	
		<polygon style="fill:none;stroke:#000000;stroke-width:15;stroke-linecap:round;stroke-linejoin:round;stroke-miterlimit:10;" points="   138.236,58.691 215.119,58.691 236.219,128.508 138.236,128.508  "/>
	
		<rect x="156.398" y="24.247" style="fill:none;stroke:#000000;stroke-width:15;stroke-linecap:round;stroke-linejoin:round;stroke-miterlimit:10;" width="44.153" height="34.444"/>
	
		<line style="fill:none;stroke:#000000;stroke-width:15;stroke-linecap:round;stroke-linejoin:round;stroke-miterlimit:10;" x1="211.584" y1="24.247" x2="145.357" y2="24.247"/>
	
		<rect x="105.49" y="76.15" style="fill:none;stroke:#000000;stroke-width:15;stroke-linecap:round;stroke-linejoin:round;stroke-miterlimit:10;" width="32.746" height="34.906"/>
	<path style="fill:none;stroke:#000000;stroke-width:15;stroke-linecap:round;stroke-linejoin:round;stroke-miterlimit:10;" d="   M87.324,201.78c0,9.775-17.871,17.695-39.916,17.695c-22.041,0-39.908-7.92-39.908-17.695c0-9.77,17.867-17.695,39.908-17.695   C69.453,184.084,87.324,192.01,87.324,201.78z"/>
	<path style="fill:none;stroke:#000000;stroke-width:15;stroke-linecap:round;stroke-linejoin:round;stroke-miterlimit:10;" d="   M236.222,201.78c0,9.775-17.874,17.695-39.913,17.695c-22.041,0-39.91-7.92-39.91-17.695c0-9.77,17.869-17.695,39.91-17.695   C218.348,184.084,236.222,192.01,236.222,201.78z"/>
</g>
  <g>
</g>
  <g>
</g>
  <g>
</g>
  <g>
</g>
  <g>
</g>
  <g>
</g>
  <g>
</g>
  <g>
</g>
  <g>
</g>
  <g>
</g>
  <g>
</g>
  <g>
</g>
  <g>
</g>
  <g>
</g>
  <g>
</g>
</svg>
