<?xml version="1.0" encoding="iso-8859-1"?>
<!-- Generator: Adobe Illustrator 18.0.0, SVG Export Plug-In . SVG Version: 6.00 Build 0)  -->
<!DOCTYPE svg PUBLIC "-//W3C//DTD SVG 1.1//EN" "http://www.w3.org/Graphics/SVG/1.1/DTD/svg11.dtd">
<svg xmlns="http://www.w3.org/2000/svg" xmlns:xlink="http://www.w3.org/1999/xlink" version="1.1" id="Capa_1" x="0px" y="0px" viewBox="0 0 250.189 250.189" style="enable-background:new 0 0 250.189 250.189;" xml:space="preserve">
  <g>
	<path style="fill:none;stroke:#000000;stroke-width:15;stroke-linecap:round;stroke-linejoin:round;stroke-miterlimit:10;" d="   M152.345,151.127V34.744c0-15.051-12.199-27.244-27.252-27.244c-15.049,0-27.246,12.193-27.246,27.244v116.383   c-13.598,8.909-22.617,24.215-22.617,41.698c0,27.528,22.326,49.864,49.863,49.864c27.541,0,49.867-22.336,49.867-49.864   C174.96,175.342,165.94,160.036,152.345,151.127z"/>
	<path style="stroke:#000000;stroke-miterlimit:10;" d="M150.026,192.825c0,13.767-11.158,24.931-24.932,24.931   c-13.77,0-24.93-11.164-24.93-24.931c0-13.776,11.16-24.933,24.93-24.933C138.868,167.893,150.026,179.049,150.026,192.825z"/>
	
		<line style="fill:none;stroke:#000000;stroke-width:15;stroke-linecap:round;stroke-linejoin:round;stroke-miterlimit:10;" x1="125.095" y1="69.924" x2="125.095" y2="192.825"/>
</g>
  <g>
</g>
  <g>
</g>
  <g>
</g>
  <g>
</g>
  <g>
</g>
  <g>
</g>
  <g>
</g>
  <g>
</g>
  <g>
</g>
  <g>
</g>
  <g>
</g>
  <g>
</g>
  <g>
</g>
  <g>
</g>
  <g>
</g>
</svg>
