<?xml version="1.0"?>
<svg xmlns="http://www.w3.org/2000/svg" viewBox="0 0 32 32" enable-background="new 0 0 32 32">
  <path style="text-indent:0;text-align:start;line-height:normal;text-transform:none;block-progression:tb;-inkscape-font-specification:Bitstream Vera Sans" d="M 17 3.59375 L 15.28125 5.28125 L 9.5625 11 L 6 11 L 5 11 L 5 12 L 5 20 L 5 21 L 6 21 L 9.5625 21 L 15.28125 26.71875 L 17 28.40625 L 17 26 L 17 6 L 17 3.59375 z M 23.8125 8.1875 L 22.40625 9.59375 C 25.9255 13.113 25.9255 18.762 22.40625 22.28125 L 23.8125 23.71875 C 28.09325 19.438 28.09325 12.46825 23.8125 8.1875 z M 15 8.4375 L 15 23.5625 L 10.71875 19.28125 L 10.40625 19 L 10 19 L 7 19 L 7 13 L 10 13 L 10.40625 13 L 10.71875 12.71875 L 15 8.4375 z M 20.90625 11.09375 L 19.5 12.5 C 21.410579 14.410579 21.403908 17.574454 19.46875 19.59375 L 20.9375 21 C 23.602342 18.219296 23.595671 13.783171 20.90625 11.09375 z" color="#000" overflow="visible" enable-background="accumulate" font-family="Bitstream Vera Sans"/>
</svg>
