<?xml version="1.0"?>
<svg xmlns="http://www.w3.org/2000/svg" viewBox="0 0 32 32" enable-background="new 0 0 32 32">
  <path style="text-indent:0;text-align:start;line-height:normal;text-transform:none;block-progression:tb;-inkscape-font-specification:Bitstream Vera Sans" d="M 11.5 6 L 11.1875 6.40625 L 10 8 L 4 8 L 3 8 L 3 9 L 3 25 L 3 26 L 4 26 L 28 26 L 29 26 L 29 25 L 29 9 L 29 8 L 28 8 L 22 8 L 20.8125 6.40625 L 20.5 6 L 20 6 L 12 6 L 11.5 6 z M 12.5 8 L 19.5 8 L 20.6875 9.59375 L 21 10 L 21.5 10 L 27 10 L 27 24 L 5 24 L 5 10 L 10.5 10 L 11 10 L 11.3125 9.59375 L 12.5 8 z M 15.9375 10.90625 C 14.400281 10.90625 12.870169 11.504831 11.6875 12.6875 C 9.3221615 15.052839 9.3221615 18.853411 11.6875 21.21875 C 14.052839 23.584089 17.853411 23.584089 20.21875 21.21875 C 20.813031 20.624469 21.299254 19.914737 21.5625 19.125 L 19.65625 18.46875 C 19.519496 18.879013 19.186969 19.375531 18.78125 19.78125 C 17.146589 21.415911 14.728411 21.415911 13.09375 19.78125 C 11.459089 18.146589 11.459089 15.728411 13.09375 14.09375 C 14.728411 12.459089 17.146589 12.459089 18.78125 14.09375 C 18.971907 14.284407 19.134424 14.511765 19.28125 14.71875 L 18 16 L 22 16 L 22 12 L 20.71875 13.28125 C 20.553925 13.076243 20.389864 12.858614 20.21875 12.6875 C 19.036081 11.504831 17.474719 10.90625 15.9375 10.90625 z" color="#000" overflow="visible" enable-background="accumulate" font-family="Bitstream Vera Sans"/>
</svg>
