<?xml version="1.0"?>
<svg xmlns="http://www.w3.org/2000/svg" viewBox="0 0 32 32" enable-background="new 0 0 32 32">
  <path style="text-indent:0;text-align:start;line-height:normal;text-transform:none;block-progression:tb;-inkscape-font-specification:Bitstream Vera Sans" d="M 16 4 C 9.2989071 4 4 9.8961478 4 15.8125 C 4 18.378443 5.1813746 20.481673 7 22.03125 L 7 23 C 7 24.645455 8.3545455 26 10 26 L 11 26 C 11 27.645455 12.354545 29 14 29 L 18 29 C 19.645455 29 21 27.645455 21 26 L 22 26 C 23.645455 26 25 24.645455 25 23 L 25 22.03125 C 26.818625 20.481673 28 18.378443 28 15.8125 C 28 9.8961478 22.701093 4 16 4 z M 16 6 C 21.498907 6 26 11.128852 26 15.8125 C 26 18.019167 25.088485 19.666708 23.40625 20.90625 L 23 21.1875 L 23 21.6875 L 23 23 C 23 23.554545 22.554545 24 22 24 L 20 24 L 19 24 L 19 25 L 19 26 C 19 26.554545 18.554545 27 18 27 L 14 27 C 13.445455 27 13 26.554545 13 26 L 13 25 L 13 24 L 12 24 L 10 24 C 9.4454545 24 9 23.554545 9 23 L 9 21.6875 L 9 21.1875 L 8.59375 20.90625 C 6.911515 19.666708 6 18.019167 6 15.8125 C 6 11.128852 10.501093 6 16 6 z M 12 15 C 10.35499 15 9 16.35499 9 18 C 9 19.64501 10.35499 21 12 21 C 13.64501 21 15 19.64501 15 18 C 15 16.35499 13.64501 15 12 15 z M 20 15 C 18.35499 15 17 16.35499 17 18 C 17 19.64501 18.35499 21 20 21 C 21.64501 21 23 19.64501 23 18 C 23 16.35499 21.64501 15 20 15 z M 12 17 C 12.564128 17 13 17.435872 13 18 C 13 18.564128 12.564128 19 12 19 C 11.435872 19 11 18.564128 11 18 C 11 17.435872 11.435872 17 12 17 z M 20 17 C 20.564128 17 21 17.435872 21 18 C 21 18.564128 20.564128 19 20 19 C 19.435872 19 19 18.564128 19 18 C 19 17.435872 19.435872 17 20 17 z M 16 20.8125 C 15.4 20.9125 14.40625 22.50625 14.40625 23.40625 C 14.40625 23.80625 14.8 24 15 24 C 15.5 24 15.9 23.49375 16 23.09375 C 16.1 23.49375 16.4 24 17 24 C 17.4 24 17.59375 23.80625 17.59375 23.40625 C 17.59375 22.50625 16.6 20.9125 16 20.8125 z" color="#000" overflow="visible" enable-background="accumulate" font-family="Bitstream Vera Sans"/>
</svg>
