<?xml version="1.0"?>
<svg xmlns="http://www.w3.org/2000/svg" viewBox="0 0 32 32" enable-background="new 0 0 32 32">
  <path style="text-indent:0;text-align:start;line-height:normal;text-transform:none;block-progression:tb;-inkscape-font-specification:Bitstream Vera Sans" d="M 16 5 C 12.67619 5 10 7.6761905 10 11 C 10 11.351979 10.037861 11.682918 10.09375 12 L 6 12 C 5.4777778 12 4.9395305 12.185469 4.5625 12.5625 C 4.1854695 12.939531 4 13.477778 4 14 L 4 25 C 4 25.522222 4.1854695 26.060469 4.5625 26.4375 C 4.9395305 26.814531 5.4777778 27 6 27 L 26 27 C 26.522222 27 27.060469 26.814531 27.4375 26.4375 C 27.814531 26.060469 28 25.522222 28 25 L 28 14 C 28 13.477778 27.814531 12.939531 27.4375 12.5625 C 27.060469 12.185469 26.522222 12 26 12 L 21.9375 12 C 21.98555 11.662375 22 11.32774 22 11 C 22 7.6761905 19.32381 5 16 5 z M 16 7 C 18.27619 7 20 8.7238095 20 11 C 20 11.364636 19.973502 11.693908 19.90625 12 L 12.15625 12 C 12.068833 11.647686 12 11.310041 12 11 C 12 8.7238095 13.72381 7 16 7 z M 6 14 L 26 14 L 26 25 L 20.90625 25 C 20.63821 23.702415 19.845881 22.565199 18.78125 21.84375 C 19.524739 21.116062 20 20.114227 20 19 C 20 16.802706 18.197294 15 16 15 C 13.802706 15 12 16.802706 12 19 C 12 20.114227 12.475261 21.116062 13.21875 21.84375 C 12.154119 22.565199 11.36179 23.702415 11.09375 25 L 6 25 L 6 14 z M 16 17 C 17.116414 17 18 17.883586 18 19 C 18 20.116414 17.116414 21 16 21 C 14.883586 21 14 20.116414 14 19 C 14 17.883586 14.883586 17 16 17 z M 16 23 C 17.299507 23 18.396462 23.84216 18.8125 25 L 13.1875 25 C 13.603538 23.84216 14.700493 23 16 23 z" color="#000" overflow="visible" enable-background="accumulate" font-family="Bitstream Vera Sans"/>
</svg>
