<?xml version="1.0"?>
<svg xmlns="http://www.w3.org/2000/svg" viewBox="0 0 32 32" enable-background="new 0 0 32 32">
  <path style="text-indent:0;text-align:start;line-height:normal;text-transform:none;block-progression:tb;-inkscape-font-specification:Bitstream Vera Sans" d="M 16 3 C 13.250421 3 11 5.2504209 11 8 C 11 9.5621327 11.743378 10.95625 12.875 11.875 C 11.149593 12.926543 10 14.823544 10 17 L 12 17 C 12 14.72381 13.72381 13 16 13 C 18.27619 13 20 14.72381 20 17 L 22 17 C 22 14.823544 20.850407 12.926543 19.125 11.875 C 20.256622 10.95625 21 9.5621327 21 8 C 21 5.2504209 18.749579 3 16 3 z M 16 5 C 17.668699 5 19 6.3313011 19 8 C 19 9.6686989 17.668699 11 16 11 C 14.331301 11 13 9.6686989 13 8 C 13 6.3313011 14.331301 5 16 5 z M 25 11 C 23.895431 11 23 11.895431 23 13 C 23 13.739604 23.403104 14.372707 24 14.71875 L 24 17 L 26 17 L 26 14.71875 C 26.596896 14.372707 27 13.739604 27 13 C 27 11.895431 26.104569 11 25 11 z M 4 18 L 4 20 L 6.40625 20 L 8 24 L 10 24 L 10 28 L 12 28 L 12 24 L 20 24 L 20 28 L 22 28 L 22 24 L 24 24 L 25.59375 20 L 28 20 L 28 18 L 4 18 z M 8.40625 20 L 23.59375 20 L 22.8125 22 L 21 22 L 20 22 L 11 22 L 9.1875 22 L 8.40625 20 z"/>
</svg>
