<?xml version="1.0"?>
<svg xmlns="http://www.w3.org/2000/svg" viewBox="0 0 32 32" enable-background="new 0 0 32 32">
  <path style="text-indent:0;text-align:start;line-height:normal;text-transform:none;block-progression:tb;-inkscape-font-specification:Bitstream Vera Sans" d="M 3 5 L 3 27 L 13.5 27 L 15.5 25 L 5 25 L 5 7 L 27 7 L 27 13.5 L 29 11.5 L 29 5 L 3 5 z M 7 9 L 7 23 L 17.5 23 L 19.5 21 L 9 21 L 9 11 L 23 11 L 23 17.5 L 25 15.5 L 25 9 L 7 9 z M 29 15.03125 C 28.234835 15.03125 27.483027 15.329473 26.90625 15.90625 L 17 25.78125 L 16.78125 26 L 16.71875 26.3125 L 16.03125 29.8125 L 15.71875 31.28125 L 17.1875 30.96875 L 20.6875 30.28125 L 21 30.21875 L 21.21875 30 L 31.09375 20.09375 C 32.247303 18.940197 32.247303 17.059803 31.09375 15.90625 C 30.516973 15.329473 29.765165 15.03125 29 15.03125 z M 29 16.96875 C 29.234835 16.96875 29.464277 17.089277 29.6875 17.3125 C 30.133947 17.758947 30.133947 18.241053 29.6875 18.6875 L 20 28.375 L 18.28125 28.71875 L 18.625 27 L 28.25 17.34375 L 28.3125 17.3125 C 28.535723 17.089277 28.765165 16.96875 29 16.96875 z" color="#000" overflow="visible" enable-background="accumulate" font-family="Bitstream Vera Sans"/>
</svg>
