<?xml version="1.0"?>
<svg xmlns="http://www.w3.org/2000/svg" viewBox="0 0 32 32" enable-background="new 0 0 32 32">
  <path style="text-indent:0;text-align:start;line-height:normal;text-transform:none;block-progression:tb;-inkscape-font-specification:Bitstream Vera Sans" d="M 30.34375 1.59375 L 26.4375 4.15625 L 20.1875 8.25 L 20.5625 7.59375 L 22.1875 4.65625 L 19.21875 6.21875 C 19.21875 6.21875 16.491856 7.6799768 13.28125 9.59375 C 10.070644 11.507523 6.415642 13.826166 4.40625 15.78125 C 1.1388215 19.048679 1.131987 24.317916 4.40625 27.5 L 4.4375 27.5 C 7.7062998 30.748258 12.917914 30.767833 16.09375 27.5 L 16.09375 27.46875 C 17.796899 25.759777 19.903825 22.657618 21.625 19.90625 C 23.350969 17.14722 24.65625 14.78125 24.65625 14.78125 L 26.0625 12.3125 L 23.4375 13.375 L 22.625 13.6875 L 27.84375 5.53125 L 30.34375 1.59375 z M 23.625 8.40625 L 19.25 15.25 L 17.5625 17.90625 L 20.46875 16.71875 L 21.40625 16.34375 C 20.865958 17.264499 20.749562 17.495682 19.90625 18.84375 C 18.207219 21.55972 16.081632 24.699618 14.6875 26.09375 C 12.267639 28.600034 8.3386274 28.619877 5.8125 26.09375 L 5.78125 26.09375 C 3.2749655 23.673889 3.2863726 19.744877 5.8125 17.21875 C 7.503108 15.573834 11.148106 13.198727 14.3125 11.3125 C 15.839137 10.402505 16.064166 10.278174 17.125 9.6875 L 16.53125 10.8125 L 14.59375 14.34375 L 17.9375 12.125 L 23.625 8.40625 z M 10 18 C 7.7901961 18 6 19.790196 6 22 C 6 24.209804 7.7901961 26 10 26 C 12.209804 26 14 24.209804 14 22 C 14 19.790196 12.209804 18 10 18 z M 10 20 C 11.190196 20 12 20.809804 12 22 C 12 23.190196 11.190196 24 10 24 C 8.8098039 24 8 23.190196 8 22 C 8 20.809804 8.8098039 20 10 20 z" color="#000" overflow="visible" enable-background="accumulate" font-family="Bitstream Vera Sans"/>
</svg>
