<?xml version="1.0"?>
<svg xmlns="http://www.w3.org/2000/svg" viewBox="0 0 32 32" enable-background="new 0 0 32 32">
  <path style="text-indent:0;text-align:start;line-height:normal;text-transform:none;block-progression:tb;-inkscape-font-specification:Bitstream Vera Sans" d="M 16 4 C 9.3844277 4 4 9.3844277 4 16 C 4 22.615572 9.3844277 28 16 28 C 20.174222 28 23.849386 25.869002 26 22.625 L 26 25 C 26 27.745455 28.254545 30 31 30 L 32 30 L 32 28 L 31 28 C 29.345455 28 28 26.654545 28 25 L 28 16 C 28 9.3844277 22.615572 4 16 4 z M 16 6 C 21.534692 6 26 10.465308 26 16 C 26 21.534692 21.534692 26 16 26 C 10.465308 26 6 21.534692 6 16 C 6 10.465308 10.465308 6 16 6 z M 16 7 C 14.866667 7 13.8125 7.21875 13.8125 7.21875 L 12.75 7.4375 L 13.03125 8.46875 L 13.84375 11.375 L 14.03125 12.09375 L 14.8125 12.09375 C 15.379167 12.09375 15.766667 12 16 12 C 16.233333 12 16.620833 12.09375 17.1875 12.09375 L 17.96875 12.09375 L 18.15625 11.375 L 18.96875 8.46875 L 19.25 7.4375 L 18.1875 7.21875 C 18.1875 7.21875 17.133333 7 16 7 z M 16 9 C 16.343098 9 16.416064 9.028306 16.71875 9.0625 L 16.46875 10.03125 C 16.29712 10.012412 16.223469 10 16 10 C 15.776531 10 15.70288 10.01241 15.53125 10.03125 L 15.28125 9.0625 C 15.583936 9.0283056 15.656902 9 16 9 z M 7.4375 12.75 L 7.21875 13.8125 C 7.21875 13.8125 7 14.866667 7 16 C 7 17.133333 7.21875 18.1875 7.21875 18.1875 L 7.4375 19.25 L 8.46875 18.96875 L 11.375 18.15625 L 12.09375 17.96875 L 12.09375 17.1875 C 12.09375 16.620833 12 16.233333 12 16 C 12 15.766667 12.09375 15.379167 12.09375 14.8125 L 12.09375 14.03125 L 11.375 13.84375 L 8.46875 13.03125 L 7.4375 12.75 z M 24.5625 12.75 L 23.53125 13.03125 L 20.625 13.84375 L 19.90625 14.03125 L 19.90625 14.8125 C 19.90625 15.379167 20 15.766667 20 16 C 20 16.233333 19.90625 16.620833 19.90625 17.1875 L 19.90625 17.96875 L 20.625 18.15625 L 23.53125 18.96875 L 24.5625 19.25 L 24.78125 18.1875 C 24.78125 18.1875 25 17.133333 25 16 C 25 14.866667 24.78125 13.8125 24.78125 13.8125 L 24.5625 12.75 z M 16 13 C 14.35499 13 13 14.35499 13 16 C 13 17.64501 14.35499 19 16 19 C 17.64501 19 19 17.64501 19 16 C 19 14.35499 17.64501 13 16 13 z M 16 15 C 16.564128 15 17 15.435872 17 16 C 17 16.564128 16.564128 17 16 17 C 15.435872 17 15 16.564128 15 16 C 15 15.435872 15.435872 15 16 15 z M 9.0625 15.28125 L 10.03125 15.53125 C 10.012412 15.70288 10 15.776531 10 16 C 10 16.223469 10.01241 16.29712 10.03125 16.46875 L 9.0625 16.71875 C 9.0283056 16.416064 9 16.343098 9 16 C 9 15.656902 9.0283056 15.583936 9.0625 15.28125 z M 22.9375 15.28125 C 22.971694 15.583936 23 15.656902 23 16 C 23 16.343098 22.97169 16.416064 22.9375 16.71875 L 21.96875 16.46875 C 21.987588 16.29712 22 16.223469 22 16 C 22 15.776531 21.98759 15.70288 21.96875 15.53125 L 22.9375 15.28125 z M 14.03125 19.90625 L 13.84375 20.625 L 13.03125 23.53125 L 12.75 24.5625 L 13.8125 24.78125 C 13.8125 24.78125 14.866667 25 16 25 C 17.133333 25 18.1875 24.78125 18.1875 24.78125 L 19.25 24.5625 L 18.96875 23.53125 L 18.15625 20.625 L 17.96875 19.90625 L 17.1875 19.90625 C 16.620833 19.90625 16.233333 20 16 20 C 15.766667 20 15.379167 19.90625 14.8125 19.90625 L 14.03125 19.90625 z M 15.53125 21.96875 C 15.70288 21.987588 15.776531 22 16 22 C 16.223469 22 16.29712 21.98759 16.46875 21.96875 L 16.71875 22.9375 C 16.416064 22.971694 16.343098 23 16 23 C 15.656902 23 15.583936 22.97169 15.28125 22.9375 L 15.53125 21.96875 z" color="#000" overflow="visible" enable-background="accumulate" font-family="Bitstream Vera Sans"/>
</svg>
