<?xml version="1.0"?>
<svg xmlns="http://www.w3.org/2000/svg" viewBox="0 0 32 32" enable-background="new 0 0 32 32">
  <path style="text-indent:0;text-align:start;line-height:normal;text-transform:none;block-progression:tb;-inkscape-font-specification:Bitstream Vera Sans" d="M 16 4 C 11.296296 4 8.1759555 5.4888533 6.34375 7.6875 C 4.5115445 9.8861467 4 12.648822 4 15.09375 C 4 17.756069 5.4994859 19.664916 7 20.90625 C 7.7502571 21.526917 8.501854 21.999515 9.125 22.375 C 9.7182373 22.732464 10.178545 23.045179 10.28125 23.125 C 10.428379 23.376878 11.457464 28 16 28 C 20.542536 28 21.571621 23.376878 21.71875 23.125 C 21.82747 23.03943 22.281882 22.739996 22.875 22.375 C 23.498021 21.991602 24.283072 21.500749 25.03125 20.875 C 26.527606 19.623503 28 17.71412 28 15.09375 C 28 12.648822 27.488456 9.8861467 25.65625 7.6875 C 23.824044 5.4888533 20.703704 4 16 4 z M 16 6 C 20.296296 6 22.675956 7.2673967 24.09375 8.96875 C 25.511544 10.670103 26 12.938678 26 15.09375 C 26 16.97338 24.972394 18.295247 23.71875 19.34375 C 23.091928 19.868001 22.439479 20.289648 21.84375 20.65625 C 21.248021 21.022852 20.771703 21.271093 20.34375 21.65625 L 20.28125 21.6875 L 20.25 21.71875 C 18.576317 23.578398 19.4 26 16 26 C 12.6 26 13.423683 23.578398 11.75 21.71875 L 11.71875 21.6875 L 11.65625 21.65625 C 11.221453 21.264933 10.751854 21.01514 10.15625 20.65625 C 9.560646 20.29736 8.8747429 19.891833 8.25 19.375 C 7.0005141 18.341334 6 17.031431 6 15.09375 C 6 12.938678 6.4884555 10.670103 7.90625 8.96875 C 9.3240445 7.2673967 11.703704 6 16 6 z M 9.34375 11.03125 C 9.1077371 11.02586 8.8819582 11.043247 8.6875 11.0625 C 8.4930418 11.081753 8.3198546 11.116157 8.15625 11.15625 C 7.9926454 11.196343 7.8932848 11.106715 7.5 11.5 C 7.1067152 11.893285 7.1963428 11.992645 7.15625 12.15625 C 7.116157 12.319855 7.081753 12.493042 7.0625 12.6875 C 7.023993 13.076416 7.03586 13.55827 7.09375 14.09375 C 7.2095295 15.164711 7.5654134 16.471663 8.59375 17.5 C 9.636818 18.543068 10.988126 18.868475 12.0625 18.96875 C 12.599687 19.01889 13.070012 19.03139 13.4375 19 C 13.621244 18.9843 13.800415 18.9634 13.9375 18.9375 C 14.00604 18.92455 14.047346 18.898 14.125 18.875 C 14.16383 18.8635 14.21791 18.871 14.28125 18.84375 C 14.34459 18.81652 14.406483 18.78102 14.59375 18.59375 L 14.71875 18.5 L 14.78125 18.34375 C 14.942821 18.020608 14.913719 18.010205 14.9375 17.875 C 14.96128 17.739795 14.98444 17.591092 15 17.40625 C 15.03111 17.036565 15.01909 16.563424 14.96875 16.03125 C 14.868068 14.966902 14.535702 13.629452 13.5 12.59375 C 12.471663 11.565413 11.164711 11.20953 10.09375 11.09375 C 9.8260099 11.064805 9.5797629 11.03664 9.34375 11.03125 z M 22.65625 11.03125 C 22.420237 11.03664 22.17399 11.064805 21.90625 11.09375 C 20.846798 11.208285 19.554787 11.559208 18.53125 12.5625 C 18.52445 12.5689 18.53805 12.58732 18.53125 12.59375 C 18.52675 12.59805 18.50448 12.58945 18.5 12.59375 C 17.461856 13.588802 17.130605 14.935484 17.03125 16 C 16.98104 16.538006 16.96912 16.998948 17 17.375 C 17.01544 17.563026 17.039 17.737955 17.0625 17.875 C 17.086 18.012045 17.04972 18.0057 17.21875 18.34375 L 17.28125 18.5 L 17.40625 18.59375 C 17.593517 18.781017 17.655408 18.816519 17.71875 18.84375 C 17.78209 18.87098 17.836173 18.8635 17.875 18.875 C 17.95265 18.898 17.993957 18.92455 18.0625 18.9375 C 18.199585 18.9634 18.378756 18.9843 18.5625 19 C 18.929988 19.03139 19.400313 19.01889 19.9375 18.96875 C 21.011874 18.868475 22.363182 18.543068 23.40625 17.5 C 24.434587 16.471663 24.79047 15.164711 24.90625 14.09375 C 24.96414 13.55827 24.97601 13.076416 24.9375 12.6875 C 24.91825 12.493042 24.88384 12.319855 24.84375 12.15625 C 24.803657 11.992645 24.893285 11.893285 24.5 11.5 C 24.106715 11.106715 24.007355 11.196343 23.84375 11.15625 C 23.680145 11.116157 23.506958 11.081753 23.3125 11.0625 C 23.118042 11.043245 22.892263 11.02586 22.65625 11.03125 z M 9.4375 13.03125 C 9.5723163 13.028635 9.7167576 13.045395 9.875 13.0625 C 10.654039 13.14672 11.522087 13.428337 12.09375 14 C 12.658048 14.564298 12.925682 15.433098 13 16.21875 C 13.02815 16.516346 13.01021 16.767372 13 17 C 12.774084 17.0088 12.541137 17.02717 12.25 17 C 11.449374 16.925275 10.556932 16.650682 10 16.09375 C 9.4283366 15.522087 9.1467205 14.654039 9.0625 13.875 C 9.028285 13.558515 9.049213 13.292485 9.0625 13.0625 C 9.1774925 13.055855 9.3026837 13.033865 9.4375 13.03125 z M 22.5625 13.03125 C 22.697316 13.033865 22.822508 13.055855 22.9375 13.0625 C 22.95079 13.292485 22.97171 13.558515 22.9375 13.875 C 22.85328 14.654039 22.571663 15.522087 22 16.09375 C 21.443068 16.650682 20.550626 16.925275 19.75 17 C 19.458863 17.02717 19.225916 17.0088 19 17 C 18.98828 16.754571 18.97062 16.502253 19 16.1875 C 19.07457 15.388512 19.339919 14.532889 19.875 14.03125 L 19.90625 14.03125 L 19.90625 14 C 20.477913 13.428337 21.345961 13.14672 22.125 13.0625 C 22.283243 13.045395 22.427684 13.028635 22.5625 13.03125 z M 15.34375 19.875 C 15.133203 19.950195 14.3125 21.06875 14.3125 21.59375 C 14.3125 22.09375 14.60625 22.09375 14.90625 22.09375 C 15.20625 22.09375 15.40625 22.09375 15.40625 21.59375 L 15.40625 19.90625 C 15.40625 19.86875 15.373828 19.864258 15.34375 19.875 z M 16.5625 19.875 C 16.532422 19.864258 16.5 19.86875 16.5 19.90625 L 16.5 21.59375 C 16.5 22.09375 16.79375 22.09375 17.09375 22.09375 C 17.39375 22.09375 17.59375 22.09375 17.59375 21.59375 C 17.59375 21.06875 16.773047 19.950195 16.5625 19.875 z" color="#000" overflow="visible" enable-background="accumulate" font-family="Bitstream Vera Sans"/>
</svg>
