<?xml version="1.0"?>
<svg xmlns="http://www.w3.org/2000/svg" viewBox="0 0 32 32" enable-background="new 0 0 32 32">
  <path style="text-indent:0;text-align:start;line-height:normal;text-transform:none;block-progression:tb;-inkscape-font-specification:Bitstream Vera Sans" d="M 21 4 C 19.354545 4 18 5.3545455 18 7 C 18 8.6454545 19.354545 10 21 10 C 21.522222 10 21.820833 9.90625 21.6875 9.90625 L 21.6875 7.90625 C 21.154167 7.90625 21.077778 8 21 8 C 20.445455 8 20 7.5545455 20 7 C 20 6.4454545 20.445455 6 21 6 C 21.07778 6 21.263007 6.053378 21.34375 6.09375 L 22.25 4.3125 C 21.930743 4.1528715 21.522222 4 21 4 z M 27 6 C 26.447715 6 26 6.4477153 26 7 C 26 7.5522847 26.447715 8 27 8 C 27.552285 8 28 7.5522847 28 7 C 28 6.4477153 27.552285 6 27 6 z M 25 9 C 24.447715 9 24 9.4477153 24 10 C 24 10.552285 24.447715 11 25 11 C 25.552285 11 26 10.552285 26 10 C 26 9.4477153 25.552285 9 25 9 z M 13 10 C 9.698136 10 7 12.698136 7 16 C 7 17.983743 7.9751342 19.750036 9.46875 20.84375 C 6.8243111 22.146755 5 24.843686 5 28 L 7 28 C 7 24.629915 9.6299145 22 13 22 C 16.370085 22 19 24.629915 19 28 L 21 28 C 21 24.843686 19.175689 22.146755 16.53125 20.84375 C 18.024866 19.750036 19 17.983743 19 16 C 19 12.698136 16.301864 10 13 10 z M 13 12 C 15.220984 12 17 13.779016 17 16 C 17 18.220984 15.220984 20 13 20 C 10.779016 20 9 18.220984 9 16 C 9 13.779016 10.779016 12 13 12 z" color="#000" overflow="visible" enable-background="accumulate" font-family="Bitstream Vera Sans"/>
</svg>
