<?xml version="1.0"?>
<svg xmlns="http://www.w3.org/2000/svg" viewBox="0 0 32 32" enable-background="new 0 0 32 32">
  <path style="text-indent:0;text-align:start;line-height:normal;text-transform:none;block-progression:tb;-inkscape-font-specification:Bitstream Vera Sans" d="M 4 6 L 4 7 L 4 25 L 4 26 L 5 26 L 27 26 L 28 26 L 28 25 L 28 7 L 28 6 L 27 6 L 5 6 L 4 6 z M 6 8 L 26 8 L 26 24 L 6 24 L 6 8 z M 13 10.625 L 13 12.40625 L 13 19.59375 L 13 21.375 L 14.5 20.46875 L 20.5 16.84375 L 21.9375 16 L 20.5 15.15625 L 14.5 11.53125 L 13 10.625 z M 15 14.15625 L 18.09375 16 L 15 17.84375 L 15 14.15625 z" color="#000" overflow="visible" enable-background="accumulate" font-family="Bitstream Vera Sans"/>
</svg>
