<?xml version="1.0"?>
<svg xmlns="http://www.w3.org/2000/svg" viewBox="0 0 32 32" enable-background="new 0 0 32 32">
  <path style="text-indent:0;text-align:start;line-height:normal;text-transform:none;block-progression:tb;-inkscape-font-specification:Bitstream Vera Sans" d="M 16 5 C 12.126252 5 8.8747187 7.2005771 7.21875 10.40625 C 6.4513892 10.541489 5.6875 10.6875 5.6875 10.6875 L 5.09375 14 C 5.09375 14 5.2814362 14.137611 5.59375 14.34375 C 4.0355619 15.614514 3 17.218962 3 19 C 3 20.607692 3.7445929 22.085495 4.9375 23.25 C 6.0664078 24.352029 7.6271279 25.182411 9.40625 25.8125 C 10.995981 27.9752 13.691805 29 16 29 C 18.308195 29 21.004019 27.9752 22.59375 25.8125 C 24.372872 25.182411 25.933592 24.352029 27.0625 23.25 C 28.255407 22.085495 29 20.607692 29 19 C 29 17.148833 27.967243 15.575955 26.5 14.34375 C 26.798086 14.145576 27 14 27 14 L 26.9375 13.75 C 27.303297 13.594635 27.73175 13.3508 28.15625 12.96875 C 29.116143 12.104847 30 10.517391 30 8 L 28 8 C 28 10.082609 27.383857 10.982653 26.84375 11.46875 C 26.786139 11.5206 26.74219 11.551453 26.6875 11.59375 C 26.708571 11.497624 26.731162 11.460543 26.75 11.34375 C 26.886305 10.498662 27 9.1396825 27 7 L 25 7 C 25 8.6737315 24.90721 9.7183774 24.8125 10.46875 C 23.162379 7.240135 19.890968 5 16 5 z M 16 7 C 18.599278 7 20.858623 8.2024628 22.3125 10.09375 C 21.850131 10.027862 21.406711 10 21 10 C 19 10 18.1 11 16 11 C 13.9 11 13 10 11 10 C 10.620396 10 10.160566 10.052888 9.71875 10.09375 C 11.173015 8.2110429 13.407579 7 16 7 z M 11.09375 11.90625 C 12.570884 11.90625 13.973816 12.783945 14.53125 13.1875 C 13.962295 13.315393 13.393226 13.51991 12.875 13.78125 C 12.774279 13.394261 12.418521 13.09375 12 13.09375 C 11.502944 13.09375 11.09375 13.502944 11.09375 14 C 11.09375 14.271469 11.216178 14.522487 11.40625 14.6875 C 9.90625 14.8875 8.09375 14 8.09375 14 C 8.09375 14 9.19375 11.90625 11.09375 11.90625 z M 20.8125 11.90625 C 22.7125 11.90625 23.8125 14 23.8125 14 C 23.8125 14 22.09375 14.8875 20.59375 14.6875 C 20.783822 14.522487 20.90625 14.271469 20.90625 14 C 20.90625 13.502944 20.497056 13.09375 20 13.09375 C 19.581479 13.09375 19.225721 13.394261 19.125 13.78125 C 18.57977 13.506292 17.97605 13.314183 17.375 13.1875 C 17.932434 12.783945 19.335366 11.90625 20.8125 11.90625 z M 16 15 C 18.073333 15 19.961385 16.320538 21.125 18.46875 L 22.875 17.53125 C 22.471951 16.78716 21.96407 16.12926 21.40625 15.53125 C 21.885496 15.860683 22.1875 16.09375 22.1875 16.09375 C 23.027274 16.020726 23.894573 15.726056 24.65625 15.375 C 26.141979 16.431425 27 17.710091 27 19 C 27 19.992308 26.563343 20.927005 25.65625 21.8125 C 24.749157 22.697995 23.37682 23.499393 21.6875 24.0625 L 21.34375 24.15625 L 21.15625 24.46875 C 20.105278 26.08563 17.78254 27 16 27 C 14.21746 27 11.894722 26.08563 10.84375 24.46875 L 10.65625 24.15625 L 10.3125 24.0625 C 8.6231797 23.499393 7.2508429 22.697995 6.34375 21.8125 C 5.4366571 20.927005 5 19.992308 5 19 C 5 17.756207 5.8160412 16.370274 7.4375 15.3125 C 8.2107156 15.61875 9.157599 15.845393 10.21875 15.9375 C 9.812693 16.428744 9.4365819 16.956022 9.125 17.53125 L 10.875 18.46875 C 12.038615 16.320538 13.926667 15 16 15 z M 19.28125 19.28125 C 18.633388 19.929112 18.019146 20.31782 16.9375 20.59375 C 15.855854 20.86968 14.314539 21 12 21 L 12 23 C 14.385461 23 16.069146 22.88032 17.4375 22.53125 C 18.805854 22.18218 19.866612 21.570888 20.71875 20.71875 L 19.28125 19.28125 z" color="#000" overflow="visible" enable-background="accumulate" font-family="Bitstream Vera Sans"/>
</svg>
