<?xml version="1.0"?>
<svg xmlns="http://www.w3.org/2000/svg" viewBox="0 0 32 32" enable-background="new 0 0 32 32">
  <path style="text-indent:0;text-align:start;line-height:normal;text-transform:none;block-progression:tb;-inkscape-font-specification:Bitstream Vera Sans" d="M 4 4 L 4 5 L 4 27 L 4 28 L 5 28 L 27 28 L 28 28 L 28 27 L 28 5 L 28 4 L 27 4 L 5 4 L 4 4 z M 6 6 L 26 6 L 26 26 L 6 26 L 6 6 z M 16 8 C 11.593567 8 8 11.593567 8 16 C 8 20.406433 11.593567 24 16 24 C 20.406433 24 24 20.406433 24 16 C 24 11.593567 20.406433 8 16 8 z M 16 10 C 19.325553 10 22 12.674447 22 16 C 22 19.325553 19.325553 22 16 22 C 12.674447 22 10 19.325553 10 16 C 10 12.674447 12.674447 10 16 10 z M 16 12 C 13.802706 12 12 13.802706 12 16 C 12 18.197294 13.802706 20 16 20 C 18.197294 20 20 18.197294 20 16 C 20 13.802706 18.197294 12 16 12 z M 16 14 C 17.116414 14 18 14.883586 18 16 C 18 17.116414 17.116414 18 16 18 C 14.883586 18 14 17.116414 14 16 C 14 14.883586 14.883586 14 16 14 z" color="#000" overflow="visible" enable-background="accumulate" font-family="Bitstream Vera Sans"/>
</svg>
