<?xml version="1.0"?>
<svg xmlns="http://www.w3.org/2000/svg" viewBox="0 0 32 32" enable-background="new 0 0 32 32">
  <path style="text-indent:0;text-align:start;line-height:normal;text-transform:none;block-progression:tb;-inkscape-font-specification:Bitstream Vera Sans" d="M 6 4 C 4.8954305 4 4 4.8954305 4 6 C 4 7.1045695 4.8954305 8 6 8 C 6.6170354 8 7.1643766 7.7204655 7.53125 7.28125 C 7.9352856 7.4720766 8.2317145 7.7507848 8.4375 8.09375 C 5.7078558 10.624009 4 14.393916 4 18.1875 C 4 21.510724 5.4239568 24.083039 7.65625 25.6875 C 9.8885432 27.291961 12.85 28 16 28 C 19.155556 28 22.114897 27.272169 24.34375 25.65625 C 26.572603 24.040331 28 21.465278 28 18.1875 C 28 14.909722 26.651861 11.66214 24.5 9.1875 C 24.192786 8.8342044 23.871701 8.5069745 23.53125 8.1875 C 23.736831 7.8053295 24.032041 7.4875083 24.46875 7.28125 C 24.835623 7.7204655 25.382965 8 26 8 C 27.104569 8 28 7.1045695 28 6 C 28 4.8954305 27.104569 4 26 4 C 25.1267 4 24.397668 4.5634767 24.125 5.34375 C 23.236061 5.6758881 22.509207 6.2404869 22 6.96875 C 20.241125 5.7585103 18.198579 5 16 5 C 13.778122 5 11.728997 5.7224083 9.96875 6.90625 C 9.4608626 6.2050336 8.7409733 5.6673074 7.875 5.34375 C 7.6023325 4.5634767 6.8733003 4 6 4 z M 16 7 C 18.655556 7 21.151861 8.3746396 23 10.5 C 24.848139 12.62536 26 15.465278 26 18.1875 C 26 20.909722 24.927397 22.747169 23.15625 24.03125 C 21.385103 25.315331 18.844444 26 16 26 C 13.15 26 10.611457 25.333039 8.84375 24.0625 C 7.0760432 22.791961 6 20.964276 6 18.1875 C 6 12.623019 10.566667 7 16 7 z M 16 9 C 12.67619 9 10 11.67619 10 15 C 10 18.32381 12.67619 21 16 21 C 19.32381 21 22 18.32381 22 15 C 22 11.67619 19.32381 9 16 9 z M 16 11 C 18.27619 11 20 12.72381 20 15 C 20 17.27619 18.27619 19 16 19 C 13.72381 19 12 17.27619 12 15 C 12 12.72381 13.72381 11 16 11 z M 16 13 C 14.9 13 14 13.9 14 15 C 14 16.1 14.9 17 16 17 C 17.1 17 18 16.1 18 15 C 18 14.8 18.00625 14.60625 17.90625 14.40625 C 17.80625 14.80625 17.4 15 17 15 C 16.4 15 16 14.6 16 14 C 16 13.6 16.19375 13.19375 16.59375 13.09375 C 16.39375 12.99375 16.2 13 16 13 z M 12 22 L 12 24 L 20 24 L 20 22 L 12 22 z" color="#000" overflow="visible" enable-background="accumulate" font-family="Bitstream Vera Sans"/>
</svg>
