<?xml version="1.0"?>
<svg xmlns="http://www.w3.org/2000/svg" viewBox="0 0 32 32" enable-background="new 0 0 32 32">
  <path style="text-indent:0;text-align:start;line-height:normal;text-transform:none;block-progression:tb;-inkscape-font-specification:Bitstream Vera Sans" d="M 15.96875 3 C 15.868126 2.9967949 11.592939 2.8786783 8.1875 5.625 L 8.0625 5.6875 L 8 5.8125 C 7.286 6.7645 7.0715916 8.0230639 6.875 9.28125 C 6.7229885 10.254123 6.6851893 10.980003 6.65625 11.625 C 6.588028 11.67462 6.4636513 11.66135 6.40625 11.71875 C 6.1741152 11.950885 6 12.254167 6 12.6875 L 6 12.71875 L 6 12.75 L 6.1875 17.5 C 6.1875 17.51161 6.187236 17.51981 6.1875 17.53125 C 6.19709 17.94691 6.3990848 18.242835 6.625 18.46875 C 6.722709 18.56646 6.901197 18.585368 7.03125 18.65625 C 7.103209 18.97914 7.2463314 19.704076 7.53125 20.84375 C 7.7021136 21.527204 7.9129359 22.237778 8.09375 22.84375 C 8.2667206 23.423435 8.3661859 23.846153 8.625 24.28125 C 8.63394 24.29764 8.647067 24.32715 8.65625 24.34375 C 9.3749709 25.642738 10.838156 27.525926 12.5 28.4375 L 12.5 28.46875 C 12.5067 28.47245 12.52451 28.46515 12.53125 28.46875 C 13.145378 28.826415 13.648807 28.83492 14.25 28.875 C 14.861555 28.91577 15.5 28.90625 16 28.90625 C 16.580303 28.90625 17.224406 28.86596 17.8125 28.8125 C 18.400594 28.75904 18.879541 28.72943 19.375 28.53125 L 19.40625 28.5 L 19.4375 28.5 C 21.240188 27.598656 22.642965 25.614341 23.34375 24.34375 C 23.34715 24.33765 23.34045 24.31857 23.34375 24.3125 C 23.35075 24.30104 23.3682 24.29267 23.375 24.28125 C 23.633814 23.846153 23.733279 23.423435 23.90625 22.84375 C 24.087064 22.237778 24.297886 21.527204 24.46875 20.84375 C 24.753669 19.704076 24.896791 18.97914 24.96875 18.65625 C 25.098803 18.58537 25.277291 18.56646 25.375 18.46875 C 25.600915 18.242835 25.80291 17.94691 25.8125 17.53125 C 25.812764 17.51981 25.8125 17.51161 25.8125 17.5 L 26 12.75 L 26 12.71875 L 26 12.6875 C 26 12.254167 25.825885 11.950885 25.59375 11.71875 C 25.53635 11.66135 25.411972 11.67462 25.34375 11.625 C 25.29517 11.046108 25.240965 10.290728 25.09375 9.28125 C 24.911186 8.0293833 24.724667 6.7787222 24 5.8125 L 23.9375 5.6875 L 23.8125 5.625 C 20.407061 2.8786783 16.131874 2.9967949 16.03125 3 C 16.03005 3.0000377 15.96875 3 15.96875 3 z M 15.96875 5 L 16 5 L 16.03125 5 C 16.03125 5 19.693624 4.99518 22.4375 7.125 C 22.621191 7.4330833 22.965667 8.4699292 23.125 9.5625 C 23.292436 10.710633 23.350667 11.850423 23.40625 12.40625 L 23.5 13.3125 L 23.96875 13.3125 L 23.84375 16.90625 L 23.09375 16.90625 L 23.09375 17.90625 C 23.06883 18.019079 22.8482 19.075949 22.53125 20.34375 C 22.364614 21.010296 22.166061 21.724722 22 22.28125 C 21.833939 22.837778 21.620464 23.338508 21.65625 23.28125 L 21.625 23.28125 L 21.625 23.3125 C 21.126351 24.22669 19.602867 26.12341 18.625 26.65625 C 18.6205 26.65805 18.136906 26.797213 17.625 26.84375 C 17.113094 26.89029 16.519697 26.90625 16 26.90625 C 15.5 26.90625 14.888445 26.90925 14.375 26.875 C 13.861555 26.84077 13.371694 26.673017 13.5 26.75 L 13.5 26.71875 L 13.46875 26.71875 C 13.102014 26.521277 12.621748 26.02797 12.125 25.5 C 11.400656 24.730129 10.663371 23.84118 10.375 23.3125 L 10.375 23.28125 L 10.34375 23.28125 C 10.37954 23.33851 10.166061 22.837778 10 22.28125 C 9.8339391 21.724722 9.6353864 21.010296 9.46875 20.34375 C 9.1517998 19.075949 8.931172 18.019079 8.90625 17.90625 L 8.90625 16.90625 L 8.15625 16.90625 L 8.03125 13.3125 L 8.59375 13.3125 L 8.59375 12.3125 C 8.59375 11.9125 8.665342 10.735564 8.84375 9.59375 C 9.0136503 8.5063883 9.3681666 7.4445525 9.5625 7.125 C 12.306376 4.9951776 15.96875 5 15.96875 5 z M 12.125 25.5 L 12.90625 25.5 L 13 25.5 L 13.25 25.5 L 13.4375 25.40625 L 14.25 25 L 17.75 25 L 18.5625 25.40625 L 18.75 25.5 L 19 25.5 L 19.09375 25.5 L 19.875 25.5 L 20.0625 24.75 L 20.90625 21.4375 L 20.9375 21.375 L 22.40625 18.4375 L 22.4375 18.34375 L 22.46875 18.25 L 22.96875 16.25 L 23.0625 15.875 L 22.90625 15.5625 L 22 13.75 L 22 9 L 22 8.375 L 21.4375 8.09375 L 18.65625 6.71875 L 17.5 6.125 L 17.21875 7.375 L 16.40625 11 L 15.59375 11 L 14.78125 7.375 L 14.5 6.125 L 13.34375 6.71875 L 10.5625 8.09375 L 10 8.375 L 10 9 L 10 13.75 L 9.09375 15.5625 L 8.9375 15.875 L 9.03125 16.25 L 9.53125 18.25 L 9.5625 18.34375 L 9.59375 18.4375 L 11.0625 21.375 L 11.09375 21.4375 L 11.9375 24.75 L 12.125 25.5 z M 13.09375 9.0625 L 13.8125 12.21875 L 14 13 L 14.8125 13 L 17.1875 13 L 18 13 L 18.1875 12.21875 L 18.90625 9.0625 L 20 9.625 L 20 14 L 20 14.25 L 20.09375 14.4375 L 20.875 16 L 17 16 L 17 18 L 20.375 18 L 19.09375 20.5625 L 19.0625 20.65625 L 19.03125 20.75 L 18.4375 23.09375 L 18.25 23 L 18 23 L 14 23 L 13.75 23 L 13.5625 23.09375 L 12.96875 20.75 L 12.9375 20.65625 L 12.90625 20.5625 L 11.625 18 L 15 18 L 15 16 L 11.125 16 L 11.90625 14.4375 L 12 14.25 L 12 14 L 12 9.625 L 13.09375 9.0625 z" color="#000" overflow="visible" enable-background="accumulate" font-family="Bitstream Vera Sans"/>
</svg>
