<?xml version="1.0"?>
<svg xmlns="http://www.w3.org/2000/svg" viewBox="0 0 32 32" enable-background="new 0 0 32 32">
  <path style="text-indent:0;text-align:start;line-height:normal;text-transform:none;block-progression:tb;-inkscape-font-specification:Bitstream Vera Sans" d="M 11.5 7 L 11.1875 7.40625 L 10 9 L 4 9 L 3 9 L 3 10 L 3 26 L 3 27 L 4 27 L 28 27 L 29 27 L 29 26 L 29 10 L 29 9 L 28 9 L 22 9 L 20.8125 7.40625 L 20.5 7 L 20 7 L 12 7 L 11.5 7 z M 12.5 9 L 19.5 9 L 20.6875 10.59375 L 21 11 L 21.5 11 L 27 11 L 27 25 L 5 25 L 5 11 L 10.5 11 L 11 11 L 11.3125 10.59375 L 12.5 9 z M 16 12 C 13 12 10.59375 14.2 10.09375 17 L 12.09375 17 C 12.49375 15.3 14.1 14 16 14 C 17.302918 14 18.542954 14.662502 19.28125 15.71875 L 18 17 L 22 17 L 22 13 L 20.71875 14.28125 C 19.603767 12.868724 17.890281 12 16 12 z M 10 19 L 10 23 L 11.28125 21.71875 C 12.396233 23.131276 14.109719 24 16 24 C 19 24 21.40625 21.8 21.90625 19 L 19.90625 19 C 19.50625 20.7 17.9 22 16 22 C 14.697082 22 13.457046 21.337498 12.71875 20.28125 L 14 19 L 10 19 z" color="#000" overflow="visible" enable-background="accumulate" font-family="Bitstream Vera Sans"/>
</svg>
