<?xml version="1.0"?>
<svg xmlns="http://www.w3.org/2000/svg" viewBox="0 0 32 32" enable-background="new 0 0 32 32">
  <path style="text-indent:0;text-align:start;line-height:normal;text-transform:none;block-progression:tb;-inkscape-font-specification:Bitstream Vera Sans" d="M 4 4 L 4 5 L 4 19.1875 L 4.03125 19.1875 C 4.0212666 19.294305 4 19.390754 4 19.5 C 4 21.054075 5.0570088 22.360955 6.46875 22.8125 C 6.1810805 23.319872 6 23.879585 6 24.5 C 6 26.421152 7.5788481 28 9.5 28 C 10.97517 28 12.238301 27.051969 12.75 25.75 C 13.261699 27.051969 14.52483 28 16 28 C 17.47517 28 18.738301 27.051969 19.25 25.75 C 19.761699 27.051969 21.02483 28 22.5 28 C 24.421152 28 26 26.421152 26 24.5 C 26 23.887707 25.843845 23.315564 25.5625 22.8125 C 26.959882 22.352415 28 21.043783 28 19.5 C 28 19.390754 27.978733 19.294305 27.96875 19.1875 L 28 19.1875 L 28 5 L 28 4 L 27 4 L 16.96875 4 L 15.03125 4 L 5 4 L 4 4 z M 6 6 L 14.71875 6 L 13.21875 16.0625 C 12.982687 16.01158 12.750436 16 12.5 16 C 11.524075 16 10.637163 16.409742 10 17.0625 C 9.3628368 16.409742 8.4759254 16 7.5 16 C 6.9545971 16 6.4619337 16.148796 6 16.375 L 6 6 z M 17.28125 6 L 26 6 L 26 16.375 C 25.538066 16.148796 25.045403 16 24.5 16 C 23.524075 16 22.637163 16.409742 22 17.0625 C 21.362837 16.409742 20.475925 16 19.5 16 C 19.249564 16 19.017313 16.01158 18.78125 16.0625 L 17.28125 6 z M 16 10.9375 L 16.9375 17.125 C 16.355336 17.751004 16 18.585472 16 19.5 C 16 20.04586 16.116666 20.568736 16.34375 21.03125 C 16.226654 21.019217 16.120072 21 16 21 C 15.869651 21 15.751666 21.016856 15.625 21.03125 C 15.858956 20.563008 16 20.0553 16 19.5 C 16 18.585472 15.644664 17.751004 15.0625 17.125 L 16 10.9375 z M 7.5 18 C 8.3402719 18 9 18.659728 9 19.5 C 9 20.340272 8.3402719 21 7.5 21 C 6.6597281 21 6 20.340272 6 19.5 C 6 18.659728 6.6597281 18 7.5 18 z M 12.5 18 C 12.640045 18 12.778453 18.028067 12.90625 18.0625 C 13.545233 18.234666 14 18.799773 14 19.5 C 14 20.340272 13.340272 21 12.5 21 C 11.659728 21 11 20.340272 11 19.5 C 11 18.659728 11.659728 18 12.5 18 z M 19.5 18 C 20.340272 18 21 18.659728 21 19.5 C 21 20.340272 20.340272 21 19.5 21 C 18.659728 21 18 20.340272 18 19.5 C 18 18.799773 18.454767 18.234666 19.09375 18.0625 C 19.221547 18.028067 19.359955 18 19.5 18 z M 24.5 18 C 25.340272 18 26 18.659728 26 19.5 C 26 20.340272 25.340272 21 24.5 21 C 23.659728 21 23 20.340272 23 19.5 C 23 18.659728 23.659728 18 24.5 18 z M 12.875 22.96875 C 12.828861 23.061408 12.788051 23.153184 12.75 23.25 C 12.715451 23.162093 12.666234 23.084497 12.625 23 C 12.711861 22.996783 12.789795 22.978298 12.875 22.96875 z M 19.125 22.96875 C 19.207967 22.977886 19.290486 22.99687 19.375 23 C 19.329945 23.092008 19.288349 23.18663 19.25 23.28125 C 19.209374 23.175265 19.175394 23.069608 19.125 22.96875 z M 9.5 23 C 10.340272 23 11 23.659728 11 24.5 C 11 25.340272 10.340272 26 9.5 26 C 8.6597281 26 8 25.340272 8 24.5 C 8 23.659728 8.6597281 23 9.5 23 z M 16 23 C 16.840272 23 17.5 23.659728 17.5 24.5 C 17.5 25.340272 16.840272 26 16 26 C 15.159728 26 14.5 25.340272 14.5 24.5 C 14.5 23.659728 15.159728 23 16 23 z M 22.5 23 C 23.340272 23 24 23.659728 24 24.5 C 24 25.340272 23.340272 26 22.5 26 C 21.659728 26 21 25.340272 21 24.5 C 21 23.659728 21.659728 23 22.5 23 z"/>
</svg>
