<?xml version="1.0"?>
<svg xmlns="http://www.w3.org/2000/svg" viewBox="0 0 32 32" enable-background="new 0 0 32 32">
  <path style="text-indent:0;text-align:start;line-height:normal;text-transform:none;block-progression:tb;-inkscape-font-specification:Bitstream Vera Sans" d="M 0 7 L 0 8 L 0 24 L 0 25 L 1 25 L 31 25 L 32 25 L 32 24 L 32 8 L 32 7 L 31 7 L 1 7 L 0 7 z M 2 9 L 30 9 L 30 23 L 2 23 L 2 9 z M 5 11.6875 L 5 20.3125 L 7 20.3125 L 7 11.6875 L 5 11.6875 z M 8.09375 11.6875 L 8.09375 20.3125 L 10 20.3125 L 10 15.5 L 10.90625 20.3125 L 12.1875 20.3125 L 13 15.5 L 13 20.3125 L 14.8125 20.3125 L 14.8125 11.6875 L 12 11.6875 L 11.5 15.8125 L 10.8125 11.6875 L 8.09375 11.6875 z M 15.90625 11.6875 L 15.90625 20.1875 L 18.3125 20.1875 C 19.6125 20.1875 20.1 19.9875 20.5 19.6875 C 20.9 19.4875 21.09375 19 21.09375 18.5 L 21.09375 13.3125 C 21.09375 12.7125 20.9 12.2 20.5 12 C 20 11.8 19.8125 11.6875 18.3125 11.6875 L 15.90625 11.6875 z M 22.09375 11.8125 L 22.09375 20.3125 L 23.90625 20.3125 C 23.90625 20.3125 23.99375 19.7125 24.09375 19.8125 C 24.29375 19.8125 25.1 20.1875 25.5 20.1875 C 26 20.1875 26.2 20.19375 26.5 20.09375 C 26.9 19.89375 27 19.6125 27 19.3125 L 27 14.3125 C 27 13.6125 26.2875 13.09375 25.6875 13.09375 C 25.0875 13.09375 24.5125 13.4875 24.3125 13.6875 L 24.3125 11.8125 L 22.09375 11.8125 z M 18 13 C 18.4 13 18.8125 13.00625 18.8125 13.40625 L 18.8125 18.40625 C 18.8125 18.80625 18.3 18.8125 18 18.8125 L 18 13 z M 24.59375 14 C 24.69375 14 24.8125 14.10625 24.8125 14.40625 L 24.8125 18.6875 C 24.8125 18.8875 24.79375 19.09375 24.59375 19.09375 C 24.49375 19.09375 24.40625 18.9875 24.40625 18.6875 L 24.40625 14.40625 C 24.40625 14.20625 24.39375 14 24.59375 14 z" color="#000" overflow="visible" enable-background="accumulate" font-family="Bitstream Vera Sans"/>
</svg>
