<?xml version="1.0"?>
<svg xmlns="http://www.w3.org/2000/svg" viewBox="0 0 32 32" enable-background="new 0 0 32 32">
  <path d="M 9.5 5 L 9.1875 5.40625 L 8 7 L 4 7 L 3 7 L 3 8 L 3 25 L 3 26 L 4 26 L 28 26 L 29 26 L 29 25 L 29 8 L 29 7 L 28 7 L 27 7 L 27 6 L 21 6 L 21 7 L 20 7 L 18.8125 5.40625 L 18.5 5 L 18 5 L 10 5 L 9.5 5 z M 10.5 7 L 17.5 7 L 18.6875 8.59375 L 19 9 L 19.5 9 L 27 9 L 27 24 L 5 24 L 5 9 L 8.5 9 L 9 9 L 9.3125 8.59375 L 10.5 7 z M 12 8 L 12 10 L 16 10 L 16 8 L 12 8 z M 7 12 L 7 13 L 7 21 L 7 22 L 8 22 L 20 22 L 21 22 L 21 21 L 21 13 L 21 12 L 20 12 L 8 12 L 7 12 z M 24 13 C 23.447715 13 23 13.447715 23 14 C 23 14.552285 23.447715 15 24 15 C 24.552285 15 25 14.552285 25 14 C 25 13.447715 24.552285 13 24 13 z M 9 14 L 19 14 L 19 20 L 9 20 L 9 14 z M 24 16 C 23.447715 16 23 16.447715 23 17 C 23 17.552285 23.447715 18 24 18 C 24.552285 18 25 17.552285 25 17 C 25 16.447715 24.552285 16 24 16 z M 24 19 C 23.447715 19 23 19.447715 23 20 C 23 20.552285 23.447715 21 24 21 C 24.552285 21 25 20.552285 25 20 C 25 19.447715 24.552285 19 24 19 z"/>
</svg>
