<?xml version="1.0"?>
<svg xmlns="http://www.w3.org/2000/svg" viewBox="0 0 32 32" enable-background="new 0 0 32 32">
  <path style="text-indent:0;text-align:start;line-height:normal;text-transform:none;block-progression:tb;-inkscape-font-specification:Bitstream Vera Sans" d="M 2 7 L 2 8 L 2 24 L 2 25 L 3 25 L 29 25 L 30 25 L 30 24 L 30 8 L 30 7 L 29 7 L 3 7 L 2 7 z M 4 9 L 28 9 L 28 23 L 4 23 L 4 9 z M 20 10 C 16.698136 10 14 12.698136 14 16 C 14 19.301864 16.698136 22 20 22 C 23.301864 22 26 19.301864 26 16 C 26 12.698136 23.301864 10 20 10 z M 6 11 L 6 13 L 10 13 L 10 11 L 6 11 z M 20 12 C 22.220984 12 24 13.779016 24 16 C 24 18.220984 22.220984 20 20 20 C 17.779016 20 16 18.220984 16 16 C 16 13.779016 17.779016 12 20 12 z M 20 13 C 18.35499 13 17 14.35499 17 16 C 17 17.64501 18.35499 19 20 19 C 21.64501 19 23 17.64501 23 16 C 23 14.35499 21.64501 13 20 13 z M 20 15 C 20.564128 15 21 15.435872 21 16 C 21 16.564128 20.564128 17 20 17 C 19.435872 17 19 16.564128 19 16 C 19 15.435872 19.435872 15 20 15 z" color="#000" overflow="visible" enable-background="accumulate" font-family="Bitstream Vera Sans"/>
</svg>
