<?xml version="1.0"?>
<svg xmlns="http://www.w3.org/2000/svg" viewBox="0 0 32 32" enable-background="new 0 0 32 32">
  <path style="text-indent:0;text-align:start;line-height:normal;text-transform:none;block-progression:tb;-inkscape-font-specification:Bitstream Vera Sans" d="M 18 4.0625 C 16.209013 4.0618521 14.390352 4.7300791 13 6.0625 L 13 6.09375 L 9 10.09375 C 6.5414632 12.552287 6.3270733 16.471107 8.34375 19.25 L 7.28125 20.28125 C 5.5108607 22.051639 5.5108607 24.948361 7.28125 26.71875 C 9.0516393 28.489139 11.948361 28.489139 13.71875 26.71875 L 13.8125 26.59375 L 14.09375 26.3125 L 14.21875 26.21875 C 14.933055 25.504445 16.066945 25.504445 16.78125 26.21875 C 18.266945 27.704445 20.733055 27.704445 22.21875 26.21875 L 26.71875 21.71875 L 25.28125 20.28125 L 20.78125 24.78125 C 20.066945 25.495555 18.933055 25.495555 18.21875 24.78125 C 16.733055 23.295555 14.266945 23.295555 12.78125 24.78125 L 12.28125 25.28125 C 11.251639 26.310861 9.7483607 26.310861 8.71875 25.28125 C 7.6891393 24.251639 7.6891393 22.748361 8.71875 21.71875 L 9.78125 20.65625 C 12.489425 22.659709 16.3776 22.45454 18.90625 20.03125 L 18.90625 20 L 22.90625 16 C 25.673013 13.233237 25.684032 8.7765231 22.90625 6.09375 C 22.89985 6.08732 22.88145 6.10015 22.875 6.09375 C 21.53259 4.7618921 19.782423 4.0631448 18 4.0625 z M 17.96875 6.0625 C 19.252763 6.0618521 20.544711 6.5447106 21.5 7.5 L 21.5 7.53125 C 23.502743 9.4505455 23.526805 12.566945 21.5 14.59375 L 20.78125 15.3125 L 17.5 18.5625 C 15.487505 20.491141 12.350079 20.485133 10.4375 18.59375 C 8.5023418 16.574454 8.4956711 13.410579 10.40625 11.5 L 14.40625 7.53125 C 15.415898 6.5636709 16.684737 6.0631479 17.96875 6.0625 z M 14.5 11 C 12.578848 11 11 12.578848 11 14.5 C 11 16.421152 12.578848 18 14.5 18 C 16.421152 18 18 16.421152 18 14.5 C 18 12.578848 16.421152 11 14.5 11 z M 14.5 13 C 15.340272 13 16 13.659728 16 14.5 C 16 15.340272 15.340272 16 14.5 16 C 13.659728 16 13 15.340272 13 14.5 C 13 13.659728 13.659728 13 14.5 13 z" color="#000" overflow="visible" enable-background="accumulate" font-family="Bitstream Vera Sans"/>
</svg>
