<?xml version="1.0"?>
<svg xmlns="http://www.w3.org/2000/svg" viewBox="0 0 32 32" enable-background="new 0 0 32 32">
  <path style="text-indent:0;text-align:start;line-height:normal;text-transform:none;block-progression:tb;-inkscape-font-specification:Bitstream Vera Sans" d="M 2 7 L 2 8 L 2 13 L 2 14 L 3 14 C 4.1901961 14 5 14.809804 5 16 C 5 17.190196 4.1901961 18 3 18 L 2 18 L 2 19 L 2 24 L 2 25 L 3 25 L 16.0625 25 C 16.561017 28.933201 19.935134 32 24 32 C 28.406433 32 32 28.406433 32 24 C 32 20.70492 29.981195 17.848229 27.125 16.625 C 27.058502 16.460456 27 16.26764 27 16 C 27 14.809804 27.809804 14 29 14 L 30 14 L 30 13 L 30 8 L 30 7 L 29 7 L 3 7 L 2 7 z M 4 9 L 28 9 L 28 12.1875 C 26.284831 12.638423 25 14.142915 25 16 C 25 16.019715 24.999765 16.0426 25 16.0625 C 24.669496 16.02061 24.341567 16 24 16 C 19.935134 16 16.561017 19.066799 16.0625 23 L 4 23 L 4 19.8125 C 5.7151692 19.361577 7 17.857085 7 16 C 7 14.142915 5.7151692 12.638423 4 12.1875 L 4 9 z M 24 18 C 27.325553 18 30 20.674447 30 24 C 30 27.325553 27.325553 30 24 30 C 20.674447 30 18 27.325553 18 24 C 18 20.674447 20.674447 18 24 18 z M 21.71875 20.28125 L 20.28125 21.71875 L 22.5625 24 L 20.28125 26.28125 L 21.71875 27.71875 L 24 25.4375 L 26.28125 27.71875 L 27.71875 26.28125 L 25.4375 24 L 27.71875 21.71875 L 26.28125 20.28125 L 24 22.5625 L 21.71875 20.28125 z" color="#000" overflow="visible" enable-background="accumulate" font-family="Bitstream Vera Sans"/>
</svg>
