<?xml version="1.0"?>
<svg xmlns="http://www.w3.org/2000/svg" viewBox="0 0 32 32" enable-background="new 0 0 32 32">
  <path style="text-indent:0;text-align:start;line-height:normal;text-transform:none;block-progression:tb;-inkscape-font-specification:Bitstream Vera Sans" d="M 16 4 C 14.003583 4 12.299753 5.2037922 11.5 6.90625 C 10.81133 6.3461413 9.9499646 6 9 6 C 6.8027056 6 5 7.8027056 5 10 C 5 10.732431 5.2140512 11.407407 5.5625 12 L 5 12 L 4 12 L 4 13 L 4 25 L 4 26 L 5 26 L 21 26 L 22 26 L 22 25 L 22 22.46875 L 25.84375 23.9375 L 26 24 L 26.1875 24 L 27 24 L 28 24 L 28 23 L 28 15 L 28 14 L 27 14 L 26.1875 14 L 26 14 L 25.84375 14.0625 L 22 15.53125 L 22 13 L 22 12 L 21 12 L 19.96875 12 C 20.609944 11.159224 21 10.132511 21 9 C 21 6.2504209 18.749579 4 16 4 z M 16 6 C 17.668699 6 19 7.3313011 19 9 C 19 10.668699 17.668699 12 16 12 C 14.331301 12 13 10.668699 13 9 C 13 7.3313011 14.331301 6 16 6 z M 9 8 C 10.116414 8 11 8.883586 11 10 C 11 11.116414 10.116414 12 9 12 C 7.883586 12 7 11.116414 7 10 C 7 8.883586 7.883586 8 9 8 z M 6 14 L 20 14 L 20 16.3125 L 20 17 L 20 21 L 20 21.6875 L 20 24 L 6 24 L 6 14 z M 8 16 L 8 18 L 13 18 L 13 16 L 8 16 z M 26 16.15625 L 26 21.84375 L 22 20.3125 L 22 17.6875 L 26 16.15625 z" color="#000" overflow="visible" enable-background="accumulate" font-family="Bitstream Vera Sans"/>
</svg>
