<?xml version="1.0"?>
<svg xmlns="http://www.w3.org/2000/svg" viewBox="0 0 32 32" enable-background="new 0 0 32 32">
  <path style="text-indent:0;text-align:start;line-height:normal;text-transform:none;block-progression:tb;-inkscape-font-specification:Bitstream Vera Sans" d="M 11 4 C 9.7306146 4 8.8410423 4.9073091 8.40625 6.03125 C 6.6255168 6.07816 5.1596572 7.2701767 4.65625 8.90625 L 4.625 8.90625 L 4.625 8.9375 L 2.46875 16.625 C 2.1569663 17.349452 2 18.164216 2 19 C 2 22.301864 4.6981362 25 8 25 C 10.717652 25 13.018115 23.175346 13.75 20.6875 C 14.134979 20.868705 14.549719 21 15 21 C 15.450281 21 15.865021 20.868705 16.25 20.6875 C 16.981885 23.175346 19.282348 25 22 25 C 24.613976 25 26.838205 23.311614 27.65625 20.96875 C 27.7677 20.988013 27.883046 21 28 21 L 28 26.28125 C 27.403104 26.627293 27 27.260396 27 28 C 27 29.104569 27.895431 30 29 30 C 30.104569 30 31 29.104569 31 28 C 31 27.260396 30.596896 26.627293 30 26.28125 L 30 19 C 30 17.895431 29.104569 17 28 17 C 27.88304 17 27.767967 17.012472 27.65625 17.03125 C 27.605122 16.884821 27.561949 16.734833 27.5 16.59375 L 25.375 8.9375 L 25.375 8.90625 L 25.34375 8.90625 C 24.840343 7.2701767 23.374483 6.0781604 21.59375 6.03125 C 21.158958 4.9073091 20.269385 4 19 4 C 17.74096 4 16.84816 4.8903886 16.40625 6 L 13.59375 6 C 13.15184 4.8903886 12.25904 4 11 4 z M 11 6 C 11.554545 6 12 6.4454545 12 7 L 12 8 L 13 8 L 17 8 L 18 8 L 18 7 C 18 6.4454545 18.445455 6 19 6 C 19.554545 6 20 6.4454545 20 7 L 20 8 L 21 8 L 21.5 8 C 22.461736 8 23.145872 8.5538838 23.4375 9.46875 L 23.4375 9.5 L 24.59375 13.59375 C 23.807207 13.213491 22.928649 13 22 13 C 19.896917 13 18.040786 14.101979 16.96875 15.75 C 16.439938 15.28636 15.751141 15 15 15 C 14.248859 15 13.560062 15.28636 13.03125 15.75 C 11.959214 14.101979 10.103083 13 8 13 C 7.0713508 13 6.1927926 13.213491 5.40625 13.59375 L 6.5625 9.5 L 6.5625 9.46875 C 6.8541278 8.5538838 7.5382636 8 8.5 8 L 9 8 L 10 8 L 10 7 C 10 6.4454545 10.445455 6 11 6 z M 8 15 C 10.220984 15 12 16.779016 12 19 C 12 21.220984 10.220984 23 8 23 C 5.7790164 23 4 21.220984 4 19 C 4 18.469185 4.0962649 17.962071 4.28125 17.5 L 4.3125 17.4375 C 4.916957 16.000174 6.3342623 15 8 15 z M 22 15 C 24.220984 15 26 16.779016 26 19 C 26 21.220984 24.220984 23 22 23 C 19.779016 23 18 21.220984 18 19 C 18 16.779016 19.779016 15 22 15 z M 15 17 C 15.564128 17 16 17.435872 16 18 C 16 18.564128 15.564128 19 15 19 C 14.435872 19 14 18.564128 14 18 C 14 17.435872 14.435872 17 15 17 z"/>
</svg>
