<?xml version="1.0"?>
<svg xmlns="http://www.w3.org/2000/svg" viewBox="0 0 32 32" enable-background="new 0 0 32 32">
  <path style="text-indent:0;text-align:start;line-height:normal;text-transform:none;block-progression:tb;-inkscape-font-specification:Bitstream Vera Sans" d="M 2 7 L 2 8 L 2 13 L 2 14 L 3 14 C 4.1901961 14 5 14.809804 5 16 C 5 17.190196 4.1901961 18 3 18 L 2 18 L 2 19 L 2 24 L 2 25 L 3 25 L 29 25 L 30 25 L 30 24 L 30 19 L 30 18 L 29 18 C 27.809804 18 27 17.190196 27 16 C 27 14.809804 27.809804 14 29 14 L 30 14 L 30 13 L 30 8 L 30 7 L 29 7 L 3 7 L 2 7 z M 4 9 L 28 9 L 28 12.1875 C 26.284831 12.638423 25 14.142915 25 16 C 25 17.857085 26.284831 19.361577 28 19.8125 L 28 23 L 4 23 L 4 19.8125 C 5.7151692 19.361577 7 17.857085 7 16 C 7 14.142915 5.7151692 12.638423 4 12.1875 L 4 9 z M 16 10.09375 L 14.3125 14 L 10 14.5 L 13.1875 17.40625 L 12.3125 21.59375 L 16 19.5 L 19.6875 21.59375 L 18.8125 17.40625 L 22 14.5 L 17.6875 14 L 16 10.09375 z M 16 15.09375 L 16.40625 16 L 17.3125 16.09375 L 16.59375 16.6875 L 16.8125 17.59375 L 16 17.09375 L 15.1875 17.59375 L 15.40625 16.6875 L 14.6875 16 L 15.59375 15.90625 L 16 15.09375 z" color="#000" overflow="visible" enable-background="accumulate" font-family="Bitstream Vera Sans"/>
</svg>
