<?xml version="1.0"?>
<svg xmlns="http://www.w3.org/2000/svg" viewBox="0 0 32 32" enable-background="new 0 0 32 32">
  <path d="M 10.5 4 L 10.1875 4.40625 L 9 6 L 4 6 L 3 6 L 3 7 L 3 20 L 3 21 L 4 21 L 7 21 L 7 27 L 7 28 L 8 28 L 28 28 L 29 28 L 29 27 L 29 14 L 29 13 L 28 13 L 25 13 L 25 7 L 25 6 L 24 6 L 19 6 L 17.8125 4.40625 L 17.5 4 L 17 4 L 11 4 L 10.5 4 z M 11.5 6 L 16.5 6 L 17.6875 7.59375 L 18 8 L 18.5 8 L 23 8 L 23 13 L 21.8125 11.40625 L 21.5 11 L 21 11 L 18.625 11 C 17.866552 9.2387796 16.061623 8 14 8 C 11.254545 8 9 10.254545 9 13 L 8 13 L 7 13 L 7 14 L 7 19 L 5 19 L 5 8 L 9.5 8 L 10 8 L 10.3125 7.59375 L 11.5 6 z M 7 9 C 6.4477153 9 6 9.4477153 6 10 C 6 10.552285 6.4477153 11 7 11 C 7.5522847 11 8 10.552285 8 10 C 8 9.4477153 7.5522847 9 7 9 z M 14 10 C 14.918686 10 15.730526 10.392046 16.28125 11 L 15 11 L 14.5 11 L 14.1875 11.40625 L 13 13 L 11 13 C 11 11.345455 12.345455 10 14 10 z M 15.5 13 L 20.5 13 L 21.6875 14.59375 L 22 15 L 22.5 15 L 27 15 L 27 26 L 9 26 L 9 15 L 13.5 15 L 14 15 L 14.3125 14.59375 L 15.5 13 z M 18 15 C 15.250421 15 13 17.250421 13 20 C 13 22.749579 15.250421 25 18 25 C 20.749579 25 23 22.749579 23 20 C 23 17.250421 20.749579 15 18 15 z M 11 16 C 10.447715 16 10 16.447715 10 17 C 10 17.552285 10.447715 18 11 18 C 11.552285 18 12 17.552285 12 17 C 12 16.447715 11.552285 16 11 16 z M 18 17 C 19.668699 17 21 18.331301 21 20 C 21 21.668699 19.668699 23 18 23 C 16.331301 23 15 21.668699 15 20 C 15 18.331301 16.331301 17 18 17 z"/>
</svg>
