<?xml version="1.0"?>
<svg xmlns="http://www.w3.org/2000/svg" viewBox="0 0 32 32" enable-background="new 0 0 32 32">
  <path style="text-indent:0;text-align:start;line-height:normal;text-transform:none;block-progression:tb;-inkscape-font-specification:Bitstream Vera Sans" d="M 21.5 3.96875 C 19.057783 3.96875 16.96875 5.7268056 16.96875 8.09375 C 16.96875 9.1827315 17.289408 10.054778 17.53125 10.9375 C 17.773092 11.820222 17.96875 12.747231 17.96875 14.1875 C 17.96875 14.575833 17.757029 15.396534 17.5 16.4375 C 17.242971 17.478466 16.96875 18.791012 16.96875 20.3125 C 16.96875 23.194403 19.041764 26.03125 22.09375 26.03125 C 24.115594 26.03125 25.693011 24.548242 26.625 22.53125 C 27.556989 20.514258 28.03125 17.86628 28.03125 14.8125 C 28.03125 14.641436 28.034962 14.479222 28.03125 14.3125 A 1.0001 1.0001 0 0 0 28 13.90625 C 27.719032 7.0176079 24.265582 3.96875 21.5 3.96875 z M 10.5 5.96875 C 7.7344174 5.96875 4.2809678 9.0176079 4 15.90625 A 1.0001 1.0001 0 0 0 4 16 C 3.999626 16.010251 4.00036 16.020982 4 16.03125 A 1.0001 1.0001 0 0 0 3.96875 16.34375 C 3.9654848 16.500306 3.96875 16.652127 3.96875 16.8125 C 3.96875 19.86628 4.4430107 22.514258 5.375 24.53125 C 6.3069893 26.548242 7.8844059 28.03125 9.90625 28.03125 C 12.958236 28.03125 15.03125 25.194403 15.03125 22.3125 C 15.03125 20.791012 14.757029 19.478466 14.5 18.4375 C 14.242971 17.396534 14.03125 16.575833 14.03125 16.1875 C 14.03125 14.747231 14.226908 13.820222 14.46875 12.9375 C 14.710592 12.054778 15.03125 11.182731 15.03125 10.09375 C 15.03125 7.7268056 12.942217 5.96875 10.5 5.96875 z M 21.5 6.03125 C 21.815148 6.03125 22.297497 6.2199179 22.84375 6.59375 C 21.983616 7.3177559 21.417147 8.3621866 21.15625 9.46875 C 20.747499 11.202416 20.8125 13.220437 20.8125 15.3125 C 20.8125 17.387725 21.390385 19.388209 22.59375 20.625 C 23.161526 21.208548 23.996645 21.591495 24.875 21.46875 C 24.843351 21.542933 24.814077 21.616457 24.78125 21.6875 C 24.038239 23.295508 23.171906 23.96875 22.09375 23.96875 C 20.345736 23.96875 19.03125 22.230597 19.03125 20.3125 C 19.03125 19.033988 19.257029 17.921534 19.5 16.9375 C 19.742971 15.953466 20.03125 15.099167 20.03125 14.1875 C 20.03125 12.527769 19.726908 11.348528 19.46875 10.40625 C 19.210592 9.4639717 19.03125 8.8047685 19.03125 8.09375 C 19.03125 6.8606944 19.942217 6.03125 21.5 6.03125 z M 24.25 8 C 25.089042 9.2140606 25.803175 11.098064 25.9375 13.875 C 25.821559 14.00786 25.703593 14.129213 25.5 14.34375 C 23.969869 13.548173 22.90625 11.65625 22.90625 11.65625 A 1.0001 1.0001 0 0 0 22.90625 11.625 C 22.952147 10.992573 23.009372 10.39675 23.125 9.90625 C 23.357119 8.9217452 23.649641 8.3501107 24.25 8 z M 10.5 8.03125 C 12.057783 8.03125 12.96875 8.8606944 12.96875 10.09375 C 12.96875 10.804769 12.789408 11.463972 12.53125 12.40625 C 12.273092 13.348528 11.96875 14.527769 11.96875 16.1875 C 11.96875 17.099167 12.257029 17.953466 12.5 18.9375 C 12.742971 19.921534 12.96875 21.033988 12.96875 22.3125 C 12.96875 24.230597 11.654264 25.96875 9.90625 25.96875 C 8.8280941 25.96875 7.9617607 25.295508 7.21875 23.6875 C 7.185923 23.616457 7.156649 23.542933 7.125 23.46875 C 8.0033553 23.591495 8.838474 23.208548 9.40625 22.625 C 10.609615 21.388209 11.1875 19.387725 11.1875 17.3125 C 11.1875 15.220437 11.2525 13.202416 10.84375 11.46875 C 10.582853 10.362187 10.016384 9.3177559 9.15625 8.59375 C 9.7025031 8.2199179 10.184852 8.03125 10.5 8.03125 z M 7.75 10 C 8.3503585 10.350111 8.642881 10.921745 8.875 11.90625 C 8.9906463 12.39675 9.0478545 12.992573 9.09375 13.625 A 1.0001 1.0001 0 0 0 9.09375 13.65625 C 9.09375 13.65625 8.0301307 15.548173 6.5 16.34375 C 6.2964065 16.129213 6.1784411 16.00786 6.0625 15.875 C 6.1968249 13.098064 6.9109577 11.214061 7.75 10 z M 22.8125 14.875 C 23.137442 15.196277 23.487977 15.509119 23.90625 15.78125 C 23.541727 16.03967 23.200166 16.231672 22.90625 16.375 C 22.853351 16.026452 22.8125 15.668422 22.8125 15.3125 C 22.8125 15.158813 22.812414 15.026902 22.8125 14.875 z M 25.875 16.78125 C 25.826938 17.399233 25.779194 17.975921 25.6875 18.53125 L 25.625 18.5 C 25.154939 19.290557 24.776859 19.498958 24.625 19.53125 C 24.473141 19.56354 24.329568 19.52535 24.03125 19.21875 C 23.847348 19.029739 23.669779 18.732316 23.5 18.375 C 24.42137 18.051187 25.184719 17.402923 25.875 16.78125 z M 9.1875 16.875 C 9.1875856 17.026902 9.1875 17.158813 9.1875 17.3125 C 9.1875 17.668422 9.1466494 18.026452 9.09375 18.375 C 8.7998337 18.231672 8.4582726 18.03967 8.09375 17.78125 C 8.5120226 17.509119 8.8625584 17.196277 9.1875 16.875 z M 6.125 18.78125 C 6.8152809 19.402923 7.5786302 20.051187 8.5 20.375 C 8.3302207 20.732316 8.1526521 21.029739 7.96875 21.21875 C 7.6704323 21.525354 7.5268591 21.563542 7.375 21.53125 C 7.2231409 21.498958 6.8450612 21.290557 6.375 20.5 L 6.3125 20.53125 C 6.2208063 19.975921 6.1730623 19.399233 6.125 18.78125 z" color="#000" overflow="visible" enable-background="accumulate" font-family="Bitstream Vera Sans"/>
</svg>
