<?xml version="1.0"?>
<svg xmlns="http://www.w3.org/2000/svg" viewBox="0 0 32 32" enable-background="new 0 0 32 32">
  <path style="text-indent:0;text-align:start;line-height:normal;text-transform:none;block-progression:tb;-inkscape-font-specification:Bitstream Vera Sans" d="M 16 3.65625 L 15.34375 4.25 C 15.34375 4.25 14.389748 5.2970586 13.53125 6.71875 C 12.875191 5.8355066 12.28125 5.15625 12.28125 5.15625 L 11.625 4.5625 L 10.9375 5.15625 C 10.9375 5.15625 8 7.5960489 8 11.09375 C 8 13.30411 9.2825785 14.92943 10.875 15.8125 C 12.156498 16.523149 13.619585 16.833418 15 16.9375 L 15 22.09375 C 14.49096 21.570396 13.912515 21.121332 13.28125 20.75 C 11.152097 19.497557 8.491844 19 6 19 L 4.8125 19 L 5 20.15625 C 5.3140692 21.98832 5.9189195 24.033307 7.59375 25.5625 C 9.1260115 26.961521 11.475804 27.829181 15 27.96875 L 15 28 L 16 28 L 17 28 L 17 27.96875 C 20.524196 27.829181 22.873989 26.961521 24.40625 25.5625 C 26.08108 24.033307 26.685931 21.98832 27 20.15625 L 27.1875 19 L 26 19 C 23.508156 19 20.847903 19.497557 18.71875 20.75 C 18.087485 21.121332 17.50904 21.570396 17 22.09375 L 17 16.9375 C 18.357081 16.850104 19.811152 16.594189 21.09375 15.90625 C 22.697247 15.046192 24 13.38563 24 11.09375 C 24 7.5960489 21.0625 5.15625 21.0625 5.15625 L 20.375 4.5625 L 19.71875 5.15625 C 19.71875 5.15625 19.124809 5.8355066 18.46875 6.71875 C 17.610252 5.2970586 16.65625 4.25 16.65625 4.25 L 16 3.65625 z M 16 6.46875 C 16.496049 7.0381548 17.078408 7.8289732 17.4375 8.90625 L 18.21875 11.21875 L 19.28125 9.0625 C 19.739816 8.1453689 20.06301 7.8767131 20.4375 7.46875 C 21.103789 8.2493321 22 9.4905594 22 11.09375 C 22 12.70187 21.302753 13.510058 20.15625 14.125 C 19.009747 14.739942 17.388889 15 16 15 C 14.633333 15 13.032578 14.70443 11.875 14.0625 C 10.717422 13.42057 10 12.58339 10 11.09375 C 10 9.4905594 10.896211 8.2493321 11.5625 7.46875 C 11.93699 7.8767131 12.260184 8.1453689 12.71875 9.0625 L 13.78125 11.21875 L 14.5625 8.90625 C 14.921592 7.8289732 15.503951 7.0381548 16 6.46875 z M 7.34375 21.15625 C 9.1240127 21.315162 10.89824 21.704847 12.25 22.5 C 13.581874 23.283455 14.348493 24.40533 14.6875 25.84375 C 11.856915 25.647293 9.962773 24.998619 8.9375 24.0625 C 8.0772015 23.27701 7.653389 22.264047 7.34375 21.15625 z M 24.65625 21.15625 C 24.346611 22.264047 23.922799 23.27701 23.0625 24.0625 C 22.037227 24.998619 20.143085 25.647293 17.3125 25.84375 C 17.651507 24.40533 18.418126 23.283455 19.75 22.5 C 21.10176 21.704847 22.875987 21.315162 24.65625 21.15625 z" color="#000" overflow="visible" enable-background="accumulate" font-family="Bitstream Vera Sans"/>
</svg>
