<?xml version="1.0"?>
<svg xmlns="http://www.w3.org/2000/svg" viewBox="0 0 32 32" enable-background="new 0 0 32 32">
  <path style="text-indent:0;text-align:start;line-height:normal;text-transform:none;block-progression:tb;-inkscape-font-specification:Bitstream Vera Sans" d="M 4 4 L 4 5 L 4 27 L 4 28 L 5 28 L 27 28 L 28 28 L 28 27 L 28 5 L 28 4 L 27 4 L 5 4 L 4 4 z M 6 6 L 26 6 L 26 26 L 6 26 L 6 6 z M 16 8.40625 L 13.6875 13.59375 L 8 14.1875 L 12.3125 18 L 11.09375 23.59375 L 16 20.6875 L 20.90625 23.59375 L 19.6875 18 L 24 14.1875 L 18.3125 13.59375 L 16 8.40625 z M 16 13.3125 L 16.5 14.40625 L 17 15.5 L 18.1875 15.59375 L 19.40625 15.6875 L 18.5 16.5 L 17.59375 17.3125 L 17.8125 18.40625 L 18.09375 19.59375 L 17 19 L 16 18.40625 L 15 19 L 14 19.59375 L 14.3125 18.40625 L 14.5 17.3125 L 13.59375 16.5 L 12.6875 15.6875 L 13.90625 15.59375 L 15.09375 15.5 L 15.59375 14.40625 L 16 13.3125 z" color="#000" overflow="visible" enable-background="accumulate" font-family="Bitstream Vera Sans"/>
</svg>
