<?xml version="1.0"?>
<svg xmlns="http://www.w3.org/2000/svg" viewBox="0 0 32 32" enable-background="new 0 0 32 32">
  <path d="M 9 4 L 9.34375 5.65625 C 9.1369066 6.0636034 9 6.5118617 9 7 C 9 8.6568542 10.343146 10 12 10 C 13.656854 10 15 8.6568542 15 7 C 15 6.5118617 14.863093 6.0636034 14.65625 5.65625 L 15 4 L 13.59375 4.46875 C 13.131428 4.1776194 12.586705 4 12 4 C 11.413295 4 10.868572 4.1776194 10.40625 4.46875 L 9 4 z M 20 4 C 18.35503 4 17 5.3550302 17 7 C 17 8.6449698 18.35503 10 20 10 C 20.59489 10 20.942808 9.8019685 21.40625 9.59375 C 21.869692 9.3855315 22.384383 9.1339075 22.84375 8.875 C 23.762483 8.3571851 24.53125 7.84375 24.53125 7.84375 L 25.84375 7 L 24.53125 6.15625 C 24.53125 6.15625 23.762483 5.6428149 22.84375 5.125 C 22.384383 4.8660925 21.869692 4.6144685 21.40625 4.40625 C 20.942808 4.1980315 20.59489 4 20 4 z M 5.90625 5.5625 L 4.09375 6.4375 L 6.09375 10.4375 L 6.21875 10.6875 L 6.4375 10.84375 L 9 12.5625 L 9 17 L 8.5 17 C 7.1250151 17 6 18.125015 6 19.5 L 6 21 L 7 21 L 7 19.5 C 7 18.664985 7.6649849 18 8.5 18 L 9 18 L 9 19 L 9 20 L 9 28 L 10 27 L 11 28 L 11 24.625 L 14.4375 22.90625 L 15.21875 22.5 L 14.9375 21.6875 L 14 18.875 L 14 14.125 L 15.21875 15.625 L 15.53125 16 L 16 16 L 20 16 L 20 14 L 19.09375 14 C 19.294781 13.410677 19.834357 13 20.5 13 C 21.009433 13 21.44888 13.24725 21.71875 13.625 L 21.90625 14.03125 C 21.953224 14.178392 22 14.335341 22 14.5 L 22 16 L 22 16.25 L 22.09375 16.4375 L 23.375 19 L 19 19 L 19 17 L 17 17 L 17 20 L 17 21 L 18 21 L 18 28 L 20 28 L 20 21 L 20.21875 21 L 21.03125 24.25 L 21.125 24.625 L 21.4375 24.84375 L 24.4375 26.84375 L 25.5625 25.15625 L 22.875 23.375 L 22.28125 21 L 25 21 L 26.625 21 L 25.90625 19.5625 L 24.625 17 L 28 17 L 28 15 L 24.625 15 L 23.71875 13.15625 C 23.184653 11.901708 21.940891 11 20.5 11 C 18.753018 11 17.282365 12.318723 17.03125 14 L 16.46875 14 L 14.65625 11.75 C 14.277249 11.281236 13.698178 11 13.09375 11 L 12 11 L 10.3125 11 L 7.78125 9.3125 L 5.90625 5.5625 z M 20 6 C 19.85661 6 20.222536 6.051969 20.59375 6.21875 C 20.964964 6.3855315 21.415992 6.6339075 21.84375 6.875 C 21.957663 6.939204 21.953716 6.936795 22.0625 7 C 21.953716 7.063205 21.957663 7.060796 21.84375 7.125 C 21.415992 7.3660925 20.964964 7.6144685 20.59375 7.78125 C 20.222536 7.9480315 19.85661 8 20 8 C 19.43497 8 19 7.5650302 19 7 C 19 6.4349698 19.43497 6 20 6 z M 11 20 L 12.28125 20 L 12.78125 21.46875 L 11 22.375 L 11 20 z"/>
</svg>
