<?xml version="1.0"?>
<svg xmlns="http://www.w3.org/2000/svg" viewBox="0 0 32 32" enable-background="new 0 0 32 32">
  <path d="M 3 5 L 3 27 L 14 27 L 14 25 L 5 25 L 5 7 L 27 7 L 27 15 L 29 16 L 29 5 L 3 5 z M 7 9 L 7 23 L 14 23 L 14.40625 21 L 9 21 L 9 11 L 23 11 L 23 14 L 25 14.3125 L 25 9 L 7 9 z M 24 16 C 19.593567 16 16 19.593567 16 24 C 16 28.406433 19.593567 32 24 32 C 28.406433 32 32 28.406433 32 24 C 32 19.593567 28.406433 16 24 16 z M 24 18 C 27.325553 18 30 20.674447 30 24 C 30 27.325553 27.325553 30 24 30 C 20.674447 30 18 27.325553 18 24 C 18 20.674447 20.674447 18 24 18 z M 23 20 L 23 23 L 20 23 L 20 25 L 23 25 L 23 28 L 25 28 L 25 25 L 28 25 L 28 23 L 25 23 L 25 20 L 23 20 z"/>
</svg>
