<?xml version="1.0"?>
<svg xmlns="http://www.w3.org/2000/svg" viewBox="0 0 32 32" enable-background="new 0 0 32 32">
  <path style="text-indent:0;text-align:start;line-height:normal;text-transform:none;block-progression:tb;-inkscape-font-specification:Bitstream Vera Sans" d="M 4 7 L 4 8 L 4 22 L 4 23 L 5 23 L 27 23 L 28 23 L 28 22 L 28 8 L 28 7 L 27 7 L 5 7 L 4 7 z M 6 9 L 26 9 L 26 21 L 6 21 L 6 9 z M 8 11 L 8 14 L 12 14 L 12 11 L 8 11 z M 14 11 L 14 14 L 18 14 L 18 11 L 14 11 z M 20 11 L 20 14 L 24 14 L 24 11 L 20 11 z M 8 16 L 8 19 L 12 19 L 12 16 L 8 16 z M 14 16 L 14 19 L 18 19 L 18 16 L 14 16 z M 20 16 L 20 19 L 24 19 L 24 16 L 20 16 z M 10 24 L 10 26 L 22 26 L 22 24 L 10 24 z" color="#000" overflow="visible" enable-background="accumulate" font-family="Bitstream Vera Sans"/>
</svg>
