<?xml version="1.0"?>
<svg xmlns="http://www.w3.org/2000/svg" viewBox="0 0 32 32" enable-background="new 0 0 32 32">
  <path style="text-indent:0;text-align:start;line-height:normal;text-transform:none;block-progression:tb;-inkscape-font-specification:Bitstream Vera Sans" d="M 10 6 C 7.8027056 6 6 7.8027056 6 10 C 6 10.354643 6.0682496 10.703085 6.15625 11.03125 C 4.9387255 11.200324 4 12.235048 4 13.5 L 4 27 L 4 28 L 5 28 L 8 28 L 9 28 L 9 27 L 9 26 L 23 26 L 23 27 L 23 28 L 24 28 L 27 28 L 28 28 L 28 27 L 28 21 L 28 20 L 28 18 C 28 16.354545 26.645455 15 25 15 L 13.625 15 L 12.625 12.96875 C 13.452756 12.234143 14 11.185007 14 10 C 14 7.8027056 12.197294 6 10 6 z M 10 8 C 11.116414 8 12 8.883586 12 10 C 12 11.116414 11.116414 12 10 12 C 8.883586 12 8 11.116414 8 10 C 8 8.883586 8.883586 8 10 8 z M 6.5 13 C 6.7166667 13 7 13.283333 7 13.5 L 7 21 L 7 22 L 8 22 L 26 22 L 26 26 L 25 26 L 25 25 L 25 24 L 24 24 L 8 24 L 7 24 L 7 25 L 7 26 L 6 26 L 6 13.5 C 6 13.283333 6.2833333 13 6.5 13 z M 9 13.84375 C 9.3193351 13.92676 9.6559037 14 10 14 C 10.274662 14 10.552919 13.959834 10.8125 13.90625 L 12 16.25 L 12 20 L 9 20 L 9 13.84375 z M 14 17 L 25 17 C 25.554545 17 26 17.445455 26 18 L 26 20 L 14 20 L 14 17 z" color="#000" overflow="visible" enable-background="accumulate" font-family="Bitstream Vera Sans"/>
</svg>
