<?xml version="1.0"?>
<svg xmlns="http://www.w3.org/2000/svg" viewBox="0 0 32 32" enable-background="new 0 0 32 32">
  <path style="text-indent:0;text-align:start;line-height:normal;text-transform:none;block-progression:tb;-inkscape-font-specification:Bitstream Vera Sans" d="M 17 4 C 12.230127 4 8.2104375 7.3612553 7.21875 11.84375 C 7.1264899 11.835016 7.0320256 11.8125 6.9375 11.8125 C 6.1505 11.8125 5.432 12.10025 4.875 12.65625 C 4.319 13.21325 4 13.962 4 14.75 L 4 20.59375 C 3.94 22.17275 4.55025 23.7075 5.65625 24.8125 L 7.03125 26.1875 C 8.20125 27.3575 9.75225 28 11.40625 28 C 12.168704 28 12.901387 27.855889 13.59375 27.59375 C 14.226641 27.741597 15.44352 28 17 28 C 18.991358 28 20.873557 26.98439 22.4375 25.5625 C 23.898101 24.234566 25.061979 22.513178 25.75 20.6875 C 26.992393 20.320516 28 19.35418 28 18 C 28 17.105073 27.502083 16.393107 26.875 15.84375 C 26.945099 15.186244 27 14.540494 27 14 C 27 8.4886661 22.511334 4 17 4 z M 17 6 C 21.430666 6 25 9.5693339 25 14 C 25 14.564103 24.94426 15.280455 24.84375 16.0625 L 24.75 16.78125 L 25.40625 17.09375 C 25.749819 17.253948 26 17.592185 26 18 C 26 18.56503 25.56503 19 25 19 L 24.96875 19 L 24.25 19 L 24.03125 19.6875 C 23.498034 21.281779 22.400557 22.90564 21.09375 24.09375 C 19.786943 25.28186 18.293642 26 17 26 C 16.670151 26 16.354613 25.96591 16.03125 25.9375 L 21.21875 20.75 C 22.27075 19.698 22.27075 17.9905 21.21875 16.9375 C 21.17975 16.8985 21.13475 16.8485 21.09375 16.8125 C 21.75075 15.7705 21.62575 14.37575 20.71875 13.46875 C 20.51275 13.26275 20.28525 13.09675 20.03125 12.96875 C 20.04625 12.25775 19.76075 11.541 19.21875 11 C 18.70875 10.49 18.0335 10.21875 17.3125 10.21875 C 17.0415 10.21875 16.78325 10.26775 16.53125 10.34375 C 16.45025 10.23375 16.38025 10.13025 16.28125 10.03125 C 15.77325 9.52125 15.096 9.21875 14.375 9.21875 C 13.654 9.21875 12.9465 9.52225 12.4375 10.03125 L 9.375 13.09375 C 9.2960798 12.978633 9.187725 12.883863 9.09375 12.78125 C 9.6804535 8.9396642 12.98562 6 17 6 z M 14.375 11.21875 C 14.554 11.21875 14.70775 11.3005 14.84375 11.4375 C 15.11675 11.7105 15.11675 12.13325 14.84375 12.40625 L 10.90625 16.375 L 11.875 17.375 L 16.84375 12.40625 C 16.97975 12.27025 17.1335 12.21875 17.3125 12.21875 C 17.4915 12.21875 17.6765 12.26925 17.8125 12.40625 C 18.0855 12.67925 18.0855 13.13325 17.8125 13.40625 L 12.875 18.34375 L 13.875 19.34375 L 18.3125 14.875 C 18.4485 14.739 18.6335 14.6875 18.8125 14.6875 C 18.9915 14.6875 19.1765 14.738 19.3125 14.875 C 19.5855 15.148 19.5855 15.602 19.3125 15.875 L 14.84375 20.3125 L 15.84375 21.3125 L 18.8125 18.34375 C 18.9485 18.20775 19.1335 18.15625 19.3125 18.15625 C 19.4915 18.15625 19.64525 18.20675 19.78125 18.34375 C 20.05425 18.61675 20.05425 19.07075 19.78125 19.34375 L 14.34375 24.78125 C 13.52575 25.60225 12.47925 26 11.40625 26 C 10.33325 26 9.2565 25.60025 8.4375 24.78125 L 7.0625 23.40625 C 6.3025 22.64625 5.953 21.65125 6 20.65625 L 6 14.75 C 6 14.226 6.4135 13.8125 6.9375 13.8125 C 7.4615 13.8125 7.90625 14.226 7.90625 14.75 L 7.90625 17.40625 L 13.875 11.4375 C 14.011 11.3015 14.196 11.21875 14.375 11.21875 z" color="#000" overflow="visible" enable-background="accumulate" font-family="Bitstream Vera Sans"/>
</svg>
