<?xml version="1.0"?>
<svg xmlns="http://www.w3.org/2000/svg" viewBox="0 0 32 32" enable-background="new 0 0 32 32">
  <path style="text-indent:0;text-align:start;line-height:normal;text-transform:none;block-progression:tb;-inkscape-font-specification:Bitstream Vera Sans" d="M 16 3 C 13.108642 3 11.041019 3.8676832 9.75 5.21875 C 8.4589806 6.5698168 8 8.3157738 8 9.90625 L 8 10.0625 C 7.6461037 10.02352 7.3044414 10 7 10 C 4.8583333 10 3 11.75098 3 14 C 3 16.209804 4.7901961 18 7 18 L 7.40625 18 L 7.71875 17.71875 C 7.71875 17.71875 7.73438 17.67927 7.96875 17.53125 C 8.2031202 17.383227 8.5952749 17.164218 9.21875 16.9375 C 10.4657 16.484064 12.595238 16 16 16 C 19.404762 16 21.5343 16.484064 22.78125 16.9375 C 23.404725 17.164218 23.79688 17.383227 24.03125 17.53125 C 24.26562 17.679273 24.28125 17.71875 24.28125 17.71875 L 24.59375 18 L 25 18 C 27.209804 18 29 16.209804 29 14 C 29 11.790196 27.209804 10 25 10 C 24.693012 10 24.348519 10.025491 24 10.0625 L 24 9.90625 C 24 8.2493534 23.471093 6.4860339 22.15625 5.15625 C 20.841407 3.8264661 18.792308 3 16 3 z M 16 5 C 18.407692 5 19.864843 5.6672839 20.75 6.5625 C 21.635157 7.4577161 22 8.6631466 22 9.90625 L 22 10.34375 C 21.7031 10.392986 21.443982 10.448963 21.125 10.5 C 19.579753 10.747239 17.812281 11 16 11 C 14.187719 11 12.40095 10.747175 10.84375 10.5 C 10.535264 10.451034 10.28666 10.4224 10 10.375 L 10 9.90625 C 10 8.6967262 10.328519 7.4926832 11.1875 6.59375 C 12.046481 5.6948168 13.491358 5 16 5 z M 7 12 C 7.5916667 12 8.9384504 12.247175 10.53125 12.5 C 12.12405 12.752825 14.012281 13 16 13 C 17.987719 13 19.857747 12.752761 21.4375 12.5 C 23.017253 12.247239 24.346078 12 25 12 C 26.190196 12 27 12.809804 27 14 C 27 15.098492 26.260788 15.793428 25.21875 15.90625 C 25.17007 15.87254 25.17984 15.87839 25.125 15.84375 C 24.76562 15.616773 24.220275 15.335782 23.46875 15.0625 C 21.9657 14.515936 19.595238 14 16 14 C 12.404762 14 10.0343 14.515936 8.53125 15.0625 C 7.7797251 15.335782 7.2343798 15.616773 6.875 15.84375 C 6.820157 15.87839 6.82993 15.87254 6.78125 15.90625 C 5.7392117 15.793428 5 15.098492 5 14 C 5 12.84902 5.9416667 12 7 12 z M 16 17 C 14.895431 17 14 17.895431 14 19 C 14 20.104569 14.895431 21 16 21 C 17.104569 21 18 20.104569 18 19 C 18 17.895431 17.104569 17 16 17 z M 10.3125 20 C 9.7902778 20 9.1941667 20.21375 8.6875 20.59375 L 8.625 20.65625 L 8.5625 20.71875 C 7.8556578 21.46977 7.8446626 22.535983 8.125 23.4375 C 8.4053374 24.339017 8.9708222 25.227402 9.71875 26.03125 C 11.214606 27.638945 13.470155 29 16 29 C 18.537597 29 20.781725 27.590844 22.25 25.96875 C 22.984137 25.157703 23.544027 24.302507 23.8125 23.40625 C 24.080973 22.509993 24.040273 21.415273 23.3125 20.6875 C 22.855365 20.230365 22.209722 20 21.6875 20 C 20.416071 20 19.65794 20.806336 18.78125 21.375 C 17.90456 21.943664 17.020536 22.40625 15.90625 22.40625 C 14.913942 22.40625 14.076081 21.946554 13.21875 21.375 C 12.361419 20.803446 11.583929 20 10.3125 20 z M 10.3125 22 C 10.441071 22 11.151081 22.402804 12.09375 23.03125 C 13.036419 23.659696 14.298558 24.40625 15.90625 24.40625 C 17.591964 24.40625 18.90169 23.662586 19.875 23.03125 C 20.84831 22.399914 21.558929 22 21.6875 22 C 21.76528 22 21.76338 21.95088 21.90625 22.09375 C 21.97848 22.16598 22.022152 22.321257 21.875 22.8125 C 21.727848 23.303743 21.359613 23.986047 20.78125 24.625 C 19.624525 25.902906 17.762403 27 16 27 C 14.229845 27 12.335394 25.923555 11.15625 24.65625 C 10.566678 24.022598 10.185288 23.339108 10.03125 22.84375 C 9.8836307 22.369032 9.944387 22.226088 10.03125 22.125 C 10.140443 22.059323 10.259004 22 10.3125 22 z" color="#000" overflow="visible" enable-background="accumulate" font-family="Bitstream Vera Sans"/>
</svg>
