<?xml version="1.0"?>
<svg xmlns="http://www.w3.org/2000/svg" viewBox="0 0 32 32" enable-background="new 0 0 32 32">
  <path style="text-indent:0;text-align:start;line-height:normal;text-transform:none;block-progression:tb;-inkscape-font-specification:Bitstream Vera Sans" d="M 22 5 C 20.354545 5 19 6.3545455 19 8 C 19 9.6454545 20.354545 11 22 11 C 22.522222 11 22.820833 10.90625 22.6875 10.90625 L 22.6875 8.90625 C 22.154167 8.90625 22.077778 9 22 9 C 21.445455 9 21 8.5545455 21 8 C 21 7.4454545 21.445455 7 22 7 C 22.07778 7 22.263007 7.053378 22.34375 7.09375 L 23.25 5.3125 C 22.930743 5.1528715 22.522222 5 22 5 z M 28 7 C 27.447715 7 27 7.4477153 27 8 C 27 8.5522847 27.447715 9 28 9 C 28.552285 9 29 8.5522847 29 8 C 29 7.4477153 28.552285 7 28 7 z M 26 10 C 25.447715 10 25 10.447715 25 11 C 25 11.552285 25.447715 12 26 12 C 26.552285 12 27 11.552285 27 11 C 27 10.447715 26.552285 10 26 10 z M 13 12.4375 L 12.21875 13.375 L 2.21875 25.375 L 0.875 27 L 3 27 L 23 27 L 25.125 27 L 29 27 L 31.21875 27 L 29.75 25.34375 L 21.84375 16.34375 L 21.125 15.5 L 20.375 16.3125 L 18.1875 18.65625 L 13.78125 13.375 L 13 12.4375 z M 13 15.5625 L 20.875 25 L 5.125 25 L 13 15.5625 z M 21.09375 18.5 L 26.78125 25 L 23.46875 25 L 19.46875 20.21875 L 21.09375 18.5 z" color="#000" overflow="visible" enable-background="accumulate" font-family="Bitstream Vera Sans"/>
</svg>
