<?xml version="1.0"?>
<svg xmlns="http://www.w3.org/2000/svg" viewBox="0 0 32 32" enable-background="new 0 0 32 32">
  <path style="text-indent:0;text-align:start;line-height:normal;text-transform:none;block-progression:tb;-inkscape-font-specification:Bitstream Vera Sans" d="M 15.8125 2.90625 C 14.492659 2.90625 13.384035 3.426434 12.59375 3.90625 C 12.198607 4.146158 11.877969 4.359922 11.65625 4.53125 C 11.604742 4.5710497 11.595305 4.6188696 11.5625 4.65625 C 11.59337 4.645467 11.63622 4.635817 11.6875 4.625 C 11.73878 4.614183 11.907031 4.59375 11.90625 4.59375 L 11.90625 6.59375 C 11.907031 6.59375 12.040523 6.604979 12.09375 6.59375 C 12.14698 6.582521 12.216791 6.54285 12.25 6.53125 C 12.31642 6.50805 12.34309 6.485267 12.375 6.46875 C 12.43881 6.435716 12.47233 6.424913 12.5 6.40625 C 12.55533 6.368923 12.58829 6.340865 12.625 6.3125 C 12.69842 6.25577 12.779609 6.198711 12.875 6.125 C 13.065781 5.977578 13.320143 5.778842 13.625 5.59375 C 14.234715 5.223566 15.032341 4.90625 15.8125 4.90625 C 16.545833 4.90625 17.334309 5.2195859 17.84375 5.65625 L 18.40625 6.125 L 19 5.75 C 19.281423 5.581146 19.698611 5.5 20.1875 5.5 C 21.720833 5.5 22.917432 6.5503194 23.21875 7.90625 L 23.375 8.53125 L 23.96875 8.6875 C 25.290227 8.9811615 26.40625 10.278728 26.40625 11.6875 C 26.40625 12.065278 26.245425 12.573939 26.0625 13.03125 L 25.875 13.5625 L 26.1875 14 C 26.6995 14.682667 27 15.360417 27 16.09375 C 27 17.808902 25.69375 19.18125 25.59375 19.28125 L 27 20.71875 C 27.1 20.61875 29 18.778598 29 16.09375 C 29 15.01251 28.599652 14.081818 28.0625 13.25 C 28.224461 12.785534 28.40625 12.300591 28.40625 11.6875 C 28.40625 9.5055633 26.948263 7.6418539 24.96875 6.9375 C 24.284687 4.9700813 22.445116 3.5 20.1875 3.5 C 19.699082 3.5 19.200112 3.7023998 18.6875 3.875 C 17.858816 3.305426 16.886346 2.90625 15.8125 2.90625 z M 14.1875 7.96875 C 13.469719 7.96875 12.76799 8.2439274 12.21875 8.78125 C 12.21125 8.78855 12.1949 8.77385 12.1875 8.78125 L 9.6875 11.21875 L 8.71875 11.0625 L 8.59375 11.03125 L 8.59375 11.0625 C 7.9382998 10.897881 7.4291463 11.04445 7.09375 11.15625 L 7.0625 11.15625 L 4.84375 11.96875 L 4.8125 11.96875 C 3.7532939 12.422695 3 13.41756 3 14.59375 L 3 19.40625 C 3 20.995139 3.3339272 22.125668 4.25 23.15625 L 4.28125 23.1875 L 4.3125 23.21875 L 8.28125 27.09375 C 8.291845 27.10434 8.301851 27.11449 8.3125 27.125 C 10.883482 29.66201 15.024883 29.665097 17.5 27.09375 L 17.53125 27.09375 L 23.09375 21.5 C 24.063124 20.530626 24.13029 19.206014 23.875 18.3125 L 23.84375 18.28125 L 23.84375 18.25 C 23.618395 17.649053 23.24232 17.24232 22.96875 16.96875 C 22.69518 16.69518 22.540681 16.518862 22.5 16.4375 C 22.459319 16.356138 22.43125 16.2 22.40625 15.875 C 22.38125 15.55 22.35307 15.081138 22.09375 14.5625 C 21.649189 13.673378 20.931275 13.272696 20.5625 13.03125 C 20.55055 12.94842 20.5591 12.860435 20.53125 12.6875 C 20.45732 12.229133 20.203328 11.483989 19.59375 10.90625 C 19.57259 10.8862 19.58465 10.86342 19.5625 10.84375 L 19.53125 10.875 C 18.966368 10.334313 18.369883 10.00864 17.875 9.90625 C 17.445299 9.8173463 17.142762 9.8267545 17.09375 9.84375 C 17.103049 9.8422794 17.084422 9.8138055 17.03125 9.75 C 16.896974 9.5888687 16.645113 9.2589094 16.34375 8.9375 L 16.21875 8.78125 C 15.666719 8.2292195 14.915038 7.96875 14.1875 7.96875 z M 14.1875 10 C 14.41039 10 14.63328 10.07078 14.78125 10.21875 C 15.080742 10.518242 15.284514 10.741417 15.5 11 C 15.715486 11.258583 16.020097 11.645649 16.5625 11.78125 C 17.066858 11.90734 17.256619 11.83111 17.46875 11.875 C 17.680881 11.91889 17.868446 11.993446 18.1875 12.3125 L 18.21875 12.3125 L 18.25 12.34375 C 18.490382 12.557423 18.513996 12.699276 18.5625 13 C 18.58675 13.150362 18.60149 13.314762 18.65625 13.5625 C 18.71101 13.810238 18.810167 14.217 19.1875 14.5 C 19.694167 14.88 20.211262 15.235023 20.3125 15.4375 C 20.35318 15.51886 20.38125 15.70625 20.40625 16.03125 C 20.43125 16.35625 20.45943 16.825112 20.71875 17.34375 C 20.978069 17.862388 21.30482 18.14857 21.53125 18.375 C 21.735908 18.579658 21.861685 18.70358 21.9375 18.875 C 21.9404 18.8816 21.9347 18.89958 21.9375 18.90625 C 22.073479 19.389817 22.107597 19.673653 21.6875 20.09375 L 16.09375 25.6875 L 16.0625 25.71875 C 14.345683 27.51732 11.543769 27.512519 9.71875 25.6875 L 9.6875 25.6875 L 5.75 21.84375 L 5.6875 21.78125 C 5.0714908 21.073973 5 20.765832 5 19.40625 L 5 14.59375 C 5 14.36994 5.2529561 13.958555 5.59375 13.8125 L 7.71875 13.0625 C 7.742425 13.0546 7.72604 13.03721 7.75 13.03125 C 7.9117135 12.990997 8.0969186 12.98856 8.125 12.96875 L 8.15625 12.96875 L 8.21875 12.96875 L 9.8125 13.28125 L 10.3125 13.375 L 10.6875 13.03125 L 13.59375 10.21875 C 13.74172 10.07078 13.96461 10 14.1875 10 z" color="#000" overflow="visible" enable-background="accumulate" font-family="Bitstream Vera Sans"/>
</svg>
