<?xml version="1.0"?>
<svg xmlns="http://www.w3.org/2000/svg" viewBox="0 0 32 32" enable-background="new 0 0 32 32">
  <path style="text-indent:0;text-align:start;line-height:normal;text-transform:none;block-progression:tb;-inkscape-font-specification:Bitstream Vera Sans" d="M 11.5 6 L 10 8 L 3 8 L 3 26 L 20 26 C 19.7 25.4 19.6 24.7 19.5 24 L 5 24 L 5 10 L 11 10 L 12.5 8 L 19.5 8 L 21 10 L 27 10 L 27 16.5 C 27.7 16.5 28.4 16.70625 29 16.90625 L 29 8 L 22 8 L 20.5 6 L 11.5 6 z M 8 11 C 7.4477153 11 7 11.447715 7 12 C 7 12.552285 7.4477153 13 8 13 C 8.5522847 13 9 12.552285 9 12 C 9 11.447715 8.5522847 11 8 11 z M 16 11 C 12.698136 11 10 13.698136 10 17 C 10 20.301864 12.698136 23 16 23 C 19.301864 23 22 20.301864 22 17 C 22 13.698136 19.301864 11 16 11 z M 16 13 C 18.220984 13 20 14.779016 20 17 C 20 19.220984 18.220984 21 16 21 C 13.779016 21 12 19.220984 12 17 C 12 14.779016 13.779016 13 16 13 z M 26.5 18 C 23.474279 18 21 20.474279 21 23.5 C 21 24.658923 21.35081 25.735927 21.96875 26.625 L 18.28125 30.28125 L 19.71875 31.71875 L 23.375 28.03125 C 24.264073 28.64919 25.341077 29 26.5 29 C 29.525721 29 32 26.525721 32 23.5 C 32 20.474279 29.525721 18 26.5 18 z M 26.5 20 C 28.444841 20 30 21.555159 30 23.5 C 30 25.444841 28.444841 27 26.5 27 C 24.555159 27 23 25.444841 23 23.5 C 23 21.555159 24.555159 20 26.5 20 z" color="#000" overflow="visible" enable-background="accumulate" font-family="Bitstream Vera Sans"/>
</svg>
