<?xml version="1.0"?>
<svg xmlns="http://www.w3.org/2000/svg" viewBox="0 0 32 32" enable-background="new 0 0 32 32">
  <path style="text-indent:0;text-align:start;line-height:normal;text-transform:none;block-progression:tb;-inkscape-font-specification:Bitstream Vera Sans" d="M 16 6 C 14.219867 6 12.714964 6.8984954 11.625 8.125 C 11.420166 8.0728179 11.267536 8 11 8 C 10.181785 8 9.4847734 8.4127251 8.9375 9 L 7 9 C 5.3545455 9 4 10.354545 4 12 L 4 13.1875 C 2.8441574 13.605616 2 14.707632 2 16 L 2 24 L 2 25 L 2 27 L 4 27 L 4 25 L 28 25 L 28 27 L 30 27 L 30 24 L 30 16 C 30 14.707632 29.155843 13.605616 28 13.1875 L 28 12 C 28 10.354545 26.645455 9 25 9 L 23.0625 9 C 22.515227 8.4127251 21.818215 8 21 8 C 20.732464 8 20.579834 8.0728179 20.375 8.125 C 19.285036 6.8984954 17.780133 6 16 6 z M 16 8 C 17.347059 8 18.55429 8.7311964 19.28125 9.78125 L 19.71875 10.375 L 20.40625 10.15625 C 20.70625 10.05625 20.922222 10 21 10 C 21.319048 10 21.711262 10.235023 21.8125 10.4375 L 22.09375 11 L 22.6875 11 L 25 11 C 25.554545 11 26 11.445455 26 12 L 26 13.1875 C 24.844157 13.605616 24 14.707632 24 16 L 24 18 L 8 18 L 8 16 C 8 14.707632 7.1558426 13.605616 6 13.1875 L 6 12 C 6 11.445455 6.4454545 11 7 11 L 9.3125 11 L 9.90625 11 L 10.1875 10.4375 C 10.288738 10.235023 10.680952 10 11 10 C 11.07778 10 11.29375 10.05625 11.59375 10.15625 L 12.28125 10.375 L 12.71875 9.78125 C 13.44571 8.7311964 14.652941 8 16 8 z M 11 13 C 10.447715 13 10 13.447715 10 14 C 10 14.552285 10.447715 15 11 15 C 11.552285 15 12 14.552285 12 14 C 12 13.447715 11.552285 13 11 13 z M 16 13 C 15.447715 13 15 13.447715 15 14 C 15 14.552285 15.447715 15 16 15 C 16.552285 15 17 14.552285 17 14 C 17 13.447715 16.552285 13 16 13 z M 21 13 C 20.447715 13 20 13.447715 20 14 C 20 14.552285 20.447715 15 21 15 C 21.552285 15 22 14.552285 22 14 C 22 13.447715 21.552285 13 21 13 z M 5 15 C 5.5545455 15 6 15.445455 6 16 L 6 19 L 6 20 L 7 20 L 25 20 L 26 20 L 26 19 L 26 16 C 26 15.445455 26.445455 15 27 15 C 27.554545 15 28 15.445455 28 16 L 28 23 L 4 23 L 4 16 C 4 15.445455 4.4454545 15 5 15 z" color="#000" overflow="visible" enable-background="accumulate" font-family="Bitstream Vera Sans"/>
</svg>
