<?xml version="1.0"?>
<svg xmlns="http://www.w3.org/2000/svg" viewBox="0 0 32 32" enable-background="new 0 0 32 32">
  <path style="text-indent:0;text-align:start;line-height:normal;text-transform:none;block-progression:tb;-inkscape-font-specification:Bitstream Vera Sans" d="M 2 5 L 2 6 L 2 22 L 2 23 L 3 23 L 6 23 L 6 26 L 6 27 L 7 27 L 29 27 L 30 27 L 30 26 L 30 10 L 30 9 L 29 9 L 26 9 L 26 6 L 26 5 L 25 5 L 3 5 L 2 5 z M 4 7 L 24 7 L 24 21 L 4 21 L 4 7 z M 6 9 L 6 10 L 6 18 L 6 19 L 7 19 L 21 19 L 22 19 L 22 18 L 22 10 L 22 9 L 21 9 L 7 9 L 6 9 z M 8 11 L 20 11 L 20 17 L 8 17 L 8 11 z M 26 11 L 28 11 L 28 25 L 8 25 L 8 23 L 25 23 L 26 23 L 26 22 L 26 11 z" color="#000" overflow="visible" enable-background="accumulate" font-family="Bitstream Vera Sans"/>
</svg>
