<?xml version="1.0"?>
<svg xmlns="http://www.w3.org/2000/svg" viewBox="0 0 32 32" enable-background="new 0 0 32 32">
  <path style="text-indent:0;text-align:start;line-height:normal;text-transform:none;block-progression:tb;-inkscape-font-specification:Bitstream Vera Sans" d="M 8.84375 4.9375 C 8.6392061 4.9444138 8.4231116 4.9723836 8.21875 5 C 6.5838573 5.2209314 4.9361534 6.0638466 3.59375 7.40625 C 2.2415256 8.7584744 1.4237364 10.422609 1.21875 12.0625 C 1.0137636 13.702391 1.4384059 15.344656 2.59375 16.5 C 3.8011421 17.707392 5.4519632 17.858786 7.125 17.65625 C 7.0412002 18.112052 7 18.564197 7 19 C 7 23.945455 11.054545 28 16 28 C 20.945455 28 25 23.945455 25 19 C 25 18.539874 24.844737 18.10448 24.78125 17.65625 C 26.548962 17.959557 28.32667 17.76708 29.59375 16.5 C 30.749094 15.344656 31.173736 13.702391 30.96875 12.0625 C 30.763764 10.422609 29.945974 8.7584744 28.59375 7.40625 C 27.241526 6.0540256 25.577391 5.2362364 23.9375 5.03125 C 22.297609 4.8262636 20.655344 5.2509059 19.5 6.40625 C 18.453879 7.4523712 18.168433 8.8870688 18.25 10.375 C 17.53858 10.180412 16.870661 9.90625 16.09375 9.90625 C 15.374285 9.90625 14.656661 10.192346 13.9375 10.375 C 14.019284 8.8867707 13.765069 7.452569 12.71875 6.40625 C 11.675833 5.3633331 10.275557 4.8891034 8.84375 4.9375 z M 9.28125 6.9375 C 10.066633 6.987179 10.750179 7.2814287 11.28125 7.8125 C 12.081265 8.6125153 12.356025 9.8895142 11.9375 11.3125 L 11.28125 13.53125 L 13.34375 12.5 C 14.17679 12.08348 15.114962 11.90625 16.09375 11.90625 C 17.011932 11.90625 18.012205 12.161132 18.9375 12.53125 L 20.84375 13.28125 L 20.25 11.3125 C 19.831475 9.8895142 20.106235 8.6125153 20.90625 7.8125 C 21.550906 7.1678441 22.527391 6.8862364 23.6875 7.03125 C 24.847609 7.1762636 26.139724 7.7647244 27.1875 8.8125 C 28.235276 9.8602756 28.823736 11.152391 28.96875 12.3125 C 29.113764 13.472609 28.832156 14.449094 28.1875 15.09375 C 27.231988 16.049262 25.602185 16.268354 24 15.59375 L 21.84375 14.6875 L 22.65625 16.84375 C 22.904944 17.506935 23 18.174074 23 19 C 23 22.854545 19.854545 26 16 26 C 12.145455 26 9 22.854545 9 19 C 9 18.174074 9.064541 17.627984 9.4375 17.03125 L 10.96875 14.625 L 8.28125 15.5625 C 6.5054777 16.18402 4.9555121 16.049262 4 15.09375 C 3.3553441 14.449094 3.0737364 13.472609 3.21875 12.3125 C 3.3637636 11.152391 3.9522244 9.8602756 5 8.8125 C 6.0575966 7.7549034 7.3286427 7.1228186 8.46875 6.96875 C 8.7537768 6.9302328 9.0194555 6.9209403 9.28125 6.9375 z" color="#000" overflow="visible" enable-background="accumulate" font-family="Bitstream Vera Sans"/>
</svg>
