<?xml version="1.0" encoding="UTF-8" standalone="no"?>
<svg xmlns="http://www.w3.org/2000/svg" xmlns:xlink="http://www.w3.org/1999/xlink" xmlns:sketch="http://www.bohemiancoding.com/sketch/ns" width="60px" height="60px" viewBox="0 0 60 60" version="1.1">
  <!-- Generator: Sketch 3.2.2 (9983) - http://www.bohemiancoding.com/sketch -->
  <title>Coffeemaker</title>
  <desc>Created with Sketch.</desc>
  <g id="colored" stroke="none" stroke-width="1" fill="none" fill-rule="evenodd" sketch:type="MSPage">
        <g id="Kitchen_sliced" sketch:type="MSLayerGroup" transform="translate(-360.000000, 0.000000)"/>
        <g id="Kitchen" sketch:type="MSLayerGroup" transform="translate(-343.000000, -1.000000)" stroke="#314E55" stroke-width="2" stroke-linejoin="round">
            <g id="Coffeemaker" transform="translate(350.000000, 4.000000)" sketch:type="MSShapeGroup">
                <path d="M0,54 L48,54" id="Line" stroke-linecap="square"/>
                <path d="M10,15 L4,15 L4,54 L44,54 L44,15 L38,15 L38,27 L10,27 L10,15 Z" id="Rectangle-683" stroke-linecap="round" fill="#E9E7D1"/>
                <path d="M10,2 C10,2 17.1131744,-8.13271713e-16 24,0 C30.8868256,8.13271696e-16 38,2 38,2 L38,27 L10,27 L10,2 Z" id="Rectangle-685" stroke-linecap="round" fill="#E9E7D1"/>
                <path d="M21,30 L27,30" id="Line" stroke-linecap="square"/>
                <rect id="Rectangle-686" stroke-linecap="round" fill="#E4AD40" x="18" y="38" width="12" height="14"/>
                <rect id="Rectangle-687" stroke-linecap="round" x="28" y="41" width="5" height="6"/>
                <path d="M19.4075868,19.2829671 C21.4916598,21.094624 25.2372281,20.1979973 27.7735479,17.2802951 C30.3098677,14.362593 30.6764862,10.5286899 28.5924132,8.71703294 C26.5083402,6.90537596 22.7627719,7.80200271 20.2264521,10.7197049 C17.6901323,13.637407 17.3235138,17.4713101 19.4075868,19.2829671 L19.4075868,19.2829671 Z" id="Oval-660" stroke-linecap="round" fill="#D8D8D8"/>
                <path d="M29.0667153,9.23985929 C29.0667153,9.23985929 25.8258786,11.1621582 23.7685449,13.8842792" id="Path-1487" stroke-linecap="round"/>
            </g>
        </g>
    </g>
</svg>
