<?xml version="1.0" encoding="UTF-8" standalone="no"?>
<svg xmlns="http://www.w3.org/2000/svg" xmlns:xlink="http://www.w3.org/1999/xlink" xmlns:sketch="http://www.bohemiancoding.com/sketch/ns" width="60px" height="60px" viewBox="0 0 60 60" version="1.1">
  <!-- Generator: Sketch 3.2.2 (9983) - http://www.bohemiancoding.com/sketch -->
  <title>Tumblr</title>
  <desc>Created with Sketch.</desc>
  <g id="colored" stroke="none" stroke-width="1" fill="none" fill-rule="evenodd" sketch:type="MSPage">
        <g id="Brands_sliced" sketch:type="MSLayerGroup" transform="translate(-840.000000, 0.000000)"/>
        <g id="Brands" sketch:type="MSLayerGroup" transform="translate(-836.000000, 4.000000)" stroke="#314E55" stroke-width="2" fill="#81A4E3" stroke-linecap="round" stroke-linejoin="round">
            <g id="Tumblr" transform="translate(850.000000, 5.000000)" sketch:type="MSShapeGroup">
                <path d="M16.0509338,8.34891623e-09 L16.0509342,12.0000001 L26.9770854,12.0000001 L26.9770854,18.9999991 L16.0509342,18.9999991 L16.0509342,31.6106709 C16.0509342,31.6106709 15.5505632,36.333052 20.8034206,35.8544814 C22.6678735,35.6842306 25.162462,34.8513276 26.9770854,32.4999991 L26.9770854,40.4999991 C26.9770854,40.4999991 25.128204,42.656205 20.3809081,43.3880755 C18.5901613,43.6642138 15.0460397,43.7628347 13.1649769,43.5209541 C9.71220938,43.0766412 5.03342907,41.3959345 5.03342907,32.2148533 L5.03342901,18.9999991 L8.60779892e-09,18.9999991 L8.60779892e-09,12.0000001 C8.60779892e-09,12.0000001 9.50000001,11.6870887 9.50000001,1.74606635e-09 L16.0509338,8.34891623e-09 Z" id="Shape"/>
            </g>
        </g>
    </g>
</svg>
