<?xml version="1.0" encoding="UTF-8" standalone="no"?>
<svg xmlns="http://www.w3.org/2000/svg" xmlns:xlink="http://www.w3.org/1999/xlink" xmlns:sketch="http://www.bohemiancoding.com/sketch/ns" width="60px" height="60px" viewBox="0 0 60 60" version="1.1">
  <!-- Generator: Sketch 3.2.2 (9983) - http://www.bohemiancoding.com/sketch -->
  <title>Core</title>
  <desc>Created with Sketch.</desc>
  <g id="colored" stroke="none" stroke-width="1" fill="none" fill-rule="evenodd" sketch:type="MSPage">
        <g id="Science_sliced" sketch:type="MSLayerGroup" transform="translate(-120.000000, 0.000000)"/>
        <g id="Science" sketch:type="MSLayerGroup" transform="translate(-116.000000, 2.000000)" stroke="#314E55" stroke-width="2">
            <g id="Core" transform="translate(118.000000, 0.000000)" sketch:type="MSShapeGroup">
                <circle id="Oval-91" stroke-linecap="round" stroke-linejoin="round" fill="#EBE9D3" cx="28" cy="28" r="28"/>
                <path d="M28,51 C40.7025492,51 51,40.7025492 51,28 C51,15.2974508 40.7025492,5 28,5" id="Oval-96" stroke-linecap="round" stroke-linejoin="round" fill="#E5D85A"/>
                <path d="M28.0294373,45 C37.4020203,45 45,37.3888407 45,28 C45,18.6111593 37.4020203,11 28.0294373,11 L28.0294373,45 Z" id="Oval-93" stroke-linecap="round" stroke-linejoin="round" fill="#F28544"/>
                <path d="M27.9863735,16 C27.9863735,16 23.1784984,16.2486031 22.0031116,18.7749582 C20.8277248,21.3013133 18.0966486,22.1704452 19.2994948,23.7679646 C20.5023411,25.3654839 28,27 28,27" id="Path-92"/>
                <path d="M28,56 L28,0.419700414" id="Line" stroke-linecap="square"/>
                <path d="M12.4341068,4.88851971 C12.4341068,4.88851971 11.9881549,5.72460607 14.1068671,11.896545 C16.2255792,18.068484 7.19343761,17.5299927 7.36059613,22.1578452 C7.52775464,26.7856978 7.69520694,28.9067602 11.3192271,30.3759337 C14.9432472,31.8451072 10.2595772,34.967358 8.02952397,37.2532287 C5.79947072,39.5390994 5.05533624,43.7959129 5.05533624,43.7959129" id="Path-91"/>
            </g>
        </g>
    </g>
</svg>
