<?xml version="1.0" encoding="UTF-8" standalone="no"?>
<svg xmlns="http://www.w3.org/2000/svg" xmlns:xlink="http://www.w3.org/1999/xlink" xmlns:sketch="http://www.bohemiancoding.com/sketch/ns" width="60px" height="60px" viewBox="0 0 60 60" version="1.1">
  <!-- Generator: Sketch 3.2.2 (9983) - http://www.bohemiancoding.com/sketch -->
  <title>Google</title>
  <desc>Created with Sketch.</desc>
  <g id="colored" stroke="none" stroke-width="1" fill="none" fill-rule="evenodd" sketch:type="MSPage">
        <g id="Brands_sliced" sketch:type="MSLayerGroup" transform="translate(-600.000000, 0.000000)"/>
        <g id="Brands" sketch:type="MSLayerGroup" transform="translate(-596.000000, 4.000000)" stroke="#314E55" stroke-width="2">
            <g id="Google" transform="translate(607.000000, 0.000000)" sketch:type="MSShapeGroup">
                <path d="M22.2788274,31.1967052 L20.3231375,29.5951778 C20.0424804,29.3145207 19.7506861,28.9870874 19.4522095,28.6117642 C19.0991607,28.2175079 18.9231932,27.7207893 18.9231932,27.1216087 C18.9231932,26.5023812 19.0947059,25.9600002 19.4388449,25.4911247 C19.7306392,25.0422961 20.0469353,24.6380162 20.3910743,24.2816262 C20.9924824,23.7570648 21.5582515,23.241413 22.0917227,22.7357848 C22.5717354,22.2301565 23.0272463,21.6777521 23.4571417,21.0774577 C24.3325246,19.8412301 24.7891492,18.1929265 24.8225608,16.1303196 C24.8225608,15.0043501 24.8593135,14.6702345 24.6064993,13.8271495 C24.299113,12.9840645 23.96277,12.1755048 23.5295334,11.7244487 C23.0773637,11.2945533 21.9736685,10.1964268 21.6105962,9.97368303 L25.1655861,9.97368303 L28,6.265 L16.4741259,6.265 C14.9449903,6.265 13.3055964,6.4443087 11.5581719,6.79958494 C9.79181417,7.21166083 8.08893839,8.09149855 6.45065829,9.44132552 C4.06507299,11.7478368 2.87339406,14.3138445 2.87339406,17.1426898 C2.87339406,19.4870675 3.71425162,21.5374235 5.39819418,23.2993264 C7.00640388,25.1915343 9.345213,26.154901 12.4135078,26.1938811 C12.9926415,26.1938811 13.6107553,26.154901 14.2656219,26.0813955 C14.1564775,26.3820996 14.0384233,26.7117603 13.9136868,27.0714914 C13.7689034,27.4089481 13.6965117,27.8321612 13.6965117,28.3422443 C13.6965117,29.1908979 13.8858438,29.9170425 14.2656219,30.5195643 C14.589714,31.142133 14.9594686,31.7268352 15.3748856,32.2725574 C14.031741,32.3104238 12.3411161,32.4785953 10.3063522,32.7781856 C8.25265503,33.1323482 6.29139652,33.8440144 4.4248041,34.9109568 C2.76202219,35.9032801 1.61377829,37.051524 0.980072392,38.3612571 C0.326319558,39.6721039 0,40.859328 0,41.9262704 C0,44.1147275 1.0045742,45.9946846 3.0137226,47.5650278 C5.00505151,49.2489704 8.01877411,50.1098749 12.0560041,50.1477413 C16.8784058,50.0720085 20.5670419,48.9193097 23.1241399,46.6907587 C25.5910266,44.5345995 26.8227994,42.0621441 26.8227994,39.2689378 C26.7871604,37.2998833 26.3394455,35.7072656 25.4763136,34.4899712 C24.5586094,33.2860413 23.4927807,32.1901422 22.2788274,31.1967052 L22.2788274,31.1967052 Z M15.1031383,22.612162 C14.2778728,22.612162 13.5439322,22.3604616 12.9013166,21.8559471 C12.2587009,21.35366 11.7352532,20.7388873 11.3287459,20.0171976 C10.4901157,18.4669013 10.0702438,16.9745183 10.0702438,15.5411624 C10.0446283,14.4552868 10.3319677,13.4763281 10.9311483,12.5964904 C11.6428145,11.7578603 12.5360169,11.32351 13.6107553,11.2978945 C14.4215425,11.32351 15.1410047,11.5640732 15.7658009,12.0151293 C16.3772324,12.4929146 16.8706098,13.1121421 17.2448192,13.8750394 C18.0444692,15.4632021 18.4442942,17.039114 18.4442942,18.6016612 C18.4442942,18.9636198 18.4164512,19.4091072 18.3585378,19.9381236 C18.262758,20.4671399 18.0455829,20.9839054 17.7114673,21.4873062 C17.0165069,22.1989724 16.1478064,22.5731819 15.1031383,22.612162 L15.1031383,22.612162 Z M19.0947059,44.5190074 C18.0556064,45.3620924 16.5509725,45.7975564 14.5796905,45.8253993 C12.3823237,45.7986701 10.6516049,45.3086339 9.38642059,44.3564045 C8.05552683,43.4052888 7.38952309,42.1935629 7.38952309,40.724568 C7.38952309,39.9761491 7.54321626,39.3368746 7.84948888,38.8067446 C8.11566763,38.3044575 8.44198719,37.8823581 8.82733384,37.5404465 C9.22715882,37.2152406 9.6203015,36.9635402 10.0067619,36.786459 C10.3921085,36.6238561 10.6916988,36.5002333 10.9044191,36.4189318 C11.8098723,36.1482982 12.6952786,35.9500563 13.5617517,35.8275472 C14.4404757,35.7462458 14.9873116,35.7195165 15.1989181,35.7462458 C15.5597629,35.7462458 15.8716042,35.7584967 16.1388966,35.7874534 C17.696989,36.8755565 18.840778,37.7932606 19.5736049,38.5427932 C20.2663379,39.3301923 20.6127043,40.2556925 20.6127043,41.3170663 C20.6127043,42.6212309 20.1059624,43.689287 19.0947059,44.5190074 L19.0947059,44.5190074 Z" id="Shape" stroke-linecap="round" stroke-linejoin="round" fill="#E65F58"/>
                <path d="M35,0 L35,8" id="Shape"/>
                <path d="M31,4 L39,4" id="Shape"/>
            </g>
        </g>
    </g>
</svg>
