<?xml version="1.0" encoding="UTF-8" standalone="no"?>
<svg xmlns="http://www.w3.org/2000/svg" xmlns:xlink="http://www.w3.org/1999/xlink" xmlns:sketch="http://www.bohemiancoding.com/sketch/ns" width="60px" height="60px" viewBox="0 0 60 60" version="1.1">
  <!-- Generator: Sketch 3.2.2 (9983) - http://www.bohemiancoding.com/sketch -->
  <title>Browsersettings</title>
  <desc>Created with Sketch.</desc>
  <g id="colored" stroke="none" stroke-width="1" fill="none" fill-rule="evenodd" sketch:type="MSPage">
        <g id="Tech_sliced" sketch:type="MSLayerGroup"/>
        <g id="Tech" sketch:type="MSLayerGroup" transform="translate(2.000000, 7.000000)" stroke-linecap="round" stroke-width="2">
            <g id="Browsersettings" sketch:type="MSShapeGroup">
                <rect id="Rectangle-435" stroke="#314E55" fill="#EAEAEA" x="0" y="8" width="56" height="38"/>
                <rect id="Rectangle-436" stroke="#314E55" fill="#81A4E3" x="0" y="0" width="56" height="8"/>
                <circle id="Oval-475" stroke="#535353" cx="4" cy="4" r="1"/>
                <circle id="Oval-476" stroke="#535353" cx="9" cy="4" r="1"/>
                <circle id="Oval-477" stroke="#535353" cx="14" cy="4" r="1"/>
                <path d="M23.3336479,34.0596366 L22.6133177,34.7799668 C21.9534202,35.4398642 20.8873203,35.4436694 20.2218254,34.7781746 C19.5609381,34.1172873 19.5606679,33.0460476 20.2200332,32.3866823 L20.9403634,31.6663521 C20.3521353,30.7782197 19.9270176,29.772634 19.707723,28.6923077 L18.6897732,28.6923077 C17.7565372,28.6923077 17,27.9411518 17,27 C17,26.0653643 17.7572898,25.3076923 18.6897732,25.3076923 L19.707723,25.3076923 C19.9270176,24.227366 20.3521353,23.2217803 20.9403634,22.3336479 L20.2200332,21.6133177 C19.5601358,20.9534202 19.5563306,19.8873203 20.2218254,19.2218254 C20.8827127,18.5609381 21.9539524,18.5606679 22.6133177,19.2200332 L23.3336479,19.9403634 C24.2217803,19.3521353 25.227366,18.9270176 26.3076923,18.707723 L26.3076923,17.6897732 C26.3076923,16.7565372 27.0588482,16 28,16 C28.9346357,16 29.6923077,16.7572898 29.6923077,17.6897732 L29.6923077,18.707723 C30.772634,18.9270176 31.7782197,19.3521353 32.6663521,19.9403634 L33.3866823,19.2200332 C34.0465798,18.5601358 35.1126797,18.5563306 35.7781746,19.2218254 C36.4390619,19.8827127 36.4393321,20.9539524 35.7799668,21.6133177 L35.0596366,22.3336479 C35.6478647,23.2217803 36.0729824,24.227366 36.292277,25.3076923 L37.3102268,25.3076923 C38.2434628,25.3076923 39,26.0588482 39,27 C39,27.9346357 38.2427102,28.6923077 37.3102268,28.6923077 L36.292277,28.6923077 C36.0729824,29.772634 35.6478647,30.7782197 35.0596366,31.6663521 L35.7799668,32.3866823 C36.4398642,33.0465798 36.4436694,34.1126797 35.7781746,34.7781746 C35.1172873,35.4390619 34.0460476,35.4393321 33.3866823,34.7799668 L32.6663521,34.0596366 C31.7782197,34.6478647 30.772634,35.0729824 29.6923077,35.292277 L29.6923077,36.3102268 C29.6923077,37.2434628 28.9411518,38 28,38 C27.0653643,38 26.3076923,37.2427102 26.3076923,36.3102268 L26.3076923,35.292277 C25.227366,35.0729824 24.2217803,34.6478647 23.3336479,34.0596366 L23.3336479,34.0596366 Z M28,29.5384615 C29.4019536,29.5384615 30.5384615,28.4019536 30.5384615,27 C30.5384615,25.5980464 29.4019536,24.4615385 28,24.4615385 C26.5980464,24.4615385 25.4615385,25.5980464 25.4615385,27 C25.4615385,28.4019536 26.5980464,29.5384615 28,29.5384615 Z" id="Rectangle-355" stroke="#314E55" stroke-linejoin="round" fill="#5ECC66" transform="translate(28.000000, 27.000000) rotate(-45.000000) translate(-28.000000, -27.000000) "/>
            </g>
        </g>
    </g>
</svg>
