<?xml version="1.0" encoding="UTF-8" standalone="no"?>
<svg xmlns="http://www.w3.org/2000/svg" xmlns:xlink="http://www.w3.org/1999/xlink" xmlns:sketch="http://www.bohemiancoding.com/sketch/ns" width="60px" height="60px" viewBox="0 0 60 60" version="1.1">
  <!-- Generator: Sketch 3.2.2 (9983) - http://www.bohemiancoding.com/sketch -->
  <title>Rainumbrella</title>
  <desc>Created with Sketch.</desc>
  <g id="colored" stroke="none" stroke-width="1" fill="none" fill-rule="evenodd" sketch:type="MSPage">
        <g id="Care_sliced" sketch:type="MSLayerGroup" transform="translate(-600.000000, 0.000000)"/>
        <g id="Care" sketch:type="MSLayerGroup" transform="translate(-597.000000, -4.000000)" stroke="#314E55" stroke-width="2" stroke-linejoin="round">
            <g id="Rainumbrella" transform="translate(602.000000, 8.000000)" sketch:type="MSShapeGroup">
                <path d="M50.8818607,25.9737152 C49.8697108,13.1567453 39.3401909,3.07692308 26.5,3.07692308 C13.9054524,3.07692308 3.53401141,12.774764 2.18662833,25.2411748 L2.18662833,25.2411748 C3.77354076,24.3853304 6.08717682,23.8461538 8.66346154,23.8461538 C13.4481592,23.8461538 17.3269231,25.7058941 17.3269231,28 C17.3269231,25.7058941 21.2056869,23.8461538 25.9903846,23.8461538 C30.7750823,23.8461538 34.6538462,25.7058941 34.6538462,28 C34.6538462,25.7058941 38.53261,23.8461538 43.3173077,23.8461538 C46.5674155,23.8461538 49.3995168,24.7042557 50.8818607,25.9737152 Z" id="Oval-841" stroke-linecap="round" fill="#73C9C9"/>
                <path d="M26,24 L26,50.0739727" id="Line" stroke-linecap="square"/>
                <path d="M26,0 L26,2" id="Line" stroke-linecap="round"/>
                <path d="M26,3.38162093 C20.6737231,7.2638243 17,15.4853275 17,25" id="Oval-920" stroke-linecap="round"/>
                <path d="M35,3.38162093 C29.6737231,7.2638243 26,15.4853275 26,25" id="Oval-922" stroke-linecap="round" transform="translate(30.500000, 14.190810) scale(-1, 1) translate(-30.500000, -14.190810) "/>
                <path d="M26,51 C26,52.1045695 27.3431458,53 29,53 C30.6568542,53 32,52.1045695 32,51" id="Oval-844" stroke-linecap="round"/>
            </g>
        </g>
    </g>
</svg>
