<?xml version="1.0" encoding="UTF-8" standalone="no"?>
<svg xmlns="http://www.w3.org/2000/svg" xmlns:xlink="http://www.w3.org/1999/xlink" xmlns:sketch="http://www.bohemiancoding.com/sketch/ns" width="60px" height="60px" viewBox="0 0 60 60" version="1.1">
  <!-- Generator: Sketch 3.2.2 (9983) - http://www.bohemiancoding.com/sketch -->
  <title>Beer</title>
  <desc>Created with Sketch.</desc>
  <g id="colored" stroke="none" stroke-width="1" fill="none" fill-rule="evenodd" sketch:type="MSPage">
        <g id="Kitchen_sliced" sketch:type="MSLayerGroup" transform="translate(-120.000000, 0.000000)"/>
        <g id="Kitchen" sketch:type="MSLayerGroup" transform="translate(-103.000000, -1.000000)" stroke="#314E55" stroke-width="2" stroke-linejoin="round">
            <g id="Beer" transform="translate(114.000000, 4.000000)" sketch:type="MSShapeGroup">
                <path d="M36.3670978,13 L37.9909131,47.1001213 C38.1986742,51.4631038 34.8185003,55 30.4469246,55 L11.287271,55 C6.91308014,55 3.535893,51.4553008 3.7432825,47.1001213 L5.35113932,15.5440824" id="Rectangle-683" stroke-linecap="round" fill="#E5D85A"/>
                <path d="M35.6087474,20.1114339 C35.6087474,20.1114339 40.9848663,16.3011845 43.648943,19.8556186 C46.3130197,23.4100527 44.5572871,33.4128311 43.0223953,34.6259555 C41.4875035,35.8390798 36.966767,35.8390797 36.966767,35.8390797" id="Path-1412" stroke-linecap="round"/>
                <path d="M28,22 L30,48" id="Line" stroke-linecap="square"/>
                <path d="M12,22 L14,48" id="Line" stroke-linecap="square" transform="translate(13.000000, 35.000000) scale(-1, 1) translate(-13.000000, -35.000000) "/>
                <path d="M21,23 L21,47" id="Line" stroke-linecap="square"/>
                <path d="M9.91675649,13.3952991 C10.4829841,14.9164352 11.9482853,16 13.6666667,16 C15.1161446,16 16.3855522,15.2290273 17.0871819,14.0747895 L17.0871819,14.0747895 C17.8166722,14.8495867 18.8518435,15.3333333 20,15.3333333 C20.6607805,15.3333333 21.2841385,15.1731083 21.8333422,14.88939 L21.8333422,14.88939 C23.2299013,16.7765135 25.4720704,18 28,18 C31.5246012,18 34.4936918,15.6215766 35.3898503,12.3821514 C37.4897718,11.6656348 39,9.6758504 39,7.33333333 C39,4.38781467 36.6121853,2 33.6666667,2 C32.4636174,2 31.3536032,2.39833081 30.4613173,3.07029936 C29.6887691,2.80858316 28.8609577,2.66666667 28,2.66666667 C26.4815395,2.66666667 25.066184,3.10811124 23.8752685,3.86966518 C22.9360068,2.34767904 21.2531266,1.33333333 19.3333333,1.33333333 C17.4159864,1.33333333 15.7349492,2.34509558 14.7949924,3.86384938 C14.1569342,1.63294436 12.1024977,0 9.66666667,0 C6.721148,0 4.33333333,2.38781467 4.33333333,5.33333333 C4.33333333,5.36454504 4.33360144,5.39569413 4.33413548,5.42677842 C1.86621036,5.89453398 0,8.06266193 0,10.6666667 C0,13.6121853 2.38781467,16 5.33333333,16 C7.28173148,16 8.9861039,14.9552017 9.91675649,13.3952991 Z" id="Oval-636" stroke-linecap="round" fill="#E4AD40"/>
            </g>
        </g>
    </g>
</svg>
