<?xml version="1.0" encoding="UTF-8" standalone="no"?>
<svg xmlns="http://www.w3.org/2000/svg" xmlns:xlink="http://www.w3.org/1999/xlink" xmlns:sketch="http://www.bohemiancoding.com/sketch/ns" width="60px" height="60px" viewBox="0 0 60 60" version="1.1">
  <!-- Generator: Sketch 3.2.2 (9983) - http://www.bohemiancoding.com/sketch -->
  <title>Piano</title>
  <desc>Created with Sketch.</desc>
  <g id="colored" stroke="none" stroke-width="1" fill="none" fill-rule="evenodd" sketch:type="MSPage">
        <g id="Activities_sliced" sketch:type="MSLayerGroup" transform="translate(-360.000000, 0.000000)"/>
        <g id="Activities" sketch:type="MSLayerGroup" transform="translate(-356.000000, 3.000000)" stroke="#314E55" stroke-width="2" stroke-linejoin="round">
            <g id="Piano" transform="translate(360.000000, 1.000000)" sketch:type="MSShapeGroup">
                <path d="M37.5,40 L21,40 L0,40 L0,15 C0,6.71572875 6.71572875,0 15,0 C23.2842712,0 24.5074673,8.22688484 29.437088,12.6772451 C34.3667088,17.1276054 39.8866582,16 41,16 C47.627417,16 53,21.372583 53,28 L53,40 L37.5,40 Z" id="Oval-889" stroke-linecap="round" fill="#5ECB66"/>
                <path d="M6.13015603,8.18547977 C4.80135138,9.7538888 4,11.7833616 4,14" id="Oval-941" stroke-linecap="round"/>
                <rect id="Rectangle-1092" stroke-linecap="round" fill="#EAEAEA" x="1" y="39" width="51" height="12"/>
                <path d="M21,40.0082634 L21,46.0024989" id="Path-2101" stroke-linecap="round"/>
                <path d="M30,40.0082634 L30,46.0024989" id="Path-2101" stroke-linecap="round"/>
                <path d="M7,40.0082634 L7,46.0024989" id="Path-2101" stroke-linecap="round"/>
                <path d="M24,40.0082634 L24,46.0024989" id="Path-2105" stroke-linecap="round"/>
                <path d="M33,40.0082634 L33,46.0024989" id="Path-2105" stroke-linecap="round"/>
                <path d="M40,40.0082634 L40,46.0024989" id="Path-2105" stroke-linecap="round"/>
                <path d="M43,40.0082634 L43,46.0024989" id="Path-2105" stroke-linecap="round"/>
                <path d="M10,40.0082634 L10,46.0024989" id="Path-2105" stroke-linecap="round"/>
                <path d="M46,40.0082634 L46,46.0024989" id="Path-2104" stroke-linecap="round"/>
                <path d="M13,40.0082634 L13,46.0024989" id="Path-2104" stroke-linecap="round"/>
                <path d="M4,15 L4,23" id="Line" stroke-linecap="square"/>
            </g>
        </g>
    </g>
</svg>
