<?xml version="1.0" encoding="UTF-8" standalone="no"?>
<svg xmlns="http://www.w3.org/2000/svg" xmlns:xlink="http://www.w3.org/1999/xlink" xmlns:sketch="http://www.bohemiancoding.com/sketch/ns" width="60px" height="60px" viewBox="0 0 60 60" version="1.1">
  <!-- Generator: Sketch 3.2.2 (9983) - http://www.bohemiancoding.com/sketch -->
  <title>Tamburine</title>
  <desc>Created with Sketch.</desc>
  <g id="colored" stroke="none" stroke-width="1" fill="none" fill-rule="evenodd" sketch:type="MSPage">
        <g id="Activities_sliced" sketch:type="MSLayerGroup" transform="translate(-840.000000, 0.000000)"/>
        <g id="Activities" sketch:type="MSLayerGroup" transform="translate(-836.000000, 3.000000)" stroke="#314E55" stroke-width="2" stroke-linecap="round" stroke-linejoin="round">
            <g id="Tamburine" transform="translate(841.000000, 2.000000)" sketch:type="MSShapeGroup">
                <path d="M25.5,11 C28.5375661,11 31,8.53756612 31,5.5 C31,2.46243388 28.5375661,0 25.5,0 C22.4624339,0 20,2.46243388 20,5.5 C20,8.53756612 22.4624339,11 25.5,11 Z M35.7530483,15.2469517 C37.9009319,17.3948353 41.3833393,17.3948353 43.5312229,15.2469517 C45.6791065,13.0990681 45.6791065,9.61666068 43.5312229,7.46877708 C41.3833393,5.32089348 37.9009319,5.32089348 35.7530483,7.46877708 C33.6051647,9.61666068 33.6051647,13.0990681 35.7530483,15.2469517 Z M40,25.5 C40,28.5375661 42.4624339,31 45.5,31 C48.5375661,31 51,28.5375661 51,25.5 C51,22.4624339 48.5375661,20 45.5,20 C42.4624339,20 40,22.4624339 40,25.5 Z M35.7530483,35.7530483 C33.6051647,37.9009319 33.6051647,41.3833393 35.7530483,43.5312229 C37.9009319,45.6791065 41.3833393,45.6791065 43.5312229,43.5312229 C45.6791065,41.3833393 45.6791065,37.9009319 43.5312229,35.7530483 C41.3833393,33.6051647 37.9009319,33.6051647 35.7530483,35.7530483 Z M25.5,40 C22.4624339,40 20,42.4624339 20,45.5 C20,48.5375661 22.4624339,51 25.5,51 C28.5375661,51 31,48.5375661 31,45.5 C31,42.4624339 28.5375661,40 25.5,40 Z M15.2469517,35.7530483 C13.0990681,33.6051647 9.61666068,33.6051647 7.46877708,35.7530483 C5.32089348,37.9009319 5.32089348,41.3833393 7.46877708,43.5312229 C9.61666068,45.6791065 13.0990681,45.6791065 15.2469517,43.5312229 C17.3948353,41.3833393 17.3948353,37.9009319 15.2469517,35.7530483 Z M11,25.5 C11,22.4624339 8.53756612,20 5.5,20 C2.46243388,20 -6.80147034e-16,22.4624339 -1.2215519e-16,25.5 C4.35836655e-16,28.5375661 2.46243388,31 5.5,31 C8.53756612,31 11,28.5375661 11,25.5 Z M15.2469517,15.2469517 C17.3948353,13.0990681 17.3948353,9.61666068 15.2469517,7.46877708 C13.0990681,5.32089348 9.61666068,5.32089348 7.46877708,7.46877708 C5.32089348,9.61666068 5.32089348,13.0990681 7.46877708,15.2469517 C9.61666068,17.3948353 13.0990681,17.3948353 15.2469517,15.2469517 Z" id="Oval-904" fill="#E4AD40"/>
                <circle id="Oval-903" cx="25.5" cy="25.5" r="20.5"/>
            </g>
        </g>
    </g>
</svg>
