<?xml version="1.0" encoding="UTF-8" standalone="no"?>
<svg xmlns="http://www.w3.org/2000/svg" xmlns:xlink="http://www.w3.org/1999/xlink" xmlns:sketch="http://www.bohemiancoding.com/sketch/ns" width="60px" height="60px" viewBox="0 0 60 60" version="1.1">
  <!-- Generator: Sketch 3.2.2 (9983) - http://www.bohemiancoding.com/sketch -->
  <title>Facial</title>
  <desc>Created with Sketch.</desc>
  <g id="colored" stroke="none" stroke-width="1" fill="none" fill-rule="evenodd" sketch:type="MSPage">
        <g id="Care_sliced" sketch:type="MSLayerGroup" transform="translate(-480.000000, 0.000000)"/>
        <g id="Care" sketch:type="MSLayerGroup" transform="translate(-477.000000, -4.000000)" stroke="#314E55" stroke-width="2" stroke-linecap="round" stroke-linejoin="round">
            <g id="Facial" transform="translate(488.000000, 13.000000)" sketch:type="MSShapeGroup">
                <path d="M16.5306998,1.8609879 L0.939425178,4.97083282 L-2.08043345e-16,17.7857339 L5.56936517,9.90104413 L18.1301978,9.90104413 L16.5306998,1.8609879 Z" id="Path-2591" fill="#C59981"/>
                <path d="M36.5147952,0.963215734 L21.5563005,4.07306066 L20.6550024,16.8879617 L25.998332,9.00327196 C25.998332,9.00327196 27.5076951,7.9345788 31.4287744,7.9345788 C35.3498537,7.9345788 38.0493768,9.00327196 38.0493768,9.00327196 L36.5147952,0.963215734 Z" id="Path-2591" fill="#C59981" transform="translate(29.352190, 8.925589) scale(-1, 1) rotate(6.000000) translate(-29.352190, -8.925589) "/>
                <path d="M5,18 C5,18 14.6666667,19.7956936 19.5,19.7956936 C24.3333333,19.7956936 34,18 34,18 C34,18 26.75,45 19.5,45 C12.25,45 5,18 5,18 Z" id="Triangle-42" fill="#C59981"/>
                <path d="M11.5,14.4258184 L26,12" id="Path-2594"/>
                <path d="M17,16 L22.0000001,16" id="Path-2595"/>
            </g>
        </g>
    </g>
</svg>
