<?xml version="1.0" encoding="UTF-8" standalone="no"?>
<svg xmlns="http://www.w3.org/2000/svg" xmlns:xlink="http://www.w3.org/1999/xlink" xmlns:sketch="http://www.bohemiancoding.com/sketch/ns" width="60px" height="60px" viewBox="0 0 60 60" version="1.1">
  <!-- Generator: Sketch 3.2.2 (9983) - http://www.bohemiancoding.com/sketch -->
  <title>Spicing</title>
  <desc>Created with Sketch.</desc>
  <g id="colored" stroke="none" stroke-width="1" fill="none" fill-rule="evenodd" sketch:type="MSPage">
        <g id="Kitchen_sliced" sketch:type="MSLayerGroup" transform="translate(-840.000000, 0.000000)"/>
        <g id="Kitchen" sketch:type="MSLayerGroup" transform="translate(-823.000000, -1.000000)" stroke="#314E55" stroke-width="2" stroke-linejoin="round">
            <g id="Spicing" transform="translate(833.000000, 6.000000)" sketch:type="MSShapeGroup">
                <ellipse id="Oval-647" stroke-linecap="round" fill="#D8D8D8" cx="21" cy="28" rx="20" ry="5"/>
                <path d="M41.5508685,29.4861364 C41.8452157,30.6199437 42,31.795339 42,33 C42,42.3888407 32.5979797,50 21,50 C9.40202025,50 0,42.3888407 0,33 C0,31.795339 0.154784312,30.6199437 0.449131469,29.4861364 C5.40143563,31.6364683 12.7707835,33 21,33 C29.2292165,33 36.5985644,31.6364683 41.5508685,29.4861364 Z" id="Oval-648" stroke-linecap="round" fill="#EAEAEA"/>
                <path d="M9,0 L9,4.12310553" id="Line" stroke-linecap="square"/>
                <path d="M15,3 L15,7.12310553" id="Line" stroke-linecap="square"/>
                <path d="M7,12 L7,16.1231055" id="Line" stroke-linecap="square"/>
                <path d="M22,12 L22,16.1231055" id="Line" stroke-linecap="square"/>
                <path d="M30,5 L30,9.12310553" id="Line" stroke-linecap="square"/>
                <path d="M26,12 L26,16.1231055" id="Line" stroke-linecap="square"/>
                <path d="M36,7 L36,11.1231055" id="Line" stroke-linecap="square"/>
            </g>
        </g>
    </g>
</svg>
