<?xml version="1.0" encoding="UTF-8" standalone="no"?>
<svg xmlns="http://www.w3.org/2000/svg" xmlns:xlink="http://www.w3.org/1999/xlink" xmlns:sketch="http://www.bohemiancoding.com/sketch/ns" width="60px" height="60px" viewBox="0 0 60 60" version="1.1">
  <!-- Generator: Sketch 3.2.2 (9983) - http://www.bohemiancoding.com/sketch -->
  <title>Browserpin</title>
  <desc>Created with Sketch.</desc>
  <g id="colored" stroke="none" stroke-width="1" fill="none" fill-rule="evenodd" sketch:type="MSPage">
        <g id="Tech_sliced" sketch:type="MSLayerGroup" transform="translate(-120.000000, 0.000000)"/>
        <g id="Tech" sketch:type="MSLayerGroup" transform="translate(-118.000000, 7.000000)" stroke-linecap="round" stroke="#314E55" stroke-width="2">
            <g id="Browserpin" transform="translate(120.000000, 0.000000)" sketch:type="MSShapeGroup">
                <rect id="Rectangle-435" fill="#EAEAEA" x="0" y="8" width="56" height="38"/>
                <rect id="Rectangle-436" fill="#73C9C9" x="0" y="0" width="56" height="8"/>
                <circle id="Oval-475" cx="4" cy="4" r="1"/>
                <circle id="Oval-476" cx="9" cy="4" r="1"/>
                <circle id="Oval-477" cx="14" cy="4" r="1"/>
                <path d="M28,39 C27.9705627,39 37,28.9705627 37,24 C37,19.0294373 32.9705627,15 28,15 C23.0294373,15 19,19.0294373 19,24 C19,28.9705627 28.0294373,39 28,39 Z M28,26 C29.6568542,26 31,24.6568542 31,23 C31,21.3431458 29.6568542,20 28,20 C26.3431458,20 25,21.3431458 25,23 C25,24.6568542 26.3431458,26 28,26 Z" id="Oval-483" fill="#E4AD40"/>
            </g>
        </g>
    </g>
</svg>
