<?xml version="1.0" encoding="UTF-8" standalone="no"?>
<svg xmlns="http://www.w3.org/2000/svg" xmlns:xlink="http://www.w3.org/1999/xlink" xmlns:sketch="http://www.bohemiancoding.com/sketch/ns" width="60px" height="60px" viewBox="0 0 60 60" version="1.1">
  <!-- Generator: Sketch 3.2.2 (9983) - http://www.bohemiancoding.com/sketch -->
  <title>Bill</title>
  <desc>Created with Sketch.</desc>
  <g id="colored" stroke="none" stroke-width="1" fill="none" fill-rule="evenodd" sketch:type="MSPage">
        <g id="Marketing_sliced" sketch:type="MSLayerGroup" transform="translate(0.000000, -120.000000)"/>
        <g id="Marketing" sketch:type="MSLayerGroup" transform="translate(8.000000, -120.000000)" stroke="#314E55" stroke-width="2" stroke-linecap="round" stroke-linejoin="round">
            <g id="Bill" transform="translate(0.000000, 127.000000)" sketch:type="MSShapeGroup">
                <path d="M7,30.8615017 L7,26.5490608 M7,20.8082452 L7,16.21473 M7,10.703087 L7,0 L42,0 L42,47 L7,47 L7,36.3649497" id="Rectangle-1590" fill="#E9E7D1"/>
                <rect id="Rectangle-1591" fill="#81A4E3" x="0" y="10" width="14" height="7" rx="13"/>
                <rect id="Rectangle-1591" fill="#81A4E3" x="0" y="20" width="14" height="7" rx="13"/>
                <rect id="Rectangle-1591" fill="#81A4E3" x="0" y="30" width="14" height="7" rx="13"/>
                <rect id="Rectangle-1593" fill="#D8D8D8" x="27" y="4" width="11" height="3"/>
                <path d="M17,11 L38,11" id="Line"/>
                <path d="M17,16 L38,16" id="Line"/>
                <path d="M17,21 L38,21" id="Line"/>
                <path d="M17,26 L38,26" id="Line"/>
                <path d="M17,31 L38,31" id="Line"/>
                <path d="M17,36 L38,36" id="Line"/>
                <path d="M17,41 L38,41" id="Line"/>
            </g>
        </g>
    </g>
</svg>
