<?xml version="1.0" encoding="UTF-8" standalone="no"?>
<svg xmlns="http://www.w3.org/2000/svg" xmlns:xlink="http://www.w3.org/1999/xlink" xmlns:sketch="http://www.bohemiancoding.com/sketch/ns" width="60px" height="60px" viewBox="0 0 60 60" version="1.1">
  <!-- Generator: Sketch 3.2.2 (9983) - http://www.bohemiancoding.com/sketch -->
  <title>Molecule</title>
  <desc>Created with Sketch.</desc>
  <g id="colored" stroke="none" stroke-width="1" fill="none" fill-rule="evenodd" sketch:type="MSPage">
        <g id="Science_sliced" sketch:type="MSLayerGroup" transform="translate(-600.000000, 0.000000)"/>
        <g id="Science" sketch:type="MSLayerGroup" transform="translate(-596.000000, 2.000000)" stroke="#314E55" stroke-width="2" stroke-linecap="round" stroke-linejoin="round">
            <g id="Molecule" transform="translate(599.000000, 2.000000)" sketch:type="MSShapeGroup">
                <path d="M42.3887965,38.1461558 C44.1035716,35.7827749 45.2872164,33.0089781 45.7644965,30 L51.0057979,30 C52.6594501,30 54,28.6534829 54,27 C54,25.3431458 52.656688,24 51.0057979,24 L45.7644965,24 L45.7644965,24 C45.2872164,20.9910219 44.1035716,18.2172251 42.3887965,15.8538442 L46.0959828,12.1466578 C47.2652915,10.9773492 47.2610721,9.07730587 46.0918831,7.90811691 C44.9203102,6.73654403 43.0206977,6.73666156 41.8533422,7.90401716 L38.1461558,11.6112035 L38.1461558,11.6112035 C35.7827749,9.89642844 33.0089781,8.7127836 30,8.23550347 L30,8.23550347 L30,2.99420208 C30,1.34054993 28.6534829,0 27,0 C25.3431458,0 24,1.34331197 24,2.99420208 L24,8.23550347 C20.9910219,8.7127836 18.2172251,9.89642844 15.8538442,11.6112035 L15.8538442,11.6112035 L12.1466578,7.90401716 C10.9773492,6.73470851 9.07730587,6.73892795 7.90811691,7.90811691 C6.73654403,9.07968978 6.73666156,10.9793023 7.90401716,12.1466578 L11.6112035,15.8538442 C9.89642844,18.2172251 8.7127836,20.9910219 8.23550347,24 L8.23550347,24 L2.99420208,24 C1.34054993,24 2.84943646e-16,25.3465171 1.8369702e-16,27 C8.22439572e-17,28.6568542 1.34331197,30 2.99420208,30 L8.23550347,30 C8.7127836,33.0089781 9.89642844,35.7827749 11.6112035,38.1461558 L11.6112035,38.1461558 L7.90401716,41.8533422 C6.73470851,43.0226508 6.73892795,44.9226941 7.90811691,46.0918831 C9.07968978,47.263456 10.9793023,47.2633384 12.1466578,46.0959828 L15.8538442,42.3887965 C18.2172251,44.1035716 20.9910219,45.2872164 24,45.7644965 L24,51.0057979 C24,52.6594501 25.3465171,54 27,54 C28.6568542,54 30,52.656688 30,51.0057979 L30,45.7644965 L30,45.7644965 C33.0089781,45.2872164 35.7827749,44.1035716 38.1461558,42.3887965 L41.8533422,46.0959828 C43.0226508,47.2652915 44.9226941,47.2610721 46.0918831,46.0918831 C47.263456,44.9203102 47.2633384,43.0206977 46.0959828,41.8533422 L42.3887965,38.1461558 Z" id="Oval-98" fill="#E4AD40"/>
                <circle id="Oval-99" fill="#E65F58" cx="33.5" cy="30.5" r="6.5"/>
                <circle id="Oval-100" fill="#E65F58" cx="27" cy="18" r="3"/>
                <circle id="Oval-101" fill="#E65F58" cx="17.5" cy="30.5" r="4.5"/>
            </g>
        </g>
    </g>
</svg>
