<?xml version="1.0" encoding="UTF-8" standalone="no"?>
<svg xmlns="http://www.w3.org/2000/svg" xmlns:xlink="http://www.w3.org/1999/xlink" xmlns:sketch="http://www.bohemiancoding.com/sketch/ns" width="60px" height="60px" viewBox="0 0 60 60" version="1.1">
  <!-- Generator: Sketch 3.2.2 (9983) - http://www.bohemiancoding.com/sketch -->
  <title>Pinterest</title>
  <desc>Created with Sketch.</desc>
  <g id="colored" stroke="none" stroke-width="1" fill="none" fill-rule="evenodd" sketch:type="MSPage">
        <g id="Brands_sliced" sketch:type="MSLayerGroup" transform="translate(-480.000000, 0.000000)"/>
        <g id="Brands" sketch:type="MSLayerGroup" transform="translate(-476.000000, 4.000000)" stroke="#314E55" stroke-width="2" fill="#E65F58">
            <g id="Pinterest" transform="translate(487.088424, 1.584013)" sketch:type="MSShapeGroup">
                <path d="M15.5795753,31.6439773 C15.1794577,33.2052955 14.7771047,34.8445682 14.3591047,36.4459773 C13.9478106,38.0262273 13.5879282,39.6265227 12.9877518,41.0775909 C11.9952812,43.4808182 10.7345753,45.8038636 9.08157531,47.6836818 C7.98404589,48.9354091 8.21763413,48.4331591 7.88569295,48.3685682 C7.63422236,48.3162273 7.61186942,48.0723409 7.56157531,47.7226591 C7.29334001,45.8094318 7.47663413,43.6022045 7.57722236,41.4584545 C7.69122236,39.0117955 8.21539884,36.9782955 8.70157531,34.9447955 C9.62810472,31.0749091 10.5110459,27.2818636 11.4453988,23.38525 C11.5079871,23.1268864 11.6756341,22.6970227 11.6163988,22.5500227 C11.1939282,21.4664545 10.9178694,20.4931364 10.7982812,19.3605682 C10.6585753,18.0542727 10.7658694,16.8359545 11.0642812,15.7156364 C11.5918106,13.73225 12.8089282,11.9704773 14.68434,11.3301364 C15.8757518,10.9214318 17.1979282,11.1085227 18.0003988,11.57625 C18.82634,12.0595682 19.3929871,12.82575 19.6578694,13.9115455 C19.9406341,15.0663864 19.7316341,16.4472955 19.5058694,17.4618182 C18.9951047,19.7447727 18.3245165,21.4608864 17.7142812,23.6692273 C17.4125165,24.7628182 17.0716341,25.8853636 17.3532812,27.0669318 C17.6114577,28.1505 18.1881635,28.8988636 18.9727518,29.4590227 C19.7852812,30.0403409 20.748693,30.3577273 22.0775753,30.3120682 C24.4246341,30.233 26.0563988,28.7585455 27.1461047,27.3687273 C28.8896341,25.1481364 29.9458106,22.1502273 30.3470459,18.5810227 C30.4755753,17.4306364 30.5705753,16.10875 30.4800459,14.8024545 C30.3146341,12.3958864 29.5468106,10.4581591 28.3274577,8.95586364 C27.1684577,7.52595455 25.5255165,6.38781818 23.5271635,5.74747727 C21.5455753,5.11270455 18.8006341,4.90222727 16.3630459,5.31093182 C11.9360459,6.05595455 8.81110472,8.52711364 6.97145766,11.9359545 C6.00692825,13.7222273 5.37098707,15.7768864 5.37098707,18.3337955 C5.37098707,20.3038182 5.86610472,21.8317273 6.66745766,23.0233182 C6.92004589,23.3997273 7.29557531,23.7115455 7.54369295,24.1414091 C7.89575178,24.7527955 7.48892825,25.6648636 7.31457531,26.3241364 C7.10445766,27.1237273 7.08210472,28.224 6.13322236,28.2418182 C5.74092825,28.2507273 4.87363413,27.734 4.56963413,27.5079318 C2.63163413,26.0635455 1.86269295,25.0712955 0.884751776,22.7059318 C0.130340012,20.8784545 -0.225071753,17.4462273 0.151575306,15.5719773 C0.5148106,13.7600909 1.32622236,11.2265682 2.07616354,9.86793182 C3.63304589,7.04931818 5.91304589,4.79643182 8.68816354,3.18611364 C10.8217518,1.94886364 13.2269282,1.07911364 16.1562812,0.660386364 C17.1275165,0.520068182 18.1322812,0.464386364 19.2231047,0.414272727 C22.4106341,0.265045455 25.3098106,0.974431818 27.4914577,1.93104545 C29.7949282,2.94222727 31.6334577,4.28861364 33.1881047,5.95572727 C34.7885753,7.67184091 35.9542812,9.66859091 36.6930459,12.1631364 C37.0786341,13.4605227 37.2619282,14.9238409 37.2619282,16.5263636 C37.2619282,18.1344545 37.1065753,19.4786136 36.8651635,20.8951591 C35.9598694,26.1994091 33.3892812,30.5359091 29.5300459,33.0070682 C28.5945753,33.6062045 27.4623988,34.1574545 26.1771047,34.5238409 C24.9029871,34.8902273 23.4489282,35.1619545 21.8909282,35.0550455 C20.3787518,34.9537045 19.1415165,34.5516818 18.0998694,33.9748182 C17.0615753,33.4068636 16.1942812,32.7041591 15.5795753,31.6439773 L15.5795753,31.6439773 Z" id="Shape"/>
            </g>
        </g>
    </g>
</svg>
