<?xml version="1.0" encoding="UTF-8" standalone="no"?>
<svg xmlns="http://www.w3.org/2000/svg" xmlns:xlink="http://www.w3.org/1999/xlink" xmlns:sketch="http://www.bohemiancoding.com/sketch/ns" width="60px" height="60px" viewBox="0 0 60 60" version="1.1">
  <!-- Generator: Sketch 3.2.2 (9983) - http://www.bohemiancoding.com/sketch -->
  <title>Gold</title>
  <desc>Created with Sketch.</desc>
  <g id="colored" stroke="none" stroke-width="1" fill="none" fill-rule="evenodd" sketch:type="MSPage">
        <g id="Marketing_sliced" sketch:type="MSLayerGroup" transform="translate(-240.000000, 0.000000)"/>
        <g id="Marketing" sketch:type="MSLayerGroup" transform="translate(-232.000000, 0.000000)" stroke="#314E55" stroke-width="2" stroke-linecap="round" stroke-linejoin="round">
            <g id="Gold" transform="translate(233.000000, 6.000000)" sketch:type="MSShapeGroup">
                <rect id="Rectangle-1488" fill="#DBCF56" x="2" y="0" width="54" height="21"/>
                <rect id="Rectangle-1489" fill="#E4AD40" x="7" y="5" width="44" height="11"/>
                <path d="M55,1 L50.4723074,5.52769279" id="Line" fill="#D8D8D8"/>
                <path d="M55,15 L50.4723074,19.5276928" id="Line" fill="#D8D8D8" transform="translate(52.500000, 17.500000) scale(1, -1) translate(-52.500000, -17.500000) "/>
                <path d="M8,1 L3.47230744,5.52769279" id="Line" fill="#D8D8D8" transform="translate(5.500000, 3.500000) scale(-1, 1) translate(-5.500000, -3.500000) "/>
                <path d="M8,15 L3.47230744,19.5276928" id="Line" fill="#D8D8D8" transform="translate(5.500000, 17.500000) scale(-1, -1) translate(-5.500000, -17.500000) "/>
                <g id="Group" transform="translate(29.395409, 36.913782) rotate(-11.000000) translate(-29.395409, -36.913782) translate(1.895409, 25.913782)">
                    <rect id="Rectangle-1488" fill="#DBCF56" x="2.04281037e-14" y="1" width="54" height="21"/>
                    <rect id="Rectangle-1489" fill="#E4AD40" x="5" y="6" width="44" height="11"/>
                    <path d="M53,2 L48.4723074,6.52769279" id="Line"/>
                    <path d="M53,16 L48.4723074,20.5276928" id="Line" fill="#D8D8D8" transform="translate(50.500000, 18.500000) scale(1, -1) translate(-50.500000, -18.500000) "/>
                    <path d="M6,2 L1.47230744,6.52769279" id="Line" fill="#D8D8D8" transform="translate(3.500000, 4.500000) scale(-1, 1) translate(-3.500000, -4.500000) "/>
                    <path d="M6,16 L1.47230744,20.5276928" id="Line" fill="#D8D8D8" transform="translate(3.500000, 18.500000) scale(-1, -1) translate(-3.500000, -18.500000) "/>
                </g>
            </g>
        </g>
    </g>
</svg>
