<?xml version="1.0" encoding="UTF-8" standalone="no"?>
<svg xmlns="http://www.w3.org/2000/svg" xmlns:xlink="http://www.w3.org/1999/xlink" xmlns:sketch="http://www.bohemiancoding.com/sketch/ns" width="60px" height="60px" viewBox="0 0 60 60" version="1.1">
  <!-- Generator: Sketch 3.2.2 (9983) - http://www.bohemiancoding.com/sketch -->
  <title>Movieroll</title>
  <desc>Created with Sketch.</desc>
  <g id="colored" stroke="none" stroke-width="1" fill="none" fill-rule="evenodd" sketch:type="MSPage">
        <g id="Photo_sliced" sketch:type="MSLayerGroup" transform="translate(-360.000000, 0.000000)"/>
        <g id="Photo" sketch:type="MSLayerGroup" transform="translate(-354.000000, 3.000000)" stroke="#314E55" stroke-width="2" fill="#E4AD40" stroke-linecap="round" stroke-linejoin="round">
            <g id="Movieroll" transform="translate(357.000000, 0.000000)" sketch:type="MSShapeGroup">
                <path d="M27,54 C41.9116882,54 54,41.9116882 54,27 C54,12.0883118 41.9116882,0 27,0 C12.0883118,0 0,12.0883118 0,27 C0,41.9116882 12.0883118,54 27,54 Z M27,30 C28.6568542,30 30,28.6568542 30,27 C30,25.3431458 28.6568542,24 27,24 C25.3431458,24 24,25.3431458 24,27 C24,28.6568542 25.3431458,30 27,30 Z M27,16 C29.7614237,16 32,13.7614237 32,11 C32,8.23857625 29.7614237,6 27,6 C24.2385763,6 22,8.23857625 22,11 C22,13.7614237 24.2385763,16 27,16 Z M36.5262794,21.5 C37.9069913,23.8914631 40.9649433,24.7108389 43.3564065,23.330127 C45.7478696,21.9494151 46.5672454,18.8914631 45.1865335,16.5 C43.8058216,14.1085369 40.7478696,13.2891611 38.3564065,14.669873 C35.9649433,16.0505849 35.1455676,19.1085369 36.5262794,21.5 Z M36.5262794,32.5 C35.1455676,34.8914631 35.9649433,37.9494151 38.3564065,39.330127 C40.7478696,40.7108389 43.8058216,39.8914631 45.1865335,37.5 C46.5672454,35.1085369 45.7478696,32.0505849 43.3564065,30.669873 C40.9649433,29.2891611 37.9069913,30.1085369 36.5262794,32.5 Z M27,38 C24.2385763,38 22,40.2385763 22,43 C22,45.7614237 24.2385763,48 27,48 C29.7614237,48 32,45.7614237 32,43 C32,40.2385763 29.7614237,38 27,38 Z M17.4737206,32.5 C16.0930087,30.1085369 13.0350567,29.2891611 10.6435935,30.669873 C8.25213042,32.0505849 7.43275465,35.1085369 8.81346652,37.5 C10.1941784,39.8914631 13.2521304,40.7108389 15.6435935,39.330127 C18.0350567,37.9494151 18.8544324,34.8914631 17.4737206,32.5 Z M17.4737206,21.5 C18.8544324,19.1085369 18.0350567,16.0505849 15.6435935,14.669873 C13.2521304,13.2891611 10.1941784,14.1085369 8.81346652,16.5 C7.43275465,18.8914631 8.25213042,21.9494151 10.6435935,23.330127 C13.0350567,24.7108389 16.0930087,23.8914631 17.4737206,21.5 Z" id="Oval-1861"/>
            </g>
        </g>
    </g>
</svg>
