<?xml version="1.0" encoding="UTF-8" standalone="no"?>
<!-- Created with Inkscape (http://www.inkscape.org/) -->

<svg
   xmlns:dc="http://purl.org/dc/elements/1.1/"
   xmlns:cc="http://creativecommons.org/ns#"
   xmlns:rdf="http://www.w3.org/1999/02/22-rdf-syntax-ns#"
   xmlns:svg="http://www.w3.org/2000/svg"
   xmlns="http://www.w3.org/2000/svg"
   xmlns:sodipodi="http://sodipodi.sourceforge.net/DTD/sodipodi-0.dtd"
   xmlns:inkscape="http://www.inkscape.org/namespaces/inkscape"
   width="48"
   height="48"
   id="svg2"
   sodipodi:version="0.32"
   inkscape:version="0.47 r22583"
   version="1.0"
   sodipodi:docname="mytetra.svg"
   inkscape:output_extension="org.inkscape.output.svg.inkscape"
   sodipodi:modified="true"
   inkscape:export-filename="/media/mx_120_part_3/home/xi/work/game_ksi/mytetra/desktop/mytetra.png"
   inkscape:export-xdpi="90"
   inkscape:export-ydpi="90">
  <defs
     id="defs4">
    <inkscape:perspective
       sodipodi:type="inkscape:persp3d"
       inkscape:vp_x="0 : 24 : 1"
       inkscape:vp_y="0 : 1000 : 0"
       inkscape:vp_z="48 : 24 : 1"
       inkscape:persp3d-origin="24 : 16 : 1"
       id="perspective39" />
  </defs>
  <sodipodi:namedview
     id="base"
     pagecolor="#ffffff"
     bordercolor="#666666"
     borderopacity="1.0"
     gridtolerance="10.3"
     guidetolerance="10"
     objecttolerance="10"
     inkscape:pageopacity="0.0"
     inkscape:pageshadow="2"
     inkscape:zoom="3.9470774"
     inkscape:cx="77.816504"
     inkscape:cy="31.629792"
     inkscape:document-units="px"
     inkscape:current-layer="layer1"
     width="48px"
     height="48px"
     showgrid="true"
     inkscape:grid-points="true"
     inkscape:window-width="1016"
     inkscape:window-height="711"
     inkscape:window-x="0"
     inkscape:window-y="0"
     inkscape:window-maximized="1" />
  <metadata
     id="metadata7">
    <rdf:RDF>
      <cc:Work
         rdf:about="">
        <dc:format>image/svg+xml</dc:format>
        <dc:type
           rdf:resource="http://purl.org/dc/dcmitype/StillImage" />
        <dc:title></dc:title>
      </cc:Work>
    </rdf:RDF>
  </metadata>
  <g
     inkscape:label="Layer 1"
     inkscape:groupmode="layer"
     id="layer1">
    <rect
       style="opacity:1;fill:#6c6cd3;fill-opacity:1;fill-rule:evenodd;stroke:#485189;stroke-width:1;stroke-miterlimit:4;stroke-dasharray:none;stroke-opacity:1"
       id="rect3388"
       width="32"
       height="38"
       x="9"
       y="5" />
    <g
       id="g3390"
       transform="translate(1,-1)">
      <rect
         ry="0"
         y="8"
         x="5"
         height="2"
         width="6"
         id="rect3392"
         style="opacity:1;fill:#999999;fill-opacity:1;fill-rule:evenodd;stroke:none;stroke-width:0.99999988;stroke-miterlimit:4;stroke-dasharray:none;stroke-opacity:1" />
      <rect
         ry="0"
         y="8"
         x="5"
         height="1"
         width="5"
         id="rect3394"
         style="opacity:1;fill:#000080;fill-opacity:1;fill-rule:evenodd;stroke:none;stroke-width:0.99999988;stroke-miterlimit:4;stroke-dasharray:none;stroke-opacity:1" />
    </g>
    <g
       id="g3396"
       transform="translate(1,3)">
      <rect
         ry="0"
         y="8"
         x="5"
         height="2"
         width="6"
         id="rect3398"
         style="opacity:1;fill:#999999;fill-opacity:1;fill-rule:evenodd;stroke:none;stroke-width:0.99999988;stroke-miterlimit:4;stroke-dasharray:none;stroke-opacity:1" />
      <rect
         ry="0"
         y="8"
         x="5"
         height="1"
         width="5"
         id="rect3400"
         style="opacity:1;fill:#000080;fill-opacity:1;fill-rule:evenodd;stroke:none;stroke-width:0.99999988;stroke-miterlimit:4;stroke-dasharray:none;stroke-opacity:1" />
    </g>
    <g
       id="g3402"
       transform="translate(1,7)">
      <rect
         ry="0"
         y="8"
         x="5"
         height="2"
         width="6"
         id="rect3404"
         style="opacity:1;fill:#999999;fill-opacity:1;fill-rule:evenodd;stroke:none;stroke-width:0.99999988;stroke-miterlimit:4;stroke-dasharray:none;stroke-opacity:1" />
      <rect
         ry="0"
         y="8"
         x="5"
         height="1"
         width="5"
         id="rect3406"
         style="opacity:1;fill:#000080;fill-opacity:1;fill-rule:evenodd;stroke:none;stroke-width:0.99999988;stroke-miterlimit:4;stroke-dasharray:none;stroke-opacity:1" />
    </g>
    <g
       id="g3408"
       transform="translate(1,11)">
      <rect
         ry="0"
         y="8"
         x="5"
         height="2"
         width="6"
         id="rect3410"
         style="opacity:1;fill:#999999;fill-opacity:1;fill-rule:evenodd;stroke:none;stroke-width:0.99999988;stroke-miterlimit:4;stroke-dasharray:none;stroke-opacity:1" />
      <rect
         ry="0"
         y="8"
         x="5"
         height="1"
         width="5"
         id="rect3412"
         style="opacity:1;fill:#000080;fill-opacity:1;fill-rule:evenodd;stroke:none;stroke-width:0.99999988;stroke-miterlimit:4;stroke-dasharray:none;stroke-opacity:1" />
    </g>
    <g
       id="g3414"
       transform="translate(1,15)">
      <rect
         ry="0"
         y="8"
         x="5"
         height="2"
         width="6"
         id="rect3416"
         style="opacity:1;fill:#999999;fill-opacity:1;fill-rule:evenodd;stroke:none;stroke-width:0.99999988;stroke-miterlimit:4;stroke-dasharray:none;stroke-opacity:1" />
      <rect
         ry="0"
         y="8"
         x="5"
         height="1"
         width="5"
         id="rect3418"
         style="opacity:1;fill:#000080;fill-opacity:1;fill-rule:evenodd;stroke:none;stroke-width:0.99999988;stroke-miterlimit:4;stroke-dasharray:none;stroke-opacity:1" />
    </g>
    <g
       id="g3420"
       transform="translate(1,19)">
      <rect
         ry="0"
         y="8"
         x="5"
         height="2"
         width="6"
         id="rect3422"
         style="opacity:1;fill:#999999;fill-opacity:1;fill-rule:evenodd;stroke:none;stroke-width:0.99999988;stroke-miterlimit:4;stroke-dasharray:none;stroke-opacity:1" />
      <rect
         ry="0"
         y="8"
         x="5"
         height="1"
         width="5"
         id="rect3424"
         style="opacity:1;fill:#000080;fill-opacity:1;fill-rule:evenodd;stroke:none;stroke-width:0.99999988;stroke-miterlimit:4;stroke-dasharray:none;stroke-opacity:1" />
    </g>
    <g
       id="g3426"
       transform="translate(1,23)">
      <rect
         ry="0"
         y="8"
         x="5"
         height="2"
         width="6"
         id="rect3428"
         style="opacity:1;fill:#999999;fill-opacity:1;fill-rule:evenodd;stroke:none;stroke-width:0.99999988;stroke-miterlimit:4;stroke-dasharray:none;stroke-opacity:1" />
      <rect
         ry="0"
         y="8"
         x="5"
         height="1"
         width="5"
         id="rect3430"
         style="opacity:1;fill:#000080;fill-opacity:1;fill-rule:evenodd;stroke:none;stroke-width:0.99999988;stroke-miterlimit:4;stroke-dasharray:none;stroke-opacity:1" />
    </g>
    <g
       id="g3432"
       transform="translate(1,27)">
      <rect
         ry="0"
         y="8"
         x="5"
         height="2"
         width="6"
         id="rect3434"
         style="opacity:1;fill:#999999;fill-opacity:1;fill-rule:evenodd;stroke:none;stroke-width:0.99999988;stroke-miterlimit:4;stroke-dasharray:none;stroke-opacity:1" />
      <rect
         ry="0"
         y="8"
         x="5"
         height="1"
         width="5"
         id="rect3436"
         style="opacity:1;fill:#000080;fill-opacity:1;fill-rule:evenodd;stroke:none;stroke-width:0.99999988;stroke-miterlimit:4;stroke-dasharray:none;stroke-opacity:1" />
    </g>
    <g
       id="g3438"
       transform="translate(1,31)">
      <rect
         ry="0"
         y="8"
         x="5"
         height="2"
         width="6"
         id="rect3440"
         style="opacity:1;fill:#999999;fill-opacity:1;fill-rule:evenodd;stroke:none;stroke-width:0.99999988;stroke-miterlimit:4;stroke-dasharray:none;stroke-opacity:1" />
      <rect
         ry="0"
         y="8"
         x="5"
         height="1"
         width="5"
         id="rect3442"
         style="opacity:1;fill:#000080;fill-opacity:1;fill-rule:evenodd;stroke:none;stroke-width:0.99999988;stroke-miterlimit:4;stroke-dasharray:none;stroke-opacity:1" />
    </g>
    <path
       style="font-size:28px;font-style:normal;font-weight:normal;fill:#ffffff;fill-opacity:1;stroke:none;stroke-width:1px;stroke-linecap:butt;stroke-linejoin:miter;stroke-opacity:1;font-family:Century"
       d="M 16.959999,9.6131477 L 18.79203,9.4969368 C 18.892288,9.9754585 18.958369,10.431187 18.990273,10.864124 C 19.336623,10.362828 19.682977,10.009638 20.029335,9.804554 C 20.375685,9.5994823 20.756218,9.4969433 21.170937,9.4969368 C 21.612988,9.4969433 21.977571,9.6131541 22.264687,9.8455696 C 22.55179,10.077997 22.772818,10.456252 22.927773,10.980335 C 23.233104,10.483596 23.572622,10.112177 23.946327,9.8660774 C 24.320017,9.6199901 24.727894,9.4969433 25.16996,9.4969368 C 25.753284,9.4969433 26.190783,9.6701202 26.48246,10.016468 C 26.856147,10.472203 27.042996,11.060093 27.043007,11.78014 L 27.043007,14.958851 C 27.042996,15.150258 27.090847,15.280141 27.186562,15.348499 C 27.314155,15.453318 27.503282,15.505726 27.753944,15.505726 L 28.075233,15.505726 L 28.075233,16.018421 L 24.855507,16.018421 L 24.855507,15.505726 L 25.176796,15.505726 C 25.450224,15.505726 25.64163,15.460154 25.751015,15.369007 C 25.86038,15.277862 25.915067,15.141143 25.915077,14.958851 L 25.915077,11.78014 C 25.915067,11.306186 25.798857,10.939325 25.566444,10.679554 C 25.334013,10.419794 25.028675,10.289911 24.650429,10.289906 C 24.363311,10.289911 24.103546,10.367385 23.871132,10.522327 C 23.638702,10.672723 23.456411,10.889195 23.324257,11.171741 C 23.128286,11.577345 23.030305,11.92142 23.030312,12.203968 L 23.030312,14.958851 C 23.030305,15.145701 23.080435,15.284698 23.180702,15.375843 C 23.280955,15.462432 23.435903,15.505726 23.645546,15.505726 L 24.083046,15.505726 L 24.083046,16.018421 L 20.822304,16.018421 L 20.822304,15.505726 L 21.191444,15.505726 C 21.423861,15.505726 21.597038,15.460154 21.710976,15.369007 C 21.824902,15.277862 21.881868,15.161651 21.881874,15.020374 L 21.881874,12.067249 C 21.881868,11.442905 21.770215,10.989455 21.546913,10.706898 C 21.328158,10.424351 21.031934,10.283075 20.658241,10.28307 C 20.175164,10.283075 19.803745,10.447138 19.543983,10.775257 C 19.17484,11.240106 18.99027,11.782423 18.990273,12.40221 L 18.990273,14.958851 C 18.99027,15.154815 19.033564,15.289255 19.120155,15.362171 C 19.243199,15.457875 19.434605,15.505726 19.694374,15.505726 L 20.022499,15.505726 L 20.022499,16.018421 L 16.795937,16.018421 L 16.795937,15.505726 L 17.281288,15.505726 C 17.463578,15.505726 17.602576,15.460154 17.69828,15.369007 C 17.798539,15.277862 17.848669,15.161651 17.848671,15.020374 L 17.848671,10.823109 C 17.848669,10.590692 17.789424,10.417515 17.670937,10.303577 C 17.552446,10.189651 17.315467,10.116734 16.959999,10.084827 L 16.959999,9.6131477 M 28.861366,9.6131477 L 31.930702,9.6131477 L 31.930702,10.077991 L 31.643593,10.077991 C 31.37471,10.077997 31.19014,10.114456 31.089882,10.187366 C 30.994176,10.255732 30.946325,10.355992 30.946327,10.488148 C 30.946325,10.547398 30.959997,10.606643 30.987343,10.665882 L 32.771523,14.521351 L 34.097694,11.322132 C 34.193392,11.094272 34.241243,10.870965 34.241249,10.65221 C 34.241243,10.483596 34.175163,10.353713 34.043007,10.262562 C 33.91084,10.166865 33.646517,10.105341 33.250038,10.077991 L 33.250038,9.6131477 L 35.916054,9.6131477 L 35.916054,10.077991 C 35.401073,10.128128 35.054719,10.358271 34.876991,10.768421 L 32.511757,16.285023 C 32.106154,17.219266 31.700556,17.861844 31.29496,18.212757 C 30.884801,18.568223 30.445023,18.745958 29.975624,18.74596 C 29.633826,18.745958 29.35811,18.652533 29.148476,18.465687 C 28.943397,18.278836 28.840858,18.048693 28.840858,17.775257 C 28.840858,17.570177 28.90466,17.401558 29.032265,17.269398 C 29.159868,17.137235 29.319373,17.071154 29.51078,17.071156 C 29.683956,17.071154 29.829789,17.128121 29.94828,17.242054 C 30.066768,17.355985 30.126013,17.492704 30.126015,17.65221 C 30.126013,17.702339 30.116899,17.770698 30.098671,17.857288 C 30.08044,17.925646 30.071326,17.975776 30.071327,18.007679 C 30.071326,18.117052 30.141964,18.171739 30.283241,18.171741 C 30.43363,18.171739 30.60225,18.117052 30.789101,18.007679 C 30.980504,17.898302 31.158239,17.722847 31.322304,17.481312 C 31.486363,17.239774 31.773472,16.706572 32.183632,15.881702 L 29.756874,10.665882 C 29.670284,10.483596 29.56091,10.349156 29.428749,10.262562 C 29.301144,10.171422 29.112017,10.109898 28.861366,10.077991 L 28.861366,9.6131477"
       id="text3444" />
    <path
       style="font-size:28px;font-style:normal;font-weight:normal;fill:#000000;fill-opacity:1;stroke:none;stroke-width:1px;stroke-linecap:butt;stroke-linejoin:miter;stroke-opacity:1;font-family:Century"
       d="M 25.922676,24.4375 C 24.414851,25.226576 23.149227,26.496106 22.125801,28.246094 C 21.102354,29.996103 20.590636,31.769538 20.590645,33.566406 C 20.590636,34.863285 21.035948,35.867191 21.926582,36.578125 C 22.825009,37.281252 24.098445,37.632814 25.746895,37.632812 C 27.825004,37.632814 29.547658,37.023439 30.914864,35.804688 C 32.289843,34.585942 33.110155,32.929693 33.375801,30.835938 C 33.578904,31.265633 33.680467,31.66407 33.680489,32.03125 C 33.680467,33.085943 33.012499,34.300786 31.676582,35.675781 C 29.575002,37.847657 27.414848,38.933594 25.196114,38.933594 C 24.282039,38.933594 23.387508,38.785156 22.51252,38.488281 C 21.645322,38.183594 20.950011,37.777345 20.426582,37.269531 C 19.567199,36.457034 19.137512,35.355472 19.13752,33.964844 C 19.137512,32.738287 19.399231,31.492195 19.922676,30.226562 C 20.446105,28.960947 21.172667,27.812511 22.102364,26.78125 C 22.899227,25.906263 23.95782,25.070326 25.278145,24.273438 C 23.301571,23.718765 21.766416,23.441422 20.672676,23.441406 C 19.102356,23.441422 17.825014,23.925796 16.840645,24.894531 C 15.864078,25.855482 15.375797,27.109387 15.375801,28.65625 C 15.375797,29.234385 15.469547,29.886728 15.657051,30.613281 C 14.922673,30.14454 14.555486,29.476572 14.555489,28.609375 C 14.555486,27.421886 15.114079,26.195325 16.23127,24.929688 C 17.840639,23.101578 19.621887,22.187517 21.57502,22.1875 C 22.848446,22.187517 24.735163,22.570329 27.235176,23.335938 C 27.399223,23.281266 27.496879,23.250016 27.528145,23.242188 L 29.086739,22.703125 C 30.46172,22.234392 31.891406,22.000017 33.375801,22 C 34.492966,22.000017 35.391402,22.18361 36.071114,22.550781 C 36.758589,22.910172 37.102338,23.386734 37.102364,23.980469 C 37.102338,24.714858 36.414839,25.265639 35.039864,25.632812 C 34.203904,25.851576 33.594529,26.093763 33.211739,26.359375 L 32.860176,26.265625 L 31.758614,25.996094 C 30.407032,25.667982 29.582814,25.460951 29.285957,25.375 L 26.414864,24.566406 C 26.383599,24.558608 26.219537,24.515639 25.922676,24.4375 M 28.020332,23.535156 C 29.137502,23.902359 30.407032,24.242202 31.828926,24.554688 C 33.258592,24.867202 34.242966,25.023451 34.782051,25.023438 C 35.282028,25.023451 35.699996,24.94142 36.035957,24.777344 C 36.37187,24.613296 36.539839,24.410171 36.539864,24.167969 C 36.539839,23.738296 36.168745,23.367203 35.426582,23.054688 C 34.684372,22.734391 33.80156,22.574235 32.778145,22.574219 C 31.145313,22.574235 29.559377,22.894547 28.020332,23.535156"
       id="text3448" />
  </g>
</svg>
